<svg width="20" height="20" viewBox="0 0 20 20" fill="none" xmlns="http://www.w3.org/2000/svg">
<path fill-rule="evenodd" clip-rule="evenodd" d="M1.6665 10.0052C1.6665 5.40336 5.39799 1.67188 9.99984 1.67188C14.6022 1.67188 18.3332 5.40309 18.3332 10.0052C18.3332 14.6073 14.6022 18.3385 9.99984 18.3385C5.39799 18.3385 1.6665 14.6071 1.6665 10.0052ZM17.0832 10.0052C17.0832 6.09342 13.9119 2.92188 9.99984 2.92188C6.08835 2.92188 2.9165 6.09372 2.9165 10.0052C2.9165 13.9167 6.08835 17.0885 9.99984 17.0885C13.9119 17.0885 17.0832 13.917 17.0832 10.0052ZM9.99575 6.21354C10.3122 6.21354 10.5737 6.44867 10.615 6.75373L10.6208 6.83854V10.521C10.6208 10.8662 10.3409 11.146 9.99575 11.146C9.67934 11.146 9.41784 10.9109 9.37646 10.6059L9.37075 10.521V6.83854C9.37075 6.49336 9.65057 6.21354 9.99575 6.21354ZM10.6291 13.1667C10.6291 12.8215 10.3493 12.5417 10.0041 12.5417L9.91094 12.5474C9.60588 12.5888 9.37075 12.8503 9.37075 13.1667C9.37075 13.5118 9.65057 13.7917 9.99575 13.7917L10.0889 13.786C10.394 13.7446 10.6291 13.4831 10.6291 13.1667Z" fill="#103265"/>
</svg>
