<svg width="30" height="30" viewBox="0 0 30 30" fill="none" xmlns="http://www.w3.org/2000/svg">
<g clip-path="url(#clip0_5_10857)">
<path d="M20.7733 0C20.8431 0 20.9129 0 20.9867 0C21.1579 2.11566 20.3504 3.69648 19.369 4.84126C18.406 5.97813 17.0873 7.08075 14.9545 6.91345C14.8123 4.82809 15.6211 3.36451 16.6012 2.22237C17.5102 1.15795 19.1766 0.210776 20.7733 0Z" fill="black"/>
<path d="M27.2296 22.0207C27.2296 22.0418 27.2296 22.0602 27.2296 22.08C26.6302 23.8953 25.7753 25.4511 24.7319 26.8949C23.7795 28.2057 22.6123 29.9696 20.5283 29.9696C18.7275 29.9696 17.5313 28.8117 15.6857 28.78C13.7334 28.7484 12.6598 29.7483 10.8747 29.9999C10.6706 29.9999 10.4664 29.9999 10.2661 29.9999C8.95537 29.8102 7.89753 28.7721 7.12689 27.8368C4.85446 25.073 3.09843 21.503 2.77173 16.9344C2.77173 16.4865 2.77173 16.04 2.77173 15.5921C2.91005 12.3224 4.49877 9.66398 6.61048 8.37562C7.72496 7.6906 9.25704 7.10701 10.963 7.36784C11.6941 7.48114 12.4411 7.73143 13.0958 7.9791C13.7163 8.21754 14.4922 8.6404 15.2273 8.61801C15.7252 8.60352 16.2205 8.344 16.7225 8.16089C18.1926 7.63 19.6338 7.02138 21.5334 7.30725C23.8164 7.65239 25.4367 8.66675 26.4379 10.2318C24.5067 11.4608 22.9799 13.313 23.2407 16.476C23.4726 19.3491 25.143 21.0301 27.2296 22.0207Z" fill="black"/>
</g>
<defs>
<clipPath id="clip0_5_10857">
<rect width="30" height="30" fill="white"/>
</clipPath>
</defs>
</svg>
