<svg width="11" height="21" viewBox="0 0 11 21" fill="none" xmlns="http://www.w3.org/2000/svg">
<path d="M9.01799 0.00500679C9.35217 0.00579643 9.67476 0.127607 9.92601 0.347963C10.2184 0.606125 10.3996 0.967272 10.432 1.35596C10.4673 1.74689 10.3518 2.13657 10.109 2.44501L3.75596 10.42L9.887 18.405C10.1269 18.7167 10.2379 19.1087 10.197 19.5C10.1585 19.8882 9.97145 20.2465 9.67497 20.5C9.53094 20.6341 9.35988 20.736 9.17326 20.7986C8.98664 20.8612 8.78881 20.8831 8.593 20.863C8.39632 20.8408 8.20654 20.7773 8.03624 20.6764C7.86593 20.5756 7.719 20.4398 7.60502 20.278L0.754985 11.35C0.54602 11.0791 0.432719 10.7466 0.432719 10.4045C0.432719 10.0624 0.54602 9.72988 0.754985 9.45899L7.84501 0.531984C7.98375 0.356295 8.16278 0.216682 8.36698 0.124941C8.57119 0.0331993 8.7945 -0.00794601 9.01799 0.00500679Z" fill="#637381"/>
</svg>
