<svg width="24" height="24" viewBox="0 0 24 24" fill="none" xmlns="http://www.w3.org/2000/svg">
<path d="M21.125 10.875H3.66919L10.3533 4.50847C10.7033 4.17509 10.7169 3.62122 10.3835 3.27122C10.0506 2.92166 9.49669 2.90766 9.14625 3.24103L1.51275 10.5123C1.18244 10.843 1 11.2823 1 11.75C1 12.2172 1.18244 12.6569 1.52806 13.0021L9.14669 20.2585C9.316 20.4199 9.533 20.5 9.75 20.5C9.981 20.5 10.212 20.409 10.3839 20.2283C10.7173 19.8783 10.7037 19.3248 10.3537 18.9915L3.64162 12.625H21.125C21.608 12.625 22 12.233 22 11.75C22 11.267 21.608 10.875 21.125 10.875Z" fill="black"/>
</svg>
