<?xml version="1.0" standalone="no"?>
<!DOCTYPE svg PUBLIC "-//W3C//DTD SVG 20010904//EN"
 "http://www.w3.org/TR/2001/REC-SVG-20010904/DTD/svg10.dtd">
<svg version="1.0" xmlns="http://www.w3.org/2000/svg"
 width="512.000000pt" height="512.000000pt" viewBox="0 0 512.000000 512.000000"
 preserveAspectRatio="xMidYMid meet">

<g transform="translate(0.000000,512.000000) scale(0.100000,-0.100000)"
fill="#000000" stroke="none">
<path d="M2989 5021 c-29 -23 -31 -81 -4 -111 15 -17 30 -20 102 -20 l83 0 0
-80 0 -80 -383 0 -384 0 -21 -23 -22 -23 0 -606 c0 -334 3 -614 6 -623 16 -40
52 -45 307 -45 l245 0 7 -27 c37 -149 200 -307 393 -382 451 -173 1015 2 1133
353 l18 51 256 5 257 5 24 28 24 28 0 595 c0 629 -1 641 -45 658 -9 3 -187 6
-396 6 l-379 0 0 80 0 80 83 0 c74 0 86 3 105 23 28 30 29 80 2 107 -20 20
-33 20 -704 20 -653 0 -685 -1 -707 -19z m1073 -201 l0 -75 -371 -3 -371 -2 0
73 c0 41 3 77 7 80 3 4 170 6 371 4 l364 -2 0 -75z m798 -745 l0 -505 -235 0
c-300 0 -293 3 -310 -119 -19 -144 -182 -283 -401 -343 -65 -17 -106 -21 -229
-21 -173 0 -256 17 -383 80 -138 68 -252 204 -252 300 0 44 -18 79 -47 92 -15
7 -109 11 -263 11 l-240 0 0 505 0 505 1180 0 1180 0 0 -505z"/>
<path d="M2870 4080 l0 -263 143 5 c96 3 153 10 177 20 91 39 119 135 59 203
-17 19 -37 35 -45 35 -21 0 -17 7 17 38 62 55 43 155 -37 196 -32 17 -63 21
-176 24 l-138 4 0 -262z m265 145 c32 -31 32 -58 -1 -84 -22 -17 -41 -21 -100
-21 l-74 0 0 65 0 65 75 0 c67 0 79 -3 100 -25z m36 -214 c23 -28 24 -60 5
-87 -12 -16 -29 -20 -115 -22 l-101 -4 0 72 0 72 96 -4 c86 -3 98 -5 115 -27z"/>
<path d="M4080 4081 l0 -261 45 0 45 0 0 85 0 85 55 0 55 0 62 -85 62 -85 53
0 54 0 -63 92 c-42 60 -59 93 -50 95 29 11 71 56 82 89 17 50 8 139 -17 172
-37 52 -82 65 -239 70 l-144 5 0 -262z m297 145 c14 -17 23 -40 23 -61 0 -21
-9 -44 -23 -61 -21 -24 -31 -27 -115 -32 l-92 -5 0 98 0 98 92 -5 c84 -5 94
-8 115 -32z"/>
<path d="M3568 4223 c-25 -60 -76 -174 -112 -255 l-65 -148 49 0 48 0 23 55
23 55 132 0 132 0 23 -55 23 -55 48 0 48 0 -26 58 c-14 31 -64 146 -112 255
l-86 197 -51 0 -50 0 -47 -107z m141 -101 c23 -51 41 -95 41 -97 0 -3 -40 -5
-90 -5 -89 0 -89 0 -81 23 22 56 82 180 85 176 2 -2 23 -46 45 -97z"/>
<path d="M922 4107 c-20 -22 -21 -32 -24 -357 l-3 -335 -33 -68 c-24 -47 -48
-79 -85 -109 -147 -121 -222 -231 -247 -363 -8 -42 -10 -278 -8 -802 l3 -741
-130 -4 c-120 -3 -133 -5 -177 -30 -93 -55 -143 -152 -136 -261 5 -75 29 -129
83 -183 58 -57 114 -74 247 -74 l108 0 0 -324 c0 -312 1 -324 21 -350 l20 -26
199 0 199 0 20 26 c20 26 21 38 21 345 l0 319 1565 0 1565 0 0 -323 0 -324 23
-21 c22 -21 32 -22 216 -22 190 0 192 0 216 25 l25 24 0 320 0 319 123 4 c141
4 176 17 244 90 127 139 76 358 -102 440 l-50 23 -938 3 -938 2 3 142 3 141
58 14 c156 35 317 162 390 308 59 119 62 141 62 506 0 317 -1 338 -19 358 -19
21 -22 21 -571 21 -530 0 -554 -1 -576 -19 l-24 -19 0 -339 c0 -321 1 -341 22
-408 63 -197 226 -353 423 -405 l65 -17 3 -142 3 -141 -468 0 -468 0 3 752 c2
512 -1 770 -8 805 -25 119 -100 225 -220 313 -80 57 -120 108 -150 186 -19 51
-20 78 -20 373 0 307 -1 319 -21 345 l-20 26 -238 0 c-234 0 -238 0 -259 -23z
m398 -322 l0 -205 -130 0 -130 0 0 198 c0 109 3 202 7 205 3 4 62 7 130 7
l123 0 0 -205z m15 -396 c4 -22 23 -73 43 -112 35 -71 53 -90 219 -247 87 -82
107 -129 111 -270 l4 -115 -314 3 c-172 2 -328 0 -346 -3 -18 -3 -42 -15 -53
-26 -18 -18 -19 -37 -19 -518 0 -275 3 -507 6 -516 16 -41 47 -45 394 -45
l330 0 0 -82 c-1 -86 -8 -106 -47 -126 -30 -16 -901 -17 -936 -1 -53 24 -52 5
-52 803 l0 741 24 45 c38 74 68 107 147 165 116 86 165 164 210 333 2 9 39 12
138 12 l134 0 7 -41z m1985 -969 c0 -154 -5 -281 -11 -312 -49 -227 -281 -387
-506 -348 -96 16 -182 61 -246 129 -115 120 -127 171 -127 518 l0 273 445 0
445 0 0 -260z m-1600 -320 l0 -400 -290 0 -290 0 0 400 0 400 290 0 290 0 0
-400z m3094 -934 c68 -28 97 -117 61 -186 -33 -65 149 -60 -2321 -60 l-2246 0
-39 39 c-34 34 -39 44 -39 86 0 56 27 100 74 121 47 20 4461 21 4510 0z
m-3966 -673 l-3 -268 -87 -2 -88 -2 0 270 0 269 90 0 90 0 -2 -267z m3602 -2
l0 -270 -87 2 -88 2 -3 268 -2 267 90 0 90 0 0 -269z"/>
</g>
</svg>
