<?xml version="1.0" standalone="no"?>
<!DOCTYPE svg PUBLIC "-//W3C//DTD SVG 20010904//EN"
 "http://www.w3.org/TR/2001/REC-SVG-20010904/DTD/svg10.dtd">
<svg version="1.0" xmlns="http://www.w3.org/2000/svg"
 width="1024.000000pt" height="1024.000000pt" viewBox="0 0 1024.000000 1024.000000"
 preserveAspectRatio="xMidYMid meet">

<g transform="translate(0.000000,1024.000000) scale(0.100000,-0.100000)"
fill="#000000" stroke="none">
<path d="M4995 9085 l-25 -24 1 -363 c1 -200 4 -410 8 -466 5 -93 8 -106 30
-123 40 -33 108 -22 131 21 12 23 15 691 3 845 -5 74 -10 93 -29 112 -32 32
-87 31 -119 -2z"/>
<path d="M4334 8991 c-34 -20 -49 -59 -38 -94 4 -12 76 -191 160 -397 108
-262 162 -382 180 -397 36 -33 79 -30 116 7 25 25 30 37 25 63 -8 47 -315 789
-335 809 -27 28 -73 32 -108 9z"/>
<path d="M5725 8951 c-12 -5 -26 -15 -32 -22 -28 -36 -373 -814 -373 -843 0
-43 24 -74 64 -81 75 -14 75 -14 279 435 103 226 187 422 187 435 0 53 -74 98
-125 76z"/>
<path d="M4362 7933 c-43 -21 -91 -78 -165 -195 -74 -118 -83 -151 -61 -227
19 -69 36 -31 -149 -341 -256 -431 -279 -478 -457 -955 -123 -328 -167 -435
-186 -451 -14 -11 -82 -44 -152 -74 -215 -90 -301 -138 -410 -229 -58 -48
-136 -151 -171 -225 -16 -34 -275 -738 -576 -1566 -603 -1656 -576 -1572 -540
-1706 33 -122 113 -217 227 -268 29 -13 384 -144 788 -292 795 -289 812 -294
926 -265 122 31 231 119 279 223 49 110 1108 3036 1122 3103 21 98 12 244 -22
360 -14 50 -68 178 -120 285 -53 107 -95 201 -95 208 0 8 67 204 149 435 170
482 186 542 265 1027 48 292 58 337 77 353 12 9 25 17 29 17 4 0 17 -8 29 -17
18 -16 28 -57 66 -293 94 -573 93 -568 276 -1087 82 -231 149 -428 149 -436 0
-8 -38 -91 -84 -184 -46 -93 -96 -203 -111 -244 -54 -149 -68 -300 -41 -430
16 -75 1081 -3011 1126 -3105 38 -77 110 -145 198 -187 62 -29 75 -32 167 -32
l100 0 750 274 c413 150 768 283 790 294 103 51 179 146 210 261 36 134 63 50
-540 1706 -301 828 -560 1533 -576 1567 -16 34 -54 93 -84 130 -102 128 -224
208 -474 313 -81 34 -160 72 -174 84 -20 16 -62 116 -187 451 -180 480 -196
514 -463 964 l-163 274 18 54 c14 40 16 62 9 93 -16 71 -153 279 -213 323 -14
11 -49 22 -77 25 -45 4 -82 -7 -369 -112 -176 -64 -324 -116 -330 -116 -7 0
-154 52 -328 115 -333 121 -369 129 -432 98z m345 -257 c142 -52 265 -97 275
-101 13 -5 18 -26 23 -93 4 -48 11 -109 15 -135 7 -44 5 -49 -14 -57 -73 -27
-105 -87 -127 -237 -7 -45 -15 -87 -18 -92 -4 -6 -138 38 -326 106 -176 64
-322 117 -324 119 -2 1 20 43 49 93 83 144 92 188 54 263 -13 26 -11 31 53
127 37 56 70 101 74 101 4 0 124 -42 266 -94z m1167 -7 c62 -96 65 -102 52
-127 -38 -75 -29 -119 54 -263 29 -50 51 -91 49 -93 -12 -9 -643 -235 -647
-231 -2 2 -13 53 -23 112 -11 59 -24 121 -31 136 -11 30 -74 87 -95 87 -7 0
-17 8 -22 18 -10 19 -35 231 -28 238 5 6 601 223 613 223 7 1 41 -44 78 -100z
m-1399 -769 c187 -68 344 -127 349 -131 9 -8 -42 -307 -79 -464 -13 -55 -46
-161 -73 -235 l-48 -135 -54 -18 c-192 -64 -426 -34 -593 77 -65 43 -193 175
-221 228 l-20 37 53 143 c29 79 78 190 108 248 97 186 215 381 227 377 6 -2
164 -60 351 -127z m1733 -8 c131 -225 187 -339 243 -491 l52 -143 -19 -36
c-28 -53 -157 -185 -221 -228 -167 -111 -401 -141 -593 -77 l-54 18 -49 135
c-26 74 -59 180 -72 235 -31 129 -87 443 -83 456 3 8 679 263 710 268 3 1 42
-61 86 -137z m-2465 -934 c192 -190 444 -279 703 -248 53 6 97 10 98 8 2 -2
-25 -82 -60 -178 -35 -96 -63 -188 -63 -205 -1 -54 19 -107 114 -305 116 -240
140 -321 132 -460 -4 -85 -11 -113 -66 -264 -34 -93 -64 -173 -67 -178 -3 -5
-23 42 -44 105 -68 204 -158 354 -298 498 -380 395 -953 446 -1461 130 -46
-28 -85 -50 -87 -49 -7 8 129 356 156 398 40 62 139 155 212 198 31 19 129 65
217 102 268 116 272 120 362 358 35 95 65 172 66 172 1 0 40 -37 86 -82z
m2905 -87 c35 -92 73 -182 85 -199 33 -46 99 -85 269 -157 84 -36 182 -82 217
-102 80 -47 179 -138 221 -203 27 -42 163 -390 156 -398 -2 -1 -41 21 -87 49
-168 105 -332 166 -514 194 -209 31 -394 8 -585 -72 -238 -100 -458 -310 -580
-553 -42 -83 -96 -224 -105 -273 -4 -21 -11 -35 -16 -30 -4 4 -36 85 -70 178
-55 152 -62 180 -66 265 -8 139 16 220 132 460 95 198 115 251 114 305 0 17
-28 109 -63 205 -35 96 -62 176 -60 178 1 2 45 -2 98 -8 72 -9 120 -8 192 0
211 25 373 105 519 256 39 40 72 73 75 73 3 1 34 -75 68 -168z m-3098 -992
c101 -16 237 -65 324 -117 93 -55 243 -197 303 -287 117 -175 186 -376 213
-618 l11 -97 -231 -637 -231 -638 -89 -86 c-243 -234 -523 -358 -812 -359
-244 0 -446 77 -618 237 -210 196 -335 466 -368 798 l-9 90 229 635 230 635
97 95 c277 270 633 401 951 349z m3446 -4 c230 -41 449 -156 642 -340 l95 -91
231 -636 232 -637 -8 -88 c-36 -417 -241 -768 -549 -937 -134 -74 -268 -106
-437 -106 -289 1 -569 125 -812 359 l-89 86 -231 639 c-231 637 -232 638 -225
700 28 260 99 473 218 651 60 90 210 232 303 287 83 49 224 102 315 117 86 14
219 12 315 -4z m-4982 -2341 c147 -318 421 -554 745 -642 86 -23 114 -26 276
-26 157 0 192 3 270 23 152 40 297 103 428 187 37 24 67 41 67 37 0 -3 -55
-157 -122 -341 -131 -361 -151 -398 -227 -439 -91 -48 -81 -51 -887 242 -401
146 -745 272 -766 281 -46 21 -103 78 -123 126 -31 76 -23 114 101 454 64 176
121 332 127 348 9 27 12 23 43 -72 18 -55 49 -135 68 -178z m6441 -74 c133
-365 142 -401 109 -478 -18 -43 -67 -97 -107 -118 -16 -9 -361 -136 -769 -285
-819 -298 -807 -294 -899 -246 -76 41 -96 78 -227 439 -67 184 -122 338 -122
341 0 4 32 -14 71 -39 88 -57 230 -125 329 -157 268 -87 577 -73 815 37 184
85 355 232 470 406 77 115 123 210 167 347 18 56 34 100 36 99 1 -2 59 -157
127 -346z"/>
<path d="M2937 4100 c-14 -11 -28 -33 -32 -49 -7 -34 15 -85 42 -96 10 -4 197
-72 416 -151 275 -100 405 -143 420 -138 12 3 32 16 45 27 27 25 30 85 5 116
-20 24 -798 311 -844 311 -14 0 -38 -9 -52 -20z"/>
<path d="M2595 3785 c-33 -32 -33 -84 -2 -119 17 -19 160 -75 616 -241 326
-118 605 -215 618 -215 35 0 83 51 83 89 0 62 -9 66 -639 295 -327 119 -607
216 -623 216 -17 0 -39 -10 -53 -25z"/>
<path d="M6820 3974 c-261 -96 -401 -151 -412 -165 -26 -31 -23 -91 5 -116 12
-11 32 -24 44 -27 15 -5 145 38 420 138 219 79 406 147 416 151 27 11 49 62
42 96 -8 37 -50 69 -89 68 -17 0 -209 -66 -426 -145z"/>
<path d="M6961 3591 c-627 -229 -631 -231 -631 -293 0 -37 48 -88 84 -88 13 0
292 97 618 215 457 166 598 221 616 241 49 55 10 145 -62 143 -17 0 -298 -98
-625 -218z"/>
</g>
</svg>
