<svg width="24" height="24" viewBox="0 0 24 24" fill="none" xmlns="http://www.w3.org/2000/svg">
<path d="M6.08283 13.7937C6.06392 13.7384 6.03439 13.6876 5.99598 13.6442C5.95756 13.6007 5.91105 13.5656 5.85918 13.5409C5.80731 13.5162 5.75113 13.5024 5.69396 13.5003C5.63679 13.4982 5.57978 13.5078 5.5263 13.5286C5.47282 13.5494 5.42395 13.581 5.38257 13.6214C5.3412 13.6619 5.30815 13.7104 5.28539 13.7641C5.26262 13.8179 5.2506 13.8757 5.25002 13.9343C5.24945 13.9929 5.26034 14.051 5.28205 14.1052C5.73643 15.3323 6.53163 16.3963 7.56957 17.1662C7.61508 17.2 7.66667 17.2244 7.72139 17.2379C7.7761 17.2513 7.83287 17.2536 7.88845 17.2446C7.94403 17.2356 7.99734 17.2155 8.04532 17.1854C8.09331 17.1553 8.13503 17.1158 8.16812 17.0692C8.2012 17.0226 8.225 16.9698 8.23814 16.9137C8.25129 16.8577 8.25353 16.7996 8.24474 16.7427C8.23594 16.6858 8.21629 16.6312 8.1869 16.582C8.1575 16.5329 8.11895 16.4902 8.07343 16.4563C7.17039 15.7867 6.47843 14.8611 6.08283 13.7937Z" fill="#103265"/>
<path d="M18.8455 15.1993C19.4167 15.1986 19.9643 14.9643 20.3682 14.5477C20.7721 14.1311 20.9993 13.5663 21 12.9771V12.4922C20.9993 11.9031 20.7721 11.3382 20.3682 10.9217C19.9643 10.5051 19.4167 10.2707 18.8455 10.27H18.5495V9.58333C18.5495 9.22971 18.4133 8.89057 18.1709 8.64052C17.9285 8.39048 17.5997 8.25 17.2569 8.25H4.29267C3.94983 8.25 3.62104 8.39048 3.37861 8.64052C3.13619 8.89057 3 9.22971 3 9.58333V12.6944C3.00217 14.6976 3.77462 16.6181 5.14787 18.0346C6.52113 19.451 8.38305 20.2478 10.3251 20.25H11.2244C12.74 20.2473 14.2175 19.7601 15.4537 18.8557C16.6898 17.9512 17.6238 16.6738 18.1273 15.1993H18.8455ZM18.8455 11.1589C19.1884 11.1589 19.5172 11.2994 19.7596 11.5494C20.002 11.7995 20.1382 12.1386 20.1382 12.4922V12.9771C20.1382 13.3307 20.002 13.6699 19.7596 13.9199C19.5172 14.17 19.1884 14.3104 18.8455 14.3104H18.5495V11.1589H18.8455ZM11.2244 19.3611H10.3251C8.61154 19.3591 6.96869 18.6561 5.75699 17.4063C4.5453 16.1565 3.86372 14.4619 3.86178 12.6944V9.58333C3.86178 9.46546 3.90718 9.35241 3.98798 9.26906C4.06879 9.18571 4.17839 9.13889 4.29267 9.13889H17.2569C17.3711 9.13889 17.4807 9.18571 17.5615 9.26906C17.6424 9.35241 17.6877 9.46546 17.6877 9.58333V12.6944C17.6859 14.462 17.0044 16.1566 15.7927 17.4064C14.5809 18.6562 12.938 19.3592 11.2244 19.3611Z" fill="#103265"/>
<path d="M4.92188 21C4.80999 21 4.70268 21.0395 4.62356 21.1098C4.54445 21.1802 4.5 21.2755 4.5 21.375C4.5 21.4745 4.54445 21.5698 4.62356 21.6402C4.70268 21.7105 4.80999 21.75 4.92188 21.75H17.5781C17.69 21.75 17.7973 21.7105 17.8764 21.6402C17.9556 21.5698 18 21.4745 18 21.375C18 21.2755 17.9556 21.1802 17.8764 21.1098C17.7973 21.0395 17.69 21 17.5781 21H4.92188Z" fill="#103265"/>
<path d="M7.79027 3.10445C7.71328 3.03757 7.60887 3 7.5 3C7.39113 3 7.28672 3.03757 7.20973 3.10445C6.91534 3.36073 6.75 3.70803 6.75 4.07012C6.75 4.43221 6.91534 4.77951 7.20973 5.0358C7.35028 5.15824 7.42921 5.32412 7.42921 5.49705C7.42921 5.66999 7.35028 5.83586 7.20973 5.95831L7.00444 6.13667C6.96523 6.16958 6.93395 6.20894 6.91244 6.25247C6.89092 6.29599 6.87959 6.3428 6.87912 6.39017C6.87864 6.43753 6.88903 6.48451 6.90968 6.52835C6.93032 6.57219 6.96081 6.61202 6.99936 6.64552C7.0379 6.67901 7.08375 6.7055 7.1342 6.72344C7.18466 6.74137 7.23872 6.7504 7.29324 6.74999C7.34775 6.74957 7.40163 6.73973 7.45172 6.72104C7.50181 6.70234 7.54711 6.67517 7.58499 6.64109L7.79027 6.46273C8.08466 6.20644 8.25 5.85914 8.25 5.49705C8.25 5.13496 8.08466 4.78766 7.79027 4.53138C7.64972 4.40893 7.57079 4.24306 7.57079 4.07012C7.57079 3.89719 7.64972 3.73131 7.79027 3.60887C7.86724 3.54197 7.91048 3.45125 7.91048 3.35666C7.91048 3.26206 7.86724 3.17134 7.79027 3.10445Z" fill="#103265"/>
<path d="M11.5403 3.60525C11.6151 3.5379 11.6564 3.44768 11.6555 3.35404C11.6546 3.2604 11.6114 3.17082 11.5353 3.1046C11.4591 3.03839 11.3562 3.00083 11.2485 3.00001C11.1409 2.9992 11.0372 3.0352 10.9597 3.10025C10.6653 3.35683 10.5 3.70453 10.5 4.06704C10.5 4.42955 10.6653 4.77725 10.9597 5.03383C11.1003 5.15641 11.1792 5.32248 11.1792 5.49561C11.1792 5.66874 11.1003 5.83481 10.9597 5.9574L10.7544 6.13597C10.7152 6.16891 10.684 6.20832 10.6624 6.2519C10.6409 6.29547 10.6296 6.34233 10.6291 6.38975C10.6286 6.43718 10.639 6.4842 10.6597 6.52809C10.6803 6.57199 10.7108 6.61186 10.7494 6.6454C10.7879 6.67893 10.8337 6.70545 10.8842 6.72341C10.9347 6.74136 10.9887 6.7504 11.0432 6.74999C11.0978 6.74957 11.1516 6.73972 11.2017 6.721C11.2518 6.70229 11.2971 6.67508 11.335 6.64097L11.5403 6.4624C11.8347 6.20582 12 5.85812 12 5.49561C12 5.1331 11.8347 4.78541 11.5403 4.52883C11.3997 4.40624 11.3208 4.24017 11.3208 4.06704C11.3208 3.89391 11.3997 3.72784 11.5403 3.60525Z" fill="#103265"/>
<path d="M15.2903 3.10445C15.2133 3.03757 15.1089 3 15 3C14.8911 3 14.7867 3.03757 14.7097 3.10445C14.4153 3.36073 14.25 3.70803 14.25 4.07012C14.25 4.43221 14.4153 4.77951 14.7097 5.0358C14.8503 5.15824 14.9292 5.32412 14.9292 5.49705C14.9292 5.66999 14.8503 5.83586 14.7097 5.95831L14.5044 6.13667C14.4652 6.16958 14.434 6.20894 14.4124 6.25247C14.3909 6.29599 14.3796 6.3428 14.3791 6.39017C14.3786 6.43753 14.389 6.48451 14.4097 6.52835C14.4303 6.57219 14.4608 6.61202 14.4994 6.64552C14.5379 6.67901 14.5837 6.7055 14.6342 6.72344C14.6847 6.74137 14.7387 6.7504 14.7932 6.74999C14.8478 6.74957 14.9016 6.73973 14.9517 6.72104C15.0018 6.70234 15.0471 6.67517 15.085 6.64109L15.2903 6.46273C15.5847 6.20644 15.75 5.85914 15.75 5.49705C15.75 5.13496 15.5847 4.78766 15.2903 4.53138C15.1497 4.40893 15.0708 4.24306 15.0708 4.07012C15.0708 3.89719 15.1497 3.73131 15.2903 3.60887C15.3672 3.54197 15.4105 3.45125 15.4105 3.35666C15.4105 3.26206 15.3672 3.17134 15.2903 3.10445Z" fill="#103265"/>
</svg>
