<svg width="33" height="32" viewBox="0 0 33 32" fill="none" xmlns="http://www.w3.org/2000/svg">
<path d="M23.7667 30.3334C22.26 30.3334 20.6734 29.9734 19.0334 29.2801C17.4334 28.6001 15.82 27.6667 14.2467 26.5334C12.6867 25.3867 11.18 24.1067 9.75335 22.7067C8.34002 21.2801 7.06002 19.7734 5.92669 18.2267C4.78002 16.6267 3.86002 15.0267 3.20669 13.4801C2.51335 11.8267 2.16669 10.2267 2.16669 8.72008C2.16669 7.68008 2.35335 6.69341 2.71335 5.77341C3.08669 4.82675 3.68669 3.94675 4.50002 3.18675C5.52669 2.17341 6.70002 1.66675 7.95335 1.66675C8.47335 1.66675 9.00669 1.78675 9.46002 2.00008C9.98002 2.24008 10.42 2.60008 10.74 3.08008L13.8334 7.44008C14.1134 7.82675 14.3267 8.20008 14.4734 8.57341C14.6467 8.97341 14.74 9.37341 14.74 9.76008C14.74 10.2667 14.5934 10.7601 14.3134 11.2267C14.1134 11.5867 13.8067 11.9734 13.42 12.3601L12.5134 13.3067C12.5267 13.3467 12.54 13.3734 12.5534 13.4001C12.7134 13.6801 13.0334 14.1601 13.6467 14.8801C14.3 15.6267 14.9134 16.3067 15.5267 16.9334C16.3134 17.7067 16.9667 18.3201 17.58 18.8267C18.34 19.4667 18.8334 19.7867 19.1267 19.9334L19.1 20.0001L20.0734 19.0401C20.4867 18.6267 20.8867 18.3201 21.2734 18.1201C22.0067 17.6667 22.94 17.5867 23.8734 17.9734C24.22 18.1201 24.5934 18.3201 24.9934 18.6001L29.42 21.7467C29.9134 22.0801 30.2734 22.5067 30.4867 23.0134C30.6867 23.5201 30.78 23.9867 30.78 24.4534C30.78 25.0934 30.6334 25.7334 30.3534 26.3334C30.0734 26.9334 29.7267 27.4534 29.2867 27.9334C28.5267 28.7734 27.7 29.3734 26.74 29.7601C25.82 30.1334 24.82 30.3334 23.7667 30.3334ZM7.95335 3.66675C7.22002 3.66675 6.54002 3.98675 5.88669 4.62675C5.27335 5.20008 4.84669 5.82675 4.58002 6.50675C4.30002 7.20008 4.16669 7.93341 4.16669 8.72008C4.16669 9.96008 4.46002 11.3067 5.04669 12.6934C5.64669 14.1067 6.48669 15.5734 7.55335 17.0401C8.62002 18.5067 9.83335 19.9334 11.1667 21.2801C12.5 22.6001 13.94 23.8267 15.42 24.9067C16.86 25.9601 18.34 26.8134 19.8067 27.4267C22.0867 28.4001 24.22 28.6267 25.98 27.8934C26.66 27.6134 27.26 27.1867 27.8067 26.5734C28.1134 26.2401 28.3534 25.8801 28.5534 25.4534C28.7134 25.1201 28.7934 24.7734 28.7934 24.4267C28.7934 24.2134 28.7534 24.0001 28.6467 23.7601C28.6067 23.6801 28.5267 23.5334 28.2734 23.3601L23.8467 20.2134C23.58 20.0267 23.34 19.8934 23.1134 19.8001C22.82 19.6801 22.7 19.5601 22.2467 19.8401C21.98 19.9734 21.74 20.1734 21.4734 20.4401L20.46 21.4401C19.94 21.9467 19.14 22.0667 18.5267 21.8401L18.1667 21.6801C17.62 21.3867 16.98 20.9334 16.2734 20.3334C15.6334 19.7867 14.94 19.1467 14.1 18.3201C13.4467 17.6534 12.7934 16.9467 12.1134 16.1601C11.4867 15.4267 11.0334 14.8001 10.7534 14.2801L10.5934 13.8801C10.5134 13.5734 10.4867 13.4001 10.4867 13.2134C10.4867 12.7334 10.66 12.3067 10.9934 11.9734L11.9934 10.9334C12.26 10.6667 12.46 10.4134 12.5934 10.1867C12.7 10.0134 12.74 9.86675 12.74 9.73341C12.74 9.62675 12.7 9.46675 12.6334 9.30675C12.54 9.09341 12.3934 8.85341 12.2067 8.60008L9.11335 4.22675C8.98002 4.04008 8.82002 3.90675 8.62002 3.81341C8.40669 3.72008 8.18002 3.66675 7.95335 3.66675ZM19.1 20.0134L18.8867 20.9201L19.2467 19.9867C19.18 19.9734 19.1267 19.9867 19.1 20.0134Z" fill="#8F00FF"/>
</svg>
