<svg width="21" height="19" viewBox="0 0 21 19" fill="none" xmlns="http://www.w3.org/2000/svg">
<path fill-rule="evenodd" clip-rule="evenodd" d="M10.278 7.45215C10.4825 7.45215 10.6786 7.53338 10.8232 7.67797C10.9678 7.82256 11.049 8.01867 11.049 8.22315V9.50815H12.334C12.5385 9.50815 12.7346 9.58938 12.8792 9.73397C13.0238 9.87856 13.105 10.0747 13.105 10.2791C13.105 10.4836 13.0238 10.6797 12.8792 10.8243C12.7346 10.9689 12.5385 11.0501 12.334 11.0501H11.049V12.3351C11.049 12.5396 10.9678 12.7357 10.8232 12.8803C10.6786 13.0249 10.4825 13.1061 10.278 13.1061C10.0735 13.1061 9.8774 13.0249 9.73281 12.8803C9.58822 12.7357 9.50699 12.5396 9.50699 12.3351V11.0491H8.21799C8.01351 11.0491 7.8174 10.9679 7.67281 10.8233C7.52822 10.6787 7.44699 10.4826 7.44699 10.2781C7.44699 10.0737 7.52822 9.87756 7.67281 9.73297C7.8174 9.58838 8.01351 9.50715 8.21799 9.50715H9.50299V8.22315C9.50299 8.1219 9.52293 8.02164 9.56168 7.9281C9.60043 7.83456 9.65722 7.74956 9.72881 7.67797C9.80041 7.60638 9.8854 7.54958 9.97894 7.51084C10.0725 7.47209 10.1727 7.45215 10.274 7.45215H10.278Z" fill="#637381"/>
<path fill-rule="evenodd" clip-rule="evenodd" d="M7.994 18.5H12.561C15.769 18.5 17.373 18.5 18.525 17.745C19.0221 17.4193 19.4502 16.999 19.785 16.508C20.555 15.378 20.555 13.802 20.555 10.653C20.555 7.50404 20.555 5.92804 19.785 4.79804C19.4502 4.30704 19.0221 3.88672 18.525 3.56104C17.5813 3.04377 16.5142 2.79444 15.439 2.84004C15.1098 2.83502 14.7922 2.71766 14.5389 2.50742C14.2855 2.29717 14.1116 2.00666 14.046 1.68404C13.9453 1.20557 13.6823 0.776596 13.3016 0.469724C12.921 0.162852 12.446 -0.0030687 11.957 4.29837e-05H8.598C8.10952 -0.00302377 7.63493 0.16254 7.25435 0.468788C6.87377 0.775036 6.61051 1.20321 6.509 1.68104C6.44358 2.00385 6.26976 2.29458 6.01639 2.50503C5.76303 2.71547 5.44533 2.83297 5.116 2.83804C4.04191 2.79381 2.97607 3.04307 2.033 3.55904C1.53479 3.88566 1.10593 4.30739 0.771 4.80004C-1.19209e-07 5.93104 0 7.50504 0 10.655C0 13.805 0 15.379 0.77 16.51C1.10586 17.0006 1.53502 17.4203 2.033 17.745C3.182 18.5 4.786 18.5 7.994 18.5ZM14.389 10.278C14.388 11.2292 14.0573 12.1506 13.4531 12.8852C12.8489 13.6199 12.0086 14.1222 11.0755 14.3068C10.1424 14.4913 9.17422 14.3465 8.33588 13.8972C7.49755 13.4478 6.84097 12.7217 6.47803 11.8425C6.1151 10.9633 6.06827 9.98542 6.34553 9.07556C6.62278 8.16569 7.20696 7.38012 7.99852 6.85272C8.79008 6.32531 9.74004 6.0887 10.6865 6.18322C11.633 6.27773 12.5174 6.69752 13.189 7.37104C13.9585 8.14269 14.3901 9.18829 14.389 10.278ZM16.444 6.42404C16.2395 6.42404 16.0434 6.50527 15.8988 6.64986C15.7542 6.79445 15.673 6.99056 15.673 7.19504C15.673 7.39952 15.7542 7.59563 15.8988 7.74022C16.0434 7.88481 16.2395 7.96604 16.444 7.96604H17.472C17.6765 7.96604 17.8726 7.88481 18.0172 7.74022C18.1618 7.59563 18.243 7.39952 18.243 7.19504C18.243 6.99056 18.1618 6.79445 18.0172 6.64986C17.8726 6.50527 17.6765 6.42404 17.472 6.42404H16.444Z" fill="#637381"/>
</svg>
