<svg width="20" height="20" viewBox="0 0 20 20" fill="none" xmlns="http://www.w3.org/2000/svg">
<path d="M12.59 6L10 8.59L7.41 6L6 7.41L8.59 10L6 12.59L7.41 14L10 11.41L12.59 14L14 12.59L11.41 10L14 7.41L12.59 6ZM10 4.05768e-06C8.02219 4.05768e-06 6.08879 0.586494 4.4443 1.68531C2.79981 2.78412 1.51809 4.34591 0.761209 6.17317C0.00433284 8.00043 -0.193701 10.0111 0.192152 11.9509C0.578004 13.8907 1.53041 15.6725 2.92894 17.0711C4.32746 18.4696 6.10929 19.422 8.0491 19.8079C9.98891 20.1937 11.9996 19.9957 13.8268 19.2388C15.6541 18.4819 17.2159 17.2002 18.3147 15.5557C19.4135 13.9112 20 11.9778 20 10C20.0012 8.68645 19.7433 7.38556 19.2412 6.17177C18.7391 4.95798 18.0025 3.85512 17.0737 2.9263C16.1449 1.99747 15.042 1.26093 13.8282 0.758798C12.6144 0.25667 11.3136 -0.00117974 10 4.05768e-06ZM10 18C8.41775 18 6.87104 17.5308 5.55544 16.6518C4.23985 15.7727 3.21447 14.5233 2.60897 13.0615C2.00347 11.5997 1.84504 9.99113 2.15372 8.43928C2.4624 6.88743 3.22433 5.46197 4.34315 4.34315C5.46197 3.22433 6.88743 2.4624 8.43928 2.15372C9.99113 1.84504 11.5997 2.00347 13.0615 2.60897C14.5233 3.21447 15.7727 4.23985 16.6518 5.55544C17.5308 6.87104 18 8.41775 18 10C17.9971 12.1208 17.1533 14.154 15.6536 15.6536C14.154 17.1533 12.1208 17.9971 10 18Z" fill="#F23C34"/>
</svg>
