<svg width="24" height="24" viewBox="0 0 24 24" fill="none" xmlns="http://www.w3.org/2000/svg">
<mask id="path-1-inside-1_9189_12495" fill="white">
<path d="M21 6.36609V4.87504C21 4.77559 20.9605 4.6802 20.8902 4.60988C20.8198 4.53955 20.7245 4.50004 20.625 4.50004H19.2385L17.7207 3.4881C17.9341 3.34232 18.1062 3.14385 18.2203 2.91195C18.3344 2.68006 18.3867 2.4226 18.372 2.16456C18.3573 1.90652 18.2762 1.65666 18.1365 1.4392C17.9968 1.22175 17.8033 1.04408 17.5748 0.923439C17.3462 0.802797 17.0903 0.743273 16.832 0.750642C16.5736 0.75801 16.3215 0.832021 16.1002 0.965494C15.8789 1.09897 15.6958 1.28737 15.5688 1.51244C15.4417 1.7375 15.3749 1.99159 15.375 2.25004C15.375 2.3495 15.4145 2.44488 15.4848 2.51521C15.5552 2.58553 15.6505 2.62504 15.75 2.62504C15.8495 2.62504 15.9448 2.58553 16.0152 2.51521C16.0855 2.44488 16.125 2.3495 16.125 2.25004C16.125 2.10171 16.169 1.9567 16.2514 1.83336C16.3338 1.71003 16.4509 1.6139 16.588 1.55713C16.725 1.50037 16.8758 1.48551 17.0213 1.51445C17.1668 1.54339 17.3004 1.61482 17.4053 1.71971C17.5102 1.8246 17.5816 1.95824 17.6106 2.10372C17.6395 2.24921 17.6247 2.40001 17.5679 2.53705C17.5111 2.6741 17.415 2.79123 17.2917 2.87364C17.1683 2.95606 17.0233 3.00004 16.875 3.00004C16.801 3.00002 16.7286 3.02194 16.667 3.06304L14.5115 4.50004H13.125C13.1203 4.50004 13.116 4.50056 13.1114 4.50074C13.1005 4.50074 13.0897 4.50004 13.0789 4.50004H11.3635L9.84562 3.4881C10.059 3.34232 10.2312 3.14386 10.3453 2.91196C10.4594 2.68006 10.5117 2.42261 10.497 2.16456C10.4823 1.90652 10.4012 1.65665 10.2615 1.43919C10.1219 1.22173 9.92834 1.04406 9.69977 0.923412C9.47119 0.802767 9.21532 0.743241 8.95696 0.75061C8.69861 0.757978 8.44654 0.83199 8.22522 0.965468C8.00389 1.09894 7.82081 1.28736 7.69375 1.51242C7.56669 1.73749 7.49994 1.99158 7.5 2.25004C7.5 2.3495 7.53951 2.44488 7.60983 2.51521C7.68016 2.58553 7.77554 2.62504 7.875 2.62504C7.97446 2.62504 8.06984 2.58553 8.14017 2.51521C8.21049 2.44488 8.25 2.3495 8.25 2.25004C8.25 2.10171 8.29399 1.9567 8.3764 1.83336C8.45881 1.71003 8.57594 1.6139 8.71299 1.55713C8.85003 1.50037 9.00083 1.48551 9.14632 1.51445C9.2918 1.54339 9.42544 1.61482 9.53033 1.71971C9.63522 1.8246 9.70665 1.95824 9.73559 2.10372C9.76453 2.24921 9.74968 2.40001 9.69291 2.53705C9.63614 2.6741 9.54001 2.79123 9.41668 2.87364C9.29334 2.95606 9.14834 3.00004 9 3.00004C8.92595 3.00002 8.85356 3.02194 8.79197 3.06304L6.63647 4.50004H4.92112C4.50289 4.49962 4.09655 4.63926 3.76691 4.89668C3.43728 5.1541 3.20333 5.51448 3.10237 5.92035C3.09941 5.93201 3.09703 5.94381 3.09525 5.95574L2.25431 11.5695C2.2515 11.5879 2.25006 11.6064 2.25 11.625V19.125C2.25 19.2245 2.28951 19.3199 2.35984 19.3902C2.43016 19.4605 2.52554 19.5 2.625 19.5H4.875C4.97446 19.5 5.06984 19.4605 5.14016 19.3902C5.21049 19.3199 5.25 19.2245 5.25 19.125V18.75H7.5C7.59946 18.75 7.69484 18.7105 7.76517 18.6402C7.83549 18.5699 7.875 18.4745 7.875 18.375V18H10.125V18.375C10.125 18.4745 10.1645 18.5699 10.2348 18.6402C10.3052 18.7105 10.4005 18.75 10.5 18.75H12.1871L12.0004 22.858C11.9981 22.9087 12.0061 22.9592 12.0239 23.0067C12.0416 23.0541 12.0689 23.0975 12.1039 23.1341C12.1389 23.1708 12.181 23.1999 12.2276 23.2198C12.2742 23.2398 12.3243 23.25 12.375 23.25H21.375C21.4257 23.25 21.4758 23.2398 21.5224 23.2198C21.569 23.1999 21.6111 23.1708 21.6461 23.1341C21.6811 23.0975 21.7084 23.0541 21.7261 23.0067C21.7439 22.9592 21.7519 22.9087 21.7496 22.858L21 6.36609ZM20.3159 7.83421C20.0242 7.75064 19.8105 7.53768 19.6672 7.18945C19.6103 7.04769 19.5681 6.90045 19.5413 6.75004H20.2666L20.3159 7.83421ZM20.25 6.00004H14.9116L14.9049 5.9557C14.9032 5.94379 14.9008 5.93199 14.8978 5.92031C14.8373 5.67785 14.729 5.44994 14.5791 5.25H20.25V6.00004ZM16.875 3.82574L17.8865 4.50004H15.8635L16.875 3.82574ZM12.3129 5.25004L12.1395 6.37795C12.1186 6.51297 12.0582 6.63881 11.9661 6.73967C11.8739 6.84052 11.754 6.9119 11.6214 6.94483C11.4888 6.97776 11.3494 6.97078 11.2207 6.92477C11.0921 6.87875 10.9799 6.79576 10.8983 6.6862C11.2755 6.29208 11.5202 5.78999 11.5983 5.25004H12.3129ZM7.16273 5.25004H10.8375C10.7512 5.67365 10.5212 6.05442 10.1864 6.3279C9.85157 6.60138 9.43254 6.75077 9.00023 6.75077C8.56793 6.75077 8.1489 6.60138 7.81409 6.3279C7.47928 6.05442 7.24926 5.67365 7.16297 5.25004H7.16273ZM9 3.82574L10.0115 4.50004H7.98853L9 3.82574ZM6.40167 5.25004C6.47979 5.79 6.72457 6.29209 7.10184 6.6862C7.0202 6.79576 6.90802 6.87875 6.77937 6.92477C6.65072 6.97078 6.51134 6.97776 6.37874 6.94483C6.24613 6.9119 6.12621 6.84052 6.03404 6.73967C5.94186 6.63881 5.88154 6.51297 5.86064 6.37795L5.68711 5.25004H6.40167ZM7.125 18H5.25V10.875C5.25 10.7756 5.21049 10.6802 5.14016 10.6099C5.06984 10.5396 4.97446 10.5 4.875 10.5C4.77554 10.5 4.68016 10.5396 4.60984 10.6099C4.53951 10.6802 4.5 10.7756 4.5 10.875V18.75H3V11.6532L3.83395 6.08596C3.89742 5.84613 4.0385 5.63406 4.23517 5.48285C4.43184 5.33163 4.67304 5.24977 4.92112 5.25004H4.92825L5.11936 6.49223C5.16247 6.7962 5.30294 7.07801 5.51972 7.2954C5.7365 7.5128 6.0179 7.65407 6.32175 7.69804C6.59341 7.74239 6.87209 7.70823 7.125 7.5996V18ZM7.875 17.25V7.24603C8.22646 7.41326 8.61078 7.50004 9 7.50004C9.38922 7.50004 9.77354 7.41326 10.125 7.24603V17.25H7.875ZM10.875 7.59946C11.1279 7.70807 11.4066 7.74222 11.6783 7.6979C11.9821 7.65394 12.2635 7.51269 12.4802 7.29532C12.697 7.07795 12.8375 6.79617 12.8806 6.49223L13.0718 5.25004H13.0789C13.327 5.24977 13.5682 5.33163 13.7648 5.48285C13.9615 5.63406 14.1026 5.84613 14.166 6.08596L15 11.6532V18.75H13.5V10.875C13.5 10.7756 13.4605 10.6802 13.3902 10.6099C13.3198 10.5396 13.2245 10.5 13.125 10.5C13.0255 10.5 12.9302 10.5396 12.8598 10.6099C12.7895 10.6802 12.75 10.7756 12.75 10.875V18H10.875V7.59946ZM16.5 22.5H12.7674L12.907 19.4297C12.9705 19.4755 13.0467 19.5001 13.125 19.5H15.375C15.4745 19.5 15.5698 19.4605 15.6402 19.3902C15.7105 19.3199 15.75 19.2245 15.75 19.125V11.625C15.75 11.6064 15.7486 11.5879 15.7459 11.5694L15.0239 6.75004H16.5V22.5ZM17.25 22.5V6.75004H18.7815C18.8147 6.99032 18.8761 7.22585 18.9643 7.45181C19.2299 8.1157 19.7167 8.5177 20.351 8.60625L20.9826 22.5H17.25Z"/>
</mask>
<path d="M21 6.36609V4.87504C21 4.77559 20.9605 4.6802 20.8902 4.60988C20.8198 4.53955 20.7245 4.50004 20.625 4.50004H19.2385L17.7207 3.4881C17.9341 3.34232 18.1062 3.14385 18.2203 2.91195C18.3344 2.68006 18.3867 2.4226 18.372 2.16456C18.3573 1.90652 18.2762 1.65666 18.1365 1.4392C17.9968 1.22175 17.8033 1.04408 17.5748 0.923439C17.3462 0.802797 17.0903 0.743273 16.832 0.750642C16.5736 0.75801 16.3215 0.832021 16.1002 0.965494C15.8789 1.09897 15.6958 1.28737 15.5688 1.51244C15.4417 1.7375 15.3749 1.99159 15.375 2.25004C15.375 2.3495 15.4145 2.44488 15.4848 2.51521C15.5552 2.58553 15.6505 2.62504 15.75 2.62504C15.8495 2.62504 15.9448 2.58553 16.0152 2.51521C16.0855 2.44488 16.125 2.3495 16.125 2.25004C16.125 2.10171 16.169 1.9567 16.2514 1.83336C16.3338 1.71003 16.4509 1.6139 16.588 1.55713C16.725 1.50037 16.8758 1.48551 17.0213 1.51445C17.1668 1.54339 17.3004 1.61482 17.4053 1.71971C17.5102 1.8246 17.5816 1.95824 17.6106 2.10372C17.6395 2.24921 17.6247 2.40001 17.5679 2.53705C17.5111 2.6741 17.415 2.79123 17.2917 2.87364C17.1683 2.95606 17.0233 3.00004 16.875 3.00004C16.801 3.00002 16.7286 3.02194 16.667 3.06304L14.5115 4.50004H13.125C13.1203 4.50004 13.116 4.50056 13.1114 4.50074C13.1005 4.50074 13.0897 4.50004 13.0789 4.50004H11.3635L9.84562 3.4881C10.059 3.34232 10.2312 3.14386 10.3453 2.91196C10.4594 2.68006 10.5117 2.42261 10.497 2.16456C10.4823 1.90652 10.4012 1.65665 10.2615 1.43919C10.1219 1.22173 9.92834 1.04406 9.69977 0.923412C9.47119 0.802767 9.21532 0.743241 8.95696 0.75061C8.69861 0.757978 8.44654 0.83199 8.22522 0.965468C8.00389 1.09894 7.82081 1.28736 7.69375 1.51242C7.56669 1.73749 7.49994 1.99158 7.5 2.25004C7.5 2.3495 7.53951 2.44488 7.60983 2.51521C7.68016 2.58553 7.77554 2.62504 7.875 2.62504C7.97446 2.62504 8.06984 2.58553 8.14017 2.51521C8.21049 2.44488 8.25 2.3495 8.25 2.25004C8.25 2.10171 8.29399 1.9567 8.3764 1.83336C8.45881 1.71003 8.57594 1.6139 8.71299 1.55713C8.85003 1.50037 9.00083 1.48551 9.14632 1.51445C9.2918 1.54339 9.42544 1.61482 9.53033 1.71971C9.63522 1.8246 9.70665 1.95824 9.73559 2.10372C9.76453 2.24921 9.74968 2.40001 9.69291 2.53705C9.63614 2.6741 9.54001 2.79123 9.41668 2.87364C9.29334 2.95606 9.14834 3.00004 9 3.00004C8.92595 3.00002 8.85356 3.02194 8.79197 3.06304L6.63647 4.50004H4.92112C4.50289 4.49962 4.09655 4.63926 3.76691 4.89668C3.43728 5.1541 3.20333 5.51448 3.10237 5.92035C3.09941 5.93201 3.09703 5.94381 3.09525 5.95574L2.25431 11.5695C2.2515 11.5879 2.25006 11.6064 2.25 11.625V19.125C2.25 19.2245 2.28951 19.3199 2.35984 19.3902C2.43016 19.4605 2.52554 19.5 2.625 19.5H4.875C4.97446 19.5 5.06984 19.4605 5.14016 19.3902C5.21049 19.3199 5.25 19.2245 5.25 19.125V18.75H7.5C7.59946 18.75 7.69484 18.7105 7.76517 18.6402C7.83549 18.5699 7.875 18.4745 7.875 18.375V18H10.125V18.375C10.125 18.4745 10.1645 18.5699 10.2348 18.6402C10.3052 18.7105 10.4005 18.75 10.5 18.75H12.1871L12.0004 22.858C11.9981 22.9087 12.0061 22.9592 12.0239 23.0067C12.0416 23.0541 12.0689 23.0975 12.1039 23.1341C12.1389 23.1708 12.181 23.1999 12.2276 23.2198C12.2742 23.2398 12.3243 23.25 12.375 23.25H21.375C21.4257 23.25 21.4758 23.2398 21.5224 23.2198C21.569 23.1999 21.6111 23.1708 21.6461 23.1341C21.6811 23.0975 21.7084 23.0541 21.7261 23.0067C21.7439 22.9592 21.7519 22.9087 21.7496 22.858L21 6.36609ZM20.3159 7.83421C20.0242 7.75064 19.8105 7.53768 19.6672 7.18945C19.6103 7.04769 19.5681 6.90045 19.5413 6.75004H20.2666L20.3159 7.83421ZM20.25 6.00004H14.9116L14.9049 5.9557C14.9032 5.94379 14.9008 5.93199 14.8978 5.92031C14.8373 5.67785 14.729 5.44994 14.5791 5.25H20.25V6.00004ZM16.875 3.82574L17.8865 4.50004H15.8635L16.875 3.82574ZM12.3129 5.25004L12.1395 6.37795C12.1186 6.51297 12.0582 6.63881 11.9661 6.73967C11.8739 6.84052 11.754 6.9119 11.6214 6.94483C11.4888 6.97776 11.3494 6.97078 11.2207 6.92477C11.0921 6.87875 10.9799 6.79576 10.8983 6.6862C11.2755 6.29208 11.5202 5.78999 11.5983 5.25004H12.3129ZM7.16273 5.25004H10.8375C10.7512 5.67365 10.5212 6.05442 10.1864 6.3279C9.85157 6.60138 9.43254 6.75077 9.00023 6.75077C8.56793 6.75077 8.1489 6.60138 7.81409 6.3279C7.47928 6.05442 7.24926 5.67365 7.16297 5.25004H7.16273ZM9 3.82574L10.0115 4.50004H7.98853L9 3.82574ZM6.40167 5.25004C6.47979 5.79 6.72457 6.29209 7.10184 6.6862C7.0202 6.79576 6.90802 6.87875 6.77937 6.92477C6.65072 6.97078 6.51134 6.97776 6.37874 6.94483C6.24613 6.9119 6.12621 6.84052 6.03404 6.73967C5.94186 6.63881 5.88154 6.51297 5.86064 6.37795L5.68711 5.25004H6.40167ZM7.125 18H5.25V10.875C5.25 10.7756 5.21049 10.6802 5.14016 10.6099C5.06984 10.5396 4.97446 10.5 4.875 10.5C4.77554 10.5 4.68016 10.5396 4.60984 10.6099C4.53951 10.6802 4.5 10.7756 4.5 10.875V18.75H3V11.6532L3.83395 6.08596C3.89742 5.84613 4.0385 5.63406 4.23517 5.48285C4.43184 5.33163 4.67304 5.24977 4.92112 5.25004H4.92825L5.11936 6.49223C5.16247 6.7962 5.30294 7.07801 5.51972 7.2954C5.7365 7.5128 6.0179 7.65407 6.32175 7.69804C6.59341 7.74239 6.87209 7.70823 7.125 7.5996V18ZM7.875 17.25V7.24603C8.22646 7.41326 8.61078 7.50004 9 7.50004C9.38922 7.50004 9.77354 7.41326 10.125 7.24603V17.25H7.875ZM10.875 7.59946C11.1279 7.70807 11.4066 7.74222 11.6783 7.6979C11.9821 7.65394 12.2635 7.51269 12.4802 7.29532C12.697 7.07795 12.8375 6.79617 12.8806 6.49223L13.0718 5.25004H13.0789C13.327 5.24977 13.5682 5.33163 13.7648 5.48285C13.9615 5.63406 14.1026 5.84613 14.166 6.08596L15 11.6532V18.75H13.5V10.875C13.5 10.7756 13.4605 10.6802 13.3902 10.6099C13.3198 10.5396 13.2245 10.5 13.125 10.5C13.0255 10.5 12.9302 10.5396 12.8598 10.6099C12.7895 10.6802 12.75 10.7756 12.75 10.875V18H10.875V7.59946ZM16.5 22.5H12.7674L12.907 19.4297C12.9705 19.4755 13.0467 19.5001 13.125 19.5H15.375C15.4745 19.5 15.5698 19.4605 15.6402 19.3902C15.7105 19.3199 15.75 19.2245 15.75 19.125V11.625C15.75 11.6064 15.7486 11.5879 15.7459 11.5694L15.0239 6.75004H16.5V22.5ZM17.25 22.5V6.75004H18.7815C18.8147 6.99032 18.8761 7.22585 18.9643 7.45181C19.2299 8.1157 19.7167 8.5177 20.351 8.60625L20.9826 22.5H17.25Z" fill="#103265" stroke="#F9FAFB" stroke-width="0.2" mask="url(#path-1-inside-1_9189_12495)"/>
</svg>
