<svg width="24" height="24" viewBox="0 0 24 24" fill="none" xmlns="http://www.w3.org/2000/svg">
<g clip-path="url(#clip0_9189_12224)">
<path d="M9.0512 11.04L7.8044 11.5392C7.37835 11.7084 6.89585 11.5001 6.72665 11.0741C6.6399 10.8557 6.64985 10.6107 6.754 10.4L7.0288 9.85036C7.18285 9.54231 7.1224 9.17026 6.8788 8.92676L4.9656 7.01356L5.4828 6.49636C5.63895 6.34016 5.63895 6.08696 5.4828 5.93076L4.1656 4.61361L4.2828 4.49641C4.43595 4.34336 4.4395 4.09621 4.2908 3.93881L0.6908 0.125614C0.5391 -0.035036 0.28595 -0.042236 0.12535 0.109464C0.0454 0.184964 5e-05 0.290014 0 0.399964V5.59996C0 5.71776 0.05195 5.82956 0.142 5.90556L1.342 6.91996C1.5008 7.05401 1.73585 7.04411 1.8828 6.89716L2 6.77876L3.3172 8.09596C3.4734 8.25211 3.7266 8.25211 3.8828 8.09596L4.4 7.57876L6.3132 9.49196L6.04 10.04C5.6379 10.8447 5.9643 11.823 6.769 12.225C7.18535 12.4331 7.67075 12.453 8.1028 12.28L9.3504 11.7812L9.0512 11.04ZM1.7172 5.93156L1.5772 6.07156L0.8 5.41436V1.40636L3.4424 4.20636L3.3172 4.33156L1.7172 5.93156ZM3.6 7.24756L2.5656 6.21316L3.6 5.17876L4.6344 6.21436L3.6 7.24756Z" fill="#103265"/>
<path d="M23.7534 11.6303C23.6039 11.5684 23.4318 11.6027 23.3174 11.7171L17.7174 17.3171C17.5612 17.4733 17.5612 17.7265 17.7174 17.8827L18.0346 18.1999L16.465 19.7695C15.8441 19.3889 15.1284 19.1914 14.4002 19.1999C12.6358 19.1999 11.2002 20.2763 11.2002 21.5999C11.2002 22.9235 12.6358 23.9999 14.4002 23.9999C16.1646 23.9999 17.6002 22.9235 17.6002 21.5999C17.5922 21.1135 17.4061 20.647 17.077 20.2887L18.6002 18.7655L18.9174 19.0827C19.0736 19.2389 19.3268 19.2389 19.483 19.0827L23.883 14.6827C23.958 14.6077 24.0002 14.506 24.0002 14.3999V11.9999C24.0002 11.8382 23.9028 11.6923 23.7534 11.6303ZM14.4002 23.1999C13.0994 23.1999 12.0002 22.4671 12.0002 21.5999C12.0002 20.7327 13.0994 19.9999 14.4002 19.9999C15.701 19.9999 16.8002 20.7327 16.8002 21.5999C16.8002 22.4671 15.701 23.1999 14.4002 23.1999ZM23.2002 14.2343L19.2002 18.2343L18.5658 17.5999L23.2002 12.9655V14.2343Z" fill="#103265"/>
<path d="M13.7917 13.5175C13.6265 12.528 12.6904 11.8598 11.7009 12.025C10.9358 12.1528 10.3362 12.7523 10.2085 13.5175L9.0001 20.7679C8.90955 21.3102 8.3965 21.6765 7.85415 21.586C7.42415 21.5142 7.09085 21.171 7.0317 20.7391L5.9965 13.1459C5.9891 13.0891 5.9696 13.0345 5.9393 12.9859L5.7169 12.6299C5.0395 11.5469 4.5512 10.3566 4.2729 9.10986L3.4917 9.28426C3.7902 10.6202 4.31385 11.8956 5.0401 13.0559L5.2169 13.3391L6.2409 20.8471C6.37465 21.8295 7.27945 22.5175 8.26185 22.3837C9.04155 22.2776 9.66125 21.6761 9.7905 20.8999L10.9989 13.6495C11.0791 13.1591 11.5032 12.7992 12.0001 12.7999C12.4976 12.7985 12.9225 13.1585 13.0029 13.6495L13.8057 18.4659L14.5945 18.3339L13.7917 13.5175Z" fill="#103265"/>
<path d="M15.7537 1.59996C15.0704 1.59996 14.3943 1.73876 13.7662 2.00786C12.638 2.48866 11.3625 2.48866 10.2342 2.00786C8.25232 1.15846 5.94967 1.66216 4.50342 3.26146L5.09702 3.79986C5.90237 2.90976 7.04627 2.40131 8.24662 2.39986C8.82162 2.39921 9.39072 2.51601 9.91902 2.74306C11.2485 3.31026 12.7519 3.31026 14.0814 2.74306C16.2371 1.81941 18.7334 2.81816 19.657 4.97386C19.8835 5.50236 20.0002 6.07131 20.0002 6.64626C20.0009 8.76301 19.406 10.8373 18.2834 12.6319L18.061 12.9879C18.0307 13.0365 18.0112 13.0911 18.0038 13.1479L17.6766 15.5479L18.469 15.6559L18.785 13.3411L18.9618 13.0579C20.1642 11.1356 20.8013 8.91366 20.8002 6.64626C20.8002 3.85921 18.5408 1.59991 15.7537 1.59996Z" fill="#103265"/>
</g>
<defs>
<clipPath id="clip0_9189_12224">
<rect width="24" height="24" fill="white"/>
</clipPath>
</defs>
</svg>
