<svg width="20" height="20" viewBox="0 0 20 20" fill="none" xmlns="http://www.w3.org/2000/svg">
<path fill-rule="evenodd" clip-rule="evenodd" d="M12 20H8C4.229 20 2.343 20 1.172 18.828C0.000999928 17.656 0 15.771 0 12V8C0 4.229 -1.19209e-07 2.343 1.172 1.172C2.344 0.000999928 4.239 0 8.03 0C8.636 0 9.121 -4.09782e-08 9.53 0.017C9.51677 0.0976611 9.51008 0.17926 9.51 0.261L9.5 3.095C9.47466 4.04549 9.50806 4.99663 9.6 5.943C9.67554 6.83613 10.0517 7.67726 10.667 8.329C11.3193 8.94647 12.162 9.32409 13.057 9.4C14.0034 9.49194 14.9545 9.52534 15.905 9.5H19.957C20 10.034 20 10.69 20 11.563V12C20 15.771 20 17.657 18.828 18.828C17.656 19.999 15.771 20 12 20ZM3.25 12.5C3.25 12.3011 3.32902 12.1103 3.46967 11.9697C3.61032 11.829 3.80109 11.75 4 11.75H12C12.1989 11.75 12.3897 11.829 12.5303 11.9697C12.671 12.1103 12.75 12.3011 12.75 12.5C12.75 12.6989 12.671 12.8897 12.5303 13.0303C12.3897 13.171 12.1989 13.25 12 13.25H4C3.80109 13.25 3.61032 13.171 3.46967 13.0303C3.32902 12.8897 3.25 12.6989 3.25 12.5ZM3.25 16C3.25 15.8011 3.32902 15.6103 3.46967 15.4697C3.61032 15.329 3.80109 15.25 4 15.25H9.5C9.69891 15.25 9.88968 15.329 10.0303 15.4697C10.171 15.6103 10.25 15.8011 10.25 16C10.25 16.1989 10.171 16.3897 10.0303 16.5303C9.88968 16.671 9.69891 16.75 9.5 16.75H4C3.80109 16.75 3.61032 16.671 3.46967 16.5303C3.32902 16.3897 3.25 16.1989 3.25 16Z" fill="#637381"/>
<path d="M17.352 5.61711L13.392 2.05411C12.7101 1.32143 11.9031 0.715986 11.009 0.266113L11 3.00011C11 5.35711 11 6.53611 11.732 7.26811C12.464 8.00011 13.643 8.00011 16 8.00011H19.58C18.9784 7.08472 18.2249 6.27879 17.352 5.61711Z" fill="#637381"/>
</svg>
