<svg width="25" height="24" viewBox="0 0 25 24" fill="none" xmlns="http://www.w3.org/2000/svg">
<path fill-rule="evenodd" clip-rule="evenodd" d="M11.6222 3.39502V13.6192L9.98763 11.9791L9.90366 11.9063C9.61049 11.6878 9.19378 11.7112 8.92697 11.9769C8.63347 12.2692 8.6325 12.7441 8.92479 13.0376L11.8408 15.9656L11.843 15.9675C11.8677 15.9921 11.894 16.0149 11.9219 16.0358L11.925 16.0385C12.2191 16.2575 12.6371 16.2331 12.9036 15.9656L15.8196 13.0376L15.8921 12.9533C16.1093 12.6592 16.0843 12.2426 15.8174 11.9769L15.7332 11.9045C15.4391 11.6872 15.0225 11.7123 14.7568 11.9791L13.1222 13.6197V3.39502L13.1154 3.29325C13.0657 2.92717 12.7519 2.64502 12.3722 2.64502C11.958 2.64502 11.6222 2.98081 11.6222 3.39502ZM18.1553 21.1171C20.5028 21.0084 22.372 19.0713 22.372 16.6969V11.8129L22.3672 11.6041C22.2582 9.25109 20.3174 7.37792 17.938 7.37792H17.005L16.9032 7.38477C16.5372 7.43443 16.255 7.74822 16.255 8.12792C16.255 8.54213 16.5908 8.87792 17.005 8.87792H17.938L18.1105 8.8829C19.651 8.97212 20.872 10.2492 20.872 11.8129V16.6969L20.867 16.8688C20.7781 18.4046 19.5051 19.6219 17.947 19.6219H6.80701L6.63457 19.6169C5.09403 19.5277 3.87201 18.2498 3.87201 16.6869V11.8019L3.87698 11.6301C3.96597 10.0955 5.23965 8.87792 6.79701 8.87792H7.73901L7.84078 8.87107C8.20686 8.82141 8.48901 8.50762 8.48901 8.12792C8.48901 7.71371 8.15322 7.37792 7.73901 7.37792H6.79701L6.58266 7.38302C4.23881 7.49484 2.37201 9.43069 2.37201 11.8019V16.6869L2.37684 16.8957C2.48586 19.248 4.42777 21.1219 6.80701 21.1219H17.947L18.1553 21.1171Z" fill="#9A19FF"/>
</svg>
