<svg width="16" height="16" viewBox="0 0 16 16" fill="none" xmlns="http://www.w3.org/2000/svg">
<path d="M9.99992 15.1666H5.99992C2.37992 15.1666 0.833252 13.6199 0.833252 9.99992V5.99992C0.833252 2.37992 2.37992 0.833252 5.99992 0.833252H7.33325C7.60659 0.833252 7.83325 1.05992 7.83325 1.33325C7.83325 1.60659 7.60659 1.83325 7.33325 1.83325H5.99992C2.92658 1.83325 1.83325 2.92658 1.83325 5.99992V9.99992C1.83325 13.0733 2.92658 14.1666 5.99992 14.1666H9.99992C13.0733 14.1666 14.1666 13.0733 14.1666 9.99992V8.66658C14.1666 8.39325 14.3933 8.16658 14.6666 8.16658C14.9399 8.16658 15.1666 8.39325 15.1666 8.66658V9.99992C15.1666 13.6199 13.6199 15.1666 9.99992 15.1666Z" fill="white"/>
<path d="M5.66713 11.7934C5.26046 11.7934 4.88713 11.6467 4.61379 11.38C4.28713 11.0534 4.14713 10.58 4.22046 10.08L4.50713 8.07337C4.56046 7.68671 4.81379 7.18671 5.08713 6.91337L10.3405 1.66004C11.6671 0.333372 13.0138 0.333372 14.3405 1.66004C15.0671 2.38671 15.3938 3.12671 15.3271 3.86671C15.2671 4.46671 14.9471 5.05337 14.3405 5.65337L9.08713 10.9067C8.81379 11.18 8.31379 11.4334 7.92713 11.4867L5.92046 11.7734C5.83379 11.7934 5.74713 11.7934 5.66713 11.7934ZM11.0471 2.36671L5.79379 7.62004C5.66713 7.74671 5.52046 8.04004 5.49379 8.21337L5.20713 10.22C5.18046 10.4134 5.22046 10.5734 5.32046 10.6734C5.42046 10.7734 5.58046 10.8134 5.77379 10.7867L7.78046 10.5C7.95379 10.4734 8.25379 10.3267 8.37379 10.2L13.6271 4.94671C14.0605 4.51337 14.2871 4.12671 14.3205 3.76671C14.3605 3.33337 14.1338 2.87337 13.6271 2.36004C12.5605 1.29337 11.8271 1.59337 11.0471 2.36671Z" fill="white"/>
<path d="M13.236 6.55343C13.1893 6.55343 13.1426 6.54677 13.1026 6.53343C11.3493 6.0401 9.95597 4.64677 9.46264 2.89343C9.38931 2.62677 9.54264 2.35343 9.80931 2.27343C10.076 2.2001 10.3493 2.35343 10.4226 2.6201C10.8226 4.0401 11.9493 5.16677 13.3693 5.56677C13.636 5.6401 13.7893 5.9201 13.716 6.18677C13.656 6.41343 13.456 6.55343 13.236 6.55343Z" fill="white"/>
</svg>
