<?xml version="1.0" standalone="no"?>
<!DOCTYPE svg PUBLIC "-//W3C//DTD SVG 20010904//EN"
 "http://www.w3.org/TR/2001/REC-SVG-20010904/DTD/svg10.dtd">
<svg version="1.0" xmlns="http://www.w3.org/2000/svg"
 width="860.000000pt" height="859.000000pt" viewBox="0 0 860.000000 859.000000"
 preserveAspectRatio="xMidYMid meet">

<g transform="translate(0.000000,859.000000) scale(0.100000,-0.100000)"
fill="#000000" stroke="none">
<path d="M4190 8164 c-220 -31 -459 -102 -657 -194 -628 -295 -1041 -829
-1183 -1528 -16 -81 -30 -157 -30 -169 l0 -23 -1005 0 -1005 0 0 -2840 0
-2840 3995 0 3995 0 0 2840 0 2840 -990 0 -990 0 0 94 c0 194 -36 430 -91 599
-209 640 -760 1089 -1489 1212 -136 23 -419 28 -550 9z m525 -339 c904 -136
1385 -816 1249 -1765 -43 -303 -132 -535 -243 -638 -60 -56 -107 -75 -198 -80
-223 -12 -447 149 -514 369 -30 98 -26 144 75 818 66 436 85 586 76 591 -7 4
-62 20 -124 36 -105 27 -122 29 -321 29 -180 0 -227 -4 -325 -23 -242 -49
-475 -147 -653 -276 -253 -181 -481 -455 -584 -699 -64 -152 -78 -224 -77
-397 0 -142 2 -162 28 -240 110 -333 321 -504 636 -518 182 -7 349 28 530 114
160 76 269 152 397 277 45 45 84 79 86 76 2 -2 29 -43 60 -90 132 -202 324
-342 527 -385 167 -35 348 5 506 114 66 45 174 154 221 222 78 115 167 332
194 473 7 34 16 68 22 75 7 9 164 12 723 12 393 0 714 -3 714 -7 0 -5 -768
-776 -1707 -1715 l-1708 -1708 -1707 1707 c-940 940 -1708 1711 -1708 1716 0
4 314 6 697 5 l698 -3 6 -160 c7 -166 17 -246 50 -377 120 -483 442 -869 926
-1112 608 -304 1371 -306 1816 -4 l58 39 -53 67 c-84 106 -140 176 -148 185
-4 5 -39 -12 -78 -37 -209 -135 -498 -199 -801 -176 -396 30 -753 185 -1018
443 -354 344 -479 789 -397 1415 101 782 521 1325 1199 1551 284 95 575 120
870 76z m76 -970 c6 -5 -104 -753 -121 -827 -23 -100 -134 -279 -247 -398
-296 -315 -688 -395 -888 -183 -19 20 -50 66 -69 102 -52 99 -69 171 -69 281
0 82 5 109 35 197 44 130 119 249 227 364 232 248 521 403 846 453 87 14 277
21 286 11z m-3013 -2318 l1132 -1132 -1135 -1135 -1135 -1135 0 2268 c0 1247
1 2267 3 2267 1 0 512 -510 1135 -1133z m6192 -1127 c0 -1243 -3 -2260 -8
-2260 -4 0 -516 508 -1137 1130 l-1130 1130 1130 1130 c621 622 1133 1130
1137 1130 5 0 8 -1017 8 -2260z m-3090 -815 l580 580 1130 -1130 c622 -621
1130 -1133 1130 -1137 0 -5 -1540 -8 -3422 -8 l-3423 0 1135 1135 1135 1135
577 -577 578 -578 580 580z"/>
</g>
</svg>
