<svg width="20" height="20" viewBox="0 0 20 20" fill="none" xmlns="http://www.w3.org/2000/svg">
<path d="M10.5192 15.1281H10.5195V13.5533V13.4716L10.5996 13.4553C10.8113 13.4121 11.0214 13.3448 11.2124 13.2575L11.2867 13.2236L11.3348 13.2897L12.7475 15.2342C12.9052 15.4513 13.2091 15.4994 13.4261 15.3417C13.6432 15.1839 13.6913 14.8801 13.5336 14.6631L13.5336 14.6631L12.1205 12.7181L12.0725 12.652L12.1277 12.5918C12.267 12.4396 12.3896 12.2718 12.4935 12.0916L12.5353 12.0191L12.614 12.0475L13.7059 12.4409L13.7198 12.4459L13.7316 12.4547C13.7316 12.4547 13.7317 12.4548 13.7321 12.455L13.7335 12.456L13.7389 12.4592C13.7435 12.462 13.7496 12.4653 13.7573 12.4694C13.7729 12.4775 13.7931 12.4874 13.8182 12.4993C13.8436 12.5114 13.8708 12.5241 13.9012 12.5383C13.934 12.5535 13.9707 12.5706 14.013 12.5906C14.1704 12.665 14.377 12.7666 14.6046 12.8997C15.059 13.1654 15.6016 13.5588 16.0064 14.116M10.5192 15.1281L16.0064 14.116M10.5192 15.1281L10.5199 15.1361C10.5968 16.0969 10.9197 17.0452 11.3787 17.677L11.4596 17.6182L11.3787 17.677C11.8529 18.3296 12.492 18.7524 13.1911 18.8833C13.8912 19.0144 14.6428 18.8511 15.3364 18.3471C16.6877 17.3653 16.9883 15.4674 16.0064 14.116M10.5192 15.1281L15.9255 14.1748L16.0064 14.116M16.802 11.4776L16.8329 11.5726C16.8329 11.5726 16.8329 11.5726 16.8329 11.5726C18.3935 11.0655 19.2976 9.21859 18.7778 7.61871C18.2615 6.03013 16.5493 5.15779 14.9608 5.67388L14.9917 5.76899L14.9608 5.67388C14.324 5.8808 13.6375 6.33809 13.0607 6.92324L13.0517 6.93234L13.0453 6.94341L12.0778 8.61794L12.0404 8.68265L12.0919 8.73683C12.2498 8.90309 12.3877 9.08834 12.5018 9.28886L12.5421 9.3597L12.6196 9.33452L14.9058 8.59171L14.9058 8.5917C15.161 8.50874 15.4351 8.64838 15.518 8.9036C15.6009 9.1588 15.4613 9.43286 15.2061 9.51579L12.9207 10.2584L12.8431 10.2836L12.8523 10.3647C12.8776 10.5898 12.8766 10.7946 12.8502 11.0175L12.8409 11.0964L12.9156 11.1233L14.342 11.6372L14.349 11.6397L16.8171 11.4725C16.8121 11.4742 16.8071 11.4759 16.802 11.4775V11.4776ZM16.802 11.4776V11.5775H16.802L16.7869 11.4824C16.792 11.4808 16.797 11.4791 16.802 11.4775L16.802 11.4776ZM13.6757 5.01356L13.6342 5.22495L13.8225 5.1202C14.1017 4.96481 14.3834 4.83988 14.6606 4.7498C16.7584 4.06827 19.0201 5.22054 19.7019 7.31852C20.3941 9.44908 19.2146 11.8204 17.1333 12.4967C16.856 12.5867 16.5545 12.6512 16.2374 12.6897L16.0236 12.7156L16.1813 12.8622C16.4154 13.0798 16.6213 13.309 16.7926 13.5449L16.7926 13.5449C18.0892 15.3295 17.6921 17.8366 15.9075 19.1332L15.9663 19.2141L15.9075 19.1332C14.1291 20.4254 11.8964 20.0427 10.5926 18.2481L10.5117 18.3069L10.5926 18.2481C10.4213 18.0123 10.2668 17.7457 10.1322 17.4558L10.0416 17.2605L9.95084 17.4558C9.8162 17.7456 9.6618 18.0123 9.49044 18.2481L9.57134 18.3069L9.49044 18.2481C8.18876 20.0398 5.87614 20.4285 4.09341 19.1332L4.03668 19.2113L4.09341 19.1332C2.3088 17.8366 1.91171 15.3296 3.20834 13.5449C3.37972 13.3091 3.58553 13.0797 3.81958 12.8622L3.97734 12.7156L3.76354 12.6897C3.44629 12.6512 3.14503 12.5868 2.8678 12.4967C0.786375 11.8204 -0.393144 9.44905 0.299074 7.31852C0.980796 5.22054 3.24266 4.06815 5.34036 4.7498C5.6176 4.83988 5.89926 4.96484 6.17851 5.1202L6.36672 5.22492L6.32525 5.01356C6.26374 4.70003 6.23197 4.3935 6.23197 4.10204C6.23197 1.87227 7.84948 0.101221 10.0416 0.101221C12.2278 0.101221 13.769 1.86544 13.769 4.10204C13.769 4.39354 13.7372 4.70007 13.6757 5.01356ZM11.8975 6.98784L11.9113 6.96385L11.9109 6.93615C11.9094 6.84645 11.9326 6.75558 11.9828 6.67385C12.4908 5.84834 12.7973 4.88857 12.7973 4.10204C12.7973 2.35899 11.6446 1.0729 10.0416 1.0729C8.4192 1.0729 7.20365 2.38339 7.20361 4.10203C7.20361 4.88857 7.5101 5.84835 8.01809 6.67385L8.0181 6.67387C8.06005 6.74202 8.08311 6.81656 8.08877 6.89149L8.09059 6.9155L8.10314 6.93606L8.78419 8.05152L8.8297 8.12605L8.90967 8.09101C9.08972 8.01212 9.27899 7.95097 9.47572 7.91088L9.55575 7.89457V7.81289V5.41063C9.55575 5.14234 9.77329 4.92481 10.0416 4.92481C10.3081 4.92481 10.5196 5.14058 10.5196 5.41063V7.81285V7.89453L10.5996 7.91084C10.7927 7.95016 10.9856 8.00939 11.1612 8.08537L11.2429 8.12074L11.2875 8.04362L11.8975 6.98784ZM1.22316 7.61878L1.31826 7.64969L1.22316 7.61879C0.703354 9.21864 1.60748 11.0655 3.16802 11.5726C3.87019 11.8008 4.80047 11.8191 5.69013 11.6324L5.6903 11.6332L5.70253 11.6289L7.16581 11.1184L7.24147 11.092L7.23219 11.0124C7.20692 10.7954 7.20519 10.5921 7.23079 10.3647L7.23992 10.2836L7.16232 10.2584L4.87698 9.51583C4.62182 9.43289 4.48213 9.15883 4.56508 8.90365L4.56509 8.90363C4.64798 8.64849 4.92186 8.50877 5.17728 8.59174L7.46349 9.33456L7.54101 9.35974L7.58131 9.28889C7.69344 9.09177 7.82856 8.90942 7.98308 8.74535L8.0354 8.68981L7.99564 8.62468L6.98958 6.97687L6.98379 6.96738L6.97604 6.95939C6.39191 6.35668 5.68996 5.88504 5.04014 5.67388L5.04013 5.67388C3.4514 5.15779 1.73937 6.03017 1.22316 7.61878ZM9.55536 15.136L9.564 15.028H9.55564V13.5533V13.4716L9.4756 13.4553C9.26462 13.4123 9.06223 13.345 8.87061 13.2575L8.79623 13.2235L8.74817 13.2897L7.33549 15.2342C7.17769 15.4513 6.87382 15.4993 6.65689 15.3416L6.65688 15.3416C6.43984 15.1839 6.3917 14.8801 6.54943 14.663L6.46853 14.6042L6.54943 14.663L7.96252 12.718L8.01053 12.6519L7.95536 12.5917C7.81483 12.4383 7.69139 12.2689 7.58692 12.087L7.5456 12.015L7.46727 12.0424L6.26758 12.4609L6.2561 12.4649L6.24617 12.4714C6.24616 12.4714 6.24474 12.4723 6.24112 12.4741C6.23701 12.4763 6.23145 12.479 6.22417 12.4825C6.20958 12.4895 6.19038 12.4982 6.16625 12.5091C6.15873 12.5125 6.15079 12.5161 6.14245 12.5198C6.09776 12.54 6.04146 12.5653 5.97641 12.5958C5.8218 12.6681 5.61657 12.7699 5.38974 12.9035C4.93718 13.1701 4.39356 13.5666 3.99447 14.116C3.01267 15.4674 3.31324 17.3653 4.66456 18.3471C6.01441 19.3279 7.71965 19.0324 8.70443 17.677C9.16373 17.0448 9.47852 16.0963 9.55536 15.136ZM8.18408 10.6831C8.18408 11.7074 9.01729 12.5406 10.0416 12.5406C11.0659 12.5406 11.8991 11.7074 11.8991 10.6831C11.8991 9.65875 11.0659 8.82558 10.0416 8.82558C9.01725 8.82558 8.18408 9.65875 8.18408 10.6831Z" fill="#103265" stroke="#F9FAFB" stroke-width="0.2"/>
</svg>
