<svg width="24" height="24" viewBox="0 0 24 24" fill="none" xmlns="http://www.w3.org/2000/svg">
<g clip-path="url(#clip0_9189_12664)">
<path d="M17.25 12C17.25 10.9617 16.9421 9.94662 16.3652 9.08326C15.7883 8.2199 14.9684 7.54699 14.0091 7.14963C13.0498 6.75227 11.9942 6.64831 10.9758 6.85088C9.95738 7.05345 9.02192 7.55347 8.28769 8.28769C7.55347 9.02192 7.05345 9.95738 6.85088 10.9758C6.64831 11.9942 6.75227 13.0498 7.14963 14.0091C7.54699 14.9684 8.2199 15.7883 9.08326 16.3652C9.94662 16.9421 10.9617 17.25 12 17.25C13.3919 17.2484 14.7263 16.6948 15.7106 15.7106C16.6948 14.7263 17.2484 13.3919 17.25 12ZM7.51576 12.375H8.625V11.625H7.51576C7.59317 10.6931 7.96024 9.8087 8.56554 9.09588L9.10984 9.64018L9.64016 9.10982L9.09588 8.56554C9.8087 7.96024 10.6931 7.59316 11.625 7.51576V8.625H12.375V7.51576C13.3069 7.59316 14.1913 7.96024 14.9041 8.56554L14.3598 9.10982L14.8902 9.64018L15.4345 9.09588C16.0398 9.8087 16.4068 10.6931 16.4842 11.625H15.375V12.375H16.4842C16.4068 13.3069 16.0398 14.1913 15.4345 14.9041L14.8902 14.3598L14.3598 14.8902L14.9041 15.4345C14.1913 16.0398 13.3069 16.4068 12.375 16.4842V15.75H11.625V16.4842C10.6931 16.4068 9.8087 16.0398 9.09588 15.4345L9.64016 14.8902L9.10984 14.3598L8.56554 14.9041C7.96024 14.1913 7.59317 13.3069 7.51576 12.375Z" fill="#103265"/>
<path d="M6.97131 16.5H3.63535C3.36886 16.4993 3.11082 16.5935 2.90747 16.7657C2.70413 16.938 2.56878 17.177 2.52567 17.44L1.93233 21H1.125C1.02554 21 0.930162 21.0395 0.859836 21.1098C0.78951 21.1802 0.750001 21.2755 0.75 21.375V22.125C0.750341 22.4233 0.868977 22.7092 1.07988 22.9201C1.29079 23.131 1.57674 23.2497 1.875 23.25H6.12756C6.38993 23.2499 6.64402 23.1581 6.84591 22.9906C7.04781 22.823 7.18483 22.5902 7.23328 22.3323L8.07703 17.8323C8.1075 17.6699 8.10178 17.5027 8.06029 17.3427C8.01881 17.1826 7.94257 17.0337 7.837 16.9065C7.73143 16.7793 7.59913 16.677 7.4495 16.6067C7.29988 16.5364 7.13661 16.5 6.97131 16.5ZM6.49615 22.1941C6.48 22.28 6.43433 22.3577 6.36702 22.4135C6.29972 22.4694 6.21502 22.5 6.12756 22.5H1.875C1.77558 22.4999 1.68026 22.4603 1.60996 22.39C1.53966 22.3197 1.50011 22.2244 1.5 22.125V21.75H6.57941L6.49615 22.1941ZM7.3399 17.6941L6.72004 21H2.69268L3.26546 17.5633C3.27983 17.4757 3.32495 17.396 3.39273 17.3386C3.46051 17.2812 3.54652 17.2498 3.63535 17.25H6.97131C7.02641 17.25 7.08083 17.2621 7.13071 17.2856C7.18058 17.309 7.22468 17.3431 7.25987 17.3855C7.29507 17.4279 7.32048 17.4775 7.33431 17.5309C7.34814 17.5842 7.35005 17.6399 7.3399 17.6941Z" fill="#103265"/>
<path d="M7.5 7.5H8.25V6.67603C8.24965 6.3092 8.35825 5.95053 8.56201 5.64551C8.84805 5.21735 9.00049 4.71389 9 4.19897V0.75H8.25V4.19897C8.25035 4.5658 8.14176 4.92447 7.93799 5.22949C7.65195 5.65765 7.49951 6.16111 7.5 6.67603V7.5Z" fill="#103265"/>
<path d="M6 6.67603V9.375H6.75V6.67603C6.75049 6.16111 6.59805 5.65765 6.31201 5.22949C6.10825 4.92447 5.99965 4.5658 6 4.19897V0.75H5.25V4.19897C5.24951 4.71389 5.40195 5.21735 5.68799 5.64551C5.89176 5.95053 6.00035 6.3092 6 6.67603Z" fill="#103265"/>
<path d="M7.5 0.75H6.75V4.875H7.5V0.75Z" fill="#103265"/>
<path d="M1.5 6.67603V10.5H2.25V6.67603C2.25049 6.16111 2.09805 5.65765 1.81201 5.22949C1.60825 4.92447 1.49965 4.5658 1.5 4.19897V2.625C1.5 2.32663 1.61853 2.04048 1.82951 1.8295C2.04048 1.61853 2.32663 1.5 2.625 1.5C2.92337 1.5 3.20952 1.61853 3.4205 1.8295C3.63147 2.04048 3.75 2.32663 3.75 2.625V4.19897C3.75035 4.5658 3.64176 4.92447 3.43799 5.22949C3.15195 5.65765 2.99951 6.16111 3 6.67603V10.5H3.75V6.67603C3.74965 6.3092 3.85825 5.95053 4.06201 5.64551C4.34805 5.21735 4.50049 4.71389 4.5 4.19897V2.625C4.5 2.12772 4.30246 1.65081 3.95083 1.29917C3.5992 0.947544 3.12228 0.75 2.625 0.75C2.12772 0.75 1.65081 0.947544 1.29918 1.29917C0.947545 1.65081 0.750001 2.12772 0.750001 2.625V4.19897C0.749508 4.71389 0.901949 5.21735 1.18799 5.64551C1.39176 5.95053 1.50035 6.3092 1.5 6.67603Z" fill="#103265"/>
<path d="M22.125 1.875H21.5757L20.937 0.916992C20.9028 0.865624 20.8564 0.823504 20.8019 0.794373C20.7475 0.765241 20.6867 0.749999 20.625 0.75H18.375C18.3133 0.749999 18.2525 0.765241 18.1981 0.794373C18.1436 0.823504 18.0972 0.865624 18.063 0.916992L17.4243 1.875H16.875C16.5767 1.87534 16.2908 1.99397 16.0799 2.20488C15.869 2.41578 15.7503 2.70174 15.75 3V6.375C15.7503 6.67326 15.869 6.95922 16.0799 7.17012C16.2908 7.38103 16.5767 7.49966 16.875 7.5H22.125C22.4233 7.49966 22.7092 7.38103 22.9201 7.17012C23.131 6.95922 23.2497 6.67326 23.25 6.375V3C23.2497 2.70174 23.131 2.41578 22.9201 2.20488C22.7092 1.99397 22.4233 1.87534 22.125 1.875ZM22.5 6.375C22.4999 6.47442 22.4603 6.56974 22.39 6.64004C22.3197 6.71034 22.2244 6.74989 22.125 6.75H16.875C16.7756 6.74989 16.6803 6.71034 16.61 6.64004C16.5397 6.56974 16.5001 6.47442 16.5 6.375V3C16.5001 2.90058 16.5397 2.80526 16.61 2.73496C16.6803 2.66466 16.7756 2.62511 16.875 2.625H17.625C17.6867 2.625 17.7475 2.60976 17.8019 2.58063C17.8564 2.5515 17.9028 2.50938 17.937 2.45801L18.5757 1.5H20.4243L21.063 2.45801C21.0972 2.50938 21.1436 2.5515 21.1981 2.58063C21.2525 2.60976 21.3133 2.625 21.375 2.625H22.125C22.2244 2.62511 22.3197 2.66466 22.39 2.73496C22.4603 2.80526 22.4999 2.90058 22.5 3V6.375Z" fill="#103265"/>
<path d="M19.5 3C19.2033 3 18.9133 3.08797 18.6666 3.2528C18.42 3.41762 18.2277 3.65189 18.1142 3.92597C18.0006 4.20006 17.9709 4.50166 18.0288 4.79264C18.0867 5.08361 18.2296 5.35088 18.4393 5.56066C18.6491 5.77044 18.9164 5.9133 19.2074 5.97118C19.4983 6.02906 19.7999 5.99935 20.074 5.88582C20.3481 5.77229 20.5824 5.58003 20.7472 5.33336C20.912 5.08668 21 4.79667 21 4.5C20.9995 4.10231 20.8414 3.72104 20.5602 3.43984C20.279 3.15863 19.8977 3.00045 19.5 3ZM19.5 5.25C19.3517 5.25 19.2067 5.20601 19.0833 5.1236C18.96 5.04119 18.8639 4.92406 18.8071 4.78701C18.7503 4.64997 18.7355 4.49917 18.7644 4.35368C18.7934 4.2082 18.8648 4.07456 18.9697 3.96967C19.0746 3.86478 19.2082 3.79335 19.3537 3.76441C19.4992 3.73547 19.65 3.75032 19.787 3.80709C19.9241 3.86386 20.0412 3.95999 20.1236 4.08332C20.206 4.20666 20.25 4.35166 20.25 4.5C20.2498 4.69884 20.1707 4.88948 20.0301 5.03008C19.8895 5.17068 19.6988 5.24977 19.5 5.25Z" fill="#103265"/>
<path d="M22.875 18.375H22.0428L21.9713 18.0891C21.8845 17.7438 21.7172 17.424 21.483 17.1557C21.2489 16.8875 20.9545 16.6785 20.6241 16.5458L20.2678 16.4032C20.4994 16.1318 20.6261 15.7865 20.625 15.4297V15C20.625 14.6022 20.467 14.2206 20.1857 13.9393C19.9044 13.658 19.5228 13.5 19.125 13.5C18.7272 13.5 18.3456 13.658 18.0643 13.9393C17.783 14.2206 17.625 14.6022 17.625 15V15.4297C17.6239 15.7865 17.7506 16.1318 17.9822 16.4032L17.6259 16.5458C17.2955 16.6785 17.0011 16.8875 16.767 17.1557C16.5328 17.424 16.3655 17.7438 16.2787 18.0891L16.2072 18.375H15.375C15.2755 18.375 15.1802 18.4145 15.1098 18.4848C15.0395 18.5552 15 18.6505 15 18.75V23.25H15.75V21H22.5V23.25H23.25V18.75C23.25 18.6505 23.2105 18.5552 23.1402 18.4848C23.0698 18.4145 22.9745 18.375 22.875 18.375ZM18.375 15C18.375 14.8011 18.454 14.6103 18.5947 14.4697C18.7353 14.329 18.9261 14.25 19.125 14.25C19.3239 14.25 19.5147 14.329 19.6553 14.4697C19.796 14.6103 19.875 14.8011 19.875 15V15.4297C19.8755 15.5691 19.8369 15.7058 19.7636 15.8244C19.6903 15.943 19.5853 16.0386 19.4604 16.1006L19.3323 16.1646C19.2702 16.1956 19.2179 16.2433 19.1813 16.3024C19.1447 16.3614 19.1252 16.4294 19.125 16.4989C19.1248 16.4294 19.1053 16.3614 19.0687 16.3024C19.0321 16.2433 18.9798 16.1956 18.9177 16.1646L18.7896 16.1006C18.6647 16.0386 18.5597 15.943 18.4864 15.8244C18.4131 15.7058 18.3745 15.5691 18.375 15.4297V15ZM17.0063 18.271C17.0642 18.0408 17.1757 17.8276 17.3318 17.6488C17.4879 17.4699 17.6841 17.3306 17.9044 17.2421L18.8893 16.8482C18.9564 16.8213 19.0143 16.7756 19.0561 16.7166C19.0979 16.6576 19.1217 16.5878 19.1247 16.5156C19.1249 16.5107 19.125 16.5059 19.125 16.501C19.125 16.5059 19.1251 16.5107 19.1253 16.5156C19.1283 16.5878 19.1521 16.6576 19.1939 16.7166C19.2357 16.7756 19.2936 16.8213 19.3607 16.8482L20.3456 17.2421C20.5659 17.3306 20.7621 17.4699 20.9182 17.6488C21.0743 17.8276 21.1858 18.0408 21.2437 18.271L21.2697 18.375H16.9803L17.0063 18.271ZM15.75 20.25V19.125H22.5V20.25H15.75Z" fill="#103265"/>
<path d="M2.65709 11.2192C2.63583 11.4773 2.62503 11.74 2.62503 12C2.62187 13.3484 2.912 14.6814 3.4753 15.9065L4.15693 15.5936C3.63884 14.4666 3.37204 13.2404 3.37503 12C3.37503 11.7605 3.38496 11.5185 3.40457 11.2809L2.65709 11.2192Z" fill="#103265"/>
<path d="M12.0001 20.6251C10.8916 20.6271 9.79325 20.4142 8.76576 19.9983L8.48438 20.6935C10.3464 21.4431 12.3992 21.5784 14.3435 21.0798L14.1566 20.3534C13.452 20.5342 12.7275 20.6255 12.0001 20.6251Z" fill="#103265"/>
<path d="M21.2453 13.562C21.3316 13.0458 21.375 12.5233 21.3749 11.9999C21.3781 10.6515 21.0879 9.3186 20.5247 8.09351L19.843 8.40634C20.3611 9.53335 20.6279 10.7595 20.6249 11.9999C20.625 12.4817 20.5851 12.9627 20.5056 13.4379L21.2453 13.562Z" fill="#103265"/>
<path d="M11.9999 3.375C12.9792 3.37375 13.9515 3.53969 14.875 3.86568L15.1249 3.15852C13.3658 2.54019 11.4627 2.45732 9.65649 2.9204L9.8434 3.64673C10.548 3.46591 11.2725 3.37462 11.9999 3.375Z" fill="#103265"/>
<path d="M6.375 18H3.75V18.75H6.375V18Z" fill="#103265"/>
<path d="M6 19.5H3.75V20.25H6V19.5Z" fill="#103265"/>
<path d="M12.2652 12.2652C12.3355 12.1949 12.375 12.0995 12.375 12V9.375H11.625V11.8447L9.85986 13.6098L10.3902 14.1402L12.2652 12.2652Z" fill="#103265"/>
</g>
<defs>
<clipPath id="clip0_9189_12664">
<rect width="24" height="24" fill="white"/>
</clipPath>
</defs>
</svg>
