<svg width="33" height="32" viewBox="0 0 33 32" fill="none" xmlns="http://www.w3.org/2000/svg">
<path d="M16.5 30.3334C8.59335 30.3334 2.16669 23.9067 2.16669 16.0001C2.16669 8.09341 8.59335 1.66675 16.5 1.66675C24.4067 1.66675 30.8334 8.09341 30.8334 16.0001C30.8334 23.9067 24.4067 30.3334 16.5 30.3334ZM16.5 3.66675C9.70002 3.66675 4.16669 9.20008 4.16669 16.0001C4.16669 22.8001 9.70002 28.3334 16.5 28.3334C23.3 28.3334 28.8334 22.8001 28.8334 16.0001C28.8334 9.20008 23.3 3.66675 16.5 3.66675Z" fill="#8F00FF"/>
<path d="M12.5 29H11.1667C10.62 29 10.1667 28.5467 10.1667 28C10.1667 27.4533 10.5933 27.0133 11.14 27C9.04667 19.8533 9.04667 12.1467 11.14 5C10.5933 4.98667 10.1667 4.54667 10.1667 4C10.1667 3.45333 10.62 3 11.1667 3H12.5C12.82 3 13.1267 3.16 13.3133 3.41333C13.5 3.68 13.5533 4.01333 13.4467 4.32C10.94 11.8533 10.94 20.1467 13.4467 27.6933C13.5533 28 13.5 28.3333 13.3133 28.6C13.1267 28.84 12.82 29 12.5 29Z" fill="#8F00FF"/>
<path d="M20.5 29.0001C20.3934 29.0001 20.2867 28.9867 20.18 28.9467C19.66 28.7734 19.3667 28.2001 19.5534 27.6801C22.06 20.1467 22.06 11.8534 19.5534 4.30674C19.38 3.78674 19.66 3.21341 20.18 3.04008C20.7134 2.86674 21.2734 3.14674 21.4467 3.66674C24.1 11.6134 24.1 20.3601 21.4467 28.2934C21.3134 28.7334 20.9134 29.0001 20.5 29.0001Z" fill="#8F00FF"/>
<path d="M16.5 22.9334C12.78 22.9334 9.07333 22.4134 5.5 21.3601C5.48667 21.8934 5.04667 22.3334 4.5 22.3334C3.95333 22.3334 3.5 21.8801 3.5 21.3334V20.0001C3.5 19.6801 3.66 19.3734 3.91333 19.1867C4.18 19.0001 4.51333 18.9467 4.82 19.0534C12.3533 21.5601 20.66 21.5601 28.1933 19.0534C28.5 18.9467 28.8333 19.0001 29.1 19.1867C29.3667 19.3734 29.5133 19.6801 29.5133 20.0001V21.3334C29.5133 21.8801 29.06 22.3334 28.5133 22.3334C27.9667 22.3334 27.5267 21.9067 27.5133 21.3601C23.9267 22.4134 20.22 22.9334 16.5 22.9334Z" fill="#8F00FF"/>
<path d="M28.5 12.9999C28.3933 12.9999 28.2866 12.9866 28.18 12.9466C20.6466 10.4399 12.34 10.4399 4.80664 12.9466C4.27331 13.1199 3.71331 12.8399 3.53998 12.3199C3.37998 11.7866 3.65998 11.2266 4.17998 11.0532C12.1266 8.3999 20.8733 8.3999 28.8066 11.0532C29.3266 11.2266 29.62 11.7999 29.4333 12.3199C29.3133 12.7332 28.9133 12.9999 28.5 12.9999Z" fill="#8F00FF"/>
</svg>
