<svg width="24" height="24" viewBox="0 0 24 24" fill="none" xmlns="http://www.w3.org/2000/svg">
<path d="M22.3968 23.1984V9.6003H22.7967C23.0176 9.6003 23.1967 9.42124 23.1967 9.20036V7.20068C23.1967 6.9798 23.0176 6.80074 22.7967 6.80074H22.3968V5.20099C22.3968 4.98011 22.2177 4.80105 21.9968 4.80105H21.197V0.401646C21.197 0.180771 21.0179 0.00170898 20.797 0.00170898H3.19955C2.97867 0.00170898 2.79961 0.180771 2.79961 0.401646V4.80101H1.99973C1.77886 4.80101 1.5998 4.98007 1.5998 5.20094V6.80069H1.19986C0.978984 6.80069 0.799922 6.97975 0.799922 7.20063V9.20032C0.799922 9.42119 0.978984 9.60026 1.19986 9.60026H1.5998V23.1983H0V23.9981H1.99973H21.9968H24V23.1983H22.3968V23.1984ZM3.59948 0.801584H20.397V4.80101H3.59948V0.801584ZM2.39967 5.60088H3.19955H20.797H21.5969V6.80069H2.39967V5.60088ZM21.5969 23.1984H2.39967V9.6003H21.5969V23.1984H21.5969ZM1.99973 8.80043H1.5998V7.60061H1.99973H21.9968H22.3968V8.80043H21.9968H1.99973Z" fill="#103265"/>
</svg>
