<svg width="24" height="24" viewBox="0 0 24 24" fill="none" xmlns="http://www.w3.org/2000/svg">
<g clip-path="url(#clip0_9189_12866)">
<path d="M12 15.4219C11.9068 15.4219 11.8173 15.4589 11.7514 15.5248C11.6855 15.5908 11.6484 15.6802 11.6484 15.7734V20.4609C11.6484 20.5542 11.6855 20.6436 11.7514 20.7095C11.8173 20.7755 11.9068 20.8125 12 20.8125C12.0932 20.8125 12.1827 20.7755 12.2486 20.7095C12.3145 20.6436 12.3516 20.5542 12.3516 20.4609V15.7734C12.3516 15.6802 12.3145 15.5908 12.2486 15.5248C12.1827 15.4589 12.0932 15.4219 12 15.4219Z" fill="#103265"/>
<path d="M13.4062 15.4219C13.313 15.4219 13.2236 15.4589 13.1577 15.5248C13.0917 15.5908 13.0547 15.6802 13.0547 15.7734V20.4609C13.0547 20.5542 13.0917 20.6436 13.1577 20.7095C13.2236 20.7755 13.313 20.8125 13.4062 20.8125C13.4995 20.8125 13.5889 20.7755 13.6548 20.7095C13.7208 20.6436 13.7578 20.5542 13.7578 20.4609V15.7734C13.7578 15.6802 13.7208 15.5908 13.6548 15.5248C13.5889 15.4589 13.4995 15.4219 13.4062 15.4219Z" fill="#103265"/>
<path d="M10.5938 15.4219C10.5005 15.4219 10.4111 15.4589 10.3452 15.5248C10.2792 15.5908 10.2422 15.6802 10.2422 15.7734V20.4609C10.2422 20.5542 10.2792 20.6436 10.3452 20.7095C10.4111 20.7755 10.5005 20.8125 10.5938 20.8125C10.687 20.8125 10.7764 20.7755 10.8423 20.7095C10.9083 20.6436 10.9453 20.5542 10.9453 20.4609V15.7734C10.9453 15.6802 10.9083 15.5908 10.8423 15.5248C10.7764 15.4589 10.687 15.4219 10.5938 15.4219Z" fill="#103265"/>
<path d="M20.8125 12.9533C20.7193 12.9533 20.6298 12.9904 20.5639 13.0563C20.498 13.1222 20.4609 13.2117 20.4609 13.3049V22.3359C20.4609 22.367 20.4486 22.3968 20.4266 22.4188C20.4046 22.4408 20.3748 22.4531 20.3438 22.4531H16.3266C16.3325 22.4143 16.3356 22.3752 16.3359 22.3359V13.8984C16.3357 13.681 16.2492 13.4724 16.0954 13.3187C15.9416 13.1649 15.7331 13.0784 15.5156 13.0781H13.5234V12.7031H13.6406C13.8581 12.7029 14.0666 12.6164 14.2204 12.4626C14.3742 12.3088 14.4607 12.1003 14.4609 11.8828V11.4141C14.4607 11.1966 14.3742 10.9881 14.2204 10.8343C14.0666 10.6805 13.8581 10.594 13.6406 10.5938H10.3594C10.1419 10.594 9.93339 10.6805 9.7796 10.8343C9.62582 10.9881 9.53931 11.1966 9.53906 11.4141V11.8828C9.53931 12.1003 9.62582 12.3088 9.7796 12.4626C9.93339 12.6164 10.1419 12.7029 10.3594 12.7031H10.4766V13.0781H8.48438C8.26689 13.0784 8.05839 13.1649 7.9046 13.3187C7.75082 13.4724 7.66431 13.681 7.66406 13.8984V22.3359C7.66431 22.5534 7.75082 22.7619 7.9046 22.9157C8.05839 23.0695 8.26689 23.156 8.48438 23.1562H20.3438C20.5612 23.156 20.7697 23.0695 20.9235 22.9157C21.0773 22.7619 21.1638 22.5534 21.1641 22.3359V13.3049C21.1641 13.2117 21.127 13.1222 21.0611 13.0563C20.9952 12.9904 20.9057 12.9533 20.8125 12.9533ZM10.3594 12C10.3283 12 10.2985 11.9877 10.2765 11.9657C10.2545 11.9437 10.2422 11.9139 10.2422 11.8828V11.4141C10.2422 11.383 10.2545 11.3532 10.2765 11.3312C10.2985 11.3092 10.3283 11.2969 10.3594 11.2969H13.6406C13.6717 11.2969 13.7015 11.3092 13.7235 11.3312C13.7455 11.3532 13.7578 11.383 13.7578 11.4141V11.8828C13.7578 11.9139 13.7455 11.9437 13.7235 11.9657C13.7015 11.9877 13.6717 12 13.6406 12H10.3594ZM12.8203 12.7031V13.0781H11.1797V12.7031H12.8203ZM8.36719 13.8984C8.36719 13.8674 8.37953 13.8376 8.40151 13.8156C8.42349 13.7936 8.45329 13.7812 8.48438 13.7812H9.30469V14.6016C9.30469 14.6326 9.29234 14.6624 9.27036 14.6844C9.24839 14.7064 9.21858 14.7188 9.1875 14.7188H8.36719V13.8984ZM9.30469 22.4531H8.48438C8.45329 22.4531 8.42349 22.4408 8.40151 22.4188C8.37953 22.3968 8.36719 22.367 8.36719 22.3359V21.5156H9.1875C9.21858 21.5156 9.24839 21.528 9.27036 21.5499C9.29234 21.5719 9.30469 21.6017 9.30469 21.6328V22.4531ZM15.6328 22.3359C15.6328 22.367 15.6205 22.3968 15.5985 22.4188C15.5765 22.4408 15.5467 22.4531 15.5156 22.4531H14.6953V21.6328C14.6953 21.6017 14.7077 21.5719 14.7296 21.5499C14.7516 21.528 14.7814 21.5156 14.8125 21.5156H15.6328V22.3359ZM15.6328 20.8125H14.8125C14.595 20.8127 14.3865 20.8993 14.2327 21.053C14.0789 21.2068 13.9924 21.4153 13.9922 21.6328V22.4531H10.0078V21.6328C10.0076 21.4153 9.92106 21.2068 9.76727 21.053C9.61349 20.8993 9.40498 20.8127 9.1875 20.8125H8.36719V15.4219H9.1875C9.40498 15.4216 9.61349 15.3351 9.76727 15.1813C9.92106 15.0276 10.0076 14.819 10.0078 14.6016V13.7812H13.9922V14.6016C13.9924 14.819 14.0789 15.0276 14.2327 15.1813C14.3865 15.3351 14.595 15.4216 14.8125 15.4219H15.6328V20.8125ZM15.6328 14.7188H14.8125C14.7814 14.7188 14.7516 14.7064 14.7296 14.6844C14.7077 14.6624 14.6953 14.6326 14.6953 14.6016V13.7812H15.5156C15.5467 13.7812 15.5765 13.7936 15.5985 13.8156C15.6205 13.8376 15.6328 13.8674 15.6328 13.8984V14.7188Z" fill="#103265"/>
<path d="M22.9792 7.92188C22.9786 7.9215 22.978 7.92094 22.9774 7.92056L22.9727 7.91789L22.9722 7.91756L21.1641 6.89766V3.38733C21.3332 3.33671 21.4815 3.23294 21.5871 3.09141C21.6926 2.94988 21.7497 2.77811 21.75 2.60156V1.66406C21.7498 1.44658 21.6632 1.23807 21.5095 1.08429C21.3557 0.930503 21.1472 0.843998 20.9297 0.84375H16.0078C15.7903 0.843998 15.5818 0.930503 15.428 1.08429C15.2743 1.23807 15.1877 1.44658 15.1875 1.66406V2.60156C15.1878 2.77811 15.2449 2.94988 15.3504 3.09141C15.456 3.23294 15.6043 3.33671 15.7734 3.38733V3.85739L12.4031 1.95647C12.28 1.88754 12.1412 1.85135 12.0001 1.85135C11.859 1.85135 11.7203 1.88754 11.5972 1.95647L1.02792 7.91719L1.02736 7.91752L1.02267 7.92019C1.02206 7.92056 1.0215 7.92113 1.02084 7.9215C0.967044 7.95221 0.922326 7.99661 0.891224 8.05019C0.860122 8.10376 0.843743 8.16461 0.84375 8.22656V9.16406C0.843998 9.38155 0.930503 9.59005 1.08429 9.74384C1.23807 9.89762 1.44658 9.98413 1.66406 9.98438H2.83594V22.3359C2.83617 22.5534 2.92267 22.7619 3.07646 22.9157C3.23025 23.0695 3.43876 23.156 3.65625 23.1562H6.95344C6.99961 23.1562 7.04532 23.1472 7.08797 23.1295C7.13063 23.1118 7.16938 23.0859 7.20203 23.0533C7.23467 23.0206 7.26057 22.9819 7.27824 22.9392C7.29591 22.8966 7.305 22.8509 7.305 22.8047C7.305 22.7585 7.29591 22.7128 7.27824 22.6702C7.26057 22.6275 7.23467 22.5887 7.20203 22.5561C7.16938 22.5234 7.13063 22.4976 7.08797 22.4799C7.04532 22.4622 6.99961 22.4531 6.95344 22.4531H3.65625C3.62517 22.4531 3.59536 22.4408 3.57339 22.4188C3.55141 22.3968 3.53906 22.367 3.53906 22.3359V9.98438H20.4609V12.1936C20.4609 12.2868 20.498 12.3763 20.5639 12.4422C20.6298 12.5081 20.7193 12.5452 20.8125 12.5452C20.9057 12.5452 20.9952 12.5081 21.0611 12.4422C21.127 12.3763 21.1641 12.2868 21.1641 12.1936V9.98438H22.3359C22.5534 9.98413 22.7619 9.89762 22.9157 9.74384C23.0695 9.59005 23.156 9.38155 23.1562 9.16406V8.22656C23.1562 8.16469 23.1398 8.10392 23.1087 8.05042C23.0776 7.99691 23.033 7.95257 22.9792 7.92188ZM15.8906 1.66406C15.8906 1.63298 15.903 1.60318 15.9249 1.5812C15.9469 1.55922 15.9767 1.54688 16.0078 1.54688H20.9297C20.9608 1.54688 20.9906 1.55922 21.0126 1.5812C21.0345 1.60318 21.0469 1.63298 21.0469 1.66406V2.60156C21.0469 2.63264 21.0345 2.66245 21.0126 2.68443C20.9906 2.7064 20.9608 2.71875 20.9297 2.71875H18.2572C18.164 2.71875 18.0746 2.75579 18.0087 2.82172C17.9427 2.88765 17.9057 2.97707 17.9057 3.07031C17.9057 3.16355 17.9427 3.25297 18.0087 3.3189C18.0746 3.38484 18.164 3.42188 18.2572 3.42188H20.4609V6.50109L16.4766 4.25395V3.42188H17.1562C17.2495 3.42188 17.3389 3.38484 17.4048 3.3189C17.4708 3.25297 17.5078 3.16355 17.5078 3.07031C17.5078 2.97707 17.4708 2.88765 17.4048 2.82172C17.3389 2.75579 17.2495 2.71875 17.1562 2.71875H16.0078C15.9767 2.71875 15.9469 2.7064 15.9249 2.68443C15.903 2.66245 15.8906 2.63264 15.8906 2.60156V1.66406ZM11.9424 2.56875C11.96 2.55891 11.9798 2.55374 12 2.55374C12.0202 2.55374 12.04 2.55891 12.0576 2.56875L21.4657 7.875H2.5343L11.9424 2.56875ZM22.4531 9.16406C22.4531 9.19514 22.4408 9.22495 22.4188 9.24693C22.3968 9.2689 22.367 9.28125 22.3359 9.28125H1.66406C1.63298 9.28125 1.60318 9.2689 1.5812 9.24693C1.55922 9.22495 1.54688 9.19514 1.54688 9.16406V8.57812H22.4531V9.16406Z" fill="#103265"/>
</g>
<defs>
<clipPath id="clip0_9189_12866">
<rect width="24" height="24" fill="white"/>
</clipPath>
</defs>
</svg>
