<svg width="24" height="24" viewBox="0 0 24 24" fill="none" xmlns="http://www.w3.org/2000/svg">
<g clip-path="url(#clip0_9189_12205)">
<path d="M19.0937 7.86158C19.1717 7.93958 19.2737 7.9784 19.3757 7.9784C19.4777 7.9784 19.5798 7.9394 19.6578 7.86158L22.437 5.08241C23.2331 4.28608 23.2331 2.99025 22.437 2.19392C21.6407 1.39742 20.3447 1.39778 19.5485 2.19392L19.3757 2.36641L19.2032 2.19392C18.4065 1.3976 17.111 1.3976 16.3147 2.19392C15.9289 2.57973 15.7163 3.0926 15.7163 3.63808C15.7163 4.18355 15.9289 4.69661 16.3147 5.08223L19.0937 7.86158ZM16.8788 2.75807C17.1216 2.51527 17.4402 2.39424 17.7588 2.39424C18.0775 2.39424 18.3964 2.51546 18.639 2.75807L19.0937 3.2129C19.1686 3.28761 19.27 3.32973 19.3757 3.32973C19.4815 3.32973 19.5829 3.28761 19.6578 3.2129L20.1127 2.75807C20.5983 2.27229 21.3876 2.27284 21.8729 2.75807C22.3581 3.2433 22.3581 4.03303 21.8729 4.51826L19.3757 7.01527L16.8788 4.51826C16.6437 4.28315 16.5141 3.97041 16.5141 3.63826C16.5143 3.30574 16.6437 2.99299 16.8788 2.75807Z" fill="#103265"/>
<path d="M23.1163 23.1399C19.7063 23.5182 17.0021 22.0084 16.975 21.9932C16.8832 21.9408 16.7745 21.9267 16.6725 21.9547C16.6294 21.9662 12.3402 23.116 8.88555 22.3491C6.73187 21.8703 4.7005 20.3533 3.21716 19.2457C3.01794 19.097 2.82916 18.9558 2.65191 18.8263C2.40985 18.6493 2.02496 18.5021 1.68567 18.3721C1.53332 18.3138 1.32458 18.2338 1.27972 18.2058C1.24091 18.1754 1.21966 18.1307 1.21966 18.0796V17.155C1.23889 16.4233 4.30664 5.16468 4.78234 3.73243C4.79406 3.71558 4.83984 3.68244 4.87353 3.66651L10.9446 0.893565L12.9073 3.4488C13.0041 3.58118 12.995 3.7663 12.8859 3.88844L10.9464 6.06263C10.8195 6.20508 10.6058 6.22065 10.4733 6.10987L9.68902 5.38679C9.5971 5.30219 9.46636 5.27418 9.34386 5.2967C9.221 5.31867 9.11114 5.4062 9.05437 5.51752C8.98882 5.64661 8.39501 5.80482 7.7893 5.80939L7.59191 5.78943C7.43371 5.77058 7.28027 5.85316 7.203 5.9925C7.12536 6.13184 7.13854 6.30396 7.23596 6.4303C7.40441 6.64802 7.5357 6.82288 7.61004 6.92322L7.99822 13.5218C7.75762 14.4589 7.53716 14.7252 7.48242 14.7784C7.32073 14.8295 7.20336 14.9806 7.20336 15.1589C7.20336 15.3792 7.38207 15.5579 7.60235 15.5579C8.0548 15.5579 8.43932 14.9634 8.74804 13.8027C11.9211 11.4285 14.6902 13.6692 14.9073 13.8536C15.9151 14.865 15.9776 15.5369 15.9796 15.5667C15.9844 15.7828 16.1611 15.9567 16.3786 15.9567C16.5989 15.9567 16.7776 15.7782 16.7776 15.5579C16.7776 15.4662 16.7442 14.679 15.7117 13.5417C16.6855 12.3446 17.7942 11.655 19.0153 11.5049C21.1206 11.2456 22.8904 12.6614 22.9081 12.6755C23.0791 12.8146 23.33 12.789 23.4692 12.6183C23.6083 12.4479 23.5832 12.197 23.4129 12.0577C23.3305 11.9905 21.3715 10.4145 18.9259 10.712C17.4964 10.8854 16.2132 11.6585 15.1071 13.0117C14.2093 12.4012 11.6352 11.0195 8.75646 12.8265L8.39941 6.75824C8.39574 6.69269 8.3756 6.62916 8.34136 6.57331C8.69842 6.53101 9.12359 6.43781 9.43194 6.23493L9.94591 6.70862C10.4244 7.11017 11.1251 7.06019 11.5415 6.594L13.4809 4.41962C13.8387 4.01881 13.8686 3.41273 13.5458 2.97071L11.3837 0.155834C11.2709 0.00880067 11.0713 -0.0411871 10.9015 0.0360833L4.54687 2.93867C4.4804 2.96778 4.14331 3.13093 4.03253 3.46418C3.80658 4.1424 0.421875 16.2133 0.421875 17.1537V18.0798C0.421875 18.377 0.555359 18.6518 0.787719 18.834C0.903991 18.925 1.07776 18.9939 1.40057 19.1173C1.66424 19.2184 2.02515 19.3563 2.18097 19.4703C2.35638 19.5985 2.54278 19.7378 2.73981 19.8851C4.281 21.0361 6.39166 22.6122 8.7127 23.128C12.0168 23.8623 15.8956 22.9746 16.7269 22.7651C17.282 23.0521 19.3189 24 21.9855 24C22.3789 24 22.7864 23.9795 23.2044 23.9328C23.4234 23.9086 23.581 23.7112 23.5569 23.4924C23.5323 23.2731 23.3344 23.1141 23.1163 23.1399Z" fill="#103265"/>
<path d="M21.1633 18.3063C21.1413 18.1067 20.9723 17.9514 20.7667 17.9514C20.5464 17.9514 20.3677 18.1301 20.3677 18.3504C20.3677 18.6168 20.5645 19.519 23.0947 19.9405C23.1168 19.9442 23.139 19.946 23.1606 19.946C23.3521 19.946 23.5211 19.8077 23.5537 19.6127C23.5898 19.3954 23.4429 19.1899 23.2258 19.1535C21.4564 18.8587 21.1869 18.3594 21.1633 18.3063Z" fill="#103265"/>
<path d="M13.5029 20.3539C8.27799 21.473 6.0421 17.8981 5.94963 17.7456C5.83555 17.5571 5.59111 17.4965 5.40269 17.6097C5.21373 17.723 5.15257 17.968 5.26591 18.157C5.29228 18.2008 5.92711 19.2428 7.28447 20.1305C8.21977 20.7419 9.64597 21.3648 11.575 21.3648C12.2175 21.3648 12.9157 21.2958 13.6699 21.1343C13.8854 21.0882 14.0227 20.8759 13.9766 20.6606C13.9303 20.4453 13.7184 20.3074 13.5029 20.3539Z" fill="#103265"/>
</g>
<defs>
<clipPath id="clip0_9189_12205">
<rect width="24" height="24" fill="white"/>
</clipPath>
</defs>
</svg>
