<svg width="20" height="20" viewBox="0 0 20 20" fill="none" xmlns="http://www.w3.org/2000/svg">
<path d="M7.61223 17.3112V14.7631C7.61223 14.1126 8.14339 13.5853 8.79861 13.5853H11.1938C11.5084 13.5853 11.8102 13.7094 12.0327 13.9303C12.2551 14.1512 12.3801 14.4507 12.3801 14.7631V17.3112C12.3782 17.5816 12.485 17.8416 12.6769 18.0336C12.8688 18.2255 13.13 18.3334 13.4024 18.3334H15.0364C15.7996 18.3354 16.5322 18.0358 17.0726 17.5008C17.6129 16.9657 17.9166 16.2392 17.9166 15.4816V8.22246C17.9166 7.61047 17.6433 7.02995 17.1704 6.63731L11.6116 2.22997C10.6446 1.45722 9.25918 1.48217 8.32108 2.28923L2.8891 6.63731C2.39387 7.01838 2.09788 7.60061 2.08325 8.22246V15.4742C2.08325 17.0533 3.37274 18.3334 4.9634 18.3334H6.56016C7.12594 18.3334 7.58575 17.8803 7.58985 17.3186L7.61223 17.3112Z" fill="#8F00FF"/>
</svg>
