<svg width="24" height="24" viewBox="0 0 24 24" fill="none" xmlns="http://www.w3.org/2000/svg">
<g clip-path="url(#clip0_9189_12821)">
<path d="M6.79891 10.8003H3.9993C3.77843 10.8003 3.59937 10.9794 3.59937 11.2002V15.1997C3.59937 15.4205 3.77843 15.5996 3.9993 15.5996H6.79891C7.01979 15.5996 7.19885 15.4205 7.19885 15.1997V11.2002C7.19885 10.9794 7.01979 10.8003 6.79891 10.8003ZM6.39897 14.7997H4.39924V11.6002H6.39897V14.7997Z" fill="#103265"/>
<path d="M13.598 10.8003H10.7984C10.5775 10.8003 10.3984 10.9794 10.3984 11.2002V15.1997C10.3984 15.4205 10.5775 15.5996 10.7984 15.5996H13.598C13.8189 15.5996 13.9979 15.4205 13.9979 15.1997V11.2002C13.9979 10.9794 13.8189 10.8003 13.598 10.8003ZM13.198 14.7997H11.1984V11.6002H13.198V14.7997Z" fill="#103265"/>
<path d="M13.598 17.1992H10.7984C10.5775 17.1992 10.3984 17.3783 10.3984 17.5992V21.5986C10.3984 21.8195 10.5775 21.9985 10.7984 21.9985H13.598C13.8189 21.9985 13.9979 21.8195 13.9979 21.5986V17.5992C13.9979 17.3783 13.8189 17.1992 13.598 17.1992ZM13.198 21.1986H11.1984V17.9991H13.198V21.1986Z" fill="#103265"/>
<path d="M19.9972 10.8003H17.1975C16.9767 10.8003 16.7976 10.9794 16.7976 11.2002V15.1997C16.7976 15.4205 16.9767 15.5996 17.1975 15.5996H19.9972C20.218 15.5996 20.3971 15.4205 20.3971 15.1997V11.2002C20.3971 10.9794 20.218 10.8003 19.9972 10.8003ZM19.5972 14.7997H17.5975V11.6002H19.5972V14.7997Z" fill="#103265"/>
<path d="M6.79891 17.1992H3.9993C3.77843 17.1992 3.59937 17.3783 3.59937 17.5992V21.5986C3.59937 21.8195 3.77843 21.9985 3.9993 21.9985H6.79891C7.01979 21.9985 7.19885 21.8195 7.19885 21.5986V17.5992C7.19885 17.3783 7.01979 17.1992 6.79891 17.1992ZM6.39897 21.1986H4.39924V17.9991H6.39897V21.1986Z" fill="#103265"/>
<path d="M19.9972 17.1992H17.1975C16.9767 17.1992 16.7976 17.3783 16.7976 17.5992V21.5986C16.7976 21.8195 16.9767 21.9985 17.1975 21.9985H19.9972C20.218 21.9985 20.3971 21.8195 20.3971 21.5986V17.5992C20.3971 17.3783 20.218 17.1992 19.9972 17.1992ZM19.5972 21.1986H17.5975V17.9991H19.5972V21.1986Z" fill="#103265"/>
<path d="M22.3968 23.1984V9.6003H22.7967C23.0176 9.6003 23.1967 9.42124 23.1967 9.20036V7.20068C23.1967 6.9798 23.0176 6.80074 22.7967 6.80074H22.3968V5.20099C22.3968 4.98011 22.2177 4.80105 21.9968 4.80105H21.197V0.401646C21.197 0.180771 21.0179 0.00170898 20.797 0.00170898H3.19955C2.97867 0.00170898 2.79961 0.180771 2.79961 0.401646V4.80101H1.99973C1.77886 4.80101 1.5998 4.98007 1.5998 5.20094V6.80069H1.19986C0.978984 6.80069 0.799922 6.97975 0.799922 7.20063V9.20032C0.799922 9.42119 0.978984 9.60026 1.19986 9.60026H1.5998V23.1983H0V23.9981H1.99973H21.9968H24V23.1983H22.3968V23.1984ZM3.59948 0.801584H20.397V4.80101H3.59948V0.801584ZM2.39967 5.60088H3.19955H20.797H21.5969V6.80069H2.39967V5.60088ZM21.5969 23.1984H2.39967V9.6003H21.5969V23.1984H21.5969ZM1.99973 8.80043H1.5998V7.60061H1.99973H21.9968H22.3968V8.80043H21.9968H1.99973Z" fill="#103265"/>
<path d="M11.3841 2.16984C11.3205 2.00728 11.2311 1.86689 11.1159 1.74872C11.0007 1.63054 10.8621 1.53783 10.7002 1.47065C10.5382 1.40348 10.3588 1.36987 10.162 1.36987C9.96527 1.36987 9.7856 1.40315 9.62303 1.46976C9.46047 1.53637 9.3213 1.62905 9.20552 1.74783C9.08974 1.86661 9.00006 2.00728 8.93646 2.16989C8.87285 2.33245 8.84106 2.50912 8.84106 2.6999C8.84106 2.89069 8.87285 3.06736 8.93646 3.22992C9.00006 3.39248 9.08974 3.53315 9.20552 3.65198C9.3213 3.77076 9.46047 3.86344 9.62303 3.93005C9.7856 3.99665 9.96527 4.02994 10.162 4.02994C10.3588 4.02994 10.5382 3.99665 10.7002 3.93005C10.8622 3.86348 11.0007 3.77076 11.1159 3.65198C11.2311 3.5332 11.3205 3.39253 11.3841 3.22992C11.4477 3.06736 11.4795 2.89069 11.4795 2.6999C11.4795 2.50908 11.4476 2.3324 11.3841 2.16984ZM10.926 3.08409C10.8882 3.19748 10.8339 3.29348 10.7631 3.37205C10.6923 3.45065 10.6062 3.51094 10.5048 3.55294C10.4035 3.59494 10.2892 3.61594 10.162 3.61594C10.0348 3.61594 9.92022 3.59494 9.81827 3.55294C9.71627 3.51094 9.6296 3.45065 9.55821 3.37205C9.48681 3.29344 9.43192 3.19748 9.39353 3.08409C9.35514 2.9707 9.33592 2.84264 9.33592 2.69986C9.33592 2.55708 9.35514 2.42901 9.39353 2.31562C9.43192 2.20223 9.48681 2.10595 9.55821 2.02678C9.6296 1.94761 9.71627 1.887 9.81827 1.845C9.92027 1.803 10.0348 1.782 10.162 1.782C10.2892 1.782 10.4035 1.803 10.5048 1.845C10.6062 1.887 10.6923 1.94761 10.7631 2.02678C10.8339 2.10595 10.8882 2.20223 10.926 2.31562C10.9638 2.42901 10.9827 2.55708 10.9827 2.69986C10.9827 2.84264 10.9638 2.9707 10.926 3.08409Z" fill="#103265"/>
<path d="M7.9699 1.39868V2.5181H6.7497V1.39868H6.26196V4.00109H6.7497V2.86367H7.9699V4.00109H8.45763V1.39868H7.9699Z" fill="#103265"/>
<path d="M16.407 3.60153V1.39868H15.9229V4.00109H17.4491V3.60153H16.407Z" fill="#103265"/>
<path d="M11.501 1.39868V1.79642H12.2875V4.00109H12.7716V1.79642H13.5545V1.39868H11.501Z" fill="#103265"/>
<path d="M15.5037 1.78381V1.39868H13.8623V4.00109H15.5037V3.61413H14.35V2.87806H15.2589V2.50549H14.35V1.78381H15.5037Z" fill="#103265"/>
</g>
<defs>
<clipPath id="clip0_9189_12821">
<rect width="24" height="24" fill="white"/>
</clipPath>
</defs>
</svg>
