<?xml version="1.0" encoding="UTF-8"?>
<svg id="Layer_1" data-name="Layer 1" xmlns="http://www.w3.org/2000/svg" viewBox="0 0 126.83 126.83">
  <defs>
    <style>
      .cls-1 {
        fill: #637481;
      }
    </style>
  </defs>
  <path class="cls-1" d="m13.98,72.51c.03-20.84,14.87-40.69,36.62-46.75,15.63-4.36,30.18-1.61,43.5,7.65.7.49.84.86.45,1.68-5.43,11.68-10.85,23.37-16.19,35.09-.67,1.47-.87,3.14-1.35,4.7-.1.34-.37.78-.68.9-3.3,1.3-5.76,3.51-7.37,6.67-.16.32-.51.62-.84.76-6.93,2.8-12.43,7.33-16.66,13.48-3.71,5.39-8.89,8.34-15.44,8.52-8.38.23-15.51-4.64-18.57-12.46-2.32-5.94-3.5-12.1-3.47-20.25Zm29.02,1.71c.05-4.66-3.86-8.61-8.57-8.64-4.7-.03-8.6,3.82-8.66,8.55-.06,4.68,3.81,8.62,8.52,8.68,4.74.06,8.66-3.81,8.71-8.59Zm2.16-33.34c-4.77,0-8.58,3.78-8.6,8.54-.02,4.76,3.79,8.63,8.51,8.65,4.79.02,8.66-3.83,8.68-8.6.01-4.73-3.84-8.58-8.58-8.58Zm17.21,1.02c-.02,4.75,3.8,8.63,8.52,8.65,4.76.02,8.66-3.85,8.67-8.63,0-4.71-3.88-8.6-8.59-8.6-4.73,0-8.58,3.84-8.6,8.58Z"/>
  <path class="cls-1" d="m86.97,81.49c2.23,2.14,3.39,4.62,3.05,7.58-.16,1.4-.6,2.84-1.25,4.09-3.47,6.64-8.96,10.63-16.32,12.05-.23.04-.47.06-.7.07-.13,0-.26,0-.37-.01-.03-.1-.08-.17-.06-.22,1.35-3.42,1.15-6.89.48-10.41-.59-3.08-.58-6.14.55-9.13,1.66-4.37,5.39-6.65,10.06-6.1.12.01.25,0,.42,0-.06-.14-.07-.24-.13-.32-1.63-2.19-1.69-4.47-.56-6.91,5.51-11.87,10.98-23.75,16.46-35.63,1.94-4.2,3.87-8.41,5.83-12.6.79-1.7,2.25-2.52,4.06-2.39,1.58.12,3.09,1.24,3.4,2.84.18.93.1,2.03-.22,2.93-3.83,10.56-7.72,21.1-11.6,31.64-2.08,5.66-4.17,11.33-6.26,16.99-1.49,4.03-2.52,4.87-6.82,5.52Z"/>
  <path class="cls-1" d="m108.29,49.12c3.47,5.92,5.84,11.95,3.82,18.84-1.86,6.36-5.97,10.7-12.2,12.97-1.32.48-2.74.71-4.23,1.09,2.69-4.96,4.1-10.16,6.01-15.15,2.12-5.51,4.09-11.07,6.13-16.61.13-.34.27-.68.46-1.14Z"/>
</svg>