<?xml version="1.0" encoding="UTF-8"?>
<svg id="Layer_2" data-name="Layer 2" xmlns="http://www.w3.org/2000/svg" viewBox="0 0 260.41 252.23">
  <defs>
    <style>
      .cls-1 {
        fill: #fff;
      }

      .cls-2 {
        fill: #637481;
      }
    </style>
  </defs>
  <path class="cls-1" d="m49.46,124.7c-2.32.35-4.38-.38-6.41-1.21-.7-.28-1.41-.91-.84-1.57.39-.44,1.84-.69,2.07-.41,1.39,1.66,3.18,2.55,5.18,3.19Z"/>
  <g>
    <path class="cls-2" d="m87.66,106.63c2.31-1.01,4.7-1.83,5.74-4.59.4-1.05,1.24-2.06,2.13-2.77,1.05-.85,1.25-1.69,1.06-2.95-.72-4.63-1.35-9.28-1.97-13.92-.28-2.09.12-2.5,2.38-2.79,1.96-.25,2.41.07,2.71,2.12.6,4.2,1.16,8.41,1.74,12.61.11.78.09,1.72,1.27,1.57,4.74-.62,9.48-1.18,14.19-1.94,2.72-.44,4.5-2.26,5.76-4.67,1.21-2.32,2.54-2.55,4.49-.78,1.95,1.77,3.34,3.9,3.6,6.6.15,1.62.77,2.97,1.68,4.34.85,1.28,1.23,2.87,1.85,4.31.32.75.53,1.73,1.11,2.17,2.17,1.64,2.96,3.86,3.1,6.46,1.39-1.26,2.63-6.18,1.93-7.69-.13-.29-.43-.54-.7-.73-1.24-.87-1.34-2.05-.24-3.11,1.18-1.13,1.86-4.16,1.18-5.55-.18-.36-.59-.63-.94-.89-1.4-1.05-1.36-2.05-.15-3.27,1.59-1.61,2.24-3.74,1.79-5.9-1.31-6.22-2.87-12.39-4.26-18.6-1.65-7.31-3.22-14.64-4.84-21.96-.75-3.37-1.52-6.74-2.32-10.09-.49-2.07-.14-2.66,1.97-3.09,3.19-.65,3.15-.64,3.85,2.49,2.03,9,4.11,17.99,6.14,26.99,1.84,8.18,3.67,16.37,5.43,24.57.26,1.21.75,1.58,1.97,1.58,17.04-.05,34.09-.05,51.13-.06,1.14,0,2.27.1,3.41.07,1.11-.03,1.48.47,1.41,1.53-.07.98.02,1.98-.02,2.96-.06,1.41.01,2.63,1.31,3.68,1.3,1.06,1.03,2.31-.38,3.13-.85.49-1,1.04-.33,1.76.27.29.57.54.83.84.9,1.01.88,2.1-.3,2.74-1.27.7-1.35,1.65-1.22,2.85.31,2.84,1.35,5.32,3.31,7.43,1.28,1.38,2.96,1.71,4.66,2.01,3.01.52,6.03,1.01,9.06,1.44,3.15.45,5.45,2.18,7.3,4.62,2.97,3.92,4.24,8.52,5.3,13.22,2.17,9.6,2.33,19.31,1.11,29.01-.77,6.13-2.23,12.13-5.36,17.59-2.13,3.71-5.14,5.96-9.52,6.41-3.03.32-6.02,1.04-9.04,1.48-1.05.15-1.25.66-1.24,1.58.04,3.06-.02,6.13.04,9.19.06,2.92-.73,5.46-2.95,7.45-.96.86-1.46,1.89-1.54,3.23-.13,2.06-.82,2.64-2.84,2.9-10.25,1.32-20.55,2.16-30.88,1.7-10.51-.47-21-1.22-31.49-1.89-1.83-.12-2.08-.55-2.1-2.47,0-.62-.1-1.23-.16-1.85-.16,0-.32-.01-.48-.02-.07,1.12-.23,2.25-.19,3.36.11,2.6-1.18,4.12-3.48,5.08-4.23,1.76-8.71,2.1-13.18,2.49-8.25.73-16.48.47-24.69-.51-2-.24-4-.64-5.94-1.18-3.95-1.09-4.46-1.61-5.97-5.26-.85.57-1.64,1.21-2.52,1.68-3.39,1.81-7.13,2.26-10.86,2.64-9.47.95-18.95.95-28.36-.56-2.35-.38-4.64-1.28-6.91-2.05-1.87-.63-2.59-2.13-2.7-4.02-.48-8.13-.96-16.27-1.49-24.4-.61-9.26-1.32-18.52-1.94-27.78-.6-9.01-1.17-18.03-1.66-27.05-.08-1.49-.55-2.52-1.96-2.92-2.23-.63-2.85-2.2-2.75-4.28.02-.34,0-.69,0-1.04-.03-2.99.39-3.61,3.26-4.65.69-.25,1.14-.48,1.21-1.39.66-8.45,4.12-15.55,10.44-21.22,3.55-3.19,7.63-5.41,12.23-6.68.86-.24,1.48-.55,1.71-1.56.32-1.4,1.52-1.3,2.63-1.27,2.06.05,2,.04,1.88-1.97-.46-7.2-.87-14.4-1.31-21.6-.16-2.61-.33-5.22-.57-7.83-.04-.48-.33-1.05-.69-1.37-5.66-4.93-11.32-9.86-17.04-14.72-1.11-.94-1.1-1.67-.21-2.69.84-.96,1.54-1.14,2.59-.23,5.81,4.99,11.66,9.92,17.5,14.87,1.31,1.12,1.9,2.49,1.99,4.26.51,10.01,1.14,20.02,1.69,30.03.05.91.44,1.21,1.27,1.22.74,0,1.48.09,2.22.13.9.05,1.43.44,1.6,1.41.07.38.56.88.95.98,8.71,2.36,15.17,7.56,19.57,15.38.22.39.4.79.62,1.18.07.12.19.22.38.42Zm54.64-1.81c.07,3.18-1.14,5.98-2.36,8.79-.24.56-.09,1.37.09,2,.49,1.68,1.21,3.31,1.63,5,.27,1.08.64,1.9,1.66,2.44,1.64.87,2.12,2.9,1.31,4.53-.49.99-.97,2.08-1.05,3.16-.78,10.93-1.47,21.87-2.2,32.8-.53,7.93-1.1,15.86-1.61,23.79-.39,6.01-.74,12.02-1.03,18.04-.04.77.17,1.84.68,2.29,1.79,1.57,3.79,2.82,6.35,2.76,2.62-.06,5.24.11,7.85-.05,2.09-.13,4.23-.37,6.24-.94,4.88-1.39,9.82-2.53,14.88-1.92,4.24.51,8.41,1.6,12.61,2.43.77.15,1.54.39,2.32.4,3.36.06,6.72.09,10.08.07,4.93-.03,9.13-4.02,9.17-8.92.07-9.43.01-18.86,0-28.29-.02-10.76-.06-21.53-.07-32.29,0-7.21,0-14.42.03-21.62,0-1.73-.62-3.19-1.83-4.38-2.42-2.41-3.25-5.5-3.57-8.72-.13-1.27-.56-1.41-1.61-1.41-7.51.04-15.01.04-22.52.05-12.29,0-24.58,0-37.05,0Zm-59.24,25.68c0,1.12-.04,2,0,2.87.52,8.92,1.05,17.85,1.6,26.77.76,12.37,1.52,24.74,2.3,37.11.3,4.83.68,9.65.99,14.48.09,1.44.81,2.32,2.13,2.68,2.47.68,4.92,1.53,7.44,1.86,7.86,1.02,15.77.89,23.67.45,4-.22,7.93-.85,11.76-2.13,1.74-.58,2.39-1.56,2.48-3.31.26-4.98.66-9.95.97-14.93.34-5.42.62-10.85,1.01-16.27.08-1.08.2-1.84-1.18-2.19-.74-.19-1.38-.93-1.94-1.54-.26-.28-.24-.83-.35-1.25.53,0,1.17-.19,1.56.04.69.41,1.24,1.07,2.09,1.84.54-8.11,1.05-15.9,1.57-23.75-1.11-.11-2.27.24-2.57-1.41.89-.14,1.71-.27,2.72-.43.43-6.82.86-13.68,1.29-20.67-17.27,3.49-34.39,3.1-51.5,1.33-.12.57-.21.98-.32,1.51-.42-.77-.61-1.68-1.08-1.86-1.45-.54-3-.8-4.64-1.2Zm-23.76,83.96c2.86,0,5.73.09,8.59-.02,4.21-.16,8.34-.81,12.32-2.29,1.33-.49,2.01-1.27,2.06-2.69.05-1.48.24-2.95.32-4.43.31-5.92,1.04-11.85.81-17.75-.43-11.29-1.41-22.57-2.17-33.85-.19-2.86-.22-2.75-3.05-2.68-9.23.22-18.47.51-27.7.43-5.42-.04-10.83-.66-16.24-1.14-1.88-.17-1.99-.25-1.87,1.64.4,6.46.82,12.91,1.25,19.36.84,12.41,1.71,24.83,2.54,37.24.19,2.76.71,3.52,3.32,4.39.51.17,1.05.27,1.57.41,5.98,1.65,12.13,1.41,18.24,1.37Zm-3.72-90.91s0-.03,0-.05c1.48,0,2.96,0,4.45,0,6.24-.04,12.43-.51,18.49-2.08,2.9-.75,5.33-4.46,4.88-7.45-.97-6.51-3.35-12.46-7.38-17.69-.79-1.02-1.91-1.94-3.07-2.49-2.08-.98-4.3-1.67-6.48-2.44-.35-.12-.77-.09-1.15-.07-2.65.16-5.29.44-7.94.46-1.61.02-3.27-.71-4.82-.47-5,.75-9.65,2.75-12.91,6.62-3.6,4.27-5.99,9.24-5.63,15.18.1,1.65.5,2.57,2.02,3.24,2.56,1.13,4.59,2.84,5.46,5.69.12.39.96.76,1.5.8,4.19.3,8.38.51,12.57.75Zm36.65-17.22c-.91.29-1.43.41-1.9.63-2.77,1.28-4.14,3.63-5.01,6.43-.64,2.06-1.51,4.04-2.2,6.09-.36,1.06-.61,2.17-.76,3.27-.13.96.37,1.51,1.39,1.73,9.73,2.07,19.5,3.63,29.5,3.3,8.4-.28,16.75-1,24.94-3.06,1.31-.33,2.03-1.02,1.99-2.34-.07-2.24-.45-4.41-1.72-6.34-.56-.85-1.09-1.42-2.04-.4-.29.31-.83.4-1.31.61-.55-.98-.43-1.59.47-2.07.34-.18.73-.53.84-.88.71-2.39-.19-4.73-2.33-5.93-.98-.55-1.53-1.29-1.48-2.36.1-2.06-.89-3.66-1.91-5.32-.67-1.09-1.23-2.36-1.41-3.62-.36-2.5-1.23-4.66-3.14-6.34-.8-.71-1.42-.77-2.15.29-.97,1.39-2.16,2.64-3.33,3.87-.49.51-.67.8-.22,1.47.23.35-.03,1.03-.07,1.56-.51-.19-1.32-.24-1.47-.58-.45-1.07-1.23-.96-1.93-.62-1,.48-1.9,1.16-2.84,1.76-1.33-1.68-3.1-.33-4.38-.35-.53.96-.91,1.66-1.29,2.36-.45-.6-.91-1.21-1.62-2.15-.95.09-2.37.15-3.75.4-.4.07-1,.66-1,1.01,0,.89.31,1.78.51,2.78.77-.44,1.3-.78,1.86-1.06,2.2-1.09,3.63-.69,4.65,1.57.59,1.32.76,2.83,1.12,4.26.29,1.18-.07,1.82-1.39,1.68-1.95-.2-3.51.44-4.75,2.03-.46.59-1.19,1.07-1.9,1.36-2.56,1.05-4.71,2.65-6.72,4.51-.61.56-1.41.92-2.13,1.37-.36-.9-.75-1.79-1.06-2.71-.12-.36-.05-.78-.05-1.18,0-2.21,0-4.41,0-7Zm118.14,11.08c.13,2.38.3,4.4.32,6.42.01,1.12.5,1.33,1.51,1.46,1.44.18,2.94.46,4.24,1.08,4.42,2.08,6.81,5.95,8.18,10.39,2.89,9.34,3.01,18.87,1.13,28.4-.8,4.07-2.36,7.95-5.2,11.15-2.57,2.9-5.94,4.09-9.82,4.48v7.45c4.21-.61,8.2-1.2,12.19-1.78,2.32-.34,3.95-1.76,5.27-3.53.85-1.14,1.55-2.4,2.18-3.68,2.71-5.55,3.5-11.58,4.19-17.62.89-7.71.41-15.38-.72-23.02-.79-5.37-2.27-10.5-5.24-15.12-1.74-2.71-4.18-4.2-7.44-4.45-2.01-.15-4-.52-6-.82-1.54-.23-3.08-.51-4.81-.8Zm-130.48,14.56c-4.08.27-7.86.56-11.64.76-12.32.66-24.58.26-36.74-1.98-1.26-.23-1.7-.01-1.6,1.35.35,4.63.63,9.26.91,13.89.06,1.01.47,1.2,1.43,1.05,12.17-1.89,24.42-1.67,36.67-1.45,3.83.07,7.67.37,11.82.59-.29-4.74-.57-9.39-.86-14.2Zm130.88-4.82c0,.63,0,1.16,0,1.7,0,13.63,0,27.26,0,40.89,0,2.62.01,5.23-.03,7.85-.02.94.28,1.38,1.27,1.3,2.37-.2,4.55-.83,6.35-2.48,2.79-2.57,4.3-5.83,5.2-9.44,1.57-6.25,1.85-12.59,1.44-18.97-.34-5.25-1.18-10.39-3.76-15.09-2.28-4.14-6.2-6.32-10.46-5.76Zm-37.72-38.34c0-.05,0-.11,0-.16-9.78,0-19.55-.01-29.33.03-.48,0-.96.46-1.44.7.46.3.9.67,1.4.88.34.14.78.06,1.17.06,6.57-.02,13.14-.08,19.7-.06,3.6.01,7.19.17,10.79.28,1.07.04,1.55.71,1.66,1.73.21,2.1.22,2.1,2.29,1.98.25-.01.49-.01.74-.01,6.77-.01,13.53-.03,20.3-.03,3.2,0,3.2.02,3.11-3.22q-.06-2.18-2.25-2.18c-9.38,0-18.77,0-28.15,0Zm-111.23,42.4c1.09,0,2.18.05,3.26,0,4.48-.26,8.97-.53,13.44-.89.42-.03,1.16-.85,1.08-1.13-.14-.52-.7-1.04-1.21-1.32-.38-.2-.97-.04-1.46,0-12.23.98-24.46,1.01-36.68-.22-4.52-.46-9.01-1.06-13.33-2.58-.47-.16-1.11.19-1.67.3.26.58.37,1.47.81,1.67,1.55.73,3.16,1.42,4.83,1.77,10.2,2.16,20.55,2.46,30.93,2.4Zm71.73-98.33c-1.9.05-2.16.41-1.79,1.84.14.53.27,1.05.39,1.58,1.54,6.98,3.06,13.97,4.63,20.95,1.16,5.15,2.4,10.28,3.55,15.43,1,4.48,1.92,8.97,2.86,13.46.29,1.37,1.38,1.01,2.24,1.01.13,0,.47-.97.37-1.42-1.91-8.67-3.87-17.32-5.81-25.98-1.04-4.62-2.08-9.23-3.09-13.85-.88-3.99-1.72-8-2.63-11.99-.1-.45-.55-.82-.7-1.03Zm42.91,66.93c0-.15,0-.3,0-.45-1.85-.14-3.72-.21-5.56-.42-1.86-.22-2.18-.62-2-2.49.09-.93-.21-1.3-1.1-1.29-.59,0-1.18-.02-1.78-.02-6.9.01-13.81.05-20.71.04-3.42,0-2.97-.59-3.04,3.02-.02,1.27.39,1.67,1.71,1.66,8.23-.07,16.47-.04,24.7-.05,2.59,0,5.19,0,7.78,0Zm-3.47,1.66s0-.07,0-.11c-9.47,0-18.94,0-28.42,0-1.13,0-2.27.07-3.39.2-.32.04-.6.42-.89.64.29.28.54.71.89.81.61.17,1.27.17,1.91.17,8.49-.02,16.98-.09,25.46-.09,11.7.01,23.39.08,35.09.12.39,0,.8-.03,1.15-.18.27-.11.64-.44.63-.66-.01-.25-.36-.64-.62-.69-.82-.15-1.66-.22-2.5-.22-9.77-.01-19.54,0-29.31,0Zm-137.95,47.08c.35.07.49.12.64.13,6.06.3,12.11.84,18.17.85,8.38.02,16.76-.34,25.14-.56.58-.02,1.16-.28,1.74-.43-3.86-1.74-41.19-1.65-45.68.01Zm122.92-55.01v.02c2.82,0,5.63.01,8.45,0,2.57-.01,5.14-.02,7.7-.12.43-.02.85-.46,1.27-.71-.38-.31-.71-.79-1.15-.9-.75-.2-1.56-.23-2.34-.23-4.35-.02-8.69,0-13.04,0-5.43.02-10.86.02-16.29.12-.76.01-1.52.56-2.28.85.8.32,1.6.9,2.41.92,5.09.09,10.18.04,15.26.04Zm-57.89,10.39c-1.04-.08-1.95-.11-2.86-.23-2.15-.28-2.69.03-3.36,2.1-.12.37-.18.77-.18,1.16.02,2.22.04,4.44.11,6.66.01.39.22.78.33,1.14,3.16-2.08,6.15-4.04,9.44-6.2q-3.67-1.08-3.48-4.63Zm88.17-8.02s0-.01,0-.02c-5.13,0-10.26-.02-15.38.02-.78,0-1.86-.18-1.91,1.02,0,.18,1.19.6,1.84.6,9.76.06,19.53.07,29.29.07.83,0,1.68-.08,2.5-.25.27-.06.57-.49.64-.8.03-.15-.41-.51-.7-.59-.36-.11-.78-.05-1.18-.05-5.03,0-10.06,0-15.09,0Zm-87.46,5.3c-.05-.6-.05-.79-.08-.99-.73-5.51-1.48-11.03-2.18-16.54-.11-.91-.4-1.37-1.36-1.26-1.08.12-.85.9-.76,1.56.76,5.66,1.53,11.31,2.36,16.96.06.42.66,1.01,1.05,1.04.35.03.76-.59.97-.77Zm-13.59,28.48c.43.09.85.21,1.28.25,4.51.42,9.01.95,13.52,1.2,11.3.63,22.58.61,33.8-1.2,1.16-.19,2.3-.58,3.44-.87-.03-.12-.06-.25-.09-.37-17.26,3.37-34.59,2.63-51.96.99Zm21.92-23.53c-.76-1.68-1.23-3-1.96-4.14-.23-.36-1.41-.57-1.78-.31-1.31.94-2.53,2.04-3.65,3.21-.61.64-.5,1.58.57,1.59,2.09.02,4.18-.19,6.82-.34Zm-30.29-8.69c-.05.08-.1.15-.16.23,2.23,3.86,4.46,7.73,6.73,11.67.88-.81,1.07-1.66.5-2.65-.77-1.31-1.43-2.71-2.37-3.89-1.47-1.86-3.13-3.57-4.7-5.35Zm-44.32,27.29c-2.38-.76-4.51-1.82-6.17-3.8-.28-.34-2.01-.04-2.47.49-.68.78.17,1.53,1,1.87,2.42.99,4.88,1.86,7.64,1.45Zm144.75,85.19c-2.9-1.21-11.54-.92-15.45.57,5.33-.2,10.31-.38,15.45-.57Zm-114.9-120.31c-.34-.34-.41-.47-.48-.47-2.9-.14-5.79-.27-8.69-.36-.2,0-.42.32-.63.49.27.22.54.62.82.63,2.51.11,5.02.18,7.53.2.43,0,.85-.28,1.45-.49Zm67.75,38.2c.04.16.07.32.11.48,2.86-.63,5.73-1.26,8.59-1.89-.04-.19-.08-.37-.13-.56-2.86.66-5.72,1.31-8.57,1.97Zm11.07-3.07c-.54-.34-.94-.75-1.1-.67-.37.18-.66.57-.87.94-.04.07.52.67.67.63.4-.12.72-.47,1.3-.9Zm-46.67-24.55c-.38.63-.72.95-.72,1.26,0,.24.43.48.66.73.26-.28.63-.53.73-.86.06-.21-.3-.54-.66-1.13Z"/>
    <path class="cls-2" d="m111.55,171.59c.49-1.3.95-2.62,1.54-3.88.05-.1,1.1.05,1.41.35.19.19-.11,1.32-.21,1.32-1.52.05-2.01,1.14-2.37,2.4-.12-.07-.24-.13-.37-.2Z"/>
    <path class="cls-2" d="m113.21,194.44c.49-.53.81-.86,1.12-1.2.43.46.87.92,1.3,1.38-.42.37-.83.75-1.25,1.12-.33-.37-.66-.74-1.17-1.31Z"/>
    <path class="cls-2" d="m127.62,182.05c.38.86.82,1.37.71,1.71-.15.49-.7.85-1.07,1.26-.32-.41-.93-.86-.89-1.23.05-.49.62-.92,1.25-1.74Z"/>
    <path class="cls-2" d="m118.98,143.77c1.03.05,2.07-.09,2.02,1.19-.01.37-.77,1.03-1.12,1-1.31-.14-.89-1.19-.9-2.19Z"/>
    <path class="cls-2" d="m106.42,208.6c-.71.54-1.12,1.11-1.48,1.08-.42-.03-.79-.59-1.19-.92.42-.42.78-.95,1.28-1.2.18-.09.7.5,1.4,1.03Z"/>
    <path class="cls-2" d="m109.47,204.78c-.85.65-1.32,1.1-1.88,1.36-.1.05-.85-.75-.79-1.07.07-.41.61-.92,1.04-1.03.35-.09.83.35,1.64.73Z"/>
    <path class="cls-2" d="m93.6,153.69c-.43.52-.87,1.04-1.3,1.56-.49-.48-.97-.95-1.46-1.43.09-.19.18-.39.27-.58.7-.03,1.4-.07,2.1-.1.13.18.26.37.39.55Z"/>
    <path class="cls-2" d="m123.62,146.42c.52.64,1.09,1.05,1.03,1.32-.11.49-.6.89-.93,1.33-.44-.4-1.02-.73-1.25-1.22-.09-.2.58-.75,1.15-1.43Z"/>
    <path class="cls-2" d="m103.87,138.02c-.64.56-1.03,1.19-1.41,1.18-.44-.02-.85-.6-1.27-.93.44-.37.83-.86,1.34-1.06.23-.09.68.4,1.34.82Z"/>
    <path class="cls-2" d="m117.4,157.49c-.81.58-1.28.91-1.74,1.24-.28-.45-.75-.89-.78-1.36-.02-.27.64-.8,1.02-.83.36-.03.76.46,1.49.96Z"/>
    <path class="cls-2" d="m91.33,182.03c.55.66,1.12,1.06,1.07,1.36-.06.44-.58.82-.9,1.22-.41-.34-1.06-.62-1.16-1.03-.08-.33.5-.82.99-1.55Z"/>
    <path class="cls-2" d="m109.46,182.38c-.75.52-1.28,1.08-1.48.98-.47-.23-.88-.74-1.12-1.23-.07-.14.62-.91.82-.86.52.13.95.57,1.78,1.11Z"/>
    <path class="cls-2" d="m107.02,174.3c.5.44,1.01.87,1.51,1.31-.46.34-.91.68-1.37,1.03-.3-.58-.6-1.17-.9-1.75l.76-.58Z"/>
    <path class="cls-2" d="m112.42,179.38c-.83.52-1.24.94-1.68.99-.28.03-.94-.66-.88-.78.22-.48.58-1,1.03-1.21.22-.1.74.46,1.53,1Z"/>
    <path class="cls-2" d="m124.79,207.24c-.73.51-1.2,1.06-1.48.98-.43-.13-.74-.69-1.1-1.07.38-.3.73-.81,1.13-.85.34-.04.74.45,1.44.94Z"/>
    <path class="cls-2" d="m105.68,134.54c.51.75,1.02,1.16.97,1.49-.05.4-.58.74-.9,1.1-.37-.38-.9-.7-1.04-1.15-.08-.26.46-.72.97-1.44Z"/>
    <path class="cls-2" d="m97.54,179.67c.55.7,1.11,1.1,1.1,1.49-.01.36-.64.69-1,1.04-.33-.41-.78-.77-.94-1.23-.08-.22.4-.63.85-1.29Z"/>
    <path class="cls-2" d="m94.53,179.48c-.24-.38-.68-.77-.66-1.13.02-.35.53-.66.82-.99.35.32.9.59,1,.97.08.31-.39.75-.61,1.14-.18,0-.37,0-.55,0Z"/>
    <path class="cls-2" d="m125.94,102.82c-.85.94-1.61,1.81-2.42,2.63-.1.1-.66-.03-.72-.18-.18-.42-.43-1-.27-1.35.35-.74.88-1.42,1.44-2.02.2-.21.77-.28,1.04-.15.34.16.54.6.93,1.07Z"/>
    <path class="cls-2" d="m126.71,113.79c.22-1.12.35-2.28.71-3.36.11-.35.82-.5,1.25-.74.14.41.42.82.39,1.22-.07.77-.19,1.59-.52,2.27-.22.44-.85.67-1.3,1-.18-.13-.35-.26-.53-.39Z"/>
    <path class="cls-2" d="m114.09,119.42c1.2.53,2.45.58,2.38,1.98-.01.28-.81.82-.98.73-.92-.48-1.75-1.12-2.61-1.7.44-.36.87-.73,1.22-1.01Z"/>
    <path class="cls-2" d="m110.28,126.2c.57-.54.95-.9,1.33-1.26.31.41.88.84.86,1.22-.03.38-.62.82-1.06,1-.17.07-.6-.5-1.12-.97Z"/>
    <path class="cls-2" d="m99.57,119.15c-.71.49-1.15,1.02-1.47.95-.38-.08-.94-.68-.92-1.02.02-.37.59-.93.98-.99.31-.05.73.52,1.4,1.06Z"/>
  </g>
</svg>