<?xml version="1.0" encoding="UTF-8"?>
<svg id="Layer_1" data-name="Layer 1" xmlns="http://www.w3.org/2000/svg" viewBox="0 0 127 127">
  <defs>
    <style>
      .cls-1 {
        fill: #707070;
      }
    </style>
  </defs>
  <path class="cls-1" d="m57.31,25.75h-4.5v-6.34h36.92v6.31h-4.39v7.52h22.19v31.8h-6.22v-11.82h-9.95v11.79h-13.93v-14.61h-12.29v14.6h-7.83V25.75Zm20.63,2.19v3.74h3.92v-3.74h-3.92Zm-17.39,3.79c1.24,0,2.37.02,3.49-.02.18,0,.5-.28.5-.44.05-1.08.02-2.17.02-3.3h-4.01v3.77Zm21.35,10.16c-1.25,0-2.39-.02-3.54.02-.17,0-.47.24-.47.37-.04,1.11-.02,2.22-.02,3.33h4.03v-3.72Zm.04-3.23c0-1.14.02-2.16-.02-3.19,0-.2-.25-.55-.39-.55-1.2-.04-2.4-.03-3.63-.03v3.77h4.04Zm-21.4-.01h4.02c0-1.14.02-2.23-.02-3.32,0-.15-.28-.42-.43-.42-1.17-.04-2.35-.02-3.57-.02v3.76Zm.03,3.28v3.7h3.93v-3.7h-3.93Zm12.62-13.95h-3.95v3.67h3.95v-3.67Zm0,6.98h-3.96v3.67h3.96v-3.67Zm-.03,10.68v-3.69h-3.92v3.69h3.92Zm24.87-4.87h-3.2v2.94h3.2v-2.94Zm6.99-2.69v-2.99h-3.16v2.99h3.16Zm-7-2.99h-3.17v2.98h3.17v-2.98Zm-.03,14.26v-2.96h-3.15v2.96h3.15Zm3.85-8.61v3h3.17v-3h-3.17Zm3.21,5.65h-3.26c0,.89-.02,1.73.02,2.57,0,.15.28.41.43.41.92.04,1.85.02,2.81.02v-3Zm-14.06,2.95v-2.96h-3.17v2.96h3.17Zm-3.16-5.61h3.14v-2.97h-3.14v2.97Zm3.15-8.65h-3.12v3h3.12v-3Z"/>
  <path class="cls-1" d="m88.49,82.78c1.03,2.32,3.78,21.85,3.48,24.75h-26.32c.08-.89.15-1.78.25-2.84,1.17,0,2.45.08,3.71-.02,2.52-.19,4.31-2.13,4.45-4.72.12-2.23-1.57-4.33-3.93-4.8-.65-.13-1.33-.18-2-.18-6.09-.01-12.19-.02-18.28,0-.66,0-1.04-.2-1.4-.74-.83-1.24-1.75-2.42-2.58-3.65-.84-1.24-2-1.81-3.48-1.81-2.34,0-4.69,0-7.01,0v-18.86c-1.55.24-2.94.79-4.24,1.59-1.28.78-1.28.79-2.32-.21-1.53-1.46-3.29-1.9-5.3-1.2-.8.28-1.58.63-2.38.93-1.02.39-1.7-.04-1.64-1.17.05-.93.24-1.87.49-2.78,1.36-4.94,3.78-9.17,8.29-11.89,1.09-.66,2.25-1.23,3.45-1.66,1.16-.42,2.41-.61,3.69-.92.01-.19.05-.46.04-.73-.01-.74.39-1.04,1.08-1.04.68,0,1.16.3,1.1,1.03-.07.82.32.96,1.03,1.1,5.18.97,9.07,3.82,11.81,8.28,1.68,2.74,2.73,5.69,3.1,8.89.03.27.04.55,0,.82-.18,1.46-.75,1.72-1.97.91-2.31-1.52-5.17-1.96-7.45.24-.56.54-1.1.53-1.68,0-1.09-1.01-2.32-1.77-3.8-2.08-.29-.06-.59-.11-.96-.17v17.28c12.16-6.07,25.02-9.34,38.66-10.89-.49.58-.86.96-1.15,1.39-.47.7-.99,1.4-1.31,2.17-.39.93-.2,1.86.51,2.63.71.77,1.61.83,2.53.5.87-.31,1.71-.72,2.63-1.12-.44,1.1-.96,2.07-1.21,3.11-.3,1.26-.48,2.57-.49,3.85,0,1.18.52,2.24,1.81,2.55,1.29.31,2.07-.48,2.81-1.43,1.72-2.2,3.52-4.35,5.29-6.51.19-.23.44-.41.67-.63Z"/>
  <path class="cls-1" d="m62.22,102.83c.51.7.93,1.25,1.31,1.82.72,1.1.44,2.26-.65,2.77-.78.37-1.55.14-2.23-.71-.78-.98-1.54-1.96-2.28-2.97-.48-.64-1.08-.92-1.87-.92-4.14.02-8.29.02-12.43,0-.77,0-1.33.27-1.79.89-.74,1.01-1.51,1.99-2.29,2.96-.52.65-1.15,1.12-2.05.82-1.2-.39-1.6-1.59-.89-2.73.38-.61.83-1.18,1.36-1.94-1.52,0-2.87-.04-4.22.01-.87.03-1.49-.28-2.04-.96-3.9-4.84-7.82-9.65-11.73-14.48-1.09-1.34-1.23-2.64-.47-3.78,1.18-1.76,3.38-1.84,4.89-.1,1.26,1.45,2.44,2.96,3.65,4.45.48.59.98,1.17,1.44,1.77.54.71,1.23,1.01,2.13,1.01,3.41-.02,6.83.01,10.24-.02.92,0,1.55.31,2.06,1.07.9,1.34,1.91,2.6,2.79,3.95.55.84,1.23,1.16,2.2,1.16,6.16-.02,12.31-.01,18.47,0,.55,0,1.1.01,1.64.09,1.65.22,2.74,1.45,2.66,2.95-.09,1.6-1.33,2.84-2.97,2.88-1.89.04-3.78.01-5.67.01-.35,0-.71,0-1.25,0Zm-28.46-8.51c1.05,1.56,1.91,2.97,4,2.61.83-.14,1.7-.02,2.55-.02,1.02,0,2.04,0,3.3,0-.47-.65-.84-1.09-1.12-1.58-.45-.77-1.06-1.06-1.96-1.02-1.37.06-2.74.01-4.11.01-.84,0-1.68,0-2.67,0Z"/>
  <path class="cls-1" d="m93.18,79.73c2.37,9.27,4.01,18.44,5.06,27.78h-4.21c-.77-9.29-1.89-18.56-4.2-27.9-.85.53-1.66.89-2.3,1.44-2.6,2.24-4.7,4.93-6.62,7.76-.12.18-.23.36-.36.53-.05.07-.15.1-.41.26-.13-.46-.33-.85-.35-1.24-.09-2.66,1.03-4.93,2.54-6.98.9-1.23,2.07-2.26,3.12-3.39-3.28.64-6.44,1.83-9.52,3.3-.41-.84-.04-1.36.36-1.86,2.31-2.87,5.32-4.88,10.28-5.12-1.16-.67-2.09-1.24-3.05-1.75-.75-.4-1.55-.7-2.31-1.08-.27-.14-.48-.39-.72-.59.26-.26.48-.64.79-.76,1.42-.51,2.88-.41,4.32-.06,2.2.54,4.04,1.65,5.42,3.57.14-.15.26-.26.36-.4,2.63-3.58,7.86-5.12,12.02-3.48.46.18.81.62,1.21.94-.44.2-.87.51-1.33.6-2.34.42-5.77,1.6-7.2,2.53,1.67.41,3.42.71,5.09,1.27,2.39.8,4.37,2.24,5.81,4.37.1.15.25.29.29.46.09.39.12.79.18,1.19-.36-.08-.77-.08-1.07-.26-2.82-1.57-5.89-2.44-9-3.17-.17-.04-.36-.04-.78-.09.41.31.65.5.89.68,2.41,1.8,4.28,3.97,4.87,7.02.11.56.11,1.15.08,1.72-.01.23-.24.45-.37.68-.22-.14-.5-.22-.64-.41-1.98-2.76-4.5-4.94-7.22-6.92-.26-.19-.55-.33-1.04-.62Z"/>
  <path class="cls-1" d="m103.03,81.38c1.51.69,2.87,1.32,4.33,1.99v24.16h-6.96c-1.26-7.58-2.52-15.14-3.8-22.86.96,1.05,1.89,2.06,2.81,3.09.28.32.48.7.76,1.03,1.15,1.39,3.13,1.16,3.9-.48.72-1.55.33-3.11-.1-4.63-.21-.73-.56-1.41-.92-2.3Z"/>
  <path class="cls-1" d="m25.29,96.42c1.57,1.95,3.13,3.81,4.59,5.75,1.23,1.64,2.57,2.96,4.83,2.55.09.99.18,1.88.26,2.81h-15.2c.08-3.23,2.52-8.19,5.51-11.11Z"/>
  <path class="cls-1" d="m58.87,107.56h-17.1c.71-.93,1.33-1.77,2-2.57.14-.16.49-.21.74-.21,3.87-.01,7.73-.02,11.6.01.33,0,.75.22.97.47.6.67,1.12,1.42,1.79,2.29Z"/>
</svg>