<?xml version="1.0" encoding="UTF-8"?>
<svg id="Layer_2" data-name="Layer 2" xmlns="http://www.w3.org/2000/svg" viewBox="0 0 78.81 73.26">
  <defs>
    <style>
      .cls-1 {
        fill: #637481;
      }
    </style>
  </defs>
  <g id="Layer_1-2" data-name="Layer 1">
    <g>
      <path class="cls-1" d="m.04,0c1.63,0,3.04,0,4.45,0C28.7,0,52.91,0,77.11,0c1.65,0,1.66,0,1.66,1.6,0,1.54-.05,3.08,0,4.62.03,1.06-.43,1.58-1.42,1.87-8.21,2.44-16.59,3.06-25.09,2.29-3.99-.36-7.87-1.25-11.58-2.84-.68-.29-1.68-.32-2.36-.05-4.97,2.01-10.15,3.05-15.46,3.07-4.57.02-9.16-.28-13.7-.77-2.75-.3-5.43-1.2-8.12-1.94-.41-.11-.93-.77-.95-1.2C0,4.5.04,2.34.04,0Z"/>
      <path class="cls-1" d="m.04,10.06c1.8.52,3.36,1.16,4.99,1.42,4.31.69,8.63,1.26,12.97,1.78,1.8.22,1.86.11,1.75,1.96-.4,6.5-1.37,12.91-3.23,19.16-.96,3.23-1.9,6.47-3.05,9.62-.85,2.33-2.02,4.56-3.11,6.8-.13.28-.64.51-.98.52-2.79.06-5.58.04-8.37.09-.8.01-.95-.34-.95-1.07.01-12.62,0-25.25,0-37.87,0-.74,0-1.49,0-2.41Z"/>
      <path class="cls-1" d="m78.8,10.12c0,2.93,0,5.59,0,8.25-.03,10.67-.06,21.33-.06,32,0,.8-.25,1.02-.99,1.01-2.46-.02-4.92-.03-7.37,0-1.14.02-1.89-.21-2.34-1.48-1.79-5-4.05-9.86-5.49-14.96-1.87-6.6-2.96-13.4-3.54-20.26-.09-1.04.13-1.34,1.21-1.44,4.09-.4,8.19-.85,12.26-1.44,1.67-.24,3.28-.9,4.93-1.36.39-.11.78-.18,1.41-.32Z"/>
      <path class="cls-1" d="m13.63,73.24c-4.43,0-8.62,0-12.82,0-.89,0-.82-.65-.82-1.23,0-2.62,0-5.25,0-7.87,0-3.4,0-6.81,0-10.4,2.27,0,4.34,0,6.4,0,3.51,0,3.45,0,4.1,3.44.79,4.16,1.7,8.31,2.54,12.46.23,1.13.37,2.29.59,3.6Z"/>
      <path class="cls-1" d="m65.32,73.25c1.16-6.07,2.27-11.91,3.4-17.73.34-1.77.37-1.77,2.26-1.78,2.12,0,4.25.03,6.37-.01.94-.02,1.37.27,1.37,1.26-.01,5.74,0,11.49.02,17.23,0,.62-.17,1.04-.91,1.03-4.11-.01-8.21,0-12.5,0Z"/>
    </g>
  </g>
</svg>