<?xml version="1.0" encoding="UTF-8"?>
<svg id="Layer_1" data-name="Layer 1" xmlns="http://www.w3.org/2000/svg" viewBox="0 0 127 127">
  <defs>
    <style>
      .cls-1 {
        fill: #637481;
      }
    </style>
  </defs>
  <path class="cls-1" d="m64.32,27.5c14.43,0,28.85-.01,43.28,0,6.62,0,11.71,4,13.13,10.28.26,1.14.34,2.35.34,3.53.02,18.13.02,36.27.01,54.4,0,8.1-5.63,13.72-13.71,13.72-28.7,0-57.4,0-86.1,0-6.79,0-12.02-4.06-13.39-10.42-.23-1.07-.31-2.2-.31-3.3-.02-18.17-.02-36.34-.01-54.52,0-7.12,4.36-12.4,11.2-13.56.86-.15,1.75-.14,2.63-.14,14.31,0,28.62,0,42.93,0Zm.06,3.44c-14.39,0-28.78,0-43.16,0-6.02,0-10.17,3.99-10.18,10.01-.04,18.32-.04,36.65,0,54.97.01,6.09,4.13,10.08,10.24,10.09,28.7,0,57.4,0,86.1,0,6.1,0,10.22-3.98,10.24-10.08.05-18.32.05-36.65,0-54.97-.01-6.03-4.15-10.01-10.18-10.01-14.35,0-28.7,0-43.05,0Z"/>
  <path class="cls-1" d="m64.29,101c-13.81,0-27.63-.08-41.44.05-4.36.04-7.12-3.03-7.1-7.15.1-17.02.04-34.05.04-51.07,0-4.36,2.56-6.95,6.89-6.95,27.7,0,55.41,0,83.11,0,4.53,0,7.05,2.51,7.05,7.02,0,17.06-.04,34.12.03,51.19.02,3.98-2.8,6.99-6.93,6.96-13.89-.11-27.78-.04-41.67-.04Zm.03-3.43c13.81,0,27.62,0,41.44,0,2.68,0,3.65-.97,3.65-3.66,0-16.98,0-33.97,0-50.95,0-2.62-.98-3.6-3.6-3.6-27.62,0-55.25,0-82.87,0-2.8,0-3.7.91-3.7,3.72,0,16.95,0,33.89,0,50.84,0,2.69.96,3.66,3.65,3.66,13.81,0,27.62,0,41.44,0Z"/>
  <path class="cls-1" d="m46.76,64.34c-.38.64-.57,1.16-.92,1.51-6.8,6.83-13.61,13.64-20.43,20.44-.87.86-1.92.9-2.63.17-.74-.76-.68-1.72.23-2.63,6.78-6.79,13.57-13.57,20.35-20.36.62-.62,1.35-1.01,2.15-.53.5.29.81.89,1.26,1.4Z"/>
  <path class="cls-1" d="m85.29,62.53c.6.37,1.12.57,1.48.92,6.8,6.77,13.58,13.55,20.36,20.33.92.92.98,1.99.22,2.72-.74.71-1.74.63-2.63-.26-6.79-6.78-13.56-13.57-20.35-20.34-.65-.64-.94-1.39-.51-2.16.28-.5.91-.8,1.44-1.22Z"/>
  <path class="cls-1" d="m35.54,83.97c1.26,0,2.53-.02,3.79,0,1.09.02,1.82.69,1.86,1.63.04.98-.72,1.76-1.84,1.78-1.95.03-3.9.05-5.85,0-.83-.02-1.43.2-2.01.81-1.83,1.9-3.72,3.75-5.59,5.61-.94.93-1.98,1.05-2.73.33-.78-.75-.67-1.81.32-2.8,2.16-2.17,4.29-4.37,6.52-6.46.52-.49,1.37-.77,2.1-.87,1.13-.14,2.29-.04,3.44-.04h0Z"/>
  <path class="cls-1" d="m94.16,83.97c3.5-.9,5.92.71,8.03,3.29,1.11,1.35,2.47,2.51,3.71,3.75,1.34,1.34,1.52,2.26.64,3.12-.82.79-1.82.58-3.05-.64-1.79-1.79-3.54-3.61-5.38-5.33-.44-.41-1.17-.69-1.78-.72-1.91-.09-3.83-.02-5.74-.04-1.33-.01-2.07-.68-2.04-1.79.03-1.05.74-1.63,2.05-1.64,1.19-.01,2.37,0,3.56,0Z"/>
  <path class="cls-1" d="m83.26,73.21c3.47-.92,5.87.71,7.94,3.24.7.85,1.58,1.55,2.35,2.35.82.86.85,1.82.13,2.54-.72.73-1.68.71-2.54-.11-1.2-1.13-2.4-2.25-3.51-3.46-.78-.85-1.62-1.24-2.8-1.17-1.75.1-3.52.04-5.28.02-1.24-.01-2.01-.7-2-1.72.01-1.01.8-1.68,2.03-1.7,1.22-.02,2.45,0,3.67,0Z"/>
  <path class="cls-1" d="m46.52,73.21c1.22,0,2.45-.02,3.67,0,1.18.02,1.9.67,1.92,1.67.02,1.06-.71,1.73-1.96,1.75-1.99.02-3.98-.04-5.96.04-.54.02-1.18.29-1.59.65-1.34,1.2-2.58,2.5-3.87,3.75-.99.96-1.94,1.06-2.71.29-.78-.77-.66-1.8.34-2.79,1.5-1.48,3.03-2.92,4.49-4.43.66-.68,1.38-1,2.34-.95,1.11.06,2.22.01,3.33.01Z"/>
  <path class="cls-1" d="m74.65,62.8c1.84-.51,3.36.49,4.74,2.07,1.05,1.21,2.28,2.26,3.41,3.39.87.87.96,1.91.28,2.63-.71.75-1.79.68-2.72-.22-1.29-1.24-2.54-2.54-3.88-3.74-.4-.36-1.03-.59-1.58-.65-.94-.11-1.91,0-2.86-.04-1.19-.05-1.88-.69-1.89-1.72-.01-1.05.63-1.67,1.85-1.72.76-.03,1.53,0,2.64,0Z"/>
  <path class="cls-1" d="m55.52,62.81c.76,0,1.53-.02,2.29,0,1.03.03,1.64.59,1.75,1.61.1.93-.64,1.74-1.69,1.8-1.07.07-2.14-.03-3.21.06-.48.04-1.04.25-1.39.57-1.35,1.24-2.63,2.56-3.95,3.83-.93.9-2.01.96-2.72.19-.72-.78-.64-1.71.29-2.62,1.57-1.56,3.13-3.15,4.77-4.63.49-.44,1.24-.66,1.91-.8.62-.13,1.29-.03,1.94-.03,0,0,0,0,0,.01Z"/>
</svg>