<?xml version="1.0" encoding="UTF-8"?>
<svg id="Layer_1" data-name="Layer 1" xmlns="http://www.w3.org/2000/svg" viewBox="0 0 127 127">
  <defs>
    <style>
      .cls-1 {
        fill: #637481;
      }
    </style>
  </defs>
  <path class="cls-1" d="m44.9,94.17c0,1.02,0,1.81,0,2.59,0,1.74-.91,2.61-2.61,2.69-.79.04-1.58.04-2.36.02-2.74-.06-3.32-.59-3.29-3.39.03-2.85-.47-5.44-1.51-8.19-2.4-6.34-1.82-12.83.54-19.16.19-.51.45-1,.67-1.51.03-.07,0-.16,0-.24-3.4-1.45-3.85-2.08-3.75-5.01.06-1.92,1.03-3.26,2.88-2.88,4.8.99,6.99-1.64,8.56-5.5.44-1.09,1.14-2.07,1.68-3.11,1.8-3.47,4.74-5.16,8.56-5.37,1.96-.11,3.94-.02,5.91-.04,1.27-.01,2.73.41,3.15-1.53.02-.11,2.11,0,2.13.14.22,1.7,1.44,1.38,2.49,1.39,5.12.01,10.24.01,15.36,0,4.59,0,8.04,1.83,10.08,6.07.65,1.34,1.6,2.56,2.12,3.95,1.23,3.27,3.42,4.53,6.87,3.98,1.75-.28,3.35.08,3.72,2.27.46,2.69-.36,4.34-2.59,5.14-.36.13-.76.17-1.26.28,2.47,5.58,3.19,11.34,2.27,17.3-.12.78-.17,1.6-.49,2.3-1.51,3.3-1.93,6.74-1.7,10.32.12,1.83-.85,2.78-2.71,2.78-.63,0-1.26.01-1.89,0-3.06-.04-3.6-.56-3.65-3.56,0-.54,0-1.07,0-1.75h-49.2Zm43.25-33.46c-.58-2.82-2.02-5.23-4.84-5.52-2.44-.25-5.01.63-7.75,1.04-1.12-2.01-2.84-2.96-5.17-2.48-2.43.5-3.27,1.94-3.54,6.11-.84-.27-1.63-.63-2.47-.78-2.67-.49-5.13,1.47-5.45,4.29-.35,3.14,1.67,5.53,4.93,5.58,5.59.08,11.18.02,16.77.02,2.99,0,5.98.04,8.97-.02,2.74-.05,4.43-1.67,4.48-4.15.05-2.4-1.69-3.98-4.5-4.08-.39-.01-.78,0-1.44,0Zm3.2-1.65c.19-.21.38-.42.57-.63-.74-1.81-1.54-3.6-2.22-5.43-.98-2.66-3.11-3.82-5.67-3.85-9.76-.11-19.53-.11-29.3,0-2.75.03-4.95,1.26-5.99,4.11-1.43,3.91-3.01,7.77-4.5,11.66-.21.54-.28,1.12-.42,1.7h13.28c-1.07-5.63,1.24-8.73,6.75-9.53.61-.09,1.3-.9,1.62-1.54,2.11-4.23,6.21-5.26,10.02-2.6.67.47,1.85.63,2.65.41,4.61-1.26,8.17.02,10.89,3.95.52.75,1.53,1.18,2.31,1.75Zm-.71,25.51c3.04-.01,6.29-3.1,6.24-5.93-.04-2.07-1.7-3.57-3.89-3.51-2.93.07-5.93,3.07-5.94,5.95,0,2.06,1.48,3.5,3.59,3.49Zm-38.99-3.52c-.02-2.97-3.11-5.92-6.2-5.92-2.17,0-3.52,1.35-3.51,3.52.02,2.97,3.1,5.92,6.2,5.92,2.17,0,3.52-1.35,3.51-3.52Zm17.62,4.23c3.22,0,6.44.08,9.66-.06.7-.03,1.38-.8,2.06-1.23-.7-.43-1.39-1.23-2.1-1.24-6.36-.1-12.73-.1-19.09,0-.7.01-1.39.83-2.08,1.27.71.42,1.4,1.17,2.12,1.2,3.14.13,6.28.06,9.42.06Z"/>
  <path class="cls-1" d="m24.68,45.23c-1.39-.09-2.55-.16-3.92-.25v-5.58c.18-.06.41-.23.6-.2,2.97.53,4.7-.56,5.17-3.65.08-.56.81-1.41,1.3-1.46,3.29-.29,6.6-.4,10.06-.57v5.01c-1.37-.27-2.64-.68-3.93-.74-1.25-.06-2.51.22-3.77.36,0,.25,0,.49,0,.74.39.37.95.66,1.12,1.11.38,1.04,1.03,2.32.71,3.19-.31.83-1.72,1.79-2.62,1.76-2.17-.08-2.76.94-3.51,2.76-4.37,10.72-3.05,20.87,2.13,30.96,1.43,2.78,2.27,6.06,2.56,9.18.37,4.02-3.12,7.42-6.95,7.43-.55,0-1.1-.54-1.64-.82.47-.37.88-.95,1.41-1.07,4.46-1.06,6.16-3.64,5.03-8.17-.53-2.12-1.49-4.13-2.25-6.19-1.47-3.98-3.24-7.87-4.35-11.95-1.63-5.99-.31-11.87,1.56-17.63.43-1.32.81-2.67,1.28-4.22Z"/>
  <path class="cls-1" d="m41.68,31.13c.58.85,1.31,1.48,1.2,1.85-.18.56-.94.94-1.46,1.4-.4-.5-1.1-.99-1.11-1.49,0-.48.71-.97,1.37-1.76Z"/>
  <path class="cls-1" d="m89.86,35.37c-.83.64-1.33,1.33-1.81,1.31-.51-.02-.99-.72-1.48-1.12.47-.52.86-1.29,1.43-1.46.36-.11,1,.65,1.87,1.27Z"/>
  <path class="cls-1" d="m59.81,33.87c.67.92,1.36,1.45,1.33,1.93-.03.5-.75.97-1.17,1.45-.45-.44-1.2-.83-1.27-1.33-.07-.49.54-1.07,1.11-2.05Z"/>
  <path class="cls-1" d="m43.56,37.94c-.96.58-1.54,1.21-2.01,1.13-.5-.08-.89-.83-1.33-1.28.47-.41.93-1.13,1.41-1.15.49-.02,1.02.65,1.93,1.3Z"/>
  <path class="cls-1" d="m73.36,38.43c-.96.57-1.54,1.19-2.01,1.12-.5-.08-.89-.83-1.32-1.29.47-.41.94-1.12,1.42-1.14.49-.02,1.01.66,1.91,1.32Z"/>
  <path class="cls-1" d="m84.33,43.17c-.98.58-1.56,1.19-2.02,1.11-.48-.08-.84-.83-1.25-1.29.46-.41.9-1.11,1.39-1.15.45-.03.96.64,1.87,1.32Z"/>
  <path class="cls-1" d="m55.94,35.48c-.93.64-1.47,1.29-1.91,1.23-.48-.06-.88-.78-1.32-1.21.44-.44.84-1.16,1.34-1.24.43-.07.97.59,1.9,1.22Z"/>
  <path class="cls-1" d="m49.26,39.35c-.86.7-1.36,1.41-1.84,1.4-.48,0-1.25-.7-1.31-1.16-.05-.41.66-1.23,1.12-1.3.48-.07,1.07.53,2.02,1.07Z"/>
  <path class="cls-1" d="m53.01,42.79c-.6-.84-1.26-1.37-1.23-1.84.03-.47.78-1.25,1.19-1.24.48.02,1.25.72,1.29,1.19.05.47-.63,1.02-1.25,1.89Z"/>
  <path class="cls-1" d="m47.42,29.06c.61,1.07,1.23,1.67,1.15,2.15-.09.49-.87.85-1.35,1.27-.35-.45-.98-.91-.97-1.36,0-.53.56-1.05,1.18-2.07Z"/>
  <path class="cls-1" d="m76.62,32.72c-.64-.82-1.36-1.35-1.32-1.8.05-.48.81-1.24,1.27-1.24.46,0,1.25.73,1.31,1.21.06.45-.65,1-1.26,1.84Z"/>
  <path class="cls-1" d="m82.2,30.91c.67.83,1.4,1.35,1.36,1.79-.04.5-.79,1.28-1.25,1.29-.46.01-1.25-.71-1.34-1.21-.07-.44.62-1.01,1.22-1.88Z"/>
  <path class="cls-1" d="m67.6,36.77c-.81.64-1.34,1.37-1.8,1.33-.51-.05-1.3-.77-1.33-1.25-.03-.43.74-1.26,1.22-1.32.48-.06,1.04.64,1.91,1.24Z"/>
  <path class="cls-1" d="m92.61,41.08c-.6-.81-1.29-1.35-1.23-1.78.07-.47.85-1.17,1.29-1.15.48.02,1.25.72,1.3,1.19.05.43-.7.94-1.36,1.74Z"/>
  <path class="cls-1" d="m53,28.06c.7.84,1.42,1.32,1.4,1.78-.02.48-.7,1.26-1.16,1.32-.41.05-1.21-.66-1.3-1.14-.09-.45.52-1.04,1.06-1.96Z"/>
  <path class="cls-1" d="m58.53,27.51c.7.84,1.42,1.32,1.4,1.78-.02.48-.7,1.26-1.16,1.32-.41.05-1.21-.66-1.3-1.14-.09-.45.52-1.04,1.06-1.96Z"/>
  <path class="cls-1" d="m64.29,27.51c.7.84,1.42,1.32,1.4,1.78-.02.48-.7,1.26-1.16,1.32-.41.05-1.21-.66-1.3-1.14-.09-.45.52-1.04,1.06-1.96Z"/>
  <path class="cls-1" d="m70.33,28.12c.7.84,1.42,1.32,1.4,1.78-.02.48-.7,1.26-1.16,1.32-.41.05-1.21-.66-1.3-1.14-.09-.45.52-1.04,1.06-1.96Z"/>
  <path class="cls-1" d="m76.9,42.22c-.58-.9-1.23-1.46-1.15-1.9.08-.48.81-1.17,1.28-1.19.4-.01,1.13.78,1.16,1.24.03.47-.64.98-1.28,1.84Z"/>
  <path class="cls-1" d="m58.79,44.19c-.62-.87-1.28-1.39-1.26-1.88.01-.44.77-1.17,1.21-1.18.43-.01,1.2.71,1.23,1.15.03.49-.6,1.03-1.18,1.92Z"/>
</svg>