<?xml version="1.0" encoding="UTF-8"?>
<svg id="Layer_1" data-name="Layer 1" xmlns="http://www.w3.org/2000/svg" viewBox="0 0 127 127">
  <defs>
    <style>
      .cls-1 {
        fill: #707070;
      }
    </style>
  </defs>
  <path class="cls-1" d="m117.56,49.71c-.06.41-.1.83-.19,1.24-.64,3.07-2.28,5.33-5.33,6.36-.68.23-1.44.31-2.17.32-7.73.02-15.47.02-23.2.02-3.56,0-7.12,0-10.67,0-3.15,0-5.34-1.55-6.78-4.26-.68-1.27-.96-2.64-.96-4.08,0-6.68,0-13.36,0-20.04,0-3.5,2.15-6.7,5.23-7.75.81-.27,1.7-.39,2.56-.39,5.56-.03,11.11-.02,16.67-.01.29,0,.46-.08.62-.33.85-1.36,1.73-2.71,2.6-4.06,1.06-1.64,2.53-2.51,4.51-2.48,1.2.02,2.4.02,3.6,0,1.98-.03,3.46.84,4.51,2.48.92,1.43,1.83,2.86,2.75,4.28.09.14.25.27.4.32,3.06.92,4.79,3.05,5.56,6.06.13.51.19,1.03.28,1.54v20.81Zm-15.56-9.8c0-3.76-.96-6.52-2.75-8.74-3.83-4.76-10.35-5.21-14.79-1.03-4.93,4.64-4.91,13.32.04,17.94,3.9,3.64,9.34,3.82,13.37.35,2.85-2.45,4.07-5.67,4.13-8.52Zm.11-13.82c3.53,3.84,5.21,8.28,5.12,13.37-.09,5.1-1.94,9.49-5.65,13.19.34,0,.56,0,.78,0,2.42,0,4.84-.08,7.25.02,2.22.09,3.44-1.77,3.43-3.41-.02-5.83,0-11.65,0-17.48,0-1,.04-2.02-.08-3.01-.17-1.48-1.55-2.75-3.02-2.68-.79.04-1.59,0-2.39,0-1.77,0-3.54,0-5.44,0Zm-20.9,26.55c-3.73-3.7-5.57-8.09-5.66-13.2-.09-5.09,1.59-9.54,5.11-13.34-1.78,0-3.46-.02-5.14.01-.36,0-.75.14-1.06.32-1.21.69-1.7,1.79-1.7,3.16,0,4.52,0,9.04,0,13.56,0,2.07.01,4.14,0,6.21-.01,1.62,1.32,3.4,3.27,3.28.93-.06,1.86,0,2.79,0,.76,0,1.52,0,2.39,0Zm25.57-31.58c-.52-.79-.97-1.56-1.51-2.24-.19-.24-.62-.39-.95-.4-1.38-.04-2.76-.04-4.14,0-.3,0-.71.13-.88.35-.56.71-1.03,1.49-1.57,2.3h9.05Z"/>
  <path class="cls-1" d="m54.48,112.78c-.76-.11-1.52-.17-2.26-.33-2.39-.51-4.23-1.73-5.18-4.07-.02-.04-.05-.07-.06-.08-1.05.54-2.06,1.13-3.13,1.6-8.12,3.62-17.85,1.54-23.78-5.08-4.33-4.83-6.14-10.51-5.49-16.95.91-9.02,7.65-16.55,16.47-18.49,8.89-1.96,18.23,2.18,22.65,10.15,3.74,6.76,3.88,13.69.46,20.62-.68,1.39-1.65,2.65-2.57,3.9-.9,1.21-.47,3.11.94,3.64,1.08.41,2.21.39,3.34.34.21,0,.41-.02.66-.03.14,1.56.27,3.08.41,4.63-.49.06-.93.1-1.37.15h-1.08Zm-25.32-22.06c0-1.81-.35-2.98-1.07-4.09-1.74-2.68-5.2-3.13-7.41-.96-2.46,2.43-2.5,6.7-.07,9.16,1.71,1.73,4.2,1.96,6.15.51,1.68-1.25,2.35-3.02,2.4-4.62Zm12.69-1.02c-.02,1.84.32,3.05,1.01,4.16,1.86,2.98,5.61,3.25,7.88.59,2.12-2.49,1.89-6.61-.48-8.85-1.69-1.59-4.11-1.78-5.98-.4-1.68,1.24-2.37,2.99-2.43,4.5Zm-6.15,7.02c-1.45,0-2.62.33-3.68,1.01-2.87,1.82-3.26,5.5-.84,7.83,2.43,2.34,6.66,2.2,8.93-.3,1.73-1.91,1.75-4.63.02-6.54-1.23-1.36-2.8-1.96-4.43-1.99Zm-.3-12.86c1.42-.02,2.63-.37,3.72-1.11,2.84-1.93,3.08-5.69.51-7.91-2.49-2.15-6.45-1.96-8.7.43-1.74,1.84-1.8,4.62-.13,6.51,1.25,1.42,2.86,2.03,4.6,2.08Zm.09,9.3c1.56,0,2.84-1.27,2.85-2.83,0-1.63-1.25-2.93-2.84-2.94-1.58,0-2.85,1.3-2.84,2.93,0,1.56,1.27,2.84,2.83,2.84Z"/>
  <path class="cls-1" d="m9.44,45.47c.04-5.48.74-10.87,2.52-16.07,1.03-3,2.23-5.93,4.24-8.45,1.24-1.54,2.72-2.76,4.66-3.31,2.23-.63,4.37-.25,6.37.79,1.11.58,2.14,1.32,3.14,2.08.92.7,1.88,1.15,3.06,1.12.63-.02,1.26-.02,1.89,0,1.15.03,2.15-.36,3.01-1.11,1.52-1.32,3.21-2.33,5.16-2.85,3.48-.92,6.31.19,8.65,2.81,1.46,1.63,2.46,3.54,3.33,5.53,1.93,4.4,3.03,9,3.52,13.77.36,3.49.4,6.98.07,10.48-.17,1.85-.33,3.71-1.04,5.46-.39.95-.93,1.8-1.85,2.31-1.29.72-2.57.71-3.79-.2-1.46-1.08-2.68-2.42-3.79-3.83-1.31-1.66-2.55-3.38-3.8-5.08-.73-.98-1.65-1.51-2.9-1.51-5.03.02-10.06.02-15.09,0-1.22,0-2.15.5-2.82,1.48-1.79,2.58-3.64,5.11-5.84,7.37-.55.57-1.17,1.07-1.79,1.57-1.6,1.3-3.76.67-4.8-.68-.86-1.12-1.24-2.42-1.47-3.78-.44-2.61-.6-5.25-.63-7.89Zm16.11-15.8v-4.59h-3.95v4.62h-3.68v4.93h3.69v4.59h3.96v-4.61h3.65v-4.94h-3.67Zm22.42,2.96c.18.61.3,1.25.56,1.83.42.9,1.14,1.49,2.17,1.52.99.03,1.73-.49,2.2-1.32.81-1.43.79-2.88-.12-4.26-.98-1.48-2.82-1.53-3.92-.15-.55.68-.77,1.48-.89,2.38Zm-1.24,4.6c0-1.04-.18-1.74-.55-2.37-.9-1.49-2.7-1.75-3.85-.54-1.32,1.38-1.3,3.86.02,5.22.96.98,2.41.99,3.37,0,.7-.71.98-1.59,1.01-2.31Zm0-9.64c-.01-.86-.26-1.72-.89-2.45-.97-1.12-2.51-1.15-3.53-.09-1.34,1.38-1.28,3.95.11,5.28.94.89,2.26.9,3.21.02.77-.72,1.08-1.64,1.11-2.76Z"/>
  <path class="cls-1" d="m108.42,79.15c-7.82,1.06-15.58,2.11-23.38,3.17,0,1.24,0,2.45,0,3.66,0,6.19-.08,12.37.01,18.56.04,2.74-1.22,4.62-3.44,5.88-3.86,2.2-7.83,2.33-11.74.11-1.49-.84-2.54-2.12-2.85-3.86-.37-2.1.49-3.76,1.99-5.13,1.83-1.67,4.05-2.42,6.47-2.62,1.29-.11,2.58-.02,3.84.32.11.03.23.04.4.07v-25.51c11.35-1.41,22.66-2.81,34.02-4.22v.56c0,10.48-.01,20.96.01,31.44,0,1.6-.13,3.11-1.17,4.42-.81,1.02-1.78,1.83-2.96,2.38-3.54,1.65-7.1,1.77-10.62-.02-1.32-.67-2.35-1.66-2.97-3.04-.85-1.91-.38-4.14,1.22-5.81,1.64-1.71,3.7-2.58,6-2.93,1.65-.25,3.29-.18,4.91.25.07.02.14.01.24.02v-17.68Z"/>
</svg>