<?xml version="1.0" encoding="UTF-8"?>
<svg id="Layer_1" data-name="Layer 1" xmlns="http://www.w3.org/2000/svg" viewBox="0 0 127 127">
  <defs>
    <style>
      .cls-1 {
        fill: #707070;
      }
    </style>
  </defs>
  <path class="cls-1" d="m100.33,71.22c0,.16,0,.32,0,.49,0,11.27,0,22.55,0,33.82,0,.39.09.67.39.93.9.81,1.63,1.73,1.79,2.99.16,1.31-.19,2.45-1.09,3.4-.7.75-1.44,1.46-2.17,2.18-1.62,1.59-4.22,1.6-5.84,0-2-1.98-3.98-3.97-5.96-5.97-.28-.29-.57-.41-.97-.41-19.39,0-38.79,0-58.18,0-.19,0-.39,0-.58,0-.67-.04-1.17-.48-1.29-1.15-.03-.17-.03-.35-.03-.53,0-11.76,0-23.53,0-35.29v-.62c-.36.33-.64.58-.91.84-.88.83-1.58.81-2.4-.08-2.39-2.57-4.78-5.14-7.16-7.71-.75-.81-.72-1.51.1-2.27,5.56-5.16,11.12-10.31,16.67-15.47,9.88-9.17,19.77-18.34,29.65-27.52.68-.63,1.4-.62,2.1.03,6.45,5.99,12.9,11.97,19.36,17.96.11.1.22.19.42.35,0-.29,0-.49,0-.69,0-5.5,0-11.01,0-16.51,0-1.11.49-1.6,1.6-1.6,4.31,0,8.63,0,12.94,0,1.09,0,1.58.49,1.58,1.58,0,10.54,0,21.09,0,31.63,0,.43.13.71.44,1,3.31,3.05,6.61,6.12,9.91,9.19.89.83.91,1.52.08,2.4-2.37,2.55-4.74,5.1-7.1,7.65-.79.85-1.49.89-2.34.11-.29-.27-.58-.53-.87-.8-.04.02-.07.04-.11.06Zm-2.83,32.09s.1-.05.15-.08v-.52c0-11.2,0-22.4,0-33.59,0-.09.02-.19,0-.27-.06-.17-.1-.37-.23-.49-.57-.56-1.17-1.1-1.76-1.65-10.45-9.7-20.9-19.4-31.35-29.09-.31-.29-.63-.57-.95-.86-.1.08-.15.13-.21.18-5.39,5-10.79,10.01-16.18,15.02-5.85,5.43-11.7,10.86-17.56,16.29-.22.2-.34.41-.34.72,0,12.16,0,24.33,0,36.49,0,.16.02.31.02.46h55.06c.04-.05.08-.1.12-.15-.17-.12-.37-.21-.51-.35-2.49-2.48-4.97-4.96-7.45-7.44-6.14-6.14-12.28-12.28-18.42-18.43-.2-.2-.38-.3-.69-.24-1.08.2-2.03-.1-2.81-.89-.21-.21-.41-.43-.63-.63-.67-.62-1.45-.82-2.31-.48-.85.34-1.31,1-1.38,1.91-.04.53-.03,1.07-.01,1.6.11,2.3-.62,4.26-2.28,5.88-.82.8-1.62,1.62-2.43,2.43-1.05,1.05-2.51,1.05-3.57,0-.42-.42-.84-.84-1.26-1.26-3.5-3.5-7.01-7-10.5-10.51-1.11-1.11-1.1-2.53,0-3.64,1.01-1.01,2.01-2.02,3.03-3.03.94-.93,2.03-1.63,3.33-1.89.82-.16,1.68-.21,2.52-.24,1.48-.05,2.47-.88,2.68-2.35.12-.85.19-1.71.3-2.57.3-2.51,1.5-4.47,3.7-5.73.99-.57,2.06-.99,3.12-1.41,6.48-2.54,13.21-3.66,20.17-3.43,3.74.12,7.43.64,11.06,1.56.43.11.88.32,1.22.61.84.71,1.09,1.66.78,2.7-.32,1.07-1.08,1.7-2.18,1.84-2.48.32-4.93.82-7.33,1.51-2.83.81-5.54,1.89-8.07,3.41-1.17.7-1.33,2.15-.38,3.13.2.2.4.4.6.6.59.62.91,1.36.86,2.22-.02.37.1.6.35.85,10.15,10.14,20.3,20.29,30.45,30.44.44.44.86.9,1.29,1.35ZM63.36,21.57c-14.94,13.86-29.83,27.68-44.74,41.51,1.93,2.08,3.81,4.11,5.72,6.16.14-.12.25-.21.35-.31,2.14-1.98,4.28-3.96,6.41-5.94,10.41-9.66,20.81-19.31,31.22-28.97.65-.61,1.37-.62,2.03-.03.64.58,1.27,1.17,1.9,1.76,11.92,11.06,23.84,22.13,35.77,33.19.1.1.22.18.37.29,1.91-2.06,3.79-4.09,5.71-6.15-14.93-13.85-29.81-27.66-44.73-41.51Zm-19.84,65.36c.96-.91,1.98-1.76,2.88-2.73.81-.88,1.05-2,1-3.2-.03-.7-.03-1.4.02-2.09.2-2.77,2.75-4.8,5.49-4.41,1.32.19,2.35.87,3.23,1.83.44.48.52.46.96.02,1.68-1.68,3.37-3.36,5.05-5.05.78-.78.79-.67-.01-1.47-.03-.03-.06-.06-.09-.1-2.17-2.25-1.73-5.74.94-7.36.8-.48,1.63-.92,2.48-1.32,4.04-1.94,8.32-3.1,12.74-3.77.18-.03.36-.06.53-.09-.12-.12-.22-.16-.34-.18-5.32-1.22-10.69-1.62-16.12-1.06-5.22.54-10.23,1.86-14.99,4.08-1.49.69-2.39,1.89-2.66,3.52-.16.97-.23,1.95-.35,2.92-.17,1.47-.81,2.69-1.98,3.62-1.06.84-2.28,1.17-3.63,1.12-1.28-.05-2.48.25-3.43,1.13-1.08,1-2.09,2.07-3.13,3.11-.02.02-.01.06,0,.04,3.84,3.84,7.67,7.67,11.42,11.43Zm16.2-9.27c.13.09.27.18.39.29,6.33,6.33,12.66,12.66,18.99,18.98,5.32,5.32,10.64,10.64,15.96,15.96.86.86,1.64.86,2.51,0,.59-.59,1.18-1.17,1.77-1.77.69-.71.69-1.55,0-2.25-11.73-11.73-23.47-23.47-35.2-35.2-.08-.08-.17-.15-.24-.21-1.37,1.38-2.72,2.73-4.16,4.18Zm37.9-27.99c.01-.25.03-.38.03-.51,0-9.2,0-18.4,0-27.61,0-.4-.12-.5-.51-.49-3.24.01-6.48,0-9.72,0-.16,0-.32.02-.5.02,0,.17-.02.3-.02.43,0,5.93,0,11.86.01,17.8,0,.23.13.52.3.68,2.51,2.36,5.04,4.7,7.57,7.05.91.85,1.83,1.69,2.83,2.62Z"/>
</svg>