<?xml version="1.0" encoding="UTF-8"?>
<svg id="Layer_2" data-name="Layer 2" xmlns="http://www.w3.org/2000/svg" viewBox="0 0 260.41 252.23">
  <defs>
    <style>
      .cls-1 {
        fill: #637481;
      }
    </style>
  </defs>
  <path class="cls-1" d="m126.06,29.21c3.88.76,7.8,1.37,11.64,2.29,12.01,2.87,23.53,7.11,32.81,15.49,11.82,10.67,20.03,23.73,23.01,39.62.41,2.17,1.05,3.98,2.28,5.79,4.95,7.31,7.34,15.42,7.02,24.26-.32,8.83-1.81,17.42-6.02,25.33-2.99,5.62-7.03,10.25-12.6,13.52-.72.42-1.21,1.67-1.34,2.6-1.23,8.81-2.92,17.51-6.03,25.88-2.25,6.05-5.43,11.46-10.2,15.91-5.21,4.86-10.24,9.91-15.47,14.74-12.04,11.13-29.63,11.13-41.54.26-6.42-5.86-12.7-11.9-18.74-18.15-4.51-4.67-6.75-10.72-8.67-16.82-2.57-8.14-4-16.51-5.03-24.96-.15-1.27-.75-2.67-1.58-3.64-4.15-4.83-8.5-9.48-11.58-15.13-4.9-9-6.54-18.73-6.4-28.82.33-23.76,11.61-41.19,31.44-53.49,3.51-2.18,7.38-3.78,11.07-5.7.58-.3,1.23-.71,1.54-1.25,4.35-7.51,10.34-13.28,17.99-17.36.15-.08.24-.26.36-.39,2.02,0,4.04,0,6.05,0Zm-43.89,109.55c0,1.08-.06,2.22,0,3.35.73,11.65,2.03,23.22,5.28,34.48,1.65,5.71,3.5,11.47,7.68,15.83,6.07,6.31,12.41,12.36,18.88,18.26,9.22,8.42,23.11,8.33,32.25.14,5.16-4.62,9.98-9.62,15.14-14.24,5.55-4.97,8.92-11.17,11.04-18.16,4.42-14.6,5.68-29.64,6.17-44.78.02-.53-.18-1.13-.45-1.59-11.34-19.03-26.47-33.37-48.57-39-.86-.22-1.88-.23-2.74,0-19.01,5.23-32.97,16.74-42.4,33.97-2.03,3.7-3.44,7.42-2.28,11.75Zm101.79,9.52c.52-.39.84-.57,1.09-.82,1.13-1.18,2.4-2.27,3.34-3.59,7.68-10.68,9.56-22.78,7.71-35.42-1.2-8.24-6.21-14.76-11.72-20.77-7.08-7.72-15.36-14.01-24.24-19.47-5.09-3.13-10.4-5.89-15.63-8.79-1.32-.73-2.47-1.75-2.02-3.23.31-1.03,1.35-2.06,2.34-2.58.63-.32,1.82.15,2.63.53,9.19,4.37,17.85,9.62,25.91,15.82,4.08,3.14,8,6.49,11.99,9.74-.8-2.49-1.78-4.92-2.98-7.23-5.07-9.71-11.22-18.55-20.65-24.61-11.42-7.34-24.11-10.94-37.44-12.55-1.11-.13-2.49.01-3.42.57-10.06,6.07-16.48,14.63-17.76,26.59-.75,7.01,1.15,12.86,7.47,16.71,1.29.79,2.58,1.64,3.98,2.15,5.43,1.98,10.86,4.01,16.39,5.69,8.4,2.57,16.64,5.51,23.92,10.53,10.55,7.29,19.03,16.59,26.14,27.26,2.95,4.43,4.34,8.9,3.57,14.18-.43,2.95-.39,5.98-.58,9.28Zm-65.43-58.88c-16.98-5.3-25.12-15.65-20.26-33.8-6.42,3.04-11.85,6.66-16.7,11.12-13.34,12.26-18.82,27.62-17.83,45.5.59,10.67,3.73,20.39,10.8,28.62.41.48.86.93,1.21,1.31,0-3.14-.04-6.16.02-9.18.02-.92.19-1.89.54-2.73,5.28-12.6,13.39-23.01,24.26-31.28,5.3-4.03,11.18-6.97,17.96-9.56Z"/>
  <path class="cls-1" d="m187.7,192.76c0,1.01.06,2.02-.01,3.02-.13,1.68-1.36,2.86-2.93,2.9-1.64.04-2.99-1.17-3.06-2.95-.08-2.08-.09-4.16,0-6.24.07-1.69,1.35-2.85,2.92-2.89,1.65-.04,2.95,1.17,3.07,2.94.07,1.07.01,2.14.01,3.21Z"/>
  <path class="cls-1" d="m175.73,198.71c1.01,0,2.02-.06,3.02.01,1.69.13,2.86,1.35,2.9,2.92.04,1.64-1.17,3-2.94,3.07-2.08.09-4.16.09-6.24,0-1.69-.07-2.86-1.35-2.9-2.92-.04-1.65,1.16-2.95,2.94-3.07,1.07-.07,2.14-.01,3.21-.01Z"/>
  <path class="cls-1" d="m193.71,204.74c-1.01,0-2.02.06-3.02-.01-1.78-.13-2.98-1.42-2.95-3.07.03-1.58,1.2-2.85,2.89-2.92,2.08-.09,4.16-.09,6.24,0,1.78.07,2.99,1.41,2.95,3.06-.03,1.57-1.21,2.81-2.89,2.93-1.07.08-2.14.01-3.21.02Z"/>
  <path class="cls-1" d="m187.7,210.8c0,1.07.07,2.15-.02,3.21-.14,1.67-1.42,2.83-2.99,2.83-1.57,0-2.91-1.15-2.98-2.82-.1-2.14-.1-4.29,0-6.42.08-1.68,1.4-2.82,2.98-2.83,1.58,0,2.85,1.15,2.99,2.82.09,1.06.02,2.14.02,3.21Z"/>
  <path class="cls-1" d="m63.62,151.83c0,.5.04,1.01,0,1.51-.15,1.78-1.42,2.99-3.06,2.97-1.64-.03-2.86-1.26-2.96-3.06-.05-.94-.05-1.89,0-2.83.09-1.92,1.34-3.18,3.06-3.15,1.64.03,2.84,1.25,2.97,3.06.03.5,0,1.01,0,1.51Z"/>
  <path class="cls-1" d="m52.89,162.36c-.5,0-1.01.04-1.51,0-1.68-.17-2.84-1.39-2.86-2.96-.02-1.58,1.12-2.88,2.78-3.02,1.13-.1,2.27-.09,3.4,0,1.68.12,2.84,1.38,2.86,2.95.02,1.57-1.13,2.85-2.79,3.03-.62.07-1.26.01-1.89.02Z"/>
  <path class="cls-1" d="m68.1,162.38c-.38,0-.76.01-1.13,0-2.04-.08-3.36-1.32-3.31-3.1.04-1.71,1.32-2.87,3.27-2.94.82-.03,1.64-.03,2.46,0,2.04.07,3.36,1.32,3.32,3.09-.04,1.7-1.33,2.86-3.27,2.95-.44.02-.88,0-1.32,0Z"/>
  <path class="cls-1" d="m196.8,163.81c0-.38-.01-.76,0-1.13.08-2.04,1.32-3.36,3.1-3.31,1.71.04,2.87,1.32,2.94,3.27.03.82.03,1.64,0,2.46-.07,2.03-1.33,3.36-3.1,3.32-1.71-.05-2.86-1.33-2.94-3.28-.02-.44,0-.88,0-1.32Z"/>
  <path class="cls-1" d="m63.63,166.96c0,.38.01.76,0,1.13-.08,2.05-1.3,3.37-3.07,3.35-1.71-.03-2.89-1.31-2.97-3.25-.03-.88-.04-1.77,0-2.65.09-1.92,1.34-3.18,3.06-3.15,1.64.03,2.84,1.25,2.97,3.06.04.5,0,1.01,0,1.51h0Z"/>
  <path class="cls-1" d="m192.17,174.46c-.57,0-1.14.06-1.7-.01-1.64-.2-2.82-1.53-2.72-3.08.11-1.67,1.07-2.68,2.71-2.89.99-.13,2.01-.07,3.02-.04,2.03.07,3.36,1.33,3.3,3.11-.05,1.7-1.34,2.85-3.29,2.93-.44.02-.88,0-1.32,0,0,0,0-.01,0-.02Z"/>
  <path class="cls-1" d="m207.58,168.46c.57,0,1.15-.08,1.7.02,1.63.3,2.61,1.3,2.62,2.97,0,1.67-.98,2.73-2.61,2.97-1.11.16-2.27.11-3.4.04-1.8-.1-3.01-1.36-3.01-3,0-1.65,1.21-2.88,3.01-3.01.56-.04,1.13,0,1.7,0,0,0,0,.02,0,.03Z"/>
  <path class="cls-1" d="m202.85,179.09c0,.38.01.76,0,1.13-.08,2.04-1.33,3.36-3.1,3.32-1.71-.04-2.87-1.32-2.94-3.27-.03-.82-.03-1.64,0-2.46.07-2.04,1.31-3.36,3.09-3.32,1.71.04,2.86,1.32,2.95,3.27.02.44,0,.88,0,1.32Z"/>
  <path class="cls-1" d="m130.85,189.65c-5.42-.13-10.07-.68-14.05-3.42-1.66-1.14-3.11-2.73-4.32-4.36-.99-1.34-.43-2.83.92-3.79,1.38-.98,2.93-.84,3.89.48,2.37,3.27,5.77,4.3,9.47,4.78,3.92.5,7.86.41,11.52-1.16,1.67-.72,3.15-2,4.5-3.27,1.44-1.35,2.95-1.76,4.36-.73,1.41,1.03,1.66,2.72.51,4.35-2.92,4.17-7.28,5.84-12.05,6.66-1.79.31-3.63.36-4.75.47Z"/>
  <path class="cls-1" d="m108.88,126.11c5.82-.27,10.59,1.8,14.13,6.49,1.55,2.04,1.48,3.83-.09,4.98-1.53,1.11-3.13.67-4.65-1.27-2.2-2.82-5.06-4.27-8.66-4.2-3.93.08-7.79.31-11.25,2.58-1.35.89-3.12.29-3.97-1.03-.85-1.34-.58-2.96.82-4.02,3.36-2.55,7.34-3.17,11.39-3.5.75-.06,1.51,0,2.27,0Z"/>
  <path class="cls-1" d="m109.25,156.43c-5.97.13-10.82-2.03-14.38-6.87-1.41-1.91-1.24-3.7.33-4.8,1.51-1.05,3.12-.66,4.49,1.21,3.1,4.23,7.5,4.85,12.16,4.12,2.61-.41,5.15-1.42,7.64-2.37,1.62-.62,3.27-.38,4.16,1,.85,1.33.71,3.19-.82,3.96-2.6,1.31-5.37,2.34-8.17,3.16-1.72.5-3.61.4-5.42.58Z"/>
  <path class="cls-1" d="m151.09,156.34c-3.83-.06-7.75-.48-11.39-2.28-.89-.44-1.79-.98-2.49-1.67-1.11-1.09-1.28-2.47-.34-3.77.97-1.34,2.36-1.86,3.8-.96,3.39,2.12,7.05,2.71,10.99,2.66,3.89-.05,6.91-1.46,9.24-4.55,1.67-2.21,4.64-1.99,5.35.46.27.92-.03,2.31-.59,3.12-3.46,5-8.37,7.2-14.57,6.99Z"/>
  <path class="cls-1" d="m166.48,131.26c.07,3.01-2.41,4.64-4.37,3.44-3.41-2.09-7.06-2.7-10.99-2.64-3.81.06-6.83,1.4-9.1,4.44-.08.1-.14.21-.22.31-1.26,1.47-2.95,1.74-4.34.68-1.34-1.01-1.58-2.61-.56-4.19,1.94-3.01,4.59-5.28,8-6.28,6.53-1.91,12.95-1.26,19.03,1.78,1.16.58,1.96,1.88,2.54,2.45Z"/>
</svg>