<?xml version="1.0" encoding="UTF-8"?>
<svg id="Layer_2" data-name="Layer 2" xmlns="http://www.w3.org/2000/svg" viewBox="0 0 260.41 252.23">
  <defs>
    <style>
      .cls-1 {
        fill: #637481;
      }
    </style>
  </defs>
  <path class="cls-1" d="m31.88,182.73v-28.38c.59-.05,1.18-.13,1.77-.13,13.12-.03,26.23-.07,39.35-.07,22.9,0,45.8.01,68.7.02,3.45,0,2.89.05,2.89,2.92.02,7.99-.02,15.99.04,23.98,0,1.36-.4,1.68-1.75,1.68-35.04-.03-70.09-.02-105.13,0-1.89,0-3.78,0-5.87,0Z"/>
  <path class="cls-1" d="m38.98,115.55c0,2.19,0,4.27,0,6.36.05,8.76.11,17.52.15,26.28,0,.97-.02,1.96-.22,2.9-.09.43-.64.76-.97,1.13-.33-.38-.82-.71-.96-1.15-.2-.62-.17-1.31-.17-1.98.04-10.61.08-21.21.13-31.82,0-.95.12-1.84-1.2-2.1-.28-.05-.59-.86-.58-1.31.03-.84.19-2.36.46-2.39,1.55-.21,1.43-1.21,1.38-2.25-.04-.7-.12-1.4-.2-2.21h-4.93v-8.33c9.91-3.28,19.75-6.54,29.6-9.78,8.25-2.72,16.52-5.4,24.77-8.13,1.33-.44,2.54-.38,3.88.05,17.49,5.73,34.99,11.43,52.5,17.07,1.55.5,2.14,1.25,2.01,2.85-.14,1.68-.1,3.38-.07,5.07.02.94-.36,1.32-1.27,1.22-.3-.03-.61,0-.92,0-2.92.03-2.55-.42-2.65,2.62-.03.88.18,1.4,1.11,1.72.36.12.71.94.68,1.42-.05.83-.19,2.19-.65,2.36-1.14.42-1.15,1.1-1.15,2.01.02,10.56.02,21.11.03,31.67,0,.77.09,1.56-.05,2.3-.08.39-.56.71-.86,1.06-.32-.33-.83-.61-.92-1-.16-.68-.07-1.42-.07-2.14,0-10.56.02-21.11.02-31.67,0-2.01-.01-2.01-1.93-2.01-31.46,0-62.93.02-94.39.03-.76,0-1.52.07-2.56.13Zm98.74-8.5h-1.96c-31.36,0-62.72,0-94.08,0-3.04,0-2.72-.7-2.8,2.92-.02,1,.39,1.35,1.39,1.32,2.25-.08,4.51-.1,6.76-.1,29.51,0,59.03,0,88.54,0,.74,0,1.48-.13,2.14-.19v-3.96Z"/>
  <path class="cls-1" d="m183,154.38v28.34c-.69,0-1.29,0-1.89,0-10.25,0-20.5-.03-30.75.03-1.39,0-1.71-.42-1.71-1.75.04-8.45.02-16.91-.02-25.36,0-1.05.33-1.49,1.38-1.49,10.81.04,21.62.06,32.43.08.15,0,.29.08.55.15Z"/>
  <path class="cls-1" d="m204.62,154.18c5.17,0,10.34.03,15.51-.02,1.28-.01,1.67.4,1.66,1.67-.04,8.5-.03,16.99,0,25.49,0,1.02-.26,1.43-1.39,1.43-10.49-.04-20.99-.04-31.48.01-1.26,0-1.53-.42-1.52-1.61.05-8.45.05-16.89,0-25.34,0-1.23.37-1.58,1.57-1.56,5.22.06,10.44.02,15.66.02,0-.03,0-.06,0-.09Z"/>
  <path class="cls-1" d="m176.29,111.06v-3.97h-27.64c0-3.46-.07-6.78.03-10.08.04-1.31-.41-1.87-1.62-2.26-10.18-3.25-20.33-6.55-30.5-9.85-.42-.14-.83-.3-1.54-.88.24-.08.49-.16.73-.24,3.07-.98,6.15-1.91,9.19-2.96,1.33-.46,2.55-.4,3.87.04,17.43,5.74,34.87,11.45,52.31,17.16.62.2,1.25.38,1.89.58v8.42h-4.73c0,1.2-.05,2.26.03,3.32.02.33.32.88.56.92,2.12.31,1,1.96,1.09,2.94.06.56-.83,1.22-1.29,1.84-.11-.07-.21-.15-.32-.22,0,1.12,0,2.23,0,3.35,0,10.4,0,20.8,0,31.21,0,.36.1.8-.07,1.05-.21.32-.66.69-.99.68-.31,0-.75-.42-.89-.76-.16-.4-.05-.91-.05-1.37,0-11.17.02-22.34.03-33.51,0-.2-.02-.4-.04-.8-.64-.08-1.27-.22-1.9-.22-9.02-.02-18.04-.06-27.05,0-1.36,0-1.62-.43-1.58-1.67.09-2.61.03-2.59,2.61-2.59,9.07,0,18.14,0,27.21-.01.19,0,.38-.06.67-.11Z"/>
  <path class="cls-1" d="m215.02,189.05c-.05-1.01-.1-1.93-.15-2.84-.04-.85.28-1.52,1.19-1.33.37.08.79.77.86,1.23.14.9.04,1.83.04,2.9.35.03.74.1,1.12.1,7.58,0,15.17.05,22.75-.02,1.45-.01,1.99.35,1.93,1.87-.12,2.83.2,2.31-2.59,2.31-67.34,0-134.67,0-202.01,0-6.15,0-12.3,0-18.45-.02-.65,0-1.3-.08-1.88-.12-.1-.23-.18-.32-.18-.41q-.09-3.61,3.47-3.61c5.22,0,10.44,0,15.83,0,0-.6-.05-1.2.01-1.78.1-.93-.49-2.45,1-2.45,1.42,0,.78,1.48.88,2.36.07.59.01,1.19.01,1.86h98.94c0-.92-.11-1.89.04-2.81.09-.54.62-1,.95-1.49.31.49.8.96.89,1.49.15.88.04,1.81.04,2.8h36.59c0-1.09-.09-2.12.04-3.11.05-.4.57-.75.88-1.12.39.36,1.05.67,1.12,1.08.17.98.05,2.01.05,3.11h36.59Z"/>
  <path class="cls-1" d="m215.06,115.56h-30.64v-4.2c.98-.05,1.94-.15,2.9-.15,8.66,0,17.31-.01,25.97.04,1.22,0,1.84-.27,1.72-1.6-.07-.8-.01-1.61-.01-2.61-.61,0-1.16,0-1.7,0-8.09,0-16.19-.03-24.28.02-1.26,0-1.68-.32-1.63-1.63.11-2.92.02-5.84.08-8.76.02-.88-.17-1.37-1.11-1.68-10.12-3.26-20.22-6.58-30.32-9.87-.7-.23-1.43-.39-2.63-.71.8-.41,1.15-.65,1.54-.78,2.86-.96,5.7-1.99,8.6-2.79,1.11-.31,2.47-.37,3.54-.03,17.66,5.67,35.29,11.44,52.94,17.13,1.3.42,1.83.99,1.73,2.38-.13,1.83-.08,3.68-.05,5.53.02.86-.28,1.22-1.15,1.18-1.12-.04-2.25-.01-3.66-.01,0,1.22-.03,2.37.02,3.52.01.24.31.66.49.67,1.21.04,1.42.74,1.34,1.75-.08,1.04.2,2.17-1.26,2.63-.32.1-.58.96-.58,1.47-.02,10.96,0,21.92.01,32.89,0,.41.1.87-.05,1.22-.18.39-.58.68-.89,1.02-.31-.34-.85-.65-.89-1.02-.14-1.22-.14-2.45-.14-3.68.03-10.24.07-20.49.1-30.73,0-.3,0-.61,0-1.21Z"/>
  <path class="cls-1" d="m77.54,128.56c0,2.51.04,5.02-.04,7.52-.01.43-.51,1.11-.9,1.2-.77.18-1.15-.33-1.14-1.19.02-5.07-.02-10.13.04-15.2,0-.42.53-1.09.93-1.19.81-.21,1.16.36,1.16,1.18-.02,2.56,0,5.12,0,7.68h-.05Z"/>
  <path class="cls-1" d="m58.91,147.57c1.67,0,2.37.65,2.37,2.25,0,1.39-.98,2.3-2.48,2.31-1.42,0-2.21-.88-2.25-2.5-.04-1.47.63-2.05,2.36-2.06Z"/>
  <path class="cls-1" d="m45.47,147.57c1.75,0,2.33.56,2.32,2.25,0,1.55-.75,2.22-2.44,2.23-1.57,0-2.21-.65-2.19-2.24.02-1.73.54-2.24,2.31-2.25Z"/>
  <path class="cls-1" d="m196.85,144.72c0-1.54.89-2.48,2.3-2.44,1.31.04,2.37,1.07,2.37,2.31,0,1.41-1.03,2.47-2.37,2.44-1.34-.03-2.31-1-2.3-2.31Z"/>
  <path class="cls-1" d="m197.85,139.62c0,1.5-.77,2.2-2.45,2.19-1.42,0-2.13-.73-2.14-2.19-.01-1.63.74-2.43,2.27-2.4,1.53.02,2.31.83,2.32,2.4Z"/>
  <path class="cls-1" d="m53.28,144.62c.04-1.66.62-2.24,2.21-2.22,1.62.02,2.39.78,2.33,2.32-.06,1.55-.95,2.35-2.57,2.28-1.29-.05-2.01-.92-1.97-2.37Z"/>
  <path class="cls-1" d="m128.1,152.06c-1.52.02-2.35-.73-2.37-2.13-.02-1.68.74-2.47,2.35-2.46,1.53.01,2.25.7,2.3,2.22.06,1.58-.68,2.35-2.28,2.37Z"/>
  <path class="cls-1" d="m169.6,144.73c0,1.5-.82,2.28-2.37,2.26-1.23-.02-2.16-.89-2.19-2.07-.04-1.75.58-2.48,2.11-2.52,1.74-.04,2.44.63,2.44,2.32Z"/>
  <path class="cls-1" d="m159.44,149.78c0,1.5-.74,2.27-2.22,2.31-1.57.04-2.39-.82-2.41-2.49-.01-1.38.76-2.01,2.45-2.01,1.65,0,2.18.53,2.18,2.19Z"/>
  <path class="cls-1" d="m46.5,144.7c0-1.8.48-2.3,2.22-2.3,1.64,0,2.28.67,2.27,2.36,0,1.37-.85,2.25-2.16,2.23-1.64-.02-2.33-.69-2.33-2.3Z"/>
  <path class="cls-1" d="m112.32,149.77c.01-1.62.7-2.27,2.37-2.26,1.57,0,2.25.76,2.21,2.42-.03,1.42-.83,2.13-2.39,2.13-1.5,0-2.2-.74-2.19-2.29Z"/>
  <path class="cls-1" d="m52.16,151.96c-1.58.02-2.22-.66-2.22-2.39,0-1.54.5-2.03,2.15-2.06,1.72-.03,2.33.51,2.38,2.12.05,1.59-.67,2.31-2.3,2.33Z"/>
  <path class="cls-1" d="m204.95,139.8c-.02,1.38-.8,2.08-2.26,2.03-1.42-.04-2.33-.87-2.3-2.1.03-1.57.98-2.54,2.44-2.51,1.39.03,2.15.95,2.13,2.58Z"/>
  <path class="cls-1" d="m54.23,139.45c.03,1.6-.61,2.3-2.13,2.32-1.53.03-2.37-.7-2.41-2.09-.04-1.43.81-2.33,2.22-2.36,1.6-.04,2.3.6,2.32,2.13Z"/>
  <path class="cls-1" d="m153.73,142.37c1.31.03,2.32,1.05,2.29,2.33-.02,1.32-1.01,2.3-2.33,2.31-1.27.01-2.32-1.05-2.28-2.3.06-1.68.75-2.38,2.32-2.34Z"/>
  <path class="cls-1" d="m195.76,152.03c-1.51,0-2.23-.75-2.21-2.29.02-1.63.62-2.19,2.37-2.2,1.46,0,2.17.7,2.17,2.13,0,1.59-.75,2.35-2.34,2.35Z"/>
  <path class="cls-1" d="m64.63,144.6c.02,1.23-.96,2.32-2.14,2.36-1.42.05-2.39-.91-2.41-2.38-.02-1.33.82-2.17,2.18-2.19,1.46-.03,2.34.8,2.37,2.21Z"/>
  <path class="cls-1" d="m164.28,137.33c1.5.03,2.15.76,2.09,2.39-.05,1.42-.8,2.11-2.26,2.07-1.47-.04-2.24-.85-2.22-2.35.02-1.48.76-2.14,2.39-2.11Z"/>
  <path class="cls-1" d="m166.19,149.83c-.03,1.57-.76,2.21-2.45,2.16-1.41-.05-2.07-.77-2.06-2.25.01-1.63.63-2.2,2.37-2.19,1.54.01,2.17.68,2.14,2.28Z"/>
  <path class="cls-1" d="m194.54,144.63c.01,1.57-.66,2.29-2.18,2.32-1.4.03-2.25-.84-2.26-2.31,0-1.49.65-2.2,2.09-2.24,1.71-.04,2.34.55,2.35,2.22Z"/>
  <path class="cls-1" d="m205.99,142.41c1.55-.01,2.16.62,2.2,2.24.03,1.38-.86,2.25-2.28,2.24-1.48-.02-2.2-.77-2.2-2.29,0-1.5.7-2.17,2.28-2.19Z"/>
  <path class="cls-1" d="m157.14,137.26c1.3.01,2.16,1.02,2.12,2.48-.04,1.32-.84,2.08-2.15,2.06-1.6-.03-2.32-.77-2.31-2.37.01-1.41.85-2.18,2.34-2.17Z"/>
  <path class="cls-1" d="m56.9,139.61c.04-1.65.69-2.36,2.14-2.33,1.62.03,2.31.74,2.28,2.39-.02,1.55-.79,2.2-2.49,2.13-1.39-.06-1.97-.71-1.93-2.18Z"/>
  <path class="cls-1" d="m189.33,147.64c1.46,0,2.01.62,1.99,2.2-.03,1.37-.83,2.14-2.25,2.14-1.5,0-2.3-.85-2.28-2.44.01-1.33.78-1.9,2.55-1.9Z"/>
  <path class="cls-1" d="m110.14,149.88c-.04,1.4-.91,2.16-2.42,2.1-1.36-.06-2.13-.94-2.12-2.44,0-1.33.84-1.97,2.51-1.92,1.36.04,2.07.83,2.03,2.26Z"/>
  <path class="cls-1" d="m150.47,151.96c-1.5,0-2.18-.65-2.2-2.12-.03-1.66.62-2.29,2.33-2.28,1.54.01,2.11.59,2.11,2.16,0,1.6-.64,2.24-2.23,2.24Z"/>
  <path class="cls-1" d="m162.81,144.7c-.01,1.42-.79,2.22-2.14,2.21-1.54,0-2.29-.8-2.29-2.42,0-1.41.82-2.12,2.41-2.09,1.4.03,2.04.75,2.02,2.3Z"/>
  <path class="cls-1" d="m170.74,147.57c1.37.02,2.14.8,2.14,2.19,0,1.47-.8,2.25-2.28,2.21-1.42-.04-2.28-.97-2.27-2.48,0-1.19.94-1.94,2.41-1.92Z"/>
  <path class="cls-1" d="m204.68,149.78c-.02,1.47-.73,2.18-2.16,2.18-1.55,0-2.31-.86-2.28-2.59.02-1.3.73-1.88,2.24-1.84,1.58.04,2.22.7,2.2,2.25Z"/>
  <path class="cls-1" d="m63.44,149.61c.03-1.72.42-2.06,2.25-2.01,1.48.04,2.16.8,2.11,2.36-.05,1.41-.74,2.02-2.29,1.99-1.53-.02-2.11-.68-2.07-2.34Z"/>
  <path class="cls-1" d="m209.11,147.62c1.64,0,2.34.68,2.33,2.27-.01,1.42-.71,2.08-2.2,2.09-1.47.01-2.16-.66-2.19-2.1-.03-1.68.5-2.26,2.06-2.26Z"/>
  <path class="cls-1" d="m121.53,147.57c1.39.08,2.05.84,2,2.32-.05,1.45-.89,2.17-2.41,2.07-1.39-.1-2.08-.95-2.01-2.51.06-1.27.95-1.96,2.42-1.88Z"/>
  <path class="cls-1" d="m76.22,149.88c0-.41-.1-.85.03-1.21.12-.33.47-.74.78-.8.4-.07,1.22.17,1.22.28.03,1.28.11,2.61-.2,3.83-.16.63-1.5.21-1.73-.58-.03-.1-.04-.2-.04-.3-.02-.41-.04-.81-.06-1.22Z"/>
  <path class="cls-1" d="m74.2,141.55h2.12c0,1.22.05,2.42-.04,3.6-.02.24-.68.67-.93.6-.43-.12-1.05-.52-1.1-.87-.15-1.04-.05-2.11-.05-3.33Z"/>
  <path class="cls-1" d="m87.18,150.26c-.43.68-.84,1.91-1.29,1.92-1.46.05-.95-1.33-1.12-2.19-.03-.15-.02-.3-.02-.46,0-.83-.05-1.79,1.09-1.8,1.12-.01.96.95.99,1.7,0,.2,0,.41,0,.61.11.07.23.14.34.21Z"/>
  <path class="cls-1" d="m91.1,150.14c-.29.6.78,2.07-1.05,1.92-.37-.03-.9-.53-1.01-.91-.17-.61-.06-1.31-.04-1.97.02-.62-.2-1.37.88-1.39,1.08-.02,1.28.58,1.22,1.46-.02.25,0,.51,0,.89Z"/>
  <path class="cls-1" d="m82.66,150.16c0,.36.12.78-.03,1.05-.2.36-.64.87-.93.85-.43-.04-1.08-.42-1.18-.79-.18-.66,0-1.41-.03-2.12-.02-.82.18-1.37,1.16-1.37,1.12,0,1.02.74,1,1.47,0,.31,0,.61,0,.92,0,0,0,0,.01,0Z"/>
  <path class="cls-1" d="m74.44,149.68c-.51,1.08.39,2.45-1.17,2.47-1.49.02-1.21-1.26-1.17-2.17.04-.92-.54-2.5,1.34-2.06.49.12.74,1.27,1,1.76Z"/>
  <path class="cls-1" d="m88.99,141.74c0,1.06.06,2.12-.04,3.16-.03.32-.55.87-.75.84-.46-.09-1.17-.41-1.23-.75-.18-.88-.24-1.86,0-2.7.14-.46,1.01-.69,1.55-1.02.15.16.31.32.46.48Z"/>
  <path class="cls-1" d="m93.23,141.63c0,1.04.1,2.12-.05,3.15-.06.38-.7.67-1.08,1.01-.32-.37-.76-.69-.93-1.12-.17-.4-.06-.91-.07-1.37-.02-1.87.02-1.91,2.13-1.67Z"/>
  <path class="cls-1" d="m93.28,149.86c0-.36-.13-.8.03-1.05.26-.41.72-.7,1.09-1.05.27.3.71.57.78.92.14.74.21,1.54.08,2.27-.09.47-.61.86-.93,1.29-.34-.43-.75-.83-.99-1.32-.14-.29-.03-.7-.03-1.06h-.03Z"/>
  <path class="cls-1" d="m84.69,141.64c0,1.03.07,2.11-.04,3.16-.04.36-.55.66-.84.99-.35-.33-.85-.6-1-1-.19-.5-.04-1.11-.11-1.67-.18-1.51.48-1.94,1.99-1.48Z"/>
  <path class="cls-1" d="m78.72,141.57c.47-.02.95-.05,1.59-.08v4.17c-1.8.52-2.05-.03-1.59-4.09Z"/>
</svg>