<?xml version="1.0" encoding="UTF-8"?>
<svg id="Layer_1" data-name="Layer 1" xmlns="http://www.w3.org/2000/svg" viewBox="0 0 126.83 126.83">
  <defs>
    <style>
      .cls-1 {
        fill: #637481;
      }
    </style>
  </defs>
  <path class="cls-1" d="m78.74,97.95c0,1.2,0,2.34,0,3.48,0,1.1-.46,1.57-1.54,1.58-1.12.01-2.24-.01-3.35,0-.69.01-1.16-.28-1.46-.9-.59-1.22-1.22-2.42-1.8-3.65-.19-.41-.41-.59-.9-.59-7.59.02-15.17.02-22.76,0-.47,0-.71.14-.91.56-.57,1.2-1.19,2.37-1.77,3.57-.32.68-.8,1.01-1.57.99-1.12-.03-2.24,0-3.35-.01-.99-.01-1.46-.48-1.47-1.47-.01-1.19,0-2.39,0-3.29-1.21-.57-2.34-.92-3.26-1.58-1.28-.91-1.84-2.31-1.85-3.89-.01-1.7,0-3.4,0-5.06-.95-.34-1.87-.59-2.72-1-3.77-1.83-5.71-6.13-4.65-10.18,1.08-4.14,4.87-6.93,9.14-6.72,4.16.2,7.68,3.38,8.31,7.52.1.65.13,1.32.14,1.98.02,1.25,0,2.49,0,3.79,10.23-2.43,20.39-2.43,30.66,0,0-1.42,0-2.82,0-4.21.01-2.18.7-4.13,2.09-5.81,2.53-3.05,6.55-4.08,10.17-2.64,3.59,1.43,5.86,5.04,5.61,8.91-.25,3.83-2.98,7.08-6.77,8.06-.26.07-.52.12-.88.21,0,1.14,0,2.3,0,3.47,0,.82.05,1.66-.07,2.47-.38,2.5-2.13,4.01-5.04,4.4Zm-41.53-12.7c.94-.39,1.83-.72,2.69-1.13.22-.11.49-.42.49-.64.04-1.7.07-3.41,0-5.11-.13-3.24-2.89-5.93-6.12-6.01-3.52-.1-6.5,2.63-6.63,6.08-.14,3.56,2.53,6.48,6.1,6.68,1.16.06,1.55.48,1.56,1.64,0,1.92,0,3.83,0,5.75,0,1.79,1.03,2.84,2.81,2.84,13.46,0,26.93,0,40.39,0,1.74,0,2.78-1.04,2.79-2.78,0-1.92,0-3.83,0-5.75,0-1.23.38-1.63,1.58-1.7,3.34-.19,5.98-2.87,6.08-6.15.1-3.39-2.41-6.25-5.78-6.59-3.24-.33-6.38,1.96-6.81,5.27-.27,2.06-.05,4.18-.05,6.33.44.17.96.36,1.47.58.53.22,1.04.47,1.59.72-.45.8-.84,1.49-1.16,2.05-13.34-4.71-26.54-4.71-39.84,0-.34-.6-.72-1.29-1.17-2.08Zm3.25,12.67v2.54c.36,0,.68.02.99,0,.27-.03.69-.02.78-.18.44-.73.79-1.51,1.21-2.35h-2.98Zm35.69.04h-2.97c.26.52.47.97.69,1.41.61,1.23.83,1.32,2.27.97v-2.38Z"/>
  <path class="cls-1" d="m85.15,97.9v-2.55c.3,0,.58,0,.86,0,3.43,0,6.87,0,10.3,0,1.85,0,2.88-1.01,2.88-2.85,0-21.08,0-42.15,0-63.23,0-1.89-1.02-2.89-2.92-2.89-5.14,0-10.27,0-15.41,0-.24,0-.48,0-.8,0v26.78h-2.57v-26.78c-.34,0-.62,0-.9,0-5.03,0-10.06.06-15.09-.03-2.2-.04-3.43,1.37-3.2,3.21.02.18,0,.37,0,.6h-2.47c-.59-3.52,1.73-6.33,5.26-6.33,11.76,0,23.53,0,35.29,0,3.18,0,5.35,2.18,5.35,5.38,0,21.1,0,42.21,0,63.31,0,3.07-1.83,5.04-5.11,5.44,0,1.12,0,2.26,0,3.4,0,1.25-.43,1.67-1.68,1.67-1.01,0-2.02-.03-3.03,0-.82.03-1.35-.28-1.7-1.03-.56-1.21-1.15-2.4-1.79-3.56-.14-.25-.53-.48-.83-.51-.79-.07-1.58-.02-2.44-.02Zm8.89.05h-2.98c.39.78.73,1.5,1.11,2.18.08.15.31.29.48.3.46.04.93.01,1.4.01v-2.5Z"/>
  <path class="cls-1" d="m48.06,50.64v2.52h-2.51v-2.52h-.94c-3.38,0-6.76,0-10.14,0-1.36,0-1.81-.5-1.7-1.86.41-4.85.82-9.7,1.23-14.55.09-1.06.51-1.47,1.57-1.47,3.27,0,6.54,0,9.9,0v-2.5h2.57v2.5c.34,0,.62,0,.9,0,2.98,0,5.96,0,8.94,0,1.22,0,1.61.37,1.71,1.58.4,4.8.81,9.59,1.22,14.39.12,1.42-.31,1.91-1.72,1.91-3.35,0-6.7,0-10.06,0h-.98Zm-12.64-2.6h22.76c-.35-4.25-.7-8.45-1.06-12.68h-20.65c-.35,4.24-.7,8.43-1.06,12.68Z"/>
  <path class="cls-1" d="m35.31,67.21h-2.5c0-2.39-.17-4.76.04-7.1.23-2.56,2.44-4.35,5.01-4.35,13.63-.01,27.26-.01,40.88,0,2.85,0,5.07,2.22,5.11,5.05.03,2.1,0,4.2,0,6.37h-2.52c-.01-.23-.03-.49-.03-.74,0-1.84.01-3.67,0-5.51-.02-1.53-1.09-2.62-2.62-2.62-13.57,0-27.15,0-40.72,0-1.57,0-2.63,1.1-2.64,2.69-.01,2.05,0,4.09,0,6.22Z"/>
  <path class="cls-1" d="m53.14,65.95h-2.44v-2.48h2.44v2.48Z"/>
  <path class="cls-1" d="m63.47,63.45h2.45v2.46h-2.45v-2.46Z"/>
  <path class="cls-1" d="m46.77,69.84v2.45h-2.47v-2.45h2.47Z"/>
  <path class="cls-1" d="m57.05,72.29v-2.44h2.48v2.44h-2.48Z"/>
  <path class="cls-1" d="m72.34,69.85v2.44h-2.48v-2.44h2.48Z"/>
  <path class="cls-1" d="m53.13,78.71h-2.44v-2.48h2.44v2.48Z"/>
  <path class="cls-1" d="m63.45,78.7v-2.45h2.47v2.45h-2.47Z"/>
  <path class="cls-1" d="m37.21,85.25c.45.8.83,1.48,1.17,2.08,13.29-4.72,26.5-4.71,39.84,0,.32-.56.71-1.25,1.16-2.05-.55-.25-1.06-.5-1.59-.72-.51-.22-1.03-.41-1.47-.58,0-2.15-.22-4.28.05-6.33.44-3.31,3.57-5.6,6.81-5.27,3.37.34,5.87,3.2,5.78,6.59-.1,3.28-2.74,5.96-6.08,6.15-1.21.07-1.58.46-1.58,1.7,0,1.92,0,3.83,0,5.75,0,1.74-1.04,2.78-2.79,2.78-13.46,0-26.93,0-40.39,0-1.78,0-2.81-1.05-2.81-2.84,0-1.92,0-3.83,0-5.75,0-1.17-.4-1.58-1.56-1.64-3.56-.2-6.24-3.13-6.1-6.68.13-3.45,3.11-6.17,6.63-6.08,3.23.09,5.99,2.77,6.12,6.01.07,1.7.04,3.41,0,5.11,0,.22-.27.54-.49.64-.86.4-1.75.74-2.69,1.13Zm-3.17-2.68c2.12,0,3.83-1.76,3.81-3.89-.02-2.07-1.77-3.78-3.85-3.77-2.09.02-3.8,1.72-3.81,3.81-.01,2.12,1.73,3.86,3.85,3.85Zm52.36-3.81c.02-2.08-1.7-3.82-3.77-3.84-2.13-.02-3.88,1.7-3.88,3.81,0,2.09,1.69,3.82,3.77,3.84,2.12.03,3.87-1.69,3.88-3.81Z"/>
  <path class="cls-1" d="m40.47,97.92h2.98c-.42.83-.77,1.62-1.21,2.35-.1.16-.51.16-.78.18-.31.03-.63,0-.99,0v-2.54Z"/>
  <path class="cls-1" d="m76.16,97.96v2.38c-1.44.36-1.66.26-2.27-.97-.22-.44-.44-.89-.69-1.41h2.97Z"/>
  <path class="cls-1" d="m94.04,97.96v2.5c-.47,0-.94.03-1.4-.01-.17-.02-.4-.15-.48-.3-.38-.69-.71-1.4-1.11-2.18h2.98Z"/>
  <path class="cls-1" d="m35.42,48.04c.35-4.25.7-8.45,1.06-12.68h20.65c.35,4.24.7,8.43,1.06,12.68h-22.76Z"/>
  <path class="cls-1" d="m34.05,82.57c-2.12,0-3.86-1.73-3.85-3.85.01-2.09,1.72-3.79,3.81-3.81,2.08-.02,3.83,1.69,3.85,3.77.02,2.13-1.69,3.88-3.81,3.89Zm-.02-5.1c-.68,0-1.26.56-1.28,1.25-.01.69.54,1.27,1.23,1.3.71.02,1.32-.57,1.32-1.29,0-.68-.58-1.25-1.27-1.26Z"/>
  <path class="cls-1" d="m86.41,78.75c-.02,2.12-1.76,3.84-3.88,3.81-2.08-.03-3.78-1.76-3.77-3.84,0-2.12,1.75-3.83,3.88-3.81,2.07.02,3.79,1.76,3.77,3.84Zm-2.56-.02c0-.68-.57-1.26-1.25-1.27-.68-.01-1.27.55-1.29,1.23-.02.72.58,1.32,1.29,1.31.69-.01,1.25-.59,1.25-1.27Z"/>
  <path class="cls-1" d="m34.03,77.47c.69,0,1.26.57,1.27,1.26,0,.72-.6,1.31-1.32,1.29-.68-.02-1.24-.61-1.23-1.3.01-.68.59-1.25,1.28-1.25Z"/>
  <path class="cls-1" d="m83.85,78.74c0,.69-.57,1.26-1.25,1.27-.71.01-1.31-.59-1.29-1.31.02-.68.61-1.25,1.29-1.23.69.01,1.25.59,1.25,1.27Z"/>
</svg>