<?xml version="1.0" encoding="UTF-8"?>
<svg id="Layer_1" data-name="Layer 1" xmlns="http://www.w3.org/2000/svg" viewBox="0 0 126.83 126.83">
  <defs>
    <style>
      .cls-1 {
        fill: #637481;
      }
    </style>
  </defs>
  <path class="cls-1" d="m52.76,86.46c0-.4,0-.75,0-1.09,0-10.69,0-21.38-.01-32.07,0-.67.22-1.09.65-1.62.53-.65,1-1.56,1.04-2.38.14-2.42.15-4.86,0-7.28-.06-.88-.74-1.71-1.13-2.57-.19-.41-.51-.82-.52-1.23-.06-1.62-.03-3.25-.03-4.94h42.64c0,1.82.02,3.65-.02,5.48,0,.21-.29.44-.48.61-.85.76-1.28,1.7-1.29,2.85,0,2.26,0,4.51,0,6.77,0,1.18.43,2.14,1.29,2.95.26.25.48.69.48,1.04.02,10.97.02,21.93.02,32.9,0,.17-.03.34-.05.58h-42.59Z"/>
  <path class="cls-1" d="m68.87,95.43c-13.46,0-26.93,0-40.39,0-4.26,0-7.59-2.1-8.88-5.77-.42-1.21-.58-2.58-.58-3.87-.03-19.54-.02-39.08-.02-58.63,0-2.43-.42-2.85-2.85-2.86-.28,0-.56,0-.83-.02-.95-.09-1.63-.78-1.66-1.69-.03-.85.56-1.74,1.44-1.77,2.35-.07,4.72-.1,7.06.05,1.26.08,2.04,1.19,2.12,2.47.03.41.02.83.02,1.25,0,20.34,0,40.68,0,61.02,0,3.21,1.26,4.46,4.48,4.46,26.93,0,53.86,0,80.79,0,1,0,1.96.07,2.7.83.69.71,1.09,1.54.79,2.55-.31,1.06-1.02,1.72-2.12,1.89-.48.07-.97.08-1.45.08-13.53,0-27.07,0-40.6,0Z"/>
  <path class="cls-1" d="m42.09,33.21c0,1.9.02,3.7-.02,5.49,0,.24-.3.51-.51.7-.81.75-1.25,1.66-1.25,2.76,0,2.32,0,4.65,0,6.97,0,1.1.46,1.99,1.24,2.77.28.28.53.74.53,1.12.03,10.93.02,21.86.02,32.79,0,.2-.03.41-.05.6-2.7.36-5.85-1.89-6.72-4.86-.24-.82-.34-1.71-.34-2.56-.02-12.73-.02-25.47,0-38.2,0-3.94,2.26-6.76,5.9-7.46.36-.07.74-.07,1.22-.11Z"/>
  <path class="cls-1" d="m106.07,33.27c3.86-.11,7.05,3.1,7.09,7.06.04,4.69.01,9.37.01,14.06,0,8.3.02,16.59,0,24.89-.01,4.05-3.06,7.18-7.09,7.21,0-.33,0-.66,0-1,0-10.76,0-21.52,0-32.28,0-.58.2-.97.57-1.44.54-.7,1.07-1.61,1.12-2.46.15-2.42.16-4.86,0-7.28-.06-.88-.72-1.72-1.13-2.57-.15-.32-.52-.61-.52-.92-.05-1.73-.02-3.46-.02-5.27Z"/>
  <path class="cls-1" d="m93.61,29.64h-3.55c0-1.14,0-2.27,0-3.39,0-.62.01-1.25,0-1.87-.05-2.06-1.48-3.59-3.54-3.6-8.29-.03-16.58-.03-24.87,0-2.14,0-3.53,1.54-3.58,3.78-.03,1.66,0,3.32,0,5.05h-3.47c-.03-.24-.08-.51-.09-.77,0-2.01-.03-4.02,0-6.04.04-3.36,2.3-5.58,5.67-5.59,9.26,0,18.52-.01,27.78,0,3.42,0,5.63,2.25,5.64,5.7,0,2.21,0,4.43,0,6.74Z"/>
  <path class="cls-1" d="m45.74,52.82h3.4v33.65h-3.4v-33.65Z"/>
  <path class="cls-1" d="m102.45,86.5h-3.4v-33.65h3.4v33.65Z"/>
  <path class="cls-1" d="m40.34,98.99c2.92.02,5.29,2.38,5.3,5.29.01,2.93-2.44,5.37-5.37,5.35-2.9-.02-5.27-2.4-5.29-5.32-.02-2.96,2.38-5.34,5.36-5.33Z"/>
  <path class="cls-1" d="m95.42,104.34c-.02-2.95,2.28-5.31,5.22-5.35,2.99-.04,5.4,2.31,5.43,5.27.03,2.93-2.42,5.38-5.35,5.38-2.91,0-5.27-2.37-5.3-5.3Z"/>
  <path class="cls-1" d="m50.9,42.17v6.97h-6.98v-6.97h6.98Z"/>
  <path class="cls-1" d="m97.22,42.16h6.96v6.99h-6.96v-6.99Z"/>
  <path class="cls-1" d="m49.16,33.29v5.19h-3.41v-5.19h3.41Z"/>
  <path class="cls-1" d="m99.05,33.26h3.4v5.22h-3.4v-5.22Z"/>
</svg>