<?xml version="1.0" encoding="UTF-8"?>
<svg id="Layer_2" data-name="Layer 2" xmlns="http://www.w3.org/2000/svg" viewBox="0 0 260.41 252.23">
  <defs>
    <style>
      .cls-1 {
        fill: #637481;
      }
    </style>
  </defs>
  <path class="cls-1" d="m240.61,127.39c-1.18,1.83-2.88,2.24-4.97,2.2-5.52-.11-11.05-.04-16.56-.04-1.55,45.67-39.56,83.8-85.56,85.55,0,5.51-.08,11.03.04,16.55.05,2.11-.45,3.78-2.2,5.01h-2.59c-1.75-1.22-2.25-2.89-2.2-5,.12-5.46.04-10.92.04-16.63-23.11-1.29-43.06-9.8-59.38-26.14-16.28-16.3-24.78-36.19-26.07-59.33-5.95,0-11.77.08-17.58-.07-1.14-.03-2.69-.6-3.29-1.46-.6-.86-.68-2.62-.18-3.54.5-.9,2-1.72,3.09-1.76,5.1-.18,10.21-.08,15.32-.08.78,0,1.57,0,2.62,0,1.29-23.1,9.79-43.05,26.12-59.38,16.3-16.29,36.19-24.78,59.34-26.08,0-4.06,0-8,0-11.95,0-1.73,0-3.45,0-5.18.01-2.98,1.17-4.47,3.45-4.47,2.29,0,3.44,1.49,3.45,4.48,0,5.67,0,11.34,0,17.01,44.69,1.27,83.78,38.91,85.55,85.58,5.52,0,11.04.07,16.57-.04,2.09-.04,3.79.38,4.97,2.2v2.59Zm-28.69-4.75c-1.76-44.6-39.02-77.55-78.39-78.3,0,.7,0,1.41,0,2.11,0,5.04.02,10.08,0,15.12-.01,2.59-1.28,4.07-3.42,4.09-2.14.02-3.46-1.46-3.47-4.03-.03-5.04,0-10.08,0-15.11,0-.76,0-1.52,0-2.28-45.41,1.91-77.7,39.93-78.27,78.42.7,0,1.41,0,2.11,0,5.04,0,10.08-.02,15.11,0,2.63.01,4.03,1.24,4.04,3.43.01,2.2-1.4,3.45-4,3.46-5.04.02-10.08,0-15.11,0-.76,0-1.52,0-2.29,0,1.9,45.44,39.88,77.63,78.41,78.29,0-.78,0-1.55,0-2.33,0-5.04-.02-10.08.01-15.11.02-2.45,1.28-3.82,3.41-3.84,2.14-.02,3.46,1.34,3.48,3.77.04,4.53.01,9.07.01,13.6,0,1.34,0,2.69,0,4.04,44.74-1.78,77.5-39.14,78.29-78.42-.78,0-1.55,0-2.32,0-5.11,0-10.22.11-15.32-.09-1.13-.04-2.65-.96-3.18-1.93-.49-.89-.29-2.7.35-3.52.65-.83,2.21-1.29,3.38-1.31,5.67-.13,11.35-.06,17.2-.06Z"/>
  <path class="cls-1" d="m148.52,98.45v5.07c9.13-.59,15.84,2.71,19.41,11.72h-75.76c3.61-8.91,10.23-12.33,19.43-11.69v-5.1c-3.03,0-6.02.01-9.02,0-3.25-.01-4.45-1.18-4.46-4.4-.02-6.12-.02-12.23,0-18.35,0-2.98,1.2-4.25,4.17-4.25,18.49-.03,36.98-.03,55.47,0,3.1,0,4.25,1.24,4.25,4.39.02,6.04.01,12.09,0,18.13,0,3.33-1.18,4.47-4.6,4.48-2.93,0-5.86,0-8.9,0Z"/>
  <path class="cls-1" d="m91.6,161.82v-39.41h76.85v39.41h-76.85Zm28.53-9.71c0,.61-.06,1.17.01,1.71.34,2.56,3.43,3.97,5.39,2.3,1.03-.88,1.88-.98,3.07-.75.9.17,1.89.18,2.79.01,1.25-.23,2.16-.08,3.3.73.83.59,2.67.64,3.51.1.92-.6,1.28-2.15,1.76-3.33.34-.83.36-1.79.71-2.61.39-.91,1.12-1.69,1.49-2.61.5-1.23,1.08-2.05,2.49-2.58,2.32-.87,2.51-4.18.52-5.7-.47-.36-1.02-.62-1.59-.95,3.81-2.51,4.62-3.8,3.55-5.83-.35-.66-1.04-1.63-1.56-1.62-1.84.03-3.67.43-5.56.7,0-.1.16-.61-.03-.92-.62-1.05-1.17-2.48-2.12-2.89-.94-.41-2.35.19-3.55.41-.83.15-1.64.52-2.47.6-.99.09-2.03-.18-3-.02-1.34.23-2.34.14-3.52-.81-.72-.58-2.45-.55-3.33-.07-.88.48-1.91,2-1.74,2.83.36,1.77-.41,2.79-1.29,4.01-.58.8-.91,1.79-1.41,2.65-.26.45-.59,1.07-1.02,1.19-1.8.54-2.88,1.58-2.88,3.53,0,1.97,1.29,2.91,2.97,3.51-4.08,3.01-4.67,4.03-3.55,6.12,1.16,2.16,2.42,2.22,7.06.3Z"/>
  <path class="cls-1" d="m92.3,168.93h75.35c-.93,5.46-6.98,10.78-13.14,11.57-1.21.16-2.44.24-3.66.24-13.89.02-27.77.03-41.66,0-7.75-.02-13.77-3.85-16.44-10.38-.16-.39-.25-.81-.44-1.43Z"/>
  <path class="cls-1" d="m136.48,142.42c-.97,5.07-4.83,7.28-9.22,5.33,3.12-1.8,6.04-3.49,9.22-5.33Z"/>
  <path class="cls-1" d="m132.9,136.5c-3.19,1.83-6.06,3.48-9.1,5.22.55-4.76,4.57-7.12,9.1-5.22Z"/>
</svg>