<?xml version="1.0" encoding="UTF-8"?>
<svg id="Layer_1" data-name="Layer 1" xmlns="http://www.w3.org/2000/svg" viewBox="0 0 127 127">
  <defs>
    <style>
      .cls-1 {
        fill: #707070;
      }
    </style>
  </defs>
  <path class="cls-1" d="m52.94,113.56c-1.55-.9-2.13-2.25-1.97-4.01.09-.97.02-1.95.02-3.07-.43,0-.8,0-1.18,0-6.29,0-12.58,0-18.86,0-2.67,0-3.82-1.15-3.82-3.8,0-12.28,0-24.57,0-36.85v-1.3c-.42,0-.76,0-1.11,0-1.99,0-3.97.01-5.96-.01-1.3-.01-2.23-.66-2.77-1.83-.54-1.18-.33-2.29.46-3.29.16-.2.35-.39.53-.58,14.14-14.61,28.27-29.22,42.41-43.82,2.02-2.08,3.6-2.08,5.63.02,2.61,2.69,5.21,5.38,7.82,8.08.22.23.41.5.61.76.09-.04.18-.07.27-.11,0-.76,0-1.52,0-2.28.02-2.02,1.29-3.29,3.31-3.3,5.41-.01,10.82,0,16.22,0,2.24,0,3.52,1.26,3.52,3.51,0,8.41.01,16.81-.01,25.22,0,.7.18,1.21.68,1.72,3.41,3.46,6.79,6.94,10.17,10.43,1.47,1.52,1.5,3.54-.03,4.71-.6.45-1.47.72-2.23.75-2.21.1-4.42.03-6.78.03v1.2c0,12.32,0,24.63,0,36.95,0,2.66-1.14,3.8-3.81,3.8-9.84,0-19.68,0-29.52,0-.39,0-.77,0-1.27,0,0,1.11-.07,2.15.02,3.17.15,1.74-.47,3.04-1.97,3.91h-10.36Zm28.54-48.54c0,.76.01,1.45,0,2.13-.04,1.9-1.3,3.22-3.19,3.22-12.09.01-24.17.01-36.26,0-1.9,0-3.18-1.3-3.19-3.21-.02-3.78-.02-7.56,0-11.34,0-1.97,1.29-3.25,3.25-3.25,12.05,0,24.1,0,36.16,0,1.88,0,3.19,1.32,3.23,3.19.02.87,0,1.75,0,2.63.36.09.64.16.93.23,6.18,1.41,10.21,7.71,8.9,13.9-1.21,5.71-5.9,9.52-11.82,9.56-4.69.03-9.38,0-14.07,0-3.01,0-4.63,2.09-3.89,5.03,2.79.32,3.67,1.3,3.67,4.12,0,2.18,0,4.36,0,6.55v2.37h28.41c0-.44,0-.82,0-1.2,0-12.28,0-24.56,0-36.84,0-2.71,1.14-3.84,3.88-3.84.57,0,1.14,0,1.9,0-.39-.43-.62-.7-.86-.94-1.81-1.87-3.61-3.76-5.46-5.6-.89-.89-1.28-1.88-1.27-3.14.03-7.65.01-15.31.01-22.97,0-.38,0-.76,0-1.16h-10.54c0,.36,0,.68,0,1,0,1.99.06,3.98-.03,5.96-.03.74-.25,1.58-.66,2.18-1.13,1.65-3.38,1.66-4.9.09-3.79-3.9-7.57-7.81-11.34-11.74-.26-.27-.4-.67-.64-1.07-12.19,12.6-24.08,24.9-36.15,37.38.86,0,1.44,0,2.02,0,2.64,0,3.81,1.18,3.81,3.81,0,12.31,0,24.63,0,36.94v1.15h17.6c0-.4,0-.74,0-1.09,0-2.83,0-5.67,0-8.5,0-2.03,1.22-3.28,3.26-3.38.28-.01.56-.05.88-.07,0-.4,0-.73,0-1.05.03-6.12,4.15-10.23,10.25-10.24,4.63,0,9.25,0,13.88-.01.64,0,1.31-.06,1.93-.22,2.41-.65,4.04-2.85,4.05-5.36,0-2.43-1.5-4.59-3.76-5.24Zm-6.3-6.14h-30.03v5.18h30.03v-5.18Zm-17.88,34.6v13.9h1.63v-13.9h-1.63Z"/>
</svg>