<?xml version="1.0" encoding="UTF-8"?>
<svg id="Layer_1" data-name="Layer 1" xmlns="http://www.w3.org/2000/svg" viewBox="0 0 127 127">
  <defs>
    <style>
      .cls-1 {
        fill: #637481;
      }
    </style>
  </defs>
  <path class="cls-1" d="m68.58,77.67c-.49.24-.97.61-1.48.7-6.14.96-10.03,4.4-11.96,10.32-.23.71-1.91,1.3-2.93,1.33-5.69.13-11.39.06-17.09.06-1.22,0-2.45,0-3.99,0,0,2.82-.05,5.2.02,7.57.06,2.04-.89,3.02-2.88,2.84-2.98-.26-6.97.4-8.62-1.24-1.55-1.55-.63-5.57-.81-8.8-3.76-.14-4.2-2.6-4.06-5.81.21-5,.26-10.03,0-15.03-.24-4.52,1.02-8.27,4.17-11.47.93-.95,1.69-2.08,3.15-3.91-2.57,0-4.29-.05-6.01.01-3.75.13-5.83-1.13-5.86-3.63-.03-2.21,2.59-4.28,5.64-4.47,3.05-.19,4.42,1.1,4.68,4.41.04.44.09.88.24,2.46,1.18-1.51,1.97-2.24,2.43-3.14,2.01-3.96,3.96-7.94,5.85-11.96,1.81-3.86,4.69-5.95,9.03-6.16,4.32-.21,8.64-.56,12.94-1.01,2.29-.24,3.47.5,3.51,3.18-4.82.39-9.65.98-14.49,1.1-4.27.11-6.99,1.88-8.66,5.8-1.81,4.24-3.94,8.36-6.19,13.07,6.06-.41,11.36-.91,16.67-1.09,8.53-.29,17.08-.49,25.61-.43,1.48.01,3.09,1.29,4.37,2.32,1.03.83,1.51,2.29,2.46,3.25,2.55,2.56,2.57,5.04.65,8.07-1.21,1.92-2.27,2.95-4.73,2.91-9.22-.16-18.45-.07-27.68-.07-1.19,0-2.39,0-3.73,0,1.32,2.81,2.4,5.13,3.72,7.96h25.89l.14.85Zm-39.76-.76s0,.04,0,.05c1.37,0,2.75.11,4.1-.03,1.73-.18,3.44-.56,5.16-.86-1.03-1.79-1.85-3.76-3.16-5.32-.8-.95-2.3-1.63-3.57-1.8-2.69-.36-5.44-.22-8.16-.45-2.77-.24-3.81.73-3.7,3.63.19,4.74.02,4.75,4.88,4.77,1.48,0,2.96,0,4.44,0Z"/>
  <path class="cls-1" d="m85.35,70.58c-8.11-11.32-15.44-22.81-24.17-33.1-3.52-4.15-6.41-8.15-8.16-13.12-.29-.83.19-1.93.31-2.9.95.24,2.04.27,2.83.77,1.33.85,2.45,2.02,3.7,3.01,2.4,1.91,5.03,3.63,4.95,7.25,0,.4.34.84.6,1.2,8.05,11.16,16.11,22.32,24.15,33.44,4.23-1.91,4.26-1.93,7.63,2.56,5.87,7.82,11.73,15.65,17.53,23.52,3.17,4.29,2.7,6.81-1.67,10.01-4.65,3.41-7.12,3.14-10.32-1.23-6.37-8.7-12.62-17.5-19.13-26.1-2.08-2.75,0-3.76,1.74-5.31Zm24.8,25.55c.47-.3,1.14-.54,1.13-.75-.03-.82-.05-1.81-.49-2.43-4.49-6.27-9.03-12.5-13.65-18.68-.49-.65-1.57-.87-2.38-1.28.08.98-.19,2.22.31,2.91,4.39,6.2,8.9,12.32,13.4,18.44.45.62,1.06,1.13,1.68,1.78Zm-3.31,2.07c-.45-.75-.75-1.35-1.15-1.89-4.41-6.06-8.8-12.14-13.3-18.14-.55-.73-1.73-.99-2.62-1.46.19,1.09.06,2.4.63,3.22,3.17,4.57,6.51,9.03,9.79,13.52,1.27,1.74,2.5,3.52,3.87,5.19.35.43,1.14.7,1.72.69.35,0,.68-.7,1.06-1.13Z"/>
  <path class="cls-1" d="m97.8,22.48c-1.09,2.96-2.83,5.74-2.88,8.55-.03,1.79,2.09,4.52,3.88,5.2,2.19.84,5.57.83,7.45-.37,1.93-1.23,2.66-4.33,3.94-6.67,4.1,6.08.7,15.87-6.42,17.65-3.98.99-6.27,3-7.87,6.59-1.7,3.83-3.86,7.45-6.08,11.64-2.32-3.2-4.48-6.06-6.46-9.03-.38-.58-.32-1.7-.05-2.41.57-1.48,1.31-2.91,2.18-4.24,2.41-3.69,3.25-7.16,1.52-11.75-2.48-6.55,3.05-13.76,10.79-15.17Z"/>
  <path class="cls-1" d="m78.16,63.33c.48.51.82.81,1.08,1.16,1.33,1.83,2.65,3.68,4.18,5.82-2.8,1.85-2.93,4-.91,6.57.43.54,0,2.17-.53,2.97-2.02,3.09-2.25,5.97-.88,9.57,2.66,6.96-2.56,14.5-11.29,15.95,4-5.08,5.77-10.73-.44-13.85-5.86-2.94-9.41,1.57-11.12,7.42-4.08-6.61-.87-16.22,6.03-17.9,4.42-1.08,6.75-3.49,8.46-7.35,1.55-3.49,3.52-6.79,5.41-10.36Z"/>
</svg>