<?xml version="1.0" encoding="UTF-8"?>
<svg id="Layer_2" data-name="Layer 2" xmlns="http://www.w3.org/2000/svg" viewBox="0 0 260.41 252.23">
  <defs>
    <style>
      .cls-1 {
        fill: #637481;
      }
    </style>
  </defs>
  <path class="cls-1" d="m46.63,201.75c0-.71,0-1.3,0-1.88,0-16.07,0-32.15,0-48.22,0-4.81,2.15-6.95,6.99-6.95,28.7,0,57.4,0,86.09,0,4.83,0,6.99,2.14,6.99,6.95,0,16.07,0,32.15,0,48.22v1.88H46.63Zm49.94-17.04c5.51.05,10.06-4.41,10.1-9.9.04-5.51-4.41-10.05-9.9-10.1-5.51-.04-10.06,4.41-10.1,9.9-.04,5.51,4.41,10.06,9.9,10.1Z"/>
  <path class="cls-1" d="m153.84,90.04c-26.8-3.34-53.46-3.32-80.34.02.87-2.32,1.59-4.39,2.45-6.4.16-.38.89-.8,1.3-.74,11.11,1.55,21.42-1.41,31.31-5.95,5.6-2.57,10.86-5.88,16.28-8.87.16-.09.3-.19.45-.29.88-.63,1.99-1.26,1.07-2.54-.83-1.15-1.74-.4-2.64.11-5.29,2.96-10.47,6.16-15.94,8.74-8.63,4.07-17.66,6.9-27.38,6.19-2.69-.2-5.48-.73-7.97-1.74-10.08-4.1-11.99-16.69-3.72-23.73,4.08-3.47,8.95-4.88,14.17-5.15,2.49-.13,5.02-.08,7.48.27,4.92.71,9.73-.39,14.59-.55,12.47-.39,24.91-.53,37.02,3.08,2.38.71,4.72,1.67,6.92,2.82,8.05,4.23,10.9,10.83,8.32,19.55-.9,3.05-2.26,6.01-3.73,8.85-.85,1.64-1.2,3.01-.27,4.64.26.45.38.98.64,1.68Z"/>
  <path class="cls-1" d="m131.03,98.32c1.68,2.78,3.49,4.83,6.17,6.05.47.22.88,1.13.89,1.73.04,10.18.11,20.36-.03,30.53-.07,5.21-.24,5.21-5.27,5.21-13.51,0-27.03-.02-40.54.03-1.29,0-2-.29-2.13-1.66-.15-1.71-.56-3.42-.57-5.12-.06-9.34.01-18.69-.06-28.03-.02-1.83.71-2.37,2.38-2.81,3.05-.82,6-2.05,9.09-3.14,0,1.12,0,2.46,0,3.8,0,2.41.42,2.81,2.85,2.59,5.3-.49,9.58-2.98,13.14-6.83.8-.87,1.54-1.8,2.52-2.95.96,1.91,1.85,3.68,2.73,5.45.48.96.88,1.97,1.46,2.85.39.59,1.03,1.38,1.58,1.39.54.01,1.29-.73,1.63-1.32,1.41-2.46,2.7-4.99,4.17-7.76Zm-28.66,20.71c.02-2.35-1.26-4.31-2.83-4.33-1.58-.02-2.88,1.93-2.87,4.29,0,2.36,1.34,4.3,2.92,4.24,1.52-.06,2.76-1.93,2.78-4.2Zm22.89-.1c-.01,2.36,1.29,4.31,2.86,4.3,1.57,0,2.86-1.97,2.84-4.32-.02-2.27-1.25-4.15-2.77-4.21-1.59-.07-2.92,1.86-2.93,4.23Z"/>
  <path class="cls-1" d="m69.8,99.82c.91-2.37,1.15-4.97,2.58-6.18,1.38-1.17,3.97-1.05,6.05-1.27,15.11-1.57,30.26-2.53,45.45-1.74,9.92.52,19.81,1.5,29.72,2.22,1.12.08,1.7.49,2.06,1.54.59,1.73,1.33,3.41,2.13,5.42-2.14.68-4.12,1.44-6.18,1.92-2.16.51-2.27.88-1.46,3.03,1.2,3.2,2.32,6.47,3.04,9.8.35,1.62-.29,3.45-.79,5.29-1.89-5.58-6.05-7.14-11.41-6.94,0-2.32-.05-4.5.01-6.69.07-2.22-1-3.54-2.83-4.74-1.63-1.07-3.01-2.6-4.27-4.12-.88-1.06-1.63-2.05-3.13-1.99-1.52.07-2.29,1.07-2.9,2.31-.78,1.6-1.59,3.18-2.6,5.19-1.08-2.16-1.98-4.03-2.94-5.88-.93-1.79-2.37-2.53-3.91-1.85-.76.34-1.44,1.04-1.97,1.71-3.1,3.89-6.78,6.83-11.85,7.63-.17.03-.35.02-.76.04,0-2.08.08-4.13-.04-6.18-.04-.72-.4-1.69-.94-2.04-.36-.24-1.42.26-1.96.68-2.96,2.31-6.2,3.93-9.94,4.56-3.08.52-4.25,2.01-4.27,5.15,0,2.01,0,4.03,0,6.18-5.31-.15-9.55,1.34-11.15,7.15-1.52-2.74-1.48-5.36-.77-7.9.72-2.56,1.75-5.04,2.79-7.49.84-1.98.62-2.42-1.43-2.91-2.06-.49-4.06-1.23-6.3-1.93Z"/>
  <path class="cls-1" d="m146.7,204.86c0,2.33,0,4.53,0,6.73,0,1.18-.63,1.73-1.79,1.72-.42,0-.83,0-1.25,0-31.33,0-62.66,0-93.98,0-2.95,0-3.04-.08-3.04-2.98,0-1.78,0-3.56,0-5.46h100.07Z"/>
  <path class="cls-1" d="m186.86,173.12c3.21-1.54,4.66-3.95,4.04-6.72-.58-2.6-2.87-4.49-5.49-4.54-2.65-.05-4.95,1.71-5.65,4.33-.66,2.44.46,5.13,2.84,6.33,1.01.51,1.35,1.04,1.3,2.15-.1,2.2-.04,4.4-.05,6.61,0,.11-.05.23-.13.58-1.88,0-3.82.04-5.76-.04-.34-.01-.75-.51-.97-.88-2.23-3.66-4.45-7.32-6.61-11.02-.25-.42-.35-1.2-.13-1.58,4.91-8.28,9.87-16.54,14.97-25.03.44.64.78,1.08,1.07,1.56,4.56,7.6,9.1,15.22,13.71,22.79.62,1.01.62,1.71,0,2.71-2.15,3.43-4.14,6.95-6.31,10.37-.35.56-1.23,1.02-1.92,1.09-1.59.16-3.2.05-4.92.05v-8.74Z"/>
  <path class="cls-1" d="m149.57,213.31v-25.98c7.99,2.05,15.43,4.88,20.17,12.01,1.07,1.6,1.11,3.92,1.49,5.94.38,2.04.52,4.13.89,6.17.25,1.4-.39,1.84-1.6,1.85-2.32.02-4.64.01-6.96.01-4.63,0-9.26,0-13.99,0Z"/>
  <path class="cls-1" d="m209.78,143.29h4v11.31h-11.17v-11.25h4.06c-1.1-1.74-1.93-3.23-2.91-4.6-3.05-4.24-6.89-7.51-11.73-9.61-4.52-1.96-8.96-1.96-13.48.02-6.5,2.85-11.03,7.67-14.46,14.07h3.96v11.33h-11.22v-11.09c.13-.07.24-.18.33-.16,2.79.51,4.14-.84,5.5-3.26,4.55-8.03,11.18-13.55,20.54-15.13,4.83-.82,9.16.92,13.25,3.25,6.12,3.48,10.23,8.79,13.33,15.12Z"/>
  <path class="cls-1" d="m197.86,196.26c-.85,5.68-1.68,11.26-2.53,16.94h-20.05c-.84-5.6-1.68-11.22-2.53-16.94h25.1Z"/>
  <path class="cls-1" d="m198.17,193.23h-25.7c0-2.13-.1-4.2.04-6.25.1-1.43,1.1-2.23,2.55-2.24,6.85-.02,13.69-.04,20.54,0,1.62.01,2.52,1,2.56,2.61.05,1.9.01,3.79.01,5.86Z"/>
  <path class="cls-1" d="m86.61,116.02v17.02c-2.84-.38-5.2-1.45-6.78-3.79-2.07-3.08-2.31-6.46-1.02-9.88,1.05-2.78,4.02-4,7.8-3.34Z"/>
  <path class="cls-1" d="m141.12,116.03c4.82-.95,8.1,1.5,8.42,6.23.4,5.91-2.84,10.1-8.42,10.71v-16.94Z"/>
  <path class="cls-1" d="m93.83,47.46c-1.38-.16-2.88-.24-4.33-.54-.49-.1-1.07-.7-1.24-1.2-.64-1.94.43-4.49,2.29-5.76,2.09-1.43,4.7-1.38,6.66.12,1.86,1.42,2.8,3.88,2.08,5.83-.18.48-.8,1.03-1.3,1.13-1.33.26-2.71.3-4.16.43Z"/>
  <path class="cls-1" d="m185.34,164.73c1.55.02,2.83,1.33,2.81,2.88-.02,1.55-1.34,2.83-2.88,2.81-1.55-.02-2.83-1.34-2.8-2.88.02-1.55,1.33-2.83,2.88-2.8Z"/>
  <path class="cls-1" d="m103.81,174.78c-.03,3.92-3.28,7.11-7.21,7.08-3.93-.03-7.11-3.28-7.07-7.21.03-3.93,3.27-7.11,7.21-7.07,3.93.03,7.11,3.27,7.07,7.21Z"/>
</svg>