<?xml version="1.0" encoding="UTF-8"?>
<svg id="Layer_2" data-name="Layer 2" xmlns="http://www.w3.org/2000/svg" viewBox="0 0 260.41 252.23">
  <defs>
    <style>
      .cls-1 {
        fill: #637481;
      }
    </style>
  </defs>
  <g>
    <path class="cls-1" d="m195.99,81.74c-.4,2-.58,4.09-1.26,5.99-1.39,3.89-3.07,7.68-4.6,11.52-.29.71-.76.89-1.49.89-7.58-.02-15.16-.03-22.74,0-.87,0-1.18-.39-1.48-1.07-3.49-7.99-7-15.98-10.5-23.97-.17-.39-.35-.77-.62-1.36-.3.59-.53,1-.72,1.43-3.36,7.35-6.74,14.69-10.05,22.07-.46,1.03-1.02,1.34-2.11,1.32-3.34-.08-6.68.01-10.02-.05-.96-.02-1.44.32-1.86,1.15-1.55,3.05-3.17,6.07-4.77,9.09-.22.41-.45.8-.83,1.48-4.27-12.01-8.45-23.77-12.73-35.83-.33.66-.56,1.09-.76,1.53-3.39,7.48-6.78,14.95-10.14,22.45-.36.81-.78,1.12-1.7,1.12-8.69-.04-17.39-.04-26.08,0-.84,0-1.29-.24-1.67-1-2.94-5.73-5.15-11.68-5.39-18.18-.64-16.94,10.57-31.83,27.05-36.06,14.17-3.64,29.42,1.96,37.88,13.92.22.31.45.62.77,1.07.27-.33.51-.59.72-.88,8.42-11.24,19.63-16.4,33.62-14.89,15.92,1.73,28.64,14.23,31.03,30.08.14.93.31,1.85.47,2.77v5.4Z"/>
    <path class="cls-1" d="m121.56,129.44c1.08-2.04,2.02-3.81,2.96-5.58,2.87-5.45,5.78-10.88,8.6-16.36.51-.99,1.09-1.3,2.18-1.27,3.47.07,6.94,0,10.41.05.86.01,1.29-.26,1.64-1.04,1.69-3.79,3.43-7.55,5.16-11.32.17-.38.37-.75.65-1.32.56,1.28,1.04,2.35,1.51,3.43,1.53,3.48,3.1,6.95,4.56,10.47.42,1.02.94,1.39,2.06,1.38,7.19-.05,14.39-.03,21.59-.03h1.86c-1.53,1.98-2.8,3.73-4.17,5.39-10.51,12.74-22.91,23.43-36.15,33.19-4.37,3.22-8.92,6.21-13.37,9.34-.61.43-1.05.44-1.69.02-14.99-9.87-29.11-20.82-41.66-33.71-4.45-4.57-8.62-9.39-12.44-14.88.62,0,1.06,0,1.5,0,8.57,0,17.13-.02,25.7.03,1.03,0,1.48-.32,1.88-1.25,1.56-3.61,3.22-7.17,4.97-11.02,4.11,11.57,8.14,22.9,12.26,34.49Z"/>
  </g>
  <path class="cls-1" d="m51.97,172.35c0-.81,0-1.47,0-2.13,0-3.36,0-6.73,0-10.09,0-3.54,2.63-6.2,6.18-6.22,3.97-.02,7.93,0,11.9,0,2.93,0,5,1.41,6.09,4.14.04.1.07.21.3.28,0-1.25,0-2.51,0-3.76.01-4.3,2.51-6.8,6.8-6.79,3.78,0,7.55,0,11.33,0,3.79,0,6.4,2.59,6.41,6.4.02,5.65,0,11.3,0,16.94,0,.37,0,.74,0,1.16h58.46v-1.12c0-5.58,0-11.17,0-16.75,0-4.12,2.52-6.62,6.66-6.62,3.81,0,7.61,0,11.42,0,3.81,0,6.41,2.59,6.41,6.38,0,1.45,0,2.89,0,4.62.19-.38.27-.5.32-.63,1.05-2.79,3.13-4.23,6.11-4.23,3.9,0,7.8,0,11.71,0,3.74,0,6.37,2.59,6.39,6.32.02,3.65,0,7.3,0,10.95,0,.34,0,.68,0,1.13h12.19v12.24h-12.18c0,.45,0,.78,0,1.12,0,3.62,0,7.23,0,10.85-.01,3.85-2.6,6.44-6.46,6.45-3.84.01-7.68,0-11.52,0-3.16,0-5.15-1.41-6.28-4.4-.03-.08-.1-.15-.28-.41,0,1.65,0,3.11,0,4.57,0,3.74-2.61,6.34-6.34,6.34-3.93,0-7.87,0-11.8,0-3.75,0-6.34-2.58-6.35-6.34-.02-5.55,0-11.11,0-16.66v-1.47h-58.41c-.02.33-.04.66-.04,1,0,5.58,0,11.17,0,16.75,0,4.25-2.48,6.72-6.75,6.72-3.74,0-7.49,0-11.23,0-3.97,0-6.53-2.54-6.57-6.54-.01-1.33,0-2.66,0-3.99-.11,0-.2,0-.21.02-1.14,2.99-3.18,4.4-6.39,4.4-3.74,0-7.49,0-11.23,0-4.13,0-6.65-2.53-6.65-6.63,0-3.87,0-7.74,0-11.73h-12.23v-12.25h12.23Z"/>
</svg>