<?xml version="1.0" encoding="UTF-8"?>
<svg id="Layer_1" data-name="Layer 1" xmlns="http://www.w3.org/2000/svg" viewBox="0 0 127 127">
  <defs>
    <style>
      .cls-1 {
        fill: #707070;
      }
    </style>
  </defs>
  <g>
    <path class="cls-1" d="m99.51,54.55c-.71-2.76-1.66-5.38-2.91-7.89-2.49-4.96-6.01-9.1-10.38-12.49-5.41-4.21-11.53-6.69-18.35-7.52-6.23-.76-12.27.03-18.05,2.32-5.98,2.36-11.06,6.09-15.09,11.14-1.19,1.49-2.18,3.12-3.28,4.68-.14.2-.37.47-.56.48-1.99.03-3.97.02-6.09.02.14-.33.23-.57.35-.79,6.12-11.84,15.59-19.59,28.57-22.65,12.01-2.83,23.3-.72,33.62,6.11,5.95,3.94,10.55,9.15,13.91,15.43,1.91,3.57,3.29,7.35,4.12,11.33.05.26.4.53.68.67,2.95,1.5,4.88,3.8,5.66,7.05.44,1.82.19,3.63.04,5.45-.05.67-.11,1.34-.21,2.01-.12.8-.6,1.22-1.38,1.15-3.43-.31-6.86-.64-10.29-.96-2.52-.24-5.04-.47-7.55-.72-.88-.09-1.38-.58-1.31-1.42.14-1.72.2-3.46.55-5.13.87-4.11,3.41-6.79,7.42-8.05.15-.05.3-.11.54-.21Z"/>
    <path class="cls-1" d="m100.3,85.43c-.83,1.22-1.61,2.47-2.5,3.64-6.28,8.33-14.47,13.81-24.64,16.16-10,2.31-19.68,1.16-28.88-3.45-2.86-1.43-5.51-3.2-8-5.25-5.07-4.17-8.91-9.23-11.67-15.14-.8-1.72-1.37-3.56-2.02-5.35-.15-.42-.34-.69-.8-.89-4.13-1.8-6.41-4.91-6.62-9.46-.05-1.18-.09-2.37-.13-3.55-.04-1.36.36-1.78,1.74-1.83,3.74-.12,7.48-.24,11.22-.35,2.02-.06,4.04-.12,6.06-.17,1.18-.03,1.61.4,1.62,1.59.02,1.83.22,3.68-.02,5.47-.54,4.15-2.94,6.93-6.84,8.43-.1.04-.2.08-.3.12-.02,0-.04.04-.18.17.53,1.24,1.04,2.56,1.64,3.84,3.46,7.28,8.75,12.87,15.81,16.72,6.8,3.71,14.1,5.11,21.82,4.25,7.2-.8,13.6-3.51,19.23-8.04,2.38-1.92,4.48-4.11,6.29-6.58.3-.41.61-.59,1.13-.58,1.96.03,3.92.01,5.87.01.05.07.1.15.15.22Z"/>
    <path class="cls-1" d="m97.44,70.85c-.22,2.25-.42,4.41-.66,6.57-.08.72-.69,1.14-1.37,1.08-.72-.07-1.24-.61-1.19-1.37.09-1.39.25-2.78.38-4.17.07-.75.16-1.49.24-2.34.85.08,1.66.15,2.6.24Z"/>
    <path class="cls-1" d="m107.28,71.78c-.22,2.25-.41,4.39-.65,6.53-.08.73-.65,1.14-1.35,1.09-.69-.05-1.26-.55-1.21-1.26.16-2.17.38-4.33.59-6.6.89.08,1.71.16,2.62.24Z"/>
    <path class="cls-1" d="m31.31,58.85h-2.52c0-2.23-.04-4.48.02-6.72.02-.64.52-1.05,1.22-1.04.72.01,1.24.43,1.26,1.12.06,2.17.02,4.34.02,6.65Z"/>
    <path class="cls-1" d="m21.44,59.16h-2.52c0-1.1,0-2.21,0-3.33-.01-1.02-.07-2.04-.07-3.06,0-.83.5-1.36,1.25-1.38.71-.02,1.31.44,1.32,1.22.04,2.14.02,4.28.02,6.55Z"/>
  </g>
  <path class="cls-1" d="m51.21,90.06c1.34-3.52,2.68-7.04,4.01-10.56,1.33-3.51,2.65-7.02,3.99-10.59h-10.53c9.49-9.42,18.89-18.76,28.4-28.2-2.5,7.21-4.95,14.29-7.42,21.41h10.53c-9.67,9.38-19.27,18.69-28.86,28-.04-.02-.07-.04-.11-.07Z"/>
</svg>