<?xml version="1.0" encoding="UTF-8"?>
<svg id="Layer_1" data-name="Layer 1" xmlns="http://www.w3.org/2000/svg" viewBox="0 0 126.83 126.83">
  <defs>
    <style>
      .cls-1 {
        fill: #637481;
      }
    </style>
  </defs>
  <path class="cls-1" d="m43.65,49.07c0,.36,0,.72,0,1.07,0,16.34,0,32.68,0,49.01,0,2.19-1.01,3.77-2.8,4.41-2.76.99-5.6-1.01-5.61-4.02-.03-7.65,0-15.3-.01-22.95,0-2.53,0-5.07,0-7.67h-1.59c0,.37,0,.75,0,1.14,0,9.76,0,19.51,0,29.27,0,2.53-1.73,4.4-4.05,4.45-2.51.05-4.36-1.75-4.36-4.32-.01-6.98,0-13.97,0-20.95,0-1.26,0-2.52,0-3.99-1.96,1.32-3.78,2.54-5.69,3.83-2.41-3.55-4.79-7.07-7.26-10.71,1.44-.98,2.83-1.93,4.23-2.87l.24.23c-.04,1.77-2.12,1.75-2.96,3.04,1.94,2.87,3.95,5.84,6.02,8.89,3.81-2.58,7.56-5.12,11.42-7.74-2.03-3-4.04-5.97-6.09-9-.5.31-.94.58-1.43.88-.26-.75-.1-1.28.58-1.59.77-.35.96-.93.95-1.76-.06-2.92-.02-5.85-.02-8.78-.11-.02-.21-.05-.32-.07-.42,1.58-.95,3.15-1.25,4.76-.87,4.65-.94,9.36-.72,14.08.04.87.12,1.74.08,2.6-.06,1.4-1.22,2.51-2.6,2.57-1.36.06-2.69-.99-2.77-2.37-.41-6.78-.49-13.56,1.18-20.22.58-2.31,1.43-4.52,2.87-6.45,1.76-2.37,4.03-3.68,7.09-3.61,3.84.09,7.68.06,11.53,0,2.68-.04,4.78,1.04,6.45,3.06,2.13,2.57,3.1,5.65,3.73,8.86,1.18,5.98,1.13,12.02.79,18.07-.09,1.59-1.36,2.73-2.83,2.66-1.51-.07-2.6-1.26-2.59-2.88,0-3.54.12-7.08,0-10.62-.1-3.41-.59-6.78-1.82-10-.05-.12-.12-.23-.19-.34-.06,0-.13,0-.19.01Zm-10.53-1.76c-.04.1-.09.16-.09.22-.59,4.29-1.19,8.58-1.77,12.87-.03.22-.05.52.07.67.99,1.31,2.02,2.6,3.09,3.96.91-1.15,1.69-2.19,2.54-3.17.55-.63.74-1.23.56-2.08-.25-1.1-.31-2.24-.46-3.36-.41-3.03-.83-6.06-1.25-9.12-.49.05-.91.14-1.34.14-.43,0-.86-.08-1.34-.13Zm0-4.22c-.19.74-.38,1.41-.51,2.09-.04.22.01.54.15.68.7.74,2.65.74,3.31,0,.13-.14.19-.41.17-.61-.17-2.05-.39-2.24-2.44-2.21-.2,0-.39.02-.69.04Z"/>
  <path class="cls-1" d="m104.83,72.2v15.54h5.28v1.55H45.73v-15.19c.27.13.47.23.68.32,2.26,1.06,4.65.41,6.12-1.62.23-.31.71-.63,1.08-.63,16.84-.03,33.67-.03,50.51-.03.19,0,.39.02.71.04Z"/>
  <path class="cls-1" d="m53.12,42.35c-1.04-3.39-2.01-6.58-3.02-9.75-.11-.35-.43-.78-.74-.88-.23-.07-.69.26-.92.52-1.66,1.88-3.32,3.75-4.89,5.7-.68.84-1.39.28-2.1.29,0-.29-.13-.69.02-.84,1.89-2.08,2.76-4.53,2.65-7.45,23.78,6,46.84,4.1,69.24-5.71.05.08.1.15.15.23-.23.18-.48.34-.68.55-.29.3-.55.62-.8.95-.13.17-.19.45-.36.55-2.29,1.42-4.59,2.82-7.05,4.31-.54-.62-.97-1.18-1.47-1.67-.5-.48-1.17-.25-1.34.41,0,.03-.01.07-.01.1.09,2.24-1.19,3.3-3.19,3.85-.99.27-1.91.8-2.89,1.11-.28.09-.77-.03-.97-.24-.69-.72-1.28-1.54-1.95-2.28-.19-.21-.58-.44-.79-.38-.28.08-.58.4-.68.69-.39,1.17-.67,2.37-1.08,3.54-.12.34-.47.73-.81.84-1.23.42-2.5.71-3.74,1.11-.53.17-.78.03-1.05-.4-.7-1.1-1.42-2.19-2.19-3.23-.28-.38-.74-.62-1.12-.92-.3.39-.7.73-.89,1.17-.66,1.46-1.21,2.97-1.88,4.42-.16.35-.58.73-.95.82-2.9.71-2.91.7-4.36-1.93-.6-1.08-1.13-2.19-1.75-3.26-.17-.29-.56-.64-.84-.64-.28,0-.64.37-.81.67-1.16,2.06-2.33,4.12-3.4,6.24-.46.92-1.23.88-1.95.79-.35-.04-.76-.53-.93-.91-.93-2.1-1.78-4.24-2.71-6.35-.18-.4-.53-.87-.9-.97-.24-.07-.74.4-.97.73-1.77,2.47-3.5,4.96-5.25,7.44-.13.19-.28.36-.62.77Z"/>
  <path class="cls-1" d="m112.27,37.83c-2.02-1.12-3.99-2.22-5.97-3.32-.47-.26-.99-.46-1.39-.8-.99-.85-1.92-.49-2.79.12-.27.19-.43.64-.49,1-.44,2.77-.84,5.54-1.26,8.32-.02.15-.1.3-.19.55-2.34-1.86-4.6-3.67-6.87-5.48-1.15-.92-2.61-.43-3.02,1.02-.78,2.79-1.56,5.58-2.33,8.35-1.53-1.48-3.05-2.93-4.55-4.39-.6-.58-1.21-1.16-1.75-1.79-.43-.5-.84-.54-1.48-.44-.99.15-1.46.61-1.78,1.54-.9,2.61-1.91,5.19-2.93,7.93-.75-.9-1.43-1.7-2.1-2.51-1.22-1.47-2.42-2.94-3.64-4.4-.79-.95-1.98-.82-2.51.28-1.13,2.35-2.24,4.7-3.36,7.04-.16.33-.33.65-.58,1.13-.36-.51-.65-.92-.94-1.34-1.38-2.01-2.78-4.01-4.12-6.04-.36-.54-.73-.74-1.39-.71-1.83.09-3.67.11-5.51.12-.23,0-.47-.21-.7-.32.22-.13.44-.35.68-.36,5.8-.37,11.63-.44,17.38-1.14,15.15-1.84,29.62-5.91,42.65-14.22.87-.56,1.7-1.18,2.58-1.73.17-.11.44-.06.67-.08-.09.21-.18.42-.28.62-.01.03-.05.04-.08.05-1.88.75-2.09,2.23-1.97,4.04.15,2.26.04,4.54.04,6.96Z"/>
  <path class="cls-1" d="m26.78,30.65c0-4.23,3.42-7.65,7.64-7.65,4.22,0,7.66,3.42,7.66,7.63,0,4.29-3.42,7.71-7.69,7.69-4.24-.02-7.61-3.42-7.6-7.67Z"/>
  <path class="cls-1" d="m100.21,70.83h-15.09v-3.76h15.09v3.76Z"/>
  <path class="cls-1" d="m63.76,67.08v3.75h-10.49c.07-1.26.13-2.47.19-3.75h10.29Z"/>
  <path class="cls-1" d="m24.43,63.57c1.11,1.58,2.22,3.16,3.31,4.75.11.17.07.44.11.66-.23-.1-.54-.15-.66-.32-1.03-1.43-2.04-2.88-3.03-4.34-.13-.19-.08-.49-.11-.74.13,0,.26,0,.39,0Z"/>
  <path class="cls-1" d="m25.76,70.5c-.31.06-.64.19-.68.13-.58-.91-1.64-1.59-1.41-3.11.73,1.04,1.36,1.95,2.08,2.97Z"/>
</svg>