<?xml version="1.0" encoding="UTF-8"?>
<svg id="Layer_1" data-name="Layer 1" xmlns="http://www.w3.org/2000/svg" viewBox="0 0 127 127">
  <defs>
    <style>
      .cls-1 {
        fill: #637481;
      }
    </style>
  </defs>
  <path class="cls-1" d="m79.4,97.58h-31.77c-.01.15-.03.29-.03.43,0,.71,0,1.42,0,2.13-.01,2.04-1.54,3.55-3.58,3.55-3.02,0-6.03,0-9.05,0-2.09,0-3.6-1.49-3.62-3.6-.01-1.14,0-2.28-.01-3.42,0-.15-.1-.38-.23-.44-2.29-1.22-3.41-3.22-3.81-5.7-.34-2.1-.22-4.2.07-6.29.34-2.47.72-4.94,1.44-7.33.63-2.08,1.51-4.03,3.08-5.58.66-.65,1.44-1.2,2.21-1.72.36-.24.59-.48.72-.89,1.17-3.41,2.37-6.81,3.56-10.21,1.62-4.64,5.8-7.6,10.71-7.6,1.19,0,2.39,0,3.58,0,.25,0,.38-.06.45-.32.57-2.03,2.18-3.26,4.29-3.28,1.21-.01,2.41-.01,3.62,0,.34,0,.43-.11.44-.43.04-1.22.1-2.44.17-3.66.02-.33-.08-.49-.38-.65-1.77-.95-2.64-2.91-2.2-4.87.43-1.9,2.07-3.27,4.05-3.39,1.94-.12,3.73,1.07,4.4,2.93.73,2.04-.13,4.29-2.07,5.33-.3.16-.39.33-.37.65.07,1.23.13,2.46.17,3.7.01.3.1.39.4.39,1.26-.01,2.52,0,3.78,0,2.22,0,3.8,1.18,4.43,3.31.08.26.21.29.43.29,1.22,0,2.44,0,3.66,0,4.84,0,9.05,3.02,10.64,7.59,1.21,3.5,2.44,6.99,3.66,10.48.06.17.19.37.34.45,2.43,1.29,3.96,3.35,4.99,5.84.81,1.96,1.2,4.03,1.57,6.1.46,2.55.83,5.11.68,7.71-.07,1.29-.3,2.55-.83,3.75-.63,1.44-1.62,2.55-3.01,3.29-.3.16-.38.34-.38.66.02,1.07.01,2.15,0,3.22,0,2.2-1.5,3.68-3.7,3.68-2.98,0-5.95,0-8.93,0-2.11,0-3.62-1.51-3.63-3.63,0-.82,0-1.63,0-2.49Zm7.57-29.09c-.05-.17-.08-.27-.12-.37-.94-2.68-1.86-5.37-2.81-8.05-.96-2.69-3.3-4.33-6.15-4.34-9.6,0-19.2,0-28.8,0-2.84,0-5.19,1.66-6.14,4.34-.94,2.65-1.86,5.31-2.79,7.97-.05.13-.08.27-.13.44h46.94Zm-45.48,19.23s0-.06.01-.1c.27,0,.54,0,.8,0,1.37,0,2.74.06,4.08-.3,1.68-.46,2.06-1.58,1.01-2.98-.09-.12-.17-.25-.28-.34-.54-.47-1.06-.99-1.65-1.4-2.25-1.54-4.78-2.4-7.44-2.88-1.5-.27-3-.43-4.51-.17-2.33.39-3.41,1.78-3.16,4.06.02.23.08.45.13.67.22.9.74,1.58,1.58,1.97.58.27,1.19.54,1.82.62,2.54.32,5.08.57,7.62.85Zm43.47-.04c2.43-.19,4.36-.28,6.28-.5,1.08-.12,2.17-.37,3.21-.7,1.33-.41,2.05-1.41,2.21-2.79.04-.31.05-.61.05-.92,0-1.23-.59-2.12-1.66-2.69-1.06-.57-2.22-.7-3.4-.65-2.4.09-4.73.62-6.96,1.51-1.7.68-3.33,1.52-4.6,2.87-.42.44-.75,1.01-.99,1.58-.25.58,0,1.17.54,1.5.38.23.82.45,1.26.49,1.51.16,3.04.24,4.06.31Zm-21.57-50.63c-.92,0-1.67.72-1.68,1.63-.02.93.74,1.7,1.66,1.7.9,0,1.66-.75,1.67-1.66,0-.9-.74-1.66-1.65-1.67Z"/>
  <path class="cls-1" d="m16.59,80.58c.07-6.35,1.81-11.65,5.32-16.35.62-.84,1.72-.87,2.29-.09.38.51.37,1.17-.04,1.72-1.09,1.47-2.03,3.03-2.77,4.7-1.68,3.83-2.31,7.82-1.88,11.98.02.21.05.43.06.64.03.75-.51,1.39-1.22,1.45-.77.06-1.43-.41-1.52-1.18-.13-1.12-.19-2.24-.24-2.87Z"/>
  <path class="cls-1" d="m110.41,80.63c-.04.54-.1,1.58-.21,2.62-.1.94-.74,1.47-1.59,1.37-.78-.09-1.26-.77-1.16-1.68.26-2.23.23-4.44-.13-6.65-.63-3.83-2.13-7.29-4.45-10.4-.69-.92-.27-2.09.8-2.28.6-.11,1.07.14,1.43.62,1.52,2.03,2.74,4.23,3.63,6.6,1.12,2.99,1.67,6.09,1.68,9.8Z"/>
  <path class="cls-1" d="m63.47,23.3c2.73.07,5.37.52,7.94,1.4,1.01.35,1.36,1.44.73,2.22-.38.46-.96.62-1.61.4-1.57-.52-3.17-.89-4.82-1.06-3.1-.33-6.12.04-9.08,1.01-.15.05-.31.11-.46.13-.73.11-1.4-.32-1.57-1.01-.18-.71.18-1.46.91-1.66,1.35-.38,2.71-.77,4.09-1.02,1.27-.23,2.58-.29,3.87-.42Z"/>
  <path class="cls-1" d="m22.16,79.74c-.02-4.01,1.13-7.68,3.34-11.03.5-.75,1.34-.96,2.02-.5.66.45.79,1.29.3,2.03-1.99,3-2.98,6.3-2.93,9.91,0,.35.04.7.05,1.04.01.8-.55,1.42-1.31,1.46-.78.04-1.42-.53-1.46-1.34-.03-.52,0-1.04,0-1.57Z"/>
  <path class="cls-1" d="m104.85,79.73c0,.48.02.97,0,1.45-.04.91-.64,1.51-1.47,1.47-.81-.04-1.37-.7-1.31-1.61.15-2.32-.14-4.57-.89-6.77-.5-1.45-1.2-2.81-2.04-4.09-.37-.57-.34-1.25.07-1.72.39-.46,1.07-.63,1.61-.35.26.14.51.36.67.61,2.22,3.34,3.37,7.01,3.36,11.02Z"/>
  <path class="cls-1" d="m63.52,28.47c1.24.17,2.46.31,3.68.52.89.15,1.37.9,1.18,1.7-.17.77-.91,1.19-1.79,1-2.06-.45-4.12-.45-6.19,0-.88.19-1.6-.23-1.78-1.01-.18-.8.3-1.54,1.19-1.69,1.23-.21,2.46-.35,3.7-.52Z"/>
</svg>