<?xml version="1.0" encoding="UTF-8"?>
<svg id="Layer_1" data-name="Layer 1" xmlns="http://www.w3.org/2000/svg" viewBox="0 0 127 127">
  <defs>
    <style>
      .cls-1 {
        fill: #637481;
      }
    </style>
  </defs>
  <path class="cls-1" d="m25.91,60.54c.31-.91.94-1.55,1.7-2.13,11.19-8.6,22.37-17.21,33.55-25.83.88-.68,1.78-1.28,2.93-.94.57.17,1.12.49,1.59.85,9.89,7.6,19.78,15.21,29.66,22.82,1.57,1.21,3.17,2.38,4.69,3.64,1.57,1.3,1.36,3.61-.39,4.56-1.07.58-2.13.46-3.1-.26-.91-.67-1.78-1.37-2.68-2.05-.18-.14-.38-.26-.68-.47,0,.39,0,.65,0,.91,0,10.13-.03,20.26.03,30.39.01,2.28-1.3,3.44-3.47,3.44-17.64-.04-35.28-.02-52.93-.02-.96,0-1.85-.13-2.57-.85-.69-.7-.82-1.57-.82-2.5,0-10.03,0-20.06,0-30.1,0-.29,0-.57,0-1.03-1.05.8-1.97,1.5-2.89,2.21-.88.67-1.82.89-2.89.49-.92-.35-1.38-1.11-1.75-1.95v-1.17Zm35.79,25.15c.16,1.2.35,2.3.44,3.42.05.64.3.79.91.79,7.9-.02,15.81-.01,23.71-.01.26,0,.52,0,.78,0,.03-.19.06-.29.06-.38,0-10.89,0-21.78-.01-32.67,0-.26-.21-.6-.42-.76-7.72-5.97-15.46-11.92-23.19-17.89-.38-.3-.62-.29-1,0-7.8,6.03-15.62,12.04-23.44,18.04-.41.32-.57.64-.57,1.16.01,10.55.01,21.1.01,31.64,0,.26,0,.52,0,.81h20.42c-.81-4.81-.81-9.48,1.7-13.82-.08-.05-.11-.09-.16-.11-.27-.1-.55-.2-.82-.31-2.8-1.08-5.23-2.66-6.92-5.2-2.38-3.59-2.66-7.53-1.77-11.62.32-1.49.83-1.79,2.34-1.57,4.55.65,7.84,3.08,9.97,7.12.38.73.7,1.49,1.06,2.28.15-.12.26-.2.36-.3,2.64-2.54,5.88-3.25,9.4-3.02,1.02.07,1.63.79,1.34,1.75-.45,1.54-.88,3.13-1.66,4.51-2.09,3.71-5.51,5.7-9.5,6.86-.3.09-.64.26-.83.51-1.01,1.29-1.59,2.78-1.81,4.46.21-.13.32-.36.48-.53,2.16-2.21,5.1-2.71,7.72-1.33,1.03.54,1.27,1.41.6,2.37-.48.68-.97,1.36-1.54,1.95-1.76,1.79-3.82,2.78-6.4,2.24-.4-.08-.78-.23-1.29-.39Z"/>
</svg>