<?xml version="1.0" encoding="UTF-8"?>
<svg id="Layer_1" data-name="Layer 1" xmlns="http://www.w3.org/2000/svg" viewBox="0 0 127 127">
  <defs>
    <style>
      .cls-1 {
        fill: #637481;
      }
    </style>
  </defs>
  <path class="cls-1" d="m63.56,110.1c-25.8.02-46.66-20.83-46.65-46.63,0-25.72,20.83-46.56,46.54-46.57,25.8-.02,46.66,20.84,46.65,46.63,0,25.72-20.83,46.56-46.54,46.57Zm34.16-46.5c.02-18.88-15.29-34.3-34.08-34.32-18.9-.03-34.32,15.26-34.36,34.05-.04,18.98,15.27,34.4,34.16,34.41,18.87.01,34.26-15.31,34.28-34.13Z"/>
  <path class="cls-1" d="m63.59,31.49c17.75.02,31.95,14.31,31.92,32.14-.02,17.73-14.35,31.92-32.17,31.89-17.72-.04-31.88-14.37-31.84-32.22.04-17.63,14.36-31.82,32.09-31.8Zm-10.43,7.14c1.8,4.68,3.61,9.16,6.9,12.81,2.45,2.72,4.54,2.7,6.98-.04,3.26-3.66,5.06-8.12,6.81-12.76-6.92-2.75-13.68-2.75-20.69,0Zm33.34,38.54c-4.02-2.4-8.04-4.82-12.81-5.52-2.73-.4-4.49.58-5.09,3.07-1.2,5.06,0,9.94,1.12,14.82,6.14-.82,14.42-6.94,16.78-12.37Zm-46.03.06c2.9,5.73,10.93,11.75,16.8,12.18.15-.57.33-1.15.46-1.74.83-3.97,1.63-7.96.9-12.03-.58-3.28-2.27-4.43-5.55-3.93-4.66.72-8.6,3.09-12.62,5.51Zm2.98-31.71c-5.02,5.97-7.2,12.39-6.81,19.86,1.12-.09,2.06-.11,2.98-.23,3.79-.49,7.59-.99,10.96-2.98,2.39-1.41,2.99-3.24,1.86-5.78-.49-1.1-1.07-2.22-1.86-3.12-2.25-2.58-4.62-5.04-7.14-7.76Zm46.94,19.84c.32-7.52-1.81-13.93-6.62-19.57-3.32,2.82-6.41,5.66-8.56,9.34-2.14,3.66-1.38,5.98,2.51,7.67,3.96,1.72,8.18,2.24,12.68,2.55Zm-21.83-1.81c.02-2.84-2.18-5.08-5.01-5.1-2.84-.02-5.08,2.18-5.1,5.02-.02,2.84,2.18,5.08,5.01,5.1,2.84.02,5.08-2.19,5.1-5.02Z"/>
</svg>