<?xml version="1.0" encoding="UTF-8"?>
<svg id="Layer_1" data-name="Layer 1" xmlns="http://www.w3.org/2000/svg" viewBox="0 0 126.83 126.83">
  <defs>
    <style>
      .cls-1 {
        fill: #fff;
      }

      .cls-2 {
        fill: #637481;
      }
    </style>
  </defs>
  <g>
    <path class="cls-2" d="m15.71,66.31c0-6.64,0-13.08,0-19.51,0-4.15.06-8.3-.03-12.44-.04-1.76.48-2.53,2.35-2.42,2.2.13,4.43.14,6.63,0,1.99-.13,2.51.68,2.5,2.56-.07,9.49-.04,18.99-.04,28.48,0,1.01,0,2.02,0,3.29h31.01v-5.62c-1.05,0-2.03,0-3,0-7.19,0-14.37-.05-21.56.03-1.81.02-2.39-.56-2.37-2.37.07-9.86.08-19.72,0-29.59-.01-1.88.7-2.32,2.43-2.32,19.9.04,39.81.04,59.71,0,1.63,0,2.29.46,2.28,2.19-.06,9.95-.07,19.91.02,29.86.02,1.99-.9,2.23-2.53,2.22-8.01-.05-16.02-.02-24.29-.02v5.67h30.91c0-1.13,0-2.2,0-3.26,0-9.4.07-18.8-.05-28.2-.03-2.34.73-3.12,3-2.9,2.71.26,6.33-.66,7.9.77,1.37,1.24.52,5.02.54,7.67.03,8.56.01,17.12.01,25.88,2.86-.11,3.05,1.57,3.01,3.73-.12,5.97-.04,11.94-.04,18.21h-8.44c1.6,4.13,3.03,7.83,4.51,11.65-2.1,1.04-3.44.75-4.56-1.11-1.76-2.92-3.56-5.82-5.57-8.57-.63-.87-1.97-1.74-2.99-1.74-22.39-.1-44.78-.1-67.17,0-1.03,0-2.38.83-3.02,1.69-1.96,2.67-3.74,5.48-5.41,8.34-1.05,1.8-2.31,2.48-4.75,1.5,1.42-3.71,2.84-7.41,4.44-11.6-1.82,0-3.33,0-4.84,0q-3.53,0-3.53-3.64c0-4.88.07-9.77-.03-14.65-.05-2.11-.06-3.93,2.98-3.75Zm78-7.53v-30.46h-60.54v30.46h60.54Zm18.43,9.65H14.73v18.07h97.4v-18.07ZM17.6,33.81v23.78h7.52v-23.78h-7.52Zm91.63.07h-7.62v23.73h7.62v-23.73ZM17.55,59.63v6.65h7.68v-6.65h-7.68Zm91.71.05h-7.69v6.61h7.69v-6.61Zm-42.67,6.66v-5.52h-6.47v5.52h6.47Zm-41.15,22.54c-.27-.24-.55-.49-.82-.73-3.73,1.56-2.96,5.93-4.42,8.91,1.75-2.73,3.5-5.46,5.24-8.18Zm76.69-.62c-.27.18-.54.35-.81.53,1.75,2.72,3.5,5.45,5.25,8.17l.61-.39c-2.14-2.47-1.18-6.96-5.04-8.31Z"/>
    <path class="cls-2" d="m46.36,84.83v-15.28c1.73,2.2,1.81,13.31,0,15.28Z"/>
    <path class="cls-2" d="m80.51,70.1v15.16c-1.73-1.93-1.91-12.93,0-15.16Z"/>
    <path class="cls-2" d="m21.5,44.08c-2.22-.26-3.54-1.37-3.54-3.55,0-2.19,1.34-3.47,3.44-3.47,2.11,0,3.44,1.27,3.44,3.47,0,2.21-1.36,3.25-3.34,3.56Zm.05-5.96c-.85,1.05-1.78,1.69-1.75,2.29.03.64.96,1.24,1.5,1.86.6-.55,1.59-1.03,1.7-1.66.1-.6-.73-1.34-1.44-2.5Z"/>
    <path class="cls-2" d="m24.87,50.87c-.13,2.21-1.34,3.5-3.46,3.5-2.11,0-3.46-1.26-3.46-3.45,0-2.18,1.29-3.45,3.43-3.47,2.16-.02,3.32,1.27,3.49,3.41Zm-3.31-2.39c-.85,1.05-1.78,1.69-1.77,2.31,0,.62.96,1.23,1.49,1.85.6-.55,1.6-1.03,1.7-1.65.1-.61-.73-1.36-1.43-2.51Z"/>
    <path class="cls-2" d="m105.49,44.07c-2.13-.22-3.46-1.29-3.51-3.48-.05-2.21,1.28-3.48,3.38-3.53,2.11-.04,3.46,1.21,3.5,3.41.03,2.19-1.27,3.31-3.37,3.6Zm-.07-5.95c-.78,1.11-1.66,1.8-1.6,2.41.06.63,1.03,1.17,1.6,1.76.57-.58,1.53-1.12,1.6-1.76.06-.6-.81-1.3-1.6-2.41Z"/>
    <path class="cls-2" d="m108.9,50.62c-.09,2.4-1.28,3.72-3.39,3.77-2.1.05-3.48-1.16-3.52-3.38-.04-2.19,1.18-3.49,3.34-3.55,2.15-.06,3.33,1.23,3.57,3.16Zm-3.32,2.71c.71-1.16,1.54-1.91,1.44-2.52-.11-.63-1.1-1.12-1.71-1.67-.53.63-1.46,1.24-1.49,1.89-.03.6.9,1.25,1.76,2.3Z"/>
  </g>
  <path class="cls-1" d="m87.92,39.63c.71-.86,1.21-1.47,1.72-2.07.43.75,1.14,1.49,1.19,2.26.03.6-.79,1.24-1.23,1.86-.49-.6-.98-1.2-1.67-2.05Z"/>
</svg>