<?xml version="1.0" encoding="UTF-8"?>
<svg id="Layer_1" data-name="Layer 1" xmlns="http://www.w3.org/2000/svg" viewBox="0 0 127 127">
  <defs>
    <style>
      .cls-1 {
        fill: #637481;
      }
    </style>
  </defs>
  <path class="cls-1" d="m17.43,88.58c.32-.57.71-.73,1.32-.36,2.42,1.48,4.84,1.31,7.24-.05,1.73-.98,3.09-2.37,4.24-3.96.84-1.17,1.65-2.36,2.33-3.63,1.83-3.4,3.58-6.83,5.42-10.35-1.46-1.31-2.95-2.79-4.6-4.07-2.62-2.04-2.91-4.75-2.18-7.62,1.52-6.04,4.46-11.35,8.71-15.92,2.25-2.42,4.91-3.72,8.29-2.82,1.96.52,3.09,1.82,3.43,3.84.52,3.04,1.09,6.07,1.64,9.11.03.17.11.33.2.61h5.91c.04-.18.11-.46.18-.73h1.9c-.07.07-.13.14-.2.21.37.46.68.98,1.11,1.38,1.14,1.09,1.15,3.03-.13,3.95-.65.46-.82.94-.62,1.7.23.01.49.03.87.05-.67,1.77-.76,3.52.07,5.38-3.05-.24-5.94-.47-9-.72,1-1.22,1.52-2.51,1.15-4.08,1.58-.14,3.09-.27,4.68-.41v-1.48c-1.7,0-3.37.04-5.04-.02-.46-.02-.99-.23-1.37-.51-1.54-1.14-3.05-2.32-4.55-3.52-.16-.13-.24-.39-.29-.6-.12-.52-.21-1.04-.35-1.74-.42.61-.75,1.1-1.14,1.66-.93-.74-1.84-1.47-2.83-2.26,1.15-.95,2.27-1.83,3.35-2.76,1.2-1.03,1.59-2.43,1.11-3.8-.74-2.07-3.24-3-5.01-1.68-2.5,1.86-4.91,3.84-7.26,5.9-1.53,1.34-1.32,3.69.33,5.05,2.04,1.68,4.1,3.32,6.19,4.94.58.45.79.84.35,1.47-.1.14-.15.33-.22.49q-.71,1.67.83,2.8c.38-.27.77-.56,1.16-.83q1.04-.72,1.94.31c-.67.45-1.34.89-2.01,1.34-.09.12-.17.23-.26.35.25.11.55.16.74.33,2.3,2.02,4.57,4.06,6.86,6.09,1.8,1.6,2.2,3.04,1.42,5.3-2.12,6.14-4.23,12.28-6.37,18.42-.79,2.28-2.87,3.44-5.01,2.86-2.39-.65-3.63-3.01-2.8-5.45,1.76-5.19,3.54-10.37,5.36-15.54.24-.68.15-1.05-.4-1.51-1.69-1.43-3.32-2.93-5.11-4.53-1.24,2.32-2.48,4.5-3.6,6.75-1.51,3.04-3.05,6.05-5.36,8.59-1.8,1.97-3.86,3.55-6.57,3.95-2.25.33-4.35-.04-6.07-1.69v-.18Z"/>
  <path class="cls-1" d="m61.43,94.58v2.83h-3.23v-23.77h28.91v23.77h-3.21v-2.84h-22.46Zm.07-3.41h22.3v-14.24h-22.3v14.24Z"/>
  <path class="cls-1" d="m78.89,56.15c-1.13.22-1.96-.18-1.68-.87.38-.93.35-1.81.39-2.74,0-.2.22-.38.3-.64-1.05.75-2.1,1.05-3.17.15-.69-.59-.91-1.53-.58-2.37.37-.95,1.18-1.38,2.63-1.34.04-.22.08-.45.1-.6-3.21-.61-4.91-2-2.62-5.19.85-1.19,2.8-1.05,3.89-.05,1.29,1.18,1.29,2.82-.01,4.4,1.08-.28,1.85-1.7,1.46-2.98-.25-.82.1-1.16.7-1.49,1.43-.78,3.26-.21,4,1.26.73,1.44.1,3.27-1.38,3.96-.24.11-.5.19-.68.25.12.25.36.5.36.75,0,1.16-.6,1.97-1.6,2.51-.23.12-.47.21-.76.33.45.16.97.19,1.18.46.25.31.32.84.3,1.26-.04,1.08-.88,1.85-2,1.92-.2.01-.41,0-.62,0v.82c-.07.07-.15.13-.22.2Z"/>
  <path class="cls-1" d="m42.62,51.61c1.34,1.08,2.65,2.13,3.8,3.06-1.1,1.37-2.18,2.7-3.32,4.12-2.1-1.7-4.4-3.47-6.58-5.36-1.14-.98-1.04-2.76.13-3.74,2.24-1.89,4.52-3.74,6.82-5.57,1.14-.91,2.72-.69,3.63.39.9,1.07.81,2.67-.29,3.64-1.35,1.18-2.76,2.29-4.2,3.47Z"/>
  <path class="cls-1" d="m80.53,68.28v4.05h-15.68v-4.09c.36.09.68.12.96.24,1.75.73,3.49.73,5.23-.02.19-.08.4-.18.6-.18,2.93-.01,5.86,0,8.89,0Z"/>
  <path class="cls-1" d="m50.7,64.98c-.67-.3-1.41-.5-1.98-.92-1.45-1.06-2.84-2.19-4.2-3.36-.3-.26-.55-.86-.46-1.21.44-1.83,1.58-3.2,3.24-4.07.32-.17.97-.06,1.29.17,1.47,1.08,2.88,2.23,4.29,3.4,1.14.95,1.49,2.4.97,3.73-.5,1.27-1.71,2.1-3.13,2.26Z"/>
  <path class="cls-1" d="m52.21,31.88c.9-1.46,1.01-1.49,2.52-1.09,3.39.9,6.59.46,9.57-1.37,2.96,2.06,3.76,6.86,1.58,9.67-3.76-3.89-8.36-6.21-13.67-7.21Z"/>
  <path class="cls-1" d="m55.45,33.43c-1.65,1.38-2.01,2.5-1.3,3.78.57,1.04,1.79,1.56,2.91,1.23,1.41-.41,1.98-1.48,1.8-3.59.76.43,1.44.8,2.13,1.2-1.19,2.35-2.32,4.63-3.51,6.88-.11.21-.57.41-.82.36-4.48-.86-7.11-5.96-5.27-10.11.21-.47.43-.64.94-.5,1,.27,2.01.48,3.11.74Z"/>
  <path class="cls-1" d="m68.4,68.26c-3.17,0-5.7-2.55-5.68-5.73.02-3.14,2.53-5.65,5.67-5.65,3.18,0,5.74,2.53,5.74,5.68,0,3.16-2.55,5.7-5.72,5.7Zm4.31-5.69c0-2.38-1.87-4.27-4.25-4.3-2.39-.03-4.37,1.92-4.37,4.3,0,2.35,1.92,4.28,4.27,4.3,2.42.02,4.34-1.88,4.35-4.29Z"/>
  <path class="cls-1" d="m58.92,47.39c-1.38-1.61-1.51-2.58-.63-4.33,1.09-2.16,2.19-4.32,3.36-6.64,1.18.98,2.29,1.91,3.45,2.88-2.11,2.77-4.14,5.42-6.19,8.09Z"/>
  <path class="cls-1" d="m70.76,39.47c1.12.08,2,1.08,1.92,2.19-.08,1.12-1.1,2-2.2,1.9-1.07-.1-1.95-1.09-1.88-2.14.07-1.12,1.07-2.02,2.17-1.95Z"/>
  <path class="cls-1" d="m61.98,29.73c-2.62.97-5.09.95-7.62.16,1.63-1.57,5.26-1.67,7.62-.16Z"/>
  <path class="cls-1" d="m58.07,36.08c-.07.94-.89,1.64-1.84,1.56-.9-.07-1.59-.87-1.53-1.77.06-.93.91-1.66,1.83-1.57.9.09,1.61.9,1.54,1.78Z"/>
  <path class="cls-1" d="m79.26,41.44c-.92.02-1.68-.71-1.68-1.62,0-.86.73-1.6,1.59-1.63.91-.03,1.65.71,1.65,1.63,0,.9-.67,1.59-1.57,1.61Z"/>
  <path class="cls-1" d="m83.6,58.47c2.9-1.76,5.96-3.17,9.17-4.26.18-.06.46.16.7.26-.03.08-.06.16-.09.25-1.41.57-2.84,1.09-4.22,1.73-1.6.74-3.14,1.61-4.72,2.38-.23.11-.56.02-.84.02,0-.13,0-.25,0-.38Z"/>
  <path class="cls-1" d="m88.56,59.54c.22-.27.35-.6.53-.63,2.42-.4,4.84-.77,7.26-1.12.15-.02.33.21.5.32-.15.14-.29.37-.45.39-2.51.35-5.03.67-7.84,1.04Z"/>
  <path class="cls-1" d="m106.28,58.41c.18.8-.11.86-.59.8-2.01-.25-4.03-.46-6.05-.72-.19-.02-.36-.26-.54-.4.2-.11.4-.33.59-.32,2.2.19,4.39.42,6.59.63Z"/>
  <path class="cls-1" d="m74.56,40.4c-.67.02-1.22-.47-1.25-1.14-.04-.69.52-1.27,1.22-1.27.65,0,1.2.54,1.21,1.19.01.65-.51,1.2-1.18,1.22Z"/>
  <path class="cls-1" d="m103.58,52.11c.18-.19.34-.53.54-.55,1.6-.18,3.21-.31,4.82-.41.2-.01.42.27.63.42-.05.08-.09.15-.14.23-1.87.17-3.73.35-5.6.52-.08-.07-.17-.14-.25-.2Z"/>
  <path class="cls-1" d="m82.16,62.6c-.36-.31-.44-.59.08-.85,1.33-.66,2.64-1.34,4-2.02.14.3.23.49.32.69-1.48.73-2.94,1.46-4.41,2.18Z"/>
  <path class="cls-1" d="m75.92,66.88c1.2-1.13,2.39-2.27,3.62-3.43.23.24.37.39.51.53-.13-.12-.26-.23-.39-.35-.98,1.2-1.94,2.4-2.95,3.58-.09.11-.46-.02-.69-.03-.03-.1-.06-.19-.1-.29Z"/>
  <path class="cls-1" d="m78.49,57.82c.26.4.69.78.74,1.2.07.6-.38,1-1.03.97-.64-.02-1.08-.44-.97-1.04.08-.42.53-.77.82-1.15.15,0,.29,0,.44.01Z"/>
  <path class="cls-1" d="m78.89,56.15c.07-.07.15-.13.22-.2.3-.52.81-.74,1.22-.34.25.25.38.98.2,1.22-.23.3-.86.48-1.26.4-.48-.09-.77-.54-.38-1.09Z"/>
  <path class="cls-1" d="m77.13,64.19c-.89.93-1.73,1.81-2.59,2.72-.16-.11-.33-.22-.51-.34.04-.1.05-.2.1-.26.71-.77,1.43-1.52,2.13-2.29.38-.43.64-.33.87.17Z"/>
  <path class="cls-1" d="m79.27,61.41c.98-.7,1.91-1.36,2.88-2.05.16.2.3.37.44.55-.1.1-.15.18-.22.23-.73.52-1.45,1.04-2.19,1.56-.45.32-.45.31-.91-.29Z"/>
  <path class="cls-1" d="m98.5,52.54c1.05-.21,2.09-.42,3.15-.63.29.48.27.75-.3.84-.76.13-1.52.33-2.29.43-.22.03-.47-.19-.71-.3.05-.12.1-.23.14-.35Z"/>
  <path class="cls-1" d="m77.22,61.01c-.47.34-.75.69-.99.67-.25-.03-.63-.41-.64-.65,0-.23.38-.62.63-.65.24-.03.52.31.99.64Z"/>
  <path class="cls-1" d="m83.51,65.75c-.38.22-.61.46-.83.46-.16,0-.47-.4-.43-.52.07-.21.35-.45.57-.48.16-.02.36.27.68.54Z"/>
  <path class="cls-1" d="m62.57,69.47c.22.41.44.65.43.87-.01.16-.35.42-.53.41-.18-.02-.48-.33-.46-.49.02-.22.28-.42.57-.8Z"/>
  <path class="cls-1" d="m61.71,67.27c.25.29.54.49.52.64-.04.22-.3.41-.46.61-.19-.19-.48-.35-.54-.57-.04-.14.25-.37.48-.69Z"/>
  <path class="cls-1" d="m85.15,49.51c-.31.24-.53.54-.67.5-.23-.06-.4-.33-.59-.51.2-.17.37-.44.6-.49.15-.03.36.26.66.5Z"/>
  <path class="cls-1" d="m59.64,69.51c.22.35.48.59.44.74-.06.21-.33.45-.54.5-.12.03-.47-.33-.45-.48.03-.22.29-.42.56-.76Z"/>
  <path class="cls-1" d="m82.47,34.7c.25.29.56.5.53.64-.04.23-.3.42-.47.62-.19-.19-.47-.35-.53-.58-.04-.15.24-.38.47-.69Z"/>
  <path class="cls-1" d="m77.94,33.12c-.32.24-.55.52-.69.48-.22-.06-.39-.34-.58-.53.2-.17.39-.43.61-.47.15-.03.36.27.66.52Z"/>
  <path class="cls-1" d="m80.11,66.06c.26.33.54.54.52.7-.03.22-.27.49-.48.56-.12.04-.51-.27-.51-.43,0-.22.24-.45.47-.82Z"/>
  <path class="cls-1" d="m82.72,67.72c.27.38.53.59.54.81,0,.16-.31.46-.49.47-.17,0-.5-.27-.51-.43,0-.22.23-.44.46-.84Z"/>
  <path class="cls-1" d="m68.49,59.92c1.48.04,2.63,1.26,2.58,2.75-.05,1.48-1.29,2.61-2.79,2.55-1.43-.05-2.6-1.29-2.56-2.71.04-1.48,1.27-2.64,2.76-2.6Zm1.04,2.66c-.53-.37-.84-.74-1.14-.74-.25,0-.72.47-.7.68.04.31.42.75.7.79.28.04.61-.36,1.14-.73Z"/>
</svg>