<?xml version="1.0" encoding="UTF-8"?>
<svg id="Layer_1" data-name="Layer 1" xmlns="http://www.w3.org/2000/svg" viewBox="0 0 126.83 126.83">
  <defs>
    <style>
      .cls-1 {
        fill: #637481;
      }
    </style>
  </defs>
  <path class="cls-1" d="m23.95,65.83c.16-10.52,3.77-19.55,11.04-27.01,7.25-7.43,16.21-11.21,26.67-11.69,0-.82.09-1.59-.04-2.32-.06-.31-.56-.61-.92-.78-1.89-.92-2.92-2.75-2.72-4.95.17-1.89,1.64-3.55,3.56-4.03,2.43-.6,4.83.69,5.68,3.05.81,2.26-.17,4.88-2.34,5.8-.96.4-1.26.91-1.15,1.86.05.44,0,.88,0,1.37,12.61.66,22.75,5.87,30.26,15.89,5.02,6.7,7.41,14.35,7.51,22.83H23.95Zm5.24-6.31c1.63.19,3.2.38,4.81.57,1.39-10.76,6.14-19.49,14.87-25.94-8.4,2.99-19.83,17.75-19.68,25.37Z"/>
  <path class="cls-1" d="m12.38,69.26h102.08c-.59,1.29-1.56,2.04-2.72,2.39-1.25.37-2.57.63-3.87.69-2.29.11-4.58.06-6.87.02-.74-.01-1.05.17-1.26.95-.34,1.26-.85,2.49-1.47,3.64-.71,1.32-1.95,1.92-3.46,1.94-.31,0-.62,0-.94,0-20.55,0-41.11,0-61.66,0-3.94,0-5.3-1.05-6.34-4.87-.45-1.66-.45-1.65-2.15-1.66-2.08-.02-4.17.02-6.24-.14-1.83-.14-3.53-.76-4.71-2.32-.12-.16-.2-.34-.38-.65Z"/>
  <path class="cls-1" d="m40.58,103.73c-1.29-5.78-2.54-11.39-3.83-17.13,1.62-.6,3.2-1.2,4.79-1.76,3.05-1.06,6.09-2.11,9.16-3.1.78-.25,1.64-.3,2.47-.31,4.9-.03,9.79-.02,14.69-.01,1.84,0,3.06,1.51,2.3,2.98-.32.62-1.09,1.19-1.77,1.4-2.78.87-5.6,1.6-8.41,2.39-.23.07-.47.13-.7.2-.85.26-1.28.83-1.14,1.72.14.86.76,1.21,1.57,1.22,2.26.04,4.51.09,6.77.08,1.86-.01,3.74,0,5.59-.19,3.09-.32,5.81-1.82,8.63-2.97,3.41-1.38,6.79-2.83,10.2-4.21,1.87-.76,3.61.42,3.31,2.28-.09.58-.51,1.27-.99,1.6-5.8,4-11.62,7.97-17.47,11.9-1.89,1.27-4.04,1.83-6.3,1.92-4.19.16-8.38.27-12.58.44-3.84.15-7.69.3-11.53.55-1.23.08-2.44.51-3.66.78-.33.07-.66.13-1.11.21Z"/>
  <path class="cls-1" d="m20.09,86.16c3.78-.34,7.48-.68,11.34-1.03,1.78,7.4,3.57,14.8,5.39,22.36-5.6,1.49-11.1,2.95-16.72,4.44v-25.78Z"/>
</svg>