<?xml version="1.0" encoding="UTF-8"?>
<svg id="Layer_1" data-name="Layer 1" xmlns="http://www.w3.org/2000/svg" viewBox="0 0 126.83 126.83">
  <defs>
    <style>
      .cls-1 {
        fill: #637481;
      }
    </style>
  </defs>
  <g>
    <path class="cls-1" d="m14.17,59.39c.07-.21.16-.41.22-.62.79-2.93,3.32-4.97,6.36-5.12.42-.02.83-.01,1.25-.01,27.08,0,54.17,0,81.25,0h1.34c.03-.36.07-.66.07-.96,0-7.08.02-14.17,0-21.25-.03-5.99-3.85-10.77-9.57-11.94-3.55-.72-6.78.11-9.81,2.42.61.36,1.12.65,1.62.95,2.38,1.41,2.96,3.63,1.58,6.06-.38.67-.76,1.33-1.15,2-.44.74-1.05.91-1.79.48-3.77-2.17-7.54-4.35-11.31-6.53-.75-.43-.88-1.06-.47-1.8.47-.84.93-1.69,1.45-2.49,1.18-1.81,3.39-2.38,5.32-1.38.88.46,1.72.97,2.62,1.49,2.04-1.8,4.37-2.99,7.05-3.52,8.11-1.6,16.28,4.57,16.66,12.83.24,5.25.09,10.51.1,15.77,0,2.37.02,4.74-.01,7.12,0,.59.12.88.76,1.08,3.32,1.02,5.38,4.21,4.87,7.44-.56,3.5-3.3,5.89-6.87,5.89-28.21,0-56.41,0-84.62,0-3.31,0-5.89-2.04-6.73-5.24-.05-.18-.13-.36-.19-.54,0-.71,0-1.41,0-2.12Z"/>
    <path class="cls-1" d="m106.9,69.66c1.27,14.51-7.78,23.46-17.01,25.93-2.14.57-4.41.87-6.63.89-13.17.08-26.34.04-39.51.04-13.43,0-23.69-10.09-23.9-23.52-.02-1.09,0-2.18,0-3.33h87.05Z"/>
    <path class="cls-1" d="m28.57,94.42c2.31,1.13,4.59,2.25,6.97,3.43-.61,1.86-1.25,3.82-1.89,5.79-.4,1.22-.76,2.44-1.2,3.64-.76,2.09-2.82,3.11-4.86,2.46-1.99-.63-3.11-2.77-2.46-4.85,1.07-3.42,2.2-6.81,3.3-10.21.04-.12.12-.22.13-.24Z"/>
    <path class="cls-1" d="m91.31,97.82c2.34-1.15,4.62-2.26,6.96-3.41.18.54.39,1.16.6,1.79.96,2.95,1.94,5.88,2.85,8.85.51,1.66-.24,3.43-1.71,4.31-1.46.88-3.4.72-4.61-.5-.48-.48-.88-1.12-1.1-1.76-1.03-2.99-1.99-6-2.96-9.01-.04-.12-.04-.24-.04-.27Z"/>
  </g>
  <path class="cls-1" d="m63.31,37.65c-.32-.35-.84-.66-.89-1.04-.06-.39.23-1.09.55-1.23,1.25-.54,2.56-.97,3.89-1.29.33-.08,1.01.36,1.14.71.13.34-.1,1.15-.38,1.28-1.33.59-2.73,1.01-4.31,1.57Z"/>
  <path class="cls-1" d="m82.19,46.62c-.29.27-.61.79-1.05.94-.62.21-1.13-.21-1.28-.84-.3-1.24-.57-2.48-.78-3.74-.11-.64.23-1.23.88-1.23.44,0,1.15.34,1.26.69.41,1.27.62,2.6.97,4.19Z"/>
  <path class="cls-1" d="m78.25,33.03c-.21.47-.31.77-.47,1.05-.45.8-.9,1.61-1.4,2.39-.37.58-.92.81-1.56.43-.62-.37-.76-.94-.42-1.56.52-.95,1.02-1.93,1.66-2.79.23-.31.9-.49,1.31-.41.35.07.61.6.88.89Z"/>
  <path class="cls-1" d="m83.03,36.19c0,.51.03,1.02,0,1.53-.05.67-.44,1.06-1.11,1.08-.68.02-1.11-.39-1.15-1.04-.06-1.11-.06-2.23,0-3.35.03-.7.5-1.12,1.21-1.08.66.04,1.04.45,1.06,1.13.02.57,0,1.15,0,1.72,0,0,0,0,0,0Z"/>
  <path class="cls-1" d="m70.63,32.53c-.45-.4-.91-.63-1.02-.97-.11-.35-.01-1.01.24-1.19,1.01-.71,2.09-1.35,3.21-1.87.3-.14.97.12,1.22.41.21.25.25,1.04.06,1.18-1.16.86-2.4,1.6-3.71,2.44Z"/>
  <path class="cls-1" d="m72.77,39c.99,0,1.58.83,1.19,1.62-.51,1.02-1.06,2.04-1.75,2.95-.23.3-1.02.44-1.4.29-.31-.13-.65-.93-.52-1.22.5-1.13,1.17-2.19,1.82-3.23.14-.23.52-.32.66-.4Z"/>
</svg>