<?xml version="1.0" encoding="UTF-8"?>
<svg id="Layer_1" data-name="Layer 1" xmlns="http://www.w3.org/2000/svg" viewBox="0 0 127 127">
  <defs>
    <style>
      .cls-1 {
        fill: #637481;
      }
    </style>
  </defs>
  <path class="cls-1" d="m34.92,44.58c7.26.14,14.44.96,21.54,2.32,5.16.99,10.22.77,15.33-.21,12.87-2.48,25.78-2.5,38.71-.49,1.93.3,3.86.59,5.8.84,1.03.13,1.47.55,1.28,1.66-.27,1.57-.43,3.16-.58,4.75-.06.68-.29,1.07-.99,1.28-1.42.44-2,1.69-2.35,2.97-.58,2.11-.96,4.28-1.51,6.4-.63,2.43-1.17,4.9-2.06,7.24-2.57,6.8-7.77,10.16-14.84,10.9-3.44.36-6.86.21-10.24-.57-6.59-1.52-10.98-5.63-13.54-11.75-1.2-2.86-2.09-5.86-3.21-8.76-.47-1.22-1.03-2.44-1.79-3.5-1.58-2.2-4.46-2.21-5.94.04-.99,1.51-1.64,3.27-2.31,4.96-.97,2.45-1.71,4.98-2.74,7.4-3.14,7.36-8.79,11.43-16.71,12.09-3.03.25-6.17.18-9.17-.31-6.96-1.13-11.26-5.52-13.26-12.13-1.01-3.31-1.59-6.75-2.43-10.11-.29-1.15-.66-2.32-1.22-3.35-.35-.64-1.15-1.02-1.71-1.56-.34-.32-.81-.67-.88-1.07-.29-1.73-.44-3.48-.68-5.22-.13-.91.36-1.24,1.12-1.35,4.27-.57,8.53-1.23,12.82-1.67,3.85-.4,7.72-.56,11.58-.82Zm74.09,14.19c0-.88.06-1.76-.01-2.63-.27-3.35-1.85-5.81-5.08-7.02-.97-.36-1.96-.69-2.97-.88-5.58-1.05-11.22-.88-16.82-.3-2.99.31-5.99.93-8.85,1.85-3.08.99-4.14,2.81-3.92,6.05.19,2.81.42,5.66,1.03,8.41,1.3,5.85,4.2,10.7,9.84,13.38,4.47,2.12,9.23,2.31,14.05,1.58,5.67-.86,9.23-4.18,11.08-9.49,1.24-3.54,1.61-7.22,1.63-10.95Zm-73.43-11.21c-1.04,0-2.08-.04-3.11,0-3.23.16-6.46.32-9.51,1.58-2.63,1.09-4.41,2.97-4.75,5.82-.67,5.58-.18,11.09,2.05,16.3,1.94,4.52,5.43,7.27,10.34,7.87,2.63.32,5.34.43,7.98.18,6.21-.6,10.97-3.64,13.91-9.26,2.6-4.98,3.38-10.36,3.08-15.89-.05-1-.68-2.27-1.46-2.85-1.37-1.02-2.99-1.85-4.64-2.32-4.52-1.31-9.21-1.33-13.88-1.44Zm-24.21,3.4c1.86,1.12,3.99,1.11,5.6-.04-1.7-1.14-3.96-1.13-5.6.04Zm98.66,0c1.8,1.15,4.12,1.12,5.55-.08-1.78-1.09-3.99-1.06-5.55.08Z"/>
</svg>