<?xml version="1.0" encoding="UTF-8"?>
<svg id="Layer_2" data-name="Layer 2" xmlns="http://www.w3.org/2000/svg" viewBox="0 0 260.41 252.23">
  <defs>
    <style>
      .cls-1 {
        fill: #637481;
      }
    </style>
  </defs>
  <g id="Layer_1-2" data-name="Layer 1-2">
    <g>
      <path class="cls-1" d="m34.24,146.68c.28-.31.75-.59.81-.95.62-3.45,2.66-6.01,5.19-8.23,5.2-4.57,11.31-7.54,17.82-9.78,14.15-4.88,28.67-6.93,43.61-5.41,11.11,1.12,21.73,4.04,31.45,9.68,5.76,3.34,10.86,7.43,14.52,13.08,1.34,2.07,2.43,4.25,2.51,6.78.09,2.65-1.34,5.05-3.84,6.01-1.5.58-3.14,1.1-4.73,1.13-7.23.17-14.44.21-21.67.21-24.13.02-48.26.01-72.39,0-1.54,0-3.11,0-4.6-.32-3.95-.83-6.53-3.28-7.8-7.09-.25-.74-.58-1.48-.88-2.23v-2.87Zm83.61-.18c3.17-.16,6-2.47,6.2-6.19.17-3.09-3.02-6.19-6.17-6.19s-6.1,2.89-6.09,6.23c.01,3.12,2.97,6.12,6.06,6.14h.01Zm-45.28-5.4c.08-4.28-1.98-6.08-5.89-6.43-3.16-.28-6.17,2.71-6.21,5.73-.05,3.32,2.99,6.49,6.21,6.46,3.21-.01,5.87-2.62,5.89-5.78h0Zm25.29-5.98c.32-3.69-2.93-5.99-5.94-5.98-3.34.01-5.97,2.6-5.98,5.91-.01,3.47,2.67,6.01,6.32,6,3.39-.01,5.61-2.37,5.6-5.94h0Z"/>
      <path class="cls-1" d="m226.17,120.82c-.14-2.05-.38-4.08-.39-6.13-.05-12.54-.03-25.08-.01-37.62,0-1.12.27-2.25.4-3.38v47.12h0Z"/>
      <path class="cls-1" d="m196.54,69.74h1.48c7.76,0,15.5-.01,23.26-.03,3.49,0,4.57,1.17,4.23,4.65-.09.99-.1,2-.12,3.01-.03,15.37.42,30.76-.23,46.09-.59,14.15-6.01,26.55-17.29,35.78-6.16,5.05-13.4,7.99-21.3,9.26-1.75.28-3.51.52-5.46.81-.02.39-.06.9-.06,1.41,0,12.5.01,24.99-.02,37.48,0,1.23.23,1.61,1.58,1.58,6.69-.12,13.39-.12,20.08-.09,2.57.01,4.32,2.03,4.34,4.72,0,2.71-1.73,4.64-4.38,4.65-14.11.02-28.22.01-42.33.01h-5.33c.16-.3.22-.52.36-.67,2.01-2.34,3.8-4.8,4.88-7.74.14-.37.73-.77,1.14-.82,1.24-.15,2.5-.24,3.75-.16,1.34.09,1.58-.47,1.56-1.66-.06-4.59-.03-9.19-.03-13.78,0-7.85,0-15.7.03-23.55,0-.91-.22-1.38-1.19-1.29-.24.02-.49,0-.72-.02-2.98-.14-3.57-.66-4.02-3.67-.06-.38.02-.88.24-1.2,5.25-7.77,4.97-15.76,1.12-23.96-3.28-6.97-8.6-12.13-14.64-16.71-7.79-5.92-16.64-9.71-25.9-12.64-2.01-.64-1.93-.59-1.93-2.74.05-11.01.03-22.01.05-33.03,0-.72-.02-1.43.02-2.15.14-2.06,1.26-3.21,3.33-3.46.52-.06,1.05-.06,1.58-.06,19.51,0,39.01,0,58.52.01,3.4,0,2.62-.07,3.33-2.68,1.57-5.86,3.18-11.71,4.72-17.59.6-2.3,2.36-3.39,4.28-4.36,6.29-3.19,12.59-6.39,18.89-9.56,1.41-.72,2.84-1.41,4.3-2.01,2.4-.99,5.23,0,6.36,2.16,1.21,2.32.64,5.31-1.61,6.57-4.01,2.25-8.15,4.29-12.26,6.39-3.12,1.6-6.27,3.13-9.37,4.79-.51.27-.96.91-1.12,1.48-1.39,4.62-2.69,9.27-4.02,13.91-.06.22-.08.45-.15.89h.02Zm21.88,31.18c.08-.61.18-1.06.18-1.53-.02-6.84-.08-13.69-.07-20.52,0-1.04-.18-1.4-1.33-1.39-15.93.06-31.88.07-47.81.08-13.34,0-26.67.02-40.02,0-1.33,0-1.82.3-1.8,1.75.05,7.03-.05,14.07-.01,21.1,0,.57.38,1.31.83,1.65,5.75,4.45,11.84,8.36,18.6,11.13,7.54,3.09,15.19,3.75,22.88.65,3.47-1.39,6.88-2.96,10.22-4.62,5.84-2.91,11.59-6.01,17.44-8.94,4.31-2.15,8.88-2.79,13.6-1.53,2.36.64,4.69,1.39,7.3,2.16h-.01Z"/>
      <path class="cls-1" d="m91.91,192.97c17.25,0,34.49.06,51.73-.05,3.08-.02,4.83,1.88,4.57,4.82-.39,4.25-1.4,8.19-4.53,11.33-2.2,2.21-4.91,3.41-7.94,3.67-2.68.22-5.39.09-8.08.09-26.06.02-52.12.03-78.18.06-5.89,0-10.81-3.34-12.63-8.9-.73-2.25-1.17-4.64-1.4-7-.23-2.4,1.54-4.02,4.01-4.02,3.18,0,6.36.03,9.54.03h42.92v-.02h0Z"/>
      <path class="cls-1" d="m109.35,182.14c2.77-2.9,5.45-5.65,8.08-8.43,2.06-2.15,4.1-4.31,6.12-6.5.84-.91,1.79-1.35,3.05-1.28,4.17.22,8.38.13,12.51.64,3.4.43,6.17,2.3,7.94,5.39,1.97,3.43,1.14,7.69-1.92,10.23-2.69,2.24-5.84,3.26-9.27,3.53-1.68.13-3.36.22-5.04.22-25.96.01-51.9.02-77.86-.01-2.39,0-4.82-.13-7.19-.5-3.67-.58-6.82-2.12-8.95-5.4-2.8-4.31-.57-8.65,2.1-10.88,2.75-2.3,6.05-3.13,9.53-3.16,12.61-.07,25.23-.06,37.84-.07,1.64,0,3.28.1,4.91,0,1.55-.1,2.59.5,3.64,1.58,4.36,4.53,8.8,8.98,13.2,13.47.37.37.77.71,1.31,1.18h-.01Z"/>
    </g>
  </g>
</svg>