<?xml version="1.0" encoding="UTF-8"?>
<svg id="Layer_2" data-name="Layer 2" xmlns="http://www.w3.org/2000/svg" viewBox="0 0 260.41 252.23">
  <defs>
    <style>
      .cls-1 {
        fill: #637481;
      }
    </style>
  </defs>
  <path class="cls-1" d="m91.33,160.18c16.36,0,32.72.04,49.08-.03,2.93-.01,5.26.98,7.25,3.01,5.59,5.69,11.17,11.39,16.78,17.05,3.4,3.43,6.84,6.83,10.33,10.17.52.5,1.43.83,2.16.83,10.99.05,21.98-.01,32.96.05,3.13.02,6.33,0,9.38.6,4.76.94,8.41,5.84,8.09,10.15-.4,5.35-4.41,9.72-9.71,10.01-5.45.3-10.93.21-16.4.23-6.92.03-13.84,0-20.76,0-3.05,0-6.1-.06-9.15-.09-3.2-.03-5.77-1.48-7.97-3.64-3-2.95-5.95-5.95-8.84-9-.89-.93-1.81-1.23-3.07-1.21-4.93.05-9.86,0-14.8-.02-4.69-.02-9.38-.04-14.07-.04-6.96,0-13.93-.02-20.89.01-5.32.02-10.64.14-15.96.14-5.71,0-11.41-.09-17.12-.1-5.27-.01-10.54.09-15.81.03-4.49-.06-9-.09-13.47-.5-3.28-.3-6.21-3.87-6.25-7.18-.08-7.53-.13-15.06-.07-22.59.03-4.12,4.03-7.87,8.18-7.87,16.7,0,33.4,0,50.1,0h0Z"/>
  <path class="cls-1" d="m107.53,127.22c0,.8-.06,1.13,0,1.44,1.05,4.84-1.6,8.08-4.79,11.09-2.17,2.05-4.6,3.91-6.43,6.24-1.8,2.28-3.03,5.01-4.41,7.6-.38.72-.65,1.11-1.56,1.1-11.95-.07-23.9-.09-35.85-.12-1.1,0-2.2,0-3.43,0,1.11-2.82,2.18-5.64,3.32-8.43,5.69-13.91,11.38-27.82,17.1-41.72,2.6-6.31,5.95-8.49,12.83-7.86,4.12.37,8.18,1.38,12.29,1.99,4.04.6,7.25,2.47,10.16,5.34,6.25,6.18,12.67,12.2,19.16,18.14,1.67,1.53,3.72,2.82,5.81,3.66,8.02,3.22,16.12,6.21,24.2,9.28,3.07,1.17,5.04,3.21,5.73,6.52.44,2.11-.13,3.94-1.11,5.66-1.82,3.16-6.5,4.71-9.91,3.41-9.02-3.44-18-6.99-27.07-10.28-3.61-1.31-6.28-3.73-8.96-6.22-2.3-2.13-4.5-4.35-7.08-6.85Z"/>
  <path class="cls-1" d="m187.78,135.75c12.55-.11,23.88,9.83,24.21,23.83.3,12.48-10.76,23.66-22.75,24.14-14.28.58-25.6-10.91-25.54-23.91.06-13.24,10.71-23.97,24.07-24.06Z"/>
  <path class="cls-1" d="m130.87,71.84c-.09,13.06-10.6,23.25-23.77,23.06-11.37-.17-22.76-9.35-22.66-23.03.11-14.06,11.04-22.8,22.71-23.14,13.01-.38,23.69,10.17,23.72,23.11Z"/>
  <path class="cls-1" d="m33.07,212.21c0-3.46,0-6.87,0-10.29,0-.27.06-.54.12-.97,4.21,3.05,8.89,2.81,13.6,2.78,11.76-.09,23.52-.04,35.28-.04,22.36,0,44.71,0,67.07-.03,1.27,0,2.17.39,3.04,1.31,2.3,2.41,4.69,4.72,7.24,7.25H33.07Z"/>
  <path class="cls-1" d="m97.39,45.13c-8.15,3.04-13.46,8.75-16.71,16.55-2.28-1.11-5.71-6.25-4.89-11.53.77-4.9,4.82-9.1,10.26-10.06,4.16-.73,9.71,1.76,11.34,5.04Z"/>
</svg>