<?xml version="1.0" encoding="UTF-8"?>
<svg id="Layer_1" data-name="Layer 1" xmlns="http://www.w3.org/2000/svg" viewBox="0 0 126.83 126.83">
  <defs>
    <style>
      .cls-1 {
        fill: #637481;
      }
    </style>
  </defs>
  <path class="cls-1" d="m85.98,12.29c1.73.52,3.36,1.19,4.57,2.64,1.27,1.53,1.83,3.28,1.83,5.25,0,3.93,0,7.85,0,11.78,0,24.82,0,49.64,0,74.46,0,3.29-1.25,5.85-4.26,7.29-1.07.51-2.36.79-3.55.79-14.1.05-28.21.05-42.31.03-4.61,0-7.79-3.25-7.8-7.91,0-28.78,0-57.56,0-86.34,0-4.1,2.12-6.79,6.14-7.84.09-.02.17-.09.25-.14,15.04,0,30.08,0,45.12,0Zm2.94,78.34V25.98h-51v64.65h51Zm-25.5,18.76c3.75,0,6.8-3.04,6.8-6.78,0-3.72-3.08-6.82-6.79-6.82-3.7,0-6.8,3.09-6.8,6.81,0,3.74,3.04,6.79,6.79,6.79Zm-3.39-88.57s0,0,0,0c1.09,0,2.19.05,3.28-.01,1.14-.06,1.79-.76,1.77-1.74-.02-.98-.7-1.62-1.86-1.64-2.12-.03-4.24-.03-6.36,0-1.2.01-1.93.68-1.94,1.68,0,.98.73,1.67,1.92,1.71,1.06.04,2.12,0,3.18,0Zm9.36-3.38c-.3,0-.6-.02-.9,0-.96.09-1.58.7-1.65,1.56-.06.86.58,1.6,1.55,1.76.32.05.66.05.99.05,1.69,0,2.53-.57,2.53-1.71,0-1.15-.82-1.69-2.53-1.67Z"/>
  <path class="cls-1" d="m12.3,32.06c.11-.51.24-1.02.33-1.53.7-3.91,2.45-7.28,5.17-10.15.82-.87,1.81-1,2.55-.36.79.68.82,1.72-.04,2.64-2.19,2.34-3.68,5.04-4.27,8.19-.98,5.27.3,9.94,3.79,14.01.22.25.46.49.66.75.64.84.6,1.81-.09,2.42-.7.62-1.75.64-2.4-.18-1.27-1.61-2.66-3.2-3.54-5.02-.93-1.94-1.33-4.14-1.97-6.23-.06-.18-.13-.36-.19-.54,0-1.33,0-2.66,0-3.99Z"/>
  <path class="cls-1" d="m114.53,34.36c-.11,4.86-1.83,9.39-5.37,13.18-.96,1.03-1.98,1.2-2.76.45-.75-.71-.68-1.73.24-2.73,3.14-3.39,4.65-7.4,4.45-12.01-.17-3.85-1.57-7.24-4.16-10.12-.2-.22-.41-.44-.59-.68-.64-.85-.6-1.79.1-2.42.68-.61,1.76-.62,2.4.18,1.21,1.5,2.44,3,3.39,4.66,1.61,2.82,2.26,5.94,2.29,9.49Z"/>
  <path class="cls-1" d="m21,33.79c.04-3.84,1.34-7.16,3.95-9.97.85-.92,1.87-1.06,2.62-.38.76.68.78,1.73-.11,2.64-4.03,4.17-4.13,11.13.03,15.47.84.87.82,1.89.1,2.57-.77.73-1.75.62-2.62-.31-2.64-2.82-3.95-6.18-3.98-10.02Z"/>
  <path class="cls-1" d="m105.83,34.24c-.04,3.84-1.32,7.18-3.93,9.98-.88.94-1.85,1.1-2.62.43-.8-.68-.75-1.73.1-2.73,4.08-4.73,4.08-10.61.02-15.3-.93-1.08-.92-2.19.02-2.84.78-.54,1.59-.4,2.39.44,2.66,2.81,3.97,6.17,4.01,10Z"/>
  <path class="cls-1" d="m66.81,102.56c.02,1.86-1.45,3.38-3.3,3.42-1.92.04-3.47-1.44-3.49-3.34-.02-1.88,1.54-3.46,3.4-3.45,1.83,0,3.37,1.54,3.39,3.37Z"/>
</svg>