<?xml version="1.0" encoding="UTF-8"?>
<svg id="Layer_1" data-name="Layer 1" xmlns="http://www.w3.org/2000/svg" viewBox="0 0 126.83 126.83">
  <defs>
    <style>
      .cls-1 {
        fill: #637481;
      }
    </style>
  </defs>
  <path class="cls-1" d="m59.63,15.02c2.49,0,4.98,0,7.47,0,.39.11.76.29,1.16.33,18.32,1.97,33.5,14.89,38.32,32.72.72,2.65,1.1,5.38,1.64,8.08v7.06c-.12.59-.28,1.18-.35,1.78-1.35,11.4-6.38,20.89-14.93,28.49-7.23,6.42-15.79,9.93-25.34,11.27h40.63v7.06H18.69v-7.16h40.37c-.95-.3-1.9-.48-2.85-.64-23.56-3.85-39.66-24.83-37.39-48.73,1.69-17.79,14.24-33.16,31.35-38.21,3.08-.91,6.3-1.38,9.45-2.05Zm40.75,49.72c-.26-7.45-1.82-13.11-5.29-18.14-4.31-6.24-10.67-8.53-17.56-5.53-4,1.74-7.92,2.02-12.05,1.96-2.97-.04-5.96.13-8.92-.06-1.73-.11-3.52-.5-5.11-1.17-5.78-2.47-11.39-3.04-16.58,1.23-7.43,6.11-10.64,20.4-6.67,29.16,2.88,6.37,8.98,9.03,15.61,6.77,4.27-1.46,7.55-4.27,10.26-7.78.75-.97,1.49-1.41,2.73-1.39,4.36.07,8.71.07,13.07,0,1.22-.02,2,.34,2.76,1.34,2.51,3.29,5.57,5.94,9.46,7.52,7.08,2.87,13.83.13,16.58-7.01,1-2.6,1.36-5.45,1.71-6.9Z"/>
  <path class="cls-1" d="m46.04,54.17c1.68,0,3.11.06,4.54-.02,1.38-.08,1.88.55,1.78,1.85-.04.55-.06,1.11,0,1.66.17,1.47-.48,1.95-1.91,1.85-1.36-.1-2.74-.02-4.41-.02,0,1.6-.08,3.03.02,4.44.11,1.48-.49,1.98-1.91,1.85-.95-.09-1.93-.02-3.2-.02v-6.21h-6.45c0-1.56-.14-2.88.07-4.14.08-.48.92-1.11,1.46-1.17,1.49-.16,3.01-.06,4.82-.06,0-1.72.03-3.22-.01-4.72-.03-1.11.34-1.71,1.55-1.61.69.05,1.38.05,2.07,0,1.17-.09,1.62.45,1.59,1.58-.04,1.5,0,3,0,4.75Z"/>
  <path class="cls-1" d="m85.79,48.83c.03,1.82-1.53,3.44-3.38,3.5-1.85.06-3.49-1.45-3.58-3.3-.09-1.88,1.6-3.64,3.48-3.64,1.81,0,3.45,1.63,3.48,3.44Z"/>
  <path class="cls-1" d="m77.83,56.83c0,1.8-1.62,3.45-3.42,3.49-1.91.04-3.59-1.64-3.55-3.55.04-1.86,1.62-3.37,3.51-3.36,1.87.01,3.46,1.58,3.47,3.42Z"/>
  <path class="cls-1" d="m93.71,56.73c.05,1.89-1.4,3.47-3.26,3.58-1.93.11-3.6-1.48-3.61-3.44,0-1.9,1.47-3.42,3.37-3.46,1.89-.04,3.45,1.44,3.5,3.32Z"/>
  <path class="cls-1" d="m82.2,61.4c1.94-.05,3.49,1.36,3.58,3.25.1,1.92-1.51,3.57-3.48,3.58-1.88,0-3.45-1.51-3.49-3.36-.04-1.85,1.49-3.42,3.38-3.47Z"/>
</svg>