<?xml version="1.0" encoding="UTF-8"?>
<svg id="Layer_2" data-name="Layer 2" xmlns="http://www.w3.org/2000/svg" viewBox="0 0 260.41 252.23">
  <defs>
    <style>
      .cls-1 {
        fill: #637481;
      }
    </style>
  </defs>
  <path class="cls-1" d="m39.95,59.14c.35-1.41.65-2.84,1.04-4.24,3.17-11.13,13.37-18.92,24.95-19.02,6.28-.05,12.57,0,18.99,0v22.56c-.59,0-1.21,0-1.83,0-5.4,0-10.81-.01-16.21,0-2.92,0-4.37,1.42-4.37,4.31-.01,12.63-.1,25.26.03,37.89.17,16.83,13.76,31.4,30.44,32.85,17.57,1.52,33.35-10.13,36.51-27.05.43-2.3.66-4.66.67-6.99.07-12.1.03-24.2.03-36.31,0-3.38-1.32-4.7-4.69-4.7-5.87,0-11.74,0-17.74,0v-22.46c.49-.03,1-.09,1.51-.09,5.64,0,11.28-.02,16.92,0,14.89.05,26.5,11.59,26.55,26.46.04,12.51.07,25.03,0,37.54-.15,26.32-17.96,48.69-43.55,54.83-.5.12-.99.28-1.58.44-.03,11.63,3.95,21.53,12.7,29.12,10.95,9.5,23.63,12.13,37.31,7.35,13.61-4.76,21.74-14.71,24.61-28.83.48-2.34.54-4.79.56-7.18.07-7.64,0-15.27.05-22.91,0-1.18-.29-1.85-1.41-2.46-10.69-5.82-15.94-18.39-12.65-30.08,3.38-12,14.26-19.69,27.11-19.16,11.6.48,21.87,9.58,24.12,21.38,2.12,11.1-3.16,22.35-13.16,27.86-1.16.64-1.5,1.32-1.5,2.59.04,8.46.12,16.92-.04,25.38-.52,27.74-21.65,52.35-48.96,57.13-2.24.39-4.5.7-6.75,1.05h-8.81c-2.07-.33-4.15-.66-6.22-1.01-23.09-3.92-42.56-22.15-47.69-44.91-1.13-5.01-1.53-10.17-2.3-15.47-.06-.02-.51-.15-.96-.27-21.71-5.73-35.67-19.42-41.84-40.98-.88-3.07-1.22-6.31-1.81-9.46,0-15.04,0-30.08,0-45.12Z"/>
</svg>