<?xml version="1.0" encoding="UTF-8"?>
<svg id="Layer_1" data-name="Layer 1" xmlns="http://www.w3.org/2000/svg" viewBox="0 0 127 127">
  <defs>
    <style>
      .cls-1 {
        fill: #637481;
      }
    </style>
  </defs>
  <path class="cls-1" d="m62.8,65.49c-1.35,1.38-2.65,2.72-3.97,4.05-5.31,5.32-10.63,10.64-15.96,15.94-.45.45-.48.77-.19,1.32,1.58,3.07.95,6.9-1.47,9.36-.63.64-1.24,1.29-2.04,2.13-3.88-3.94-7.69-7.81-11.52-11.71,1.54-1.56,2.91-3.21,5.04-3.88,2.2-.7,4.34-.59,6.4.46.48.24.76.22,1.15-.17,6.47-6.5,12.95-12.98,19.43-19.46.19-.19.37-.39.63-.68-1.41-1.38-2.79-2.71-4.15-4.07-2.36-2.34-4.72-4.68-7.04-7.05-.38-.39-.62-.38-1.07-.12-4,2.34-8.91,1.69-12.2-1.6-2.58-2.58-5.16-5.16-7.74-7.74-.17-.17-.33-.36-.51-.55.88-.84,1.72-1.65,2.67-2.55,1.21,1.24,2.46,2.53,3.72,3.81,1.48,1.49,2.96,2.97,4.45,4.45,1.24,1.23,2.73,1.88,4.66,1.9-4.41-3.41-7.88-7.57-11.83-11.26.93-.89,1.77-1.69,2.79-2.67.32.39.67.88,1.09,1.3,2.82,2.8,5.61,5.63,8.51,8.35,1,.93,2.28,1.57,3.43,2.33.07-.07.15-.15.22-.22-.47-.8-.82-1.7-1.42-2.39-1.82-2.06-3.7-4.05-5.61-6.02-1.58-1.63-3.22-3.2-4.8-4.78.9-.88,1.75-1.7,2.67-2.59,3.58,3.86,7.75,7.31,11.22,11.8-.08-.63-.1-1.08-.18-1.51-.27-1.34-.97-2.44-1.93-3.4-2.41-2.4-4.81-4.8-7.21-7.21-.28-.28-.58-.54-.82-.76.9-.89,1.74-1.72,2.68-2.65,1.08,1.11,2.23,2.31,3.41,3.5,1.55,1.56,3.1,3.11,4.66,4.66,3.31,3.3,3.97,8.22,1.63,12.27-.19.33-.36.58.02.96,3.69,3.66,7.36,7.34,11.03,11.01.07.07.15.12.18.14,4.56-4.56,9.08-9.09,13.69-13.7-1.83-1.78-3.7-3.6-5.64-5.49,1.19-1.18,2.28-2.27,3.37-3.36,1.75-1.75,3.47-3.53,5.25-5.24,2.81-2.7,6.16-3.58,9.89-2.43,3.67,1.13,5.93,3.7,6.7,7.47.62,3.05-.02,5.92-2.13,8.18-2.93,3.14-6.08,6.06-9.22,9.16-1.78-1.84-3.61-3.74-5.41-5.61-4.67,4.67-9.18,9.19-13.76,13.77.15.16.32.36.51.55,6.94,6.94,13.89,13.88,20.82,20.84.41.41.69.45,1.21.18,3.16-1.62,6.95-.99,9.48,1.51.62.61,1.27,1.2,1.85,1.75-3.91,3.89-7.73,7.71-11.58,11.54-3.46-2.61-5.61-6.51-3.29-11.32.21-.44.16-.68-.18-1.02-7-6.99-14-13.98-20.99-20.98-.14-.14-.29-.27-.57-.52Zm25.15,28.65c2.06-2.06,4.09-4.1,6.12-6.13-1.43-1.15-3.87-.92-5.42.53-1.54,1.44-1.85,3.92-.7,5.59Zm-48.8-1.33c1.26-1.83.83-4.47-.92-5.89-1.57-1.27-4.14-1.36-5.17-.23,2.02,2.03,4.04,4.06,6.1,6.12Z"/>
</svg>