<?xml version="1.0" encoding="UTF-8"?>
<svg id="Layer_2" data-name="Layer 2" xmlns="http://www.w3.org/2000/svg" viewBox="0 0 260.41 252.23">
  <defs>
    <style>
      .cls-1 {
        fill: #637481;
      }
    </style>
  </defs>
  <g>
    <path class="cls-1" d="m96.74,87.01c-.88,8.97-1.53,17.98-2.7,26.91-1.83,14.03-10.29,22.6-23.42,26.85-2.22.72-3.24,1.69-3.65,4.02-2.85,16.09-5.85,32.16-8.78,48.24-.2,1.11-.15,2.27-.28,3.4-.49,4.21,1.44,7.14,5.07,8.87,3.15,1.5,6.48,2.61,9.73,3.88,1.06.41,2.34.57,3.12,1.28.77.7,1.04,1.96,1.52,2.98-1.01.42-2.11,1.34-3.03,1.2-8.2-1.28-16.37-2.75-24.55-4.16-6.17-1.07-12.34-2.16-18.52-3.19-1.53-.25-3.15-.5-3.01-2.43.14-1.93,1.78-2.36,3.42-2.38,2.85-.03,5.7.07,8.55.03,1.46-.02,2.93-.14,4.37-.36,4.2-.62,7.08-2.79,7.95-7.11,2.3-11.48,4.65-22.95,6.81-34.45,1.09-5.83,1.71-11.76,2.72-17.61.3-1.73-.22-2.59-1.55-3.6-10.18-7.74-15.79-17.62-13.72-30.8.67-4.25,1.37-8.56,2.71-12.63,3.04-9.26,6.5-18.39,9.75-27.59.53-1.49,1.3-1.9,2.91-1.61,10.25,1.85,20.51,3.63,30.78,5.31,2.14.35,3.1,1.13,3.02,3.4-.14,3.82-.04,7.65-.04,11.47.27.02.55.04.82.06Zm-47.05,17.64c.99.14,1.54.28,2.08.28,13.26,0,26.53-.02,39.79.03,1.61,0,2.2-.62,2.19-2.11-.03-8.68-.02-17.37-.15-26.05,0-.63-.97-1.68-1.62-1.8-9.68-1.77-19.39-3.37-29.07-5.13-1.47-.27-2.11.23-2.56,1.44-2.9,7.67-5.97,15.27-8.63,23.02-1.11,3.24-1.36,6.78-2.04,10.33Z"/>
    <path class="cls-1" d="m160.22,202.5c1.95,0,3.96-.27,5.84.1,1.12.22,2.67,1.29,2.92,2.27.42,1.65-1.15,2.15-2.65,2.41-14.03,2.4-28.06,4.84-42.09,7.27-.56.1-1.17.34-1.68.21-.86-.22-2.18-.51-2.36-1.07-.26-.8.05-2.17.65-2.76.82-.8,2.11-1.14,3.24-1.58,3.18-1.24,6.48-2.21,9.55-3.68,4.99-2.4,6.5-5.15,5.64-10.64-1.96-12.45-4.1-24.87-6.26-37.28-.81-4.64-1.97-9.23-2.86-13.86-.31-1.63-1.06-2.37-2.71-2.88-13.23-4.09-21.94-12.41-24.1-26.54-.75-4.9-1.58-9.83-1.76-14.77-.3-8.29-.09-16.59-.15-24.89-.01-1.57.5-2.28,2.14-2.56,10.67-1.79,21.32-3.7,32-5.47.67-.11,1.93.52,2.19,1.11,5.54,12.7,10.24,25.67,12.61,39.4,2.35,13.62-2.87,23.97-13.5,32.07-1.07.81-2.01,1.43-1.71,3.09,2.81,15.94,5.54,31.89,8.33,47.83.25,1.44.69,2.85,1.11,4.25,1.59,5.37,3.89,7.32,9.53,7.82,2.02.18,4.06.03,6.1.03,0,.03,0,.06,0,.1Zm-12.95-97.69c.05-.58.11-.89.09-1.21-.02-.49-.08-.97-.15-1.45-1.63-10.98-5.55-21.19-10.37-31.11-.69-1.42-1.54-1.31-2.74-1.1-9.53,1.68-19.06,3.35-28.61,4.91-1.49.24-1.9.97-1.91,2.25-.03,8.45-.06,16.89-.1,25.34,0,1.95.87,2.54,2.85,2.53,12.86-.09,25.72-.04,38.58-.04.72,0,1.44-.07,2.37-.12Z"/>
    <path class="cls-1" d="m100.35,56.15c0,1.54.16,3.11-.08,4.62-.1.64-1.05,1.14-1.61,1.71-.51-.54-1.43-1.06-1.45-1.63-.14-3.16-.14-6.33,0-9.49.03-.55.97-1.06,1.5-1.59.55.58,1.48,1.11,1.58,1.76.24,1.51.08,3.07.08,4.62,0,0,0,0-.01,0Z"/>
    <path class="cls-1" d="m93.77,61.6c-.99.21-2.27.85-2.67.5-2.57-2.23-4.97-4.65-7.34-7.11-.3-.31-.28-1.41.03-1.7.42-.41,1.57-.75,1.84-.5,2.63,2.4,5.14,4.93,7.67,7.45.15.15.16.45.47,1.36Z"/>
    <path class="cls-1" d="m105.59,62.48c-1.43-.08-2.18-1.48-1.26-2.46,2.27-2.44,4.68-4.75,7.14-7,.37-.34,1.51-.34,1.93-.02.4.31.67,1.56.41,1.84-2.4,2.53-4.92,4.95-7.43,7.38-.21.2-.6.21-.78.26Z"/>
  </g>
  <path class="cls-1" d="m136.71,60.02c1.09-.12,2.07-.23,3.05-.32,3.92-.35,7.84-.69,11.76-1.05,9.54-.87,17.2,2.7,23.24,9.96,1.22,1.47,2.18,3.16,3.26,4.75.09-.26.23-.62.35-1,1.81-5.88,4.01-11.6,6.62-17.17,2.76-5.9,6.03-11.49,10.04-16.63,1.17-1.5.83-1.33,2.3-.39,1.55.98,2.94,2.17,4.02,3.68.75,1.06,1.4,2.21.96,3.56-.2.63-.6,1.25-1.05,1.75-3.94,4.43-7.4,9.21-10.34,14.35-2.12,3.71-4.01,7.55-6,11.34-.07.13-.09.29-.2.63.42-.24.69-.37.95-.54,3.14-2.09,6.53-3.56,10.26-4.27,3.43-.66,6.8-.41,10.21.21,4.82.88,9.26,2.79,13.67,4.8,3.85,1.75,7.85,3.06,11.93,4.14.09.02.19.05.28.08.06.07.11.13.17.2-.18.09-.38.15-.53.28-3.42,2.89-7.44,4.57-11.72,5.68-6.27,1.62-12.64,2.23-19.11,2-4.73-.17-9.46-.06-14.17.42-1.85.19-3.69.54-5.53.78-.62.08-1.25.03-1.88.09-.19.02-.48.15-.53.29-1.68,4.89-3.33,9.78-4.99,14.67-.01.04,0,.08,0,.22.33.05.68.13,1.03.16,4.75.48,8.55,2.7,11.45,6.42,5.66,7.26,4.55,17.96-2.43,23.81-8.55,7.18-20.67,3.99-25.26-5.26-3.32-6.69-2.54-13.09,1.98-18.94,2.53-3.28,6.01-5.2,10.13-5.87.45-.07.59-.26.68-.68.87-4.44,1.75-8.87,2.65-13.3.2-1.01.46-2.01.72-3.02.1-.4.02-.64-.31-.93-1.32-1.2-2.91-1.8-4.58-2.29-4.42-1.32-8.54-3.25-12.32-5.94-2.61-1.86-5.38-3.48-7.98-5.36-4.5-3.27-8.84-6.76-12.58-10.91-.05-.05-.07-.13-.19-.35Zm43.99,49.61c-2.77,0-4.96,2.21-4.95,4.99,0,2.87,2.14,5.13,4.83,5.13,2.91,0,5.04-2.12,5.05-5.01,0-2.98-2.05-5.11-4.93-5.11Zm-1.42-23.47s.08.1.11.15c.27-.13.56-.24.82-.4,2.47-1.55,5.01-2.96,7.76-4,3.8-1.44,7.67-2.63,11.72-3.07,5.34-.58,10.69-.4,16.05-.11,3.05.16,6.12.13,9.18.18.14,0,.28-.06.42-.09,0-.05,0-.11,0-.16-.8-.08-1.6-.16-2.4-.24-4.34-.42-8.67-.91-13.02-1.23-4.74-.36-9.48-.47-14.19.39-4.69.86-9.16,2.34-13.51,4.3-1.96.88-2.33,2.61-2.94,4.28Zm-3.82-3.79c.13-.44.28-.88.4-1.33.72-2.55.67-2.82-1.12-4.78-4.4-4.82-9.89-7.92-16.08-9.74-4.8-1.41-9.68-2.53-14.53-3.76-.47-.12-.96-.11-1.45-.16,0,.05-.02.11-.03.16.71.28,1.4.58,2.12.82,3.09,1.02,6.19,2.05,9.3,3.03,3.75,1.19,7.48,2.4,10.86,4.5,2.14,1.33,4.23,2.73,6.08,4.44,2.04,1.88,3.69,4.03,4.44,6.81Z"/>
  <path class="cls-1" d="m228.21,119.65c.09,7.52-5.04,14.37-12.12,16.49-7.96,2.38-16.53-1.81-19.78-9.62-3.17-7.62-.87-15.92,5.69-20.82,5.52-4.12,13.38-4.14,18.95-.08,4.08,2.97,6.37,6.99,7.13,11.93.02.14.04.28.04.42.03.59.06,1.18.09,1.67Zm-4.19-4.89c.01-2.85-2.1-5.04-4.76-5.14-2.67-.1-5.13,1.93-5.13,5.19,0,2.8,2.16,4.93,5.06,4.94,2.66,0,4.82-2.22,4.83-4.99Z"/>
  <path class="cls-1" d="m192.65,171.59c-4.94-.26-9.2-2.79-11.99-7.52-5.91-10.02.52-22.31,11.32-23.63,5.95-.73,11.85,2.4,14.87,7.84,4.28,7.71,1.48,17.43-6.22,21.59-2.3,1.24-4.77,1.79-7.97,1.72Zm3.42-20.24c-.11,2.84,2.1,4.77,4.53,4.71,2.54-.05,4.51-2.11,4.48-4.71-.02-2.52-2.13-4.64-4.55-4.61-2.68.04-4.69,2.36-4.47,4.6Z"/>
  <path class="cls-1" d="m176.35,202.9c-7.38.03-13.19-4.36-15.3-10.91-2.82-8.75,2.54-18.17,11.54-20.02,5.9-1.21,10.83.77,14.62,5.37,5.25,6.37,4.6,15.8-1.39,21.42-2.89,2.71-6.33,4.11-9.47,4.14Zm6.08-24.84c-2.61-.02-4.55,1.99-4.57,4.73-.02,2.46,2,4.51,4.46,4.53,2.63.02,4.58-1.92,4.61-4.61.03-2.63-1.91-4.64-4.5-4.66Z"/>
  <path class="cls-1" d="m153.17,171.59c-6.8.08-13.28-5.83-14.36-13.39-.96-6.67,2.64-14.01,9.64-16.8,9.41-3.74,18.93,2.87,20.34,11.78.99,6.2-.93,11.39-5.86,15.33-2.67,2.13-5.78,3.14-9.76,3.08Zm3.06-20.28c-.01,2.63,1.91,4.71,4.39,4.73,2.65.03,4.65-1.93,4.65-4.57,0-2.65-1.89-4.67-4.4-4.69-2.62-.02-4.63,1.95-4.64,4.53Z"/>
</svg>