<?xml version="1.0" encoding="UTF-8"?>
<svg id="Layer_2" data-name="Layer 2" xmlns="http://www.w3.org/2000/svg" viewBox="0 0 260.41 252.23">
  <defs>
    <style>
      .cls-1 {
        fill: #637481;
      }
    </style>
  </defs>
  <path class="cls-1" d="m20.2,197.5c2.24-5.24,6.81-7.94,11.58-10.25,9.26-4.5,19.19-6.91,29.21-9.01.7-.15,1.54.33,2.31.52-.54.54-.98,1.32-1.63,1.59-6.72,2.84-13.44,5.65-19.3,10.13-7.54,5.77-7.59,11.6-.13,17.37,5.67,4.38,12.16,7.17,18.69,9.92.91.38,1.59,1.28,2.38,1.94-1.06.11-2.17.5-3.16.3-9.39-1.93-18.67-4.29-27.39-8.38-2.19-1.03-4.31-2.25-6.36-3.54-2.78-1.74-4.81-4.19-6.18-7.16v-3.44Z"/>
  <path class="cls-1" d="m177.71,214.78c.82-.45,1.62-.95,2.47-1.35,3.98-1.87,7.75-4.02,10.7-7.37,3.92-4.44,4-9.42.18-13.95-2.72-3.23-6.25-5.34-10.41-7.35v10.34c0,6.15-.5,6.93-6.14,9.26-6.61,2.74-13.6,3.83-20.64,4.69-14.55,1.77-29.14,1.85-43.72.42-8.61-.85-17.2-1.99-25.26-5.49-4.46-1.94-5.24-3.06-5.25-7.95,0-3.51-.03-7.01-.06-10.52,0-.11-.13-.23-.31-.51-4.33,2.1-8.42,4.51-11.13,8.68-2.61,4.01-2.15,8.42,1.15,12.23,2.97,3.43,6.8,5.64,10.85,7.53.86.4,1.67.9,3.02,1.64-.99.26-1.38.5-1.69.43-8.15-1.93-16.24-4.04-23.34-8.78-.42-.28-.82-.57-1.2-.9-5.65-4.8-5.47-9.65.56-14.05,5.65-4.13,12.22-6.13,18.84-8,3.8-1.08,3.27-.05,3.32-4.32.08-6.73-.08-13.46.28-20.17.42-7.79,7.07-14.23,14.88-14.58,5.36-.24,10.74-.1,16.1-.12,5.69-.02,7.97-3.49,5.19-8.43-1.48-2.62-3.56-5.05-5.82-7.06-5.22-4.64-8.9-10.12-11.13-16.75-1.63-4.87-3.94-9.5-5.72-14.32-3.53-9.56-4.59-19.29-1.58-29.24.29-.97.13-2.13,0-3.18-1.59-12.21,4.63-24.3,15.54-30.13,11.02-5.88,24.59-4.31,33.85,3.88.83.74,1.83,1.4,2.87,1.77,12.25,4.35,18.92,13.27,21.28,25.76.2,1.05.37,2.12.44,3.18.18,2.79.74,5.38,1.94,8.01,4.98,10.91,2.33,24.17-6.04,32.81-1.96,2.02-3.71,4.36-5.08,6.82-2.32,4.18-5.19,7.83-8.66,11.11-2.21,2.09-4.37,4.41-5.89,7.02-2.97,5.08-.67,8.71,5.19,8.72,5.51,0,11.03-.07,16.54.02,8.3.14,14.31,4.76,16.3,12.58.45,1.77.51,3.68.53,5.53.06,6.08.07,12.17-.01,18.25-.02,1.5.46,2.09,1.92,2.47,6.87,1.76,13.64,3.81,19.6,7.86.12.08.24.16.36.24,6.7,4.7,6.67,10.46-.1,15.09-6.13,4.18-13.1,6.3-20.19,8.09-1.4.35-2.82.62-4.24.93-.09-.28-.19-.56-.28-.84Zm-17.24-141.44c-.24-1.98-.36-3.62-.64-5.23-2.16-12.35-9.42-20.63-21.76-22.58-14.66-2.31-26.54,3.53-35.5,14.99-7.27,9.3-8.19,20-5.24,31.17.47,1.8,1.18,3.53,1.73,5.16,1.91-3.79,3.39-7.64,5.62-10.99,5.94-8.92,14.8-12.43,25.22-12.5,9.31-.06,18.61-.01,27.92-.02.77,0,1.55,0,2.66,0Zm-.58,30.38c4.91-5.61,6.28-16.19,2.44-23.86-.23-.47-1.09-.85-1.67-.87-2.29-.1-4.58-.04-6.87-.04-2.16,0-4.31,0-7.12,0,8.54,6.52,12.68,14.64,13.23,24.77Zm-61.79-47.2c12.48-12.25,13.75-12.95,31.26-17.31-11.21-5.04-28.2,2.15-31.26,17.31Zm36.12,68.8c-3.51-.47-6.7-.68-10.07.09,2.27,3.99,7.65,4,10.07-.09Zm-.05-3.54c-1.27-2.91-2.57-3.45-6.8-2.95-1.56.18-2.74.97-2.99,2.95h9.79Z"/>
  <path class="cls-1" d="m46.2,144.57c-8.49-7.26-9.53-20.85-2.2-29.94,1.9-2.36,4.25-4.51,6.79-6.15,7.39-4.8,10.42-11.82,11.14-20.2.19-2.19.37-4.38.59-7.05.72.73,1.27,1.21,1.72,1.76,8.56,10.6,6.82,25.66-3.95,34.13-2.02,1.59-4.1,3.11-6.14,4.68-4.67,3.61-6.59,8.66-7.3,14.28-.34,2.74-.44,5.52-.66,8.5Z"/>
  <path class="cls-1" d="m217.97,81.49c3.02,2.66,4.72,5.87,5.76,9.33,3.13,10.4.05,19.78-8.52,26.53-1.46,1.15-2.98,2.23-4.49,3.31-5.74,4.09-8.16,9.93-8.77,16.69-.21,2.27-.31,4.54-.48,7.11-2.99-2.56-4.76-5.67-5.85-9.14-2.92-9.24.3-19.04,8.11-25.06.45-.35.9-.72,1.39-1.01,8.56-5.03,11.84-12.96,12.37-22.43.09-1.69.29-3.37.47-5.33Z"/>
  <path class="cls-1" d="m240.2,198.76c-.11,3.15-1.47,5.29-3.41,7.09-4.18,3.87-9.23,6.31-14.53,8.01-7.4,2.37-14.96,4.24-22.45,6.32-.21.06-.44.14-.63.09-.71-.18-1.4-.4-2.1-.61.49-.51.88-1.22,1.48-1.51,5.37-2.66,10.86-5.09,16.12-7.93,2.34-1.26,4.42-3.16,6.32-5.07,3.78-3.77,3.67-8.02,0-11.93-4.05-4.32-9.2-6.96-14.44-9.45-2.51-1.19-5.14-2.15-7.65-3.34-.71-.33-1.21-1.11-1.8-1.68.85-.17,1.77-.66,2.53-.47,6.5,1.64,13.08,3.09,19.43,5.21,4.84,1.62,9.44,4.01,14.01,6.31,2.76,1.39,5.05,3.53,6.38,6.44.41.89.57,1.9.74,2.5Z"/>
</svg>