<?xml version="1.0" encoding="UTF-8"?>
<svg id="Layer_2" data-name="Layer 2" xmlns="http://www.w3.org/2000/svg" viewBox="0 0 260.41 252.23">
  <defs>
    <style>
      .cls-1 {
        fill: #637481;
      }
    </style>
  </defs>
  <path class="cls-1" d="m218.48,130.88v79.39c-1.01,2.46-2.6,4.15-5.49,4.14-15.99,0-31.99.03-47.98-.07-1.31,0-2.81-.68-3.87-1.49-2.32-1.78-4.59-3.7-6.55-5.86-1.9-2.08-3.44-2.02-5.99-.92-25.4,11.02-51.1,11.19-76.82,1.2-9.4-3.65-17.67-9.18-23.72-17.47-4.37-5.99-7.09-12.44-5.81-20.25,2.17-13.25,6.01-25.95,11.6-38.12,8.48-18.46,20.15-34.51,36.29-47.08,1.42-1.11,2.9-2.14,4.6-3.38.77,14.01,6.08,25.65,15.7,35.27-4.78,8.3-9.25,16.55-7.69,26.71,10.1-7.1,20.33-8.05,30.96-2.17,1.1-1.07,2.13-2.15,3.24-3.16,13.64-12.37,35.87-14.04,51.84-3.84,1.1.7,1.95.76,3.14.32,6.08-2.27,12.19-4.45,18.3-6.65,4.31-1.55,6.35-.71,8.28,3.41Z"/>
  <path class="cls-1" d="m150.13,37.67c3.07.69,6.22,1.14,9.21,2.1,18.27,5.88,29.66,23.17,28.4,42.9-1.14,17.81-15.27,33.54-33.31,37.07-23.61,4.62-46.24-11.93-49.1-35.93-2.68-22.46,13.8-43.3,36.23-45.83.45-.05.89-.21,1.33-.31,2.42,0,4.83,0,7.25,0Zm11.84,41.42c0-8.55-6.87-15.49-15.39-15.53-8.59-.04-15.61,6.92-15.63,15.51-.02,8.48,6.95,15.5,15.43,15.55,8.6.04,15.58-6.91,15.59-15.52Z"/>
  <path class="cls-1" d="m146.43,84.26c-2.8-.03-5.16-2.43-5.12-5.22.03-2.81,2.41-5.14,5.22-5.11,2.84.03,5.11,2.36,5.09,5.21-.02,2.85-2.36,5.15-5.19,5.12Z"/>
</svg>