<?xml version="1.0" encoding="UTF-8"?>
<svg id="Layer_1" data-name="Layer 1" xmlns="http://www.w3.org/2000/svg" viewBox="0 0 127 127">
  <defs>
    <style>
      .cls-1 {
        fill: #637481;
      }
    </style>
  </defs>
  <path class="cls-1" d="m29.48,61.87c0,3.08,0,6.17,0,9.25,0,.28.05.59-.31.7-.35.1-.49-.15-.66-.39-1.45-2.12-2.33-4.47-2.43-7.01-.13-3.47-.21-6.96.02-10.42.25-3.87,1.83-7.22,4.97-9.69.35-.27.74-.5,1.11-.73.51-.31.69-.76.46-1.19-.23-.42-.73-.51-1.25-.21-2.57,1.47-4.33,3.66-5.52,6.33-1.04,2.32-1.52,4.76-1.5,7.3,0,.25,0,.49,0,.74,0,.32-.06.66-.41.68-.23.02-.55-.12-.7-.3-.81-.93-1.43-1.98-1.8-3.15-.52-1.66-.67-3.35-.3-5.06.21-1.01.83-1.71,1.63-2.32,1.67-1.28,3.34-2.58,4.92-3.95,1.13-.98,2.1-2.16,2.63-3.6.22-.59.32-1.24.35-1.88.1-2.19-.02-4.4.26-6.56.58-4.54,2.44-8.52,6.09-11.43,4.1-3.27,10.51-3.84,15.06-.29,1.98,1.55,3.38,3.54,4.42,5.8,1.18,2.57,1.92,5.25,1.91,8.1-.01,3.46-.97,6.66-2.68,9.64-.34.59-.25.99.32,1.32,2.74,1.55,4.39,3.97,5.4,6.87.62,1.78.86,3.61.84,5.49-.02,2.61.04,5.21-.04,7.82-.08,2.77-.91,5.34-2.47,7.65-.13.19-.43.39-.64.38-.35-.02-.33-.37-.33-.66,0-5.8.08-11.61-.02-17.41-.1-5.21-2.47-9.13-7.17-11.52-1.74-.88-3.62-1.31-5.58-1.31-1.75,0-3.51-.08-5.23.11-5.22.56-9.47,4.26-10.87,9.32-.42,1.53-.46,3.09-.47,4.66-.01,2.31,0,4.62,0,6.92,0,0,.01,0,.02,0Zm14.35-42.89c-2.27.01-4.52,1.06-6.12,2.87-3.56,4.01-3.68,10.36-.29,14.51,3.43,4.19,9.2,4.26,12.7.16,1.9-2.22,2.67-4.83,2.6-7.72-.04-1.34-.96-2.29-2.29-2.47-.77-.11-1.56-.3-2.26-.64-2.27-1.1-3.28-3.15-2.9-5.63.08-.5-.2-.91-.71-1.01-.24-.05-.49-.05-.74-.07Z"/>
  <path class="cls-1" d="m44.11,72c-4.1,0-8.21,0-12.31,0-.6,0-.68-.08-.68-.68,0-6.1-.05-12.2.03-18.3.04-2.79,1.2-5.2,3.17-7.2.11-.11.38-.23.45-.17.14.11.26.33.29.51.18,1.24.28,2.49.51,3.72.58,3.08,1.49,6.04,3.31,8.65,1.03,1.48,2.27,2.71,4.07,3.19,1.8.48,3.38-.07,4.77-1.23,1.65-1.38,2.67-3.2,3.48-5.15,1.13-2.73,1.75-5.58,2.01-8.52.02-.24.05-.49.11-.73.03-.15.11-.39.19-.4.17-.02.41.03.51.15.52.61,1.07,1.22,1.49,1.9,1.14,1.85,1.69,3.87,1.68,6.06-.02,5.79,0,11.57,0,17.36,0,.82-.02.84-.86.84-4.07,0-8.14,0-12.21,0h0Z"/>
  <path class="cls-1" d="m89.17,59.45c0-3.71,0-7.42,0-11.13,0-.54.18-.88.64-1.17.37-.24.71-.6.95-.97.6-.91,1.15-1.84,1.69-2.79.4-.7.96-1.02,1.77-1.01,1.8.03,3.59,0,5.39,0,.91,0,1.31.33,1.39,1.23.35,3.82.79,7.64,1.01,11.47.29,5.15.14,10.31-.3,15.45-.07.79-.11,1.58-.24,2.36-.05.31-.24.67-.48.86-1.59,1.26-3.21,2.47-4.82,3.7-.55.42-1.16.34-1.66-.23-1.73-1.97-3.46-3.93-5.16-5.92-.14-.16-.17-.45-.17-.69-.01-3.73,0-7.45,0-11.18h0Z"/>
  <path class="cls-1" d="m87.55,59.36c0,3.66,0,7.32,0,10.98,0,.54-.14.96-.51,1.37-1.67,1.86-3.31,3.75-4.96,5.62-.4.45-1.02.51-1.5.15-1.22-.92-2.43-1.85-3.65-2.78-.39-.3-.82-.56-1.16-.91-.24-.25-.5-.61-.52-.94-.23-3.1-.53-6.21-.58-9.32-.06-3.6.02-7.22.2-10.82.16-3.05.56-6.1.86-9.14.08-.82.49-1.18,1.29-1.18,2,0,3.99.01,5.99,0,.49,0,.8.19,1.04.6.64,1.1,1.27,2.2,1.97,3.25.25.38.64.7,1.03.97.34.24.53.49.52.92-.01,3.74,0,7.48,0,11.23Z"/>
  <path class="cls-1" d="m88.39,89.71c-3.56,0-7.12,0-10.68,0-1.14,0-1.46-.32-1.46-1.47,0-3.49,0-6.99,0-10.48,0-.33-.04-.75.34-.84.27-.06.64.06.88.22.72.49,1.4,1.04,2.09,1.57,1.25.95,2.77.81,3.81-.37,1.43-1.62,2.84-3.25,4.26-4.88.62-.71.87-.71,1.48,0,1.4,1.62,2.8,3.24,4.22,4.85,1.09,1.24,2.61,1.37,3.93.35.72-.55,1.42-1.12,2.17-1.64.21-.15.6-.25.79-.16.19.09.34.47.34.72.02,3.61.02,7.22.01,10.83,0,.9-.36,1.28-1.25,1.29-3.64,0-7.29,0-10.93,0h0Z"/>
  <path class="cls-1" d="m43.94,104.42c-3.89,0-7.78,0-11.67,0-.76,0-.88-.12-.93-.88-.08-1.15-.15-2.3-.24-3.45-.04-.45.12-.71.56-.84,2.85-.85,5.71-1.71,8.56-2.56,2.92-.87,5.83-1.75,8.75-2.63,2.3-.69,4.6-1.39,6.9-2.07.76-.22,1.17.09,1.19.89.09,3.58-.08,7.15-.39,10.72-.05.58-.34.83-1,.83-3.9,0-7.81,0-11.71,0Z"/>
  <path class="cls-1" d="m30.96,90.01c.27-2.67.54-5.34.79-8.01.07-.71.13-1.41.59-2,.72-.92,1.69-1.35,2.84-1.35,3.28-.02,6.56,0,9.84-.01,1.59,0,3.19,0,4.78,0,.95,0,1.91-.01,2.86,0,1.21.02,2.28.4,2.97,1.46.25.38.39.87.48,1.33.14.71.19,1.44.28,2.15.09.66-.03.87-.67,1.05-2.3.64-4.6,1.26-6.9,1.89-4.6,1.26-9.2,2.53-13.79,3.8-.9.25-1.81.49-2.71.74-1.04.28-1.32.06-1.37-1.03Z"/>
  <path class="cls-1" d="m44.12,42.46c1.58-.02,3.17-.07,4.71.4.78.24,1.55.54,2.31.85.54.22.63.7.6,1.23-.11,2.24-.41,4.46-.98,6.63-.58,2.21-1.35,4.35-2.73,6.2-.42.56-.91,1.1-1.44,1.55-1.58,1.32-3.37,1.27-4.94-.07-1.23-1.05-2.06-2.39-2.72-3.84-1.38-3.02-2.01-6.22-2.28-9.51-.03-.39-.06-.79-.08-1.18-.03-.51.22-.83.66-1.05,1.65-.83,3.4-1.21,5.25-1.21.54,0,1.09,0,1.63,0Z"/>
  <path class="cls-1" d="m88.19,27.49c2.54.02,4.72.65,6.71,1.93.18.12.36.32.42.52.96,3.45.09,7.75-2.99,10.16-2.66,2.09-6.31,1.84-8.64-.63-2.54-2.7-3.13-5.91-2.3-9.44.06-.24.27-.5.48-.64,1.97-1.29,4.15-1.87,6.32-1.9Z"/>
  <path class="cls-1" d="m98.67,100.42c0,2.49,0,4.98,0,7.46,0,1.8-.97,2.77-2.78,2.77-.59,0-1.19.01-1.78,0-1.22-.03-2.19-.89-2.37-2.1-.04-.24-.05-.49-.05-.74,0-4.98,0-9.95,0-14.93,0-1.18.38-1.56,1.58-1.56,1.32,0,2.64,0,3.95,0,1.03,0,1.44.4,1.44,1.43,0,2.55,0,5.11,0,7.66h0Z"/>
  <path class="cls-1" d="m85.21,100.43c0,2.54,0,5.07,0,7.61,0,1.6-1.02,2.61-2.63,2.61-.71,0-1.42.03-2.11-.05-1.63-.19-2.15-1.26-2.19-2.66-.02-.56,0-1.11,0-1.67,0-4.43,0-8.86,0-13.3,0-.18,0-.36.01-.54.04-.62.44-1.07,1.06-1.08,1.58-.03,3.16-.03,4.74,0,.73.01,1.13.5,1.13,1.28,0,2.6,0,5.21,0,7.81h0Z"/>
  <path class="cls-1" d="m30.97,95.14c0-.43.01-.86,0-1.28-.02-.56.27-.85.77-.99,2.63-.72,5.27-1.45,7.9-2.17,3.14-.86,6.28-1.73,9.42-2.59,2.16-.59,4.32-1.18,6.48-1.76.69-.19,1.11.11,1.2.83.07.64.12,1.28.16,1.92.04.64-.19.96-.83,1.15-4.18,1.25-8.35,2.5-12.53,3.75-3.72,1.11-7.44,2.23-11.16,3.35-.91.27-1.4-.08-1.42-1.02,0-.4,0-.79,0-1.19,0,0,0,0,0,0Z"/>
  <path class="cls-1" d="m42.14,106.06c3.03,0,6.06,0,9.08,0,1.41,0,2.83,0,4.24,0,.71,0,.9.23.8.94-.04.28-.09.55-.11.83-.12,1.92-1.85,2.9-3.29,2.91-1.71.01-3.43,0-5.14,0-2.42,0-4.84,0-7.27,0-1.8,0-3.59.01-5.39,0-1.61-.02-2.97-1.1-3.22-2.54-.08-.44-.11-.88-.15-1.32-.05-.61.14-.81.75-.81,2.14,0,4.28,0,6.43,0,1.09,0,2.18,0,3.26,0Z"/>
  <path class="cls-1" d="m44.18,73.61c3.91,0,7.81,0,11.72,0,1.25,0,1.29.05,1.3,1.32,0,.55-.13,1.04-.51,1.45-.39.42-.87.63-1.45.63-6.03,0-12.06,0-18.1,0-1.32,0-2.64,0-3.95,0-1.26,0-2.06-.81-2.07-2.07,0-.15,0-.3,0-.45,0-.65.24-.88.9-.88.54,0,1.09,0,1.63,0,3.51,0,7.02,0,10.53,0h0Z"/>
  <path class="cls-1" d="m83.79,18.73c.29,0,.57,0,.85,0,2.69,0,5.38.01,8.06-.01.49,0,.64.14.71.6.38,2.32.79,4.64,1.19,6.96.1.6-.34.87-.99.68-1.18-.35-2.36-.75-3.57-.94-2.32-.37-4.6-.03-6.78.84-.29.12-.57.27-.87,0-.29-.25-.22-.55-.15-.86.47-2.25.94-4.51,1.41-6.77.03-.16.08-.31.14-.5Z"/>
  <path class="cls-1" d="m70.49,57.99c.16-1.96.23-3.94.52-5.89.24-1.69,1.01-3.23,2-4.63.08-.12.28-.16.43-.24.07.17.2.34.19.5-.19,3.06-.45,6.11-.58,9.17-.16,3.84-.05,7.68.2,11.51.01.19-.13.38-.2.58-.17-.12-.4-.21-.5-.38-1.3-2.12-1.87-4.44-1.91-6.91-.02-1.24,0-2.47,0-3.71-.05,0-.09,0-.14-.01Z"/>
  <path class="cls-1" d="m106.01,58.81c0,1.42.05,2.84-.01,4.25-.09,2.15-.75,4.14-1.88,5.96-.09.14-.3.2-.45.3-.07-.18-.21-.36-.21-.54.08-2.32.23-4.64.27-6.97.08-4.4-.12-8.8-.54-13.18-.03-.28.02-.74.18-.82.39-.18.47.29.63.52,1.39,2.13,2.01,4.48,2.04,7,.02,1.15,0,2.31,0,3.46-.01,0-.02,0-.04,0Z"/>
  <path class="cls-1" d="m36.55,29.12c.14-2.99,1.16-5.68,3.87-7.46.72-.47,1.62-.68,2.46-.96.38-.13.57.09.59.49.13,2.64,1.55,4.48,3.72,5.8.93.56,1.94.88,3.03.95.55.04.87.33.88.81.08,3.1-.84,5.79-3.32,7.78-2.73,2.2-6.54,1.77-8.91-.93-1.6-1.82-2.27-3.97-2.33-6.48Z"/>
</svg>