<?xml version="1.0" encoding="UTF-8"?>
<svg id="Layer_1" data-name="Layer 1" xmlns="http://www.w3.org/2000/svg" viewBox="0 0 127 127">
  <defs>
    <style>
      .cls-1 {
        fill: #707070;
      }
    </style>
  </defs>
  <path class="cls-1" d="m64.97,106.78c-2.8-1.74-5.15-3.72-7.17-6.09-4.1-4.8-6.52-10.35-7.32-16.61-.06-.43.09-.6.45-.79,2.84-1.51,5.32-3.49,7.49-5.85,1.67-1.83,2.22-3.97,1.71-6.39-.15-.72-.24-1.45-.32-2.18-.13-1.33.46-2.27,1.65-2.84.49-.23.99-.43,1.49-.63.41-.17.82-.33,1.23-.52,2.84-1.3,3.46-4.27,1.31-6.55-.64-.68-1.47-1.17-2.23-1.72-.31-.22-.67-.37-1.11-.61,4.63-3.62,9.79-5.74,15.57-6.42.27.67.18,1.28-.07,1.85-.36.81-.78,1.59-1.19,2.38-.54,1.04-1.03,2.08-.93,3.3.11,1.28.75,2.27,1.86,2.82.99.49,2.06.87,3.14,1.12,2.3.55,2.85,1.14,2.84,3.54,0,1.64-.05,3.28.43,4.88,1.09,3.66,4.56,7.79,10.15,8.14,2.42.15,4.15,1.29,5.39,3.29.78,1.26,1.55,2.53,2.32,3.81,2.02,3.34,5.07,4.65,8.85,4.52.15,0,.3,0,.57,0-2.64,8.4-7.8,14.6-15.52,18.8-.25-.46-.47-.86-.69-1.26-1.69-3.11-3.61-6.07-5.83-8.84-.54-.67-1.17-1.29-1.85-1.82-1.16-.9-2.44-1.05-3.81-.39-1.17.56-1.22.56-1.93-.53-.97-1.48-1.96-2.97-2.75-4.54-.47-.94-.7-2.05-.85-3.11-.47-3.37-3.41-4.11-5.46-3.21-3.16,1.4-5.63,3.65-7.13,6.81-.77,1.63-.66,3.43-.44,5.19.3,2.39.74,4.78.51,7.21-.1,1.05-.26,2.1-.41,3.26Z"/>
  <path class="cls-1" d="m79.38,49.32c1.7.06,3.36.03,5.01.2,6.91.7,12.98,3.37,18.03,8.15,7.5,7.11,10.72,15.89,9.77,26.19-.11,1.13-.36,2.25-.57,3.37-.03.17-.22.42-.34.43-2.64.16-5.19-.08-7.07-2.22-.88-1.01-1.55-2.2-2.3-3.32-.58-.87-1.09-1.78-1.68-2.64-1.41-2.05-3.36-3.2-5.86-3.35-2.36-.14-4.45-.95-6.17-2.58-2.15-2.03-3.33-4.5-3.28-7.51.02-.89.02-1.78-.06-2.66-.16-1.9-1.23-3.12-3.08-3.6-.65-.17-1.32-.28-1.97-.47-.53-.16-1.06-.37-1.55-.64-1.06-.59-1.43-1.49-1.07-2.64.21-.67.56-1.31.87-1.95.31-.64.67-1.26.95-1.92.18-.42.29-.88.36-1.34.06-.43.01-.88.01-1.51Z"/>
  <path class="cls-1" d="m94.18,108.68c-2.9,1.31-5.84,2.16-8.9,2.53-6.51.79-12.68-.31-18.49-3.38-.25-.13-.5-.21-.4-.63.8-3.34.66-6.69.12-10.06-.18-1.15-.22-2.34-.21-3.52,0-1.31.49-2.49,1.31-3.52,1.16-1.46,2.51-2.73,4.07-3.74.6-.39,1.32-.67,2.02-.79,1.39-.25,2.37.48,2.59,1.9.29,1.89.78,3.71,1.79,5.34.84,1.34,1.73,2.65,2.65,3.93.63.88,1.44,1.07,2.46.72.2-.07.41-.14.59-.25,1.1-.67,2.1-.41,2.95.43.67.66,1.28,1.39,1.85,2.14,1.99,2.59,3.72,5.35,5.26,8.24.11.2.2.41.33.67Z"/>
  <path class="cls-1" d="m54.42,21c.65,3.16,2.55,5,5.6,5.75-.09.12-.13.21-.19.27-5.66,5.65-11.26,11.35-17,16.91-4.81,4.66-10.34,8.38-16.28,11.47-.25.13-.59.06-.89.09.02-.3-.06-.65.07-.89,3.49-6.69,7.85-12.75,13.18-18.1,5-5.02,10.02-10.02,15.03-15.03.13-.13.28-.26.5-.46Z"/>
  <path class="cls-1" d="m44.36,44.81c3.52-3.57,6.99-7.08,10.54-10.67.14.83.27,1.58.38,2.32,1.12,7.17,2.24,14.33,3.35,21.5.09.56.14,1.11-.25,1.6-.68.85-1.85.83-2.58-.08-1.19-1.49-2.35-3.01-3.53-4.51-2.52-3.22-5.04-6.45-7.55-9.67-.14-.18-.27-.37-.36-.49Z"/>
  <path class="cls-1" d="m46.92,26.21c-3.56,3.51-7.09,6.99-10.67,10.52-.85-.66-1.85-1.44-2.85-2.22-3.77-2.94-7.54-5.89-11.32-8.83-.18-.14-.37-.28-.54-.43-.59-.5-.76-1.21-.46-1.87.3-.68.92-1.04,1.69-.93,2.4.36,4.81.74,7.21,1.11,5.38.84,10.75,1.68,16.12,2.52.26.04.52.09.82.14Z"/>
  <path class="cls-1" d="m50.31,81.89c-.14-1.97-.02-3.87.25-5.76.72-5.13,2.58-9.79,5.64-13.97.22-.3.42-.45.84-.45,1.92.02,3.31-1.5,3.16-3.42-.07-.97.42-1.33,1.27-.89.75.39,1.49.81,2.19,1.29.68.46,1.2,1.08,1.45,1.9.32,1.09.04,1.95-.93,2.55-.54.33-1.14.56-1.72.82-.65.3-1.33.54-1.95.88-1.56.84-2.32,2.18-2.22,3.95.05.84.16,1.69.34,2.52.42,1.96,0,3.69-1.37,5.15-1.97,2.12-4.2,3.92-6.72,5.36-.05.03-.11.03-.24.07Z"/>
  <path class="cls-1" d="m63.56,15.54c1.59-.03,2.09.46,2.04,1.67-.11,2.75-1.39,4.98-3.05,7.1-.83,1.05-1.67,1.18-2.84.8-2.35-.76-3.91-2.82-3.85-5.26,0-.16.05-.36.16-.47,2.22-2.15,4.74-3.7,7.54-3.84Z"/>
  <path class="cls-1" d="m25.5,51.71c-2.87-1.4-5.71-2.75-8.52-4.15-.95-.47-1.28-1.56-.88-2.54.38-.95,1.42-1.49,2.43-1.17,3.22,1.02,6.43,2.07,9.64,3.11.05.02.09.06.16.12-.93,1.53-1.86,3.05-2.83,4.64Z"/>
  <path class="cls-1" d="m34.11,52.77c.43,1.33.85,2.61,1.26,3.89.63,1.96,1.29,3.92,1.88,5.9.47,1.54-.88,2.97-2.4,2.54-.46-.13-1-.48-1.21-.89-1.45-2.83-2.82-5.7-4.23-8.59,1.57-.95,3.09-1.88,4.7-2.86Z"/>
  <path class="cls-1" d="m59.31,52.43c-.22-1.38-.43-2.69-.62-4-.02-.16.08-.38.19-.5.6-.63,1.2-1.26,1.84-1.84.73-.67,1.85-.61,2.5.09.65.69.67,1.75-.01,2.46-1.21,1.24-2.45,2.46-3.68,3.68-.04.04-.1.05-.22.12Z"/>
  <path class="cls-1" d="m57.64,41.7c-.22-1.42-.43-2.77-.63-4.12-.02-.11.05-.27.14-.35.51-.52,1.01-1.06,1.57-1.54.69-.6,1.75-.52,2.37.11.65.65.76,1.7.14,2.36-1.12,1.19-2.32,2.3-3.58,3.54Z"/>
  <path class="cls-1" d="m28.6,21.79c1.12-1.12,2.12-2.17,3.17-3.16.73-.69,1.8-.6,2.49.12.64.67.62,1.73-.04,2.46q-1.17,1.28-2.89,1.02c-.87-.14-1.74-.28-2.73-.44Z"/>
  <path class="cls-1" d="m39.37,23.48c1.01-1.01,1.88-1.93,2.81-2.79.64-.59,1.68-.51,2.32.09.63.6.76,1.55.26,2.26-.25.36-.58.66-.91.96-.09.09-.28.12-.42.1-1.31-.19-2.61-.4-4.07-.62Z"/>
  <path class="cls-1" d="m20.31,59.79c-.12.29-.17.48-.26.64-.67,1.23-1.33,2.46-2.04,3.67-.15.25-.5.5-.78.53-.21.02-.49-.29-.67-.5-.08-.1-.07-.36,0-.49.75-1.4,1.5-2.81,2.32-4.17.11-.19.58-.29.85-.24.23.05.41.38.59.57Z"/>
  <path class="cls-1" d="m17.55,81.78c0,.47-.21.74-.62.82-.42.08-.73-.11-.86-.51-.23-.71-.43-1.44-.61-2.17-.18-.75-.31-1.51-.44-2.27-.09-.54.15-.93.6-1.02.45-.09.79.19.92.74.32,1.39.64,2.77.96,4.16.02.09.04.19.05.24Z"/>
  <path class="cls-1" d="m34.32,102.69c.01.77-.64,1.12-1.25.76-1.08-.63-2.12-1.32-3.17-1.99-.23-.14-.44-.31-.64-.49-.34-.29-.41-.66-.17-1.03.27-.39.66-.47,1.06-.21,1.28.82,2.56,1.63,3.82,2.47.19.12.28.38.35.48Z"/>
  <path class="cls-1" d="m47.07,106.02c-.5-.04-.86-.21-.96-.72-.09-.44.23-.79.77-.89,1.38-.26,2.76-.53,4.13-.8.6-.12.99.07,1.1.54.1.45-.14.82-.7.95-1.44.33-2.89.62-4.34.93Z"/>
  <path class="cls-1" d="m41.82,106.16c-1.36-.27-2.72-.53-4.08-.82-.55-.12-.8-.52-.69-.95.12-.47.52-.64,1.11-.53,1.33.24,2.66.47,3.99.67.61.09.94.35.91.83-.03.51-.39.75-1.05.71-.06,0-.12,0-.17-.01,0,.03-.01.07-.02.1Z"/>
  <path class="cls-1" d="m14.66,71.92c.17-1.2.32-2.41.51-3.61.09-.6.45-.87.93-.78.47.09.65.48.58,1.09-.16,1.34-.3,2.68-.43,4.03-.06.62-.3.94-.79.94-.48,0-.74-.34-.75-.96,0-.23,0-.46,0-.69h-.05Z"/>
  <path class="cls-1" d="m23.26,93.01c.27.19.52.3.69.48.96,1.06,1.89,2.14,2.84,3.21.33.37.4.75.07,1.14-.3.35-.81.34-1.17-.06-1-1.1-1.98-2.21-2.93-3.36-.17-.2-.18-.62-.11-.89.05-.2.37-.32.62-.52Z"/>
  <path class="cls-1" d="m20.48,90.9c-.11-.08-.39-.19-.5-.4-.75-1.32-1.48-2.65-2.19-3.99-.23-.44-.06-.9.33-1.08.4-.18.82-.02,1.06.42.69,1.27,1.38,2.53,2.07,3.8.34.62.03,1.26-.76,1.25Z"/>
</svg>