<?xml version="1.0" encoding="UTF-8"?>
<svg id="Layer_1" data-name="Layer 1" xmlns="http://www.w3.org/2000/svg" viewBox="0 0 127 127">
  <defs>
    <style>
      .cls-1 {
        fill: #637481;
      }
    </style>
  </defs>
  <path class="cls-1" d="m20.14,47.91c8.47,0,16.95-.01,25.42.04.41,0,1.08.54,1.17.93,3.37,14.15,6.69,28.32,10.03,42.47.52,2.18,1.17,4.33,1.75,6.5.08.3.06.62.12,1.38-13.12-17.2-25.98-34.06-38.84-50.92.11-.14.23-.27.34-.41Z"/>
  <path class="cls-1" d="m80.34,47.97h26.86c-13.06,17.16-25.91,34.04-39.02,51.26,4.1-17.31,8.11-34.19,12.16-51.26Z"/>
  <path class="cls-1" d="m51.49,47.97h9.42v50.34l-.28.05c-3.04-16.73-6.07-33.47-9.14-50.39Z"/>
  <path class="cls-1" d="m65.85,48.02h9.44c-3.05,16.77-6.09,33.51-9.13,50.24-.1,0-.21-.01-.31-.02v-50.23Z"/>
  <path class="cls-1" d="m106.67,43.98h-26.18c-.34-5.02-.66-9.89-1.02-14.75-.09-1.22.47-1.66,1.56-1.39,1.16.28,2.44.48,3.4,1.11,7.45,4.95,14.84,10.01,22.25,15.03Z"/>
  <path class="cls-1" d="m46.27,44.1h-25.98c-.03-.09-.06-.19-.09-.28.85-.55,1.7-1.09,2.54-1.65,6.34-4.26,12.64-8.57,19.04-12.74,1.23-.8,2.81-1.12,4.27-1.49.69-.17,1.37.05,1.29,1.16-.35,4.82-.62,9.65-.93,14.47-.01.21-.11.41-.15.54Z"/>
  <path class="cls-1" d="m51.85,28.06h9.22c0,.76,0,1.45,0,2.15,0,4.12-.01,8.25.04,12.37.02,1.24-.28,1.73-1.68,1.66-2.73-.14-5.46-.04-8.38-.04.27-5.52.53-10.7.8-16.13Z"/>
  <path class="cls-1" d="m75.69,44.03h-9.76c0-2.77,0-5.38,0-8,0-2.2.02-4.4-.09-6.59-.06-1.12.36-1.43,1.4-1.42,2.09,0,4.17-.08,6.26-.17,1.18-.05,1.75.26,1.77,1.64.09,4.61.34,9.21.52,13.82,0,.21-.05.42-.09.73Z"/>
</svg>