<?xml version="1.0" encoding="UTF-8"?>
<svg id="Layer_2" data-name="Layer 2" xmlns="http://www.w3.org/2000/svg" viewBox="0 0 260.41 252.23">
  <defs>
    <style>
      .cls-1 {
        fill: #637481;
      }
    </style>
  </defs>
  <path class="cls-1" d="m72.74,212.62c-.31-.79-.87-1.58-.88-2.38-.11-4.5-.05-9.01-.14-13.51-.02-.96-.26-2.01-.71-2.87-5.63-10.83-11.13-21.73-17.06-32.39-3.17-5.69-4.55-11.58-4.88-18-.82-15.85-1.95-31.69-2.91-47.53-.1-1.61-.11-3.3.26-4.85.92-3.85,4.46-6.37,8.37-6.23,3.72.13,6.98,2.83,7.55,6.74.81,5.62,1.33,11.29,1.95,16.93,1.35,12.19,2.6,24.4,4.09,36.57.27,2.21,1.05,4.64,2.36,6.39,4.74,6.34,9.82,12.44,15.07,18.48-1.14-4.07-2.29-8.14-3.44-12.21-1.68-5.95-3.43-11.88-5.01-17.86-2.05-7.74,4.84-14.62,12.44-12.43.82.24,1.79,1.07,2.09,1.85,6.72,17.11,13.43,34.22,19.94,51.41.97,2.57,1.02,5.5,1.41,8.28.98,7.02,1.94,14.04,2.83,21.07.1.81-.27,1.67-.42,2.51h-42.92Z"/>
  <path class="cls-1" d="m144.72,212.62c-.19-.67-.62-1.37-.54-2.01,1.19-9.09,2.39-18.18,3.75-27.25.29-1.97,1.11-3.87,1.84-5.75,6.16-15.99,12.38-31.97,18.52-47.97.5-1.31,1.23-1.98,2.58-2.3,7.55-1.8,14.2,4.96,12.14,12.56-2.58,9.55-5.35,19.05-8.04,28.57-.15.53-.28,1.07-.22,1.72.8-.99,1.61-1.97,2.41-2.96,3.65-4.5,7.26-9.05,10.97-13.5,2.51-3.01,3.8-6.43,4.21-10.29,1.8-16.95,3.64-33.9,5.48-50.85.52-4.78,4.2-7.99,8.8-7.71,4.31.26,7.89,4.13,7.69,8.72-.36,8.04-.93,16.07-1.44,24.1-.62,9.89-1.31,19.77-1.86,29.66-.21,3.78-1.09,7.3-2.86,10.65-6.3,11.93-12.56,23.89-18.8,35.85-.42.81-.66,1.79-.68,2.7-.09,4.56-.04,9.12-.15,13.68-.02.8-.58,1.59-.88,2.38h-42.92Z"/>
  <path class="cls-1" d="m147.24,93.51c.13,1.94.25,3.66.38,5.49h-34.94c.13-1.79.25-3.54.39-5.43-2.37.13-4.26,1.13-5.54,2.74-1.98,2.49-3.65,5.23-5.33,7.94-.86,1.38-1.37,2.96-2.19,4.37-1.55,2.68-4.8,3.72-7.63,2.55-2.75-1.14-4.56-4.38-3.56-7.22,5.03-14.25,13.99-24.48,29.28-28.06.76-.18,1.56-.33,2.34-.33,6.42-.01,12.86-.32,19.25.11,8.85.59,15.96,5.04,21.98,11.32,4.39,4.58,7.42,10.01,9.58,15.94,1.25,3.43-.16,6.92-3.23,8.22-3.15,1.34-6.45-.03-8.15-3.35-1.31-2.55-2.55-5.14-3.98-7.62-1.57-2.72-3.59-5.05-6.64-6.22-.31-.12-.64-.22-.96-.3-.27-.06-.55-.08-1.04-.14Z"/>
  <path class="cls-1" d="m129.58,122.32c-1.71,2.82-3.35,5.43-4.88,8.11-.69,1.22-1.53,1.58-2.9,1.34-5.75-1.04-11.52-1.99-17.29-2.97-1.8-.31-2.16-.78-1.89-2.65.89-6.16,2.79-11.9,6.72-16.88.59-.74.56-1.99.74-3.02.14-.77.19-1.56.23-2.35.09-1.52.8-2.13,2.38-2.12,7.82.06,15.65.03,23.47.03,3.6,0,7.21.03,10.81-.02,1.37-.02,2.13.46,2.22,1.89.2,3.2,1.34,5.96,3.2,8.65,2.89,4.18,4.06,9.09,4.78,14.09.2,1.38-.33,2.12-1.72,2.35-5.93.99-11.86,1.99-17.79,3.02-1.11.19-1.8-.2-2.39-1.1-1.83-2.75-3.7-5.46-5.69-8.38Z"/>
  <path class="cls-1" d="m145.8,55.76c.01,8.97-7.27,16.26-16.19,16.22-8.87-.04-16.07-7.28-16.08-16.17-.01-8.97,7.25-16.23,16.2-16.21,8.89.03,16.06,7.24,16.08,16.15Z"/>
  <path class="cls-1" d="m140.82,133.95c4.74-.8,9.44-1.58,14.46-2.43-.13,1.25-.22,2.39-.38,3.51-.68,4.61-2.22,8.94-4.49,13-1.81,3.23-5.34,4.33-8.53,2.72-3.17-1.61-4.23-5.04-2.76-8.5.54-1.28.87-2.67,1.15-4.03.28-1.37.37-2.77.56-4.27Z"/>
  <path class="cls-1" d="m105.22,131.66c4.27.72,8.24,1.49,12.24,2.01,1.87.25,2.62.86,2.72,2.87.11,2.09.72,4.21,1.41,6.2,1.09,3.13.14,6.32-2.64,7.9-2.78,1.58-6.5.9-8.27-1.82-3.3-5.09-4.92-10.78-5.47-17.17Z"/>
</svg>