<?xml version="1.0" encoding="UTF-8"?>
<svg id="Layer_1" data-name="Layer 1" xmlns="http://www.w3.org/2000/svg" viewBox="0 0 126.83 126.83">
  <defs>
    <style>
      .cls-1 {
        fill: #637481;
      }
    </style>
  </defs>
  <path class="cls-1" d="m106.61,64.11c-.45.66-.96,1.21-1.86.91-.78-.26-1.01-.87-1.02-1.65-.08-7.27-1.89-14.09-5.69-20.28-6.66-10.87-16.31-17.46-28.95-19.31-21.09-3.09-40.09,10.68-44.7,29.88-3.97,16.53.89,30.44,13.82,41.5.21.18.45.34.65.54.53.54.59,1.35.16,1.92-.47.61-1.3.78-1.95.28-.98-.75-1.95-1.53-2.85-2.38-8.28-7.74-13.04-17.24-13.88-28.57-1.54-20.98,11.84-39.7,32.12-45.09,23.97-6.37,48.65,9.11,53.32,33.47.31,1.62.45,3.28.68,4.92.04.27.1.54.14.81v3.04Z"/>
  <path class="cls-1" d="m44.49,52.84c-.48,0-.87.02-1.25,0-.84-.05-1.41-.58-1.44-1.35-.03-.75.5-1.39,1.32-1.49.5-.06,1.01-.03,1.52-.03,2.02,0,4.03,0,6.15,0,0-.42,0-.75,0-1.07,0-4.39,0-8.78,0-13.16,0-.28-.01-.57.03-.84.12-.77.72-1.3,1.43-1.29.76,0,1.33.58,1.4,1.4.02.28.01.56.01.84,0,4.33,0,8.66,0,12.99v1.06h19.47v-.98c0-4.39,0-8.78,0-13.16,0-.34-.01-.68.05-1.01.13-.7.61-1.08,1.29-1.13.64-.05,1.17.25,1.39.87.13.36.15.77.15,1.16,0,4.39,0,8.78,0,13.16v1.16c.33,0,.63,0,.92,0,2.05,0,4.11,0,6.16,0,.33,0,.69.03.99.14.65.25.98.77.89,1.46-.09.72-.52,1.18-1.26,1.25-.44.04-.88,0-1.41,0v1.01c0,4.92,0,9.84,0,14.77-.01,9.42-6.29,17.05-15.51,18.87-10.01,1.98-20.25-5.05-21.95-15.11-.22-1.27-.32-2.57-.33-3.86-.04-4.89-.02-9.79-.02-14.68,0-.3,0-.6,0-.99Zm17.09,16.77h0c.76,0,1.52,0,2.28,0,1.05.02,1.3.44.83,1.4-.8,1.61-1.61,3.21-2.41,4.82-.51,1.02-.32,1.86.48,2.25.81.4,1.58.05,2.09-.96,1.33-2.66,2.67-5.32,3.99-7.99.7-1.42.12-2.39-1.47-2.41-1.46-.02-2.92,0-4.39,0-1.12,0-1.35-.41-.85-1.43.82-1.66,1.67-3.31,2.48-4.98.42-.86.19-1.66-.53-2.04-.76-.4-1.58-.12-2.03.76-1.41,2.78-2.81,5.57-4.18,8.36-.58,1.18.04,2.16,1.36,2.21.79.03,1.57,0,2.36,0Z"/>
  <path class="cls-1" d="m61.95,94.1c-.61,0-1.09.03-1.56,0-1.11-.08-1.61-.78-1.51-2.09.08-1.07.73-1.56,1.8-1.53,1.79.05,3.59.05,5.38,0,1.09-.03,1.74.44,1.83,1.5.12,1.33-.4,2.05-1.56,2.12-.45.03-.9,0-1.4,0-.04.22-.1.4-.1.59,0,1.49-.04,2.98,0,4.47.08,2.85,2.23,4.73,5.05,4.29,7.6-1.2,14.29-4.41,20.08-9.47,4.89-4.27,8.53-9.45,10.92-15.49.06-.16.12-.31.19-.47.39-.83,1.17-1.17,1.94-.84.71.31,1.03,1.09.72,1.91-1.18,3.15-2.71,6.12-4.63,8.87-6.97,9.98-16.45,16.1-28.42,18.31-4.76.88-8.65-2.36-8.76-7.24-.03-1.6,0-3.2,0-4.92Z"/>
  <path class="cls-1" d="m105.64,72.63c-.05,1.27-.71,2.09-1.64,2.05-.79-.04-1.4-.71-1.37-1.52.05-1.26.7-2.11,1.61-2.09.82.01,1.43.69,1.39,1.56Z"/>
</svg>