<?xml version="1.0" encoding="UTF-8"?>
<svg id="Layer_1" data-name="Layer 1" xmlns="http://www.w3.org/2000/svg" viewBox="0 0 127 127">
  <defs>
    <style>
      .cls-1 {
        fill: #637481;
      }
    </style>
  </defs>
  <path class="cls-1" d="m93.53,89.73h-60.06c0,1.96.03,3.83,0,5.7-.07,3.64-1.65,5.37-5.26,5.55-2.35.12-4.72.09-7.08,0-3.29-.14-5.03-1.75-5.06-5.08-.1-9.26-.24-18.53.09-27.78.12-3.28,1.52-6.52,2.34-9.78.18-.7.39-1.39.6-2.14-3.16-.75-5.05-2.7-6.03-5.56-.81-2.39.01-4.45,2.43-5.16,1.82-.54,3.87-.79,5.74-.57,1.99.24,2.99-.34,3.69-2.09,1.29-3.26,2.65-6.48,4.03-9.7,2.1-4.9,5.92-7.14,11.17-7.14,15.28-.01,30.57-.05,45.85-.04,6.55,0,10.32,2.6,12.75,8.64,1.26,3.12,2.48,6.26,3.86,9.33.23.52,1.14.99,1.76,1.04,1.87.14,3.79-.12,5.64.1,3.78.45,5.25,3.36,3.5,6.75-1.16,2.26-2.91,3.85-5.6,4.34.79,2.85,1.62,5.65,2.34,8.49.35,1.37.68,2.78.69,4.18.07,8.92.15,17.84.01,26.75-.05,3.47-2.11,5.29-5.55,5.44-2.36.1-4.73.14-7.08,0-3.04-.19-4.62-1.94-4.76-4.98-.05-1.01-.03-2.03-.03-3.04,0-1.01,0-2.01,0-3.22Zm-30.65-32.56c0,.1,0,.21,0,.31,5.75,0,11.5.08,17.25-.02,5.74-.1,11.48-.37,17.23-.58,1.81-.06,2.27-1.2,2.07-2.76-.08-.66-.23-1.34-.48-1.95-2.46-5.84-4.93-11.67-7.44-17.48-1.39-3.22-4.04-4.68-7.4-4.69-13.32-.05-26.65.06-39.97-.03-4.72-.03-7.87,2.03-9.62,6.29-2.28,5.55-4.54,11.11-6.65,16.72-1.13,3.01-.23,4.17,2.97,4.17,10.69.02,21.37,0,32.06,0Zm24.49,11.91h-47.64v8.68h47.64v-8.68Zm-59.82.42c-2.94.02-5.44,2.49-5.44,5.39,0,2.87,2.58,5.42,5.45,5.41,2.85-.01,5.47-2.61,5.47-5.42,0-2.89-2.56-5.39-5.48-5.37Zm77.37,5.35c-.02-2.89-2.56-5.36-5.48-5.35-2.92.01-5.46,2.55-5.44,5.42.02,2.82,2.65,5.39,5.51,5.38,2.87-.01,5.43-2.59,5.41-5.45Z"/>
</svg>