<?xml version="1.0" encoding="UTF-8"?>
<svg id="Layer_1" data-name="Layer 1" xmlns="http://www.w3.org/2000/svg" viewBox="0 0 127 127">
  <defs>
    <style>
      .cls-1 {
        fill: #707070;
      }
    </style>
  </defs>
  <path class="cls-1" d="m66.51,13.71c28.34.01,51.55,23.32,50.96,52.08-.57,27.8-23.38,49.99-51.04,49.96-28.42-.04-51.55-23.38-50.96-52.08.57-27.8,23.37-49.98,51.04-49.95Zm33.25,54.76c.15-.13.29-.26.44-.38,9.12-7.16,11.74-19.45,6.34-29.71-6.11-11.62-20.85-15.97-32.27-9.52-.41.23-.69.2-1.09-.03-6.44-3.88-13.41-5.39-20.85-4.47-8.04.99-14.85,4.52-20.24,10.55-6.81,7.62-9.55,16.6-8.1,26.72,1.23,8.57,5.43,15.5,12.17,20.91.31.25.44.48.37.9-.3,1.88-.33,3.78,0,5.65,1.36,7.76,5.67,13.26,13.09,15.91,7.58,2.7,14.48,1.09,20.47-4.28.36-.32.59-.36,1.03-.14,5.14,2.59,10.51,3.17,16.04,1.6,13.58-3.85,20.17-18.89,13.84-31.48-.38-.75-.83-1.48-1.26-2.24Z"/>
  <path class="cls-1" d="m68,33.73c-7.49,9.72-7.91,19.71-1.23,30-.95,1.03-1.97,2.08-2.91,3.19-.36.43-.65.5-1.17.33-8.93-2.93-18.25.42-23.29,8.35-.1.16-.21.31-.31.47-8.44-7-12.43-21.59-4.3-33.66,8.48-12.6,23.85-13.9,33.21-8.68Z"/>
  <path class="cls-1" d="m79.6,33.82c1.4-.59,2.78-.91,4.19-1.07,7.55-.86,14.73,3.41,17.54,10.43,2.84,7.07.63,15.1-5.42,19.74-.55.42-.88.45-1.51.05-1.61-1.02-3.3-1.91-4.98-2.8-.36-.19-.5-.34-.47-.75.66-9.56-2.29-17.87-8.75-24.93-.18-.2-.36-.4-.61-.66Z"/>
  <path class="cls-1" d="m74.48,94.68c1.04-2.27,1.71-4.58,1.82-7,.06-1.35-.04-2.71-.13-4.06-.03-.48.02-.8.44-1.13,3.19-2.51,5.82-5.51,7.91-8.99.12-.2.45-.41.67-.4,2.7.06,5.33-.34,7.89-1.21.45-.15.7-.11.99.31,3.8,5.63,3.42,13.17-.95,18.46-4.37,5.29-11.77,7.07-18.01,4.33-.19-.08-.38-.18-.63-.3Z"/>
  <path class="cls-1" d="m73.8,37.62c5.99,5.74,8.86,12.64,8.48,20.89-1.2.05-2.3.06-3.39.16-1.96.18-3.85.65-5.68,1.37-.39.16-.6.08-.85-.24-5.03-6.35-4.59-15.94,1-21.77.11-.12.24-.23.44-.41Z"/>
  <path class="cls-1" d="m43.17,86.9c1.64.54,3.23,1.13,4.86,1.58,3.87,1.06,7.81,1.39,11.8.87.59-.08.9.04,1.15.63.88,2.04,2.12,3.87,3.6,5.53.17.19.33.38.49.56-2.82,2.86-8.37,4.51-13.51,2.51-5.32-2.08-8.33-7.2-8.39-11.67Z"/>
  <path class="cls-1" d="m60.16,73.56c-.98,2.97-1.41,5.97-1.12,9.12-5.08.53-9.82-.4-14.34-2.64,2.5-5.19,9.25-8.51,15.46-6.48Z"/>
  <path class="cls-1" d="m77.62,71.89c-1.24,1.39-2.53,2.84-3.76,4.22-1.53-1.83-2.97-3.55-4.5-5.38.66-.61,1.42-1.33,2.2-2.03.09-.08.33-.08.44-.01,1.82,1.03,3.64,2.07,5.61,3.2Z"/>
  <path class="cls-1" d="m68.14,80c-.85.37-1.58.69-2.51,1.1.15-1.34.27-2.5.4-3.66l.25-.07c.6.85,1.2,1.69,1.86,2.63Z"/>
  <path class="cls-1" d="m68.86,90.14c-.5-.79-1.01-1.58-1.56-2.45.78-.31,1.46-.57,2.35-.92-.2,1.21-.38,2.27-.55,3.32-.08.02-.16.03-.23.05Z"/>
</svg>