<?xml version="1.0" encoding="UTF-8"?>
<svg id="Layer_1" data-name="Layer 1" xmlns="http://www.w3.org/2000/svg" viewBox="0 0 127 127">
  <defs>
    <style>
      .cls-1 {
        fill: #707070;
      }
    </style>
  </defs>
  <path class="cls-1" d="m11.38,79.37h29.86v-38.74c-.54.57-.96,1.04-1.41,1.48-4.04,3.99-8.08,7.97-12.13,11.95-.32.31-.66.6-1.01.87-.44.35-.82.31-1.22-.11-.35-.37-.44-.76-.05-1.17,1.27-1.35,2.5-2.74,3.8-4.06,3.89-3.94,7.82-7.86,11.71-11.8.18-.18.31-.49.32-.74.06-1.19.11-2.39.1-3.59,0-.52.19-.73.68-.85.48-.12.84.02,1.03.41.18.37.25.8.31,1.22.05.32,0,.65,0,.92,3.61-3.62,7.21-7.25,10.78-10.83-.21-.05-.58-.12-.94-.23-1.78-.59-1.58-2.77-.68-3.54.22-.19.54-.36.82-.37,2.45-.07,4.9-.11,7.35-.16.51.44,1.14.8,1.49,1.34.36.57.28,1.32-.18,1.9-.47.6-1.05,1.01-1.87.96-.33-.02-.66.06-.98,0-1.03-.17-1.75.26-2.46.98-4.31,4.37-8.67,8.69-13,13.04-.17.17-.3.46-.3.69-.01,13.38-.01,26.77-.01,40.15,0,.06.01.11.03.21h24.37c0-.28,0-.56,0-.85,0-5.85,0-11.7-.01-17.55,0-.41.15-.59.47-.81,1.42-.93,2.8-1.9,4.2-2.86.14-.09.27-.19.54-.39v22.46h2.56v-22.82h-2.49c.9-1.32,1.42-2.75,2.62-3.68.44-.34,1.04-.48,1.58-.68.86-.32,1.77-.55,2.6-.95,1.23-.59,1.45-1.3.92-2.55-.32-.74-.68-1.47-.98-2.22-.36-.9-.21-1.2.67-1.57.44-.19.89-.37,1.34-.55.03-.01.08,0,.16,0-.12.92-.28,1.82-.35,2.74-.23,3.23-.55,6.46-.6,9.7-.11,7.43-.08,14.86-.1,22.29,0,.09.02.18.03.32h34.69v4.27c-.27,0-.55,0-.83,0-34.18,0-68.37,0-102.55,0-.29,0-.58.03-.86.05,0-1.43,0-2.86,0-4.29Z"/>
  <path class="cls-1" d="m85.24,39.94c-1.75.92-3.49,1.83-5.23,2.74-.82.43-1.62.89-2.45,1.31-.32.17-.42.39-.42.74,0,.85.25,1.58.82,2.22.37.42.69.88,1.04,1.32.3.38.26.77-.14.99-.62.34-1.26.73-1.93.87-2.01.42-3.43,1.57-4.46,3.3-.85,1.43-1.79,2.8-3.06,3.9-1.63,1.41-3.5,2.07-5.67,1.7-.92-.16-1.71-.6-2.41-1.19-2.98-2.5-5.03-5.62-6.11-9.35-.81-2.78-.09-5.25,1.88-7.59.45.51.87,1.03,1.35,1.5,2.24,2.2,4.47,4.42,6.77,6.58,1.35,1.27,3.43,1.22,4.84.01,1.41-1.21,1.84-3.38.76-4.86-.91-1.25-2.06-2.34-3.11-3.49-.38-.41-.8-.78-1.19-1.16.06-.08.08-.13.1-.13,1.65.19,2.73-.85,3.88-1.76.74-.58,1.45-1.22,2.22-1.76,2.01-1.39,4.01-.74,4.83,1.57.24.67.35,1.37.55,2.17,1.8-.88,3.59-1.74,5.33-2.59,0-.12.01-.14,0-.16-.67-1.5-.75-1.54-2.26-.96-.53.21-1.06.43-1.64.66-.13-.45-.23-.88-.36-1.3-.54-1.75-1.73-2.59-3.55-2.68-1.87-.09-3.4.6-4.86,1.69-1.22.91-2.51,1.72-3.82,2.49-.85.5-1.1.32-1.23-.65-.04-.29-.04-.58-.07-.86-.02-.26-.06-.52-.09-.78-.06-.03-.11-.07-.17-.1-1.1,1.04-2.2,2.07-3.43,3.24.67.62,1.33,1.18,1.93,1.79,1.66,1.67,3.29,3.36,4.94,5.05.48.49.74,1.06.64,1.78-.14,1.02-.78,1.6-1.95,1.81-.58.1-.98-.03-1.4-.47-2.66-2.75-5.35-5.46-8.03-8.19-.19-.19-.36-.4-.53-.61-.65-.81-.71-1.54,0-2.34,1.16-1.32,2.35-2.61,3.6-3.85,1.65-1.65,3.37-3.23,5.06-4.85.35-.34.75-.46,1.25-.46,4.09.02,8.19.01,12.28.03.69,0,1.39.06,2.08.1.44.03.8.2,1.06.59,1.16,1.82,2.33,3.64,3.51,5.44.35.53.67,1.26,1.17,1.45.43.16,1.12-.3,1.65-.56,3.04-1.46,6.07-2.93,9.09-4.42.31-.15.48-.55.75-.8.28-.25.57-.54.91-.65.95-.32,1.93-.54,2.89-.82.29-.08.61-.17.85-.35.24-.18.45-.45.56-.73.2-.53.44-.67.95-.42.98.5,1.8,2.16,1.63,3.24-.07.41-.26.68-.68.58-1.1-.24-1.89.32-2.67.96-.43.35-.89.69-1.29,1.07-.53.5-1.14.63-1.82.46-.5-.12-.81-.1-.8.56,0,.71-.42,1.21-.99,1.6-2.57,1.74-5.13,3.5-7.71,5.23-.69.46-1.4.89-2.13,1.28-1.14.61-2.12.4-2.99-.58-.15-.17-.3-.35-.48-.54Z"/>
  <path class="cls-1" d="m39.87,115.36h-18.68c.1-.52.15-1.03.29-1.52.58-1.98.35-3.92-.18-5.87-1.45-5.27-2.87-10.55-4.3-15.83-.44-1.64-.86-3.28-1.28-4.92-.2-.77.39-1.7,1.24-2.04.92-.36,1.68-.13,2.07.78.41.95.75,1.94,1.04,2.94,1.49,5.26,2.96,10.52,4.45,15.83.17.01.34.04.5.04,3.69-.03,7.37-.08,11.06-.09.49,0,.64-.16.77-.61,1.54-5.51,3.1-11.01,4.66-16.51.14-.48.34-.94.54-1.4.44-1,1.13-1.31,2.15-.98.95.31,1.49,1.2,1.24,2.18-.48,1.88-.98,3.76-1.5,5.64-1.55,5.64-3.12,11.28-4.67,16.93-.09.32-.1.69-.06,1.02.2,1.39.45,2.78.67,4.17.01.07,0,.15,0,.26Z"/>
  <path class="cls-1" d="m107.54,115.16c-.29.05-.54.13-.8.13-5.83.04-11.66.07-17.49.1-.09,0-.18-.02-.34-.04.21-1.4.44-2.76.61-4.13.06-.52.06-1.08-.07-1.58-2-7.42-4.03-14.83-6.04-22.24-.27-.99.3-1.92,1.35-2.23,1.03-.31,1.9.12,2.21,1.17,1.28,4.44,2.54,8.88,3.8,13.33.44,1.56.86,3.12,1.27,4.68.08.32.22.43.55.42,3.78-.04,7.57-.07,11.35-.09.39,0,.47-.2.56-.5,1.38-4.95,2.75-9.91,4.15-14.86.29-1.04.64-2.06,1.01-3.07.36-.99,1.19-1.4,2.16-1.1,1,.31,1.5,1.12,1.23,2.14-1.4,5.27-2.8,10.53-4.22,15.79-.64,2.4-1.33,4.78-1.95,7.19-.1.4-.01.87.06,1.3.19,1.18.41,2.35.63,3.6Z"/>
  <path class="cls-1" d="m73.64,115.26c-6.23.26-12.38.07-18.63.14.08-.64.14-1.22.23-1.8.15-1.01.34-2.01.47-3.03.03-.25-.07-.53-.14-.78-1.84-6.74-3.69-13.49-5.54-20.23-.21-.76-.39-1.53-.58-2.3-.23-.9.37-1.8,1.39-2.11.98-.3,1.87.12,2.15,1.09.85,2.9,1.69,5.8,2.51,8.71.87,3.08,1.7,6.16,2.55,9.24.05.18.11.36.15.52,2.95,0,5.86,0,8.78,0,.95,0,1.89-.06,2.84-.04.45.01.62-.12.74-.56,1.46-5.27,2.94-10.53,4.42-15.79.21-.74.48-1.46.76-2.17.36-.91,1.2-1.29,2.1-1.02.97.3,1.49,1.13,1.27,2.09-.23,1-.47,1.99-.74,2.97-1.67,6.13-3.32,12.26-5.06,18.37-.4,1.41-.53,2.76-.16,4.18.2.76.29,1.55.46,2.5Z"/>
  <path class="cls-1" d="m67.79,18.22c-.21-4.09,3.5-6.67,6.24-6.62,3.92.07,6.7,2.78,6.79,6.48.1,3.73-3.34,6.7-6.42,6.62-3.86-.11-6.63-2.75-6.61-6.48Z"/>
  <path class="cls-1" d="m64.31,103.05c-3.25.05-5.97-2.58-6.02-5.83-.05-3.43,2.67-6.31,6.01-6.36,3.23-.05,6.13,2.8,6.17,6.05.04,3.43-2.63,6.09-6.16,6.14Z"/>
  <path class="cls-1" d="m98.28,103.06c-3.23.11-5.97-2.51-6.08-5.84-.12-3.25,2.62-6.22,5.87-6.35,3.22-.13,6.21,2.64,6.34,5.88.13,3.2-2.4,6.32-6.12,6.31Z"/>
  <path class="cls-1" d="m24.62,97.01c-.13-3.74,3.11-6.09,5.81-6.12,3.48-.04,6.33,2.76,6.35,6.09.02,2.78-2.66,6.12-6,6.1-3.47-.02-6.35-2.69-6.16-6.08Z"/>
</svg>