<?xml version="1.0" encoding="UTF-8"?>
<svg id="Layer_2" data-name="Layer 2" xmlns="http://www.w3.org/2000/svg" viewBox="0 0 260.41 252.23">
  <defs>
    <style>
      .cls-1 {
        fill: #637481;
      }
    </style>
  </defs>
  <path class="cls-1" d="m60.66,122.43c-.39.24-.64.37-.86.53-2.86,2.02-5.92,2.31-9.04.8-3.19-1.54-4.91-4.23-4.95-7.74-.09-6.55-.05-13.1.08-19.65.02-1.18.54-2.42,1.09-3.5,4.19-8.08,8.45-16.13,12.66-24.2.39-.76.93-.95,1.7-.95,2.61.03,5.22.03,7.83.03,42.95,0,85.89-.01,128.84-.04.95,0,1.46.32,1.93,1.17,3.73,6.78,7.54,13.52,11.31,20.28,1.03,1.84,2.04,3.7,3.02,5.57.22.42.35.94.35,1.41.02,6.43.09,12.85-.01,19.28-.1,6.22-5.35,10.49-11.1,8.95-1.55-.42-2.91-1.63-4.31-2.56-.39-.26-.59-.79-.88-1.19-.11.08-.22.16-.33.24,0,.95,0,1.91,0,2.86.02,22.01.04,44.02.05,66.04,0,7.38,0,14.76,0,22.14,0,2.38.14,2.07-2.07,2.07-41.04,0-82.08-.01-123.12-.02-3.52,0-7.05-.07-10.57.03-1.3.03-1.58-.4-1.58-1.62.03-25.54.02-51.07.02-76.61,0-3.98,0-7.96,0-11.94,0-.4-.03-.79-.06-1.37Zm39.46,56.14c.02-.22.07-.38.05-.54-.36-3.86.67-7.44,2.04-10.99.95-2.46,1.87-4.96,2.48-7.52.44-1.85.33-3.83.48-5.84h4.25c-.96,4.77.42,9.03,2.18,13.24.61,1.45,1.21,2.91,1.66,4.41.6,1.97,1.15,3.98.74,6.09-.07.35.06.77.2,1.11.03.08.62.09.66,0,.14-.31.19-.68.21-1.03.16-2.88.13-5.79.5-8.65.69-5.31,2.35-10.51,1.56-16.02h1.58c.19,2.55.24,5.03.58,7.47.54,3.85,1.39,7.66,1.86,11.51.27,2.19.05,4.44.05,6.81h13.86v29.27h5.88v-72.66h31.89v72.6c.22.09.29.14.37.14,6.01,0,12.02,0,18.03.02.67,0,.85-.3.83-.92-.03-1.08-.02-2.16-.02-3.23,0-27.4-.01-54.8-.02-82.2,0-.33-.05-.65-.08-1.13-3.36,3.68-6.25,4.87-9.87,3.87-4.3-1.18-6.43-4.24-6.78-8.6h-3.37c-.03.26-.05.42-.07.58-.76,6.57-7.31,10.26-13.01,7.31-2.73-1.41-4.3-3.71-4.74-6.73-.13-.94-.49-1.3-1.42-1.23-.69.05-1.38.01-1.76.01-.71,1.79-1.16,3.44-1.99,4.87-1.86,3.23-5.75,4.7-9.47,3.82-3.56-.85-6.42-4.08-6.65-7.63-.06-.86-.31-1.22-1.18-1.11-.41.05-.83.05-1.24,0-.92-.11-1.26.18-1.35,1.2-.37,3.94-4.15,7.53-8.03,7.76-4.48.28-8.39-2.52-9.37-6.71q-.53-2.24-2.9-2.21c-.24,0-.49.04-.81.07-.08.46-.16.9-.23,1.35-.54,3.45-3.33,6.51-6.66,7.27-3.63.84-7.37-.52-9.34-3.63-.77-1.22-1.05-2.75-1.6-4.12-.15-.36-.42-.91-.69-.95-.93-.12-1.88-.05-2.83-.05-.05.41-.08.66-.12.9-.77,5.5-5.62,8.99-10.89,7.85-3.63-.79-6.32-3.83-6.7-7.68-.09-.89-.48-1.09-1.28-1.08-.86,0-1.03.44-1.01,1.18.03.91-.05,1.82-.05,2.73-.01,19.19-.03,38.38-.03,57.58,0,.45.04.89.06,1.39h8.78c0-.53,0-.98,0-1.43,0-3.65-.03-7.3,0-10.94.03-3.34,2.19-6.25,5.27-7.24,3.06-.99,6.17.02,8.17,2.66,1.21,1.59,1.61,3.42,1.59,5.38-.02,3.32-.05,6.63-.08,9.95,0,.53,0,1.05,0,1.65h9.83Zm52.74-72.75c-.49-.14-.8-.36-1.02-.28-2.35.81-2.67-1.06-3.34-2.47-.18-.37-.33-.76-.51-1.13-1.24-2.55-1.53-5.11-.3-7.77.83-1.8.79-3.69.3-5.59-1.04-4.03-3.66-7.1-6.28-10.14-.21-.24-.89-.3-1.23-.16-2.27.97-4.54,1.98-6.74,3.1-.38.19-.67,1.04-.61,1.53.21,1.72.49,3.45.94,5.12,1.23,4.58,3.26,8.47,8.34,9.94,1.1.32,2.15,1.44,2.84,2.45,1.23,1.79,2.16,3.78,3.24,5.72-.63.57-1.18,1.01-1.64,1.53-.17.2-.23.63-.15.88.06.18.47.35.71.34,2.19-.17,4.07-.92,5.44-3.04Zm-35.88,2.28c-.31-.4-.52-.83-.87-1.08-.86-.63-.82-1.32-.34-2.15.63-1.11,1.18-2.27,1.84-3.37,1.15-1.91,2.72-3.37,4.94-3.89,3.07-.73,5.23-2.63,6.44-5.37,1.23-2.78,2.04-5.74,2.89-8.67.14-.47-.32-1.42-.77-1.7-1.9-1.16-3.91-2.14-5.86-3.21-.71-.39-1.21-.19-1.76.33-2.27,2.14-4.28,4.48-5.78,7.25-1.46,2.7-1.97,5.42-1.02,8.47.42,1.34.46,3.01.06,4.34-.58,1.95-1.68,3.76-2.65,5.58-.15.29-.77.42-1.19.45-.64.05-1.29-.04-2.08-.08.38,1.87,1.73,2.53,3.07,3.13.95.43,1.98.94,3.09-.03Zm51.46,72.14c.02-2.81-1.85-4.84-4.5-4.88-2.67-.04-4.76,2.01-4.76,4.66,0,2.56,2.05,4.56,4.71,4.59,2.58.03,4.53-1.83,4.55-4.37Zm-51.5-11.6c-.73,3.05-1.2,6.08-.51,9.13.17,0,.34,0,.51,0v-9.13Zm-15.39,8c.6-3.03,1.2-6.05,1.81-9.08-1.55,2.84-2.23,5.85-1.81,9.08Z"/>
  <path class="cls-1" d="m60.49,61.15v-22.88h139.14v22.88H60.49Z"/>
  <path class="cls-1" d="m82.7,142.52c1.79,3.57,4.32,6.27,8.35,7.4-1.05,2.9-2.91,4.82-5.72,5.85-4.25,1.56-8.61-1.14-10.37-4.99-.13-.28.03-.95.27-1.09q4.75-2.86,7.46-7.17Z"/>
  <path class="cls-1" d="m84.11,139.17c4.44.85,7.36,4.27,7.24,8.48-3.49.48-7.61-5.7-7.24-8.48Z"/>
  <path class="cls-1" d="m81.42,139.3c-.34,3.65-3.92,7.92-6.98,8.4-.43-3.7,3.04-7.94,6.98-8.4Z"/>
</svg>