<?xml version="1.0" encoding="UTF-8"?>
<svg id="Layer_1" data-name="Layer 1" xmlns="http://www.w3.org/2000/svg" viewBox="0 0 126.83 126.83">
  <defs>
    <style>
      .cls-1 {
        fill: #637481;
      }
    </style>
  </defs>
  <path class="cls-1" d="m13.4,105.58c2.61-2.34,5.25-4.65,7.8-7.06.45-.42.76-1.22.76-1.84.04-18.94.07-37.88-.07-56.82-.01-1.35-1.39-2.68-2.16-4.01-.08-.14-.35-.17-.5-.29-1.59-1.2-1.77-8.7-.12-9.82.68-.47,1.73-.7,2.56-.59,3.85.49,7.11-.63,10.04-3.12,1.23-1.05,2.65-1.89,4.04-2.73,1.45-.88,2.63-.29,2.64,1.42.05,6.57.05,13.15,0,19.72-.01,1.78-1.24,2.34-2.8,1.32-2.88-1.88-5.71-3.82-8.44-5.66-.56.82-1.08,1.49-1.49,2.21-.26.46-.5,1-.5,1.51-.03,18.94-.03,37.88.02,56.83,0,.72.47,1.6,1,2.11,2.05,2,4.21,3.89,6.33,5.81.85.77,1.83,1.59.8,2.77-1.12,1.28-2.07.31-2.96-.5-2.21-2.01-4.42-4.01-6.78-6.15-2.31,2.1-4.61,4.09-6.79,6.2-1.13,1.1-2.14,1.34-3.36.27,0-.52,0-1.04,0-1.56Zm7.86-72.8h4.5v-4.39h-4.5v4.39Z"/>
  <path class="cls-1" d="m60.41,67.49c-1.48-.58-3.63.68-3.97-1.73-.21-1.46-.04-2.97-.04-4.72-1.48,0-2.82.02-4.16,0-2.46-.04-3.64-1.14-3.66-3.54-.04-3.97-.04-7.94,0-11.91.02-2.42,1.18-3.53,3.63-3.62.59-.02,1.18-.06,1.76,0,1.43.16,2.4-.09,2.77-1.8.37-1.7,1.74-2.54,3.49-2.57,2.08-.04,4.17,0,6.25,0,1.93,0,3.28.93,3.74,2.79.31,1.24.85,1.61,2.12,1.61,5.67,0,5.92.29,5.94,5.95.01,3.12.02,6.25,0,9.37-.03,2.58-1.12,3.66-3.7,3.7-1.29.02-2.58,0-4.11,0,0,1.23,0,2.32,0,3.4,0,2.59-.23,2.82-2.75,2.85-.38,0-.76,0-1.4,0,1.08,3.79,2.1,7.4,3.14,10.99,2.56,8.87,5.12,17.74,7.69,26.61.07.25.27.55.2.74-.29.76-.67,1.48-1.01,2.21-.67-.47-1.71-.8-1.93-1.42-.92-2.57-1.59-5.22-2.34-7.85-2.1-7.31-4.2-14.62-6.31-21.93-.12-.43-.29-.84-.67-1.24-.03.6-.08,1.19-.08,1.79,0,9.31,0,18.61,0,27.92,0,.39.15.89-.04,1.15-.44.6-1.05,1.09-1.59,1.63-.49-.51-1.16-.95-1.43-1.56-.25-.54-.07-1.28-.07-1.93,0-9.31,0-18.61,0-27.92,0-.38,0-.75,0-1.13-.11-.02-.22-.04-.32-.06-.79,2.71-1.6,5.42-2.38,8.14-2.13,7.37-4.24,14.75-6.36,22.12-.09.31-.1.74-.3.91-.62.51-1.32.93-1.99,1.38-.33-.74-1.07-1.58-.92-2.21.65-2.85,1.55-5.64,2.37-8.45,2.74-9.49,5.49-18.99,8.23-28.48.11-.37.16-.76.25-1.21Zm3.05-11.26c2.98-.03,5.43-2.53,5.41-5.52-.02-3.02-2.47-5.41-5.51-5.38-3.03.03-5.44,2.47-5.41,5.48.03,2.99,2.53,5.46,5.51,5.42Zm3.76,7.86v-2.94h-7.58v2.94h7.58Z"/>
  <path class="cls-1" d="m103.28,100.68c-2.45,2.22-4.71,4.27-6.97,6.32-.81.74-1.7,1.45-2.69.42-1.09-1.13-.24-1.99.63-2.78,2.17-1.97,4.38-3.89,6.48-5.94.53-.51.95-1.42.95-2.14.05-18.88.05-37.76,0-56.64,0-.63-.57-1.26-.87-1.88-.3-.62-.59-1.24-.96-2.04-2.68,1.8-5.4,3.68-8.18,5.45-.64.41-1.79.86-2.22.57-.58-.39-.96-1.47-.97-2.27-.08-6.18-.08-12.37,0-18.55,0-.73.4-1.72.95-2.09.42-.28,1.44.13,2.07.46,1.03.54,2.03,1.19,2.93,1.94,3.27,2.73,6.84,4.23,11.24,3.65,2.11-.28,3.04.89,3.09,3.06.03,1.5-.03,3,.02,4.49.05,1.43-.71,2.23-1.65,3.26-1,1.1-2.29,2.31-2.29,4.18.03,18.75,0,37.5.07,56.25,0,.83.52,1.85,1.12,2.45,2.08,2.06,4.3,3.98,6.47,5.95.78.71,1.41,1.51.57,2.5-.91,1.07-1.82.6-2.68-.19-2.3-2.11-4.61-4.2-7.07-6.43Zm2.18-67.85v-4.51h-4.42v4.51h4.42Z"/>
  <path class="cls-1" d="m67.37,27.48c-.17.34-.27.77-.53,1.01-1.09.98-2.2,1.93-3.37,2.81-.17.13-.81-.1-1.03-.35-1.01-1.13-1.97-2.31-2.87-3.53-.12-.16.26-.98.4-.98,1.98.02,1.59-2.71,3.35-2.84.35-.03,1.02.21,1.03.35.08,1.95,2.68,1.76,3.01,3.54Z"/>
  <path class="cls-1" d="m45.1,29.05c.45,0,1.05-.18,1.32.04.54.43,1.32,1.14,1.25,1.63-.26,1.85-1.86,1.34-3.08,1.42-1.14.07-2.22-.2-2.19-1.53.01-.54.8-1.14,1.36-1.54.3-.21.88-.04,1.33-.04,0,0,0,.01,0,.02Z"/>
  <path class="cls-1" d="m81.71,32.28c-.71-.18-1.66-.15-1.97-.58-.37-.52-.2-1.43-.26-2.17,1.52,0,3.04-.02,4.56-.03-.03.74.2,1.71-.18,2.16-.4.46-1.39.42-2.15.61Z"/>
  <path class="cls-1" d="m43.07,28.24c-.74-1.25-1.58-2.27-1.42-2.46.93-1.11,2.09-2.02,3.17-3,.46.53,1.41,1.37,1.3,1.55-.76,1.22-1.74,2.3-3.05,3.91Z"/>
  <path class="cls-1" d="m82.11,21.95c1.31,1.61,2.29,2.69,3.06,3.91.09.15-1.36,1.53-1.42,1.48-1.1-.88-2.19-1.81-3.04-2.92-.17-.22.67-1.21,1.41-2.48Z"/>
  <path class="cls-1" d="m43.17,32.92c1.26,1.64,2.2,2.76,2.95,3.99.07.12-1.45,1.45-1.53,1.38-1.08-.9-2.13-1.89-2.95-3.03-.15-.21.74-1.16,1.53-2.34Z"/>
  <path class="cls-1" d="m86.09,35.22c-1.62,1.31-2.71,2.29-3.93,3.05-.14.09-1.51-1.37-1.46-1.43.88-1.1,1.82-2.19,2.93-3.03.22-.17,1.21.67,2.46,1.41Z"/>
  <path class="cls-1" d="m63.48,48.44c1.42.18,2.29.95,2.23,2.42-.05,1.36-.92,2.2-2.26,2.21-1.43.01-2.34-.86-2.35-2.31,0-1.46.91-2.21,2.37-2.31Z"/>
</svg>