<?xml version="1.0" encoding="UTF-8"?>
<svg id="Layer_2" data-name="Layer 2" xmlns="http://www.w3.org/2000/svg" viewBox="0 0 260.41 252.23">
  <defs>
    <style>
      .cls-1 {
        fill: #637481;
      }
    </style>
  </defs>
  <path class="cls-1" d="m94.08,220.38c-7.1-1.52-11.12-6.51-14.12-12.6-3.47-7.04-5.6-14.55-6.79-22.25-1.95-12.65-3.66-25.35-5.14-38.07-.66-5.64-1.94-10.87-5.03-15.73-4.9-7.72-9.26-15.74-11.63-24.68-1.47-5.55-2.09-11.2-2.09-16.93,0-10.37.08-20.74-.04-31.11-.05-4.69,1.49-8.63,4.56-12.07,3.78-4.23,8.44-7.26,13.46-9.79.14-.07.34-.04.69-.07,0,.71,0,1.36,0,2.02,0,15.65-.08,31.29.02,46.94.16,25.52,15.72,48.27,39.23,57.56,34.55,13.64,73.02-5.54,82.98-41.39,1.55-5.59,2.23-11.29,2.22-17.09-.01-15.34,0-30.68,0-46.02,0-.66,0-1.31,0-2.27,4.03,1.89,7.51,4.11,10.72,6.76,5.35,4.43,8.32,9.79,8.04,17.07-.37,9.56-.18,19.14-.07,28.71.14,12.27-3,23.63-9,34.26-1.57,2.77-3.07,5.6-4.83,8.25-3.12,4.69-4.36,9.85-4.9,15.39-1.36,13.97-2.82,27.94-5.83,41.68-1.5,6.84-3.34,13.57-6.66,19.79-.98,1.83-2.15,3.58-3.4,5.23-2.58,3.4-6.04,5.47-10.2,6.4h-4.05c-4.03-1.14-7.42-3.33-9.75-6.77-2.01-2.97-3.91-6.1-5.32-9.39-3.54-8.29-4.62-17.08-4.88-26.03-.1-3.33-.58-6.72-1.47-9.92-.96-3.42-3.09-4.57-6.65-4.57-2.88,0-5.77.04-8.65-.01-2.17-.04-3.88.84-4.94,2.63-.8,1.35-1.59,2.87-1.76,4.38-.53,4.93-.69,9.89-1.15,14.83-.77,8.18-2.62,16.08-6.58,23.36-2.92,5.37-6.74,9.77-12.92,11.5h-4.05Z"/>
  <path class="cls-1" d="m88.73,31.97c9.97-.55,19.33,1.03,28.07,5.68,2.65,1.41,5.3,2.82,7.94,4.25,3.57,1.93,7.11,1.91,10.73.07,4.69-2.38,9.32-4.95,14.17-6.96,6.96-2.88,14.35-3.42,21.94-3.05.03.7.08,1.29.08,1.89,0,17.06.03,34.12,0,51.17-.05,20.25-13.03,36.69-32.49,41.25-22.9,5.36-46.35-10.5-49.9-33.79-.35-2.3-.58-4.64-.59-6.96-.05-17.36-.03-34.73-.02-52.1,0-.42.04-.85.06-1.46Z"/>
</svg>