<?xml version="1.0" encoding="UTF-8"?>
<svg id="Layer_1" data-name="Layer 1" xmlns="http://www.w3.org/2000/svg" viewBox="0 0 127 127">
  <defs>
    <style>
      .cls-1 {
        fill: #637481;
      }
    </style>
  </defs>
  <path class="cls-1" d="m22.85,50.3c0-2.45-.2-4.76.04-7.02.46-4.27,4.33-7.32,9.01-7.32,9.35,0,18.7,0,28.05,0,1.95,0,1.93,0,1.93,2,0,8.71-.02,17.42.03,26.13,0,.95-.26,1.17-1.17,1.16-7.98-.04-15.95-.04-23.93-.02-.87,0-1.14-.24-1.12-1.13.06-2.58.09-5.17,0-7.75-.11-3.07-2.22-5.48-5.23-5.96-1.18-.19-2.42-.08-3.63-.09-1.34-.01-2.67,0-3.98,0Z"/>
  <path class="cls-1" d="m104.42,50.3c-2,0-3.91,0-5.81,0-4.54,0-7.19,2.66-7.17,7.22.01,2.2.05,4.4.14,6.6.03.8-.13,1.13-1.03,1.13-8.13-.04-16.27-.04-24.4-.03-.64,0-.81-.21-.81-.83.02-9.19.02-18.38,0-27.56,0-.92.49-.86,1.08-.86,8.36,0,16.72-.01,25.07,0,1.97,0,3.98-.11,5.91.19,4.04.61,6.98,4.19,7.02,8.25.02,1.91,0,3.83,0,5.9Z"/>
  <path class="cls-1" d="m35.74,68.6c.34-.03.71-.09,1.08-.09,17.78,0,35.56.01,53.34.02,1.43,0,1.37,0,1.35,1.48-.04,2.36,0,4.72.05,7.08.01.65-.13.89-.84.89-18.03-.02-36.07-.02-54.1-.02-.48,0-.89.02-.88-.66.02-2.87,0-5.74,0-8.71Z"/>
  <path class="cls-1" d="m32.4,69.64c0,4.05,0,8.11,0,12.16,0,2.61-1.13,3.75-3.72,3.75-2.62,0-5.23,0-7.85,0-2.47,0-3.75-1.28-3.75-3.79,0-7.37,0-14.74,0-22.12,0-1.11-.03-2.24.13-3.34.25-1.73,1.29-2.68,3.04-2.71,2.97-.06,5.94-.06,8.9.02,2.06.05,3.24,1.39,3.24,3.49,0,4.18,0,8.36,0,12.54Z"/>
  <path class="cls-1" d="m109.92,69.59c0,4.24-.01,8.49,0,12.73,0,1.92-1.08,3.17-3.01,3.21-3,.05-6,.05-9,0-1.97-.03-3.02-1.19-3.04-3.28-.03-3.7,0-7.4,0-11.1,0-4.69,0-9.38,0-14.07,0-2.3.98-3.39,3.27-3.46,2.84-.08,5.68-.08,8.52,0,2.31.06,3.24,1.16,3.22,3.45-.02,4.18,0,8.36,0,12.54h.03Z"/>
  <path class="cls-1" d="m20.34,87.55h8.79c-.12,1.81-2.3,3.5-4.43,3.5-2.04,0-4.2-1.69-4.36-3.5Z"/>
  <path class="cls-1" d="m106.9,87.61c-.46,1.88-2.4,3.34-4.39,3.39-1.98.05-4.02-1.4-4.61-3.39h9Z"/>
</svg>