<?xml version="1.0" encoding="UTF-8"?>
<svg id="Layer_2" data-name="Layer 2" xmlns="http://www.w3.org/2000/svg" viewBox="0 0 260.41 252.23">
  <defs>
    <style>
      .cls-1 {
        fill: #637481;
      }
    </style>
  </defs>
  <path class="cls-1" d="m47.26,131.39c0-3.46,0-6.91,0-10.37.2-1.55.41-3.09.6-4.64,2.77-22.01,12.67-40.21,29.76-54.26,26.89-22.11,63.9-25.38,93.9-7.73,26.76,15.73,40.65,39.68,41.59,70.74.51,16.97-4.22,32.68-13.71,46.77-13.19,19.58-31.47,31.62-54.72,35.96-3.06.57-6.18.87-9.27,1.29h-10.37c-.41-.09-.82-.23-1.24-.27-16.53-1.32-31.4-6.98-44.43-17.22-16.77-13.18-27.12-30.3-30.86-51.33-.53-2.96-.83-5.97-1.24-8.95Zm83-17.42c-14.74,0-29.48,0-44.23,0-2.78,0-3.88.77-4.89,3.34-8.41,21.4-1.7,46.21,16.4,60.35.77.6,1.93.98,2.91.99,19.6.06,39.2.02,58.81.08,1.8,0,3.16-.53,4.52-1.66,17.41-14.51,23.68-38.2,15.67-59.39-1.15-3.05-2.12-3.72-5.45-3.72-14.58,0-29.16,0-43.74,0Zm20.7-5.55c3.75,0,7.14-.04,10.52.02,1.11.02,1.72-.28,2.19-1.36,1.54-3.56,3.32-7.01,4.82-10.58.95-2.25,2.18-3.58,4.81-4.07,4.63-.85,7.31-5.83,6.02-10.35-1.31-4.57-6.02-7.15-10.56-5.79-4.53,1.36-7.19,6.21-5.53,10.63.8,2.12.41,3.62-.85,5.34-3.8,5.22-7.47,10.54-11.42,16.16Zm-36.42-13.65c1.88-3.76,4.58-6.76,8.15-8.98.3-.19.42-1.04.29-1.48-1.33-4.27-3.87-7.66-7.71-9.99-.45-.28-1.35-.29-1.8-.02-3.86,2.3-6.36,5.7-7.79,9.94-.32.95-.04,1.41.77,1.93,1.17.75,2.37,1.56,3.29,2.59,1.67,1.86,3.14,3.9,4.81,6.01Zm5.64,13.58c1.42,0,2.32.03,3.21,0,9.32-.31,16.29-9.2,14.24-18.24-.11-.48-.69-1.1-1.16-1.22-2.33-.58-4.68-.53-7.11.15.03,7.71-3.07,13.98-9.17,19.32Zm-20.83-19.55c-2.4,0-4.69-.01-6.98,0-.92,0-1.36.57-1.36,1.45-.01,1.98-.27,4.01.06,5.93,1.31,7.74,9.39,13.37,16.57,12.01-1.96-2.81-4.19-5.62-5.98-8.69-1.84-3.17-2.33-6.79-2.31-10.72Zm11.72,14.88c-.79-5.12-3.08-9.3-6.62-12.95,1.1,4.91,3.2,9.19,6.62,12.95Zm13.21-13.04c-4,4.46-6.54,9.53-6.52,12.91,3.31-3.66,5.39-7.94,6.52-12.91Z"/>
  <path class="cls-1" d="m157.66,146.17c.08,15.09-12.21,27.54-27.26,27.61-15.19.07-27.5-12.15-27.61-27.41-.11-15.03,12.17-27.31,27.41-27.41,14.96-.1,27.37,12.2,27.46,27.21Zm-5.57.21c.02-12.09-9.69-21.83-21.79-21.88-12.15-.05-21.9,9.68-21.95,21.89-.04,11.89,9.79,21.79,21.72,21.85,12.11.06,22-9.76,22.02-21.87Z"/>
  <path class="cls-1" d="m127.44,149.15c-2.46,0-4.67.1-6.86-.05-.94-.06-2.11-.42-2.69-1.08-.52-.59-.75-1.93-.44-2.63.34-.77,1.41-1.57,2.26-1.68,1.91-.26,3.87-.1,5.81-.12.58,0,1.16,0,1.92,0,0-2.29-.01-4.39,0-6.48,0-.64,0-1.32.19-1.92.43-1.34,1.45-2,2.86-1.86,1.41.14,2.3,1,2.41,2.4.13,1.66.07,3.34.09,5.01,0,.85,0,1.71,0,2.84,1.83,0,3.53,0,5.23,0,.75,0,1.51-.02,2.26.03,1.66.11,2.68,1.1,2.74,2.6.06,1.56-.96,2.78-2.64,2.88-1.83.11-3.66.04-5.5.05-.63,0-1.27,0-2.1,0,0,2.25.01,4.34,0,6.42,0,.64,0,1.32-.19,1.92-.43,1.35-1.45,1.98-2.86,1.85-1.42-.14-2.31-.99-2.41-2.39-.13-1.72-.07-3.45-.09-5.17,0-.8,0-1.6,0-2.63Z"/>
</svg>