<?xml version="1.0" encoding="UTF-8"?>
<svg id="Layer_1" data-name="Layer 1" xmlns="http://www.w3.org/2000/svg" viewBox="0 0 127 127">
  <defs>
    <style>
      .cls-1 {
        fill: #637481;
      }
    </style>
  </defs>
  <path class="cls-1" d="m26.62,101.71c.8-3.91.4-6.43-2.72-8.98-6.85-5.61-5.7-16.63,1.78-21.41.96-.61,2.21-.75,3.33-1.1.32,1.12.73,2.23.93,3.37.31,1.81-.71,3.89,1.52,5.25,2.03,1.24,4.66.18,4.9-2.24.13-1.32-.02-2.67.04-4,.12-2.68.9-3.12,3.27-1.91,8.25,4.23,9.98,16.11,2.75,22.08-3.14,2.59-3.34,5.16-2.78,8.46,9.3,2.73,16.13-2.99,24.07-6.9-4.32-2.19-8.23-4.11-12.07-6.15-.92-.49-1.62-1.39-2.42-2.1.76-.73,1.41-1.68,2.3-2.16,3.86-2.09,7.78-4.06,12.15-6.3-4.58-2.35-8.7-4.55-12.89-6.58-1.72-.83-2.17-1.98-2.37-3.82-.32-2.97-.94-5.98-1.93-8.8-1.12-3.18-4.4-4.92-7.88-4.77-3.38.15-6.18,2.32-7.36,5.6-.49,1.35-1.02,3.65-1.75,3.75-2.24.28-4.88.26-6.8-.73-1.5-.77-2.83-3.07-3.07-4.85-.48-3.63-.29-7.37-.14-11.06.15-3.45,2.35-5.63,5.8-6.07,3.46-.45,6.91-.95,10.38-1.2,1.87-.14,2.95-.76,3.63-2.6,1.38-3.75,2.99-7.41,4.51-11.11,2.01-4.88,5.55-7.42,10.92-7.4,11.08.04,22.15-.02,33.23.02,5.55.02,8.76,2.56,10.18,7.95.94,3.57,1.66,7.2,2.76,10.72.31.99,1.49,2.24,2.44,2.4,10.95,1.87,10.24,4.1,10.15,12.84-.02,1.64.06,3.29-.01,4.93-.16,3.94-2.48,6.18-6.37,6.48-2.38.18-3.66-.28-4.07-3.1-.59-4.1-4.04-6.58-8.09-6.56-3.96.02-7.2,2.69-8.04,6.73-.54,2.63-.8,5.32-1.5,7.9-.27,1-1.22,2.09-2.15,2.6-4.12,2.27-8.34,4.34-12.98,6.72,4.29,2.23,8.2,4.2,12.04,6.28.92.5,1.62,1.38,2.42,2.09-.78.73-1.45,1.67-2.36,2.16-3.78,2.05-7.63,3.96-12.24,6.32,7.17,2.54,12.37,7.93,20.24,7.36,6.53-.48,13.12.02,19.68-.15,2.77-.07,3.52.92,3.46,3.56-.12,5.43,0,5.43-5.54,5.43-27.89,0-55.79.02-83.68-.05-1.27,0-3.55-.6-3.62-1.14-.29-2.37,0-4.82.26-7.22.03-.24,1.25-.45,1.94-.5,1.2-.08,2.41-.02,3.71-.02Zm79.8-41.29c2.96-.21,4.18-1.66,4.2-4.2.02-2.98-.03-5.95.01-8.93.03-2.6-1.25-3.99-3.75-4.42-1.92-.34-3.91-.51-5.7-1.2-1.11-.43-2.4-1.53-2.73-2.6-1.23-4.01-2.08-8.14-3.12-12.22-1.06-4.15-3.14-5.91-7.42-5.94-11.08-.07-22.16-.01-33.24-.02-3.94,0-6.58,1.82-8.05,5.48-1.72,4.28-3.39,8.59-5.38,12.75-.53,1.11-2.03,2.23-3.25,2.46-4.02.76-8.15.98-12.17,1.73-1.19.22-3.03,1.44-3.1,2.33-.34,4.06-.36,8.18,0,12.23.09.93,2.09,1.92,3.38,2.39.48.17,1.86-.91,2.17-1.69,2.04-5.02,5.73-7.85,10.63-7.9,5.1-.05,8.84,2.75,10.97,7.87.34.83,1.64,1.78,2.51,1.79,9.74.13,19.49.05,29.24.12,1.59.01,2.27-.49,2.81-2.04,1.74-5,5.69-7.81,10.67-7.71,6.26.12,9.61,3.86,11.31,9.73Zm-52.49,25.58c4.29,2.18,8.07,4.16,11.92,5.99.69.33,1.81.32,2.5-.02,3.76-1.82,7.44-3.78,11.72-5.99-4.42-2.26-8.38-4.3-12.37-6.28-.39-.19-1.05-.19-1.44,0-3.99,2-7.95,4.05-12.33,6.3Zm2.69,15.47h20.69q-9.35-5.87-18.42-1.26c-.53.27-1.04.58-2.27,1.26Zm.93-30.93c-.07.14-.14.28-.21.41,2.87,1.48,5.72,2.99,8.62,4.42.48.24,1.24.36,1.69.15,2.98-1.45,5.91-3,8.86-4.51-.05-.16-.1-.31-.15-.47h-18.81Z"/>
  <path class="cls-1" d="m69.13,46.53c-6.05,0-12.11-.08-18.16.04-2.28.04-2.85-.78-3.07-3.01-.64-6.31,3.15-11.1,5.26-16.45.24-.6,1.47-1.13,2.24-1.14,9.85-.08,19.7-.08,29.55,0,.82,0,2.17.68,2.37,1.33,1.58,5.26,4.16,10.27,3.78,16.05-.15,2.34-.73,3.28-3.2,3.23-6.26-.13-12.52-.04-18.77-.05Z"/>
</svg>