<?xml version="1.0" encoding="UTF-8"?>
<svg id="Layer_1" data-name="Layer 1" xmlns="http://www.w3.org/2000/svg" viewBox="0 0 126.83 126.83">
  <defs>
    <style>
      .cls-1 {
        fill: #637481;
      }
    </style>
  </defs>
  <path class="cls-1" d="m24.52,86.41h77.79c.15-1.29.3-2.54.47-3.99h3.34v7.56H20.93c-.07-1.02-.19-1.89-.19-2.75-.03-15.61-.05-31.21-.05-46.82,0-4.77,1.32-6.11,6.02-6.12,16.3-.01,32.6,0,49.17,0v3.97H24.52v48.15Z"/>
  <path class="cls-1" d="m117.78,54.43c0,7.19.03,14.39-.01,21.58-.02,4.12-1.5,5.54-5.67,5.55-9.79.01-19.59.01-29.38,0-4.39,0-5.81-1.37-5.81-5.66-.02-14.39-.01-28.78,0-43.17,0-4.32,1.4-5.69,5.77-5.7,9.79-.01,19.59-.02,29.38,0,4.27,0,5.7,1.44,5.72,5.81.03,7.19,0,14.39,0,21.58h-.01Zm-3.44-1.65c0-6.5-.06-13.01.04-19.51.03-1.97-.39-2.85-2.62-2.82-9.6.11-19.21.1-28.81,0-2.09-.02-2.77.63-2.75,2.73.08,12.91.06,25.81,0,38.72,0,1.87.47,2.69,2.51,2.68,9.7-.08,19.41-.08,29.11,0,1.97.02,2.58-.64,2.55-2.59-.1-6.4-.04-12.81-.04-19.21Zm-17,22.83c-.79,1.07-1.64,1.72-1.61,2.33.03.64.9,1.24,1.41,1.85.65-.59,1.62-1.09,1.83-1.81.14-.47-.82-1.26-1.62-2.38Z"/>
  <path class="cls-1" d="m63.77,99.75c-14.31,0-28.62.2-42.93-.14-3.63-.09-7.26-1.78-10.79-3.04-.66-.24-.99-1.92-1.07-2.97-.03-.31,1.3-1.06,2.01-1.06,12.11-.03,24.22.03,36.32.08.49,0,1.25-.1,1.44.16,2.21,3.12,5.45,1.68,8.24,1.81,4.49.2,9.01.15,13.51.02,2.46-.07,5.19.92,7.21-1.6.34-.42,1.52-.2,2.32-.2,11.61.03,23.22.04,34.82.16.97.01,2.49.54,2.78,1.24.69,1.66-.44,2.56-2.03,3.32-3.42,1.62-6.9,2.32-10.71,2.28-13.71-.14-27.42-.05-41.13-.05Z"/>
</svg>