<?xml version="1.0" encoding="UTF-8"?>
<svg id="Layer_1" data-name="Layer 1" xmlns="http://www.w3.org/2000/svg" viewBox="0 0 127 127">
  <defs>
    <style>
      .cls-1 {
        fill: #637481;
      }
    </style>
  </defs>
  <path class="cls-1" d="m44.39,107.7c-2.11-12.07,1.76-22.21,9.69-31.07,3.21-3.59,6.52-7.1,9.58-10.82,5.34-6.48,8.98-13.61,7.54-22.44,2.09,3.86,2.08,7.87,1.01,11.97-1.45,5.56-4.51,10.27-7.96,14.75-3.73,4.85-7.38,9.78-11.4,14.39-5.84,6.71-9.15,14.21-8.46,23.21Z"/>
  <path class="cls-1" d="m59.36,29.75c-.45-.75-1.03-1.45-1.32-2.25-.67-1.87-1.58-3.79-1.65-5.71-.04-1.27.94-3.34,1.95-3.7,1.33-.47,3.46-.06,4.63.8,1.24.91,2.13,2.71,2.49,4.28.54,2.35.47,4.83.65,7.17-1.52.52-2.8.96-4.23,1.45-.78-.64-1.7-1.39-2.62-2.14l.09.09Z"/>
  <path class="cls-1" d="m70.95,36.04c-3.15-.14-4.52-1.85-4.17-5.18.47-.43,1.17-1.06,1.87-1.7l-.09.09c2.12-.73,4.19-1.78,6.37-2.11,3.5-.52,5.84.96,6.1,3.3.3,2.67-1.99,5.16-5.31,5.53-1.6.18-3.24.02-4.85.02,0,0,.08.05.08.05Z"/>
  <path class="cls-1" d="m43.06,97.12c-8.15-5.9-10.86-14.12-7.35-20.47,1.12,1.93,2.2,4.23,3.69,6.25,3.11,4.21,4.53,8.77,3.67,14.23Z"/>
  <path class="cls-1" d="m68.8,102.06c-3.13,3.7-10.38,5.75-14.78,3.95-.89-.36-1.48-1.44-2.21-2.19.77-.74,1.46-1.98,2.32-2.11,2.54-.38,5.14-.47,7.71-.4,2.31.06,4.62.48,6.95.75Z"/>
  <path class="cls-1" d="m67.96,37.3c.57,2,1.39,3.96,1.63,6,.21,1.8-.31,3.66-2.56,4.1-1.96.39-4-.97-4.31-3.36-.34-2.57-.08-5.23-.08-7.74,1.74-.24,2.76-.38,3.7-.51.57.53,1.13,1.06,1.7,1.59l-.08-.08Z"/>
  <path class="cls-1" d="m91.68,62.51c-.21-1.67-.66-3.36-.56-5.02.11-1.92.83-3.74,3.22-3.87,1.93-.1,3.63,1.69,3.67,4.06.03,1.68-.36,3.36-.56,5.04-.14.32-.28.64-.42.96-.71.43-1.37,1-2.13,1.26-2.27.78-2.55-1.21-3.29-2.51l.08.08Z"/>
  <path class="cls-1" d="m98.47,65c1.62-.04,3.25-.23,4.86-.09,2.59.23,4.64,2.19,4.45,4-.23,2.16-2.7,3.53-5.55,2.97-1.1-.21-2.15-.68-3.22-1.04-.35-.17-.7-.35-1.05-.52-.63-.46-1.27-.92-1.93-1.41.55-1.55.06-3.69,2.53-3.99l-.08.08Z"/>
  <path class="cls-1" d="m34.88,59.97c-1.86-.49-2.7-2.26-2.07-4.34.25-.29.5-.59.75-.88,1.11-.63,2.16-1.61,3.34-1.81,1.81-.3,3.76-.28,5.55.08.48.1,1.01,1.99.84,2.93-.4,2.17-2.23,3.09-4.22,3.53-1.4.31-2.86.39-4.29.57,0,0,.08-.08.08-.08Z"/>
  <path class="cls-1" d="m26.48,56.63c-1.02-1.34-2.29-2.56-3.01-4.04-.84-1.7-1.18-3.68.84-4.99,1.56-1.01,3.97-.19,5.24,1.79.64,1.01,1.03,2.18,1.53,3.29,0,0,0-.02,0-.02.21,1.24.43,2.48.63,3.67-1.02.56-1.96,1.09-2.91,1.61-.64-.31-1.27-.63-1.91-.94-.14-.12-.27-.24-.41-.37Z"/>
  <path class="cls-1" d="m60.4,36.87c-2.04.39-4.08,1.04-6.12,1.05-.9,0-2.44-1.2-2.56-2.03-.15-1.01.6-2.48,1.43-3.26,1.57-1.47,6.68-1.58,8.05-.07.6.66.22,2.29.11,3.46-.03.34-.65.62-1,.93l.08-.08Z"/>
  <path class="cls-1" d="m90.7,68.34c-.98.01-1.98.16-2.93,0-1.71-.29-3.6-.76-3.59-2.93.01-2.13,1.84-2.38,3.54-2.5-.74-1.32-1.47-2.61-2.35-4.19,3.27-.1,4.69,2,6.3,3.78,0,0-.08-.08-.08-.08-.4.49-.8.98-1.24,1.53.56.4,1.38.98,2.68,1.9-.91.94-1.69,1.73-2.46,2.53l.12-.05Z"/>
  <path class="cls-1" d="m46.61,109.1c-.17-4.8,3.26-9.29,8.46-11.04,1.99-.67,4.12-1.07,6.21-1.22,4.85-.35,9.23-1.79,13.16-5.29-1.18,3.1-4.62,5.61-8.38,6.23-2.17.36-4.37.52-6.55.81-5.83.78-9.88,3.93-12.27,9.28-.15.33-.33.65-.62,1.23Z"/>
  <path class="cls-1" d="m52.74,97.9c-2.75-3.85-1.56-6.58,5.02-11.88,1.61,4.5.39,7.43-5.02,11.88Z"/>
  <path class="cls-1" d="m26.48,56.63c.14.12.27.24.41.37-.39.46-.77.91-1.3,1.53h3.69c-.34,1.35-.62,2.41-.89,3.48-.16.15-.31.3-.47.45-.57.29-1.12.62-1.71.86-1.64.67-3.48,1.24-4.61-.54-1.15-1.81.33-2.96,1.7-3.94-1.26-.75-2.51-1.5-4.09-2.43,2.82-1.54,5.05-.68,7.27.22Z"/>
  <path class="cls-1" d="m95.99,71.27c-.21,1.66-.09,3.47-.73,4.94-.39.9-2.08,1.93-2.92,1.73-.9-.21-1.99-1.73-2.1-2.77-.14-1.43.57-2.94.91-4.42.15-.3.31-.61.46-.91,1.77-1.84,3.36-1.3,4.44,1.52l-.06-.1Z"/>
  <path class="cls-1" d="m85.49,68.93c-9.57.06-17.96,2.8-25.51,9.05,4.75-8.03,18.66-12.93,25.51-9.05Z"/>
  <path class="cls-1" d="m34.66,61.97c.59,1.48,1.49,2.93,1.65,4.46.09.91-.88,2.66-1.55,2.76-1.03.15-2.86-.53-3.22-1.35-.88-2-1.11-4.28-1.6-6.45.23-.25.45-.49.68-.74,1.22.3,2.45.59,3.67.89.12.14.25.28.37.42Z"/>
  <path class="cls-1" d="m45.91,82.02c-2.08-3.28-2.62-6.36-2.1-9.7.61-3.95.73-7.83-2.52-11,2.54.03,4.79,2.3,5.2,5.31.17,1.27.09,2.6-.08,3.88-.24,1.85-.84,3.66-.94,5.5-.09,1.83.25,3.68.43,6.01Z"/>
  <path class="cls-1" d="m60.32,36.96c.55-.05,1.11-.1,1.66-.15.62,3.73-1.68,6.39-6.05,6.9.3-3.08,2.37-4.97,4.47-6.83,0,0-.08.08-.08.08Z"/>
  <path class="cls-1" d="m68.64,29.16c-.6.16-1.19.32-1.8.49-.82-4.58.06-6.42,4.02-8.45.87,3.18-.93,5.56-2.31,8.05,0,0,.09-.09.09-.09Z"/>
  <path class="cls-1" d="m68.04,37.38c.09-2.36,1.92-.95,2.92-1.35,0,0-.08-.05-.08-.05,2.61.82,4.49,2.4,5.37,5.13-3.53.25-6.12-1.31-8.28-3.81,0,0,.08.08.08.08Z"/>
  <path class="cls-1" d="m59.27,29.66c-.41.5-.74,1.34-1.23,1.45-3.28.71-5.4-.4-7.39-3.74,3.39-.83,6.16.34,8.72,2.38,0,0-.09-.09-.09-.09Z"/>
  <path class="cls-1" d="m34.66,61.97c-.12-.14-.25-.28-.37-.42.2-.52.39-1.05.59-1.57,0,0-.08.08-.08.08,2.73-.55,4.67.62,6.33,2.86-2.49,1.24-4.42-.25-6.47-.94Z"/>
  <path class="cls-1" d="m33.56,54.75c-.25.29-.5.59-.75.88-.58-.99-1.16-1.98-1.73-2.97,0,0,0,.02,0,.02.89-1.43,1.78-2.85,2.84-4.53,1.44,2.61.45,4.6-.34,6.61Z"/>
  <path class="cls-1" d="m97.02,63.69c.14-.32.28-.64.42-.96,1.17-1.86,2.67-3.18,4.97-3.18.2.21.41.42.61.63-1.52,1.61-3.04,3.21-4.55,4.82,0,0,.08-.07.08-.07-.51-.41-1.02-.83-1.53-1.24Z"/>
  <path class="cls-1" d="m97.96,70.33c.35.17.7.35,1.05.52.82,1.53,1.64,3.05,2.74,5.11-3.4-.7-4.56-2.71-5.76-4.68,0,0,.06.1.06.1-.3-2.04,1.13-.94,1.9-1.05Z"/>
  <path class="cls-1" d="m27.92,62.46c.16-.15.31-.3.47-.45.46-.04.92-.08,1.38-.12.28,3.46-.51,4.73-4.22,5.66.79-1.7,1.58-3.4,2.38-5.1Z"/>
  <path class="cls-1" d="m91.62,69.86c-.15.3-.31.61-.46.91-1.7,1.32-3.5,2.2-5.86,1.45,1.09-2.46,3.32-3.06,5.4-3.88,0,0-.12.05-.12.05.34.49.69.98,1.03,1.47Z"/>
</svg>