<?xml version="1.0" encoding="UTF-8"?>
<svg id="Layer_2" data-name="Layer 2" xmlns="http://www.w3.org/2000/svg" viewBox="0 0 260.41 252.23">
  <defs>
    <style>
      .cls-1 {
        fill: #637481;
      }
    </style>
  </defs>
  <path class="cls-1" d="m26.23,186.65c5.18-8.79,10.39-17.55,15.49-26.39.81-1.41,1.53-1.63,3-1.14,7.25,2.4,14.51,4.77,21.81,6.98,2.98.9,4.64,2.58,5.3,5.67,1.05,4.89,2.44,9.7,3.66,14.55.86,3.41-.44,6.09-3.27,6.81-2.93.74-5.33-.9-6.21-4.27-1.05-3.99-2.15-7.96-3.06-11.98-.31-1.34-.98-1.92-2.19-2.28-2.84-.87-5.67-1.79-8.49-2.75-1.51-.51-2.98-1.15-4.66-1.8-1.51,2.55-3.09,5.21-4.66,7.88-2.23,3.79-4.66,7.48-6.61,11.41-2.02,4.08-7.12,5.72-10.12.17,0-.95,0-1.9,0-2.84Z"/>
  <path class="cls-1" d="m197.26,131.03c1.05-2.34,2.36-3.94,4.52-5.03,2.9-1.47,5.37-3.65,5.95-7.03.3-1.77-.18-3.68-.31-5.52-.25-.04-.49-.09-.74-.13-3.59,5.96-7.19,11.93-10.93,18.15,2.09.81,4,1.56,5.92,2.28,2.15.81,4.31,1.6,6.46,2.4,1.98.74,3.26,2.13,3.83,4.16,2.27,8.07,4.57,16.13,6.78,24.21.98,3.57-.79,6.8-4.07,7.74-3.3.95-6.51-1-7.55-4.67-1.82-6.44-3.63-12.88-5.35-19.35-.37-1.39-1.07-2.13-2.42-2.61-5.22-1.85-10.38-3.88-15.61-5.7-2.82-.99-5.24-2.25-5.89-5.91-.63.97-1.02,1.55-1.39,2.15-6.59,10.95-13.19,21.9-19.77,32.87-1.23,2.05-2.83,3.43-5.33,3.49-4.41.11-7.36-4.25-5.58-8.3.35-.8.85-1.54,1.31-2.29,12.79-21.28,25.6-42.54,38.35-63.84.52-.86.91-2.02.83-2.99-1.1-13.03,4.16-23.03,14.55-30.5,2.72-1.96,5.79-3.48,8.8-5.01,2.55-1.29,4.73-.6,5.73,1.51,1.01,2.13.03,3.98-2.4,5.44-3.86,2.33-7.92,4.49-11.3,7.42-5.61,4.86-8.08,11.36-7.85,18.83.04,1.33.51,2.19,1.74,2.89,3.88,2.21,7.68,4.55,11.5,6.86,10.39,6.29,11.51,19.43,2.44,27.48-3.04,2.7-6.08,4.46-10.05,1.85-.59-.39-1.35-.54-2.16-.84Z"/>
  <path class="cls-1" d="m102.75,156.43c.39-.7.69-1.29,1.03-1.86,3.18-5.43,6.38-10.84,9.52-16.3.36-.62.69-1.61.44-2.16-2.3-5.05-1.67-10.06.11-15.02,2.48-6.93,7.12-12.22,13.02-16.45,1.78-1.28,3.71-1,4.86.55,1.12,1.51.83,3.55-.87,4.82-3.8,2.82-7.1,6.08-9.31,10.3-1.78,3.4-3.1,6.98-2.28,10.89.22,1.04,1.06,2.21,1.96,2.79,3.35,2.16,6.76,4.26,10.31,6.08,5.26,2.71,7.11,7.2,7.04,12.71-.1,6.89-2.91,12.82-6.78,18.14-1.3-1.82-2.59-3.61-4.13-5.75,2.36-3.98,4.63-8.65,3.73-14.28-1.63,2.76-3.26,5.52-4.88,8.28q-2.39,4.06-6.8,2.66c-5.6-1.78-11.19-3.58-16.95-5.42Z"/>
  <path class="cls-1" d="m73.09,170.82c-1.33-1.8-2.65-3.58-4.14-5.6,2.45-4.02,4.61-8.67,3.74-14.25-2.38,4.02-4.76,8.04-7.26,12.27-7.08-2.25-14.14-4.5-21.4-6.81,2.18-3.71,4.29-7.31,6.4-10.91.72-1.22,1.4-2.48,2.17-3.67,1.79-2.77,2.99-5.21,1.58-8.98-1.73-4.6-.15-9.48,1.88-13.94,2.68-5.87,6.86-10.49,12.07-14.22,1.88-1.34,3.82-1.08,5,.57,1.12,1.57.82,3.44-.98,4.78-3.9,2.91-7.25,6.29-9.47,10.67-1.49,2.93-2.45,6-2.3,9.34.08,1.88.73,3.27,2.54,4.24,3.57,1.92,6.96,4.16,10.52,6.1,4.32,2.35,6.16,6.11,6.42,10.79.37,6.71-2.42,14.54-6.76,19.62Z"/>
  <path class="cls-1" d="m101.46,158.53c8.43,2.71,16.59,5.35,24.76,7.95,2.04.65,3.38,1.91,3.91,4,1.37,5.37,2.81,10.72,4.07,16.11.28,1.18.19,2.59-.17,3.75-.6,1.92-2.59,2.99-4.65,2.91-2.13-.09-3.83-1.31-4.45-3.51-1.15-4.1-2.22-8.22-3.19-12.36-.36-1.53-.97-2.44-2.59-2.88-3.12-.86-6.18-1.94-9.25-2.99-1.14-.39-2.23-.93-3.57-1.5-.29.47-.68,1.06-1.04,1.67-3.6,6.12-7.21,12.23-10.79,18.36-1.2,2.06-2.88,3.28-5.31,2.94-3.61-.5-5.38-4.28-3.51-7.59,2.32-4.12,4.78-8.17,7.18-12.25,2.84-4.83,5.68-9.66,8.6-14.62Z"/>
  <path class="cls-1" d="m219.32,88.18c-.03,6.04-4.82,10.77-10.88,10.73-5.97-.04-10.79-4.96-10.72-10.94.07-5.87,4.92-10.64,10.83-10.63,6.02,0,10.79,4.81,10.76,10.85Z"/>
  <path class="cls-1" d="m142.92,126.42c.02,5.61-4.44,10.11-10,10.11-5.55,0-10.03-4.54-10.01-10.12.02-5.48,4.43-9.93,9.92-10,5.53-.07,10.08,4.44,10.1,10.01Z"/>
  <path class="cls-1" d="m64.29,126.19c.13-5.56,4.79-9.98,10.31-9.8,5.54.18,9.88,4.83,9.72,10.41-.16,5.43-4.8,9.82-10.23,9.68-5.61-.14-9.93-4.69-9.8-10.29Z"/>
  <path class="cls-1" d="m81.61,144.93h24.19c-.49,1.94-1.33,2.92-3.59,2.85-5.81-.19-11.64-.17-17.45,0-2.16.06-3.14-.62-3.15-2.84Z"/>
  <path class="cls-1" d="m173.21,147.56c.52-2.05,1.58-2.94,3.75-2.78,2.68.21,5.41.23,8.09,0,3.75-.32,6.92,1.23,10.18,2.77h-22.03Z"/>
  <path class="cls-1" d="m234.18,144.95v2.76c-5.47,0-10.87.08-16.25-.1-.65-.02-1.25-1.47-2.18-2.66h18.43Z"/>
  <path class="cls-1" d="m140.98,147.71c-.3-1-.55-1.82-.85-2.78h13.54c-.51,1.88-1.37,2.98-3.61,2.83-2.95-.2-5.93-.05-9.08-.05Z"/>
  <path class="cls-1" d="m47.17,145.02c-.56,2.18-1.8,2.94-3.91,2.74-2.06-.2-4.15-.04-6.33-.04v-2.69h10.24Z"/>
</svg>