<?xml version="1.0" encoding="UTF-8"?>
<svg id="Layer_1" data-name="Layer 1" xmlns="http://www.w3.org/2000/svg" viewBox="0 0 126.83 126.83">
  <defs>
    <style>
      .cls-1 {
        fill: #637481;
      }
    </style>
  </defs>
  <g>
    <path class="cls-1" d="m89.74,92.48c2,3.27,4.04,6.58,6.11,9.97-8.94,5.38-18.58,8.41-28.96,8.98-12.91.71-24.91-2.34-36.07-8.97,2.07-3.39,4.11-6.71,6.17-10.07,8.14,4.84,16.92,7.33,26.37,7.33,9.44,0,18.18-2.55,26.38-7.24Z"/>
    <path class="cls-1" d="m52.23,87.27c-.05-.41-.08-.78-.15-1.14-.03-.17-.14-.32-.22-.48-.15.09-.33.15-.44.28-.31.36-.6.74-.99,1.24-.13-.39-.2-.59-.26-.8-.11-.34-.3-.4-.59-.19-.03.02-.05.05-.08.07-.27.14-.54.28-.81.43-.09-.33-.23-.65-.26-.98-.03-.34.06-.69.06-1.04,0-.13-.09-.33-.19-.37-.1-.04-.3.05-.39.14-.35.34-.65.73-1,1.06-.28.26-.58.4-.83-.1-.15-.31-.4-.15-.62-.01-.43.26-.88.51-1.35.77q-.28-.94-1.2-.72c-.07.02-.14.03-.21.03-.05,0-.1-.02-.26-.06.4-.54.79-1.03,1.14-1.54.11-.16.12-.39.17-.59-.2.02-.43-.02-.6.07-.7.36-1.4.63-2.22.16,1.83-1.59,3.28-3.46,4.62-5.43,1.32-1.95,2.58-3.94,3.89-5.94.81.46,1.44-.12,2.11-.48.75.49,1.01.45,2-.33.17.46.25,1.01.55,1.38.4.51.92.17,1.37-.08.79.84.94.84,1.92-.03.15.44.3.87.86.92.09,0,.17.16.25.25.69.85,1.11.83,1.7-.08.87,1,1.13,1.06,1.81.37,1.13.75,1.36.7,1.9-.39.32.32.61.76,1.01.95.56.27.87-.24,1.15-.67.4.25.77.53,1.18.74.49.25.88.08,1.11-.4.87.15,1.01.05,1.41-.86.72.13.87.03,1.19-.76.33.19.66.51,1,.53.3.02.63-.29,1.03-.49,1.14.54,1.36.38,1.75-1.44.62.5,1.23,1.1,2.04.37.69.35,1.3.94,2.13.47,1.3,1.99,2.56,3.99,3.89,5.95,1.33,1.95,2.76,3.82,4.6,5.4-.57.4-1.13.33-1.69.11-.21-.08-.39-.23-.61-.3-.16-.05-.34,0-.51,0,.03.17.02.38.11.51.28.42.61.81.91,1.21.09.12.14.27.27.52-.35-.09-.6-.15-.84-.23-.56-.19-.64-.14-.67.43,0,.1-.04.2-.09.44-.49-.27-.93-.5-1.34-.76-.31-.2-.54-.31-.75.12-.15.32-.43.23-.61.06-.37-.34-.7-.72-1.07-1.07-.12-.11-.31-.16-.46-.24-.06.16-.17.33-.18.49-.03.54,0,1.08-.03,1.61-.02.33-.24.39-.52.22-.29-.17-.58-.35-.88-.52-.16.29-.32.58-.48.87,0,.01-.03.02-.14.1-.29-.37-.57-.75-.88-1.11-.11-.13-.29-.19-.44-.28-.08.16-.19.31-.22.47-.07.35-.09.71-.15,1.21-.25-.2-.39-.31-.53-.42-.31-.23-.53-.15-.58.23-.02.12,0,.24-.02.37-.07.63-.2.7-.75.4-.42-.23-.54-.16-.61.3-.01.1-.04.19-.1.46-.47-.37-.89-.67-1.26-1-.49-.43-.56-.42-.83.18-.09.2-.22.39-.4.69-.21-.27-.4-.44-.51-.66-.24-.5-.41-1.04-.65-1.54-.07-.15-.27-.25-.41-.37-.08.15-.21.3-.23.46-.06.43-.05.87-.1,1.3-.02.19-.13.38-.24.66-.3-.27-.54-.46-.75-.68-.4-.41-.55-.4-.76.12-.06.14-.13.27-.28.57-.33-.54-.58-.97-.85-1.37-.11-.16-.28-.27-.42-.41-.1.18-.23.35-.29.54-.09.29-.14.6-.35.97-.17-.22-.36-.42-.52-.65-.26-.38-.42-.39-.68-.01-.15.22-.33.43-.49.65-.05,0-.1-.01-.15-.02-.07-.31-.12-.62-.21-.92-.06-.19-.19-.37-.29-.55-.15.14-.33.27-.45.44-.27.39-.51.81-.84,1.34-.16-.34-.24-.52-.32-.7-.14-.33-.35-.36-.6-.12-.26.25-.52.5-.8.77-.44-.5-.34-1.04-.41-1.54-.04-.29.21-.77-.27-.83-.46-.06-.39.46-.51.73-.26.6-.43,1.25-1.02,1.8-.16-.29-.31-.51-.42-.75-.22-.49-.33-.51-.75-.15-.4.34-.82.66-1.31,1.06-.06-.26-.09-.35-.1-.45-.07-.49-.2-.55-.65-.31-.52.29-.67.22-.7-.39-.02-.45.04-.91.03-1.36,0-.16-.14-.31-.22-.46-.13.11-.33.19-.39.33-.35.88-.35.89-.95,1.24Z"/>
    <path class="cls-1" d="m71.99,72.71c-.32-.39-.58-.74-.87-1.06-.14-.15-.32-.26-.49-.39-.08.19-.19.37-.23.57-.07.33-.11.67-.15.98-.36-.15-.65-.26-.94-.38-.08.31-.16.62-.23.93-.06.25-.14.43-.46.3-.73-.29-.73-.28-.98.59-.41-.32-.83-.56-1.15-.89-.46-.49-.79-.54-.96.18-.05.19-.21.34-.39.64-.24-.37-.45-.64-.6-.94-.19-.39-.3-.82-.49-1.21-.08-.18-.27-.31-.41-.46-.09.18-.22.36-.25.55-.06.41-.05.83-.11,1.25-.02.18-.12.35-.22.63-.28-.23-.52-.39-.71-.6-.49-.51-.57-.5-.86.17-.04.09-.11.17-.25.4-.31-.49-.55-.91-.83-1.31-.12-.16-.3-.28-.46-.42-.09.17-.21.33-.26.51-.09.31-.14.63-.21.94-.65-.08-.51-1.12-1.38-.87-.04-.4-.06-.78-.13-1.15-.03-.15-.15-.28-.22-.42-.14.08-.31.13-.41.25-.32.37-.61.77-1,1.28-.14-.37-.22-.56-.27-.75-.1-.38-.29-.45-.6-.23-.01.01-.03.03-.04.03-.28.15-.56.3-.85.44-.09-.34-.2-.68-.25-1.03-.03-.24.06-.49.04-.73-.02-.22-.11-.43-.17-.64-.18.11-.37.2-.52.34-.32.3-.59.64-.92.93-.27.24-.55.31-.76-.11-.16-.32-.37-.21-.6-.06-.45.27-.91.52-1.39.8q-.25-.98-1.15-.74c-.11.03-.23.04-.46-.04.36-.49.74-.97,1.07-1.47.12-.17.14-.41.2-.62-.22.03-.46,0-.64.09-.69.35-1.37.59-2.14.14.64-.66,1.3-1.26,1.88-1.92,2.45-2.82,4.41-5.98,6.35-9.16.1-.16.19-.34.33-.46.08-.07.29-.13.35-.08.66.52,1.17.16,1.69-.25.08-.06.16-.13.24-.2.48,1.85.64,1.96,1.9,1.37.68.83.91.82,1.82,0,.19.25.33.61.58.73.25.12.61,0,1.02-.02.89.83,1.19.82,2.29-.18.92.52,1.11.45,1.6-.55.96.84,1.2.84,1.85.02,1.31.57,1.5.44,1.9-1.37.23.17.44.35.67.49.38.23.77.29,1.18.03.12-.07.36-.01.51.07.12.07.18.25.26.39,1.77,2.91,3.56,5.81,5.74,8.44.76.92,1.61,1.77,2.45,2.68-.46.3-.98.28-1.51.09-.23-.08-.43-.23-.66-.31-.17-.06-.37-.04-.56-.05.05.2.04.43.15.58.35.51.74,1,1.11,1.5-.03.05-.06.1-.09.14-.25-.07-.5-.13-.75-.21-.55-.18-.63-.13-.66.45,0,.08-.03.17-.08.41-.49-.26-.93-.47-1.34-.74-.33-.21-.55-.33-.8.11-.06.1-.47.13-.6.03-.38-.3-.68-.69-1.04-1.02-.13-.12-.33-.18-.5-.26-.05.17-.14.34-.15.51-.02.52,0,1.04-.02,1.56-.02.3-.21.43-.51.26-.31-.17-.62-.35-.92-.52-.16.29-.32.59-.54,1.01Z"/>
    <path class="cls-1" d="m67.17,45.72c1.14,1.07,1.47,1.16,2.18.69.61.21,1.17.38,1.71.6.14.06.24.23.34.37,1.33,1.82,2.63,3.65,4,5.44.58.75,1.31,1.39,1.98,2.1-.59.38-1.19.27-1.78.01-.16-.07-.3-.2-.46-.24-.16-.04-.34-.02-.51-.02.03.17,0,.37.09.5.25.38.56.71.83,1.08.12.17.2.36.36.65-.33-.08-.56-.11-.78-.18-.64-.21-.68-.19-.73.46,0,.08-.04.16-.1.38-.48-.27-.92-.48-1.33-.75-.3-.2-.54-.33-.75.1-.15.32-.42.24-.61.07-.36-.32-.68-.69-1.04-1.02-.14-.13-.33-.2-.49-.29-.06.18-.17.36-.18.54-.03.5.01,1.01-.02,1.51-.02.32-.2.48-.54.28-.29-.18-.58-.35-.87-.52-.16.29-.32.58-.48.87,0,.01-.03.02-.13.11-.3-.37-.58-.76-.89-1.12-.11-.13-.29-.2-.43-.3-.08.15-.19.3-.23.47-.07.37-.1.74-.16,1.24-.27-.23-.44-.36-.58-.5-.26-.27-.46-.27-.67.06-.12.19-.25.38-.42.53-.42.36-.69.3-.97-.17q-.38-.66-.98-.18c-.07.05-.14.09-.33.21-.06-.46-.09-.84-.16-1.22-.03-.15-.14-.28-.22-.42-.14.08-.31.13-.41.25-.32.38-.61.77-1.01,1.29-.13-.39-.21-.59-.27-.8-.1-.34-.29-.41-.58-.2-.03.02-.05.05-.08.07-.27.14-.54.28-.81.43-.09-.31-.23-.61-.26-.92-.03-.34.05-.7.05-1.04,0-.15-.11-.29-.17-.44-.15.06-.32.09-.43.2-.36.35-.68.74-1.06,1.08-.25.23-.52.28-.71-.12-.17-.35-.4-.21-.65-.06-.43.26-.88.51-1.34.77q-.3-.92-1.2-.71c-.07.02-.14.03-.21.03-.05,0-.1-.02-.25-.06.4-.54.79-1.03,1.14-1.54.11-.16.11-.39.17-.58-.2.02-.43-.02-.6.07-.7.37-1.4.62-2.22.17.36-.35.71-.66,1.04-.99,1.81-1.86,3.3-3.97,4.72-6.13.27-.42.49-.83,1.11-.89.37-.03.72-.32,1.14-.53.77.7,1.4.12,2.03-.4.42,1.81.65,1.97,1.9,1.36.64.84.89.84,1.86-.02.05.12.09.22.14.33.26.58.7.71,1.22.35.48-.33.77-.79.88-1.37.05-.29.13-.57.2-.9Z"/>
    <path class="cls-1" d="m54.23,43.84c3.8-3.89,5.81-8.78,7.89-13.61.73-1.7,1.36-3.43,2.07-5.23.1.25.18.44.25.64,1.42,3.83,2.97,7.61,4.85,11.23,1.6,3.09,2.33,4.13,4.85,6.94-.49.35-1.02.31-1.54.13-.26-.09-.49-.27-.75-.36-.15-.05-.34.02-.51.03.03.16.02.34.1.46.39.54.8,1.07,1.2,1.6-.04.05-.08.09-.12.14-.24-.07-.49-.13-.73-.2-.56-.19-.62-.14-.65.45,0,.08-.03.17-.08.41-.47-.25-.9-.44-1.29-.7-.35-.23-.61-.41-.87.11-.04.08-.41.12-.52.04-.38-.3-.7-.68-1.05-1.01-.14-.13-.32-.22-.48-.33-.1.19-.23.36-.28.56-.12.51-.14,1.04-.3,1.54-.11.33-.38.61-.59.92-.08-.02-.15-.04-.23-.05-.04-.36-.07-.73-.14-1.09-.03-.17-.14-.33-.21-.49-.16.1-.35.18-.47.31-.3.35-.58.72-.95,1.2-.14-.36-.23-.55-.28-.76-.1-.38-.28-.43-.61-.21-.28.18-.59.31-.89.47-.08-.36-.19-.72-.23-1.09-.03-.29.05-.59.04-.89,0-.14-.09-.38-.16-.38-.14-.01-.33.06-.44.16-.35.34-.65.73-1.01,1.05-.27.25-.57.36-.78-.11-.13-.28-.35-.22-.57-.08-.27.19-.55.38-.84.53-.19.1-.41.14-.62.21q-.22-.89-1.09-.66c-.13.03-.26.05-.39.08-.04-.04-.07-.07-.11-.11.33-.46.66-.9.98-1.37.15-.22.57-.41.26-.72-.1-.1-.5.03-.72.13-.67.32-1.33.5-2.02.11Z"/>
    <path class="cls-1" d="m97.34,79.02c.57.99.69,2.04.72,3.07.04,1.31-.03,2.62-.07,3.92-.02.71-.03.71.66.7,1.89-.03,3.77-.07,5.64.31.42.09.82.24,1.33.4-3.83,3.7-7.96,6.8-12.52,9.41-.16-.26-.31-.49-.45-.72-.8-1.31-1.61-2.61-2.4-3.93-.19-.33-.43-.49-.8-.58-2.25-.56-4.5-1.15-6.74-1.72-.15-.04-.3-.08-.55-.16,5.86-2.51,10.67-6.36,15.19-10.7Z"/>
    <path class="cls-1" d="m44.67,89.73c-2.3.59-4.45,1.2-6.63,1.68-.99.21-1.62.65-2.09,1.54-.7,1.3-1.53,2.54-2.33,3.85-4.52-2.59-8.63-5.68-12.4-9.31.86-.46,1.76-.59,2.66-.64,1.41-.08,2.82-.09,4.24-.11.72,0,.73.01.67-.73-.14-1.81-.21-3.63.12-5.43.09-.51.29-.99.47-1.6,4.59,4.38,9.39,8.24,15.29,10.76Z"/>
    <path class="cls-1" d="m64.44,88.24c.76.77,1.09.74,1.64-.17.91,1.01,1.16,1.06,1.79.39.33.16.64.42.97.43.28.02.58-.24.86-.37v8.34h-11.04c-.01-.17-.03-.32-.03-.47,0-2.53,0-5.06,0-7.59,0-.28.11-.55.16-.76.33.32.58.76.92.84.33.08.75-.22,1.19-.36.65.63.92.58,1.68-.36.3.21.58.57.88.59.3.02.62-.3.98-.49Z"/>
    <path class="cls-1" d="m89.04,92.25c-1.21.63-2.42,1.29-3.65,1.89-.93.46-.95.43-1.49-.45-.69-1.11-1.37-2.23-2.12-3.45,2.48.63,4.84,1.24,7.21,1.84.02.06.03.11.05.17Z"/>
    <path class="cls-1" d="m45.01,90.23c-.91,1.48-1.76,2.86-2.68,4.36-1.53-.79-3.04-1.58-4.56-2.37.01-.05.02-.1.03-.15,2.37-.61,4.73-1.21,7.21-1.85Z"/>
  </g>
  <path class="cls-1" d="m67.8,26.19c-2.39-1.73-4.64-2.26-7.02.11.87-2.87.65-5.17-2.29-6.73,3.1.02,5.11-1.05,5.67-4.27.89,2.9,2.56,4.43,5.72,4.18-2.46,1.76-3.31,3.85-2.08,6.71Z"/>
</svg>