<?xml version="1.0" encoding="UTF-8"?>
<svg id="Layer_2" data-name="Layer 2" xmlns="http://www.w3.org/2000/svg" viewBox="0 0 260.41 252.23">
  <defs>
    <style>
      .cls-1 {
        fill: #637481;
      }
    </style>
  </defs>
  <path class="cls-1" d="m36.2,93.86c-.07-28.53,19.53-50.73,45.33-54.45,33.98-4.9,63.19,23.32,59.52,57.42-1.56,14.53-8.48,26.01-19.53,35.27-2.04,1.71-4.08,2.28-6.85,1.7-16.78-3.55-33.58-3.97-50.31.4-2.77.72-4.98.26-7.25-1.55-13.49-10.75-20.51-24.66-20.92-38.79Zm89.6-2.93c-.15-20.61-16.56-37.56-37.02-36.98-24.22.68-36.98,19.46-37.05,36.83-.09,20.72,16.43,37.25,36.64,37.44,24.31.23,38.47-20.9,37.44-37.28Z"/>
  <path class="cls-1" d="m94.77,199.73c-18.46-.66-32.58-2.39-44.86-10.41-4.66-3.04-9.07-7.15-12.19-11.73-5.49-8.05-3.82-17.83,2.89-24.94,6.92-7.34,15.73-11.06,25.23-13.69,18.7-5.18,37.14-4.42,55.41,1.97,6.8,2.38,12.87,5.92,17.8,11.24,9.19,9.91,8.99,21.62-.52,31.16-6.11,6.12-13.27,10.54-21.77,12.34-8.6,1.83-17.29,3.2-21.98,4.05Zm-5.83-14.27c8.91.09,16.38-1.08,23.3-4.55,5.38-2.7,11.07-5.63,11.33-12.6.28-7.2-4.83-11.43-10.6-14.04-16.45-7.46-32.84-6.39-48.82,1.78-1.41.72-2.63,1.88-3.79,3-5.72,5.51-5.49,12.73.67,17.78,8.47,6.94,18.66,8.28,27.9,8.64Z"/>
  <path class="cls-1" d="m34.77,183.71c1.26.74,1.77.89,2.05,1.23,10.4,12.14,24.47,16.65,39.58,18.6,18.66,2.41,36.9.7,53.8-8.14,5.4-2.82,10.01-7.14,15.26-10.97-.67,1.85-1.22,3.89-2.11,5.76-3.93,8.23-10.9,13.18-18.99,16.57-15.18,6.36-31.02,7.86-47.28,5.72-8.98-1.18-17.55-3.58-25.49-7.99-7.25-4.02-13.43-9.07-15.99-17.41-.24-.8-.4-1.62-.83-3.36Z"/>
  <path class="cls-1" d="m202.35,153.3c-5.69,4.73-10.99,9.22-16.43,13.53-.72.57-2.38.59-3.28.17-6.43-2.96-12.81-6.01-19.1-9.24-1.11-.57-2.47-2.12-2.44-3.18.19-7.18.73-14.34,1.19-22.16,13.5,7.04,26.47,13.81,40.06,20.89Z"/>
  <path class="cls-1" d="m180.81,171.73c-12.27,10.77-18.24,25.11-26.38,37.97-1.29,2.04-2.49,2.25-4.56,1.24-5.84-2.86-5.83-3.02-3.32-8.74,3.49-7.95,6.94-15.94,9.93-24.09,1.53-4.15,2.31-8.64,2.89-13.05.43-3.23,1.76-3.47,4.17-2.25,5.52,2.81,11.01,5.68,17.27,8.91Z"/>
  <path class="cls-1" d="m196.35,145.04c8.04-8.6,15.39-16.46,23.23-24.85,2.18,4.17,4.16,7.44,5.63,10.93,1.68,3.98.58,7.49-3.28,9.49-5.27,2.73-10.64,5.58-16.32,7.05-2.72.7-6.24-1.68-9.25-2.61Z"/>
  <path class="cls-1" d="m173.61,132.87c-5.17-1.76-9.01-3.53-9.73-8.94-.66-4.91-1.77-9.76-2.54-14.66-.59-3.76,1-6.4,4.77-7.23,3.86-.84,7.79-1.34,12.7-2.15-1.78,11.26-3.45,21.81-5.21,32.98Z"/>
  <path class="cls-1" d="m199.37,104.81c-2.64,5.28-4.84,9.83-7.17,14.31-2.74,5.28-5.49,10.56-8.45,15.73-.57.99-2.1,1.43-3.19,2.13-.65-1.3-1.99-2.69-1.84-3.9,1.24-9.84,2.77-19.64,4.16-29.46.36-2.53,1.41-3.43,4.03-2.53,3.84,1.31,7.77,2.34,12.45,3.72Z"/>
  <path class="cls-1" d="m216.21,117.07c-1.75,1.85-3.16,3.39-4.62,4.87-5.96,6-11.87,12.06-17.99,17.89-.97.92-3.24,1.5-4.37,1-2.3-.99-1.34-2.97-.43-4.74,4.44-8.6,8.91-17.2,13.17-25.89,1.26-2.56,2.28-2.77,4.39-.95,3.07,2.66,6.36,5.06,9.86,7.81Z"/>
  <path class="cls-1" d="m109.22,73.28c-1.19,1.57-1.62,2.32-2.21,2.91-10.5,10.57-20.97,21.17-31.62,31.59-1.27,1.24-4.65,2.5-5.14,1.97-2.2-2.35.67-3.51,2.02-4.86,9.92-9.93,19.88-19.81,29.83-29.7.97-.96,1.85-2.25,3.03-2.67.96-.34,2.3.38,4.09.76Z"/>
  <path class="cls-1" d="m87.04,112.62c-.53-1.3-1.32-2.27-1.11-2.9.46-1.36,1.22-2.76,2.23-3.78,5.25-5.31,10.62-10.5,15.95-15.73.09-.09.17-.21.28-.25,1.5-.49,3.01-.97,4.52-1.45-.52,1.49-.62,3.37-1.61,4.42-5.38,5.7-10.96,11.22-16.52,16.75-.94.93-2.08,1.66-3.73,2.95Z"/>
  <path class="cls-1" d="m67.22,93.17c2.58-2.9,4.76-5.53,7.14-7.96,4.17-4.25,8.37-8.47,12.77-12.47,1.04-.95,2.91-.97,4.4-1.42-.46,1.33-.57,2.99-1.45,3.93-5.36,5.68-10.91,11.17-16.35,16.78-1.7,1.75-3.45,2.6-6.51,1.14Z"/>
</svg>