<?xml version="1.0" encoding="UTF-8"?>
<svg id="Layer_1" data-name="Layer 1" xmlns="http://www.w3.org/2000/svg" viewBox="0 0 126.83 126.83">
  <defs>
    <style>
      .cls-1 {
        fill: #637481;
      }
    </style>
  </defs>
  <path class="cls-1" d="m56.93,98.64c0,.69.01,1.28,0,1.87-.03,1.02-.63,1.7-1.48,1.67-.83-.02-1.37-.66-1.39-1.66-.01-.59,0-1.18,0-1.83h-24.58c0,.71.04,1.4-.01,2.07-.07.92-.62,1.43-1.42,1.41-.77-.02-1.33-.6-1.41-1.47-.03-.33,0-.66-.01-.99,0-.32,0-.65,0-1.08-.69,0-1.31.02-1.93,0-.95-.04-1.48-.57-1.53-1.52-.01-.24,0-.48,0-.72,0-23.18,0-46.35,0-69.53,0-1.83.38-2.21,2.21-2.21,10.96,0,21.92,0,32.88,0,1.73,0,2.12.39,2.12,2.1,0,23.27,0,46.53,0,69.8,0,1.67-.41,2.08-2.05,2.08-.42,0-.84,0-1.4,0Zm.52-2.92v-41.91h-31.36v41.91h31.36Zm0-44.88v-23.24h-31.34v23.24h31.34Z"/>
  <path class="cls-1" d="m97.82,98.64c0,.69.02,1.31,0,1.93-.04,1-.61,1.6-1.46,1.57-.81-.02-1.35-.6-1.39-1.56-.03-.62,0-1.24,0-1.9h-21.3c0,.62.01,1.24,0,1.85-.03.98-.6,1.6-1.45,1.6-.85,0-1.4-.62-1.42-1.61-.01-.59,0-1.18,0-1.89-1.38,0-2.68,0-3.99,0-1.35,0-1.87-.49-1.87-1.83,0-14.04,0-28.08,0-42.12,0-1.33.52-1.83,1.88-1.83,11.67,0,23.35,0,35.02,0,1.34,0,1.84.52,1.84,1.86,0,14.01,0,28.02,0,42.03,0,1.4-.48,1.88-1.89,1.89-1.28,0-2.57,0-3.96,0Zm2.93-31.58h-32.88v28.66h32.88v-28.66Zm0-11.26h-32.87v8.26h32.87v-8.26Z"/>
  <path class="cls-1" d="m83.9,49.78c-5.87,0-11.74,0-17.61,0-1.6,0-2-.41-2-2.02,0-7.04,0-14.07,0-21.11,0-1.55.43-1.99,1.96-1.99,11.8,0,23.6,0,35.4,0,1.58,0,2.02.45,2.02,2.04,0,7.04,0,14.07,0,21.11,0,1.53-.44,1.97-1.98,1.97-5.93,0-11.86,0-17.79,0Zm-6.82-2.94h23.65v-19.23h-23.65v19.23Zm-9.88.01h6.92v-19.25h-6.92v19.25Z"/>
  <path class="cls-1" d="m33.17,71.29c0,1.86.02,3.71,0,5.57-.02,1.18-.88,1.91-1.84,1.6-.63-.2-1.01-.65-1.01-1.33,0-3.86-.02-7.72,0-11.59,0-.88.6-1.42,1.41-1.42.83,0,1.41.56,1.43,1.51.04,1.89.01,3.77.01,5.66h0Z"/>
  <path class="cls-1" d="m33.17,39.22c0,1.04.02,2.09,0,3.13-.02,1.09-.54,1.69-1.42,1.7-.9.01-1.43-.58-1.44-1.66-.01-2.12-.01-4.24,0-6.36,0-1.05.59-1.7,1.45-1.68.82.02,1.39.65,1.42,1.64.03,1.07,0,2.15,0,3.22Z"/>
  <path class="cls-1" d="m84.3,70.19c6.11,0,11.13,4.95,11.17,11.01.04,6.4-4.85,11.32-11.21,11.28-6.35-.04-11.14-4.89-11.13-11.28,0-6.02,5.08-11.01,11.18-11.01Zm0,2.88c-4.67,0-8.2,3.54-8.23,8.25-.03,4.7,3.57,8.34,8.25,8.33,4.7,0,8.24-3.6,8.22-8.35-.02-4.7-3.56-8.24-8.24-8.23Z"/>
  <path class="cls-1" d="m94.51,58.5c.92,0,1.85-.02,2.77,0,.97.03,1.53.55,1.55,1.37.03.86-.55,1.46-1.54,1.48-1.88.03-3.76.03-5.64,0-.95-.02-1.5-.59-1.51-1.42,0-.84.55-1.39,1.5-1.42.95-.03,1.91,0,2.86,0Z"/>
  <path class="cls-1" d="m83.18,58.22c.93.03,1.66.82,1.63,1.77-.03.94-.83,1.69-1.76,1.64-.88-.05-1.61-.83-1.6-1.72.01-.92.82-1.71,1.73-1.69Z"/>
  <path class="cls-1" d="m74.55,59.94c-.01.93-.81,1.71-1.73,1.68-.92-.02-1.69-.85-1.65-1.76.04-.89.81-1.64,1.68-1.64.91,0,1.7.8,1.69,1.72Z"/>
  <path class="cls-1" d="m78.03,58.22c.93.02,1.68.83,1.64,1.78-.04.91-.8,1.64-1.7,1.63-.93-.02-1.67-.81-1.63-1.77.03-.91.79-1.65,1.69-1.63Z"/>
  <path class="cls-1" d="m88.87,43.38c-2.07,0-4.13,0-6.2,0-1.35,0-1.82-.5-1.82-1.86,0-2.87,0-5.75,0-8.62,0-1.3.5-1.81,1.77-1.81,4.19,0,8.38,0,12.57,0,1.27,0,1.78.52,1.79,1.82,0,2.9.01,5.81,0,8.71,0,1.24-.51,1.76-1.74,1.77-2.13.02-4.25,0-6.38,0Zm-5.11-2.94h10.31v-6.42h-10.31v6.42Z"/>
  <path class="cls-1" d="m70.47,42.05c.9-.01,1.72.79,1.71,1.71,0,.88-.75,1.66-1.63,1.7-.92.04-1.72-.72-1.75-1.65-.02-.93.74-1.74,1.66-1.75Z"/>
  <path class="cls-1" d="m72.19,37.22c0,.91-.82,1.73-1.71,1.72-.9-.01-1.69-.83-1.66-1.75.02-.91.75-1.63,1.65-1.65.94-.01,1.72.75,1.72,1.68Z"/>
  <path class="cls-1" d="m72.19,30.72c-.01.94-.81,1.7-1.75,1.66-.91-.03-1.63-.79-1.62-1.7.01-.93.84-1.73,1.75-1.68.88.04,1.64.84,1.63,1.72Z"/>
  <path class="cls-1" d="m83.75,40.44v-6.42h10.31v6.42h-10.31Z"/>
</svg>