<?xml version="1.0" encoding="UTF-8"?>
<svg id="Layer_1" data-name="Layer 1" xmlns="http://www.w3.org/2000/svg" viewBox="0 0 127 127">
  <defs>
    <style>
      .cls-1 {
        fill: #637481;
      }
    </style>
  </defs>
  <path class="cls-1" d="m54.06,38.19c.64.26,1.27.73,1.91.74,6.08.06,12.17.03,18.25.04.57,0,1.35-.16,1.66.14.5.49.7,1.29,1.03,1.96-2.36,1.13-.86,3.76-2.4,5.48,7.62,0,14.91.06,22.21-.04,1.84-.03,2.89.5,3.55,2.26.87,2.34,1.85,4.66,3.04,6.85,2.1,3.89,2.82,7.95,2.6,12.36-.25,4.96-1.15,6.34-6,7.39v31.66c1.03,0,1.99-.18,2.83.06.57.17.97.93,1.45,1.43-.47.43-.87,1.01-1.42,1.25-.48.21-1.13.06-1.7.06-27.06,0-54.12,0-81.18,0-.29,0-.57,0-.86,0-1.01-.02-2.16.1-2.19-1.37-.03-1.46,1.08-1.45,2.12-1.45,2.15,0,4.3,0,6.44,0,.56,0,1.11-.09,1.76-.14v-31.52c-.47-.1-.93-.21-1.41-.29-2.3-.36-4.04-1.7-4.25-3.93-.37-4.07-1.1-8.22.79-12.2,1.56-3.29,3.07-6.61,4.42-9.99.71-1.79,1.67-2.47,3.66-2.43,7.08.13,14.17.05,21.26.05h2.43c-3.99-8.4-3.75-17.34-5.26-25.96-.06-.35-.12-.7-.22-1.29-.75-.03-1.5-.08-2.26-.1-1.08-.03-2.36.11-2.31-1.48.05-1.6,1.37-1.32,2.42-1.35.14,0,.29,0,.43,0q4.26-.01,5.09,4.41c1.29,0,2.64,0,3.98,0,6.16,0,12.31,0,18.47,0,2.47,0,2.85.49,2.57,2.96-.42,3.69-.85,7.39-1.19,11.09-.17,1.82-.89,2.63-2.85,2.59-5.44-.1-10.88-.04-16.32-.04-.77,0-1.54,0-2.31,0-.08.26-.15.53-.23.79Zm-19.16,68.7c0-8.36.05-16.44-.03-24.53-.02-1.96.64-2.68,2.6-2.65,6.3.08,12.6.07,18.9,0,1.92-.02,2.69.66,2.67,2.64-.07,7.16-.03,14.32-.03,21.48,0,.98,0,1.97,0,3.03h37.66c.06-.36.13-.57.13-.78,0-10.02.04-20.05-.03-30.07,0-.81-.68-1.62-1.08-2.5-3.16,1.99-5.97,2.21-8.9.62-.33-.18-.94-.15-1.28.03-2.6,1.4-5.16,1.38-7.76-.02-.34-.18-.94-.19-1.28,0-2.92,1.6-5.73,1.34-8.44-.37-3.07,1.94-6.08,1.88-9.05,0-3.06,1.9-6.07,1.89-9.08,0-3.01,1.9-6.02,1.9-9.03,0-3.07,1.93-6.15,1.86-9.66-.33-.37,1.1-.94,1.99-.94,2.88-.06,9.59-.04,19.19-.04,28.78,0,.55.07,1.11.11,1.77h4.55Zm67.1-46.83c-1.36-3.05-2.7-5.74-3.75-8.54-.61-1.62-1.48-2.06-3.16-2.05-17.46.07-34.92.04-52.37.04-3.79,0-7.58-.04-11.38.04-.66.01-1.68.33-1.91.81-1.52,3.11-2.87,6.31-4.37,9.7h76.94Zm-46.08,22.77h-17.92v24.03h17.92v-24.03Zm-3.67-58.91c.26,1.89.53,3.65.73,5.42q.59,5.16,5.79,5.16h13.98c.41-3.66.79-7.1,1.17-10.57h-21.67Zm8.16,39.22c0,2.34-.07,4.42.02,6.49.08,1.82,1.2,2.63,2.99,2.65,1.73.02,3.04-.59,3.16-2.45.14-2.18.03-4.38.03-6.69h-6.21Zm-2.86.02h-6.17c0,2.34-.1,4.55.03,6.74.11,1.75,1.37,2.36,3,2.38,1.74.02,3-.65,3.11-2.5.12-2.13.03-4.27.03-6.62Zm11.99-.01c0,2.39-.14,4.67.04,6.92.14,1.76,1.54,2.24,3.13,2.21,1.54-.03,2.78-.62,2.9-2.24.16-2.25.04-4.52.04-6.88h-6.12Zm-27.22-.04c0,2.42-.09,4.63.03,6.82.09,1.64,1.26,2.3,2.81,2.34,1.56.05,3.04-.3,3.19-2.1.19-2.31.05-4.65.05-7.06h-6.07Zm36.3.01c0,2.38-.09,4.59.03,6.79.09,1.78,1.36,2.36,2.98,2.37,1.61,0,2.94-.54,3.06-2.3.15-2.25.04-4.51.04-6.86h-6.11Zm-54.4.01c0,2.39-.04,4.53.01,6.66.04,1.67,1.12,2.38,2.65,2.47,1.51.09,3.11-.14,3.29-1.94.23-2.36.06-4.77.06-7.19h-6.01Zm9.05.02c0,2.32-.08,4.52.03,6.71.09,1.77,1.32,2.4,2.94,2.41,1.57.01,2.96-.41,3.07-2.23.13-2.25.03-4.52.03-6.89h-6.07Zm60.53,0h-6.11c0,2.27-.03,4.39,0,6.52.04,1.92,1.26,2.57,2.97,2.59,1.82.02,3.07-.68,3.12-2.69.04-2.06,0-4.13,0-6.42Zm2.99-.01c0,2.39-.09,4.66.03,6.91.09,1.71,1.37,2.18,2.87,2.21,1.58.03,2.97-.43,3.1-2.22.16-2.25.04-4.52.04-6.91h-6.03Zm-29.59-16.68c-.25-1.51-.49-2.95-.74-4.48h-4.25c-.3,1.56-.58,3.02-.86,4.48h5.86Zm-7.58-3.05c-1.02-.69-1.65-1.45-2.18-1.38-.53.07-1.32.96-1.32,1.49,0,.48.89,1.3,1.43,1.34.53.04,1.11-.73,2.07-1.45Zm11.47,2.19c.72-1.02,1.5-1.65,1.43-2.15-.08-.56-.94-1.02-1.46-1.52-.49.52-1.32,1-1.39,1.57-.06.51.71,1.12,1.42,2.1Z"/>
  <path class="cls-1" d="m108.08,110.62c-1-.99-2.04-1.54-2.11-2.2-.16-1.36,1.07-1.4,2.11-1.4,1.03,0,2.27,0,2.07,1.41-.1.67-1.1,1.21-2.06,2.19Z"/>
  <path class="cls-1" d="m77.06,99.37c-4.22,0-8.43-.03-12.65.02-1.73.02-2.44-.68-2.41-2.43.06-4.93.07-9.86,0-14.79-.02-1.75.66-2.45,2.4-2.44,8.5.04,17.01.03,25.52,0,1.64,0,2.28.65,2.26,2.31-.07,5-.07,10.01,0,15.01.03,1.83-.78,2.37-2.46,2.34-4.22-.05-8.43-.02-12.65-.02Zm-11.94-3.13h23.96v-13.43h-23.96v13.43Z"/>
  <path class="cls-1" d="m90.54,53.95c-1.35,0-2.73.15-4.05-.06-.63-.1-1.15-.88-1.72-1.35.58-.48,1.14-1.33,1.74-1.36,2.84-.14,5.7-.15,8.54.01.58.03,1.11.96,1.66,1.47-.56.43-1.08,1.15-1.68,1.23-1.47.18-2.98.06-4.48.06Z"/>
  <path class="cls-1" d="m80.96,54.75c-1.01-.98-2.01-1.5-2.13-2.17-.25-1.41.99-1.46,2.03-1.47,1.03,0,2.27.01,2.14,1.38-.07.66-1.06,1.23-2.03,2.25Z"/>
  <path class="cls-1" d="m52.95,93.95c0,.07.14.75-.13,1.17-.33.51-.99,1.05-1.55,1.09-.39.03-1.1-.69-1.22-1.18-.21-.88-.27-1.89-.02-2.74.21-.71.95-1.27,1.46-1.89.48.59,1.04,1.14,1.42,1.79.18.32.03.83.03,1.76Z"/>
  <path class="cls-1" d="m65.02,29.48c-.28,1.11.78,3.34-1.6,3.25-2.1-.08-1.24-2.15-1.39-3.43-.08-.7-.21-1.5.04-2.11.27-.66.95-1.15,1.45-1.72.5.57,1.18,1.06,1.45,1.72.25.61.05,1.4.05,2.3Z"/>
  <path class="cls-1" d="m58.99,29.03c0,.78.2,1.64-.06,2.32-.23.59-.98.99-1.5,1.47-.47-.52-1.27-1-1.35-1.57-.2-1.39-.2-2.86,0-4.25.08-.57.89-1.43,1.36-1.43.52,0,1.24.76,1.5,1.35.26.6.06,1.4.05,2.11Z"/>
  <path class="cls-1" d="m68.08,29.03c0-.78-.19-1.63.06-2.32.19-.52.96-1.16,1.46-1.15.48.01,1.3.75,1.35,1.23.18,1.55.18,3.14,0,4.68-.06.5-.87,1.25-1.35,1.26-.5.01-1.29-.64-1.46-1.16-.25-.77-.06-1.68-.07-2.54Z"/>
</svg>