<?xml version="1.0" encoding="UTF-8"?>
<svg id="Layer_1" data-name="Layer 1" xmlns="http://www.w3.org/2000/svg" viewBox="0 0 126.83 126.83">
  <defs>
    <style>
      .cls-1 {
        fill: #637481;
      }
    </style>
  </defs>
  <path class="cls-1" d="m118.19,54.89c-21.83-3.79-43.65-7.58-66.49-11.55,1.94-1.9,3.19-3.48,4.77-4.6,6.36-4.53,13.62-6.55,21.3-7.3,3.17-.31,6.35-.53,9.49-1.01,3.49-.54,5.19,2.69,8.17,3.56,8.1,2.35,14.94,7.11,20.12,13.91,1.44,1.89,2.33,4.18,3.48,6.29-.28.24-.55.47-.83.71Z"/>
  <path class="cls-1" d="m7.81,96.47v-4.49h69.01c2.25-12.93,4.46-25.62,6.67-38.37-2.85-.76-5.51-1.32-8.03-2.25-.56-.21-.63-1.75-1.09-3.21,7.29,1.24,14.21,2.43,21.35,3.64-.72,2.33-1.64,3.75-4.37,2.9-1.66-.52-3.47-.59-5.58-.91-2.21,12.65-4.39,25.15-6.64,38.07h39.76v4.62H7.81Z"/>
  <path class="cls-1" d="m23.34,78.3c1.7.11,3.44.23,5.69.37-.71,4.26-1.37,8.28-2.07,12.47h-9.84c-.7-4.05-1.39-8.08-2.13-12.42,2.18-.17,3.99-.31,5.76-.45.85-3.58-.02-6.13-3.19-8.12-1.89-1.19-3.52-3.06-4.74-4.95-.75-1.15-1.01-3.09-.61-4.41.75-2.44,1.82-4.94,3.39-6.91,1.16-1.45,3.49-3.12,5.02-2.89,3.42.52,6.86,1.8,9.92,3.47,2.35,1.28,2.46,7.28.79,9.43-.43.55-.4,1.46-.79,2.05-1,1.5-1.83,3.43-3.27,4.26-4.26,2.47-4.51,2.59-3.92,8.09Z"/>
  <path class="cls-1" d="m70.63,91.18h-5.93c-.09-2.08-.18-4.03-.28-6.18h-21.3v6.12h-6.1v-23.95h5.88v11.28h21.63v-11.32h6.08v24.04Z"/>
  <path class="cls-1" d="m62.74,77.01h-18.13v-14.61h18.13v14.61Z"/>
  <path class="cls-1" d="m96.93,52.04c7.07,1.23,14.02,2.43,21.1,3.66-.83,2.62-2.29,3.41-4.87,2.86-4.23-.91-8.5-1.69-12.79-2.23-2.58-.33-3.55-1.56-3.44-4.29Z"/>
  <path class="cls-1" d="m73.64,47.99c-.78,2.82-2.47,3.35-5.01,2.81-4.15-.88-8.35-1.52-12.54-2.23-3.1-.52-3.11-.51-3.45-4.24,7.05,1.23,14.01,2.44,21,3.65Z"/>
</svg>