<?xml version="1.0" encoding="UTF-8"?>
<svg id="Layer_1" data-name="Layer 1" xmlns="http://www.w3.org/2000/svg" viewBox="0 0 127 127">
  <defs>
    <style>
      .cls-1 {
        fill: #707070;
      }
    </style>
  </defs>
  <path class="cls-1" d="m70.63,67.25c-4.23-4.25-8.3-8.35-12.37-12.43,4.59-4.63,9.39-9.47,14.25-14.37-1.64-1.53-3.1-2.9-4.82-4.51-2.34,2.39-4.81,4.97-7.34,7.48-2.27,2.26-4.41,2.46-6.2.66-1.73-1.73-1.49-4.01.69-6.2,3.29-3.3,6.58-6.59,9.9-9.85,2.47-2.42,4.21-2.4,6.68.08,7.95,7.99,15.87,16,24.42,24.63,1.74-2,3.3-3.83,4.91-5.63.65-.73,1.34-1.44,2.11-2.05,1.64-1.31,3.96-1.18,5.34.22,1.43,1.46,1.61,3.74.11,5.32-3.27,3.43-6.61,6.78-10.05,10.03-1.68,1.59-3.86,1.33-5.65-.47-2.47-2.47-4.86-5.01-7.39-7.64-5.06,5.11-9.87,9.97-14.57,14.71Z"/>
  <path class="cls-1" d="m54.64,58.23c6.65,6.46,13.1,12.7,19.52,18.98,1.25,1.22,1.82,2.7,1.01,4.45-.83,1.78-2.29,2.41-4.16,2.41-9.56-.01-19.11.05-28.67-.05-1.88-.02-3.18.57-4.46,1.9-4.2,4.34-8.51,8.58-12.8,12.84-2.39,2.38-4.55,2.63-6.37.77-1.65-1.68-1.38-4.06.77-6.22,11.43-11.44,22.87-22.87,34.3-34.3.34-.34.71-.65.85-.78Zm7.2,17.82c-2.47-2.5-4.68-4.73-6.55-6.61-2.26,2.22-4.51,4.43-6.73,6.61h13.29Z"/>
  <path class="cls-1" d="m91.64,40.51c-3.84,0-6.79-2.95-6.79-6.8,0-3.8,3.04-6.86,6.81-6.86,3.7,0,6.88,3.18,6.86,6.88-.02,3.78-3.06,6.78-6.88,6.79Z"/>
</svg>