<?xml version="1.0" encoding="UTF-8"?>
<svg id="Layer_2" data-name="Layer 2" xmlns="http://www.w3.org/2000/svg" viewBox="0 0 260.41 252.23">
  <defs>
    <style>
      .cls-1 {
        fill: #637481;
      }
    </style>
  </defs>
  <path class="cls-1" d="m54.8,153.08c0-18.62.03-37.24-.06-55.86,0-1.68-.58-3.49-1.34-5.01-3.71-7.38-7.86-14.55-11.29-22.05-2.68-5.86-3.65-12.2-2.68-18.73.84-5.63,3.66-9.76,8.69-12.4,8.72-4.58,17.77-5.36,26.97-1.84,9.1,3.48,13.52,11.57,12.31,21.41-1.52,12.38-7.02,23.09-13.72,33.3-1.24,1.89-1.85,3.71-1.85,6,.06,36.77-.07,73.54.13,110.31.05,8.66-6.27,10.15-12.68,8.4-3.05-.83-4.46-3.55-4.46-7.37-.01-18.71,0-37.43-.01-56.14Zm5.85-46.67c-.06.64-.12,1.01-.12,1.37,0,33.64.01,67.28-.05,100.92,0,2.43,1.12,2.72,3.1,2.77,2.24.05,2.61-1.01,2.6-2.95-.04-33.17-.03-66.34-.03-99.52,0-.82-.09-1.64-.15-2.6h-5.35Zm5.48-17.45c0-1.98.35-3.84-.12-5.45-.33-1.13-1.69-2.47-2.78-2.69-.71-.14-2.31,1.45-2.58,2.5-.44,1.73-.12,3.65-.12,5.64h5.6Zm-.14,6.18h-5.29v5.26h5.29v-5.26Z"/>
  <path class="cls-1" d="m210.14,160.95c-.9-.67-1.33-1.01-1.78-1.32-6.1-4.15-7.32-9.9-2.75-15.68,2.28-2.89,5.39-5.17,8.29-7.52,2.04-1.66,2.21-2.14.03-3.69-4.83-3.42-9.81-6.65-14.53-10.22-2.67-2.02-5.15-4.39-7.36-6.91-2.69-3.08-3.97-6.66-4.16-11.01-1.17-26.59-14.21-46.33-35.91-60.88-.22-.15-.5-.22-1.11-.48,0,.76-.05,1.35,0,1.93,3.15,32.38-3.99,62.51-19.54,90.91-6.05,11.04-11.45,22.44-14.62,34.73-3.75,14.56-3.04,28.51,5.78,41.33,1.09,1.58,1.41,3.26-.36,4.45-1.85,1.25-3.33.36-4.5-1.35-8.95-13.12-10.44-27.49-7.17-42.65,2.92-13.55,8.78-25.97,15.2-38.1,8.36-15.79,15.12-32.1,18.13-49.83,2.51-14.77,2.55-29.56.88-44.4-.17-1.5.13-3.98,1.02-4.44,1.24-.64,3.54-.31,4.87.47,22.84,13.41,37.92,32.43,42.27,59.1.13.82.31,1.64.82,2.49.18-1.06.37-2.11.52-3.17.25-1.77,1.25-2.77,3.02-2.65,1.95.13,2.9,1.46,2.64,3.29-.4,2.76-1.08,5.49-1.8,9.04.83-1.07,1.2-2.01,1.8-2.2,1.2-.37,3.14-.87,3.65-.3.75.82,1.16,3.13.57,3.78-2.15,2.38-4.77,4.34-7.52,6.73,1.59,1.46,3.44,3.46,5.59,5.04,4.85,3.56,9.86,6.89,14.79,10.34,6.05,4.23,5.82,9.57-.19,13.71-2.72,1.87-5.07,4.42-7.16,7-1.67,2.07-.88,4.25,1.24,5.86,5.86,4.47,6.18,6.98,1.62,12.51,3.96,6.05,3.45,9.37-2.42,14.11-1.67,1.35-.74,2.44-.15,3.66,1.88,3.88,3.1,7.88,2.16,12.25-1.46,6.76-8.9,13.13-16.77,13.28-7.95.15-15.95-.3-23.86-1.15-8.1-.87-15.05.99-21.09,6.4-.62.56-1.31,1.44-1.97,1.46-1.09.02-2.96-.34-3.12-.92-.33-1.2-.24-3.09.52-3.94,4.37-4.85,10-7.87,16.42-8.45,4.87-.45,9.86.39,14.8.57,5.72.21,11.45.55,17.17.42,3.98-.09,7.45-1.99,10.19-4.87,3.17-3.33,2.65-7.19,1.07-11.06-.6-1.47-1.42-2.88-1.82-4.41-.97-3.73-.11-5.7,3.12-7.87,3.43-2.3,3.24-4.35-.33-6.53-1.2-.73-2.81-2.22-2.74-3.25.08-1.11,1.86-2.17,3-3.13,1.02-.85,2.17-1.54,3.54-2.49Z"/>
  <path class="cls-1" d="m87.5,130.16c0-9.25.02-18.27-.04-27.28,0-.7-.46-1.65-1.02-2.06-5.01-3.74-5.44-8.83-3.88-14.19,1.36-4.67,3.24-9.21,5.1-13.72.39-.94,1.62-1.94,2.6-2.1.82-.14,2.28.67,2.69,1.46,3.19,6.21,5.88,12.61,5.94,19.77.03,3.7-1.08,6.81-4.49,8.82-.57.34-1.09,1.3-1.1,1.98-.07,9.01-.05,18.03-.05,26.94.28.22.41.42.56.44,6.03.61,6.58,1.23,6.59,7.29,0,2.82-.6,5.74,2.17,7.93.66.52.64,2.11.64,3.21.03,19.74.05,39.48,0,59.22-.01,5.84-3.49,9.19-9.35,9.24-2.35.02-4.7.02-7.05,0-5.85-.05-9.3-3.44-9.32-9.28-.03-15.13-.01-30.27-.01-45.4,0-4.61-.06-9.21.05-13.82.03-1.25.17-3.05.97-3.64,2.06-1.53,1.86-3.46,1.84-5.5-.01-1.03,0-2.07,0-3.1.01-4.63,1.15-5.83,5.74-6.04.36-.02.73-.09,1.41-.18Zm-4.09,25.66h13.82v-5.25h-13.82v5.25Zm11.01-12.81v-6.65h-8.17v6.65h8.17Z"/>
  <path class="cls-1" d="m128.78,182.11c.08-8.86,3.31-18.63,7.66-28.06,2.83-6.13,6.09-12.06,9.1-18.11.99-1.99,2.3-3.5,4.58-2.24,2.17,1.2,1.43,3.07.56,4.91-4.4,9.32-9.23,18.48-12.95,28.07-4.11,10.59-4.98,21.59.06,32.33.99,2.11,2.29,4.08,3.53,6.07,1.03,1.65,1.28,3.22-.47,4.43-1.77,1.22-3.18.41-4.3-1.17-5.24-7.34-7.83-15.52-7.78-26.24Z"/>
  <path class="cls-1" d="m108.59,65.82c2.65-4.92.66-8.25-2.95-11.39-2.11-1.83-1.09-4.36,1.66-5.01.09-.02.19-.04.28-.03,4.41.17,7.03-1.91,8.37-6.13.32-1.02,1.94-2.18,3.02-2.25.9-.06,2,1.3,2.82,2.2.54.6.83,1.48,1.07,2.28.72,2.37,2.26,3.34,4.73,3.58,1.9.19,4.41-.27,5.27,2.34.85,2.58-1.25,3.93-2.8,5.03-3.16,2.24-1.92,5.04-1.73,7.87.1,1.43-.06,3.57-.94,4.18-.91.63-3.22.31-4.24-.47-3.28-2.53-6.05-1.74-9.11.3-.92.61-2.59.77-3.61.37-.84-.34-1.22-1.82-1.85-2.86Zm12.81-5.74c.54-1.67,1.2-3.68,1.77-5.44-1.37-.99-2.99-2.15-4.23-3.05-1.57,1.04-3.24,2.15-4.44,2.95.64,2,1.26,3.93,1.77,5.54h5.13Z"/>
</svg>