<?xml version="1.0" encoding="UTF-8"?>
<svg id="Layer_2" data-name="Layer 2" xmlns="http://www.w3.org/2000/svg" viewBox="0 0 260.41 252.23">
  <defs>
    <style>
      .cls-1 {
        fill: #637481;
      }
    </style>
  </defs>
  <path class="cls-1" d="m110.55,196.95c-10.59,4.4-20.78,5.82-30.09-2.58,8.25-1,11.12-6.93,13.42-14.11-20.91,5.04-32.73-4.72-39.35-22.94.12-.21.24-.43.37-.64.97.56,1.93,1.14,2.91,1.67,5.16,2.82,10.38,2.8,15.61.23.77-.38,1.59-.82,2.12-1.45,1.01-1.2,1.82-2.56,2.71-3.85-1.25-.57-2.45-1.29-3.76-1.67-6.18-1.82-10.26-6-13.02-11.58-3.23-6.54-3.42-13.42-1.97-20.43.11-.55.54-1.04.83-1.56.52.37,1.15.64,1.54,1.12.67.8,1.14,1.76,1.77,2.6,3.34,4.49,7.85,6.42,13.38,6.01.78-.06,1.69-.25,2.26-.71,2.41-1.95,4.71-4.04,7.05-6.07-.1-.14-.2-.28-.3-.43-3.48-.29-6.96-.56-10.44-.9-.78-.08-1.61-.27-2.29-.64-3.88-2.09-7.14-4.94-9.36-8.75-3.41-5.84-1.34-13.64,5.1-18.58-.66,1.09-1.06,1.73-1.44,2.39-1.53,2.63-2.1,5.35-.21,8,1.88,2.63,4.61,3.4,7.71,2.88,4.2-.71,7.32-2.96,8.94-6.94,2.19-5.37,4.33-10.76,6.29-16.2,4.21-11.67,10.27-22.16,19.38-30.72,9.57-8.99,20.85-14.28,34-15.05,8.17-.48,15.89,1.48,23.15,5.41,2.05,1.11,4.46,1.65,6.77,2.15,1.67.36,3.45.34,5.17.29,12.78-.39,23.95,10.66,26.41,22.45,2.31,11.07-1.56,19.74-10.7,26.19-1.16.82-2.33,1.64-3.58,2.31-1.45.78-1.87,1.97-1.07,3.22,1.58,2.47,3.28,4.88,5.16,7.12,1.21,1.45,2.84,2.55,4.56,4.04-2.57,2.27-4.95,4.58-7.57,6.6-1.07.83-1.56,1.45-1.02,2.69.95,2.17,1.03,4.14-.57,6.21-.79,1.02-.69,2.69-1.15,4.02-.42,1.22-1.05,2.37-1.56,3.56-.6,1.4-1.28,2.78-1.71,4.23-.4,1.35-.59,2.78-.76,4.18-.38,3.09-2.27,4.65-5.15,5.26-5.09,1.07-10.07.25-15.03-.9-1.56-.36-3.14-.62-4.72-.91-1.14-.21-1.81.24-2.26,1.35-3.63,8.81-4.19,17.42.55,26.17,4.37,8.07,9.87,15.2,16.13,21.83.7.74,1.37,1.5,1.92,2.48-11.83-5.55-24.11-8.77-36.97-8.08-4.17-24.65-.34-47.25,15.54-66.93,5.89-7.3,12.12-14.34,18.14-21.54,3.85-4.59,7.84-9.16,10.05-14.81,4-10.19,3.73-20.14-2.6-29.49-.06-.09-.19-.12-.61-.38.48,2.18.78,4.15,1.36,6.03,3.27,10.62.4,19.96-6.39,28.15-5.71,6.89-11.98,13.31-17.99,19.95-9.41,10.42-16.88,22-21.42,35.39-3.15,9.29-3.68,18.87-3.33,28.53.23,6.41,1.01,12.8,1.28,19.22.13,3,0,6.1-.63,9.02-1.79,8.31-7.88,12.38-15.49,14.47-6.4,1.75-12.48.5-18.14-2.91-.16-.1-.31-.2-.44-.33-.08-.08-.1-.21-.25-.52,3.73-.18,6.49-2.05,8.73-4.82,2.27-2.8,3.46-5.94,3.04-9.97Zm4.33-32.17c.18-.03.35-.07.53-.1.04-.7.08-1.41.13-2.11.06-.74.11-1.48.22-2.21,1.63-11.14,4.32-22.03,8-32.65,6.24-17.98,15.61-34.08,29.42-47.35,3.77-3.63,8.01-6.77,12.01-10.16,1.04-.88,2.03-1.84,3.04-2.76-.11-.18-.21-.35-.32-.53-.75.12-1.53.17-2.26.37-5.91,1.65-11.17,4.59-15.97,8.35-12.37,9.71-20.69,22.39-26.79,36.68-5.16,12.1-7.77,24.81-8.79,37.86-.32,4.04-.16,8.13-.09,12.19.01.81.56,1.61.87,2.41Zm-19-28.87c.23.05.45.1.68.14,1.14-2.91,2.27-5.83,3.41-8.74,4.81-12.21,9.31-24.56,14.53-36.59,4.67-10.75,11.5-20.21,20.67-27.63,4.72-3.82,10.08-6.85,15.15-10.23,1.08-.72,2.15-1.43,3.23-2.15-.63-.41-1.04-.47-1.46-.44-5.34.36-10.23,2.22-14.85,4.77-13.78,7.58-22.93,19.25-29.17,33.4-4.98,11.3-7.61,23.29-9.98,35.35-.79,4.03-1.48,8.08-2.22,12.12Z"/>
</svg>