<?xml version="1.0" encoding="UTF-8"?>
<svg id="Layer_1" data-name="Layer 1" xmlns="http://www.w3.org/2000/svg" viewBox="0 0 127 127">
  <defs>
    <style>
      .cls-1 {
        fill: #637481;
      }
    </style>
  </defs>
  <path class="cls-1" d="m16.43,41.62c2.06-6.42,4.13-12.84,6.17-19.26,1.02-3.21,1.93-3.97,5.29-3.97,23.51-.01,47.02-.02,70.52,0,3.39,0,4.51.86,5.58,4.02,1.93,5.69,3.98,11.35,5.72,17.1.66,2.17.92,4.56.83,6.83-.23,5.36-4.9,8.82-10.53,7.93-3.04-.48-6.08-1.13-7.86-4.13-4.55,6.31-15.47,5.8-19.11.03-4.39,6.47-15.72,5.56-18.98,0-5.87,6.09-13.89,6.13-19.11-.02-2.53,3.55-6.18,4.48-10.24,4.25-4.48-.25-6.98-2.94-8.29-7,0-1.92,0-3.84,0-5.75Z"/>
  <path class="cls-1" d="m26.72,108.62c-3.75-1.42-4.52-2.57-4.52-6.74,0-13.63,0-27.26,0-40.88,0-.67,0-1.35,0-2.19,1.41.07,2.67.14,4.2.22,0,.92,0,1.71,0,2.51,0,13.42.04,26.85-.04,40.27-.01,1.93.47,2.59,2.5,2.58,23.09-.07,46.19-.06,69.28,0,1.94,0,2.59-.48,2.57-2.51-.09-13.42-.04-26.85-.04-40.27,0-.81,0-1.63,0-2.61,1.39-.08,2.66-.16,4.2-.25v2.24c0,13.63,0,27.26,0,40.88,0,4.16-.8,5.34-4.52,6.75H26.72Z"/>
  <path class="cls-1" d="m47.21,69.57c.06-.42.12-.62.12-.82q.15-4.15,4.26-4.19c4.66-.03,8.76,1.32,11.99,5.05,3.53-3.8,8-5.08,12.99-4.98,3.07.06,3.19.2,3.24,3.26,0,.53.07,1.06.11,1.57q4.05.6,4.05,4.78c0,7.05,0,14.1,0,21.15,0,2.51-.22,2.68-2.55,2.05-5.68-1.53-11.32-1.83-16.91.44-.56.23-1.37.22-1.93,0-5.52-2.28-11.1-1.92-16.72-.49-2.64.67-2.73.61-2.73-2.22,0-7.46,0-14.92,0-22.39q0-3.03,2.99-3.12c.33-.01.66-.06,1.1-.09Zm30.32,19.51v-22.22c-3.97-.2-7.58.37-10.74,2.76-1.55,1.18-2.33,2.6-2.26,4.71.16,5.61.05,11.22.06,16.84,0,.56.08,1.13.14,1.94,3.99-2.68,8.1-4.19,12.8-4.02Zm-15.06,3.85c0-6.32-.19-12.21.07-18.08.16-3.57-1.58-5.61-4.46-6.76-2.04-.81-4.36-.96-6.56-1.36-1.55-.28-1.96.48-1.96,1.98.02,6.16-.09,12.32-.14,18.48,0,.66.06,1.31.09,2.07,4.71-.18,8.86.97,12.95,3.66Zm-17.16-20.87v23.16c5.27-1.16,10.47-1.62,15.7-.3-3.31-2.65-7.14-3.68-11.26-3.49-2.06.1-2.64-.59-2.51-2.54.15-2.32.04-4.65.04-6.98,0-3.27,0-6.53,0-9.85h-1.97Zm34.49.03c0,.92,0,1.67,0,2.41,0,5-.03,10,.02,14.99.01,1.4-.41,2.06-1.89,1.9-.88-.09-1.78-.06-2.67-.02-2.88.11-7,1.8-8.59,3.53,5.04-1.37,10.02-.74,15.05.24v-23.05h-1.92Z"/>
</svg>