<?xml version="1.0" encoding="UTF-8"?>
<svg id="Layer_1" data-name="Layer 1" xmlns="http://www.w3.org/2000/svg" viewBox="0 0 127 127">
  <defs>
    <style>
      .cls-1 {
        fill: #707070;
      }
    </style>
  </defs>
  <path class="cls-1" d="m114.63,82.43c-1.68.72-3.35,1.44-5.26,2.25-.55-1.72-.83-2.77-1.22-3.78-2.05-5.27-7.96-8.95-13.83-8.67-5.93.29-11.28,4.47-12.95,9.95-.22.73-1.16,1.78-1.78,1.79-9.36.11-18.72.08-28.02.08-2.85-8.34-7.94-12.25-15.24-11.85-6.31.35-11.46,4.91-13.01,11.78-2.79,0-5.67.21-8.5-.12-.89-.1-2.24-1.59-2.3-2.52-.26-3.79-.11-7.61-.11-11.61h60.81c0-2.01,0-3.85,0-5.68,0-3.32-.05-6.64.02-9.97.05-2.73,1.53-4.45,4.17-4.52,4.94-.13,9.88-.15,14.82.03.96.03,2.15.97,2.78,1.83,2.53,3.42,4.79,7.04,7.37,10.42.9,1.18,2.3,2.24,3.69,2.75,5.06,1.89,5.61,2.51,5.62,7.96,0,.92,0,1.83,0,2.89,1.14.13,2.05.23,2.95.34v6.65Zm-24.88-15.63v.04c2.38,0,4.76.04,7.14-.01,2.49-.06,3-.94,1.67-2.92-2.04-3.03-4.09-6.06-6.28-8.98-.52-.69-1.61-1.27-2.48-1.34-2.45-.18-4.93-.08-7.39-.05-1.97.02-2.96,1.07-2.98,3.03-.01,2.38,0,4.76,0,7.14,0,2.12,1.11,3.09,3.18,3.08,2.38,0,4.76,0,7.14,0Z"/>
  <path class="cls-1" d="m68.68,65.02H12.53c-.05-.74-.14-1.47-.14-2.2-.01-7.66-.02-15.32,0-22.98.01-5.65,2.57-8.33,8.27-8.34,19.66-.04,39.32-.04,58.98.1,1.27,0,2.9.93,3.74,1.94,2.11,2.55,3.9,5.36,5.72,8.13.47.71.59,1.66.87,2.5-.92.29-1.82.81-2.75.84-3.49.1-6.98,0-10.47.04-4.85.06-7.95,3.13-8.07,7.97-.05,1.96-.01,3.91-.01,5.87,0,1.95,0,3.9,0,6.13Zm-31.62-9.62c3.74,0,7.49-.04,11.23.02,1.67.02,2.55-.53,2.51-2.34-.06-2.98-.05-5.96.01-8.94.03-1.61-.64-2.38-2.24-2.38-7.49,0-14.98,0-22.47,0-1.71,0-2.46.79-2.43,2.51.05,2.89.05,5.79-.01,8.68-.04,1.92.89,2.52,2.68,2.48,3.57-.07,7.15-.02,10.72-.02Zm46.71-13.74c-.55-3.96-3.59-6.81-7.05-6.81-1.53,0-3.06.07-4.58-.02-1.67-.1-2.33.66-2.26,2.25.04.93-.2,1.94.08,2.78.23.7,1.02,1.7,1.6,1.72,4.05.15,8.11.08,12.2.08Z"/>
  <path class="cls-1" d="m94.98,77.16c5.14,0,9.28,4.11,9.23,9.2-.04,5.07-4.28,9.23-9.34,9.15-5.02-.08-9.02-4.1-9.05-9.13-.04-5.17,3.98-9.22,9.15-9.23Zm3.93,9.04c-.05-2.28-1.85-3.93-4.15-3.82-2.16.11-3.74,1.83-3.69,4.03.05,2.18,1.72,3.82,3.9,3.83,2.29,0,4-1.74,3.94-4.04Z"/>
  <path class="cls-1" d="m37.32,95.29c-5.17,0-9.18-4.06-9.14-9.22.04-5.12,4.23-9.24,9.3-9.14,4.95.1,9.03,4.21,9.08,9.17.05,5.06-4.1,9.2-9.23,9.19Zm.04-5.18c2.12-.02,3.9-1.75,3.96-3.87.06-2.21-1.8-4.08-4.03-4.06-2.13.02-3.89,1.76-3.94,3.88-.05,2.24,1.76,4.07,4.01,4.05Z"/>
</svg>