<?xml version="1.0" encoding="UTF-8"?>
<svg id="Layer_1" data-name="Layer 1" xmlns="http://www.w3.org/2000/svg" viewBox="0 0 126.83 126.83">
  <defs>
    <style>
      .cls-1 {
        fill: #637481;
      }
    </style>
  </defs>
  <path class="cls-1" d="m83.64,101.21h3.13c1.47,6.09-1.11,8.46-6.03,8.43-20-.13-40-.05-60-.06-4.81,0-6.37-1.56-6.37-6.41,0-26.61,0-53.23,0-79.84,0-4.62,1.51-6.13,6.15-6.13,20.14,0,40.29,0,60.43,0,4.82,0,6.2,1.39,6.2,6.22,0,7.33,0,14.66,0,21.99,0,.78,0,1.55,0,2.49h-3.5v-5.56H18.23c-.03.71-.09,1.46-.09,2.22,0,19.5,0,39,0,58.49q0,2.74,2.87,2.74c19.72,0,39.43,0,59.15,0q3.28,0,3.37-3.35c0-.35.06-.69.11-1.23Zm-.12-62.91c0-1.68.04-3.16,0-4.64-.12-4.16-.28-8.31-.42-12.47-4.1-.12-8.19-.32-12.29-.33-16.57-.04-33.15-.02-49.72-.02-.57,0-1.2-.14-1.69.06-.49.2-1.18.75-1.19,1.16-.08,5.38-.05,10.76-.05,16.25h65.37Z"/>
  <path class="cls-1" d="m102.03,71.96c0,6.62.01,12.95,0,19.27,0,4.28.46,3.85-3.92,3.85-8.97.01-17.94-.07-26.91.05-2.23.03-2.77-.7-2.72-2.81.13-5.98.04-11.96.04-17.94v-2.67c-2.27,0-4.38-.05-6.48.02-1.21.04-1.78-.4-2.01-1.63-.49-2.65-1.09-5.29-1.72-7.91-.3-1.22.08-1.81,1.24-2.25,5.44-2.09,10.84-4.27,16.28-6.37.62-.24,1.4-.3,2.05-.18,5.03.92,10.04.96,15.06-.03.71-.14,1.56,0,2.25.26,5.28,2.11,10.51,4.34,15.8,6.42,1.46.58,1.74,1.34,1.31,2.76-.73,2.38-1.35,4.79-1.9,7.21-.32,1.41-.98,2.05-2.49,1.96-1.84-.11-3.69-.03-5.86-.03Zm-31.56,20.91h29.45c.04-.75.1-1.37.1-2,0-6.26.04-12.53-.02-18.79-.02-1.63.5-2.33,2.22-2.23,1.98.12,3.97.03,6.06.03.7-2.64,1.36-5.16,2.07-7.83-4.65-1.91-9.16-3.77-13.84-5.7-2.01,3.62-3.96,7.13-6.03,10.86-1.13-.87-2.15-1.51-3-2.33-1.43-1.38-2.7-1.2-4.08.05-.88.8-1.87,1.46-2.99,2.33-2.11-3.79-4.1-7.35-6.11-10.95-4.41,1.74-8.59,3.34-12.7,5.08-.51.22-1.03,1.29-.94,1.87,1.01,6.4,1.04,6.4,7.59,6.49.07,0,.14,0,.21,0,1.63-.22,2.08.58,2.04,2.1-.08,3.13-.02,6.26-.02,9.39,0,3.83,0,7.65,0,11.6Zm20.01-36.86h-10.03c1.78,1.67,3.51,3.29,5.27,4.93,1.12-1.11,2.47-2.44,3.81-3.79.29-.29.53-.63.95-1.14Z"/>
  <path class="cls-1" d="m63.89,51.31c-2.11,1.39-3.95,1.6-6.3.74-8.83-3.21-18.71.36-23.89,8.32-5.1,7.84-4.14,18.38,2.29,25.23,6.48,6.9,16.79,8.53,25.03,3.96.6-.33,1.2-.68,1.85-1.04.59,3.63.49,3.82-2.49,5.1-8.83,3.77-19.22,1.8-26.09-4.94-6.91-6.79-9.1-17.08-5.52-25.97,3.67-9.1,12.14-14.95,21.81-15.11,4.75-.08,9.13,1.09,13.32,3.71Z"/>
  <path class="cls-1" d="m53.42,67.52c.28,1.26.48,2.14.71,3.19-3.15,1.72-6.2,3.53-9.38,5.07-2.51,1.21-5.15.82-7.65-.25-1.57-.67-3.17-1.32-4.57-2.27-.62-.42-.76-1.54-1.11-2.35.85-.19,1.81-.72,2.53-.5,1.61.5,3.08,1.44,4.65,2.09,2.09.87,4.1.75,6.13-.4,2.76-1.57,5.61-2.98,8.69-4.6Z"/>
  <path class="cls-1" d="m36.64,29.89c-.03,2.93-2.34,5.27-5.26,5.31-2.94.04-5.44-2.46-5.41-5.41.03-3.01,2.46-5.32,5.51-5.25,2.95.07,5.19,2.4,5.17,5.35Z"/>
  <path class="cls-1" d="m58.86,32.69c-.8-1.35-1.64-2.15-1.58-2.86.06-.6,1.19-1.57,1.8-1.54.63.04,1.67,1.11,1.66,1.71-.01.72-.94,1.43-1.88,2.69Z"/>
  <path class="cls-1" d="m66.27,32.74c-.91-1.32-1.81-2.06-1.8-2.78,0-.61,1.05-1.65,1.66-1.68.6-.03,1.7.97,1.74,1.57.05.72-.79,1.51-1.61,2.88Z"/>
  <path class="cls-1" d="m73.48,32.67c-.91-1.21-1.86-1.93-1.78-2.51.11-.73,1.06-1.34,1.64-2,.61.57,1.67,1.11,1.71,1.72.05.72-.78,1.49-1.57,2.8Z"/>
</svg>