<?xml version="1.0" encoding="UTF-8"?>
<svg id="Layer_1" data-name="Layer 1" xmlns="http://www.w3.org/2000/svg" viewBox="0 0 127 127">
  <defs>
    <style>
      .cls-1 {
        fill: #707070;
      }
    </style>
  </defs>
  <path class="cls-1" d="m119.51,53.88c-.57,1.5-1.75,2.43-3.02,3.31-4.13,2.87-8.21,5.81-12.34,8.69-2.27,1.58-4.99.96-6.15-1.34-.94-1.87-.38-3.9,1.52-5.26,3.65-2.61,7.3-5.2,10.99-7.76.67-.47.95-.94.92-1.78-.08-1.97-.04-3.94-.06-5.91,0-.6,0-1.28-.8-1.3-.82-.02-.93.7-.81,1.26.6,2.81-.73,4.51-3.1,5.69-.86.43-1.65,1.1-2.56,1.32-1.5.36-2.09-.03-2.77-1.44-1.34-2.77-3.46-4.66-6.37-5.63-2.08-.69-4.22-.74-6.22-.28-.43-.36-.76-.65-1.09-.93-.28.35-.63.66-.83,1.05-.58,1.11-1.99,1.49-2.94.75-1.55-1.21-3.09-2.43-4.61-3.62,1.15-4.06,4.65-6.91,8.74-6.95,7.29-.06,14.59-.08,21.88,0,5.06.05,8.79,3.53,9.44,8.56.03.21.12.42.18.62v10.94Z"/>
  <path class="cls-1" d="m19.98,100.83c-1.68-1.68-3.32-3.32-4.97-4.97-.67-.67-1.34-1.34-2.01-2.01-1.36-1.37-1.38-1.38-3.36-1.69-1.22-.19-2.12-1.2-2.15-2.39-.03-1.14.77-2.23,1.95-2.42.93-.15,1.88-.14,2.83-.16.94-.02,1.89,0,3.07,0-.38-.31-.58-.49-.78-.65-1.86-1.47-2.63-3.42-2.18-5.71,1.52-7.72,3.08-15.43,4.69-23.13.73-3.51,3.41-5.33,6.92-4.71,3.33.59,6.66,1.26,9.96,2,3.34.75,5.15,3.65,4.5,7.01-.25,1.28-.53,2.55-.8,3.87-1.1-.06-2.12-.08-3.13-.2-.31-.04-.62-.33-.87-.58-1.95-1.95-3.88-3.92-5.81-5.88-.07.06-.15.12-.22.17.56.96,1.12,1.92,1.67,2.87,1.21,2.08,2.46,4.14,3.61,6.25.44.81.99,1.09,1.89,1.13,3.97.18,7.94.43,11.9.67,2.1.13,3.6,1.53,3.81,3.53.19,1.76-.98,3.52-2.73,4-.58.16-1.23.18-1.84.14-4.84-.27-9.68-.58-14.52-.83-1.74-.09-2.94-.87-3.8-2.35-2.02-3.5-4.07-6.99-6.11-10.48-.18-.31-.38-.6-.74-.83.3,1.11.61,2.23.91,3.34.89,3.27,1.78,6.53,2.69,9.8.76,2.76,2.24,4.04,5.11,4.28,2.8.24,5.61.32,8.4.56,1.08.09,2.17.31,3.2.65,2.2.71,3.56,2.96,2.94,5.18-.92,3.29-2.06,6.52-3.13,9.77-1.28,3.87-2.58,7.73-3.88,11.6-.17.52-.36,1.04-.6,1.52-.77,1.54-2.63,2.65-4.17,2.53-2.08-.17-3.72-1.45-4.33-3.3-.17-.53-.49-1.05-.86-1.46-1.08-1.18-2.23-2.31-3.53-3.64-.51.58-.93,1.1-1.41,1.58-1.95,1.97-3.9,3.94-5.88,5.88-1.01.98-2.17,1.14-3.18.54-.97-.57-1.5-1.63-1.14-2.7.21-.62.65-1.22,1.11-1.7,2.03-2.09,4.11-4.14,6.18-6.2.25-.26.5-.52.8-.84Zm-1.08-8.58c1.61,1.61,3.22,3.21,4.54,4.54,1.5-1.5,3.09-3.09,4.53-4.54h-9.08Zm12.07,5.09c-1.3,1.25-2.51,2.41-3.59,3.45.55.63,1.11,1.27,1.77,2.03.64-1.92,1.22-3.68,1.82-5.48Z"/>
  <path class="cls-1" d="m81.02,53.82c-3.96-3.1-8.06-6.31-12.2-9.55-.37.4-.69.79-1.05,1.13-.84.78-1.96.84-2.78.17-.85-.69-1.05-1.73-.49-2.74.16-.29.43-.52.53-.82.08-.25,0-.56-.03-1.1-2.06,2.06-3.05,2.36-4.13,1.44-1.05-.89-.94-2.02.37-3.86-1.42-1.82-1.63-3.01-.73-4.15.92-1.16,2.17-1.25,4.13-.31,1.81-1.74,2.81-2.05,3.85-1.17,1.07.9.98,2.02-.36,3.89.29.52.59.66,1,.07.21-.29.47-.56.75-.79.79-.65,1.85-.65,2.62-.03.77.61,1.04,1.67.59,2.56-.24.48-.58.92-.95,1.48,4.11,3.23,8.23,6.45,12.12,9.5,1.93-.81,3.63-1.75,5.45-2.24,3.36-.91,6.29.54,8.02,3.54.66,1.14,1.51,2.18,2.29,3.29-1.32.99-2.81,2.09-4.23,3.15-.79-.2-1.54-.52-2.31-.55-1.76-.08-3.24,1.26-3.47,2.99-.23,1.72.87,3.44,2.59,3.78.88.17,1.19.53,1.43,1.39.78,2.75,2.62,4.56,5.37,5.41.24.08.48.16.81.27-.24.35-.47.66-.67.98-.73,1.12-.59,2.33.32,3.04.94.73,2.16.61,3.02-.41,1.29-1.54,2.46-3.17,3.75-4.7.65-.77,1.38-1.5,2.19-2.09,2.22-1.64,4.51-3.21,6.84-4.85.62,1.64.42,3.26.09,4.77-1.43,6.58-5.21,11.23-11.69,13.41-4.59,1.54-9.26.11-11.5-3.6-.86-1.42-1.34-3.15-1.65-4.8-.63-3.32-2.03-4.98-5.28-5.73-3.55-.81-5.91-3.91-5.58-7.55.15-1.68.62-3.33.98-5.2Z"/>
  <path class="cls-1" d="m92.21,82.43c-2.75,3.63-2.48,7.81-2.66,11.89-.2,4.59-.41,9.18-.66,13.77-.14,2.54-2.04,4.37-4.61,4.55-2.27.16-4.41-1.47-4.91-3.82-.13-.6-.13-1.23-.1-1.85.33-7.21.68-14.42,1.05-21.63.03-.68.16-1.41.47-2,1.93-3.67,3.93-7.3,6.03-10.96.57,4.01,2.11,7.47,5.39,10.05Z"/>
  <path class="cls-1" d="m54.32,89.98c.68-1.56,1.28-3.32,2.18-4.91,1-1.75,2.7-2.73,4.67-3.15.94-.2,1.23.11.86.94-1.64,3.73-.24,6.71,2.27,9.43,1.6,1.73,3.46,3.31,4.72,5.27,2.46,3.82,2.79,8.01.8,12.18-.46.97-1.37,1.75-2.14,2.55-.2.21-.66.17-1,.24-.05-.33-.19-.69-.13-1,.47-2.35.48-4.68-.64-6.83-.5-.96-1.36-1.76-2.14-2.54-.53-.54-1.02-.38-1.51.28-.41.56-1.05.98-1.64,1.36-.26.17-.68.08-1.03.11-.03-.34-.13-.69-.07-1.01.42-2,.2-3.92-.66-5.76-.18-.39-.39-.81-.69-1.11-.42-.41-.93-.73-1.41-1.08-.12.53-.31,1.05-.33,1.59-.07,1.65-.43,3.17-1.59,4.42-1.72,1.86-3.09,3.93-3.22,6.53-.06,1.25.23,2.51.34,3.76.03.31,0,.62,0,.93-.34-.03-.71.03-1-.1-3.72-1.68-5.29-5.68-3.7-9.64.55-1.37,1.38-2.64,2.1-3.94.76-1.37,1.62-2.68,2.28-4.09.78-1.66.31-2.95-1.18-3.98-.32-.22-.51-.61-.76-.92.38-.12.8-.41,1.15-.34,1.2.21,2.37.55,3.45.81Z"/>
  <path class="cls-1" d="m100.05,85.15c3.49-.01,6.61-.98,9.63-2.74.03.51.06.83.06,1.14,0,7.9,0,15.81,0,23.71,0,2.85-1.51,4.86-3.91,5.28-3.13.55-5.73-1.65-5.77-4.95-.04-3.75-.01-7.5-.01-11.26,0-3.67,0-7.35,0-11.19Z"/>
  <path class="cls-1" d="m41,41.66c-.03,4.68-3.83,8.48-8.5,8.49-4.67.01-8.62-3.95-8.56-8.57.07-4.72,3.98-8.56,8.64-8.49,4.69.08,8.45,3.9,8.41,8.57Z"/>
  <path class="cls-1" d="m90.65,22.54c.14-4.61,4.02-8.38,8.48-8.23,4.63.15,8.36,3.97,8.25,8.46-.12,4.63-3.91,8.36-8.42,8.28-4.64-.08-8.45-3.98-8.31-8.51Z"/>
  <path class="cls-1" d="m76.61,55.72c-3.79-1.93-7.4-3.76-11.04-5.61,1.11-.25,2.12-.49,3.13-.69.18-.04.44.02.59.13,2.41,1.88,4.81,3.78,7.21,5.68.04.03.03.13.11.48Z"/>
</svg>