<?xml version="1.0" encoding="UTF-8"?>
<svg id="Layer_1" data-name="Layer 1" xmlns="http://www.w3.org/2000/svg" viewBox="0 0 127 127">
  <defs>
    <style>
      .cls-1 {
        fill: #637481;
      }
    </style>
  </defs>
  <path class="cls-1" d="m63.58,48.09c-4,4.09-7.56,7.56-10.89,11.24-.82.9-1.23,2.48-1.25,3.75-.1,9.83-.05,19.66-.06,29.49,0,.86.03,1.73-.02,2.59-.17,3.3-2.04,5.29-4.91,5.25-2.82-.04-4.82-2.08-4.9-5.35-.11-4.43.06-8.86-.1-13.28-.04-1.03-.93-2.03-1.43-3.04-.53,1.01-1.49,2.01-1.53,3.04-.17,4.31-.03,8.64-.09,12.96-.05,3.75-1.66,5.66-4.69,5.74-3.14.08-5.11-2-5.13-5.72-.05-10.48.05-20.96-.1-31.43-.02-1.51-.81-3.33-1.85-4.44-4.13-4.42-8.51-8.6-12.76-12.89-2.69-2.72-2.94-5.43-.79-7.65,2.12-2.19,5.02-2.03,7.68.57,3.63,3.55,7.15,7.21,10.79,10.75,5.1,4.96,11.62,5.01,16.74.08,3.73-3.6,7.33-7.33,11.03-10.97,2.84-2.78,5.59-2.8,8.46,0,3.48,3.39,6.87,6.88,10.33,10.29,5.8,5.72,12.04,5.69,17.89-.08,3.38-3.34,6.71-6.73,10.09-10.07,2.67-2.63,5.54-2.94,7.7-.91,2.3,2.17,2.06,5.12-.69,7.9-4.34,4.37-8.77,8.65-13,13.12-.76.81-1.22,2.47-.99,3.56,1.48,6.96,3.2,13.87,4.83,20.8.21.91.34,1.85.54,3.02-2.08.13-3.86.25-5.98.38,0,2.77.04,5.45,0,8.12-.06,3.57-1.86,5.58-4.89,5.58-3.04,0-4.82-1.98-4.9-5.56-.05-2.05-.1-4.11.01-6.16.12-2.13-.78-2.74-3.18-2.08,0,2.62.04,5.39-.01,8.15-.07,3.5-1.96,5.6-4.93,5.58-2.94-.02-4.78-2.14-4.85-5.66-.05-2.68,0-5.36,0-8.31-2.13-.13-4.01-.25-6.2-.39,1.79-7.62,3.44-15.07,5.34-22.46.59-2.29.19-3.78-1.52-5.4-3.27-3.11-6.3-6.48-9.77-10.1Z"/>
  <path class="cls-1" d="m39.95,26.53c6.33-.04,11.56,5.1,11.63,11.44.06,6.29-5.15,11.58-11.47,11.62-6.32.05-11.57-5.14-11.6-11.47-.03-6.36,5.1-11.56,11.44-11.6Z"/>
  <path class="cls-1" d="m86.89,26.53c6.35-.05,11.56,5.1,11.61,11.45.04,6.33-5.15,11.6-11.45,11.63-6.31.03-11.59-5.17-11.63-11.48-.04-6.33,5.13-11.55,11.48-11.6Z"/>
</svg>