<?xml version="1.0" encoding="UTF-8"?>
<svg id="Layer_1" data-name="Layer 1" xmlns="http://www.w3.org/2000/svg" viewBox="0 0 126.83 126.83">
  <defs>
    <style>
      .cls-1 {
        fill: #637481;
      }
    </style>
  </defs>
  <path class="cls-1" d="m111.05,88.54c-.44.98-1.23,1.28-2.26,1.28-30.24-.01-60.47,0-90.71,0-1.77,0-2.31-.56-2.31-2.36,0-3.54,0-7.07,0-10.61,0-1.85.53-2.38,2.38-2.38,16.9,0,33.8,0,50.7,0,13.24,0,26.48,0,39.72,0,1.07,0,1.97.19,2.46,1.25v12.84Z"/>
  <path class="cls-1" d="m26.04,71.01v-16.92h.98c25.61,0,51.22,0,76.82,0,2.46,0,3.81,1.34,3.82,3.78.01,4.12,0,8.25,0,12.37,0,.24-.02.48-.04.78H26.04Zm22.07-11.88c-.02-.93-.83-1.69-1.76-1.66-.94.03-1.67.83-1.63,1.77.05.92.77,1.6,1.7,1.6.95,0,1.71-.78,1.69-1.71Zm20.39.03c0-.95-.76-1.71-1.7-1.69-.89.02-1.65.76-1.67,1.65-.03.93.74,1.71,1.68,1.72.97.01,1.7-.71,1.7-1.68Zm6.83-.02c-.02-.93-.81-1.69-1.74-1.67-.93.03-1.66.81-1.63,1.76.03.92.75,1.61,1.68,1.6.95,0,1.71-.76,1.69-1.7Zm18.71,1.7c.95,0,1.72-.76,1.71-1.69,0-.92-.81-1.7-1.73-1.68-.9.02-1.63.75-1.65,1.66-.02.95.72,1.71,1.67,1.71Zm-54.46,6.83c.93.02,1.71-.75,1.71-1.69,0-.92-.69-1.65-1.61-1.68-.97-.04-1.73.67-1.76,1.62-.03.94.72,1.73,1.65,1.75Zm34.04,0c.92,0,1.71-.78,1.71-1.71,0-.9-.72-1.64-1.63-1.67-.98-.03-1.72.67-1.74,1.63-.02.95.73,1.73,1.66,1.74Zm15.31-1.71c0-.96-.75-1.68-1.71-1.67-.93.01-1.64.72-1.65,1.63-.02.94.74,1.73,1.67,1.74.93.01,1.7-.77,1.7-1.71Zm-54.44-6.83c-.02-.94-.8-1.7-1.74-1.67-.89.03-1.64.78-1.65,1.67-.01.93.76,1.7,1.7,1.7.96,0,1.7-.75,1.68-1.7Zm23.86-.07c-.05.97.64,1.74,1.6,1.77.95.03,1.74-.69,1.77-1.63.03-.87-.69-1.67-1.58-1.74-.93-.07-1.75.65-1.79,1.59Zm22.12,1.77c.96-.02,1.68-.78,1.65-1.74-.03-.9-.78-1.63-1.68-1.63-.93,0-1.72.79-1.71,1.71,0,.94.79,1.68,1.74,1.66Zm-27.23,6.83c.93-.02,1.67-.8,1.65-1.75-.02-.96-.77-1.66-1.75-1.62-.91.03-1.63.77-1.62,1.68,0,.93.8,1.71,1.72,1.7Zm47.63,0c.93-.01,1.68-.8,1.66-1.74-.02-.96-.77-1.66-1.74-1.63-.91.03-1.63.77-1.63,1.67,0,.93.79,1.71,1.71,1.7Zm-59.58-8.49c.01-.94-.75-1.71-1.68-1.72-.93,0-1.69.77-1.68,1.71.01.92.72,1.63,1.64,1.65.96.02,1.72-.7,1.73-1.65Zm11.96-1.72c-.93-.02-1.72.75-1.72,1.68,0,.9.71,1.65,1.61,1.68.97.04,1.73-.66,1.75-1.62.03-.95-.71-1.73-1.64-1.75Zm35.68,1.65c-.02-.94-.81-1.69-1.74-1.65-.93.04-1.66.83-1.62,1.78.04.91.77,1.6,1.7,1.59.96,0,1.69-.76,1.67-1.71Zm13.6,0c-.02-.95-.79-1.69-1.73-1.66-.9.03-1.63.78-1.64,1.68,0,.94.75,1.69,1.7,1.69.97,0,1.68-.74,1.67-1.71Zm-56.12,8.54c.91,0,1.72-.8,1.71-1.71,0-.89-.74-1.63-1.65-1.66-.96-.03-1.73.69-1.75,1.64-.02.93.76,1.73,1.68,1.74Zm49.35-1.7c0-.93-.78-1.69-1.73-1.68-.92.01-1.64.72-1.67,1.63-.02.93.75,1.73,1.67,1.75.91.01,1.72-.79,1.72-1.7Zm-61.26-.02c0-.95-.77-1.68-1.73-1.66-.91.02-1.65.75-1.66,1.65-.02.91.79,1.72,1.7,1.73.92,0,1.7-.8,1.7-1.72Zm25.54-1.66c-.97,0-1.69.72-1.68,1.69.01.91.73,1.65,1.63,1.68.91.03,1.73-.76,1.75-1.67.02-.93-.75-1.7-1.7-1.7Zm8.48,1.63c-.02-.96-.77-1.66-1.74-1.63-.9.03-1.64.77-1.64,1.67,0,.91.81,1.72,1.72,1.71.93,0,1.68-.8,1.66-1.74Zm13.62.08c.02-.95-.72-1.71-1.67-1.71-.91,0-1.66.7-1.71,1.59-.05.91.72,1.74,1.64,1.78.92.04,1.72-.73,1.75-1.66Z"/>
  <path class="cls-1" d="m22.55,71.03h-3.38v-1.02c0-11.21,0-22.43,0-33.64,0-.37.01-.75.11-1.1.23-.82.83-1.24,1.66-1.21.82.03,1.39.49,1.57,1.32.07.3.08.61.08.92,0,11.28,0,22.55,0,33.83,0,.27-.03.55-.05.9Z"/>
  <path class="cls-1" d="m82.14,39.46c0-.55,0-1.1,0-1.65,0-2.85,0-5.71,0-8.56,0-1.61.55-2.39,1.68-2.4,1.13,0,1.72.81,1.72,2.37,0,3.41,0,6.82,0,10.47.82-.8,1.5-1.5,2.21-2.14.62-.56,1.33-.64,2.06-.2.66.4.91,1.03.75,1.76-.08.34-.29.7-.54.95-1.6,1.64-3.22,3.27-4.86,4.87-.87.85-1.76.87-2.62.02-1.64-1.6-3.26-3.23-4.87-4.87-.8-.82-.83-1.76-.13-2.48.71-.74,1.71-.71,2.55.11.62.6,1.2,1.24,1.8,1.87.09-.04.17-.08.26-.12Z"/>
  <path class="cls-1" d="m65.11,39.47c0-2.75,0-5.5,0-8.25,0-.81-.01-1.61,0-2.42.02-1.17.69-1.93,1.69-1.94,1.01-.01,1.7.71,1.71,1.9.02,3.26,0,6.51,0,9.77,0,.33,0,.65,0,.98.1.06.2.11.3.17.57-.64,1.12-1.31,1.73-1.92.84-.85,1.82-.89,2.55-.17.73.73.71,1.69-.14,2.55-1.58,1.62-3.18,3.22-4.81,4.8-.9.88-1.78.85-2.69-.04-1.59-1.57-3.17-3.15-4.74-4.74-.82-.83-.89-1.84-.2-2.56.72-.75,1.74-.69,2.62.18.59.59,1.14,1.22,1.71,1.83.08-.05.17-.09.25-.14Z"/>
  <path class="cls-1" d="m48.12,39.48c0-.29,0-.59,0-.88,0-3.22,0-6.45,0-9.67,0-1.34.63-2.09,1.71-2.08,1.06.02,1.68.78,1.68,2.12,0,3.5,0,6.99,0,10.72.83-.81,1.5-1.5,2.21-2.15.62-.56,1.33-.64,2.05-.21.66.39.92,1.03.74,1.75-.09.37-.32.74-.59,1.02-1.58,1.62-3.18,3.22-4.79,4.8-.9.88-1.78.87-2.68-.02-1.61-1.59-3.21-3.19-4.8-4.8-.8-.81-.84-1.77-.16-2.48.7-.74,1.72-.74,2.54.09.62.63,1.17,1.33,1.75,2l.33-.22Z"/>
  <path class="cls-1" d="m19.18,93.22h3.3c0,1.88.07,3.74-.03,5.6-.05.78-.96,1.23-1.77,1.13-.83-.1-1.46-.72-1.48-1.64-.05-1.66-.01-3.33-.01-5.1Z"/>
  <path class="cls-1" d="m104.24,93.22h3.37c0,1.81.06,3.59-.03,5.37-.04.87-.85,1.42-1.69,1.39-.84-.03-1.48-.62-1.61-1.51-.05-.33-.04-.68-.04-1.02,0-1.39,0-2.77,0-4.23Z"/>
</svg>