<?xml version="1.0" encoding="UTF-8"?>
<svg id="Layer_1" data-name="Layer 1" xmlns="http://www.w3.org/2000/svg" viewBox="0 0 127 127">
  <defs>
    <style>
      .cls-1 {
        fill: #707070;
      }
    </style>
  </defs>
  <path class="cls-1" d="m102.93,115.79H24.07v-7.73c.44-.04.9-.11,1.35-.11,25.57,0,51.13,0,76.7,0,.27,0,.54.03.82.05v7.79Zm-64.16-5.14c-.46.6-.71,1.19-.94,1.18-.51-.02-1.02-.34-1.17-.39.06.09.41.6.78,1.14-.21.17-.45.36-1.08.86,1.19-.32,1.84-.5,2.4-.65v-2.13Z"/>
  <path class="cls-1" d="m85.91,35.52v63.1h8.29v6.99h-61.59v-6.91h8.34v-63.17h44.96Zm-32.11,63h19.19v-19.88h-19.19v19.88Zm-4.2-25.1v-8.62h-4.38v8.62h4.38Zm6.24-8.64v8.56h4.49v-8.56h-4.49Zm15.18.02h-4.46v8.55h4.46v-8.55Zm10.65-.02h-4.46v8.59h4.46v-8.59Zm-31.98-24.73h-4.54v8.4h4.54v-8.4Zm6.1,8.36h4.54v-8.4h-4.54v8.4Zm10.7.04h4.53v-8.46h-4.53v8.46Zm10.69-8.49v8.47h4.48v-8.47h-4.48Zm-27.58,20.86v-8.48h-4.43v8.48h4.43Zm6.22-.09h4.47v-8.41h-4.47v8.41Zm10.67.04h4.47v-8.45h-4.47v8.45Zm10.65.01h4.5v-8.41h-4.5v8.41Z"/>
  <path class="cls-1" d="m34.05,19.7c.52,1.38.68,3.21,1.67,4.01.91.73,2.71.36,4.13.48.02.08.09.29.05.31-2.77,1.62-4.29,3.64-1.52,7.04-.26-.01-.51-.02-.77-.04-1.19-.82-2.37-1.65-3.62-2.51-1.23.88-2.45,1.74-3.67,2.61-.08-.1-.22-.22-.2-.26,1.51-3,1.51-5.54-2.51-7.1,3.95.58,6.18-.61,6.44-4.53Z"/>
  <path class="cls-1" d="m93.02,19.07c.39,4.03,1.79,6.22,6.01,4.65-.05.2-.1.4-.15.6-1.12.97-2.82,1.75-3.18,2.95-.36,1.2.62,2.8,1.1,4.51-1.45-1.02-2.69-1.89-3.98-2.8-1.2.85-2.36,1.67-3.52,2.49-.12-.14-.27-.25-.26-.32.26-.92.43-1.88.83-2.72.55-1.16.01-1.72-.88-2.29-.78-.5-1.48-1.11-2.51-1.89,1.84-.16,3.66.21,4.62-.53.99-.77,1.15-2.63,1.91-4.64Z"/>
  <path class="cls-1" d="m61.48,26.88c.05,3.03-1.83,5.08-4.66,5.08-2.64,0-4.47-1.91-4.54-4.76-.08-2.99,1.85-5.07,4.68-5.07,2.69,0,4.46,1.87,4.51,4.74Zm-2.28.07c-.03-1.88-.9-3.1-2.24-3.14-1.49-.04-2.47,1.33-2.38,3.41.07,1.54.47,2.92,2.35,3.01,1.4.07,2.3-1.3,2.27-3.29Z"/>
  <path class="cls-1" d="m48.61,25.79c.06-1.15.11-2.22.17-3.4h1.93v9.28h-1.92c-.06-1.24-.12-2.44-.18-3.78h-3.46v3.77c-.78.04-1.35.07-2.06.11v-9.38h1.89c.06,1.09.12,2.16.18,3.39h3.44Z"/>
  <path class="cls-1" d="m72.69,25.97h2.89q.37,1.49-2.99,1.94c-.04.61-.07,1.25-.11,1.9,1.37.23,2.59.41,3.8.68.08.02.01.72.01,1.2h-5.74v-9.27h5.36c.39,1.51.39,1.55-1.45,1.53-1.27,0-2.46-.07-1.77,2.01Z"/>
  <path class="cls-1" d="m62.02,22.35h6.78q.23,1.53-2.22,1.8v7.52h-2.12v-7.1c-.72-1.13-3.06.36-2.44-2.22Z"/>
  <path class="cls-1" d="m79.97,29.55c1.38,1.13,3.63-.55,4.02,2.16h-5.91v-9.28c.5-.06,1.07-.12,1.89-.21v7.33Z"/>
  <path class="cls-1" d="m60.54,18.77q.37-2.75-1.77-4.61c2.11.09,3.88-.16,3.75-2.94.87,1.8,1.18,3.96,4.11,2.48-.05.22-.1.43-.16.65-.67.56-1.34,1.12-2.05,1.71.23.81.45,1.59.83,2.93-1.69-1.38-3.24-2.27-4.72-.21Z"/>
  <path class="cls-1" d="m71.83,18.58c.23-.82.45-1.65.7-2.55-.67-.53-1.34-1.07-2.43-1.95,2.37.31,3.78-.3,4.08-2.61.58,2.03,1.66,3.12,3.81,2.93-.67.53-1.33,1.06-2.04,1.62.24.87.48,1.7.71,2.52-1.63-1.43-3.17-1.42-4.83.03Z"/>
  <path class="cls-1" d="m51.2,11.4c.52,2.18,1.67,3.17,3.84,3.01-.67.52-1.34,1.05-2.05,1.6.24.89.47,1.72.8,2.93-1.67-1.25-3.17-2.43-4.86-.01.77-2.12.74-3.71-1.56-4.59,2.06-.05,3.68-.41,3.82-2.94Z"/>
</svg>