<?xml version="1.0" encoding="UTF-8"?>
<svg id="Layer_1" data-name="Layer 1" xmlns="http://www.w3.org/2000/svg" viewBox="0 0 127 127">
  <defs>
    <style>
      .cls-1 {
        fill: #637481;
      }
    </style>
  </defs>
  <path class="cls-1" d="m22.49,98.47c0-19.29,0-38.58,0-57.86,2.57-.94,5.12-1.94,7.72-2.8,1.16-.38,1.69-.89,1.63-2.2-.11-2.49-.03-4.98-.03-7.48,0-3.59,0-7.19,0-10.92.67.17,1.11.25,1.53.4,8.52,3,17.04,5.96,25.53,9.04,1.63.59,3.04.65,4.7.07,10.07-3.5,20.18-6.9,30.28-10.31,2.67-.9,2.88-.72,2.88,2.15,0,6.3.03,12.6-.03,18.89-.01,1.23.27,1.93,1.56,2.23,1.4.32,2.73.96,4.13,1.25,1.63.34,2.11,1.13,2.11,2.81-.07,17.65-.04,35.3-.04,52.94,0,.64,0,1.27,0,2.08-1.13-.31-2.01-.52-2.87-.8-12.09-3.86-24.17-7.76-36.28-11.55-1.14-.36-2.6-.33-3.74.04-12.19,3.98-24.35,8.07-36.53,12.07-.76.25-1.7-.03-2.55-.06ZM61.75,29.47c-12.61,4.2-24.87,8.28-37.14,12.37v54.65c.67-.18,1.24-.3,1.79-.48,11.1-3.69,22.18-7.42,33.3-11.06,1.53-.5,2.11-1.14,2.1-2.84-.07-16.78-.04-33.56-.04-50.34,0-.65,0-1.3,0-2.3Zm34.38,51.86c0-.46.04-.65,0-.82-3.04-11.04-6.09-22.07-9.17-33.1-.12-.44-.53-.97-.94-1.12-1.51-.54-3.08-.94-4.7-1.41-3.89,9.55-7.71,18.91-11.6,28.47,1.89.57,3.61,1.08,5.47,1.64.88-1.99,1.71-3.86,2.56-5.77,1.83.56,3.43,1.29,5.09,1.5,4.66.59,7.39,2.92,7.74,7.76.04.5.42,1.23.83,1.39,1.49.58,3.06.96,4.73,1.46Zm-1.5-63.02c-10.24,3.48-20.18,6.85-30.68,10.42,10.59,3.36,20.56,6.53,30.68,9.74v-20.16Z"/>
  <path class="cls-1" d="m59.48,111.07c-2.68-.52-5.45-.77-8.01-1.63-3.7-1.24-7.29-2.86-10.86-4.46-.63-.28-.94-1.27-1.4-1.94.81.06,1.77-.13,2.4.23,6.57,3.74,13.62,5.78,21.17,5.68,7.21-.09,13.86-2.24,20.08-6.18-.73-1.29-1.38-2.46-2.17-3.87,2.88.23,5.51.44,8.39.67-.98,2.83-1.88,5.46-2.88,8.37-.82-1.24-1.48-2.23-2.02-3.05-3.68,1.5-7.17,3.14-10.8,4.35-2.7.9-5.58,1.23-8.39,1.82h-5.51Z"/>
  <path class="cls-1" d="m45.65,65.48c3.2,1.35,6.18,2.69,9.23,3.85,1.69.64,2.58,1.61,2.38,3.69-4.68-1.16-8.31-4.01-11.91-6.79-2.85,3.65-5.59,7.23-8.4,10.74-1.06,1.32-2.25,2.56-3.5,3.71-.61.57-1.49.85-2.42,1.05,6.69-8.12,12.93-16.44,17.16-26.6-2.18.66-4.08,1.16-5.92,1.83-1.72.62-3.6.57-4.97,2.46-1.28,1.76-4.57.59-5.15-1.26,6.86-2.41,13.71-4.81,20.89-7.34-1.52,5.34-4.56,9.81-7.37,14.67Z"/>
  <path class="cls-1" d="m37.02,48.41c2.63-.65,5.05-1.3,7.5-1.85,1.58-.35,2.36.5,1.86,1.88-.54,1.5-3.28,2.88-5.64,2.85-2.05-.03-3.19-1.14-3.72-2.89Z"/>
  <path class="cls-1" d="m83.77,54.28c1.15,4.07,2.2,7.74,3.34,11.78-2.56-.76-4.82-1.44-7.31-2.18,1.32-3.18,2.56-6.2,3.97-9.6Z"/>
</svg>