<?xml version="1.0" encoding="UTF-8"?>
<svg id="Layer_1" data-name="Layer 1" xmlns="http://www.w3.org/2000/svg" viewBox="0 0 126.83 126.83">
  <defs>
    <style>
      .cls-1 {
        fill: #637481;
      }
    </style>
  </defs>
  <path class="cls-1" d="m98.58,25.33c1.31.72,1.82,1.81,1.72,3.31-.09,1.45-.02,2.91-.02,4.47h-3.26c-.06-.54-.12-1.05-.17-1.56-.15-1.59-1.05-2.39-2.63-2.44-.53-.02-1.07-.01-1.61-.01-24.89,0-49.78,0-74.68,0-3.72,0-4.07.36-4.07,4.14,0,13.96,0,27.93,0,41.89,0,2.79.61,3.41,3.4,3.41,18.87,0,37.74,0,56.61,0h2.49v9.51c-.54.04-1.11.12-1.68.12-20.21,0-40.42,0-60.62.03-1.67,0-3.02-.35-3.82-1.93V25.33h88.33Z"/>
  <path class="cls-1" d="m84.16,69.16c0-9.28,0-18.56,0-27.84,0-3.37,1.04-4.39,4.45-4.39,7.96,0,15.91,0,23.87,0,2.86,0,4.09,1.12,4.09,3.95.03,18.89.02,37.79,0,56.68,0,2.7-1.26,3.92-3.95,3.93-8.16.03-16.31.03-24.47,0-2.79,0-3.98-1.24-3.99-4.09-.02-9.41,0-18.83,0-28.24Zm16.23-15.78c3.34,0,6.69-.12,10.03.05,2,.1,2.68-.61,2.41-2.49-.05-.33-.05-.67,0-1,.26-1.8-.54-2.25-2.27-2.23-6.28.1-12.57.04-18.86.04-4.04,0-4,0-3.81,4.06.05,1.2.47,1.62,1.68,1.6,3.61-.06,7.22-.02,10.83-.02Zm3.6,38.04c.02-1.96-1.52-3.55-3.49-3.62-2.04-.07-3.8,1.57-3.8,3.53,0,1.96,1.78,3.71,3.72,3.68,1.92-.03,3.56-1.68,3.58-3.59Z"/>
  <path class="cls-1" d="m73.45,62.67c-3.56-.46-5.38.28-5.71,2.34-.32,1.94,1.18,3.29,4.52,4.1-1.09,2.35-5.52,2.9-7.7.98-2.52-2.23-5.3-2.49-8.37-2.29-1.8.12-3.61.11-5.41.04-3.7-.15-6.98.49-10.01,3.04-3.17,2.67-7.06,1.32-8.76-2.52,3.65.21,5.19-.3,5.52-2.1.62-3.38-2.18-3.73-4.41-4.54,2.29-2.37,5.03-2.84,7.8-.8,2.5,1.84,5.09,2.33,8.05,2.12,2.39-.17,4.82-.2,7.21-.04,2.97.19,5.5-.55,7.71-2.58,1.67-1.53,3.77-2.28,5.91-1.29,1.48.69,2.68,1.98,4.01,3-.12.18-.25.36-.37.54Z"/>
  <path class="cls-1" d="m38.85,101.33q4.23-4.39,5.69-9.67h21.85c.12,4.14,2.08,7.16,5.61,9.67h-33.15Z"/>
  <path class="cls-1" d="m42.38,42.52c-.54.5-1.04.93-1.5,1.39-2.32,2.31-2.27,2.27-.17,4.85.41.51.32,1.49.29,2.25-.02.42-.51.8-.6,1.24-.47,2.4-2.01,2.78-4.22,2.81-1.29.02-2.57,1.15-3.85,1.78-.62-2.68.52-4.24,3.17-4.33q2.19-.08,3.16-2.15c-.02-.13,0-.29-.07-.38-1.07-1.31-3.1-2.6-2.01-4.37,1.23-2.02,3.12-3.76,5.04-5.19,1.28-.95,2.64.21,3.65,1.26.65.68,1.2,1.27,2.37.8,1.12-.45,1.21-1.14,1.24-2.14.07-2.49,1.24-3.6,3.76-3.69.8-.03,1.6,0,2.41,0,3.36.01,4.12.88,4.48,4.21.11.97,1.14,1.83,1.84,2.87.93-.87,1.4-1.34,1.91-1.77,1.61-1.37,3.04-1.38,4.64.03.75.66,1.44,1.4,2.14,2.11,2.31,2.35,2.27,3.5.11,5.95-.44.5-.54,1.44-.54,2.18,0,1.13.84,1.26,1.82,1.29,2.8.11,3.87,1.24,3.73,3.37-2.27-.77-4.62-1.55-6.96-2.38-1.17-.42-1.96-3.86-1.14-4.81q2.42-2.8-.28-5.37c-.33-.32-.7-.6-1.05-.91-.23.09-.45.11-.59.23-3.27,2.78-3.3,2.84-7.03.74-.59-.33-.77-1.48-1.02-2.28-.3-.96-.3-2.69-.75-2.79-1.43-.35-3.03-.2-4.52,0-.27.04-.6,1.26-.54,1.9.18,1.86-.5,2.67-2.3,3.45-2.46,1.06-4.13.77-5.63-1.34-.21-.3-.59-.49-.98-.79Z"/>
  <path class="cls-1" d="m60.79,57.38c-1.87-4.49-3.84-6.07-7.38-5.99-3.25.07-5.31,1.84-6.76,5.86h-2.13c.46-4.42,3.62-7.63,8-8.22,4.12-.55,8.22,1.93,9.78,5.77.64,1.57-.32,1.99-1.51,2.58Z"/>
  <path class="cls-1" d="m109.33,49.87c.78.51,1.38.91,1.98,1.31-.64.25-1.27.68-1.91.68-.63,0-1.27-.44-1.9-.69.54-.38,1.08-.77,1.83-1.3Z"/>
</svg>