<?xml version="1.0" encoding="UTF-8"?>
<svg id="Layer_2" data-name="Layer 2" xmlns="http://www.w3.org/2000/svg" viewBox="0 0 260.41 252.23">
  <defs>
    <style>
      .cls-1 {
        fill: #637481;
      }
    </style>
  </defs>
  <path class="cls-1" d="m221.09,118.22c.12.17.21.38.37.5,2,1.58,2.48,3.74,2.17,6.11-.12.89-.48,1.81-.94,2.6-8.31,14.31-16.65,28.61-24.99,42.91-8.65,14.83-17.3,29.66-25.94,44.49-1.5,2.57-4.68,3.19-7.21,1.39-2.05-1.45-2.66-3.83-1.52-6.06.49-.96,1.02-1.91,1.56-2.85,6.71-11.51,13.43-23.03,20.15-34.53.22-.38.22-.53-.19-.77-4.41-2.55-8.8-5.12-13.2-7.69-.27-.16-.55-.32-.81-.51-.98-.71-1.21-1.84-.59-2.86.6-.99,1.77-1.35,2.81-.75,3.63,2.07,7.24,4.18,10.86,6.28,1.15.67,2.31,1.34,3.52,2.05l1.2-2.05c-.88-.51-1.76-1.02-2.63-1.53-3.77-2.21-7.55-4.41-11.32-6.62-.25-.15-.5-.33-.72-.52-.9-.75-1.06-1.74-.45-2.72.56-.9,1.62-1.23,2.61-.77.54.25,1.05.55,1.56.85,4.31,2.51,8.61,5.03,12.91,7.55.05.03.12.03.22.06l1.2-2.06c-.5-.29-.99-.58-1.48-.86-4.04-2.35-8.07-4.69-12.11-7.04-.35-.2-.7-.41-1.02-.65-.96-.73-1.15-1.88-.51-2.88.61-.95,1.67-1.25,2.72-.72.51.25,1,.56,1.5.85,4.2,2.45,8.4,4.89,12.59,7.36.42.25.62.2.83-.22.25-.51.56-.99.88-1.53-.34-.2-.61-.36-.88-.51-4.42-2.58-8.84-5.15-13.25-7.74-1.6-.94-1.87-2.52-.65-3.67.65-.61,1.39-.69,2.17-.33.6.28,1.17.6,1.74.93,4.22,2.46,8.43,4.92,12.65,7.37.14.08.48.06.55-.04.37-.54.68-1.12,1.05-1.75l-.71-.41c-4.33-2.52-8.65-5.04-12.98-7.58-.4-.23-.79-.51-1.11-.84-.81-.81-.84-1.88-.13-2.89.57-.8,1.54-1.01,2.55-.5.59.29,1.16.62,1.73.95,4.09,2.38,8.18,4.76,12.27,7.15.16.09.32.19.52.3l1.19-2.03c-.14-.1-.31-.22-.48-.32-4.4-2.56-8.8-5.13-13.2-7.69-.29-.17-.58-.36-.84-.57-1.01-.81-1.18-1.71-.54-2.79.57-.98,1.47-1.26,2.63-.8.33.13.66.3.97.48,4.39,2.55,8.77,5.1,13.15,7.65.14.08.29.17.48.28l1.3-2.22c-.25-.15-.48-.28-.71-.42-4.44-2.58-8.88-5.16-13.31-7.75-.29-.17-.57-.37-.81-.61-.75-.76-.78-1.75-.12-2.73.53-.78,1.41-1.06,2.35-.7.3.11.59.25.86.41,4.57,2.66,9.13,5.32,13.69,7.98.05.03.12.04.22.09l1.18-2.03c-.59-.35-1.16-.67-1.72-1-4.07-2.38-8.14-4.74-12.19-7.15-.49-.29-.96-.72-1.25-1.2-.48-.78-.25-1.77.44-2.45.63-.61,1.36-.73,2.17-.38.29.13.57.28.85.43,4.46,2.59,8.92,5.18,13.36,7.79.41.24.62.23.83-.2.2-.42.43-.84.7-1.21.32-.44.18-.63-.24-.87-4.15-2.4-8.29-4.82-12.43-7.25-.64-.37-1.26-.79-1.83-1.26-.71-.6-.84-1.41-.45-2.24.5-1.05,1.22-1.53,2.19-1.34.51.1,1.02.3,1.47.56,4.39,2.54,8.77,5.1,13.15,7.66.2.12.4.23.7.41.35-.61.71-1.16.99-1.74.05-.11-.12-.45-.28-.54-2.89-1.7-5.8-3.37-8.7-5.05-1.67-.97-3.35-1.93-4.98-2.96-.51-.32-1.06-.8-1.28-1.33-.52-1.32.7-2.79,2.11-2.7.22.01.45-.02.68-.03,6.05,3.53,12.1,7.06,18.15,10.59Z"/>
  <path class="cls-1" d="m190.62,100.45c.34.97-.03,1.82-.41,2.69-1.14,2.55-2.27,5.11-3.4,7.67-1.1,2.48-2.21,4.95-3.31,7.43-1.71,3.85-3.42,7.71-5.12,11.57-1.51,3.44-2.95,6.9-4.49,10.32-1.61,3.57-3.14,7.18-5.17,10.56-4.27,7.14-8.42,14.35-12.61,21.53-.06.11-.1.22-.19.41.5.05.95.09,1.41.14,3.21.4,6.06,1.57,8.09,4.17,2.95,3.79,3.49,8.03,1.74,12.47-1.43,3.65-4.05,6.2-7.86,7.32-1.16.34-2.42.34-3.64.44-.42.03-.71.09-.95.46-1.06,1.56-2.23,3.08-2.41,5.04-.09,1.03-.06,2.07-.09,3.11-.06,1.91-1.66,3.09-3.52,2.65-.77-.19-1.32-.69-1.58-1.36-.32-.83-.6-1.74-.62-2.63-.04-2.82.8-5.42,2.14-7.88.24-.45.66-.93.62-1.36-.03-.34-.64-.63-.98-.95-3.81-3.57-5.04-7.89-3.54-12.89.36-1.22,1.04-2.37,1.68-3.49,4.33-7.47,8.69-14.93,13.05-22.39.43-.73.85-1.46,1.3-2.23l-2.01-1.17c-.11.2-.24.41-.36.62-4.67,8.01-9.32,16.04-14.03,24.03-2.34,3.97-5.75,6.45-10.45,6.93-5.32.54-10.54-3.05-12.07-8.17-2.19-7.31,2.79-15.58,11.32-16.14,3.64-.24,6.62,1.33,9.03,4.01.59.66,1.1,1.38,1.68,2.12.14-.25.27-.46.4-.68,4.61-7.9,9.18-15.82,13.85-23.69,1.18-1.98,2.65-3.78,4.01-5.65,1.75-2.39,3.54-4.77,5.3-7.15,2.45-3.3,4.91-6.6,7.35-9.91,2.24-3.03,4.47-6.08,6.72-9.11,2.02-2.73,4.07-5.42,6.05-8.18.64-.89,1.38-1.25,2.42-1.05l.66.38Zm-29.04,87.77c1.79-2.94.84-6.63-2.19-8.5-2.8-1.73-6.68-.77-8.46,2.11-1.78,2.88-.83,6.7,2.12,8.55,2.75,1.72,6.79.7,8.53-2.15Zm-23.15-13.45c1.79-3.1.86-6.77-2.12-8.51-2.91-1.7-6.97-.56-8.6,2.46-1.32,2.44-.64,6.5,2.29,8.22,2.92,1.71,6.77.72,8.43-2.16Z"/>
  <path class="cls-1" d="m124.36,38.69c-1.82-.24-3.64-.58-5.47-.7-1.82-.12-3.65-.03-5.48-.03,0,.13-.01.26-.02.4,1.68.33,3.37.65,5.05.98,9.4,1.81,17.94,5.56,25.27,11.73,3.17,2.67,5.97,5.82,8.73,8.94,2.28,2.57,3.55,5.75,4.29,9.17-2.18-2.8-4.23-5.73-7.64-7.29,6.66,7.07,12.1,14.82,14.4,24.44,2.29,9.6,1.42,19.05-1.26,28.46-.78-7.51-2.64-14.7-6.25-21.44.22,1.65.43,3.31.66,4.96,1.14,8.47.25,16.74-2.39,24.84-1.68,5.17-3.58,10.27-5.08,15.49-.76,2.63-.86,5.44-1.24,8.17-.05.35-.05.7-.08,1.05-.12.09-.25.18-.37.27-2.67-2.88-5.34-5.76-8.27-8.9,2.67,5.82,5.59,11.09,9.51,15.8-6.54-4.18-12.35-9.17-17.08-15.39,1.68,4.66,4.28,8.82,7.25,13.23-1.18-.3-1.94-.5-2.72-.69-1.85-.46-3.69-.94-5.55-1.36-5.61-1.25-8.78-4.71-10.07-10.31-1.23-5.33-2.59-10.66-4.38-15.82-2.02-5.82-5.01-11.17-9.77-15.33-1.99-1.74-4.25-2.73-6.88-2.91-2.52-.16-5,1.66-6.4,4.71-1.69,3.7-2.21,7.65-2.47,11.64-.19,2.81-.25,5.62-.28,8.44-.01.95-.31,1.28-1.26,1.26-2.54-.05-5.08-.02-7.7-.02-.09-.71-.19-1.1-.18-1.49.34-9.83-3.97-17.38-11.47-23.35-1.31-1.04-2.72-1.96-4.16-2.83-.84-.51-1.25-1.06-1.11-2.07.22-1.66.28-3.35.54-5.01.07-.43.5-.99.9-1.16,5.35-2.23,10.73-4.4,16.09-6.58.2-.08.4-.18.53-.6-5.33,1.14-10.66,2.29-16,3.43l-.14-.24c2.14-1.05,4.27-2.14,6.44-3.14,2.26-1.04,4.55-2.04,6.87-2.96,2.27-.89,4.58-1.66,6.88-2.48-.04-.15-.07-.3-.11-.46-6.52,1.41-13.04,2.82-19.56,4.24,18.62-9.38,38.52-13.64,59.29-14.42-.01-.17-.02-.34-.04-.51-1.55-.06-3.1-.25-4.65-.17-6.07.33-12.13.69-18.19,1.15-10.2.77-20.26,2.46-30.16,4.98-4.43,1.13-8.75,2.66-13.13,3.99-1.71.52-2.95,1.56-3.65,3.21-2.21,5.2-4.41,10.4-6.81,16.05,3-.11,5.39.21,6.55,3.01.1-.13.21-.25.31-.38-.19-.41-.43-.8-.57-1.22-.07-.22.05-.5.08-.75.27.07.62.07.8.24.55.52,1.04,1.1,1.79,1.53-.18-.38-.36-.77-.54-1.16,1.24-.05,2.81,1.6,3.17,3.51h-9.67c.54,2.06.93,3.8,1.46,5.5.31.99.27,1.76-.33,2.66-3.48,5.2-6.9,10.45-10.34,15.68-.4.61-.79,1.22-1.15,1.85-1.1,1.87-.97,2.69.96,3.76,3.14,1.75,6.61,2.48,10.16,2.7.75.05,1.59-.67,2.32-1.13.35-.22.57-.67.87-1.04,1.17,1.84,1.12,3.06-.3,4.45.56.29,1.01.64,1.53.77,3.28.8,6.19,2.2,8.71,4.52,1.53,1.41,3.55.86,5.35.5,1.35-.27,2.63-.89,4.42-1.52-1.1,2.21-2.05,4.12-3,6.04.07.06.14.12.22.18,1.33-1.56,2.74-3.06,3.98-4.69,2.32-3.07,4.14-6.41,4.79-10.26.21-1.25.82-1.62,2.04-1.57,2.12.09,4.24.02,6.53.02-.17,1.25-.3,2.27-.43,3.28-.83,6.32.04,12.58.59,18.86.26,3.01.22,6.1-.21,9.09-.57,4.03-2.48,7.52-5.41,10.45-3.99,4-8.83,6.72-13.81,9.42.99-1.83,1.97-3.65,2.96-5.48-.11-.1-.22-.19-.33-.29-.34.29-.71.54-1.01.86-2.91,3.07-5.93,6.02-9.71,8.04-2.89,1.54-5.9,2.6-9.26,1.84-4.28-.97-6.84-3.33-7.17-7.27-.15-1.82.32-3.78.86-5.57.99-3.29,2.5-6.44,3.31-9.77.64-2.6.59-5.38.77-8.09.07-1.06-.44-1.91-1.39-2.48-1.83-1.09-2.53-2.72-2.39-4.83.09-1.28.12-2.47-1-3.59-.64-.64-.7-2-.75-3.05-.06-1.21.16-2.44.3-3.66.09-.83-.15-1.36-1.02-1.64-1.42-.47-2.8-1.04-4.2-1.58-3.5-1.36-4.66-4.25-2.86-7.59,1.37-2.55,2.94-5,4.5-7.45,2.1-3.29,4.25-6.55,6.43-9.78.59-.88.65-1.64.28-2.65-.81-2.21-1.58-4.45-2.1-6.74-.29-1.27-.3-2.73.01-3.99,1.11-4.48,2.46-8.91,3.62-13.38.23-.91.22-1.99-.03-2.9-.9-3.41-2.17-6.73-2.9-10.17-2.49-11.82,2.81-22.76,13.14-28.95,4.43-2.65,9.26-4.09,14.3-4.98.75-.13,1.49-.3,2.45-.23-.43.36-.83.75-1.29,1.06-5.41,3.62-9.58,8.3-12.17,14.31-.31.72-.53,1.47-.64,2.31,8.06-12.51,19.12-20.53,33.91-22.85,9.29-1.46,18.51-1.37,27.35,2.41,0,.14-.02.27-.03.41Zm33.85,48.85c.06-.03.13-.06.19-.08-1.36-2.34-2.62-4.74-4.1-6.99-5.43-8.3-13.16-13.49-22.59-16.19-7.51-2.15-15.19-1.91-22.83-1.09-8.19.88-16.07,3.18-23.91,5.6-.74.23-1.45.51-2.17.78-.7.26-1.4.52-2.09.79.37.22.64.18.9.12,7.77-1.85,15.6-3.38,23.57-4,7.89-.62,15.78-.62,23.59.94,8.72,1.73,16.65,5.16,22.88,11.69,2.45,2.57,4.4,5.62,6.58,8.45Zm-105.13,69.92c.39,1.95.53,3.83,1.15,5.53.93,2.56,4.05,3.02,5.81.91.61-.72,1.18-1.77,1.17-2.66-.04-2.93-.22-5.87-.63-8.77-.22-1.59-1.21-3.15-2.76-3.67-2.63-.87-5.4-1.35-8.11-1.97-.08-.02-.21.14-.39.28.6,1.84,2.27,2.02,3.76,2.42,1.47.39,2.97.71,4.67,1.12-.35.26-.42.35-.49.36-1.18.04-2.36.13-3.53.08-1.34-.05-2.28.31-2.58,1.78-.31,1.53-.08,2.15,1.47,2.92.68.34,1.44.51,2.16.77.55.2,1.09.42,1.64.63-.03.09-.06.18-.08.27h-3.24Zm39.27-104.45c7.77-1.6,15.6-2.19,23.5-1.39,7.83.79,15.47,2.45,22.87,5.17-11.47-8.92-31.37-11.22-46.37-3.78Zm-25.63,17.3c6.45-10.24,15.25-17.99,25.43-24.33-7.04,1.96-13.43,4.94-18.22,10.69-3.37,4.04-5.83,8.54-7.21,13.64Zm-12.71,8.97c.42-4.67.55-9.08,1.27-13.39.73-4.34,2.04-8.57,3.07-12.75-5.29,5.65-8.1,21.22-4.33,26.13Z"/>
  <path class="cls-1" d="m93.52,145.27c.37-.31.73-.64,1.12-.93,1.45-1.09,2.94-2.13,4.36-3.25,2.43-1.9,4.22-4.28,4.8-7.36.79-4.13,1.52-8.27,2.08-12.43.16-1.2-.23-2.51-.53-3.74-.52-2.11-1.92-3.45-3.99-4.07-1.11-.33-2.24-.6-3.37-1.18.45-.08.9-.21,1.34-.22,5.7-.13,9.55,3.14,10.62,9.14.23,1.27.27,2.64.04,3.91-.61,3.47-1.34,6.93-2.15,10.37-.61,2.6-2.23,4.56-4.51,5.89-2.47,1.43-4.99,2.76-7.54,4.05-.63.32-1.42.29-2.14.43-.05-.21-.09-.42-.14-.62Z"/>
  <path class="cls-1" d="m93.39,167.5c0-1.97.1-3.69-.03-5.4-.1-1.23.39-1.79,1.45-2.24,4.83-2.03,9.09-4.92,12.59-8.83,1.47-1.65,2.71-3.51,4.05-5.28.26-.35.5-.71.85-1.02-.01,3.1-.65,6.07-2.59,8.47-1.82,2.23-3.89,4.29-6.06,6.19-2.97,2.6-6.13,4.97-9.21,7.43-.3.24-.64.42-1.03.67Z"/>
  <path class="cls-1" d="m101.66,119.93c-.84-.64-1.52-1.23-2.27-1.69-.33-.2-1.06-.33-1.18-.16-.26.34-.34.9-.29,1.35.05.48.31.95.54,1.38.45.84.61,1.59.11,2.55-.21.4.25,1.25.56,1.82.48.89,1.26,1.66,1.57,2.6.28.86-.51,1.38-1.17.83-2.74-2.26-5.26-4.69-5.02-8.68.03-.58.13-1.18.3-1.74.54-1.8,2.19-3.09,3.52-2.82,1.89.39,3.49,2.47,3.34,4.56Z"/>
  <path class="cls-1" d="m92.67,137.26c.35-.45.6-1.04,1.05-1.33,1.61-1.06,1.9-1.73,1.72-3.59-.07-.72.3-1.48.47-2.23.78.26,1.71.35,2.31.83,1.31,1.04,1.08,3.21-.25,4.21-1.48,1.11-2.86,2.38-4.85,2.47-.15-.12-.3-.24-.45-.36Z"/>
</svg>