<?xml version="1.0" encoding="UTF-8"?>
<svg id="Layer_1" data-name="Layer 1" xmlns="http://www.w3.org/2000/svg" viewBox="0 0 127 127">
  <defs>
    <style>
      .cls-1 {
        fill: #707070;
      }
    </style>
  </defs>
  <path class="cls-1" d="m22.65,40.3h80.78c.14,1.95.66,3.74,1.88,5.26,1.71,2.13,3.93,3.26,6.67,3.34,1.01.03,2.02-.02,3.03.01,1.09.03,1.79.71,1.78,1.66,0,1-.66,1.62-1.78,1.64-.91.02-1.81,0-2.8,0v3.35c.91,0,1.78-.01,2.65,0,1.21.02,1.97.7,1.93,1.72-.04,1-.73,1.58-1.93,1.59-.87,0-1.74,0-2.66,0v3.36c.9,0,1.76-.02,2.63,0,1.24.03,1.98.68,1.97,1.69,0,1.03-.73,1.62-2,1.64-.84.01-1.68,0-2.59,0v3.36c.92,0,1.84-.02,2.77,0,1.1.03,1.8.68,1.81,1.63.02.93-.63,1.62-1.66,1.68-.94.05-1.88.01-2.91.01v3.37c.93,0,1.83-.01,2.73,0,1.15.02,1.87.69,1.85,1.69-.02.95-.72,1.59-1.83,1.62-.9.03-1.81,0-2.77,0v3.35c.92,0,1.81-.01,2.71,0,1.17.02,1.87.64,1.88,1.65.01,1-.7,1.63-1.87,1.66-1.37.04-2.76-.09-4.09.12-4.13.66-6.96,3.82-7.32,7.99-.01.13-.04.25-.07.46H22.69c-.08-.47-.16-.98-.25-1.48-.77-4.12-4.31-7.07-8.5-7.09-.75,0-1.5,0-2.25,0-1.62,0-2.39-.53-2.4-1.64,0-1.13.76-1.68,2.35-1.68.71,0,1.43,0,2.22,0v-3.35c-.87,0-1.71,0-2.54,0-1.3-.01-2.05-.66-2.02-1.73.03-1.02.75-1.58,2.04-1.59.75,0,1.5,0,2.25-.02.06,0,.12-.04.35-.11,0-.9.03-1.87-.03-2.83,0-.15-.4-.37-.63-.39-.68-.05-1.37,0-2.05-.02-1.25-.04-1.96-.69-1.93-1.72.03-.98.75-1.59,1.94-1.61.87-.01,1.74,0,2.66,0v-3.36c-.91,0-1.78.01-2.65,0-1.21-.02-1.92-.6-1.95-1.59-.03-1.02.7-1.69,1.92-1.74.81-.03,1.63-.03,2.44-.04.06,0,.11-.06.23-.12v-3.19c-.91,0-1.77,0-2.64,0-1.21-.01-1.92-.59-1.95-1.58-.04-1.03.71-1.71,1.92-1.73.87-.02,1.74,0,2.67,0v-3.35c-.9,0-1.76,0-2.63,0-1.27-.01-1.96-.62-1.96-1.67,0-1.02.74-1.63,2-1.65,1.27-.02,2.56.08,3.8-.09,4.04-.56,7.01-3.7,7.47-7.76.03-.22.04-.44.07-.75Zm40.3,50.25c12.11,0,24.23,0,36.34,0,.57,0,1.01-.01,1.27-.7,1.32-3.44,3.75-5.81,7.17-7.15.52-.2.66-.46.66-1-.02-9.61-.02-19.21,0-28.82,0-.57-.16-.84-.71-1.06-3.34-1.33-5.72-3.68-7.07-7.01-.26-.65-.57-.86-1.26-.86-24.23.02-48.46.02-72.69,0-.65,0-.95.16-1.2.8-1.32,3.35-3.69,5.7-7.03,7.04-.59.23-.76.51-.76,1.12.02,9.57.02,19.15,0,28.72,0,.62.2.88.78,1.11,3.28,1.3,5.63,3.59,6.95,6.87.29.72.63.95,1.4.95,12.05-.03,24.1-.02,36.15-.02Z"/>
  <path class="cls-1" d="m31.04,103.81c-.13-.32-.22-.56-.32-.79-1.62-4.15-5.97-6.4-10.3-5.31-.91.23-1.82.5-2.73.73-1.1.28-1.97-.18-2.23-1.15-.25-.95.29-1.77,1.4-2.08.78-.22,1.57-.42,2.36-.63.06-.02.1-.07.22-.17-.27-.99-.54-2.01-.84-3.11-.93.24-1.77.47-2.61.68-1.13.28-1.98-.15-2.25-1.12-.26-.94.29-1.77,1.39-2.09.86-.26,1.72-.55,2.59-.76.21-.05.53.1.73.25,1.9,1.49,2.97,3.41,3.05,5.85.01.38,0,.77,0,1.25h40.27c.01.07.02.15.03.22-10.22,2.74-20.43,5.47-30.76,8.24Z"/>
  <path class="cls-1" d="m104.44,39.14h-40.07c-.01-.07-.03-.14-.04-.2,10.2-2.74,20.4-5.47,30.65-8.22.11.22.23.4.31.6,1.68,4.31,5.73,6.51,10.28,5.54.99-.21,1.95-.52,2.93-.76,1.03-.26,1.88.21,2.15,1.15.24.86-.27,1.74-1.22,2.03-.9.27-1.81.49-2.81.76.28,1.08.53,2.1.82,3.22.99-.25,1.89-.49,2.8-.71,1.06-.25,1.89.21,2.13,1.16.23.9-.26,1.73-1.21,2.03-.92.29-1.85.59-2.79.82-.22.05-.54-.12-.75-.28-1.99-1.48-2.93-3.51-3.04-5.95-.01-.29-.01-.59-.03-.88,0-.06-.04-.12-.09-.31Z"/>
  <path class="cls-1" d="m118.04,71.47c-.29-1.06-.55-2.06-.82-3.06.88-.31,1.81.12,2.07,1.07.26.94-.3,1.76-1.24,1.99Z"/>
  <path class="cls-1" d="m8.02,63.06c.3,1.08.57,2.07.84,3.07-.87.31-1.69-.04-2.01-.96-.33-.97.2-1.83,1.16-2.11Z"/>
  <path class="cls-1" d="m63.05,86.81c-11.24,0-22.47,0-33.71.02-.77,0-1.21-.21-1.61-.9-1.34-2.33-3.23-4.16-5.55-5.52-.59-.35-.77-.74-.77-1.39.02-7.85.02-15.7,0-23.55,0-.63.17-1,.73-1.32,2.42-1.39,4.33-3.32,5.72-5.74.3-.53.65-.68,1.24-.68,22.6.01,45.2.01,67.81,0,.63,0,.99.18,1.31.73,1.38,2.39,3.27,4.29,5.66,5.67.6.35.77.74.77,1.4-.02,7.82-.02,15.63,0,23.45,0,.71-.23,1.1-.84,1.46-2.34,1.39-4.22,3.26-5.58,5.62-.34.6-.74.76-1.39.76-11.27-.02-22.54-.01-33.81-.01Zm5.95-12.57c-.87-2.22-1.59-4.25-2.46-6.2-.48-1.07-.49-1.95.1-2.99.85-1.48,1.52-3.06,2.28-4.62-1.93-.39-2.01-.34-2.73,1.2-.66,1.42-1.34,2.84-2.01,4.26-.19-1.67-.21-3.29-.19-4.91.02-.97-.68-.67-1.16-.68-.47-.01-1.08-.22-1.08.67.02,4.2.02,8.4,0,12.6,0,.9.61.67,1.08.66.48,0,1.19.29,1.16-.68-.03-.98-.06-1.96.02-2.93.05-.6.3-1.18.46-1.76.84,1.57,1.39,3.1,2,4.6.13.31.44.68.73.75.51.12,1.08.03,1.81.03Zm-8.66-9.27c.44-2.76-.52-4.54-2.52-4.77-2.49-.28-3.87.88-3.92,3.39-.05,2.44-.02,4.88,0,7.32,0,.48.08.98.22,1.44.39,1.28,1.35,1.94,2.8,2,1.68.06,2.83-.49,3.2-1.82.3-1.09.29-2.27.42-3.42h-2.2c0,.77.02,1.45,0,2.13-.03.68-.35,1.11-1.08,1.11-.71,0-1.09-.39-1.1-1.09,0-2.67,0-5.34,0-8.01,0-.69.37-1.09,1.09-1.09.74,0,1.05.44,1.08,1.11.03.54,0,1.09,0,1.68h1.99Zm15.58-4.69c-1.63,0-3.22.04-4.81-.02-.84-.03-1.12.17-1.11,1.07.05,3.94.02,7.88.02,11.82,0,.32,0,.64,0,.99h5.88v-1.94h-3.62v-4.09h2.85v-1.97h-2.86v-3.89h3.64v-1.98Zm3.04,13.89c.39.03.64.05.9.06q1.31.03,1.31-1.31c0-3.16,0-6.31,0-9.47,0-.35,0-.69,0-1.15h2.2v-1.93h-6.61v1.95h2.2v11.85Zm-29.62-13.83h-6.61v1.92c.77.04,1.44.07,2.2.1v11.78h2.19v-11.79c.8-.04,1.5-.07,2.22-.11v-1.91Zm1.04,0v13.8h2.1v-13.8h-2.1Zm-7.88,11.07c-.38,0-.73,0-1.08,0-2.67,0-5.33,0-8,0-2.8,0-5.59.02-8.39,0-.65,0-.85.22-.83.85.02.65.43.61.86.61,5.56,0,11.12,0,16.68,0,.25,0,.49-.06.75-.09v-1.35Zm59.22.06h-18.19v1.39c.4,0,.75,0,1.1,0,5.37,0,10.73,0,16.1,0,1.21,0,1.23-.03,1-1.39Zm-59.22-7.67h-18.21v1.27h18.21v-1.27Zm-18.24,5.14h18.2v-1.27h-18.2v1.27Zm77.52-5.15h-18.23v1.29h18.23v-1.29Zm-.01,3.87h-18.22v1.29h18.22v-1.29Zm-38.56-17.03c-.09.05-.18.09-.27.14-.12.36-.29.71-.36,1.08-.15.8-.56,1.18-1.41,1.04-.38-.06-.78-.01-1.16-.01-.06.09-.12.17-.18.26,1.95.63,2.12,1.86,1.22,3.57,1.37-1.53,2.62-1.5,3.98,0-.99-1.74-.65-2.94,1.21-3.78-1.96.39-2.96-.32-3.03-2.3Zm26.63,29.68c-1.9.34-2.76-.61-3.03-2.52-.17,2.01-1.21,2.66-2.95,2.38-.02,0-.07.09-.17.24,1.75.62,2.04,1.82,1.14,3.54,1.35-1.41,2.58-1.55,3.85-.03-.13-.84-.63-1.61-.44-2.15.21-.6,1.04-.99,1.6-1.47Zm-16.82,3.45c1.27-1.34,2.46-1.18,3.65.04.02.02.1-.04.18-.07-.18-.68-.65-1.46-.46-2.01.2-.59,1.03-.96,1.58-1.43-1.91.35-2.79-.57-3.12-2.32-.25.71-.51,1.42-.77,2.16h-2.46c.79.63,1.64.98,1.82,1.54.19.59-.25,1.39-.42,2.09Zm-19.9.17c-1.06-1.75-.43-2.8,1.02-3.59.01,0-.02-.11-.06-.28-1.82.61-2.62-.37-2.96-2.2-.22,1.98-1.23,2.68-3.08,2.28.6.61,1.42.97,1.59,1.52.18.6-.25,1.39-.41,2.09,1.28-1.22,2.51-1.39,3.89.17Zm19.89-27.42c1.27-1.26,2.47-1.22,3.66.04.02.02.11-.03.2-.05-.19-.68-.67-1.46-.49-2.01.2-.59,1.02-.97,1.67-1.53-.83-.07-1.74.12-2.23-.25-.5-.37-.59-1.29-.9-2.08-.32.81-.41,1.73-.92,2.11-.49.36-1.39.17-2.27.23.69.55,1.55.89,1.72,1.45.18.6-.27,1.39-.45,2.1Zm-36.92,23.7c1.81.83,2.11,2.02,1.21,3.74,1.35-1.51,2.57-1.46,3.82,0-.14-.87-.59-1.67-.39-2.26.2-.58,1.05-.93,1.62-1.39-1.9.32-2.85-.49-3.07-2.5-.27,1.89-1.13,2.85-3.18,2.41Zm24.97,3.73c1.38-1.56,2.61-1.36,3.87-.01,0-.31-.02-.46-.07-.61q-.51-1.63.81-2.64c.17-.13.39-.17.59-.26-.05-.13-.09-.25-.14-.38-1.92.6-2.79-.3-3.01-2.13-.41.82-.51,1.74-1.01,2.1-.49.36-1.39.15-2.11.19,1.59.86,2.11,1.98,1.07,3.74Zm-21.82-33.36c-.19,2-1.23,2.72-3.11,2.34.64.59,1.49.93,1.67,1.48.18.56-.3,1.34-.48,2.02,0,.04.06.09.17.26,1.14-1.47,2.36-1.45,3.63,0-.14-.84-.61-1.61-.44-2.17.18-.57,1.01-.92,1.55-1.38.02-.02,0-.11-.02-.31-1.84.58-2.67-.36-2.97-2.24Zm11.84.23c-.28.67-.4,1.57-.9,1.95-.48.35-1.37.16-2.07.2,1.81.83,1.86,2.1,1.06,3.76,1.35-1.49,2.6-1.51,3.87,0-.15-.89-.61-1.69-.43-2.29.18-.57,1.03-.93,1.58-1.38-1.84.29-2.79-.48-3.11-2.24Zm37.58,5.99l.1-.27c-.2-.67-.7-1.42-.53-1.98.17-.56.98-.93,1.51-1.39.03-.03.03-.1.09-.34-1.9.59-2.72-.41-2.93-2.38-.41,1.01-.5,1.93-1.01,2.31-.48.36-1.38.16-2.1.2,1.65.82,1.96,1.99,1.05,3.71,1.39-1.47,2.62-1.37,3.81.14Z"/>
</svg>