<?xml version="1.0" encoding="UTF-8"?>
<svg id="Layer_1" data-name="Layer 1" xmlns="http://www.w3.org/2000/svg" viewBox="0 0 127 127">
  <defs>
    <style>
      .cls-1 {
        fill: #707070;
      }
    </style>
  </defs>
  <path class="cls-1" d="m117.84,60.72c-2.05,4.57-3.92,5.5-9.41,4.56,0,.84,0,1.66,0,2.47,0,11.44,0,22.88,0,34.32,0,2.82-.22,3.04-3.1,3.04-6.06,0-12.11,0-18.24,0-.41-1.46-.81-2.86-1.26-4.49h17.91c.06-.84.16-1.48.16-2.12,0-11.29.03-22.58-.04-33.88,0-.88-.46-2.1-1.13-2.59-12.79-9.47-25.65-18.86-38.5-28.27-.17-.13-.38-.21-.66-.37-9.32,6.7-18.67,13.4-28.01,20.12-3.88,2.79-7.78,5.56-11.61,8.43-.61.46-1.23,1.37-1.24,2.08-.07,11.82-.05,23.63-.04,35.45,0,.28.09.57.17,1.08h16.65c-.43,1.61-.79,2.97-1.21,4.54-6.16,0-12.34.05-18.52-.03-1.63-.02-1.64-1.38-1.64-2.65.02-11.59,0-23.18,0-34.77,0-.81,0-1.61,0-2.57-.72.1-1.22.18-1.72.23-3.29.36-5.81-.95-6.78-3.55-1.07-2.86-.11-6.17,2.4-7.99,16.47-11.92,32.95-23.81,49.4-35.76,1.36-.99,2.4-1.09,3.8-.08,16.47,11.91,33,23.74,49.43,35.71,1.39,1.02,2.15,2.9,3.21,4.38v2.69Z"/>
  <path class="cls-1" d="m62.48,97.23c-3.01,3.42-5.87,6.67-8.73,9.91-.49.56-1,1.12-1.58,1.58-1.78,1.44-3.76,1.39-5.25-.06-1.57-1.53-1.77-3.73-.2-5.43,2.28-2.47,4.72-4.79,7.13-7.14,1.39-1.36,2.85-2.64,4.4-4.07-4.53-5.53-8.83-10.78-13.21-16.12-3.18,2.52-5.88,5.08-4.77,10.07-2.62-2.38-4.39-4.53-4.32-7.72.07-3.4,3.07-4.72,4.99-6.86-.59-.74-1.13-1.42-1.76-2.22,1.62-1.39,3.13-2.69,4.75-4.09.68.65,1.31,1.25,2.08,1.98.96-.81,1.9-1.62,2.91-2.47-.43-.63-.8-1.18-1.29-1.9,1.27-1.11,2.54-2.21,3.99-3.48,2.24,2.58,4.41,5.1,6.74,7.78-1.38,1.19-2.65,2.29-3.98,3.44-.51-.48-.93-.87-1.52-1.43-.95.82-1.89,1.63-2.99,2.58,4.49,4.95,8.88,9.79,13.15,14.49,2.64-2.64,5.18-5.17,7.74-7.72-2.68-4.96-2.33-9.39,1.13-13.29,2.99-3.37,7.34-4.76,10.9-3.39-1.23,1.61-2.53,3.14-3.62,4.8-1.03,1.56-2.15,3.33-.57,5.1,1.53,1.7,3.59,2.21,5.73,1.25,1.48-.66,2.83-1.6,4.21-2.48.67-.43,1.24-.99,2.09-1.67,1.01,4.37.36,8-2.62,11-3.11,3.13-6.88,4.13-11.1,2.83-1.28-.39-1.99-.28-2.82.77-2.03,2.58-4.19,5.07-6.43,7.75,3.02,3.32,6.02,6.62,9.02,9.91.55.61,1.14,1.19,1.67,1.82,1.77,2.13,1.76,4.13,0,5.77-1.78,1.65-4.52,1.64-6.23-.24-2.71-2.99-5.28-6.11-7.92-9.16-.52-.61-1.06-1.2-1.69-1.91Z"/>
</svg>