<?xml version="1.0" encoding="UTF-8"?>
<svg id="Layer_1" data-name="Layer 1" xmlns="http://www.w3.org/2000/svg" viewBox="0 0 126.83 126.83">
  <defs>
    <style>
      .cls-1 {
        fill: #637481;
      }
    </style>
  </defs>
  <path class="cls-1" d="m59.4,10.85c1.72.67,3.55,1.15,5.14,2.05,6.3,3.55,9.04,11.12,6.63,17.92-2.36,6.66-9.24,10.9-15.98,9.85-7.52-1.17-12.85-7.09-13.05-14.51-.2-7.15,4.8-13.38,11.97-14.94.37-.08.72-.25,1.08-.38,1.41,0,2.81,0,4.22,0Zm6.53,14.98c0-4.77-4.03-8.81-8.8-8.84-4.74-.03-8.83,4-8.9,8.76-.07,4.82,4.1,9,8.94,8.94,4.78-.05,8.77-4.08,8.76-8.86Z"/>
  <path class="cls-1" d="m38.65,115.99c-6.53-6.56-12.95-13.02-19.53-19.64,1.86-1.73,3.94-3.69,6.04-5.63,3.73-3.44,7.42-6.91,11.23-10.25.78-.68,2.01-1.17,3.04-1.18,13.03-.08,26.06-.02,39.09-.11.98,0,2.32-.53,2.87-1.27,6.56-8.79,15.43-11.85,26.33-10.81-2.2,4.19-4.32,8.23-6.44,12.28-5.03,9.58-10.11,19.14-15.06,28.77-.78,1.51-1.67,1.9-3.25,1.9-11.39-.06-22.78,0-34.17-.07-1.91-.01-3.43.39-4.86,1.71-1.7,1.58-3.6,2.94-5.29,4.3Zm15.78-24.43c.96,0,1.8,0,2.63,0,5.07,0,10.14.03,15.21-.04.74-.01,1.8-.3,2.15-.83,1.04-1.6,1.81-3.37,2.7-5.11-.36-.12-.5-.21-.64-.21-11.78-.01-23.56-.02-35.34,0-.51,0-1.16.09-1.5.4-4.02,3.63-7.99,7.32-11.54,10.58,3.82,3.87,7.46,7.56,11.16,11.31.35-.27.95-.65,1.44-1.15,1.98-1.99,4.25-2.65,7.12-2.6,10.53.18,21.06.04,31.6.11,1.55.01,2.35-.47,3.06-1.84,4.6-8.93,9.31-17.81,13.97-26.7.19-.37.31-.78.63-1.59-1.11.39-1.84.59-2.52.9-4.43,2.02-7.62,5.32-9.85,9.61-2.01,3.87-4.1,7.7-6.05,11.6-.61,1.22-1.33,1.67-2.7,1.65-4.21-.09-8.43-.03-12.64-.03-2.94,0-5.88,0-8.89,0v-6.05Z"/>
  <path class="cls-1" d="m80.08,72.61h-45.7c-2.2-14.98,6.13-26.35,17.47-29.18,12.45-3.11,26.01,5.83,27.68,18.61.45,3.44.38,6.95.56,10.57Zm-39.76-6.11h33.27c1.1-8.7-6.49-17.01-15.92-17.56-9.09-.54-17.49,7.86-17.34,17.56Z"/>
</svg>