<?xml version="1.0" encoding="UTF-8"?>
<svg id="Layer_2" data-name="Layer 2" xmlns="http://www.w3.org/2000/svg" viewBox="0 0 260.41 252.23">
  <defs>
    <style>
      .cls-1 {
        fill: #637481;
      }
    </style>
  </defs>
  <path class="cls-1" d="m131.46,60.14c-1.84,2.25-3.5,4.27-5.31,6.48-1.97-3.03-3.84-5.92-5.78-8.9-2.28.88-4.45,1.71-6.36,2.44.25.87.64,1.66.69,2.47.52,8.73.97,17.46,1.46,26.19.55,9.93,1.11,19.86,1.68,29.86.53.09.94.21,1.34.21,6.97.02,13.94,0,20.91.08,1.48.02,1.95-.47,2.03-1.92.85-15.83,1.74-31.66,2.63-47.49.15-2.63.14-5.27.48-7.87.32-2.37-.66-3.4-3.06-3.68-1.7,2.75-3.45,5.57-5.33,8.61-1.79-2.19-3.48-4.25-5.3-6.46,2.24-2.01,4.39-3.94,6.73-6.05,6.92,3.34,13.94,6.56,20.77,10.14,1.68.88,3.2,2.7,4.02,4.45,4.2,8.93,8.12,17.99,12.21,26.97,1.11,2.43.64,4.62-.74,6.64-2.41,3.52-4.89,6.98-7.45,10.39-4.57,6.08-9.19,12.12-13.87,18.12-.88,1.12-1.06,2.14-.78,3.5,1.96,9.6,3.88,19.21,5.75,28.83.24,1.23.35,2.56.16,3.79-2.31,15.46-4.62,30.91-7.11,46.34-.4,2.51.19,4.12,2.47,4.81,2.81.85,5.7,1.61,8.61,1.94,2.81.32,3.87,1.63,2.72,4.22-1.33,3.01-3.62,4.86-6.92,4.79-2.96-.06-5.91-.57-8.85-.97-2.37-.33-4.72-.79-7.3-1.23.08,2.12-.97,2.47-2.55,2.34-2.04-.17-4.96.62-5.92-.44-1.1-1.22-.51-4-.6-6.1-.06-1.4-.01-2.8-.01-4.44.8.22,1.3.35,1.81.49.08-.1.21-.2.22-.3,1.64-16.48,3.28-32.95,4.9-49.43.06-.6-.04-1.29-.28-1.85-3.12-7.32-6.27-14.61-9.42-21.91-.08-.18-.26-.3-.71-.82,0,.94,0,1.53,0,2.13-.34,23.18-.7,46.36-.98,69.54-.04,3.67.24,7.34.49,11,.11,1.71-.49,2.31-2.18,2.16-1.48-.13-2.99-.07-4.48-.01-1.41.06-2.67.03-2.26-2.41-4.01.75-7.66,1.51-11.34,2.1-1.67.26-3.4.29-5.1.23-3.33-.12-5.56-1.91-6.86-4.91-1.07-2.47-.02-4.13,2.66-4.04,4.07.13,7.78-.87,10.9-3.5.72-.61,1.32-1.88,1.26-2.81-1.52-26.12-3.13-52.23-4.76-78.34-.04-.71-.34-1.57-.81-2.08-9.15-9.76-14.19-22.04-20.64-33.45-1.09-1.93-.95-3.96,0-5.94,4.35-9.17,8.7-18.35,13.06-27.52,1.03-2.16,2.71-3.6,4.96-4.41,6.8-2.47,13.59-4.99,20.4-7.42.53-.19,1.41-.08,1.83.26,1.97,1.62,3.83,3.37,5.92,5.24Zm-25.77,70.97c.25-.11.5-.23.75-.34.61-3.69,1.44-7.17-.33-11.07-3.14-6.89-5.61-14.1-8.22-21.22-.32-.88-.14-2.24.34-3.07,2.95-5.02,6.04-9.95,9.1-14.91.27-.44.63-.83,1.25-1.63.59,13.59,1.16,26.69,1.73,39.87h3.88c-1.07-19.33-2.13-38.47-3.19-57.6-2.03.69-4.29,1.53-6.59,2.24-2.33.72-3.88,2.17-4.91,4.37-4.13,8.8-8.29,17.59-12.51,26.34-1.02,2.12-.95,4.01.18,6.06,3.21,5.85,6.14,11.86,9.54,17.59,2.73,4.61,5.97,8.92,8.99,13.37Zm44.99-50.74c.63.82.98,1.24,1.29,1.7,3.45,5.05,6.85,10.13,10.36,15.13.82,1.17.8,2.03.14,3.25-3.57,6.63-6.81,13.45-10.64,19.91-2.01,3.39-.84,6.25-.18,9.81,3.42-4.45,6.62-8.53,9.72-12.67,3.96-5.29,7.85-10.62,11.73-15.97,1.2-1.65,1.53-3.43.64-5.42-4.04-8.93-7.98-17.9-12.09-26.79-.62-1.35-1.71-2.74-2.96-3.48-3.05-1.79-6.31-3.21-9.83-4.95-1.11,19.49-2.2,38.71-3.29,57.93.33.03.67.07,1,.1,1.35-12.71,2.71-25.41,4.11-38.56Zm-.5,39.89c3.6-6.85,7.22-13.67,10.75-20.54.26-.5.04-1.49-.31-2.03-2.57-3.91-5.23-7.77-7.88-11.63-.2-.29-.53-.5-.98-.93-1.08,10.32-2.12,20.32-3.19,30.33-.19,1.8-.78,3.66,1.61,4.79Zm-43.39-35.78c-1.41,2.28-2.59,4.75-4.29,6.79-3.22,3.86-3.44,7.64-1.32,12.17,2.47,5.29,4.29,10.87,6.39,16.33.35-.05.71-.1,1.06-.14-.28-11.68-.95-23.35-1.84-35.15Zm12.73,39.26c0-.79.07-1.29-.02-1.76-.09-.49-.34-.96-.52-1.43-.36.23-.72.48-1.1.68-1.41.78-2.75.75-4.08-.51v3.03h5.71Zm27.18-3.63c-2.01,1.73-3.69,2.3-5.74.75.16,1.13.41,2.71,1.04,2.87,1.48.4,3.15.13,4.71.13v-3.75Z"/>
  <path class="cls-1" d="m131.21,22.94c3.56.96,7.25,1.67,10.73,2.96,3.42,1.27,3.56,3,1.89,6.17-.7,1.33-.22,3.28-.28,4.94-.07,1.85.09,3.75-.28,5.54-.39,1.89-1.38,3.65-1.96,5.51-1.25,3.97-5.66,7.45-9.63,7.48-4.12.03-8.65-3.38-9.92-7.37-.61-1.93-1.6-3.75-2.03-5.71-.38-1.71-.18-3.55-.31-5.33-.06-.94,0-2-.44-2.77-2.07-3.7-1.21-7.37,2.75-8.99,2.89-1.19,6.11-1.6,9.48-2.43Zm8.51,10.32c-6.03-1.07-11.24,1.01-16.45,3.04-.31.12-.52.62-.66.98-1.41,3.64-1.34,7.28,0,10.94,1.19,3.27,5.21,6.42,8.46,6.49,4.58.1,8.21-3.15,9.75-7.92,1.57-4.85-.53-9.14-1.08-13.54Z"/>
  <path class="cls-1" d="m125.3,108.9c-.76-.89-1.53-1.41-1.48-1.83.07-.58.75-1.08,1.17-1.62.48.41,1.31.78,1.36,1.23.06.56-.52,1.19-1.05,2.22Z"/>
  <path class="cls-1" d="m135.33,104.84c.62.96,1.27,1.53,1.26,2.09,0,.46-.8.91-1.24,1.37-.47-.49-1.21-.93-1.33-1.49-.09-.42.63-1.01,1.31-1.96Z"/>
  <path class="cls-1" d="m135.3,85.41c-.66-.96-1.37-1.57-1.27-1.98.13-.56.88-.98,1.36-1.46.43.46,1.21.92,1.21,1.37,0,.56-.66,1.12-1.3,2.07Z"/>
  <path class="cls-1" d="m137.27,77.53c-.92.66-1.53,1.39-1.91,1.29-.56-.15-1.21-.85-1.32-1.41-.07-.34.81-1.24,1.24-1.23.55.01,1.09.7,1.99,1.36Z"/>
  <path class="cls-1" d="m127.17,83.44c-1.1.66-1.69,1.3-2.24,1.27-.43-.03-1.13-.9-1.12-1.38.01-.46.78-1.27,1.22-1.27.55,0,1.1.66,2.14,1.38Z"/>
  <path class="cls-1" d="m125.04,79.68c-.66-1.16-1.27-1.76-1.23-2.31.03-.46.85-1.21,1.29-1.19.46.02,1.24.79,1.26,1.25.02.55-.62,1.13-1.32,2.25Z"/>
  <path class="cls-1" d="m127.05,101.18c-.99.59-1.65,1.26-2.02,1.13-.54-.19-1.13-.93-1.2-1.5-.04-.34.89-1.16,1.33-1.12.55.05,1.03.76,1.9,1.49Z"/>
  <path class="cls-1" d="m137.42,101.07c-1.1.65-1.69,1.28-2.23,1.24-.45-.03-1.17-.87-1.16-1.33.01-.47.77-1.29,1.21-1.29.55,0,1.11.66,2.18,1.38Z"/>
  <path class="cls-1" d="m125.01,110.82c.66.84,1.43,1.42,1.34,1.81-.12.58-.85,1.03-1.33,1.53-.44-.47-1.17-.91-1.23-1.41-.05-.48.61-1.04,1.21-1.93Z"/>
  <path class="cls-1" d="m135.19,110.82c.68.82,1.47,1.38,1.39,1.77-.11.58-.83,1.05-1.29,1.56-.45-.46-1.2-.87-1.27-1.38-.06-.48.59-1.05,1.16-1.96Z"/>
  <path class="cls-1" d="m137.22,89.17c-.83.67-1.32,1.39-1.8,1.37-.5-.01-.98-.73-1.46-1.14.45-.51.83-1.27,1.38-1.44.38-.11,1.01.61,1.88,1.2Z"/>
  <path class="cls-1" d="m137.22,71.48c-.8.69-1.34,1.48-1.73,1.41-.57-.1-1.03-.82-1.53-1.28.44-.45.83-1.21,1.33-1.28.47-.07,1.04.58,1.93,1.14Z"/>
  <path class="cls-1" d="m126.98,71.69c-.87.6-1.49,1.32-1.87,1.21-.56-.17-.94-.92-1.4-1.42.49-.41.96-1.11,1.46-1.13.47-.02.97.68,1.8,1.34Z"/>
  <path class="cls-1" d="m127,95.18c-.88.6-1.5,1.32-1.88,1.21-.56-.17-.94-.92-1.4-1.42.49-.4.96-1.1,1.46-1.12.47-.02.97.67,1.81,1.33Z"/>
  <path class="cls-1" d="m135.32,93.23c.63.86,1.36,1.45,1.27,1.83-.15.56-.89.96-1.37,1.43-.42-.47-1.13-.92-1.17-1.42-.03-.47.65-.99,1.28-1.85Z"/>
  <path class="cls-1" d="m125.1,91.15c-.64-.85-1.33-1.36-1.3-1.84.03-.5.74-.96,1.16-1.44.49.47,1.24.87,1.39,1.42.1.39-.63.99-1.25,1.85Z"/>
</svg>