<?xml version="1.0" encoding="UTF-8"?>
<svg id="Layer_1" data-name="Layer 1" xmlns="http://www.w3.org/2000/svg" viewBox="0 0 127 127">
  <defs>
    <style>
      .cls-1 {
        fill: #707070;
      }
    </style>
  </defs>
  <path class="cls-1" d="m47.42,20.64h32.15c2.33,1,1.65,3.16,1.81,5.02.43,0,.76,0,1.09,0,7.12,0,14.23,0,21.35,0,1.64,0,2.53.9,2.55,2.53,0,.84,0,1.67,0,2.51-.02,1.58-.92,2.47-2.51,2.49-.82,0-1.65,0-2.47,0v9.95c.09.04.14.08.19.08.84,0,1.67.01,2.51.02,1.53.01,2.28.73,2.28,2.24,0,1.81,0,3.63,0,5.44,0,1.46-.76,2.19-2.24,2.2-.91,0-1.82,0-2.73,0v11.25c.53,0,1,0,1.47,0,.47,0,.95-.01,1.42,0,1.31.05,2.06.81,2.07,2.12.02,1.87.01,3.74,0,5.61,0,1.38-.74,2.12-2.11,2.14-.94.02-1.88,0-2.86,0v11.17c.08.04.13.08.18.08.86.01,1.73.01,2.59.03,1.49.03,2.2.73,2.21,2.22,0,1.73,0,3.46,0,5.19,0,1.79-.67,2.45-2.49,2.47-.82,0-1.65,0-2.47,0v2.5c.61.06,1.18.05,1.71.17,2.08.48,3.47,2.47,3.23,4.56-.26,2.23-2.06,3.73-4.5,3.73-25.56,0-51.12,0-76.68,0-.39,0-.78-.02-1.16-.1-1.81-.36-2.77-1.62-3.36-3.25,0-.56,0-1.12,0-1.67.06-.12.13-.24.17-.37.63-1.88,2.06-2.95,4.04-3.01.24,0,.49-.03.77-.04v-2.51c-.84,0-1.64-.04-2.43,0-1.18.07-2.05-.34-2.55-1.44v-7.03c.49-1.06,1.31-1.5,2.47-1.42.82.06,1.65.01,2.49.01v-11.28c-.83,0-1.61-.05-2.38.01-1.18.1-2.05-.31-2.58-1.38v-7.03c.47-1.13,1.34-1.55,2.53-1.49.8.05,1.6,0,2.45,0v-11.25c-.81,0-1.59-.05-2.35.01-1.18.1-2.05-.32-2.62-1.35v-7.2c.57-1.05,1.44-1.45,2.62-1.35.79.07,1.59.01,2.36.01v-10.05c-.71,0-1.37-.04-2.03,0-1.38.11-2.37-.41-2.94-1.68v-4.19c.57-1.27,1.56-1.7,2.94-1.69,7.02.04,14.04.02,21.05.02h1c.11-1.93-.5-4.02,1.8-5.02Zm-5.53,64.8c2.15.34,2.51.77,2.51,2.86,0,1.51,0,3.01,0,4.52,0,1.96-.63,2.59-2.62,2.59-4.19,0-8.37,0-12.56,0-.33,0-.65,0-1.01,0v2.5h19.94v-1.2c0-15.77,0-31.53,0-47.3,0-.36,0-.73.06-1.08.14-.67.61-.99,1.28-.95.63.04,1.04.39,1.13,1.03.05.36.04.72.04,1.09,0,15.77,0,31.53,0,47.3,0,.38.03.75.05,1.17,1.52,0,2.95-.05,4.37.02.79.04.98-.23.97-.98-.03-4.69-.02-9.38-.01-14.06,0-2.21.84-3.05,3.01-3.06,2.96,0,5.92,0,8.87,0,2.18,0,3.01.85,3.01,3.05,0,2.37,0,4.74,0,7.12,0,2.4-.01,4.8.02,7.2,0,.24.27.67.43.68,1.61.05,3.22.03,4.87.03V28.22h-25.6v1.04c0,4.24,0,8.48,0,12.72,0,.33,0,.67-.05,1-.11.6-.51.92-1.1.96-.63.04-1.09-.24-1.27-.86-.09-.32-.09-.66-.09-.99,0-2.65,0-5.3,0-7.95,0-.3-.03-.59-.04-.91h-19.9v9.94h2.46c0-1.79,0-3.52,0-5.25,0-1.47.75-2.22,2.21-2.22,2.2,0,4.41,0,6.61,0,1.7,0,2.39.69,2.39,2.38,0,1.7,0,3.39,0,5.08,2.09.28,2.51.75,2.51,2.82,0,1.56,0,3.13,0,4.69,0,1.75-.68,2.44-2.42,2.44-4.3,0-8.59,0-12.89,0h-.87v11.2h2.45c0-1.82-.01-3.6,0-5.38.01-1.24.73-2.07,1.92-2.09,2.45-.04,4.91-.04,7.37,0,1.16.02,1.9.83,1.92,2,.02,1.39,0,2.79,0,4.19,0,.43,0,.86,0,1.28,1.97.18,2.51.77,2.51,2.62,0,1.62,0,3.24,0,4.86,0,1.8-.65,2.45-2.48,2.45-4.27,0-8.54,0-12.81,0h-.89v11.21h2.46c0-1.77,0-3.47,0-5.17,0-1.56.69-2.28,2.22-2.29,2.26-.01,4.52-.01,6.78,0,1.5,0,2.2.73,2.21,2.21,0,1.73,0,3.46,0,5.22Zm56.89,9.97c-1.73,0-3.4,0-5.07,0-2.93,0-5.86,0-8.79,0-1.51,0-2.31-.7-2.33-2.03-.03-1.95-.02-3.91,0-5.86.01-1.15.7-1.85,1.85-1.98.19-.02.38-.04.65-.07,0-.31,0-.58,0-.85,0-1.53-.01-3.07,0-4.6.02-1.2.72-1.99,1.9-2.01,2.48-.04,4.97-.04,7.45,0,1.09.02,1.8.79,1.86,1.87.02.36,0,.73,0,1.09,0,1.49,0,2.99,0,4.51h2.44v-11.24c-1.29,0-2.52.02-3.74,0-.71-.01-1.15-.4-1.22-1.12-.07-.69.37-1.23,1.08-1.35.22-.04.45-.02.67-.02,2.46,0,4.91,0,7.37,0h.89v-4.79h-18.7c0,.84,0,1.62,0,2.4s0,1.55,0,2.4c1.37,0,2.65-.02,3.93,0,.83.02,1.39.56,1.38,1.26,0,.72-.55,1.22-1.4,1.23-1.48.02-2.96.02-4.44,0-1.18-.02-1.96-.77-1.98-1.93-.03-1.98-.03-3.96,0-5.94.01-1.1.7-1.82,1.78-1.97.22-.03.43-.04.72-.06,0-1.81-.01-3.59,0-5.37,0-1.24.72-2.07,1.91-2.09,2.45-.05,4.91-.04,7.37,0,1.2.02,1.92.84,1.93,2.08.02,1.48,0,2.96,0,4.44,0,.32,0,.64,0,.95h2.46v-11.2c-.35,0-.65,0-.95,0-4.35,0-8.71,0-13.06,0-1.41,0-2.17-.77-2.18-2.18-.01-1.67,0-3.35,0-5.02,0-2,.46-2.52,2.51-2.74,0-1.74,0-3.49,0-5.24,0-1.47.75-2.22,2.21-2.23,2.2,0,4.41,0,6.61,0,1.7,0,2.39.69,2.4,2.37,0,1.69,0,3.39,0,5.11h2.45v-9.94h-19.87v64.67h19.89v-2.5Zm-35.38,8.44c12.67,0,25.33,0,38,0,.31,0,.62.02.92-.02.88-.11,1.53-.86,1.51-1.72-.02-.88-.68-1.56-1.59-1.63-.31-.02-.61-.01-.92-.01-25.22,0-50.44,0-75.67,0-.25,0-.5,0-.75,0-1.04.04-1.74.7-1.76,1.63-.02.96.71,1.69,1.76,1.74.25.01.5,0,.75,0,12.58,0,25.17,0,37.75,0Zm-4.79-21.41v15.46h9.77v-15.46h-9.77ZM23.19,45.79v4.76h18.64v-4.76h-18.64Zm61.95,4.76h18.64v-4.76h-18.64v4.76Zm-61.97,21.12h18.67v-4.72h-18.67v4.72Zm.02,16.42v4.75h18.66v-4.75h-18.66Zm61.96,4.74h18.64v-4.74h-18.64v4.74Zm-6.42-67.2v-2.41h-30.52v2.41h30.52Zm-55.55,5.02h24.92v-2.43h-24.92v2.43Zm80.63-2.42h-24.92v2.43h24.92v-2.43Zm-70.58,14.97h6.09v-4.92h-6.09v4.92Zm54.42,0h6.09v-4.92h-6.09v4.92Zm-54.4,16.19v4.95h6.07v-4.95h-6.07Zm54.4,4.94h6.09v-4.92h-6.09v4.92Zm-48.29,16.26h-6.12v4.89h6.12v-4.89Zm48.29,4.9h6.09v-4.92h-6.09v4.92Z"/>
  <path class="cls-1" d="m63.58,47.76c2.84,0,5.69,0,8.53,0,1.25,0,1.67.4,1.68,1.63.01,2.2.01,4.41,0,6.61,0,1.23-.43,1.63-1.68,1.63-5.74,0-11.49,0-17.23,0-1.25,0-1.67-.4-1.68-1.64-.01-2.2-.01-4.41,0-6.61,0-1.24.42-1.63,1.68-1.63,2.9,0,5.8,0,8.7,0Zm7.63,7.34v-4.78h-15.43v4.78h15.43Z"/>
  <path class="cls-1" d="m63.41,42.57c-2.62,0-5.24,0-7.87,0-1.61,0-2.33-.68-2.34-2.26-.02-1.79-.02-3.57,0-5.36.01-1.56.72-2.26,2.26-2.26,5.36,0,10.71,0,16.07,0,1.54,0,2.24.7,2.26,2.26.02,1.76.01,3.52,0,5.27-.01,1.66-.7,2.34-2.35,2.34-2.68,0-5.36,0-8.03,0Zm7.8-2.54v-4.78h-15.42v4.78h15.42Z"/>
  <path class="cls-1" d="m63.5,62.83c2.65,0,5.3,0,7.95,0,1.61,0,2.33.68,2.34,2.26.02,1.79.02,3.57,0,5.36-.02,1.56-.72,2.26-2.26,2.26-5.36,0-10.71,0-16.07,0-1.54,0-2.24-.7-2.26-2.26-.02-1.76-.01-3.52,0-5.27.01-1.66.7-2.34,2.34-2.34,2.65,0,5.3,0,7.95,0Zm-7.76,7.3h15.49v-4.73h-15.49v4.73Z"/>
</svg>