<?xml version="1.0" encoding="UTF-8"?>
<svg id="Layer_1" data-name="Layer 1" xmlns="http://www.w3.org/2000/svg" viewBox="0 0 127 127">
  <defs>
    <style>
      .cls-1 {
        fill: #637481;
      }
    </style>
  </defs>
  <path class="cls-1" d="m115.67,89.2c-.29,1.04-.5,2.1-.87,3.11-2.35,6.38-9.14,10.02-15.75,8.49-6.65-1.54-11.18-7.85-10.44-14.62.12-1.07.39-2.14.76-3.15.28-.77.21-1.17-.49-1.66-2.45-1.71-4.84-3.5-7.25-5.27-.27-.2-.53-.41-.76-.58,1.36-1.29,2.69-2.54,4.1-3.87.43.31.89.64,1.35.97,2,1.46,4.02,2.9,6,4.39.54.41.86.37,1.38-.03,5.78-4.52,13.8-3.78,18.62,1.7,1.7,1.93,2.75,4.18,3.16,6.72.03.19.13.37.19.56v3.26Zm-8.97-1.64c0-2.52-2.1-4.6-4.61-4.6-2.51,0-4.6,2.11-4.58,4.63.02,2.55,2.09,4.61,4.6,4.6,2.51,0,4.59-2.11,4.59-4.63Z"/>
  <path class="cls-1" d="m74.04,48.24c8.49,0,16.98-.01,25.47.02.7,0,1.4.27,2.1.41-.38.57-.69,1.22-1.16,1.71-6.54,6.8-13.09,13.6-19.67,20.37-2.29,2.35-4.98,3.68-8.42,3.61-6.55-.13-13.11-.04-19.66-.04-3.24,0-5.21-1.68-5.67-4.87-.86-6.01-1.71-12.02-2.55-18.04-.25-1.81.45-2.75,2.27-3.04.57-.09,1.15-.13,1.72-.13,8.52,0,17.05,0,25.57,0Z"/>
  <path class="cls-1" d="m49.52,44.47c.31-.78.58-1.46.85-2.14.85-2.14,1.72-4.28,2.55-6.43.2-.52.45-.74,1.04-.71.98.05,1.97.07,2.95-.02.38-.04.88-.32,1.06-.65,1.4-2.56,2.76-5.14,4.08-7.74.33-.66.7-.96,1.47-.92,1.46.07,2.92.05,4.38,0,.66-.02,1.04.17,1.35.79.66,1.34,1.46,2.61,2.1,3.95.35.73.81.93,1.58.91,2.68-.05,5.37.02,8.05-.04.86-.02,1.33.27,1.76,1,1.13,1.93,2.37,3.8,3.53,5.72.32.53.67.75,1.29.74,1.56-.04,3.12-.03,4.69,0,.3,0,.77.08.89.28.98,1.69,1.89,3.42,2.88,5.26h-46.49Z"/>
  <path class="cls-1" d="m49.54,77.94h5.51v11.79c.08.04.15.08.23.12.26-.31.53-.61.79-.92,2.82-3.44,5.63-6.88,8.48-10.29.27-.33.82-.59,1.25-.6,2.06-.06,4.11-.03,6.34-.03-.22.33-.32.52-.46.69-5.66,6.9-11.32,13.8-16.98,20.7-.98,1.19-2.09,1.56-3.32,1.15-1.12-.37-1.88-1.43-1.89-2.86-.02-6.48,0-12.96,0-19.45,0-.13.05-.26.05-.3Z"/>
  <path class="cls-1" d="m42.09,60.95c-.41-.13-.68-.18-.92-.29-2.25-1.1-4.63-1.3-7.11-1.26-6.41.09-12.83.03-19.25.02-.5,0-1.03-.03-1.51-.17-1.28-.36-2.08-1.56-1.97-2.86.1-1.27,1.02-2.29,2.3-2.5.43-.07.88-.08,1.32-.08,7.47,0,14.94,0,22.4,0,.27,0,.54-.01.81.01,2.46.2,3.02.72,3.35,3.13.18,1.27.36,2.54.57,4Z"/>
</svg>