<?xml version="1.0" encoding="UTF-8"?>
<svg id="Layer_2" data-name="Layer 2" xmlns="http://www.w3.org/2000/svg" viewBox="0 0 260.41 252.23">
  <defs>
    <style>
      .cls-1 {
        fill: #637481;
      }
    </style>
  </defs>
  <path class="cls-1" d="m91.01,215.3c14.09,7.05,28.02,6.38,41.86-.64-2.4.6-4.79,1.27-7.21,1.77-6.43,1.33-12.84,1.21-19.17-.61-6.65-1.91-12.33-5.51-17.26-10.3-3.88-3.77-7.09-8.05-9.71-12.78-.1-.18-.19-.37-.29-.55,1.42,1.06,2.77,2.2,4.25,3.15,5.3,3.42,11.03,5.55,17.44,5.36,3.54-.1,6.75-1.1,9.26-3.76,1.97-2.08,2.83-4.65,3.12-7.42.43-3.99-.27-7.86-1.39-11.66-2.12-7.18-5.14-14-8.41-20.7-2.72-5.58-5.11-11.3-7.6-16.98-.04-.09-.08-.18-.2-.44-.57.78-1.12,1.46-1.58,2.18-1.97,3.1-3.42,6.43-4.12,10.05-.27,1.41-.17,2.78.29,4.15.89,2.68.99,5.46.89,8.26-.03.76-.05,1.53.04,2.29.1.82-.11,1.47-.74,1.97-2.07,1.65-4.31,3.02-6.86,3.81-1.76.55-3.54.85-5.38.49-3.08-.6-5.29-2.43-6.87-5.04-2.92-4.86-1.22-12.08,3.69-15.5,2.09-1.45,4.37-2.38,6.88-2.68,1.23-.15,2.03-.79,2.76-1.66,1.9-2.27,3.22-4.89,4.49-7.53.8-1.66,1.52-3.36,2.24-5.06.1-.24.11-.58.03-.83-2.64-7.86-5.3-15.72-7.95-23.58-2.35-6.99-4.7-13.99-7.04-20.99-.02-.05-.03-.09-.04-.14-.13-.67-.24-1.44.41-1.82.7-.41,1.24.18,1.57.72.84,1.36,1.62,2.75,2.39,4.15,3.56,6.5,7.1,13.01,10.65,19.51.05.08.12.15.28.35.14-.9.25-1.69.39-2.46.61-3.29,1.17-6.6,1.88-9.87.84-3.87,1.74-7.73,2.77-11.56,1.45-5.43,3.34-10.71,5.58-15.87,1.75-4.02,3.72-7.93,6.01-11.73-2.12,1.19-7.28,7.99-9.1,11.87-2.17,4.62-3.26,9.46-2.92,14.59-.07,0-.15.02-.22.03-.33-.96-.73-1.9-.99-2.88-2.07-7.94-.07-15,4.73-21.42,2.63-3.52,5.81-6.51,9.22-9.24,6.47-5.2,12.94-10.4,19.56-15.4,5.82-4.39,12.37-7.4,19.54-8.89,2.35-.49,4.78-.68,7.18-.78,1.93-.08,3.9.01,5.81.31,2.9.45,5.7,1.32,8.16,3.03.42.29.62.61.64,1.14.09,2.44-.35,4.81-.92,7.16-.23.96-.51,1.9-.73,2.86-.4,1.68-1.59,2.81-2.76,3.92-2.25,2.14-4.99,3.48-7.82,4.66-3.34,1.39-6.72,2.68-10.02,4.16-2.31,1.03-4.31,2.56-5.94,4.54-1.74,2.1-2.18,4.52-1.88,7.14.07.59.16,1.17.27,1.98-2.11-2.6-4.38-4.86-3.9-8.43.22-1.63,1.03-2.97,2.02-4.21,2.31-2.9,5.24-5.12,8.25-7.23,4.13-2.89,8.62-5.15,13.07-7.47.67-.35,1.34-.71,1.98-1.2-.27.09-.53.18-.8.28-6.36,2.37-12.54,5.12-18.24,8.83-3.01,1.96-5.86,4.11-7.91,7.13-2.23,3.29-3.71,6.91-4.23,10.84-.32,2.38-.32,4.81-.48,7.22-.11,1.74-.15,3.49-.4,5.22-.45,3.15-.44,6.28,0,9.43.82,6.01,3.03,11.55,5.77,16.9,3.26,6.35,7.25,12.24,11.26,18.12,3.46,5.06,6.93,10.12,10.29,15.24,2.95,4.49,5.55,9.19,7.55,14.19,3.16,7.87,4.34,15.99,3.06,24.41-.69,4.52-2.24,8.75-4.43,12.77-3.05,5.59-6.34,11.02-10.54,15.83-4.22,4.82-9.45,8.32-15.31,10.84-7.51,3.23-15.36,4.6-23.51,4.04-7.96-.55-15.35-2.87-22.08-7.21-.19-.12-.37-.26-.56-.39Zm48.33-42.78c-.66-.19-1.32-.36-1.97-.58-1.58-.53-3.07-1.22-4.27-2.41-1.36-1.33-1.67-3.06-1.88-4.85-.21-1.76-.5-3.53-1.4-5.1-1.83-3.17-4.73-4.78-8.24-5.2-2.55-.31-4.5-1.39-5.79-3.57-.77-1.31-1.37-2.72-2.02-4.1-.64-1.36-1.23-2.71-2.48-3.69-4.1-3.22-7.71-6.99-10.34-11.47-4.91-8.39-9.57-16.93-14.23-25.46-2.96-5.42-5.72-10.95-8.6-16.42-.18-.34-.59-.55-.89-.83,0,.42-.1.87.03,1.24,2.04,5.8,4.11,11.59,6.17,17.39,1.82,5.15,3.63,10.3,5.45,15.46,1.24,3.5,2.5,7,3.7,10.51.21.6.53.9,1.11,1.13,1.9.75,3.96,1.29,5.6,2.43,2.8,1.94,5.34,4.27,7.98,6.44,3.18,2.62,5.41,5.9,6.76,9.78.49,1.41,1.03,2.76-.09,4.31-2.04,2.83-2.77,5.98-1.47,9.41,1.13,2.97,2.99,5.24,5.94,6.53,3.15,1.37,6.25,1.29,9.03-.8,1.61-1.21,3.12-1.27,4.8-.42.99.5,1.93,1.08,2.93,1.55,1.62.76,3.16.27,4.16-1.28Zm21.32,17.73c.06.02.12.05.18.07.61-1.36,1.29-2.69,1.82-4.08,2.19-5.78,2.83-11.75,2.14-17.88-.5-4.45-1.58-8.74-3.32-12.87-2.36-5.58-5.41-10.78-8.76-15.8-4.41-6.59-8.93-13.11-13.33-19.7-3.33-4.98-6.35-10.14-8.76-15.64-.47-1.06-.9-2.14-1.35-3.21.83,4.12,2.21,8.06,3.84,11.92,3.29,7.8,7.56,15.09,11.69,22.45,3.29,5.86,6.56,11.73,9.64,17.7,2.79,5.41,4.96,11.09,6.17,17.08,1.04,5.18,1.36,10.4.69,15.66-.18,1.44-.42,2.86-.64,4.3Zm-68.03-54.51c-1.31,2.83-2.51,5.58-3.83,8.27-1,2.03-2.05,4.06-3.7,5.66-.45.44-1.08.77-1.69.95-.94.27-1.94.3-2.89.53-2.7.66-5.12,1.9-6.85,4.11-2.31,2.96-3.02,6.33-1.94,10.01,1.17,3.97,4.85,6.76,8.9,6.54,3.47-.19,6.21-2.18,8.96-4.03.23-.15.36-.6.36-.91.03-1.65.11-3.31-.02-4.95-.15-1.83-.33-3.69-.82-5.46-.5-1.82-.61-3.58-.2-5.39.2-.89.45-1.77.74-2.63,1.05-3.18,2.45-6.19,4.64-8.75.78-.91,1.77-1.65,2.71-2.5-1.44-.48-2.91-.96-4.36-1.44Zm57.19,66.06s.09.09.14.14c.45-.48.92-.95,1.35-1.44,5.06-5.73,6.58-12.48,5.6-19.89-.61-4.62-2.2-8.98-4.06-13.22-2.25-5.11-4.6-10.18-6.87-15.28-1.98-4.46-3.78-8.98-4.87-13.76-.16-.72-.31-1.45-.46-2.17-.11.88-.09,1.74-.02,2.59.53,5.88,2.23,11.49,4.08,17.05,2.1,6.3,4.33,12.56,6.41,18.87,1.13,3.44,1.85,7.01,2.12,10.63.42,5.8-.61,11.33-3.42,16.48Zm14.05-164.47c-.23.08-.45.17-.68.25-2.93,1.02-5.81,2.22-8.79,3.02-4.25,1.14-8.58,1.99-12.88,2.95-4.81,1.08-9.56,2.36-14.01,4.56-4.72,2.33-9.24,4.97-13.02,8.7-4.06,4.01-6.36,8.78-6.04,14.61.1,1.85.57,3.61,1.4,5.29.07-.29.07-.57.07-.85,0-2.96.64-5.8,2.01-8.4,2.26-4.33,5.26-8.14,8.78-11.53,6.3-6.07,13.9-9.6,22.36-11.51,3.98-.9,7.97-1.81,11.91-2.87,3.2-.86,6.14-2.37,8.89-4.22Zm-62.37,92.63c.06-.01.12-.02.18-.03.28-1.59.56-3.18.84-4.78.51-2.96,1-5.92,1.5-8.89.73-4.25,1.46-8.49,2.19-12.73.68-3.95,1.36-7.91,2.03-11.86.23-1.38.44-2.77.64-4.16.03-.23-.07-.48-.11-.72-.09,0-.18,0-.26,0-.16.4-.35.79-.48,1.2-2.17,6.51-4.36,13.01-6.5,19.53-1.53,4.67-3.01,9.36-4.5,14.05-.07.21-.12.51-.02.68,1.48,2.58,2.99,5.14,4.49,7.7Z"/>
  <path class="cls-1" d="m168.82,124.21c8.36-12.15,12.38-25.68,13.02-40.34-1.69,2.14-4.09,2.76-6.73,3.31.73-.97.95-1.94.95-2.98,0-1.3-.03-1.34-1.27-1.52-.18-.03-.37-.04-.59-.06,1.06,1.87.85,3.42-.52,4.15-1.33.7-2.74.08-3.53-1.67.69.43,1.39.64,1.83-.08.2-.33.23-.94.06-1.3-.28-.58-.88-.73-1.57-.46.03-.18.06-.33.09-.48-.59-.13-2.07.75-2.21,1.3-.32,1.29-.01,2.43.79,3.56-.55-.16-1.1-.29-1.63-.49-1.01-.38-2-.41-3.03-.05-.34.12-.76.02-1.12.02-.03-.25-.06-.32-.03-.34,1.58-2.09,2.86-4.44,5.18-5.89,1.43-.9,3-1.38,4.66-1.49,1.18-.07,1.78-.68,2.14-1.69.03-.08.05-.17.08-.25.06.01.12.02.18.04-.1.55-.2,1.1-.31,1.68,1.53-.29,2.66-1.06,3.12-2.64.08.04.15.07.23.11-.31.85-.61,1.71-.92,2.55,1.07.24,3.46-.74,4.08-1.76.08-.14.11-.33.1-.49-.28-4.2-.42-8.42-.91-12.6-.36-3.07-1.06-6.11-1.82-9.11-.67-2.66-1.82-5.16-3.66-7.26-.64-.73-1.4-1.35-2.16-2.07,2.84.31,5.23,1.49,7.36,3.24,3.01,2.48,5.12,5.64,6.65,9.19,1.86,4.3,3.31,8.76,3.13,13.49-.13,3.33-.66,6.66-1.2,9.96-1.08,6.61-2.96,13-5.58,19.16-2.89,6.82-6.72,13.08-11.31,18.89-1.16,1.47-2.36,2.9-3.54,4.35Zm5.55-40.8c-.37-.28-.63-.6-.79-.55-.23.06-.4.39-.59.6.2.17.39.46.6.47.2.01.42-.26.78-.51Z"/>
  <path class="cls-1" d="m79.3,181.49c.91.87,1.75,1.79,2.72,2.56,3.48,2.77,7.45,4.1,11.91,3.61,4.03-.45,6.94-2.54,8.62-6.3,1.52-3.42,1.98-7.01,1.66-10.69-.24-2.69-.65-5.37-.99-8.08.27.68.56,1.34.8,2.03,1.12,3.18,2.41,6.31,3.3,9.55,1.09,3.98,1.53,8.09.97,12.23-.4,2.94-1.43,5.59-4.03,7.34-2.18,1.47-4.66,1.75-7.17,1.43-8.45-1.08-14.43-5.49-17.72-13.42-.03-.08-.05-.18-.07-.26Z"/>
  <path class="cls-1" d="m151.74,87.27c-.37,0-.77.11-1.09-.02-1.13-.45-2.24-.48-3.38-.07-.4.14-.85.13-1.35.21,1.69-2.63,1.25-4.41-1.22-4.79.04.15.07.28.1.39-1.42-.19-2.31.15-1.6,1.8.24.55.93.53,1.77.08-.38,1.04-1.05,1.64-2.07,1.81-.89.15-1.87-.32-2.32-1.14-.66-1.19-.4-2.27.58-3.39-.61.05-1.09.05-1.54.15-.17.04-.35.31-.41.51-.42,1.38-.63,2.76.53,4-2.88-.47-6.56-4.14-6.12-6.03.64.21,1.27.42,1.91.63.03-.08.07-.15.1-.23-.4-.18-.78-.39-1.19-.55-2.19-.88-3.11-2.23-3.13-4.81.14.3.23.46.3.63.53,1.44,1.57,2.26,3.08,2.37,1.1.08,2.21.02,3.24.02-.35-.95-.7-1.89-1.05-2.82.09-.06.18-.12.26-.18.45,1.59,1.48,2.49,3.02,2.82-.08-.6-.17-1.17-.25-1.75.04-.01.08-.02.12-.03.14.34.25.71.44,1.02.33.56.75.97,1.49,1.04,3.61.37,6.18,2.32,8.03,5.36.56.92,1.2,1.8,1.8,2.69-.02.09-.03.18-.05.27Zm-9.26-4.22c-.41-.31-.62-.6-.81-.58-.21.01-.39.31-.59.49.18.19.34.49.55.54.17.04.42-.21.85-.45Z"/>
  <path class="cls-1" d="m171.98,34.99c3.4.62,6.11,2.38,8.46,4.75,3.4,3.42,5.63,7.55,7.21,12.07.03.09.05.17.04.28-1.21-1.99-2.57-3.85-4.36-5.35-4.19-3.53-8.83-4.44-13.98-2.38-.18.07-.37.13-.67.23,1.75-3.01,2.39-6.31,3.29-9.59Z"/>
  <path class="cls-1" d="m164.83,112.66c-.35.12-.71.21-1.04.36-.74.33-1.41.36-2.25.18-1.99-.42-3.83.09-5.39,1.5-.27.24-.75.48-1.07.41-3.69-.83-7.36-1.72-11.04-2.59.02-.1.04-.2.05-.3.42.03.84.07,1.25.08,1.06.04,2.03-.19,2.94-.78,1.14-.74,2.38-1.28,3.75-1.44,1.42-.17,2.61.28,3.64,1.38.95-.88,2.09-1.26,3.33-.96.75.18,1.5.49,2.18.86,1.01.56,2.05.95,3.2,1.04.15.01.28.18.42.28,0,0,.02-.02.02-.02Z"/>
  <path class="cls-1" d="m154.54,116.26c-3.82,0-7.26-1.95-10.73-3.42.47.66,4.06,5.01,6.22,6.26,1.09.63,3.49,1.21,4.71,1.21s3.7-.44,4.71-1.21c1.91-1.46,5.36-5.6,5.83-6.26-3.47,1.47-6.91,3.42-10.73,3.42Z"/>
  <path class="cls-1" d="m132.76,70.57c.23-.03.47-.09.7-.09,5.07-.01,10.08.41,14.88,2.22.67.25,1.33.53,1.97.83.33.16.65.36.91.62.4.4.63.92.32,1.47-.33.58-.92.59-1.44.39-.96-.37-1.89-.82-2.83-1.24-3.6-1.6-7.39-2.52-11.27-3.1-.87-.13-1.73-.34-2.59-.54-.24-.06-.46-.22-.69-.33.01-.07.03-.15.04-.22Z"/>
  <path class="cls-1" d="m181.14,71.36c-.62.15-1.24.36-1.87.43-2.99.33-5.96.75-8.82,1.71-1.6.54-3.16,1.22-4.73,1.87-.95.39-1.55.36-1.85-.19-.33-.6-.08-1.44.76-1.85,1.1-.54,2.25-.99,3.42-1.35,4.11-1.26,8.34-1.31,12.59-1.08.1,0,.2.02.29.06.06.02.11.09.17.13.01.09.03.17.04.26Z"/>
  <path class="cls-1" d="m155.34,104.3c-1.45-.81-2.8-1.01-4.3-.51,1.49-1.47,3.22-1.3,4.3.51Z"/>
  <path class="cls-1" d="m157.52,103.75c.36-.5.9-.73,1.6-.61.61.11.86.55,1.01.96-.86-.12-1.72-.23-2.61-.35Z"/>
  <path class="cls-1" d="m128.93,165.03c-.05,3.22-1.68,5.72-4.53,6.68-2.17.74-4.21.27-6.12-.97-2.9-1.88-4.44-6.38-3.5-9.66.77-2.68,3.58-4.54,5.98-4.38,2.64.17,4.96,1.08,6.58,3.27,1.1,1.49,1.6,3.2,1.58,5.06Z"/>
  <path class="cls-1" d="m96.09,133.34c-1.1,0-1.99-.91-1.99-2.03,0-1.13.94-2.07,2.06-2.06,1.1.01,1.99.93,1.98,2.05,0,1.17-.88,2.05-2.05,2.04Z"/>
  <path class="cls-1" d="m87.71,161.29c-.03,3.67-2.24,6.86-5.47,7.9-3.21,1.03-6.52-.47-7.96-3.62-1.5-3.3-.73-6.82,1.38-9.17,2.18-2.42,4.92-3.23,7.64-2.17,2.72,1.06,4.43,3.84,4.4,7.06Zm-13.16,1.05c0,.15,0,.3,0,.44.11,4.08,3.97,6.64,7.76,5.15,4.02-1.58,5.45-7,2.91-10.65-2.12-3.04-6.07-2.85-8.35-.82-1.76,1.57-2.35,3.6-2.32,5.88Z"/>
</svg>