<?xml version="1.0" encoding="UTF-8"?>
<svg id="Layer_1" data-name="Layer 1" xmlns="http://www.w3.org/2000/svg" viewBox="0 0 127 127">
  <defs>
    <style>
      .cls-1 {
        fill: #637481;
      }
    </style>
  </defs>
  <g>
    <path class="cls-1" d="m60.88,32.78c.72,1.03,1.53,2.02,2.15,3.11.94,1.66,1.76,3.38,2.59,5.1,1.24,2.59,1.21,5.09-.62,7.2,1.7,1.94,3.43,3.69,4.88,5.64,1.76,2.37,2.63,5.1,2.09,8.1-.61,3.4-2.41,4.94-5.85,5.14-.22.01-.45.04-.86.07,0,.59,0,1.16,0,1.73-.04,6.79-.23,13.56-1.62,20.24-.22,1.06-.55,2.11-.93,3.12-.38,1-.99,1.96-2.19,1.98-1.28.02-2-.96-2.28-2.03-.67-2.59-1.4-5.19-1.69-7.83-.52-4.83-.73-9.69-1.07-14.68-2.42,1.88-3.95,4.31-4.38,7.33-.23,1.6-.09,3.26-.12,4.89-.14,7.92-7.48,13.48-15.15,11.06-10.02-3.15-15.96-10.2-18.13-20.44-.09-.44-.3-.94-.18-1.33.17-.56.47-1.34.92-1.51.87-.33,1.28.39,1.43,1.19.11.58.15,1.17.28,1.75,1.93,8.54,6.98,14.46,15.07,17.72,5.45,2.19,11.21-.26,12.86-5.43.44-1.39.54-2.96.47-4.43-.25-5.69,1.79-10.2,6.53-13.44.31-.21.58-.69.63-1.07.59-5.33,1.15-10.66,1.67-15.99.03-.31-.23-.68-.43-.97-.67-.96-1.34-1.9-2.07-2.82-.31-.4-.69-.83-1.14-1.02-13.76-5.99-29.07,1.25-33.26,15.7-.04.13-.01.33-.1.39-.49.36-1.03,1.02-1.49.97-.89-.08-.99-.87-.77-1.69,1.49-5.59,4.42-10.28,8.93-13.87,7.91-6.3,16.73-7.44,26.22-4.25.43.14.84.31.99.36,1.97-3.39,3.9-6.69,5.82-9.99.27,0,.55,0,.82,0Zm-.4,58.36c2.63-9.57,2.5-19.28,2.25-28.96h-4.54c-.19,9.77-.39,19.47,2.28,28.96Zm.3-54.77c-.19,0-.39.01-.58.02-1.07,2.4-2.22,4.76-3.16,7.2-.51,1.32.27,2.82,1.51,3.63,1.28.83,2.85.79,4.09-.11,1.2-.87,1.86-2.38,1.33-3.71-.97-2.38-2.11-4.69-3.18-7.04Zm4.54,28.23c2.47.4,3.93-.63,4.3-3.05.54-3.51-2.13-8.45-5.63-10.52.44,4.49.88,9.03,1.33,13.57Zm-2.63-4.87c-.47-3.09-.89-5.96-1.37-8.82-.05-.28-.5-.66-.79-.68-.29-.02-.83.31-.87.56-.5,2.93-.93,5.87-1.4,8.94h4.43Z"/>
    <path class="cls-1" d="m44.81,56.28c-2.63-.02-4.73-2.15-4.72-4.79,0-2.63,2.14-4.76,4.75-4.77,2.63-.01,4.89,2.27,4.82,4.88-.06,2.61-2.24,4.71-4.86,4.69Zm.03-7.17c-1.32,0-2.44,1.14-2.41,2.45.03,1.26,1.11,2.33,2.37,2.36,1.34.03,2.44-1.05,2.45-2.39.01-1.36-1.05-2.42-2.41-2.42Z"/>
    <path class="cls-1" d="m38.9,76.76c2.6.02,4.77,2.2,4.76,4.78-.01,2.58-2.2,4.77-4.78,4.79-2.65.02-4.82-2.2-4.79-4.88.03-2.64,2.16-4.71,4.82-4.69Zm2.35,4.74c-.01-1.33-1.14-2.43-2.46-2.39-1.26.03-2.34,1.12-2.36,2.38-.02,1.32,1.09,2.44,2.41,2.44,1.35,0,2.42-1.07,2.4-2.43Z"/>
    <path class="cls-1" d="m26.91,57.56c-.02-2.66,2.06-4.81,4.69-4.83,2.63-.03,4.77,2.09,4.8,4.74.02,2.67-2.06,4.8-4.7,4.82-2.65.02-4.77-2.07-4.79-4.73Zm4.75,2.36c1.32-.01,2.44-1.15,2.42-2.45-.03-1.31-1.19-2.4-2.51-2.35-1.26.04-2.35,1.14-2.36,2.38,0,1.29,1.15,2.44,2.45,2.42Z"/>
    <path class="cls-1" d="m32.78,71.95c0,2.64-2.11,4.76-4.73,4.77-2.6,0-4.76-2.14-4.79-4.75-.03-2.69,2.12-4.82,4.84-4.79,2.67.02,4.68,2.08,4.68,4.78Zm-4.71,2.36c1.32-.01,2.46-1.17,2.42-2.45-.04-1.23-1.16-2.34-2.4-2.38-1.28-.04-2.45,1.13-2.46,2.43,0,1.34,1.08,2.41,2.44,2.4Z"/>
    <path class="cls-1" d="m18.48,67.52c-.54-.69-1.17-1.14-1.11-1.49.08-.47.67-.86,1.05-1.28.4.4,1.03.75,1.12,1.21.07.35-.54.83-1.06,1.55Z"/>
  </g>
  <path class="cls-1" d="m85.54,44.26c0-2.55-.03-5.12.01-7.69.02-1.3-.5-1.6-1.77-1.44-6.29.77-6.29.74-6.29,7.03,0,1.84.02,3.68-.01,5.52-.03,1.56-.31,3.12-2.29,3.12-1.53,0-2.15-1.2-2.08-2.59.08-1.73.94-2.74,2.86-2.43.11.02.25-.1.53-.23,0-3.09.1-6.25-.04-9.4-.07-1.72.59-2.34,2.2-2.49,2.05-.19,4.1-.48,6.13-.83,1.28-.22,1.74.17,1.73,1.47-.04,4.04,0,8.09-.03,12.13-.01,1.6-.53,3.21-2.41,2.9-.8-.13-1.84-1.67-1.92-2.63-.14-1.67.92-2.72,2.84-2.35.13.03.28-.05.54-.1Z"/>
  <path class="cls-1" d="m96.43,49.48c8.61,1.8,11.28,7.4,13.21,13.83-.61.16-1.16.44-1.28.31-9.76-10.16-10.43-10.04-15.7,2.86-2.01,4.92-4.1,9.8-6,14.76-1.63,4.28-4.24,6.94-9.05,5.26-4.02-1.41-5.49-4.81-3.87-8.56,1.96-4.53,5.75-5.02,9.98-2.78.39.2.84.28,1.97.65,3.53-8.64,7.08-17.36,10.74-26.33Z"/>
</svg>