<?xml version="1.0" encoding="UTF-8"?>
<svg id="Layer_1" data-name="Layer 1" xmlns="http://www.w3.org/2000/svg" viewBox="0 0 127 127">
  <defs>
    <style>
      .cls-1 {
        fill: #707070;
      }
    </style>
  </defs>
  <path class="cls-1" d="m71.37,102.85v-23.51h-15.62v23.37c-5.28,0-10.24.1-15.2-.04-2.29-.07-2.87-1.81-2.86-3.86.05-6.44.04-12.89.06-19.33,0-.98,0-1.97,0-3.3-2.01,0-3.8.13-5.56-.05-.98-.1-1.91-.71-2.87-1.09.43-.85.69-1.87,1.33-2.52,6.2-6.25,12.46-12.44,18.7-18.65,3.54-3.52,7.07-7.05,10.62-10.55,2.55-2.5,4.58-2.64,7.05-.17,9.96,9.93,19.87,19.92,29.75,29.93.5.51,1.09,1.72.86,2.01-.44.58-1.41.98-2.19,1.04-1.89.14-3.8.05-6.09.05,0,1.23,0,2.29,0,3.34.02,6.53.08,13.07.05,19.6-.01,3.01-.74,3.72-3.69,3.74-4.7.03-9.4,0-14.36,0Z"/>
  <path class="cls-1" d="m39.35,31.68c-1.18,4.45-2.19,8.24-3.27,12.32-1.11-.91-1.98-1.63-2.99-2.47-6.48,6.46-10.43,14.16-11.93,23.05-1.79,10.6.28,20.5,5.76,29.77,1.74,2.95,3.77,4.77,7.39,4.17.69-.11,1.42.05,2.24.09.2,1.4.38,2.71.59,4.19-2.64,0-5.32.31-7.87-.12-1.49-.25-3.15-1.4-4.09-2.63-13.2-17.32-12.34-42.51,1.92-59.09.82-.95,1.65-1.89,2.57-2.94-.83-.94-1.59-1.79-2.65-3,4.08-1.1,7.85-2.12,12.35-3.35Z"/>
  <path class="cls-1" d="m43,33.85c.1-5.26.31-5.68,4.87-7.15,15.72-5.07,30.37-2.85,43.88,6.68.59.42,1.17.85,1.76,1.27.07.05.17.05.36.11.76-.81,1.54-1.65,2.64-2.82,1.5,4,2.89,7.7,4.49,11.98-4.51-.74-8.39-1.37-12.61-2.06.84-1.2,1.49-2.12,2.34-3.32-15.02-11.22-30.88-12.61-47.73-4.68Z"/>
  <path class="cls-1" d="m90.23,102.82c.09-1.55.15-2.72.23-4.05.64-.09,1.27-.34,1.83-.24,3.98.76,6.14-1.31,7.95-4.55,8.22-14.66,8.29-29.3.21-44.01-.43-.77-.91-1.51-1.42-2.34,5.16-.57,5.75-.35,7.64,3.99,7.19,16.48,5.82,32.25-3.97,47.35-1.8,2.78-3.9,4.36-7.35,3.89-1.59-.21-3.23-.04-5.12-.04Z"/>
</svg>