<?xml version="1.0" encoding="UTF-8"?>
<svg id="Layer_2" data-name="Layer 2" xmlns="http://www.w3.org/2000/svg" viewBox="0 0 260.41 252.23">
  <defs>
    <style>
      .cls-1 {
        fill: #637481;
      }
    </style>
  </defs>
  <path class="cls-1" d="m198.1,37.74c.31.13.61.28.92.39,3.85,1.28,6.45,4.48,6.22,8.54-.26,4.57.89,8.64,2.78,12.72,3.11,6.71,5.92,13.55,8.8,20.36.39.92.62,1.98.63,2.98.01,3.1.27,6.26-.27,9.28-1.26,7.03-5.53,11.66-12.5,13.35-6.84,1.66-12.54-.56-17.04-5.92-.29-.34-.56-.7-.96-1.21-3.51,4.91-8.17,7.66-14.13,7.66-5.91,0-10.55-2.71-14.1-7.68-3.51,4.93-8.18,7.68-14.14,7.68-5.91,0-10.56-2.7-14.1-7.67-3.51,4.91-8.17,7.68-14.13,7.67-5.92,0-10.56-2.7-14.11-7.67-3.5,4.9-8.16,7.67-14.12,7.67-5.92,0-10.57-2.69-14.07-7.61-.34.38-.63.7-.91,1.04-4.45,5.4-10.14,7.69-16.98,6.09-6.97-1.63-11.49-6.18-12.6-13.23-.8-5.09-1-10.27,1.41-15.31,3.42-7.13,6.39-14.47,9.45-21.77.58-1.38.75-2.95.92-4.46.15-1.42,0-2.87.05-4.3.15-3.74,2.44-6.82,5.95-8.08.42-.15.83-.33,1.25-.5,45.27,0,90.53,0,135.8,0Zm2.04,13.05c0-.7,0-1.32,0-1.93,0-5.12-.79-5.93-5.84-5.93-42.89,0-85.77,0-128.66,0-.69,0-1.39-.05-2.06.04-1.72.23-2.95,1.2-3.18,2.91-.22,1.61-.05,3.27-.05,4.92h139.79Zm-42.65,5.26c0,.56-.04.85,0,1.13.99,6.81,2.03,13.62,2.94,20.45.17,1.26.56,1.6,1.8,1.59,6.15-.06,12.29-.03,18.44-.03.79,0,1.57,0,2.52,0-.48-1.78-.97-3.31-1.3-4.87-.33-1.53.42-2.77,1.71-3.13,1.43-.39,2.68.28,3.21,1.84.49,1.47,1,2.95,1.28,4.46.27,1.46,1,1.74,2.36,1.73,6.2-.07,12.41-.03,18.61-.03h1.72c-.05-.36-.04-.54-.11-.69-3.08-7.16-6.15-14.34-9.3-21.47-.21-.48-1.11-.93-1.69-.94-4.88-.07-9.76-.04-14.65-.04-.95,0-1.89,0-3.04,0,.54,1.92,1.03,3.56,1.45,5.22.38,1.51-.4,2.84-1.8,3.24-1.29.37-2.61-.34-3.12-1.76-.35-.97-.57-1.98-.86-2.97q-1.08-3.72-4.94-3.72h-15.25Zm-54.44,0c-6.31,0-12.38-.02-18.45.05-.39,0-.97.69-1.11,1.16-2.04,6.92-4.02,13.85-6,20.78-.09.31-.1.64-.17,1.13,7.27,0,14.43.01,21.59-.05.33,0,.86-.64.94-1.05.37-1.97.61-3.96.9-5.95.76-5.27,1.51-10.53,2.31-16.08Zm29.85,23.02h22.54c-1.11-7.71-2.2-15.28-3.3-22.92h-19.24v22.92Zm-5.39.03v-22.95h-19.24c-1.1,7.67-2.19,15.28-3.29,22.95h22.54Zm-78.08.09c7.38,0,14.43.03,21.48-.06.44,0,1.11-.84,1.27-1.4,1.98-6.7,3.89-13.41,5.81-20.13.13-.46.18-.95.28-1.55-4.09,0-7.98-.01-11.87,0-2.29.01-5.12-.74-6.71.34-1.65,1.12-2.14,4-3.08,6.14-2.37,5.45-4.71,10.91-7.18,16.65Zm-1.24,5.25c0,2.27-.2,4.4.04,6.49.69,6.01,6.75,10.56,12.71,9.7,7.3-1.05,11.55-7.24,9.92-16.19h-22.67Zm141.22.03c0,2.14-.19,4.21.04,6.23.61,5.47,4.95,9.49,10.6,10.02,5,.47,10.24-2.86,11.62-7.87.72-2.63.62-5.5.89-8.37h-23.14Zm-90.27,0h-22.77c0,1.86-.08,3.63.01,5.39.38,7.51,7.79,12.67,14.94,10.29,6.57-2.19,9.02-7.94,7.82-15.68Zm62.06-.02c-.49,3.63-.14,7.28.87,9.5,2.54,5.59,9.03,8.27,14.73,5.93,6.33-2.6,8.24-8.39,6.96-15.43h-22.56Zm-56.57.02c0,1.92-.1,3.75.02,5.56.48,7.36,7.72,12.39,14.75,10.16,6.79-2.16,9.17-8.04,7.97-15.72h-22.74Zm51.41-.1c-7.72,0-14.93-.02-22.15.05-.36,0-1.01.69-1.03,1.09-.1,1.54-.09,3.1.04,4.64.45,5.71,4.78,9.98,10.62,10.56,5.25.52,10.59-3.12,11.85-8.46.58-2.46.46-5.08.68-7.88Z"/>
  <path class="cls-1" d="m41.97,122.87c.2-.47.41-.93.59-1.4,1.58-4.07,5.61-6.3,9.97-5.5,4,.73,7.16,4.43,6.98,8.63-.23,5.56-.75,11.11-1.16,16.66-.47,6.45-.95,12.9-1.44,19.53.78,0,1.4,0,2.02,0,11.6,0,23.2-.03,34.79.01,6.56.03,11.67,4.99,11.77,11.25.03,2.25-.9,3.94-2.95,4.8-.98.41-1.09.9-1,1.81.9,8.91,1.77,17.82,2.65,26.72.12,1.26.41,2.52.33,3.77-.06,1.04-.3,2.21-.87,3.06-1.7,2.53-4.4,2.17-6.89,1.85-2.16-.28-3.35-1.8-3.79-3.93-1.71-8.25-3.44-16.5-5.16-24.75-.55-2.63-1.11-5.27-1.68-7.97h-24.11c-1.04,4.96-2.1,9.93-3.14,14.91-1.19,5.72-2.36,11.46-3.57,17.18-.92,4.37-5.67,6.35-9.51,3.98-1.68-1.04-2.35-2.6-2.16-4.55.53-5.48,1.06-10.97,1.6-16.45.49-4.96.98-9.93,1.5-15.08-2.37-.32-3.9-1.71-4.77-3.87,0-16.89,0-33.78,0-50.67Zm5.25,49.22h52.95c.07-3.28-2.52-6.07-5.97-6.08-13.6-.07-27.21-.06-40.81,0-3.42.01-5.84,2.5-6.17,6.09Zm-.08-9.54c1.19-.48,2.1-1.01,3.08-1.2,1.17-.23,1.56-.8,1.64-1.95.8-11.33,1.67-22.66,2.48-33.99.19-2.63-1.22-4.34-3.45-4.43-2.23-.09-3.73,1.57-3.75,4.17-.02,4.08,0,8.15,0,12.23,0,8.32,0,16.64,0,25.17Zm4.79,14.84c-1.05,10.6-2.09,21.07-3.13,31.54.21.09.41.18.62.28.3-.44.78-.84.89-1.32.89-3.97,1.72-7.95,2.55-11.93,1.29-6.16,2.56-12.31,3.86-18.56h-4.78Zm46.81,31.74c.19-.11.39-.21.58-.32-1.04-10.47-2.08-20.94-3.11-31.4h-4.77c.53,2.58,1.03,5.04,1.54,7.51,1.59,7.63,3.18,15.25,4.82,22.87.11.49.61.9.94,1.34Z"/>
  <path class="cls-1" d="m119.2,199.62c.37-4.59.35-9.06,1.14-13.38,1.77-9.61,2.1-19.27,1.93-28.99,0-.57,0-1.13,0-1.94-1.59,0-3.06,0-4.53,0-3.68,0-7.35.01-11.03,0-2.06,0-3.21-.92-3.25-2.51-.04-1.64,1.19-2.65,3.31-2.65,21.94,0,43.89,0,65.83,0,.74,0,1.47,0,2.31,0v-7.09h-89.42v7.09c2.25,0,4.53,0,6.8,0,.69,0,1.4-.07,2.06.07,1.41.3,2.21,1.21,2.11,2.7-.09,1.4-.92,2.3-2.3,2.33-3.16.08-6.32.13-9.47-.03-2.38-.12-4.36-2.32-4.44-4.74-.1-2.58-.08-5.17,0-7.75.07-2.25,1.67-4.19,3.87-4.71.88-.21,1.82-.25,2.73-.25,28.89-.01,57.79-.01,86.68,0,4.82,0,6.66,1.85,6.67,6.65,0,1.44,0,2.87,0,4.31,0,4.75-1.82,6.59-6.51,6.59-11.14,0-22.29,0-33.43,0h-1.92c-.08.32-.18.52-.18.73-.13,9.77-.03,19.5,1.72,29.18.74,4.1.74,8.33,1.07,12.51.04.56,0,1.13,0,1.77,1.18.21,2.26.31,3.29.59,4.41,1.18,7.55,5.1,7.8,9.64.15,2.67-1.27,4.38-3.91,4.39-11.95.05-23.9.05-35.84,0-2.64,0-4.06-1.72-3.91-4.39.29-5.24,4.44-9.54,9.66-10.01.4-.04.79-.07,1.17-.11Zm16.58-.02c0-.7.05-1.32,0-1.93-.57-5.59-.99-11.2-1.79-16.75-1.13-7.83-1-15.68-1.01-23.55,0-.66,0-1.32,0-2.06-1.14,0-2,0-2.85,0s-1.68,0-2.58,0c-.05.48-.1.76-.09,1.03.31,11.05-.37,22.01-2.29,32.92-.59,3.35-.46,6.82-.66,10.34h11.28Zm-21.87,9.26h32.6c-.61-2.34-2.34-3.93-4.68-3.95-7.75-.07-15.51-.07-23.26,0-2.33.02-4.07,1.62-4.67,3.95Z"/>
  <path class="cls-1" d="m213.66,177.55c.99,9.88,1.98,19.65,2.95,29.42.09.86.25,1.74.13,2.57-.13.93-.35,1.97-.87,2.71-1.75,2.5-4.44,2.12-6.92,1.79-2.07-.27-3.26-1.73-3.69-3.81-2.15-10.33-4.32-20.66-6.49-30.99-.13-.61-.29-1.21-.47-1.91-5.16,0-10.26,0-15.37,0-2.41,0-4.83.06-7.24-.03-1.17-.04-1.54.4-1.76,1.5-2.14,10.45-4.33,20.89-6.53,31.33-.7,3.34-3.26,4.66-7.57,4.01-2.44-.37-4.2-2.53-4-5.01.2-2.46.49-4.91.73-7.37.75-7.6,1.49-15.2,2.27-22.79.11-1.08,0-1.73-1.18-2.23-1.99-.85-2.8-2.58-2.76-4.74.13-6.2,5.2-11.15,11.66-11.19,11.6-.06,23.21-.02,34.81-.02.67,0,1.34,0,2.12,0-.48-6.62-.95-13.03-1.42-19.44-.39-5.27-.86-10.53-1.17-15.81-.33-5.47,3.42-9.64,8.61-9.77,5.03-.12,8.91,3.91,8.92,9.33.01,15.4,0,30.79,0,46.19,0,4.05-.87,5.21-4.77,6.26Zm-.47-5.8c.04-.63.07-.95.07-1.28,0-15.1,0-30.19,0-45.29,0-.4,0-.81-.06-1.2-.32-1.8-1.88-3.05-3.66-3-1.88.06-3.37,1.47-3.48,3.38-.05.8.05,1.6.1,2.41.3,4.06.6,8.13.91,12.19.67,8.81,1.31,17.62,2.01,26.43.21,2.69,1.58,4.72,4.11,6.37Zm-9.57-5.79c-6.55,0-13.2,0-19.85,0-5.74,0-11.48-.03-17.22.02-3.68.03-6.38,2.67-6.33,6.07h45.62c-.73-2-1.43-3.91-2.23-6.09Zm-42.55,42.77l.62.42c.31-.47.79-.91.9-1.43,1.53-7.11,3.01-14.24,4.49-21.36.62-2.95,1.23-5.91,1.86-8.97h-4.77c-1.04,10.48-2.07,20.91-3.11,31.33Zm42.6-31.34c.57,2.72,1.11,5.35,1.66,7.99,1.53,7.35,3.05,14.69,4.59,22.04.32,1.52.33,1.52,1.66,1.35-1.04-10.46-2.09-20.92-3.13-31.37h-4.77Z"/>
</svg>