<?xml version="1.0" encoding="UTF-8"?>
<svg id="Layer_1" data-name="Layer 1" xmlns="http://www.w3.org/2000/svg" viewBox="0 0 127 127">
  <defs>
    <style>
      .cls-1 {
        fill: #637481;
      }
    </style>
  </defs>
  <path class="cls-1" d="m78.95,37.18v-.52c0-.3-.05-.5-.16-.59s-.3-.14-.59-.14v2.11c.28,0,.47-.04.58-.11s.17-.32.17-.74Z"/>
  <path class="cls-1" d="m71.62,36.42c-.25,1.82-.41,3.14-.47,3.98h.85c-.12-1.07-.25-2.4-.38-3.98Z"/>
  <path class="cls-1" d="m55.99,37.18v-.52c0-.3-.05-.5-.16-.59s-.3-.14-.59-.14v2.11c.28,0,.47-.04.58-.11s.17-.32.17-.74Z"/>
  <path class="cls-1" d="m108.23,55.21c-3.12,0-6.25,0-9.46,0v-6.9c2.87,0,5.74,0,8.61,0,2.88,0,3.95-1.04,3.96-3.87.01-3.25.02-6.51,0-9.76-.02-2.6-1.16-3.73-3.79-3.73-28.62,0-57.24,0-85.86,0-2.56,0-3.62,1.06-3.63,3.62-.02,3.37-.02,6.75,0,10.12.02,2.72.98,3.62,3.77,3.62,2.83,0,5.66,0,8.64,0v6.9h-10.07c-6.77,0-7.48.7-7.48,7.43,0,10.43,0,20.85,0,31.28,0,.71-.11,1.43-.16,2.14h101.49v-36.54c-1.22-3.63-2.16-4.31-6.02-4.31Zm-18.4-20.91h4.11v1.9h-1.65v1.8h1.54v1.8h-1.54v2.09h1.81v1.9h-4.28v-9.49Zm7.57,37.35h-6.81v-7.3h6.81v7.3Zm.03,3.16v7.27h-6.84v-7.27h6.84Zm-2.21-19.72h-60.98v-6.66h60.98v6.66Zm-12.42-20.79h2.47v3.69l1.1-3.69h2.31l-1.42,4.28,1.55,5.2h-2.55l-1-4.07v4.07h-2.47v-9.49Zm-7.06,0h1.75c1.16,0,1.95.04,2.36.13s.75.32,1.01.69.39.96.39,1.77c0,.74-.09,1.23-.28,1.49s-.54.41-1.08.46c.49.12.82.28.98.49s.27.39.31.56.06.64.06,1.4v2.5h-2.29v-3.15c0-.51-.04-.82-.12-.94s-.29-.18-.63-.18v4.28h-2.47v-9.49Zm-6,0h3.56l1.41,9.49h-2.52l-.13-1.71h-.88l-.15,1.71h-2.55l1.26-9.49Zm-9.9,0h3.19c.09.57.19,1.24.29,2.02l.35,2.41.57-4.43h3.21v9.49h-2.16v-6.4s-.86,6.4-.86,6.4h-1.53l-.91-6.26v6.26h-2.16v-9.49Zm-7.06,0h1.75c1.16,0,1.95.04,2.36.13s.75.32,1.01.69.39.96.39,1.77c0,.74-.09,1.23-.28,1.49s-.54.41-1.08.46c.49.12.82.28.98.49s.27.39.31.56.06.64.06,1.4v2.5h-2.29v-3.15c0-.51-.04-.82-.12-.94s-.29-.18-.63-.18v4.28h-2.47v-9.49Zm-5.59,0h4.11v1.9h-1.65v1.8h1.54v1.8h-1.54v2.09h1.81v1.9h-4.28v-9.49Zm-6.62,0h2.48c.67,0,1.19.05,1.55.16s.63.26.81.46.3.44.37.72.1.72.1,1.32v.83c0,.61-.06,1.05-.19,1.32s-.35.49-.69.64-.77.22-1.31.22h-.66v3.82h-2.47v-9.49Zm-7.2,0h2.47v7.11c0,.41.02.68.07.79s.14.17.27.17c.16,0,.26-.06.3-.19s.07-.43.07-.9v-6.99h2.47v6.34c0,.72-.02,1.22-.07,1.51s-.19.59-.42.9-.53.54-.91.7-.82.24-1.33.24c-.57,0-1.07-.09-1.5-.28s-.76-.43-.97-.73-.34-.62-.38-.95-.06-1.04-.06-2.11v-5.61Zm-4.07,9.69c-.66,0-1.22-.12-1.69-.38s-.77-.57-.92-.96-.22-.94-.22-1.65v-.62h2.29v1.15c0,.36.03.58.1.69s.18.15.34.15.29-.06.37-.19.12-.32.12-.57c0-.56-.08-.92-.23-1.1-.16-.17-.54-.46-1.15-.86-.61-.41-1.02-.7-1.22-.88s-.36-.44-.5-.76-.2-.74-.2-1.24c0-.73.09-1.26.28-1.59s.49-.6.9-.79.91-.28,1.5-.28c.64,0,1.19.1,1.64.31s.75.47.9.78.22.85.22,1.6v.38h-2.29v-.7c0-.33-.03-.54-.09-.63s-.16-.13-.29-.13c-.15,0-.26.06-.34.18-.08.12-.11.31-.11.55,0,.32.04.56.13.72.08.16.31.35.7.58,1.1.65,1.79,1.19,2.08,1.6s.43,1.09.43,2.02c0,.68-.08,1.17-.24,1.49s-.46.59-.92.81-.98.33-1.58.33Zm.3,20.46h6.82v7.3h-6.82v-7.3Zm-.02,10.33h6.79v7.33h-6.79v-7.33Zm-10.47-10.42h6.82v7.29h-6.82v-7.29Zm6.86,10.46v7.28h-6.83v-7.28h6.83Zm0,17.6h-6.87v-7.16h6.87v7.16Zm10.45.06h-6.86v-7.17h6.86v7.17Zm26.43,0h-19.17v-24.88h19.17v24.88Zm20.47,0h-19.16v-24.96h19.16v24.96Zm14.1-.02h-6.85v-7.17h6.85v7.17Zm1.34-48.67h-2.47v-7.59h-1.46v-1.9h5.39v1.9h-1.46v7.59Zm2.29,20.64h6.79v7.28h-6.79v-7.28Zm6.84,27.97h-6.85v-7.15h6.85v7.15Zm.03-10.34h-6.87v-7.22h6.87v7.22Z"/>
  <path class="cls-1" d="m43.68,38.18c.09-.11.13-.34.13-.69v-.78c0-.32-.05-.54-.15-.63s-.31-.15-.63-.15v2.41c.07,0,.13,0,.18,0,.23,0,.38-.06.47-.17Z"/>
</svg>