<?xml version="1.0" encoding="UTF-8"?>
<svg id="Layer_1" data-name="Layer 1" xmlns="http://www.w3.org/2000/svg" viewBox="0 0 126.83 126.83">
  <defs>
    <style>
      .cls-1 {
        fill: #637481;
      }
    </style>
  </defs>
  <path class="cls-1" d="m110.47,81.45c-.34.6-.84.78-1.52.78-9.65-.02-19.29-.01-28.94-.01-1.21,0-1.52-.31-1.52-1.52,0-1.84,0-3.67,0-5.51,0-1.31.31-1.63,1.61-1.63,6.86,0,13.72,0,20.58,0,.33,0,.66,0,1.1,0,0-.44,0-.8,0-1.16,0-7.93,0-15.86,0-23.79,0-1.56.2-1.77,1.73-1.77,1.75,0,3.49-.05,5.24.03.58.03,1.15.38,1.72.58v34Z"/>
  <path class="cls-1" d="m110.47,104.79c-.56.22-1.12.61-1.69.64-1.68.09-3.36.05-5.04.02-.95-.01-1.34-.41-1.34-1.36,0-6.42,0-12.84,0-19.26,0-.09.03-.18.07-.45h8.01v20.4Z"/>
  <path class="cls-1" d="m86.96,61.81c2.37,0,4.64,0,6.9,0,1.4,0,1.71.31,1.71,1.73,0,.67,0,1.35,0,2.02-.02,2.64-1.67,4.32-4.3,4.32-7.84.01-15.68,0-23.52,0-10.6,0-21.19-.06-31.79.04-3.07.03-4.97-2.05-4.73-4.76.05-.55,0-1.1,0-1.65,0-1.37.32-1.69,1.66-1.69,1.99,0,3.98,0,5.97,0,.3,0,.6,0,.97,0-.2-.76-.39-1.43-.57-2.1-.37-1.39,0-1.86,1.46-1.87,2.48,0,4.96,0,7.44,0,12.56,0,25.11,0,37.67,0,1.8,0,2.09.38,1.64,2.16-.14.56-.32,1.11-.53,1.81Z"/>
  <path class="cls-1" d="m25.04,73.55c1.15,0,2.16,0,3.17,0,6.15,0,12.31,0,18.46,0,1.36,0,1.66.3,1.67,1.67,0,1.87,0,3.74,0,5.6,0,1.03-.35,1.39-1.37,1.39-9.74,0-19.47,0-29.21,0-1.02,0-1.38-.37-1.39-1.38,0-10.87,0-21.74,0-32.61,0-1.02.37-1.38,1.39-1.39,1.93-.01,3.86-.01,5.79,0,1.21,0,1.5.29,1.5,1.54,0,7.99,0,15.98,0,23.97,0,.36,0,.72,0,1.21Z"/>
  <path class="cls-1" d="m64.53,35.11v2.28c6.53.48,11.89,3.19,16,8.27,2.33,2.88,3.79,6.17,4.43,9.91h-43.14c.35-1.34.68-2.6,1.09-4.13.39.54.64.89.9,1.23.95,1.22,2.47,1.73,3.85,1.07,2.06-.99,4.15-2,6.02-3.29,1.19-.82,2.22-2.04,2.95-3.3,1.38-2.41.69-5.24-1.44-7.02-.28-.23-.58-.45-.92-.71,2.54-1.26,5.21-1.79,7.98-2.04v-2.28c-1.04,0-2.04,0-3.04,0-.99,0-1.48-.38-1.49-1.1,0-.73.48-1.1,1.48-1.1,2.79,0,5.57,0,8.36,0,.98,0,1.5.39,1.5,1.09,0,.69-.54,1.11-1.49,1.11-.98,0-1.95,0-3.02,0Z"/>
  <path class="cls-1" d="m16.44,84.47h7.95c.02.34.05.64.05.93,0,6.12,0,12.24,0,18.36,0,1.38-.31,1.7-1.65,1.7-1.68,0-3.37.02-5.05,0-.96-.01-1.36-.4-1.37-1.33,0-6.46,0-12.91,0-19.37,0-.06.02-.12.06-.29Z"/>
  <path class="cls-1" d="m40.35,84.47h7.95c.02.33.04.63.05.92,0,6.12,0,12.24,0,18.36,0,1.42-.29,1.71-1.72,1.71-1.65,0-3.3.01-4.96,0-.96-.01-1.38-.4-1.38-1.32,0-6.46,0-12.91,0-19.37,0-.06.02-.12.06-.29Z"/>
  <path class="cls-1" d="m78.54,84.47h7.96c.02.33.05.63.05.92,0,6.12,0,12.24,0,18.36,0,1.41-.31,1.71-1.74,1.71-1.65,0-3.3.01-4.96,0-.97-.01-1.36-.39-1.37-1.32,0-6.4,0-12.79,0-19.19,0-.15.03-.29.05-.48Z"/>
  <path class="cls-1" d="m61.21,72.15h6.14v26.12h-6.14v-26.12Z"/>
  <path class="cls-1" d="m49.01,41.21c1.26-.58,2.51-.57,3.75-.02,2.27,1.01,3.05,3.43,1.64,5.47-.59.86-1.4,1.66-2.28,2.22-1.62,1.02-3.35,1.89-5.08,2.72-.36.17-1.17.06-1.37-.22-1.57-2.11-3.16-4.23-3.89-6.81-.63-2.22.03-4.01,1.68-4.85,1.83-.93,4.02-.37,5.55,1.48Z"/>
  <path class="cls-1" d="m64.23,106.32c-2.45,0-4.9,0-7.34,0-1.19,0-1.52-.35-1.53-1.53,0-.46-.02-.92,0-1.38.09-1.68,1.29-2.85,2.97-2.86,3.95-.02,7.9-.01,11.84,0,1.75,0,2.94,1.2,2.98,2.93q.08,2.84-2.78,2.84c-2.05,0-4.1,0-6.15,0Z"/>
  <path class="cls-1" d="m78.44,24.27c2.41,1.45,3.18,3.61,2.25,6.1-.14.36-.34.73-.59,1.02-.42.46-1.03.62-1.45.13-.27-.32-.34-.91-.3-1.37.05-.53.4-1.02.46-1.55.13-1.18-.24-1.73-1.31-2.23-1.4-.66-1.85-1.84-.92-3.05.77-.99,1.81-1.8,2.8-2.59.47-.38,1.07-.23,1.44.31.37.55.24,1.06-.24,1.47-.69.59-1.4,1.16-2.14,1.76Z"/>
  <path class="cls-1" d="m85.04,24.28c2.43,1.4,3.24,3.83,2.2,6.27-.13.3-.29.71-.54.82-.42.18-1.01.33-1.39.18-.57-.23-.61-.81-.38-1.42.23-.61.46-1.27.49-1.91.04-.85-.36-1.48-1.23-1.84-1.54-.64-1.94-1.94-.9-3.24.71-.89,1.65-1.62,2.55-2.34.54-.44,1.18-.37,1.6.24.4.59.19,1.1-.33,1.52-.68.56-1.35,1.11-2.07,1.71Z"/>
  <path class="cls-1" d="m71.79,24.29c2.51,1.34,3.36,4.2,2.1,6.55-.44.83-1.06,1.13-1.69.81-.65-.33-.75-.9-.3-1.79.76-1.49.33-2.83-1.15-3.56-1.2-.59-1.68-1.74-.88-2.8.81-1.07,1.9-1.96,2.95-2.81.46-.37,1.08-.17,1.42.39.35.57.16,1.06-.32,1.46-.68.56-1.36,1.11-2.14,1.75Z"/>
</svg>