<?xml version="1.0" encoding="UTF-8"?>
<svg id="Layer_2" data-name="Layer 2" xmlns="http://www.w3.org/2000/svg" viewBox="0 0 260.41 252.23">
  <defs>
    <style>
      .cls-1 {
        fill: #637481;
      }
    </style>
  </defs>
  <path class="cls-1" d="m106.71,199.1c-3.77,0-7.37.1-10.96-.09-.61-.03-1.5-1.23-1.67-2.01-2.85-12.73-5.51-25.51-8.41-38.23-1.5-6.59-3.32-13.1-5.07-19.62-2.73-10.19-5.49-20.37-8.37-30.52-.29-1.01-1.33-2.21-2.3-2.57-11.36-4.26-21.09-10.76-28.56-20.41-1.27-1.64-2.77-3.46-3.06-5.37-.3-1.92.29-4.36,1.34-6.03,7.13-11.42,17.9-17.54,30.8-20.09,12.42-2.46,24.11-.63,34.56,6.97,3.32,2.41,4.1,5.35,2.66,9.24-1.85,4.97-3.37,10.1-5.61,14.89-2.89,6.19-7.19,11.48-12.03,16.32-.72.72-1.33,2.09-1.2,3.04,1.32,9.53,2.45,19.1,4.31,28.53,4.2,21.28,8.78,42.49,13.2,63.73.14.66.23,1.32.39,2.25Zm-20.26-64.09c.9-.52,1.8-1.04,3.04-1.75-2.2-12.63-4.34-25.41-6.67-38.15-.94-5.13-1.53-5.34-6.61-3.94-.41.11-.82.26-1.23.38-1.73.5-2.47,1.3-1.9,3.37,3.48,12.75,6.8,25.54,10.23,38.3.19.7.94,1.24,1.43,1.86-.21,1.23-.41,2.47-.68,4.05,2.22-.44,3.66-.6,5.01-1.05.49-.17,1.16-1.12,1.05-1.52-.2-.74-.8-1.6-1.47-1.9-.56-.25-1.45.22-2.2.37Zm-46.61-52.37c7.05-11.95,17.59-18.63,30.58-21.58,13.18-2.98,25.57-1.05,36.87,7.17.56-3-.52-4.92-2.64-6.44-12.85-9.18-26.8-9.79-41.25-4.97-9.8,3.27-17.87,9.07-23.36,18.06-1.48,2.42-1.88,4.88-.2,7.75Zm6.89.61c5.15,8.45,12.48,14.56,20.79,19.58.83.5,2.01.43,3.02.63.06-.24.11-.49.17-.73-9.49-4.68-16.6-12.23-23.98-19.48Zm44.59,50.79c.38-.09.76-.18,1.15-.27-2.52-13.65-3.53-27.58-7.51-40.96,2.12,13.74,4.24,27.49,6.36,41.23Zm-20.52-37.84c1.97,13.69,6.69,26.75,10.19,40.13.36-.1.72-.19,1.09-.29-3.76-13.28-7.52-26.56-11.28-39.85Zm-.96,2.09c-6.91-5.06-10.56-12.69-15.49-19.28,1.28,6.73,10.93,18.98,15.49,19.28Zm-3.64-27.66c1.91,6.82,3.66,13.7,8.02,19.53-1.63-6.93-4.88-13.21-8.02-19.53Zm15.06,16.76c.19.01.37.02.56.03v-19.57c-.19,0-.37-.02-.56-.03v19.57Zm-22.58-11.1c-.2.19-.39.39-.59.58,4.12,4.87,6.6,11.16,12.37,14.59.24-.21.47-.41.71-.62-4.16-4.85-8.32-9.7-12.48-14.55Zm25.45,13.02c.25.12.51.24.76.36,3.97-6.57,6.97-13.59,9.67-20.76-.23-.11-.47-.22-.7-.34-3.24,6.91-6.49,13.82-9.73,20.73Zm.61,50.68c.35,1.13.68,2.16,1.04,3.3,1.81-.42,3.44-.8,5.02-1.17.11-3.99-.9-4.36-6.05-2.14Zm11.93-61.69c-2.98,4.32-5.95,8.64-8.93,12.96.2.13.41.26.61.4,3.98-3.69,6.21-8.53,8.32-13.36Zm-5.45,18.06c4.2-2.95,8.57-9.16,8.54-12.32-2.91,4.19-5.66,8.16-8.54,12.32Zm-14.25-7.86l1.42-.2c-.64-3.45-1.27-6.91-1.91-10.36-.22.04-.44.07-.65.11.38,3.48.76,6.97,1.14,10.45Z"/>
  <path class="cls-1" d="m161.82,198.99h-17.21c1.11-5.88,2.18-11.58,3.26-17.28,1.62-8.52,3.59-16.98,4.79-25.56,1.71-12.2,2.85-24.48,4.24-36.73.45-4.01.62-8.08,1.43-12.02,1.23-5.98-.72-11.55-1.54-17.28-.62-4.32-1-8.68-1.47-13.03-.68-6.32,3.01-10.05,8.79-10.97,9.45-1.5,18.5.25,26.87,4.87,4.91,2.71,8.37,7.87,4.71,14.58-2.83,5.19-5.63,10.42-8.78,15.41-2.09,3.31-3.7,6.69-4.68,10.48-3.02,11.63-6.55,23.13-9.25,34.83-3.78,16.33-6.99,32.8-10.44,49.21-.23,1.09-.45,2.17-.73,3.5Zm8.05-50.92c1,.49,1.67.52,2.03-.85,3.54-13.27,7.14-26.53,10.73-39.79.41-1.51-.09-2.28-1.9-2.22-2.28,8.81-4.59,17.6-6.83,26.41-1.39,5.48-2.69,10.98-4.03,16.47l-.9,4.04c.12.2.25.4.37.6.64-.4,1.86-.91,1.81-1.18-.23-1.19-.82-2.31-1.28-3.45Zm-3.35-1.39c3.53-14.64,6.98-28.91,10.5-43.5-3.82-.68-7.22-1.29-10.78-1.93-2.09,14.98-4.11,29.48-6.16,44.19,2.19.42,4.18.8,6.45,1.24Zm29.66-63.95c.07-1.48.26-2.49.14-3.46-.39-3.24-2.39-5.43-4.97-7.17-4.6-3.09-9.85-4.33-15.22-5.16-4.69-.73-9.4-1.09-14,.52-3.39,1.19-5.63,3.4-6.06,7.31,13.1-8.98,33.09-5.17,40.11,7.96Zm-34.1,18.79c-2-.51-2.49.28-2.66,1.89-.93,8.7-1.96,17.39-2.94,26.08-.59,5.26-1.14,10.52-1.71,15.79.28.14.57.27.85.41.43-.71,1.15-1.38,1.26-2.14.7-4.92,1.26-9.87,1.87-14.81,1.11-9.02,2.21-18.03,3.33-27.22Zm12.02-3.05c2.72-8.01,5.66-15.95,6.25-24.51-2.72,8.01-5.48,16-6.25,24.51Zm.32-25.51c-2.29,3.27-4.24,21.52-3.28,24.84.23.02.47.05.7.07.86-8.31,1.72-16.61,2.58-24.92Zm16.89,5.26c-3.8,7.05-7.59,14.11-11.39,21.16.26.13.51.26.77.4,3.54-7.19,9.68-13.02,10.62-21.56Zm-29.21-5.64c-2.16,8.34,1.33,16.04,2.13,24.04.25-.03.5-.06.75-.09-.96-7.99-1.91-15.97-2.87-23.96Zm4.06,79.18c-2.79-.53-4.86-.92-7.46-1.41.1,1.58-.21,3.53.33,3.8,1.54.77,3.45,1.18,5.16,1.06.64-.05,1.16-1.94,1.98-3.44Zm-7.86-75.11c-.83,4.78,1.7,18.06,4.24,20.96-1.37-6.77-2.74-13.54-4.24-20.96Zm7.51,74.36c.32-1.54,1.87-3.08-.6-3.91-1.28-.43-2.68-.47-4.02-.75-1.65-.34-2.01.88-1.97,1.94.03.62.86,1.51,1.51,1.72,1.52.49,3.15.64,5.08,1Zm19.38-70.07c-.35-.15-.7-.31-1.04-.46-2.32,6.51-4.65,13.02-6.97,19.53.2.08.41.15.61.23,2.47-6.43,4.94-12.86,7.41-19.3Zm-17.59-3.5c-.19.02-.38.05-.57.07v20.3c.19,0,.38,0,.57,0v-20.38Zm-11.91,73.18c-2.24-.55-2.19,1.13-2.13,2.38.02.5,1.05.96,2.13,1.87v-4.25Zm13.53,6.53c1.62-3.06,1.54-3.47-.84-3.91.35,1.29-2.13,3.07.84,3.91Zm-13.07-10.99c-2.04-.17-2.43,1.04-2.21,2.41.09.54.98.95,1.87,1.76.15-1.89.24-2.95.34-4.17Z"/>
  <path class="cls-1" d="m132.51,199.01h-12.56c-.09-.72-.23-1.37-.24-2.02-.02-3.18-.12-6.36,0-9.54.54-13.15-1.37-25.85-5.67-38.35-2.39-6.94-4.63-14.25-4.94-21.48-.31-7.03-2.81-13.34-3.85-20.05-.48-3.06.23-4.53,3.25-5.49,2.03-.65,4.68-1.14,6.28-1.24,6.8-.4,19.16-.92,27.23.7.75.15,2,.52,2.9.97,2.34,1.18,2.61,2.8,1.9,5.33-1.47,5.28-3.8,10.71-3.55,15.97.28,5.74-1.18,10.92-2.35,16.19-1.58,7.1-4.17,13.96-6.08,20.99-.86,3.18-1.48,6.5-1.61,9.79-.36,8.65-.39,17.32-.56,25.98-.01.67-.09,1.34-.16,2.24Zm1.91-58.18c.51-4.63,1.06-9.69,1.63-14.89h-19.75c.59,5.26,1.15,10.32,1.66,14.89h16.46Zm-11.48,23.55h6.51c1.63-7.56,3.22-14.98,4.85-22.53h-16.23c1.66,7.67,3.27,15.09,4.88,22.53Zm-17.8-58.46c14.38-3.08,27.86-3.49,41.46.44-.33-3.38-2.99-3.84-5.34-4.22-9.38-1.52-18.82-1.37-28.24-.34-1.68.18-3.39.64-4.93,1.34-.99.44-1.68,1.54-2.96,2.79Zm37.69,20.2c-2.18-.43-2.14-.42-2.52,1.4-1.67,7.96-3.27,15.93-5.08,23.85-.91,4-2.24,7.91-3.31,11.88-.18.67-.03,1.42-.03,2.14,3.19-4.92,10.93-33.83,10.95-39.27Zm-33.42-.08c1.8,13.64,6.31,26.46,10.88,39.31.27-1.15.19-2.24-.12-3.27-3.41-11.33-6.81-22.66-8.07-34.49-.2-1.83-.99-2.12-2.68-1.55Zm20.05,47.32c-.23-1.36-.18-3.51-.68-3.64-1.65-.45-3.57-.42-5.23,0-.47.12-.41,2.27-.61,3.64h6.52Zm.44-4.81c-.45-1.34-.65-3.05-1.1-3.12-1.79-.27-3.69-.2-5.48.14-.37.07-.41,1.83-.64,2.98h7.21Z"/>
  <path class="cls-1" d="m181.95,199.12c.86-5.13,1.69-9.87,2.43-14.64.77-4.92,1.46-9.85,2.17-14.78.95-6.54,1.71-13.12,2.91-19.62,1.01-5.46-.92-10.54-1.29-15.81-.33-4.7-.86-9.42-.74-14.12.13-5.15,2.75-9.34,6.65-12.63,10.46-8.82,29.46-3.75,34.11,9.11,1.76,4.86,2.05,9.86-.56,14.48-3.16,5.59-6.77,10.93-10.04,16.45-1.64,2.77-3.33,5.61-4.37,8.63-3.43,9.98-6.61,20.04-9.82,30.1-.93,2.91-1.62,5.89-2.4,8.85-.9,3.42-1.61,3.98-5.09,3.97-4.53,0-9.07,0-13.95,0Zm18.56-10.57c.61-.49,1.57-.86,1.77-1.49,3.73-11.24,7.33-22.53,11.06-33.78.59-1.77-.06-2.28-1.68-2.6-3.8,12.14-7.58,24.17-11.32,36.21-.15.5.14,1.13.24,1.72-.56,1.14-1.12,2.28-1.69,3.43.17.23.33.47.5.7.65-.32,1.5-.48,1.91-1,1.06-1.3.1-2.28-.8-3.2Zm-3.23-42.28c-2.3,13.22-4.52,25.94-6.78,38.87,2.23.52,4.26,1,6.4,1.5,3.71-12.74,7.34-25.18,11.05-37.93-3.75-.86-7.06-1.61-10.67-2.44Zm-8.86-27.14c6.1-7.01,13.87-7.32,21.99-5.49,8.25,1.86,15.11,5.66,17.48,14.76,1.72-7.35.38-13.91-5.39-18.78-6.85-5.79-14.9-7.34-23.37-4.18-6.14,2.29-9.51,7.2-10.72,13.69Zm4.7,27.2c-2.23-.46-2.52.59-2.73,2.08-1.27,9.17-2.64,18.32-3.96,27.48-.43,3.01-.81,6.04-1.21,9.06.3.13.61.25.91.38.42-.7,1.09-1.36,1.22-2.11,1.26-7.61,2.43-15.23,3.62-22.85.72-4.63,1.42-9.27,2.15-14.04Zm8.73-2.77c1.86-2.9,4.91-22.37,3.96-25.84-2.69,8.78-2.97,17.37-3.96,25.84Zm10.58-23.83c-2.97,8.02-6.25,15.95-7.3,24.55,3.04-8,6.43-15.9,7.3-24.55Zm-17.01,22.3c.28-.02.56-.04.84-.06-.64-8.1-1.29-16.2-1.93-24.3-.21.01-.43.03-.64.04-1.74,8.27,1.21,16.21,1.74,24.31Zm27.83-17.65c-3.97,6.69-7.94,13.38-11.91,20.08.26.15.53.3.79.45,3.69-6.85,9.96-12.24,11.12-20.52Zm-32.52,61.51c-.35.56-1.13,1.26-1.16,2-.02.61.71,1.52,1.34,1.83.97.47,2.17.43,3.22.79,1.23.42,2.14.5,2.51-1.06.33-1.39.05-2.32-1.51-2.6-1.26-.23-2.5-.54-4.4-.95Zm5.35,5.79c-2.14-.53-3.77-1.07-5.44-1.27-.53-.07-1.49.63-1.68,1.18-.24.69-.11,2.16.24,2.3,1.65.62,3.45,1.2,5.17,1.15.56-.02,1.05-1.99,1.71-3.35Zm-3.28-48.84c.32-.06.64-.12.96-.18-1.1-6.83-2.2-13.66-3.3-20.5-1.09,7.17.98,13.87,2.34,20.67Zm15.54,2.46c.19.11.39.22.58.33,2.73-6.35,5.45-12.7,8.18-19.05-.34-.14-.68-.29-1.01-.43-2.58,6.38-5.17,12.76-7.75,19.14Zm-10.46-2.58c.21.04.41.08.62.12.47-6.71.94-13.41,1.42-20.12-.36-.02-.72-.04-1.07-.06-.32,6.68-.64,13.37-.96,20.05Zm-12.97,51.28c.28-.19.55-.38.83-.57.07-1.15.14-2.3.22-3.46-2.22-.34-2.3,1.13-2.23,2.4.03.57.76,1.09,1.18,1.64Zm.74-4.51c.19-.15.38-.31.57-.46.1-1.05.21-2.1.32-3.2-1.88-.55-2.39.56-2.23,1.99.07.6.87,1.12,1.35,1.68Zm11.93,6.61l.36.87c.66-.3,1.62-.43,1.9-.94.65-1.16,1.04-2.54-1.08-3.03-.41,1.09-.8,2.09-1.18,3.09Z"/>
  <path class="cls-1" d="m78,199.1c-5.58,0-10.81.04-16.04-.05-.55,0-1.36-.67-1.58-1.22-.96-2.35-1.96-4.73-2.57-7.19-1.44-5.89-2.59-11.84-4.01-17.74-1.53-6.34-3.18-12.64-4.93-18.92-.27-.97-1.28-1.76-2.01-2.57-1.2-1.32-2.7-2.43-3.63-3.91-3.76-5.95-7.37-12-10.99-18.03-2.1-3.51-1.9-6.23,1.06-9.05,7.68-7.3,16.83-9.65,27.1-7.39,3.84.84,5.47,3.13,5.45,7.05-.04,7.47-.16,14.95-.32,22.42-.02,1.09-.07,2.48-.7,3.21-1.68,1.92-.93,3.74-.37,5.69,2.83,9.81,5.58,19.63,8.47,29.43.72,2.44,2.01,4.72,2.67,7.17.95,3.52,1.55,7.13,2.39,11.11Zm-33.6-80.81c.17-.14.35-.28.52-.42.9,1.85,1.81,3.71,2.71,5.56.1-.03.19-.06.29-.09-.2-1.32-.41-2.64-.61-3.97.17-.02.34-.05.51-.07.62,1.1,1.24,2.2,2.1,3.74.14-1.62.23-2.61.32-3.61.14,0,.28,0,.42,0,.54,1.64,1.09,3.28,1.63,4.92.1-.03.21-.07.31-.1-.11-1.79-.23-3.58-.34-5.37.21-.03.42-.06.63-.09.57,2.4,1.14,4.79,1.71,7.19.21-.03.42-.06.63-.09v-6.35c.16,0,.33-.01.49-.02.26,1.18.52,2.37.95,4.31.36-1.81.57-2.88.79-3.96.14,0,.27-.02.41-.03.39,1.94.78,3.87,1.17,5.81.13-.01.26-.02.39-.03.16-2.9.33-5.8.49-8.69.19,0,.37-.01.56-.02.38,2.01.76,4.01,1.13,6.02.09,0,.18-.02.27-.03l.4-3.68c.17,0,.33,0,.5,0,.15.57.3,1.14.48,1.83,2.32-2.96,1.73-5.23-1.64-6.74-.93-.41-1.95-.83-2.94-.85-3.41-.1-6.89-.43-10.23.07-5.82.87-10.92,3.5-14.98,7.88-1.54,1.66-2.58,3.71-1.39,5.84.62,1.11,2.21,1.68,3.78,2.78-.76-1.54-1.3-2.62-1.84-3.71.21-.15.42-.3.63-.45l1.48,2.31.36-.28c-.27-1.12-.55-2.25-.82-3.37.12-.07.25-.14.37-.21.96,1.17,1.92,2.35,3.35,4.1-.46-1.49-.69-2.23-.92-2.97.15-.09.29-.17.44-.26,1.05,1.29,2.11,2.57,3.16,3.86.12-.06.24-.11.36-.17-.55-1.92-1.1-3.83-1.65-5.75.16-.07.31-.13.47-.2l2.33,3.95c.07-.04.14-.07.22-.11-.33-1.4-.66-2.81-1-4.21.16-.05.31-.11.47-.16.97,1.66,1.93,3.32,2.9,4.98.13-.05.26-.1.39-.16-.71-2.97-1.42-5.94-2.13-8.91Zm8.2,31.35c3.2,12.16,6.33,24.06,9.48,36.04,2.36-.67,4.47-1.26,6.81-1.93-3.44-12-6.83-23.82-10.27-35.82-2.14.61-4.01,1.13-6.03,1.7Zm19.61,34.18c.21-.18.43-.36.64-.53-3.28-11.45-6.55-22.9-9.89-34.33-.17-.57-.93-.95-1.49-1.49-.31.51-.41.6-.39.65,3.25,11.46,6.49,22.93,9.8,34.38.15.53.88.89,1.34,1.33Zm-21.58-33.1c-.31,0-.61.01-.92.02-.06.88-.34,1.81-.13,2.62,2.14,8.4,4.37,16.78,6.57,25.16.77,2.94,1.55,5.87,2.32,8.8.35-.03.7-.05,1.05-.08,0-.81.17-1.66-.03-2.42-1.55-6.16-3.16-12.31-4.76-18.45-1.36-5.22-2.74-10.44-4.11-15.65Zm12.23,40.26c.81,1.54.09,3.91,2.77,3.36,1.99-.41,3.92-1.12,6.06-1.74-.23-1.24-.44-2.37-.72-3.83-2.84.77-5.36,1.46-8.11,2.21Zm-.29-.57c3.06-.87,5.43-1.54,8.29-2.35-.81-1.32-1.52-3.34-2.12-3.31-2.08.12-4.24.71-6.09,1.67-.52.27-.08,2.39-.08,3.99Zm12.3-2.52c-.6-1.8-.53-3.74-3.02-3.38.9,1.11-.42,3.99,3.02,3.38Zm-15.69,4.28c3.13-1.28.81-2.92.75-4.48-1.99,1.26-2.02,1.46-.75,4.48Zm14.12-3.25q.56,3.46,2.39,3.21c.12-2.94-.07-3.22-2.39-3.21Zm-12.61,3.52c-2.27,1.29-1.04,2.63-.07,4.1,2.98-1.4.17-2.77.07-4.1Z"/>
</svg>