<?xml version="1.0" encoding="UTF-8"?>
<svg id="Layer_1" data-name="Layer 1" xmlns="http://www.w3.org/2000/svg" viewBox="0 0 127 127">
  <defs>
    <style>
      .cls-1 {
        fill: #637481;
      }
    </style>
  </defs>
  <path class="cls-1" d="m56.15,85.72c-.95.12-2.15.27-3.57.44.26,1.44-.81,3.02.82,4.29.27.21.25.87.25,1.32.02,2.51-.02,5.03.02,7.54.03,1.63-.81,2.72-2.3,2.79-3.3.16-6.62.14-9.92-.02-1.54-.07-2.28-1.2-2.25-2.81.05-2.34-.05-4.68.05-7.01.03-.78.55-1.53.76-2.31.17-.63.21-1.29.36-2.22-2.81.35-5.34.67-7.86.99-1.45.18-2.89.43-4.35.52-2.14.14-3.36-.85-3.62-2.93-.98-7.94-1.92-15.88-2.87-23.83-.35-2.96-.74-5.91-1.05-8.87-.25-2.38.44-3.33,2.84-3.67,5.2-.74,10.42-1.39,15.63-2.06,5.16-.66,10.31-1.32,15.47-1.96.75-.09,1.51-.17,2.27-.21,1.6-.07,2.54.74,2.76,2.3.42,2.94.78,5.88,1.46,8.81-.17-2.96-.33-5.92-.5-8.88-.23-4.2-.31-8.41-.73-12.59-.21-2.16-1.03-4.25-1.53-6.38-.7-2.99-.11-3.76,2.96-3.98.64-.05,1.41-.37,1.89-.12.78.4,1.92,1.14,1.96,1.79.11,1.89-.25,3.8-.44,5.7-.05.51-.25,1.02-.22,1.52.49,7.04,1,14.08,1.52,21.12.01.14.11.27.46.4.15-2.39.3-4.79.45-7.18.02-.35.02-.7.04-1.05.14-3.26.52-3.68,4.18-4.1,0-2.3.71-4.99-.16-6.97-1.39-3.17-.32-6.15-.52-9.19-.08-1.26.65-1.82,1.85-1.75,1.2.06,2.2.33,2.13,1.9-.1,2.16-.09,4.32-.15,6.48,0,.29,0,.66-.16.85-2.22,2.6-.77,5.79-1.58,8.59q3.65,1.05,3.82,6.69c2.23,0,4.47.02,6.72-.02.26,0,.65-.29.74-.54,1.02-2.85,2.32-5.66,2.87-8.61.33-1.77-.54-3.77-.89-5.67-.35-1.89-.73-3.78-1.1-5.67-.28-1.44.3-2.19,1.78-2.38,7.42-.95,13.67,1.54,19.07,6.47,1.31,1.2,1.25,2.02-.12,3.16-2.61,2.17-5.28,4.25-7.85,6.46-.71.61-1.32,1.47-1.65,2.35-1.09,2.89-2.06,5.83-2.99,8.77-.16.49-.07,1.29.24,1.67,7.13,8.59,4.9,22.12-5.6,27.57-.14.07-.26.2-.49.38,1.61.67,3.19,1.22,4.67,1.98,2.54,1.31,2.89,2.18,2.47,5.01-.14.98-.04,1.98-.15,2.97-.41,3.59-3.03,6.61-6.6,7.28-8.4,1.57-16.83,1.87-25.27.28-4.04-.76-6.71-4-6.97-8.31-.07-1.16-.35-2.35-.2-3.48.16-1.19.73-2.32,1.18-3.64Zm37.15-17.8c.04-7.75-6.1-14.07-13.71-14.14-7.61-.07-13.94,6.21-14,13.87-.06,7.79,6.19,14.23,13.82,14.25,7.6.01,13.86-6.28,13.89-13.98Zm-41.63-3.58c0,.7.04,1.28,0,1.86-.11,1.47.47,2.04,1.97,1.73,1.08-.22,2.2-.27,3.3-.42,1.3-.18,2.02.38,2.19,1.65.43,3.42.84,6.83,1.26,10.25.17,1.4-.47,2.03-1.86,2.16-1.68.16-3.37.38-5.03.71-.41.08-.73.66-1.09,1.01.13.15.25.31.38.46,3.28-.42,6.55-.84,9.89-1.27.03-.4.09-.68.06-.96-1.24-11.07-2.49-22.15-3.75-33.22-.19-1.64-1.25-2.12-2.74-1.94-3.25.39-6.49.79-9.73,1.2-7.47.94-14.94,1.91-22.42,2.83-1.31.16-1.79.68-1.57,2.08.5,3.17.83,6.36,1.24,9.55.94,7.35,1.87,14.7,2.83,22.05.24,1.84,1.5,2.82,3.29,2.6,3.41-.42,6.82-.88,10.24-1.33.07-.17.14-.35.2-.52-.39-.17-.8-.51-1.17-.47-2.61.28-5.21.65-7.82.97-1.97.25-2.58-.16-2.86-2.11-.44-3.12-.85-6.24-1.19-9.38-.27-2.48.16-2.88,2.73-3.17,3.36-.39,6.72-.84,10.13-1.27.38-1.1.9-2.14,1.07-3.25.18-1.2.03-2.45.03-3.67,0-1.52-.09-3.05.04-4.55.08-.89.52-1.75.76-2.63.19-.68.49-1.4.43-2.07-.14-1.85.26-2.57,2.01-2.8,3.36-.45,6.72-.82,10.08-1.26,1.66-.22,2.34.57,2.52,2.12.38,3.3.81,6.6,1.26,9.9.2,1.52-.41,2.31-1.93,2.49-1.55.18-3.1.43-4.75.66Zm-10.76,4.54c0,7.09-.02,14.08.04,21.06,0,.41.53,1,.96,1.18,2.98,1.29,6.02,1.3,8.99.02.46-.2.92-1,.95-1.54.11-2.27.04-4.55.04-6.82,0-4.58,0-9.16,0-13.87-2.86,2.22-8.12,2.19-10.99-.04Zm-.75,14.64v-13.48c-3.8.47-7.49.91-11.16,1.4-1.17.16-1.23,1.04-1.11,1.99.39,3.06.78,6.13,1.15,9.19.24,1.93.62,2.27,2.62,2.02,2.78-.34,5.55-.72,8.51-1.11Zm32.65,11.82c4.54-.48,8.02-.6,11.37-1.28,2.76-.56,5.51-1.54,8.01-2.82,2.39-1.22,2.27-3.07.02-4.59-.96-.64-2.03-1.19-3.13-1.52-8.97-2.75-18.04-2.96-27.13-.74-1.66.41-3.31,1.18-4.77,2.1-2.29,1.44-2.26,3.5-.01,5.03,1,.68,2.13,1.33,3.29,1.57,4.44.91,8.91,1.65,12.35,2.26Zm-29.36-41.33c.26-.07.54-.13.81-.21,4.58-1.35,7.41.76,7.41,5.51,0,1.42,0,2.85,0,4.37,1.72-.24,3.1-.45,4.49-.61,1.25-.14,1.72-.84,1.57-2.03-.43-3.29-.88-6.58-1.3-9.87-.15-1.17-.75-1.57-1.92-1.4-3.11.45-6.23.82-9.35,1.23-2.08.27-2.39.8-1.7,3Zm40.87-4.43c2.78,1.61,5.27,3.05,7.8,4.51,1.04-3,2.13-6.06,3.14-9.15.43-1.32-1.01-3.21-2.94-3.99-2-.82-4.67-.42-5.31.79-.03.05-.03.11-.05.17-.9,2.63-1.81,5.25-2.64,7.68Zm-42.48,9.31c0,2.4,0,4.55,0,6.7.01,3.85.47,4.31,4.39,4.37.23,0,.47,0,.7-.01,3.77-.16,4.15-.56,4.15-4.29,0-2.22,0-4.45,0-6.88-3.39,2.36-5.71,2.37-9.24.1Zm25.31-4.72c2.1-1.24,3.92-2.5,5.9-3.44,2.58-1.23,2.63-1.12,2.65-3.96,0-.29.06-.6,0-.87-.74-3.03-3.3-1.63-5.09-2.01-1.32-.28-2.6.04-2.98,1.69-.01.06-.02.12-.02.17-.15,2.79-.3,5.59-.46,8.42Zm-4.99,8.99c1.13-2.27,2.16-4.31,3.17-6.36.07-.15.11-.34.1-.5-.28-4.05-.58-8.1-.88-12.31-1.29.11-2.41.2-3.67.31.43,6.35.85,12.52,1.28,18.86Zm2.32-34.35s.05,0,.07,0c0-.29-.01-.58,0-.87.09-2.04-.4-2.54-2.37-2.46-3.68.16-3.9.45-3.07,4.23.06.28.09.58.15.86.47,2.06.96,2.34,3.22,2.17,1.78-.14,1.98-1.32,1.99-2.7,0-.41,0-.82,0-1.22Zm9.12,1.61s.02,0,.03,0c.05-1.05.1-2.1.15-3.15.05-1.03-.42-1.45-1.45-1.5-1.03-.05-1.35.43-1.37,1.34-.06,2.04-.13,4.08-.21,6.12-.04.93-.05,1.73,1.3,1.74,1.33.01,1.58-.67,1.56-1.75-.02-.93,0-1.87,0-2.8Zm-10.09,52.7c2.65-.3,2.39-5.09-.61-9.49.22,3.41.42,6.45.61,9.49Zm2.33-.28c1.44-.16,2.67-.29,4.18-.45-1.46-1.33-2.7-2.46-4.18-3.8v4.25Z"/>
  <path class="cls-1" d="m37.52,51.6c.95-.17,1.56.56,1.73,2.1.33,3.19.76,6.38,1.24,9.55.24,1.58-.39,2.3-1.9,2.48-3.25.38-6.5.76-9.74,1.21-1.43.2-2.21-.21-2.39-1.74-.38-3.3-.82-6.6-1.28-9.9-.2-1.44.31-2.22,1.8-2.39,3.31-.39,6.61-.82,10.55-1.32Z"/>
  <path class="cls-1" d="m73.95,94.67c-3.6-.64-7.23-1.16-10.79-1.98-1.74-.4-3.74-1.25-3.8-3.36-.06-2.19,2.03-2.86,3.71-3.43,5.9-1.99,11.96-1.97,18.01-.98,2.16.35,4.31,1.05,6.31,1.93.91.4,2.01,1.64,1.99,2.48-.02.86-1.14,2.19-2.04,2.46-3.21.98-6.52,1.66-9.82,2.32-1.12.22-2.33.04-3.5.04-.03.17-.05.35-.08.52Z"/>
</svg>