<?xml version="1.0" encoding="UTF-8"?>
<svg id="Layer_2" data-name="Layer 2" xmlns="http://www.w3.org/2000/svg" viewBox="0 -40 198.04 200.17">
  <defs>
    <style>
      .cls-1 {
        fill: #637481;
      }
    </style>
  </defs>
  <g id="Layer_2-2" data-name="Layer 2">
    <g>
      <path class="cls-1" d="m0,53.22c1.42-1.64,2.82-3.28,4.25-4.91C20.66,29.57,40.13,15.1,63.61,6.47,83.15-.7,103.11-2.05,123.41,3.12c12.97,3.31,25.02,8.7,36.28,15.85,12.91,8.2,24.43,18.07,34.35,29.74,1.21,1.42,2.34,2.91,3.5,4.38.11.14.17.33.51,1.01-4.66,4.99-9.23,10.32-14.25,15.18-11.23,10.86-23.83,19.84-37.96,26.6-22.84,10.93-46.52,14.48-71.35,8.19-12.97-3.29-25.02-8.71-36.27-15.86-12.97-8.24-24.51-18.17-34.47-29.89C2.51,56.86,1.25,55.43,0,53.99c0-.26,0-.52,0-.77Zm62.53-9.02c-4.82,21.59,7.76,38.5,22.51,44.21,16.75,6.49,34.83.93,44.93-13.68,9.59-13.86,8.44-33.27-2.63-45.67-5.96-6.68-13.26-10.98-22.09-12.43-12.13-2-22.74,1.47-31.94,9.52-1.53-1.72-3.04-3.24-4.33-4.92-.95-1.24-1.8-1.41-3.25-.83-15.24,6.14-28.64,15.11-40.64,26.24-2.39,2.22-4.69,4.54-7.11,6.9,14.11,14.73,29.99,26.32,48.86,33.52-15.2-15-15.52-34.83-12.54-44.24,2.69.45,5.4.91,8.24,1.39Zm68.52,42.85c18.95-7.21,34.85-18.79,48.85-33.45-14-14.67-29.91-26.23-48.85-33.45,9.16,9.31,14.08,20.41,14.08,33.45,0,13.04-4.91,24.15-14.08,33.45Z"/>
      <path class="cls-1" d="m75.25,46.34c6.12,1.02,12.13,2.03,18.71,3.13-4.29-4.85-8.24-9.31-12.17-13.75,7.43-8.34,22.13-9.39,31.76-2.36,10.49,7.66,13.5,21.9,6.95,32.88-6.62,11.09-20.41,15.44-31.93,10.06-11.41-5.32-17.35-18.56-13.32-29.96Z"/>
    </g>
  </g>
</svg>