<?xml version="1.0" encoding="UTF-8"?>
<svg id="Layer_2" data-name="Layer 2" xmlns="http://www.w3.org/2000/svg" viewBox="0 0 260.41 252.23">
  <defs>
    <style>
      .cls-1 {
        fill: #637481;
      }
    </style>
  </defs>
  <path class="cls-1" d="m107.63,220.38c1.22-.05,2.44-.11,3.66-.16.85-.04,1.7-.08,2.56-.28-.26-.03-.51-.07-.77-.08-3.92-.17-7.85-.21-11.76-.54-9.93-.82-19.65-2.72-28.97-6.35-3.54-1.38-6.85-3.2-9.97-5.38-.46-.32-1.12-.52-1.69-.53-5.33-.03-10.66-.01-15.99,0-.27,0-.55,0-.82,0-2.32-.07-2.89-.7-2.81-3,.05-1.6.1-3.21.1-4.82,0-20.02,0-40.04,0-60.06,0-1.78.5-2.35,2.25-2.47.98-.06,1.97-.01,3.1-.01.02-.44.05-.83.05-1.22.01-11.96.02-23.92.04-35.87,0-2.39.67-3.03,3.06-3.03.95,0,1.91,0,3,0v-38.33c1.55.4,2.94.69,4.29,1.12,6.03,1.93,10.64,5.82,14.69,10.54,1.67,1.94,2.49,3.92,2.42,6.55-.18,6.28-.06,12.57-.06,18.86,0,.37,0,.74,0,1.26.86,0,1.67,0,2.47,0,2.08,0,2.83.73,2.84,2.84.01,5.06,0,10.11,0,15.17,0,4.48-.01,8.95-.01,13.43,0,.16.04.33.08.61.33-.08.63-.11.9-.21,5.45-2.21,11.17-3.34,16.96-4.06,3.82-.47,7.69-.54,11.53-.85.48-.04,1.09-.29,1.38-.65,3.95-4.93,5.78-10.68,6.49-16.86.14-1.19.23-2.38.4-3.56.22-1.56.69-2.01,2.25-1.78,2.36.35,4.69.89,7.02,1.36.9.18,1.79.39,2.76.6.04-.34.09-.56.09-.78,0-7.72.03-15.44-.02-23.16,0-1.06-.21-2.18-.62-3.16-4.34-10.42-8.73-20.81-13.11-31.21-.8-1.9-.73-2.21.94-3.39,4.21-2.98,8.55-5.71,13.44-7.52,6.54-2.42,12.82-1.9,19,1.21,3.66,1.85,6.85,4.34,9.98,6.94.58.49.56,1,.33,1.64-3.4,9.1-6.78,18.21-10.17,27.31-.7,1.88-1.5,3.74-2.09,5.66-.37,1.22-.61,2.53-.62,3.81-.04,9.57,0,19.13-.03,28.7,0,.87.52,1.18,1.13,1.52,4.04,2.24,7.96,4.64,11.53,7.59,1.31,1.09,2.56,2.25,3.92,3.44.06-.2.16-.35.14-.48-.52-5.71-1.04-11.42-1.57-17.13-.6-6.49-1.2-12.97-1.81-19.46-.09-.99.42-1.83,1.39-2.13.48-.15,1.01-.18,1.51-.18,18.07,0,36.14,0,54.21,0,.27,0,.55,0,.82.02,1.3.13,1.94.77,1.86,2.08-.18,2.79-.43,5.58-.67,8.37-.45,5.31-.92,10.61-1.38,15.92-.66,7.55-1.33,15.1-1.98,22.65-.45,5.31-.85,10.62-1.3,15.92-.65,7.58-1.34,15.17-1.99,22.75-.38,4.46-.68,8.92-1.1,13.37-.27,2.83-1.56,5.14-3.98,6.71-.5.33-1.11.49-1.74.76,0,4.22,0,8.49,0,12.76,0,.27,0,.55,0,.82-.02,1.5-.9,2.61-2.39,2.89-.7.13-1.42.19-2.14.19-6.59.01-13.19.02-19.78,0-.66,0-1.13.17-1.6.66-1.78,1.84-3.98,3.08-6.3,4.12-5.13,2.31-10.52,3.75-16,4.89-6.45,1.34-12.97,2.26-19.54,2.81-3.36.28-6.75.21-10.13.31-.61.02-1.21.07-1.82.27,1.42.1,2.84.2,4.27.3h-22.14Zm-37.52-70.04c-2.48.61-4.65,3-4.9,5.68-.13,1.39-.03,2.79-.03,4.19,0,14.55.02,29.11-.02,43.66,0,1.07.31,1.66,1.2,2.21,5.73,3.55,12.03,5.62,18.54,7.1,7.47,1.69,15.04,2.63,22.7,3,11.76.57,23.49.41,35.19-.8,7.06-.73,14.05-1.92,20.9-3.84,3.58-1.01,7.11-2.17,10.32-4.12,1.64-1,3.04-2.13,2.49-4.38-.05-.19,0-.41,0-.61,0-15.24-.05-30.48.06-45.71.02-2.66-2.16-5.24-3.8-5.88-1.02,1.01-1.87,2.02-2.89,2.82-2.37,1.85-5.12,2.98-7.92,3.99-6.75,2.44-13.78,3.63-20.86,4.47-8.11.96-16.28,1.31-24.44.97-6.4-.27-12.8-.88-19.17-1.53-6.12-.63-12.15-1.88-17.88-4.15-3.72-1.47-7.77-2.71-9.47-7.05Zm103.84-3.2c0-.67.06-1.35,0-2.02-.37-3.87-.76-7.73-1.17-11.6-.3-2.78-.66-5.56-.95-8.34-.19-1.76-.32-3.54-.44-5.31-.06-.93.42-1.49,1.34-1.62.91-.12,1.42.37,1.63,1.2.13.53.24,1.07.3,1.61.4,3.94.77,7.88,1.16,11.82.52,5.16,1.02,10.32,1.6,15.47.09.84.39,1.76.87,2.44,1.57,2.24,2.31,4.69,2.31,7.39,0,5.19,0,10.39,0,15.58v1.24c2.88,0,5.63,0,8.39,0,6.11,0,12.23,0,18.34.02.67,0,1.11-.02,1.16-.95.25-3.98.57-7.97.91-11.94.35-4.15.77-8.29,1.13-12.44.47-5.51.91-11.02,1.38-16.53.42-4.96.87-9.93,1.3-14.89.52-6.02,1.05-12.04,1.55-18.06.14-1.65.21-3.3.31-4.86h-51.3c.36,3.7.74,7.26,1.05,10.83.44,5.03.8,10.07,1.28,15.1.16,1.74.17,3.52,1.22,5.1,1.57,2.35,3.04,4.77,4.48,7.21.31.52.43,1.23.43,1.86.04,3.31.03,6.63.03,9.94,0,1.26.32,1.63,1.7,1.75Zm-96.4-10.25c-.04.11-.09.21-.13.32.63.38,1.22.85,1.89,1.12,1.71.68,3.42,1.38,5.18,1.89,5.45,1.56,10.99,2.69,16.66,3.11,5.82.43,11.63,1.05,17.45,1.16,8.22.16,16.44-.13,24.63-1.13,6.29-.77,12.46-1.93,18.41-4.12,2.2-.81,4.17-2,5.84-3.67.55-.55.64-.96.28-1.68-2.21-4.44-5.27-8.22-9-11.43-10.71-9.24-23.18-14.83-36.96-17.66-1.23-.25-1.24-.18-1.45,1.1-.39,2.39-.69,4.8-1.29,7.13-2.64,10.3-8.9,17.43-18.97,20.99-7,2.47-14.29,3.17-21.68,2.89-.29-.01-.58,0-.87,0Zm91,3.05c-.14-.03-.27-.06-.41-.09-.26.14-.52.3-.79.43-2.31,1.08-4.55,2.35-6.93,3.2-4.96,1.77-10.12,2.77-15.36,3.31-4.99.51-9.98,1.19-14.98,1.35-6.14.19-12.3.13-18.43-.2-7.25-.39-14.49-1.06-21.62-2.61-5.14-1.12-10.24-2.34-14.82-5.09-.29-.18-.68-.21-1.11-.33-.02.4-.04.66-.04.93,0,2.8.03,5.6-.01,8.4-.01.86.31,1.37.99,1.85,2.53,1.82,5.36,2.97,8.3,3.9,8.73,2.74,17.75,3.7,26.81,4.25,8.9.54,17.81.42,26.71-.33,6.78-.58,13.49-1.51,20.05-3.31,3.69-1.01,7.29-2.27,10.49-4.45.69-.47,1.15-1.04,1.15-1.92,0-3.1,0-6.2,0-9.3Zm-117.87-3.37c.22.05.28.08.35.08,6.04,0,12.08-.05,18.12,0,1.59.01,1.4-.01,1.35-1.36-.05-1.19.35-2.02,1.4-2.61.98-.55,1.94-1.15,2.84-1.81.32-.23.64-.72.64-1.1,0-9.29-.06-18.57-.05-27.86,0-.99-.23-1.27-1.23-1.27-7.44.04-14.88.02-22.32.02-.36,0-.72.03-1.1.05v35.86Zm81.19-57.11v20.28h11.82c0-.47,0-.84,0-1.22,0-5.73-.02-11.47-.03-17.2,0-1.8,0-1.84-1.81-1.85-3.3-.03-6.6,0-9.98,0Zm48.8,100.21v7.87c2.63.13,5.18.4,7.73.36,4.77-.08,9.54-.28,14.3-.56,1.73-.1,3.45-.49,4.37-2.34.86-1.73.6-3.56.89-5.34h-27.3Zm-101.89-46.74l.07.29c.32.02.65.07.97.05,3.13-.19,6.27-.35,9.39-.6,5.1-.41,9.9-1.83,14.41-4.26.42-.23.78-.55,1.17-.82-.04-.08-.09-.16-.13-.25-6.22.43-12.4,1.21-18.42,2.91-2.55.72-5.12,1.4-7.45,2.69Zm90.44-47.8c-1.87,0-3.63-.02-5.4.01-.47,0-1.07-.06-.95.81.24,1.82.39,3.65.62,5.48.03.23.3.61.46.61,1.76.04,3.51.03,5.27.03v-6.93Zm22.11,6.93c1.92,0,3.78.02,5.64-.03.17,0,.46-.38.47-.59.03-1.84,0-3.68.02-5.51,0-.55-.16-.81-.76-.79-1.56.04-3.13,0-4.69.07-.23.01-.64.41-.65.63-.05,2.03-.03,4.07-.03,6.22Zm9.31-6.81c0,2.2-.01,4.25.02,6.29,0,.19.28.52.43.52,1.89.04,3.79.02,5.68.02v-6.84h-6.13Zm-28.04,6.82c1.93,0,3.76.02,5.59-.02.2,0,.55-.33.55-.51.03-1.94.01-3.88-.04-5.82,0-.18-.36-.49-.56-.5-1.63-.06-3.26-.08-4.89-.04-.22,0-.61.41-.62.64-.05,2.03-.03,4.07-.03,6.26Zm9.68-6.89v6.86h5.62v-6.86h-5.62Zm-50.83,17.71c0,.14.01.27.02.41,4.05,1.6,8.1,3.19,12.22,4.81,0-1.73-.01-3.33,0-4.93,0-.64-.4-.59-.82-.59-3.28-.02-6.56-.06-9.84-.05-.53,0-1.06.23-1.58.35Zm78.71-10.8c1.67,0,3.23.02,4.79-.02.18,0,.5-.28.51-.46.19-2.09.33-4.18.48-6.29h-5.79v6.77Z"/>
  <path class="cls-1" d="m82.7,166.83c25.84,7.41,51.56,8.16,77.4-.05,0,.57,0,.94,0,1.3,0,9.8-.01,19.6.02,29.41,0,.92-.25,1.34-1.15,1.68-7.02,2.6-14.18,4.64-21.59,5.73-8.31,1.23-16.65,1.57-25.01.69-9.49-1-18.76-3.06-27.78-6.19q-1.88-.65-1.89-2.63c0-9.19,0-18.37,0-27.56,0-.75,0-1.49,0-2.38Z"/>
  <path class="cls-1" d="m169.97,103.4c-.11-1.4.58-1.84,1.42-2.04.85-.21,1.46.34,1.6,1.08.44,2.31.8,4.63,1.12,6.96.12.85-.45,1.34-1.26,1.46-.91.13-1.55-.33-1.82-1.15-.22-.67-.24-1.41-.35-2.11-.25-1.51-.5-3.03-.7-4.19Z"/>
</svg>