<?xml version="1.0" encoding="UTF-8"?>
<svg id="Layer_1" data-name="Layer 1" xmlns="http://www.w3.org/2000/svg" viewBox="0 0 126.83 126.83">
  <defs>
    <style>
      .cls-1 {
        fill: #637481;
      }
    </style>
  </defs>
  <path class="cls-1" d="m84.16,40.77c-1.86.69-5.33,1.64-8.48,3.23-3.23,1.64-6.31,3.71-9.13,5.98-1.68,1.35-3.09,1.78-5.28.73,6.27-6.26,10.43-13.62,11.98-21.15,3.61,3.71,7.53,7.74,10.9,11.21Z"/>
  <path class="cls-1" d="m32.61,46.4v-6.56c-.2-.05-.28-.1-.34-.09q-7.09,1.32-7.09,8.41c0,1.3.05,2.61-.02,3.9-.16,3-2.84,4.76-5.52,3.41-.93-.47-1.97-1.79-1.97-2.72,0-.93,1.12-1.99,1.97-2.75.46-.41,1.37-.31,2.42-.49,0-2.46.1-4.96-.03-7.44-.11-1.96.57-3,2.52-3.45,2.76-.65,5.47-1.55,8.21-2.29,2.38-.65,3.06-.19,3.09,2.17.05,3.5.04,7,0,10.49-.02,2.04-1,3.41-3.1,3.75-2.2.35-4.43-.94-4.48-2.74-.06-2.19,1.37-3.14,3.4-3.37.3-.03.6-.14.94-.22Z"/>
  <path class="cls-1" d="m54.03,28.13v-6.89c-2.31.64-4.51,1.14-6.6,1.91-.48.18-.84,1.28-.87,1.98-.1,2.84-.04,5.69-.05,8.54-.01,2.2-1.1,3.52-3.3,3.82-2.08.28-4.15-1.02-4.23-2.77-.1-2.09,1.26-3.02,3.13-3.39.38-.07.76-.12,1.3-.2,0-2.6.07-5.12-.02-7.63-.06-1.72.47-2.69,2.27-3.12,3-.71,5.96-1.61,8.9-2.52,1.88-.58,2.6.15,2.6,1.95,0,3.66.07,7.32-.02,10.98-.08,3.04-3.18,4.76-5.76,3.13-.82-.52-1.7-1.85-1.59-2.69.13-.98,1.2-1.95,2.06-2.68.47-.4,1.37-.28,2.17-.42Z"/>
  <path class="cls-1" d="m63.47,109.18v-2.85h45.56c.04.89.09,1.79.14,2.85h-45.7Z"/>
  <path class="cls-1" d="m63.44,81.56v-2.7h45.57v2.7h-45.57Z"/>
  <path class="cls-1" d="m94.38,85.01c-2.78,5.55-5.37,10.74-8.14,16.26-2.8-5.61-5.39-10.8-8.12-16.26h16.25Z"/>
  <path class="cls-1" d="m93.27,39.98c-6.46-.6-18.91-13.13-19.12-19.08,5.97.25,18.37,12.52,19.12,19.08Z"/>
  <path class="cls-1" d="m56.57,59.45c-.77-.69-1.42-1.28-2.06-1.86,3.87-4.41,8.34-4.65,12.25-.85,1.92,1.87,3.82,3.77,5.7,5.69,3.93,4.04,3.42,9.8-1.31,12.77-1.03.65-2.6.44-4.23.09.87-.89,1.77-1.76,2.61-2.68,2.49-2.74,2.5-6.05,0-8.76-1.1-1.19-2.28-2.32-3.44-3.46-3.2-3.17-5.46-3.42-9.51-.95Z"/>
  <path class="cls-1" d="m102.36,103.04h-13.57c2.62-5.24,5.12-10.25,7.91-15.82,1.99,5.56,3.77,10.54,5.66,15.82Z"/>
  <path class="cls-1" d="m83.69,103.03h-13.51c.93-2.66,1.81-5.22,2.71-7.76.89-2.51,1.81-5.01,2.9-8.02,2.73,5.45,5.25,10.49,7.89,15.79Z"/>
  <path class="cls-1" d="m61.27,85.24c-2.02,1.99-4.01,4.15-6.2,6.07-2.95,2.58-7.1,2.52-10.02-.16-2.63-2.41-5.1-5.01-7.79-7.68.96-.78,1.82-1.47,2.56-2.08,1.77,1.85,3.72,4.02,5.79,6.04,2.85,2.78,6.22,2.77,9.09,0,1.69-1.63,3.25-3.41,5.03-5.3.6,1.21,1.02,2.07,1.53,3.11Z"/>
  <path class="cls-1" d="m96.62,75.83c-.41-.53-.87-1.02-1.22-1.59-4.3-6.98-8.59-13.97-12.88-20.96-.17-.28-.5-.58-.47-.83.12-.85.36-1.69.56-2.53.81.33,1.97.43,2.35,1.03,1.21,1.91,2.13,4.01,3.15,6.04,2.73,5.44,5.47,10.88,8.19,16.32.35.69.65,1.4.97,2.11-.22.14-.44.28-.65.42Z"/>
  <path class="cls-1" d="m66.49,102.65v-17.64h6.81c-2.15,6.04-4.24,11.91-6.33,17.78-.16-.05-.32-.09-.48-.14Z"/>
  <path class="cls-1" d="m99.19,85.02h6.7v17.58c-.13.03-.26.07-.39.1-2.08-5.82-4.16-11.64-6.32-17.69Z"/>
  <path class="cls-1" d="m45.83,57.42c.83-.79,1.46-1.4,2.2-2.1,3.93,3.92,7.83,7.74,11.6,11.66.41.43.13,1.53.17,2.31-.79-.09-1.86.11-2.32-.33-3.88-3.71-7.64-7.55-11.65-11.55Z"/>
  <path class="cls-1" d="m41.39,61.64c.91-.72,1.59-1.25,2.41-1.9,3.82,3.82,7.7,7.63,11.47,11.55.42.44.18,1.51.25,2.29-.85-.13-2,.04-2.51-.45-3.82-3.64-7.52-7.41-11.61-11.5Z"/>
  <path class="cls-1" d="m37.06,66c.86-.74,1.52-1.3,2.29-1.97,3.94,3.91,7.87,7.75,11.7,11.7.38.39.12,1.4.16,2.12-.79-.05-1.89.21-2.33-.21-3.92-3.73-7.73-7.58-11.82-11.64Z"/>
  <path class="cls-1" d="m39.9,73c.26.31.78.92,1.11,1.3-2.79,2.78-5.58,5.57-8.54,8.52-.23-.2-.86-.77-1.27-1.14,2.85-2.85,5.65-5.63,8.7-8.67Z"/>
  <path class="cls-1" d="m94.07,61.51c-1.52-1.59-1.51-3.03-.46-4.73,1.14-1.86,1.87-3.97,3.06-5.8.4-.61,1.66-.66,2.53-.97.11.86.61,1.92.28,2.53-1.67,3.04-3.57,5.96-5.41,8.96Z"/>
  <path class="cls-1" d="m28.04,92.71c-.94.17-2.12.74-2.54.39-1.68-1.38-3.19-3.01-4.62-4.66-.28-.32-.16-1.35.16-1.71.31-.35,1.38-.56,1.67-.31,1.7,1.49,3.29,3.12,4.88,4.74.2.2.19.6.46,1.54Z"/>
  <path class="cls-1" d="m87.86,68.27c1.18,1.75-.48,5.43-3.55,7.12,1.16-2.33,2.32-4.66,3.55-7.12Z"/>
  <path class="cls-1" d="m26.28,85.42c.92-.71,1.59-1.24,2.39-1.86.58.54,1.2,1.13,2.24,2.11-.93.52-1.75.98-2.74,1.52-.3-.28-.91-.86-1.89-1.78Z"/>
</svg>