<?xml version="1.0" encoding="UTF-8"?>
<svg id="Layer_1" data-name="Layer 1" xmlns="http://www.w3.org/2000/svg" viewBox="0 0 127 127">
  <defs>
    <style>
      .cls-1 {
        fill: #707070;
      }
    </style>
  </defs>
  <path class="cls-1" d="m88.59,13.71c.88.62,1.93,1.11,2.58,1.91.52.64.76,1.67.77,2.52.05,10.82.04,21.65.03,32.47,0,1.17-.54,1.81-1.45,1.79-.74-.02-1.23-.4-1.38-1.13-.08-.41-.08-.84-.08-1.26,0-10.4,0-20.81,0-31.21,0-1.5-.4-2.16-1.33-2.19-.96-.03-1.42.68-1.42,2.21,0,23.01,0,46.02,0,69.03v1.15h2.75v-1.25c0-9.79,0-19.58,0-29.36,0-1.57.47-2.29,1.48-2.28.99.01,1.44.72,1.44,2.31,0,9.79,0,19.58,0,29.36,0,.38,0,.77,0,1.25.43.02.77.05,1.11.05,2.72,0,5.44,0,8.17,0,1.32,0,1.62.21,2.06,1.47,1.14,3.24,2.28,6.47,3.39,9.71.17.51.28,1.07.29,1.61.03,2.24.03,4.47.01,6.71-.02,2.96-1.78,4.68-4.76,4.68-9.69,0-19.38,0-29.07,0-3.03,0-4.62-1.75-4.82-4.74-.34-5.01.42-9.78,2.45-14.37.54-1.21.91-2.49,1.32-3.75.3-.94.89-1.34,1.88-1.32,2.72.03,5.44,0,8.17,0,.35,0,.7,0,1.16,0,.02-.51.06-.94.06-1.38,0-22.88.02-45.76-.02-68.64,0-2.66.89-4.5,3.48-5.37.58,0,1.17,0,1.75,0Zm14.76,86.11c0-.16.02-.23,0-.29-.55-1.59-1.1-3.18-1.66-4.76-.31-.88-.41-2.1-1.04-2.53-.68-.46-1.86-.2-2.83-.2-7.42,0-14.84-.01-22.26.01-.35,0-.93.17-1.02.41-.91,2.41-1.74,4.86-2.63,7.37h31.43Zm-8.27,3c0,1.16.04,2.29-.01,3.41-.05,1.09-1.03,1.73-1.96,1.35-.69-.29-.92-.87-.92-1.57,0-1.05,0-2.11,0-3.17h-3.02c0,1.08.01,2.11,0,3.14-.02,1.06-.58,1.69-1.46,1.69-.88,0-1.43-.63-1.45-1.69-.01-1.03,0-2.06,0-3.13h-3.05c0,1.05,0,2.05,0,3.04-.01,1.17-.53,1.79-1.45,1.79-.92,0-1.45-.63-1.47-1.79-.02-1,0-1.99,0-3.02h-2.99c0,.55,0,1.04,0,1.52,0,.52.01,1.04,0,1.56-.03,1.13-.59,1.76-1.52,1.74-.88-.03-1.38-.63-1.39-1.74-.01-1.03,0-2.05,0-3.07h-3.06c0,1.85,0,3.63,0,5.4,0,1.74.38,2.12,2.1,2.12,9.53,0,19.05,0,28.58,0,.26,0,.52.02.78-.01.69-.07,1.24-.44,1.26-1.13.06-2.13.02-4.25.02-6.38h-2.99c0,1.07,0,2.07,0,3.07-.01,1.09-.53,1.71-1.4,1.74-.92.03-1.49-.62-1.51-1.74-.01-1.02,0-2.05,0-3.11h-3.05Z"/>
  <path class="cls-1" d="m24.21,76.92c-.37-.09-.68-.15-.99-.24-1.9-.57-3.15-2.25-3.21-4.4-.04-1.75-.04-3.5,0-5.25.06-2.8,1.96-4.64,4.78-4.66,1.26-.01,2.51,0,3.88,0,0-2.52.02-4.94,0-7.36-.02-1.63.33-3.15,1.09-4.58,1.22-2.3,3.04-4.03,5.33-5.23.62-.33.8-.7.78-1.35-.04-1.48-.01-2.97-.01-4.59-1.06,0-2.02,0-2.98,0-2.83,0-4.19-1.35-4.2-4.15,0-1.36-.01-2.72,0-4.08.03-2.19,1.47-3.68,3.63-3.73,1.59-.04,3.18-.02,4.76,0,1.05.01,1.7.61,1.68,1.48-.02.82-.67,1.41-1.65,1.42-1.46.03-2.92.03-4.38,0-.83-.02-1.17.32-1.14,1.16.04,1.33.02,2.66,0,3.99,0,.62.2,1,.88,1,4.21,0,8.42,0,12.79,0,0-.55,0-1.06,0-1.56.02-1.33.51-1.83,1.82-1.84,2.56-.01,5.12,0,7.68,0,1.3,0,1.43-.13,1.44-1.35,0-1.26-.11-1.38-1.39-1.38-3.5,0-7,0-10.5,0-1.1,0-1.7-.42-1.82-1.22-.15-.99.48-1.68,1.62-1.69,3.14-.02,6.29,0,9.43,0,.71,0,1.43-.02,2.14.02,1.87.1,3.29,1.48,3.4,3.35.05.77.06,1.57-.07,2.33-.27,1.64-1.76,2.81-3.56,2.87-.87.03-1.73,0-2.7,0,.25,4.31,1.45,8.11,4.36,11.26.18.19.38.36.55.55.62.66.65,1.5.08,2.09-.57.59-1.43.64-2.08-.01-.79-.8-1.57-1.65-2.22-2.57-2.15-3.07-3.22-6.54-3.56-10.25-.02-.26-.04-.52-.07-.77,0-.06-.05-.11-.11-.23h-1.42c-.11.88.05,1.96-.41,2.59-.42.59-1.5.72-2.5,1.14,0,1.42-.03,3.13.04,4.83.01.26.46.56.76.73,3.03,1.77,5.36,4.13,6.11,7.66.3,1.41.21,2.9.25,4.35.04,1.68,0,3.36,0,5.16.44,0,.78,0,1.13,0,4.02,0,8.04,0,12.06,0,3.05,0,4.92,1.86,4.94,4.89.01,1.56,0,3.11,0,4.67-.01,2.66-1.23,4.21-3.82,4.88-.12.03-.24.09-.4.15-.46,4.74-.92,9.47-1.38,14.21-.52,5.35-1.01,10.71-1.58,16.05-.39,3.65-3.2,6.06-6.88,6.06-7.49,0-14.97,0-22.46,0-3.78,0-6.59-2.44-6.97-6.18-.76-7.48-1.46-14.96-2.18-22.44-.25-2.58-.51-5.15-.77-7.74Zm2.94.07c.25,2.57.5,5.1.75,7.64.72,7.38,1.42,14.76,2.16,22.14.22,2.25,1.78,3.6,4.05,3.6,7.49,0,14.97,0,22.46,0,2.24,0,3.75-1.3,4.03-3.51.16-1.25.27-2.51.39-3.77.62-6.35,1.24-12.7,1.86-19.05.23-2.34.45-4.69.68-7.08h-4.66c0,.42,0,.77,0,1.12,0,3.27.02,6.55-.01,9.82-.03,2.41-1.92,4.35-4.31,4.38-4.24.05-8.49.05-12.73,0-1.85-.02-3.34-.97-3.88-2.72-.42-1.34-.37-2.86-.35-4.3,0-.74.67-1.18,1.45-1.13.82.06,1.3.54,1.36,1.38.04.55.01,1.1.01,1.65,0,1.72.5,2.22,2.18,2.22,3.73,0,7.45,0,11.18,0,1.73,0,2.2-.46,2.2-2.17,0-6.97,0-13.93,0-20.9,0-.31-.03-.62-.05-.97h-15.5c0,.4,0,.75,0,1.09,0,4.08,0,8.17,0,12.25,0,1.06-.56,1.71-1.42,1.73-.87.01-1.46-.64-1.49-1.68-.02-.6,0-1.2,0-1.83-3.41,0-6.65,0-9.88,0-.12,0-.25.04-.44.08Zm22.43-14.66c0-2.75.14-5.41-.03-8.05-.24-3.8-3.97-7.09-7.78-7.09-1.2,0-2.4-.01-3.6,0-.32,0-.65.05-.94.16-3.51,1.37-5.64,4.5-5.64,8.26,0,1.91,0,3.82,0,5.74,0,.31.03.63.05.98h17.95Zm-12.16,2.97c-4.37,0-8.64-.02-12.91.01-1.02,0-1.57.69-1.59,1.83-.03,1.65-.03,3.3,0,4.96.02,1.26.62,1.87,1.86,1.88,4.08.02,8.16,0,12.24,0,.12,0,.24-.05.4-.09v-8.59Zm21.49.02v8.64c2.5,0,4.95.05,7.39-.02.88-.03,1.4-.69,1.42-1.57.04-1.81.04-3.62,0-5.43-.02-.88-.53-1.56-1.41-1.58-2.45-.07-4.9-.02-7.41-.02Zm-16.51-26h-3.59v4.88h3.59v-4.88Z"/>
</svg>