<?xml version="1.0" encoding="UTF-8"?>
<svg id="Layer_2" data-name="Layer 2" xmlns="http://www.w3.org/2000/svg" viewBox="0 0 138.81 185.14">
  <defs>
    <style>
      .cls-1 {
        fill: #637481;
      }
    </style>
  </defs>
  <g id="Layer_2-2" data-name="Layer 2">
    <path class="cls-1" d="m49.5,185.14c-5.26-1.14-8.61-4.57-11.37-8.99-3.98-6.39-8.53-12.43-12.28-18.94-4.01-6.95-3.81-14.33.55-21.08,4.34-6.72,9.21-13.1,13.9-19.6.73-1.01.91-1.9.65-3.15-.81-3.81-1.43-7.66-2.16-11.68-.5.47-.98.89-1.43,1.33-4.51,4.43-8.84,9.08-13.58,13.24-5.55,4.88-14.6,4.13-19.68-1.21-5.29-5.56-5.48-13.93-.43-19.68.56-.63,1.13-1.26,1.75-1.82,10.88-9.98,21.77-19.95,32.65-29.93,3.46-3.17,7.33-5.65,11.76-7.25.43-.16.85-.34,1.49-.6-9.09-7.21-13.52-16.41-12.6-27.85.62-7.74,3.93-14.36,9.67-19.63,12.46-11.44,31.19-10.97,42.93.77,11.62,11.62,13.21,33.73-3.74,46.74,1.24.49,2.47.78,3.48,1.42,3.29,2.09,6.8,3.96,9.68,6.53,10.97,9.78,21.74,19.81,32.58,29.74,6.25,5.73,7.3,14.23,2.49,20.26-5.76,7.24-15.73,7.75-22.54,1.1-4.01-3.92-7.93-7.92-11.9-11.88-.42-.41-.86-.8-1.35-1.26-.82,4.35-1.65,8.56-2.37,12.8-.09.53.33,1.24.69,1.75,4.27,5.98,8.6,11.92,12.87,17.9,5.71,8,6.03,16.7.79,24.8-4.32,6.67-8.82,13.23-13.21,19.86-2.29,3.46-5.63,5.3-9.52,6.31h-3.98c-.33-.11-.66-.25-1-.33-3.94-.93-7.06-3.04-9.09-6.58-3.22-5.61-2.64-12.77,1.45-17.99,3.38-4.31,6.83-8.57,10.36-12.99-1.9-1.42-3.7-2.82-5.57-4.11-.3-.21-1.03-.08-1.41.15-7.12,4.31-14.21,4.31-21.32-.01-.38-.23-1.11-.34-1.41-.13-1.87,1.29-3.67,2.69-5.53,4.07.4.53.68.91.98,1.29,3.5,4.45,7.19,8.76,10.47,13.37,3.73,5.25,3.03,13.49-1.1,18.4-2.29,2.71-5.33,3.99-8.64,4.85h-3.98Zm0-69.39c2.26,7.19,5.18,13.72,10.56,18.9,5.26,5.07,11.15,5.66,16.95,1.33,6.74-5.04,9.74-12.43,12.29-20.22h-39.79Z"/>
  </g>
</svg>