<?xml version="1.0" encoding="UTF-8"?>
<svg id="Layer_1" data-name="Layer 1" xmlns="http://www.w3.org/2000/svg" viewBox="0 0 127 127">
  <defs>
    <style>
      .cls-1 {
        fill: #637481;
      }
    </style>
  </defs>
  <path class="cls-1" d="m28.86,63.94c-.51-19.16,15.61-35.08,34.52-35.1,18.58-.02,34.59,14.85,34.78,34.28.18,19.74-15.85,35.06-34.75,35.02-18.98-.04-34.5-15.57-34.54-34.21Zm60.23-.62c-.35-14.67-11.91-25.63-26.25-25.33-14.03.29-25.22,11.77-24.9,26.09.32,14.26,11.9,25.29,26.16,24.95,14.39-.34,24.86-11.92,24.98-25.71Z"/>
  <path class="cls-1" d="m71.39,61.23c-1.38,2.89-2.7,5.61-3.99,8.34-.12.25-.24.34-.52.32-2.82-.2-5.65-.37-8.47-.58-.17-.01-.43-.23-.46-.39-.43-2.21-.83-4.43-1.23-6.65-.1-.56-.2-1.12-.35-1.67-.11-.4.18-.5.42-.64,1.47-.86,2.94-1.7,4.42-2.56.99-.57,1.99-1.14,2.97-1.73.28-.17.48-.2.75.03,1.95,1.69,3.91,3.36,5.87,5.04.2.17.42.33.6.48Z"/>
  <path class="cls-1" d="m49.66,49.47c-.06,1.02-.11,1.92-.16,2.83-.09,1.47-.16,2.94-.3,4.4-.03.36-.19.79-.43,1.05-1.68,1.76-3.41,3.49-5.12,5.23-.22.22-.39.21-.58-.01-.99-1.18-1.99-2.35-2.95-3.56-.14-.17-.18-.52-.11-.75.84-2.97,2.13-5.73,3.89-8.27.12-.18.33-.4.52-.42,1.71-.19,3.42-.34,5.25-.51Z"/>
  <path class="cls-1" d="m43.73,78.06c.16-.57.3-1.09.45-1.6.31-1.08.64-2.16.94-3.24.09-.31.23-.42.54-.31,2.22.79,4.46,1.56,6.67,2.37.25.09.51.36.63.61.99,2.03,1.94,4.07,2.91,6.1.18.38.06.54-.29.68-1.38.54-2.75,1.11-4.14,1.63-.23.08-.57.03-.8-.08-2.61-1.4-4.79-3.32-6.64-5.61-.13-.16-.19-.37-.27-.54Z"/>
  <path class="cls-1" d="m87.59,61.13c0,.09,0,.18,0,.27.09.96-.18,1.69-1.06,2.25-.98.62-1.85,1.41-2.75,2.15-.36.29-.59.31-.85-.11-1.19-1.94-2.4-3.86-3.58-5.81-.13-.22-.16-.56-.1-.81.42-2.09.88-4.17,1.32-6.25.01-.05.03-.1.04-.16.17-.9.17-.9,1.1-.67,1.16.28,2.33.57,3.5.83.43.09.67.31.84.72.99,2.44,1.39,4.99,1.54,7.6Z"/>
  <path class="cls-1" d="m65.67,83.07c1.61-1.98,3.18-3.94,4.77-5.87.19-.23.51-.45.79-.51,2.44-.48,4.89-.92,7.33-1.37.05,0,.1.02.2.03.01.15.03.3.04.46.05,1.36.09,2.72.16,4.08.02.4-.12.65-.42.91-2.05,1.71-4.25,3.16-6.72,4.19-.49.21-.98.44-1.49.61-.2.07-.49.1-.66,0-1.3-.76-2.57-1.56-3.85-2.34-.06-.03-.09-.11-.16-.19Z"/>
  <path class="cls-1" d="m65.02,39.25c2.07.03,4.11.35,6.11.87.22.06.48.28.57.49.55,1.3,1.06,2.62,1.6,3.93.18.44.1.6-.39.74-2.26.63-4.49,1.33-6.75,1.96-.27.08-.64.02-.9-.1-2.06-.97-4.09-1.97-6.15-2.94-.32-.15-.36-.31-.19-.57.87-1.29,1.73-2.59,2.62-3.87.11-.16.38-.28.59-.3.96-.09,1.93-.14,2.89-.21Z"/>
</svg>