<?xml version="1.0" encoding="UTF-8"?>
<svg id="Layer_1" data-name="Layer 1" xmlns="http://www.w3.org/2000/svg" viewBox="0 0 127 127">
  <defs>
    <style>
      .cls-1 {
        fill: #707070;
      }
    </style>
  </defs>
  <path class="cls-1" d="m100.83,56.9c-.61,1.08-1.19,2.1-1.77,3.13,0-.25,0-.49.01-.74-1.21-.31-2.42-.63-3.85-1-.11,1.41-.18,2.35-.27,3.48h-3.2v-3.08h-3.37c-.09.98-.18,1.92-.28,3.06h-3.21v-3.07h-3.27c-.16,1.1-.31,2.11-.47,3.15h-3.2c.72-6.61-.85-12.44-5.36-17.3-3.19-3.44-7.15-5.54-11.76-6.25-9.53-1.48-18.73,3.85-22.18,12.71-3.47,8.92-.43,18.94,7.27,24.31,6.59,4.6,18.29,6.45,27.95-3.98.68.76,1.35,1.5,2.11,2.36-4.83,5.67-10.87,8.38-18.18,8.76-.05.59-.11,1.13-.14,1.68-.02.47,0,.95,0,1.69,8.4-.1,15.09-3.41,20.61-9.33.29.22.5.35.66.52.5.53.98,1.07,1.66,1.82-6.05,6.76-13.6,10.06-22.74,10.44v3.38c9.96-.08,18.15-3.98,25.09-11.07.76.82,1.4,1.51,2.23,2.4-7.49,7.86-16.51,11.77-27.33,12.1v3.37c11.61-.03,21.31-4.52,29.51-12.61,1.46,2.62,1.41,3.42-.7,5.16-12.98,10.72-27.64,13.81-43.54,8.31-16.12-5.58-26.07-17.23-29.04-33.98-4.53-25.54,12.93-48.68,38.5-51.85,20.64-2.56,41.22,10.78,47.23,30.72.27.91.07,2.18-.37,3.05-1.66,3.27-.98,6.08,1.38,8.68ZM57.54,17.79c-23.2-.72-41.85,20.48-40.55,40.63h3.14c.23-10.34,3.83-19.2,11.07-26.42,7.24-7.22,16.12-10.76,26.34-10.98v-3.23Zm.05,6.74c-19.94-.25-34.71,17.29-33.87,33.85h3.23c.23-8.53,3.21-15.75,9.15-21.64,5.92-5.87,13.2-8.68,21.49-8.93v-3.29Zm-.07,10.09v-3.18c-15.53-.62-27.99,14.01-26.9,27.01h3c1.12-15.75,12.67-23.49,23.91-23.83Z"/>
  <path class="cls-1" d="m71.26,68.56c-5.33,7.26-14.95,9.11-22.55,4.47-7.47-4.56-10.21-14.12-6.31-22.02,3.9-7.88,13.21-11.5,21.35-8.32,7.77,3.03,12.51,11.77,10.35,19.05-4.91.73-5.79,2.76-2.85,6.81Zm-1.59-10.08c-.03-6.5-5.69-12.07-12.14-11.97-6.44.11-11.85,5.54-11.91,11.96-.06,6.45,5.59,12.13,12.02,12.1,6.51-.04,12.07-5.62,12.04-12.09Z"/>
  <path class="cls-1" d="m81.04,74.1c3.96-2.15,7.65-2.63,11.42-.31,3.26,2,6.82,2.12,10.92,1.33-2.11,2.46-3.91,4.62-5.81,6.68-.36.39-1.14.52-1.73.55q-7.1.36-11.89-4.93c-.96-1.06-1.89-2.14-2.92-3.31Z"/>
  <path class="cls-1" d="m73.34,65.45h22.73c-.93,1.71-1.75,3.23-2.66,4.91-4.57-2.47-8.97-1.81-13.3.22-1.2.56-2.02.43-2.87-.68-1.1-1.45-2.4-2.76-3.9-4.45Z"/>
  <path class="cls-1" d="m110.77,39c1.08.63,1.9,1.1,2.86,1.67-1.2,2.18-2.44,4.15-3.38,6.25-.72,1.62-1.21,3.39-1.52,5.14-.32,1.79-1.41,3.01-2.96,2.93-1.18-.06-2.98-1.08-3.29-2.05-.35-1.13.33-3.61,1.1-3.86,2.56-.84,3.16-2.99,4.27-4.84.98-1.65,1.87-3.35,2.92-5.23Z"/>
  <path class="cls-1" d="m96.8,71.5c1-1.84,1.96-3.67,3-5.45.2-.33.74-.65,1.13-.65,3.45-.05,6.9-.03,10.45-.03-2.98,5.46-9.33,8.15-14.58,6.14Z"/>
  <path class="cls-1" d="m91.48,85.98h1.96c0,6.54,0,12.96,0,19.37,0,.64.05,1.3-.07,1.93-.05.27-.49.66-.75.66-.27,0-.69-.38-.76-.66-.13-.53-.08-1.12-.08-1.68,0-4.35.03-8.71-.02-13.06-.02-2.15-.18-4.29-.29-6.55Z"/>
  <path class="cls-1" d="m104.49,112.86h-23.84l-.17-.66c.8-.25,1.59-.71,2.39-.71,6.47-.06,12.93-.06,19.4,0,.82,0,1.64.43,2.46.66-.08.24-.16.48-.24.71Z"/>
</svg>