<?xml version="1.0" encoding="UTF-8"?>
<svg id="Layer_2" data-name="Layer 2" xmlns="http://www.w3.org/2000/svg" viewBox="0 0 260.41 252.23">
  <defs>
    <style>
      .cls-1 {
        fill: #637481;
      }
    </style>
  </defs>
  <path class="cls-1" d="m83.11,47.94v121.56c-5.19-.29-10-1.61-14.38-4.22-10.56-6.28-16.53-15.59-16.73-27.88-.31-19.12-.19-38.26-.05-57.39.12-16.87,14.44-31.56,31.17-32.07Z"/>
  <path class="cls-1" d="m86.73,173.11h121.87c-.73,3.15-1.24,6.2-2.16,9.12-1.51,4.77-1.62,4.73-6.52,4.73-35.81,0-71.62-.01-107.43.04-1.53,0-2.22-.51-2.81-1.85-1.66-3.8-2.71-7.73-2.96-12.04Z"/>
  <path class="cls-1" d="m92.93,190.54h109.19c-2.94,4.16-6.52,7.26-10.75,9.64-4.73,2.66-9.83,4.13-15.25,4.14-19.05.06-38.11.16-57.16-.03-10.32-.1-18.72-4.6-25.23-12.6-.25-.3-.45-.64-.8-1.15Z"/>
  <path class="cls-1" d="m108.68,169.45c2.82-5.65,5.54-11.14,8.33-16.59.19-.37.91-.65,1.39-.65,19.41-.03,38.81-.03,58.22,0,.48,0,1.21.27,1.4.64,2.79,5.45,5.51,10.94,8.33,16.6h-77.67Z"/>
  <path class="cls-1" d="m132.56,100.07h29.9c-4.94,14.82-9.84,29.54-14.75,44.26-.13,0-.26.02-.39.03-4.9-14.7-9.8-29.4-14.76-44.28Z"/>
  <path class="cls-1" d="m106.13,100.01c7.57,0,14.69-.01,21.81.04.41,0,1.06.47,1.19.86,4.56,13.59,9.07,27.19,13.59,40.79.02.05,0,.11-.04.5-12.19-14.07-24.23-27.97-36.54-42.18Z"/>
  <path class="cls-1" d="m188.8,100.13c-12.23,14.12-24.25,27.99-36.56,42.2.16-.78.21-1.18.33-1.55,4.36-13.11,8.73-26.23,13.09-39.34.28-.85.52-1.48,1.71-1.47,6.83.07,13.67.04,20.5.04.21,0,.42.05.93.12Z"/>
  <path class="cls-1" d="m162.22,96.47h-29.33c.21-.58.36-1.06.56-1.52,2.54-5.95,5.12-11.89,7.62-17.85.43-1.03.9-1.52,2.12-1.47,3,.11,6.02,0,9.02.07.5.01,1.25.4,1.43.81,2.87,6.55,5.66,13.14,8.58,19.96Z"/>
  <path class="cls-1" d="m188.57,96.53c-1.68,0-3.34,0-4.99,0-5.39,0-10.78.03-16.16-.04-.59,0-1.51-.42-1.72-.89-2.83-6.4-5.56-12.85-8.3-19.29-.06-.15-.04-.33-.06-.65,4.43,0,8.81-.02,13.19.03.38,0,.84.35,1.11.67,5.63,6.54,11.24,13.1,16.85,19.66.06.07.04.21.09.5Z"/>
  <path class="cls-1" d="m106.11,96.53c5.25-6.13,10.36-11.81,15.11-17.78,1.95-2.46,3.99-3.38,7.03-3.14,3.11.25,6.25.06,9.53.06-.17.54-.26.97-.44,1.37-2.59,6.06-5.18,12.13-7.83,18.17-.23.53-.84,1.27-1.28,1.27-7.23.08-14.46.06-22.12.06Z"/>
  <path class="cls-1" d="m197.51,67.79c-2.42-.17-4.85-.29-7.26-.54-.47-.05-1.24-.59-1.26-.94-.22-3.98-.5-7.97-.39-11.94.08-2.92,1.68-5.15,4.54-6.18,3.55-1.29,6.92,1.1,6.97,4.86.04,2.86.18,3.01,3.01,3.03,3.76.03,6.15,3.4,4.88,6.96-1.03,2.87-3.25,4.28-6.16,4.59-1.43.15-2.88.03-4.33.03v.13Z"/>
  <path class="cls-1" d="m113.41,48.31c0,2.98.1,5.91-.04,8.84-.07,1.52-1,2.7-2.43,3.36-2.25,1.03-4.44-.33-4.55-2.8-.11-2.37-.23-2.5-2.6-2.61-2.61-.12-3.98-2.54-2.74-4.83.93-1.73,2.55-2.26,4.36-2.39.98-.07,1.97-.05,2.95,0,1.55.09,3.1.26,5.06.43Z"/>
  <path class="cls-1" d="m207.88,130.29c-2.91,0-5.68.07-8.44-.03-1.66-.06-2.98-.9-3.73-2.46-1.06-2.24.27-4.47,2.73-4.59,2.41-.12,2.57-.26,2.66-2.55.06-1.48.68-2.58,2.11-3.07,1.49-.52,2.92-.07,3.73,1.13.74,1.09,1.08,2.5,1.38,3.82.2.88.06,1.85,0,2.77-.1,1.5-.25,2.99-.42,4.98Z"/>
</svg>