<?xml version="1.0" encoding="UTF-8"?>
<svg id="Layer_1" data-name="Layer 1" xmlns="http://www.w3.org/2000/svg" viewBox="0 0 127 127">
  <defs>
    <style>
      .cls-1 {
        fill: #637481;
      }
    </style>
  </defs>
  <g>
    <path class="cls-1" d="m56.15,61.22c.13-.66.24-1.27.36-1.89.4-2.01.57-4.04.4-6.08-.15-1.85-.76-3.57-1.67-5.19-.02-.03-.03-.05-.06-.12-.19.26-.35.49-.51.71-1.06,1.42-2.3,2.64-3.9,3.44-1.48.74-3.06,1.05-4.7,1.13-2.09.11-4.14-.15-6.14-.68-1.31-.34-2.63-.5-3.98-.55-1.59-.06-3.18-.26-4.7-.79-.44-.15-.86-.36-1.29-.54-1.09-.46-2.17-.99-3.28-1.38-1.6-.55-2.22-1.79-2.4-3.3-.29-2.5.7-4.5,2.59-6.08,1.48-1.24,3.2-2.02,5.04-2.53,1.87-.52,3.77-.95,5.65-1.42,1.9-.47,3.77-1.02,5.49-1.99.03-.02.07-.03.16-.05-.36.98-.97,1.72-1.76,2.34.02.03.03.05.05.08.15-.02.29-.03.44-.06,1.71-.44,3.24-1.24,4.66-2.27,2.74-1.99,4.92-4.47,6.56-7.42.03-.06.07-.12.12-.21.05.05.1.08.13.13,1.35,2.11,2.58,4.29,3.43,6.66.44,1.24.78,2.51.89,3.82.09,1.11-.03,2.21-.23,3.3-.17.92-.31,1.85-.46,2.78-.19,1.22-.59,2.37-1.12,3.47-.09.19-.08.33.03.51,1.15,1.89,1.66,3.97,1.82,6.16.16,2.27-.11,4.5-.48,6.73-.02.13-.04.26-.06.41.11.02.19.03.26.04,1,.11,1.83.85,1.93,1.85.23,2.3.11,4.57-.85,6.73-.48,1.08-1.12,2.07-1.98,2.86-.35.32-.86.48-1.32.63-.33.1-.5.22-.6.57-.54,1.79-1.46,3.4-2.46,4.96-1.95,3.03-4.24,5.77-7.01,8.08-.78.65-1.62,1.22-2.46,1.78-.61.41-1.35.41-2.05.54-1.21.22-2.24-.21-3.23-.81-1.89-1.13-3.51-2.59-5.03-4.17-2.24-2.31-4.23-4.82-5.92-7.56-.57-.92-1.06-1.9-1.57-2.85-.09-.17-.18-.26-.38-.29-.63-.1-1.06-.5-1.4-.99-.17-.24-.34-.5-.45-.78-.62-1.58-1.25-3.15-1.82-4.75-.36-1.02-.54-2.1-.27-3.17.12-.49.38-.96.65-1.39.33-.53.87-.78,1.48-.86.27-.04.53-.08.8-.1.34-.03.49-.2.51-.53.03-.64.08-1.28.12-1.92.16-2.52.35-5.04.95-7.5.12-.47.27-.93.41-1.4,0-.03.03-.05.07-.1-.09.69-.19,1.34-.25,1.99-.19,2.14-.36,4.29-.56,6.43-.08.89-.2,1.79-.34,2.68-.08.52-.23.63-.76.7-.16.02-.33.05-.49.05-1.12.04-1.76.5-2.18,1.77-.29.9-.19,1.82.1,2.69.4,1.19.89,2.36,1.34,3.53.18.47.36.95.6,1.4.23.44.5.86.8,1.24.26.33.63.51,1.07.45.19-.02.27.08.35.23,2.25,4.59,5.45,8.45,9.16,11.91,1.18,1.09,2.46,2.05,3.88,2.82.78.42,1.57.51,2.45.41,1.04-.12,1.87-.61,2.67-1.22,1.98-1.5,3.69-3.28,5.24-5.23,1.64-2.06,3.1-4.24,4.2-6.64.38-.82.62-1.71.9-2.57.06-.19.13-.29.32-.3.04,0,.08-.02.12-.03,1.28-.08,2.06-.87,2.7-1.88,1.04-1.62,1.49-3.4,1.54-5.29.02-.61,0-1.22-.01-1.83-.02-.66-.48-1.14-1.14-1.21-.38-.04-.75-.07-1.17-.11Zm-1.88-14.09c-4.09,3.73-9.04,4.96-14.42,4.98.04.05.04.08.06.08.04.01.08.02.12.03,1.82.3,3.64.5,5.49.37,1.51-.1,2.98-.38,4.36-1.01,2-.91,3.3-2.54,4.38-4.38.01-.02.01-.06.02-.08Z"/>
    <path class="cls-1" d="m39.99,75.77c-.59,1.06-1.52,1.26-2.58,1.17-.17-.02-.35-.01-.53-.02-.67-.03-1.24.19-1.69.7-.55.63-1.21,1.09-2.05,1.18-1.25.14-2.44-.03-3.39-.97-.04-.04-.08-.09-.15-.16.16,0,.28,0,.4,0,.74.03,1.36-.22,1.81-.82.18-.24.35-.49.52-.73.79-1.13,1.75-2.1,2.89-2.86.54-.36,1.14-.61,1.79-.65,1.35-.09,2.39.43,3.11,1.77.02-.1.02-.16.05-.2,1-1.53,3-2.03,4.6-1.13,1.07.6,2.07,1.32,2.71,2.41.68,1.16,1.71,1.82,2.99,2.18-.56.67-1.26,1.06-2.11,1.13-.68.05-1.36,0-2.04-.03-.66-.04-1.19-.36-1.52-.94-.41-.71-1.05-.91-1.8-.94-.59-.02-1.18-.04-1.76-.13-.54-.09-.99-.37-1.26-.95Z"/>
    <path class="cls-1" d="m49.29,100.61c-.49-.66-.95-1.29-1.42-1.92-.9-1.24-1.8-2.47-2.7-3.71-.47-.64-.94-1.28-1.4-1.94-.17-.24-.29-.24-.49-.03-.66.69-1.34,1.35-2.01,2.03-.46.46-.8.47-1.28.03-.68-.64-1.35-1.28-2.03-1.92-.28-.27-.29-.27-.55.03-1.95,2.23-3.9,4.45-5.85,6.68-.07.08-.15.16-.25.26-.31-.31-.61-.59-.88-.9-.04-.04.02-.23.08-.3.81-.94,1.64-1.86,2.46-2.8,1.35-1.54,2.69-3.09,4.03-4.63.35-.4.79-.43,1.19-.05.72.68,1.45,1.36,2.16,2.05.19.19.31.19.5,0,.72-.74,1.46-1.47,2.18-2.21.42-.42.88-.39,1.23.09,1.98,2.71,3.95,5.41,5.94,8.11.17.24.17.37-.08.53-.28.18-.53.39-.83.61Z"/>
    <path class="cls-1" d="m43.36,58.95c-.03.14-.05.24-.07.34.02.02.04.04.06.05.34-.4.57-.95,1.22-1.02-.06.19-.11.35-.18.58.99-.46,1.94-.16,2.88-.14.58.01,1.17-.1,1.74-.21.67-.12,1.32-.38,1.99-.44,1.16-.12,2.22.18,3.06,1.05.07.08.13.17.2.26-2.32-.02-4.55.38-6.76.92-.92.23-1.85.44-2.78.64-.3.06-.62.06-.92.03-.15-.02-.34-.16-.42-.3-.33-.55-.37-1.13-.01-1.75Z"/>
    <path class="cls-1" d="m26.77,58.8c.86-.36,1.66-.87,2.59-.89.59,0,1.18.16,1.77.27.3.06.6.17.9.25.7.19,1.4.22,2.12.12.36-.05.72-.07,1.08-.06.35.01.69.08,1.09.13v-.46c.44.05.73.33.99.72.04-.11.07-.17.1-.23.02.03.04.05.05.08.05.26.12.53.14.79.07.73-.41,1.28-1.15,1.3-.26,0-.52-.01-.77-.07-1.34-.3-2.68-.59-4.02-.93-.59-.15-1.16-.37-1.73-.58-.94-.34-1.91-.43-2.9-.41-.06,0-.12,0-.19,0-.02,0-.03-.02-.07-.05Z"/>
    <path class="cls-1" d="m39.56,60.66c.11.73.25,1.46.34,2.19.17,1.49-.1,2.9-.82,4.22-.15.29-.27.61-.36.92-.15.5.02.91.41,1.24.42.36.93.48,1.47.5.16,0,.33,0,.5,0-.67.48-1.93.57-2.64.19-.72-.39-1.09-1.2-.85-2,.1-.33.22-.68.43-.95,1.18-1.56,1.44-3.37,1.49-5.25,0-.35,0-.7,0-1.05h.05Z"/>
    <path class="cls-1" d="m37.1,78.4c.87.64,1.85.93,2.91.87.63-.04,1.26-.21,1.89-.33.32-.06.65-.12,1.03-.19-.46.7-1.09,1.05-1.83,1.13-1.21.14-2.37-.09-3.39-.8-.24-.17-.44-.4-.65-.6.02-.02.04-.05.06-.07Z"/>
    <path class="cls-1" d="m39.66,90.63c0-.51.38-.89.87-.89.47,0,.9.43.9.89,0,.46-.44.89-.9.9-.48,0-.87-.4-.87-.9Z"/>
    <path class="cls-1" d="m39.85,97.82c0-.51.37-.89.87-.89.5,0,.88.37.89.87,0,.48-.4.89-.88.9-.5,0-.88-.37-.88-.88Z"/>
  </g>
  <g>
    <path class="cls-1" d="m101.55,76.23c-.27.59-.5,1.16-.77,1.7-1.52,2.97-3.49,5.62-5.77,8.04-1.51,1.6-3.15,3.04-5.01,4.24-.72.46-1.52.54-2.33.68-1.01.18-1.92-.08-2.8-.56-1.76-.96-3.29-2.22-4.72-3.61-2.78-2.7-5.2-5.69-7.19-9.03-.34-.57-.64-1.15-1-1.8-.47,1.8-.75,3.56-.97,5.34-.21,1.79-.39,3.58-.6,5.45-.11-.24-.2-.4-.28-.57-1.59-3.59-2.65-7.35-3.41-11.19-.62-3.11-1.02-6.25-1.16-9.41-.18-4.18.04-8.33,1.08-12.41,1.1-4.34,3.28-8.05,6.61-11.04,2.18-1.96,4.73-3.18,7.67-3.46,1.8-.17,3.54.15,5.26.66.85.26,1.71.49,2.58.67.99.19,1.95-.04,2.91-.27.94-.22,1.86-.49,2.81-.64,2.17-.35,4.1.3,5.72,1.73,2.94,2.61,5.03,5.78,5.83,9.69.57,2.79.19,5.45-1.14,7.97-.04.07-.07.15-.08.23-.18,1.5-.36,3-.54,4.49,0,.05,0,.1,0,.15.29.07.58.11.84.22.7.28,1.22.8,1.3,1.54.32,2.81.08,5.54-1.51,8-.21.32-.46.61-.68.93-.05.08-.08.23-.04.32.35.77.21,1.51-.39,2.03-.55.47-1.38.49-2.05.05-.05-.03-.1-.06-.18-.11Zm-24.37-9.69c-.09.06-.13.07-.16.1-.28.27-.57.54-.84.83-1.97,2.09-3.15,4.61-3.93,7.34-.03.1-.01.23.03.32.16.36.33.71.52,1.06,2.1,3.75,4.8,7.03,7.9,9.99,1.39,1.32,2.89,2.5,4.57,3.44,1.29.72,2.57.47,3.87.07.04-.01.08-.03.11-.06.74-.54,1.52-1.04,2.23-1.63,2.61-2.17,4.73-4.76,6.58-7.6.95-1.46,1.81-2.97,2.4-4.61.13-.37.23-.75.59-.99.07-.04.09-.16.12-.24.27-.76.92-1.18,1.73-1.12.11,0,.27-.05.34-.13.68-.76,1.2-1.63,1.57-2.58.65-1.7.74-3.47.65-5.26-.04-.72-.48-1.16-1.19-1.23-.37-.03-.73-.07-1.11-.11.27-1.48.53-2.93.79-4.37-.03-.01-.06-.03-.1-.04-1.05,1.01-2.31,1.59-3.74,1.89-.08-.44-.14-.83-.21-1.22-.03-.02-.06-.03-.09-.05-.03.06-.06.14-.11.18-.64.65-1.25,1.36-1.95,1.95-1.78,1.51-3.79,2.65-5.89,3.65-3.12,1.49-6.36,2.64-9.77,3.25-.18.03-.35.05-.61.09.91-2.42,1.94-4.71,2.2-7.29-.07.11-.12.18-.18.26-.73,1.05-1.41,2.15-2.22,3.14-1.41,1.72-2.84,3.42-3.98,5.34-.01.02-.05.02-.09.04.15-1.47.15-2.92-.03-4.42Zm-7.75,10.46s-.05,0-.07,0c-.02-.07-.05-.15-.07-.22-.07-.38-.15-.77-.21-1.16-.33-2.23-.68-4.45-.98-6.68-.32-2.43-.42-4.88-.36-7.33.03-1.04.07-2.09.22-3.12.54-3.92,1.83-7.59,3.9-10.97,1.59-2.58,3.57-4.76,6.28-6.2,2.37-1.25,4.89-1.66,7.54-1.37.52.06,1.03.14,1.55.21-.04-.04-.09-.06-.14-.07-1.4-.3-2.83-.41-4.25-.31-1.81.13-3.51.64-5.11,1.51-2.3,1.26-4.1,3.06-5.59,5.19-1.62,2.31-2.78,4.85-3.65,7.54-.82,2.53-1.26,5.12-1.27,7.77,0,2.08.06,4.15.19,6.23.1,1.59.29,3.17.52,4.74.25,1.75.58,3.49.9,5.23.14.77.34,1.52.51,2.28.08-.08.12-.15.14-.23.38-1.52.76-3.05,1.14-4.58.59-2.41,1.2-4.82,2.16-7.11.93-2.22,2.16-4.23,3.89-5.92.09-.09.2-.17.36-.3.22,1.06.43,2.05.63,3.04.03,0,.07.02.1.03,1.5-2.85,3.53-5.2,6.29-6.94.05.12.09.2.11.27.57,2.41.64,4.84.33,7.36.67-.17,1.29-.28,1.88-.48,1.91-.65,3.41-1.88,4.69-3.4,1.11-1.31,1.96-2.79,2.68-4.34.98-2.12,1.75-4.31,2.24-6.59.41-1.91.67-3.83.58-5.79-.05-1.05-.28-2.05-.88-2.94-.22-.32-.51-.6-.76-.9-.02.02-.04.04-.06.05.67.75,1.07,1.63,1.26,2.62.24,1.3.08,2.6-.1,3.89-.31,2.2-.9,4.33-1.71,6.4-.85,2.18-1.83,4.28-3.24,6.16-1.06,1.41-2.29,2.65-3.89,3.44-.46.23-.94.39-1.51.62.18-2.8-.05-5.44-.91-8.03-2.67,1.45-4.85,3.4-6.54,5.9-.03-.01-.07-.02-.1-.03-.16-.7-.32-1.4-.47-2.1l-.11-.05c-.81.82-1.67,1.61-2.42,2.48-1.66,1.94-2.76,4.2-3.59,6.61-.81,2.36-1.36,4.79-1.94,7.22-.03.13-.08.26-.12.39Zm10.2-34.21l-.06-.07c-.34.26-.69.51-1.01.78-1.1.92-1.95,2.05-2.74,3.23-1.84,2.74-3.19,5.7-4.08,8.87-.68,2.45-1.26,4.93-1.52,7.47-.22,2.18-.41,4.36-.6,6.54-.07.76-.11,1.53-.15,2.29-.06,1.11-.11,2.23-.16,3.34.21-1.32.34-2.64.5-3.96.32-2.63.62-5.25,1-7.87.36-2.5.93-4.96,1.74-7.36.91-2.7,2.11-5.28,3.43-7.8.83-1.6,1.79-3.12,2.9-4.55.24-.31.51-.61.76-.91Zm11.28-2.1c.42,0,.85-.03,1.27,0,.67.06,1.33.19,1.99.22.65.03,1.27.2,1.85.47,1.02.47,1.76,1.28,2.47,2.13.51.61.99,1.25,1.19,2.05.43,1.77.44,3.55.08,5.32-.5,2.54-1.41,4.94-2.56,7.26-.48.96-.96,1.91-1.44,2.86.08-.02.12-.08.17-.13,1.26-1.33,2.3-2.81,3.12-4.45,1.47-2.93,2.05-6.01,1.65-9.26-.12-.98-.26-1.97-.82-2.83-.68-1.05-1.54-1.95-2.55-2.68-.45-.33-.97-.61-1.5-.77-1.61-.49-3.26-.43-4.91-.19Z"/>
    <path class="cls-1" d="m96.32,32.71c0,3.76-3.11,6.84-6.94,6.84-3.82,0-6.92-3.05-6.94-6.84-.02-3.79,3.09-6.88,6.93-6.89,3.86,0,6.95,3.05,6.96,6.89Zm-9.66-2.69c-.07.04-.17.09-.27.15-1.63.94-2.34,2.52-2.09,4.23.34,2.33,2.75,4.08,5.07,3.67,1.85-.33,3.41-1.24,4.48-2.81,1.67-2.44.88-6.36-2.56-7.69-.36-.14-.74-.22-1.11-.33.28.16.57.26.85.39.28.13.55.29.81.46,2.3,1.44,2.85,4.23,1.77,6.27-.65,1.24-1.75,1.96-3,2.48-.86.36-1.76.48-2.64.18-2.36-.81-3.61-3.06-2.32-5.56.27-.52.67-.98,1.01-1.45Z"/>
    <path class="cls-1" d="m96.95,90.52c.32.35.62.67.94,1.02-.49.55-1.02,1.14-1.55,1.74-1.67,1.89-3.35,3.77-5.02,5.66-.45.51-.78.53-1.28.07-.71-.65-1.42-1.3-2.11-1.96-.2-.19-.32-.18-.51,0-.7.72-1.42,1.42-2.13,2.13-.48.47-.87.45-1.31-.07-2.05-2.45-4.11-4.89-6.16-7.34-.07-.09-.17-.17-.2-.27-.03-.1.01-.22.03-.33,0-.02.04-.04.07-.06,1.08-.75.66-.83,1.5.15,1.78,2.08,3.55,4.18,5.31,6.27.15.18.26.17.42,0,.67-.68,1.35-1.34,2.02-2.01.48-.48.83-.49,1.33-.03.68.63,1.37,1.26,2.04,1.9.2.19.3.19.49-.02,1.95-2.2,3.9-4.39,5.86-6.58.07-.08.15-.16.26-.27Z"/>
    <path class="cls-1" d="m102.38,89.28c-.21-1.43-.42-2.78-.61-4.12-.27-1.85-.53-3.7-.79-5.55-.14-1.01-.18-.82.76-1.11,1.08-.33,2.16-.63,3.24-.94.06-.02.13-.03.26-.05-1.18,3.88-2.13,7.76-2.86,11.77Z"/>
    <path class="cls-1" d="m88.34,93.23c0,.49-.38.88-.89.87-.49,0-.87-.37-.88-.85,0-.47.4-.9.87-.91.47,0,.89.4.89.88Z"/>
    <path class="cls-1" d="m88.53,100.28c0,.5-.37.89-.86.9-.5,0-.89-.37-.9-.86,0-.47.37-.87.85-.89.49-.02.91.37.91.85Z"/>
    <path class="cls-1" d="m90.73,83.06c-1.05,1.51-3.23,2.34-4.94,1.91-.58-.14-1.07-.44-1.5-.84-.34-.32-.66-.66-.98-.99-.15-.16-.15-.31.06-.42.88-.48,1.75-.97,2.64-1.45.09-.05.26-.03.34.03.39.28.76.33,1.16,0,.07-.06.23-.07.3-.03.97.58,1.94,1.18,2.93,1.79Z"/>
    <path class="cls-1" d="m95.87,69.91c-.23.04-.48.07-.73.14-.07.02-.14.12-.18.19-.08.14-.11.31-.21.43-.27.34-.56.66-.85.99-.08.09-.19.15-.29.22-.03,0-.06-.02-.1-.03.04-.55.08-1.1.13-1.68-.95-.05-1.89-.08-2.77-.46,0-.03,0-.07,0-.1.81,0,1.63.05,2.43-.01,1.13-.09,2.21-.4,3.23-.91.96-.47,1.95-.88,2.92-1.32.03.03.06.07.09.1-.21.33-.41.67-.65.98-.11.14-.15.24-.06.4.12.21.22.44.32.67.04.1.05.21.09.42-.42-.15-.76-.26-1.08-.41-.36-.18-.7-.19-1,.04v1.65c-.56-.39-.97-.8-1.32-1.31Z"/>
    <path class="cls-1" d="m86.2,70.71c.29.71.38,1.45.36,2.21-.02.68-.18,1.33-.48,1.94-.13.27-.29.53-.39.81-.12.31-.24.62-.28.94-.08.7.22,1.03.92,1.13.3.04.59.1.88.18.18.05.35.15.59.26-.58.16-1.07.35-1.58.41-1.35.17-2.2-.83-1.85-2.15.1-.37.29-.73.47-1.07.15-.29.34-.56.53-.84.47-.7.71-1.49.76-2.33.03-.5.06-1,.08-1.5Z"/>
  </g>
</svg>