<?xml version="1.0" encoding="UTF-8"?>
<svg id="Layer_2" data-name="Layer 2" xmlns="http://www.w3.org/2000/svg" viewBox="0 0 260.41 252.23">
  <defs>
    <style>
      .cls-1 {
        fill: #637481;
      }
    </style>
  </defs>
  <path class="cls-1" d="m83.83,145.13h111.28c-.04.34-.05.66-.13.96-2.67,11.29-8.6,20.46-18,27.28-5.29,3.84-10.81,7.38-16.05,11.28-3.17,2.36-6.24,4.95-8.95,7.82-5.04,5.33-6.51,9.06-7.93,17.93h-9.2c-.18-1.43-.25-2.87-.54-4.27-1.42-6.82-5.2-12.3-10.36-16.69-4.27-3.64-9.04-6.68-13.55-10.05-4.47-3.34-9.09-6.53-13.3-10.18-7.24-6.28-11.11-14.6-13.32-23.77-.02-.07.02-.16.03-.3Zm16.31,12.92c3.54,6.19,8.78,10.16,14.94,13.25.6-1.25,1.12-2.35,1.66-3.48-5.37-2.74-9.98-6.15-13.07-11.33-1.16.51-2.25.99-3.53,1.56Z"/>
  <path class="cls-1" d="m165.52,131.35c-8.37,0-16.73-.02-25.1.03-1.02,0-1.54-.32-1.98-1.22-8.93-18.31,2.38-40.01,22.54-43.18,13.75-2.17,27.54,5.6,32.58,18.59,3.21,8.29,3.06,16.59-.91,24.69-.4.82-.86,1.12-1.78,1.12-8.45-.04-16.9-.02-25.35-.02Zm.13-39.31v3.82c5.72.15,10.61,2.17,14.62,6.02.94-.95,1.79-1.82,2.71-2.74-4.81-4.59-10.52-7.02-17.32-7.1Zm-10.38,28.34c-1.43.42-2.76.8-4.17,1.21.37,1.26.71,2.43,1.08,3.69,1.43-.42,2.76-.8,4.18-1.21-.37-1.27-.72-2.44-1.09-3.7Zm26.26-3.67h3.77v-3.38h-3.77v3.38Zm-34.18-11.02v-2.59h-3.69v2.59h3.69Z"/>
  <path class="cls-1" d="m163.59,82.85c-6.05.43-11.54,2.19-16.52,5.42-5,3.24-8.87,7.53-11.56,12.57-2.91-1.67-5.77-3.3-8.61-4.96-.25-.15-.46-.46-.58-.74-2.97-6.55-8.17-9.35-15.35-8.25-.31.05-.63.07-1.33.15.44-1.44.63-2.77,1.23-3.88,11.03-20.26,39.85-21.08,52.08-1.5.21.34.38.7.64,1.18Zm-15.49-3.77c.68-1.18,1.27-2.21,1.92-3.33-3.97-2.26-8.09-3.4-12.54-3.37v3.82c3.81.07,7.28,1.01,10.63,2.89Zm-11.05,9.96c-.9.77-1.71,1.46-2.57,2.19.87,1.02,1.66,1.96,2.5,2.95.88-.76,1.68-1.46,2.55-2.2-.83-.98-1.6-1.89-2.48-2.93Zm1.64-8.93c-1.2.7-2.25,1.31-3.35,1.96.49.81.9,1.49,1.33,2.21,1.18-.68,2.23-1.28,3.31-1.89-.46-.83-.84-1.5-1.28-2.28Zm-14.98-1.09c-1.15.76-2.17,1.43-3.24,2.14.48.71.88,1.3,1.31,1.92,1.13-.75,2.13-1.4,3.19-2.1-.43-.67-.8-1.25-1.26-1.96Z"/>
  <path class="cls-1" d="m127.75,100.42c1.88,1.39,3.76,2.77,5.61,4.2.17.13.2.61.12.86-3.01,8.7-2.56,17.24,1.24,25.76h-51.14c-1.61-7.41,1.74-18.9,6.39-22.28.06.03.17.04.18.09,2.72,7.05,10.21,10.74,17.65,10.31,2.8-.16,5.45-.88,8.05-1.92,1.53-.61,3.14-1.05,4.74-1.45,1.56-.39,3.15-.65,4.83-.98v-3.66h-1.37c.85-1.73,1.84-3.36,2.45-5.12.61-1.77.82-3.68,1.27-5.81Zm-6.93,24.42c.89-.84,1.69-1.59,2.56-2.41-.9-.96-1.72-1.84-2.63-2.81-.89.84-1.71,1.61-2.56,2.42.89.95,1.7,1.82,2.63,2.81Zm-29.79.94c1.03-.83,1.98-1.6,3-2.43-.65-.78-1.23-1.49-1.84-2.23-1.05.86-2,1.62-2.97,2.42.62.77,1.16,1.44,1.81,2.24Z"/>
  <path class="cls-1" d="m139.4,141.17c-19.68,0-39.36,0-59.04,0-.37,0-.75,0-1.12,0-1.8-.06-3.04-1.23-3.06-2.91-.02-1.67,1.18-2.93,2.95-3.06.41-.03.83-.01,1.24-.01,39.49,0,78.97,0,118.46,0,.61,0,1.25.03,1.84.19,1.37.38,2.26,1.77,2.1,3.14-.17,1.44-1.26,2.51-2.71,2.63-.45.04-.91.02-1.37.02-19.76,0-39.53,0-59.29,0Z"/>
  <path class="cls-1" d="m106.51,115.87c-2.21-.61-4.55-.95-6.61-1.88-6.99-3.15-9.26-12.15-4.71-18.14,1.52-2,3.49-3.19,6.03-3.54,3.64-.49,7.26-1.13,10.89-1.69,5.97-.92,11.02,3.18,11.4,9.24.37,5.99-3.41,11.79-9.1,13.89-2.52.93-5.04,1.92-7.81,1.73-.03.13-.06.26-.09.39Zm-5.26-18.35c4,1.07,7.77.85,11.57-.41-.42-1.29-.78-2.42-1.16-3.61-3.03.83-5.96,1.2-9,.4-.47,1.21-.91,2.35-1.41,3.62Z"/>
  <path class="cls-1" d="m57.87,65.86c-.08-1.26-.16-2.45-.25-3.94,1.43,0,2.77,0,4.11,0,8.88.07,17.48,1.49,25.48,5.58,8.41,4.3,14.57,10.79,18.54,19.36.14.3.24.61.42,1.09-1.31.13-2.53.28-3.75.33-.2,0-.5-.38-.63-.64-6.38-12.67-17.11-19.06-30.74-21.06-4.03-.59-8.17-.51-12.26-.73-.28-.02-.56,0-.94,0Z"/>
  <path class="cls-1" d="m168.77,76.89c.49,1.23.93,2.34,1.43,3.58,3.2-1.28,6.36-2.54,9.81-3.92-1.12,2.65-2.1,5.03-3.17,7.37-.11.25-.75.45-1.09.39-2.4-.42-4.79-.9-7.17-1.41-.33-.07-.69-.38-.89-.68-1.2-1.83-2.37-3.68-3.51-5.56-.18-.29-.14-.72-.17-1.09,0-.11.09-.23.14-.34.73-1.67,1.09-3.71,2.29-4.9,1.2-1.18,3.24-1.53,4.92-2.21,4.82-1.95,9.65-3.88,14.77-5.94-.72,1.71-1.33,3.17-1.96,4.62-.67,1.55-1.02,3.45-2.15,4.55-1.12,1.1-3.02,1.42-4.59,2.06-2.83,1.15-5.67,2.28-8.67,3.49Z"/>
  <path class="cls-1" d="m116,220.09v-3.75h46.92v3.75h-46.92Z"/>
  <path class="cls-1" d="m173.93,52.28c2.36-5.53,4.6-10.8,6.8-15.97,2.2,1.24,4.29,2.66,6.57,3.64,2.29.98,4.77,1.52,7.26,2.28-.26,1.05-.66,2.11-2.13,2.67-5.7,2.2-11.35,4.53-17.02,6.81-.41.16-.82.32-1.48.57Z"/>
  <path class="cls-1" d="m168.48,65.09c1.11-2.61,2.09-4.96,3.11-7.3.12-.27.41-.53.69-.65,6.32-2.56,12.65-5.1,19.17-7.72-.13.44-.19.73-.31,1-.38.92-.9,1.8-1.14,2.75-.75,3.06-2.73,4.6-5.67,5.63-5.26,1.84-10.38,4.09-15.86,6.29Z"/>
  <path class="cls-1" d="m196.25,37.86c-3.86.66-11.56-2.64-13.4-5.72,5.21.27,9.51,2.16,13.4,5.72Z"/>
</svg>