<?xml version="1.0" encoding="UTF-8"?>
<svg id="Layer_2" data-name="Layer 2" xmlns="http://www.w3.org/2000/svg" viewBox="0 0 260.41 252.23">
  <defs>
    <style>
      .cls-1 {
        fill: #637481;
      }
    </style>
  </defs>
  <path class="cls-1" d="m101.27,221.05c-2.15-.94-2.95-2.64-2.84-4.9.15-3.14-.13-6.37.51-9.4,1.35-6.4,6.29-10.26,13.09-10.87,4.86-.44,7.04-2.81,7.04-7.7,0-22,0-44,0-66v-2c-.89,0-1.61,0-2.33,0-15.58,0-31.15.02-46.73-.01-7.36-.02-13.2-4.67-14.43-11.39-1.64-8.94,4.86-16.67,14.2-16.77,6.67-.07,13.35-.01,20.03-.02.67,0,1.33,0,2.19,0,0-2.42.07-4.69-.05-6.96-.03-.58-.57-1.19-.98-1.7-6.44-7.9-12.89-15.8-19.37-23.68-1.21-1.47-2.08-2.97-1.14-4.88.9-1.82,2.54-2.13,4.38-2.11,3.27.04,6.54.01,10.12.01-1.2-2.31-2.29-4.42-3.38-6.54-.39-.77-.82-1.53-1.12-2.33-.69-1.87-.02-3.73,1.6-4.62,1.69-.93,3.77-.47,4.85,1.32,1.33,2.22,2.76,4.45,3.6,6.87,1.52,4.36,4.18,6.3,8.81,5.32.71-.15,1.47-.02,2.17-.02,3.44-11.66,14.61-14.86,22.66-11.52,8.22,3.42,12.2,12.72,8.95,21.28-2.91,7.65-12.18,13.34-22.75,8.86-3.49,4.26-7,8.56-10.5,12.87-.22.27-.4.66-.4.99-.04,2.21-.02,4.42-.02,6.82,5.03,0,9.89,0,14.75,0,.74,0,1.49-.01,2.21.13,1.75.34,2.98,1.83,3.02,3.51.04,1.74-1.25,3.31-3.07,3.65-.72.13-1.48.11-2.22.11-14.65,0-29.3.02-43.95,0-3.13,0-5.57,1.1-6.9,4.03-1.87,4.13.92,8.82,5.48,9.29.55.06,1.11.04,1.67.04,39.87,0,79.74,0,119.61,0,3.64,0,6.09-1.43,7.19-4.16,1.76-4.35-1.31-9.03-6.12-9.16-3.83-.11-7.66-.03-11.5-.03-10.32,0-20.65,0-30.97,0-2.55,0-4.08-1.13-4.37-3.1-.36-2.5,1.26-4.26,4.09-4.29,4.08-.05,8.15-.01,12.52-.01,0-2.65.06-5.21-.07-7.77-.02-.34-.97-.77-1.56-.93-6.61-1.84-11.35-5.82-13.96-12.2-2.03-4.96-2.06-10.01-.1-14.98,1.55-3.91,3.33-7.76,3.28-12.06-.03-2.58-.27-5.17-.69-7.71-.53-3.25.9-5.15,4.23-5.16,8.41-.02,16.81-.02,25.22,0,3.15,0,4.81,1.84,4.12,4.88-1.49,6.6-.46,12.76,2.15,18.95,5.19,12.33-.84,24.57-13.69,28.26-1.2.34-1.56.82-1.51,2.01.09,2.15.03,4.31.03,6.71.78,0,1.43,0,2.09,0,6.74,0,13.48-.06,20.21.02,10.18.12,16.82,9.26,13.67,18.73-1.92,5.78-7.32,9.42-14.09,9.43-15.45.02-30.91,0-46.36,0h-2.52v2c0,22,0,44,0,66,0,4.89,2.18,7.26,7.04,7.7,8.25.74,13.4,6.3,13.59,14.71.04,1.85-.04,3.71.02,5.56.07,2.26-.7,3.96-2.85,4.9h-1.85c-2.12-.98-2.84-2.69-2.75-4.95.09-2.22.11-4.46-.09-6.67-.31-3.57-2.71-6.06-6.27-6.11-7.74-.11-14.43-6.12-14.33-15.78.22-21.69.07-43.38.07-65.08v-2.16h-7.42v2.34c0,21.94.01,43.88,0,65.82,0,8.39-5.41,14.17-13.7,14.77-4.44.32-6.83,2.82-6.93,7.29-.04,1.85-.09,3.71.01,5.56.12,2.26-.62,3.97-2.74,4.95h-1.85Zm51.99-165.1h22.68c-2.43-5.62-3.07-11.37-2.61-17.24h-17.58c.6,5.97-.18,11.65-2.48,17.24Zm24.55,7.64h-26.41c-.55,6.88,5.59,12.87,13.11,12.92,7.55.05,13.75-5.94,13.3-12.92Zm-68.15-10.89c2.69,0,5.33-.03,7.96,0,1.54.02,2.75.71,3.41,2.13.65,1.41.46,2.76-.5,3.99-.53.68-1.09,1.34-1.63,2.01-1.13,1.39-2.27,2.79-3.5,4.3,5.7.98,10.1-1.81,11.26-6.86,1.05-4.57-1.83-9.32-6.43-10.64-4.32-1.24-9.11.98-10.56,5.04Zm-14.11,24.51c.26,0,.53-.01.79-.02.05-.82.41-1.79.09-2.43-2.27-4.58-4.67-9.1-7.06-13.62-.21-.39-.61-.95-.94-.96-2.17-.09-4.34-.04-6.86-.04,4.85,5.93,9.41,11.5,13.98,17.08Zm14.31-17.01h-12.58c1.66,3.17,3.23,6.18,4.9,9.38,2.6-3.17,5.01-6.12,7.68-9.38Z"/>
  <path class="cls-1" d="m35.25,114.25c.9-.86,1.67-2.11,2.74-2.5,2.48-.9,4.63.99,4.66,3.91.05,4.45.01,8.9.01,13.35,0,.67,0,1.35,0,2.3h2.03c11.68,0,23.36-.02,35.04,0,6.91.01,12.53,3.77,14.6,9.65,3.5,9.96-3.34,19.75-14.01,19.99-3.7.08-7.4.01-11.24.01v52.66c2.21,0,4.41,0,6.62,0,3.77,0,7.54,0,11.31,0,2.73,0,4.16.86,4.65,2.75.52,2.01-.21,3.3-2.63,4.66h-47.85c-2.32-1.61-3.02-3-2.43-4.82.58-1.8,2.05-2.6,4.8-2.6,5.31,0,10.62,0,15.93,0,.65,0,1.3,0,1.9,0v-52.66c-3.67,0-7.19,0-10.7,0-4.19,0-7.87-1.34-10.93-4.24-2.51-2.38-3.71-5.46-4.5-8.74,0-11.25,0-22.5,0-33.75Zm7.48,24.49c0,2.89-.18,5.61.04,8.29.31,3.67,3.38,6.46,7.15,6.48,10.26.07,20.51.09,30.77,0,4.11-.04,7.24-3.43,7.21-7.44-.03-3.93-3.12-7.28-7.15-7.31-12.6-.09-25.2-.03-38.03-.03Z"/>
  <path class="cls-1" d="m171.37,221.05c-.86-.83-2.08-1.5-2.52-2.51-1.1-2.53.88-4.87,3.99-4.89,5.44-.04,10.88-.01,16.32-.01.67,0,1.35,0,2.3,0v-2.05c0-9.08,0-18.17,0-27.25,0-3.37,1.28-5.16,3.69-5.19,2.46-.04,3.73,1.68,3.73,5.09,0,9.02,0,18.04,0,27.06v2.33c.74,0,1.38,0,2.03,0,5.32,0,10.63,0,15.95,0,2.76,0,4.22.79,4.81,2.59.59,1.82-.11,3.22-2.43,4.82h-47.85Z"/>
  <path class="cls-1" d="m217.74,131.31c0-5.19-.01-10.07.01-14.95,0-.79.04-1.63.29-2.37.54-1.66,1.8-2.47,3.53-2.43,1.66.04,2.82.9,3.31,2.48.23.75.27,1.58.27,2.37.02,9.58.02,19.16,0,28.74-.02,9.5-6.3,15.8-15.8,15.82-9.64.02-19.28.04-28.93,0-7.71-.04-13.95-5.15-15.06-12.2-1.5-9.55,5.27-17.4,15.15-17.44,11.68-.05,23.36-.01,35.05-.01.66,0,1.33,0,2.17,0Zm-.08,7.43c-12.82,0-25.43-.06-38.03.03-4.02.03-7.11,3.39-7.13,7.32-.02,3.93,3.04,7.36,7.05,7.4,10.38.11,20.76.1,31.14,0,3.58-.03,6.58-2.78,6.92-6.3.26-2.74.05-5.52.05-8.46Z"/>
  <path class="cls-1" d="m195.22,174.28c-1.93.01-3.69-1.73-3.71-3.66-.02-1.94,1.71-3.67,3.67-3.69,1.99-.01,3.65,1.64,3.66,3.65,0,2-1.65,3.69-3.62,3.7Z"/>
  <path class="cls-1" d="m130.61,99.39c-1.93,0-3.69-1.74-3.7-3.66,0-1.92,1.74-3.68,3.67-3.69,1.92-.01,3.68,1.73,3.69,3.66,0,1.93-1.73,3.68-3.66,3.69Z"/>
</svg>