<?xml version="1.0" encoding="UTF-8"?>
<svg id="Layer_1" data-name="Layer 1" xmlns="http://www.w3.org/2000/svg" viewBox="0 0 127 127">
  <defs>
    <style>
      .cls-1 {
        fill: #637481;
      }
    </style>
  </defs>
  <path class="cls-1" d="m75.9,62.49c-1.14-.76-2.18-1.45-3.29-2.2-1.08,1.63-1.35,2.98.34,4.33.4.32.63,1.45.38,1.92-3.77,7.33-4.82,15.21-5.16,23.33-.18,4.3-.48,8.81-1.94,12.78-.98,2.67-.22,4.85-.15,7.52h-5.74c.21-1.99.42-3.98.67-6.38-.77.42-1.11.57-1.42.78-1.43,1.01-2.6.5-3.03-.94-.44-1.45-.86-3.22-.4-4.55.69-2.01.15-3.72-.12-5.6-.69-4.95-1.11-9.95-1.76-14.9-.28-2.09-.82-4.15-1.33-6.2-.59-2.32-1.36-4.6-1.87-6.94-.1-.47.47-1.45.95-1.63,1.94-.73,1.65-2,.92-3.89-1.19.43-2.4.85-3.74,1.33,0-2.2.14-4.82-.03-7.41-.34-5.21-.1-10.35,1.74-15.28.63-1.69,1.44-4.28,2.64-4.58,2.93-.74,3.35-4.56,6.08-4.38,1.58,9.93-.57,19.84-1.38,30.29,3.17-.25,6.7-.54,10.23-.82l.19-.42c-1.3-.47-2.61-.94-3.88-1.4.66-.07,1.42-.14,2.4-.24-.37-4.59.91-9.13-.47-13.84-.91-3.09-.3-6.53.76-9.76.3-.91-.28-2.11-.55-3.75-.61.74-.83,1.2-1.19,1.4-.82.45-2.19,1.32-2.49,1.05-1.02-.91-1.8-2.17-2.44-3.41-.52-1-.56-2.24-1.07-3.24-.94-1.86-.28-6.08,1.32-7.42,1.27-1.06,2.62-1.65,4.3-.85,1.85.88,2.85,2.24,2.88,4.33.02,1.87.14,3.64-1.02,5.4-1.02,1.55-.25,2.77,1.53,3.3,2.07.62,2.76,1.4,3.42,3.87,2.24-.27,3.11,1.58,3.47,3,1.07,4.24,2.38,8.6,2.31,12.89-.06,3.41.39,7.22-1.68,10.47-.35.55-.27,1.37-.38,2.04Zm-13.29,9.84l-.84-.08v14.85c.06.01.12.02.18.03.22-4.94.44-9.87.66-14.81Zm9.27-15.7c.19.01.38.03.57.04v-5.65c-.19,0-.38,0-.57,0v5.61Z"/>
  <path class="cls-1" d="m64.51,56.21c-2.51-.84-2.95-2.23-2.85-4.18.25-4.77.26-9.55.48-14.32.07-1.46.48-2.91.81-4.36.06-.25.47-.58.7-.58.26,0,.7.35.72.58.18,1.47.26,2.95.37,4.42.37,5.04.83,10.08,1.03,15.14.04,1.09-.82,2.21-1.26,3.3Z"/>
</svg>