<?xml version="1.0" encoding="UTF-8"?>
<svg id="Layer_2" data-name="Layer 2" xmlns="http://www.w3.org/2000/svg" viewBox="0 0 260.41 252.23">
  <defs>
    <style>
      .cls-1 {
        fill: #637481;
      }
    </style>
  </defs>
  <path class="cls-1" d="m27.8,203.29c2.8-4.47,5.6-8.94,8.41-13.4.25.07.5.15.75.22,1.08,2.68,2.02,5.42,3.27,8.02,2.38,4.96,4.92,9.84,7.39,14.76.2.4.53.84.49,1.24-.42,4.21-5.58,8.95-9.91,9.16-4.42.21-8.08-2.13-9.73-6.22-.19-.47-.43-.92-.65-1.39,0-4.13,0-8.26,0-12.39Z"/>
  <path class="cls-1" d="m47.37,102.3c2.96-10.67,5.76-20.78,8.56-30.89,1.26-4.55,2.83-9.03,3.75-13.65,1.78-8.93,7.46-14.39,15.18-18.32,10.28-5.23,21.3-7.83,32.66-9.19,14-1.67,28.04-1.74,42.06-.36,12.44,1.23,24.56,3.79,35.83,9.55,7.72,3.95,13.47,9.39,15.14,18.34.5,2.67,1.44,5.25,2.18,7.88,3.21,11.53,6.42,23.05,9.62,34.58.14.51.24,1.02.45,1.94-18.47-9.39-38.19-13.37-58.41-16.32,3.58-7.61,4.04-15.16,1.01-22.79-2.1-5.29-5.58-9.51-10.36-12.59-10.09-6.53-23-5.82-32.22,1.73-8.49,6.96-13.36,19.86-7.14,33.29-9.85,2.02-19.75,3.8-29.53,6.11-9.85,2.32-19.37,5.73-28.77,10.68Z"/>
  <path class="cls-1" d="m130.36,90.08c9.11,1.06,18.44,1.98,27.72,3.28,13.59,1.9,26.96,4.82,39.84,9.68,8.19,3.09,15.97,6.89,22.61,12.8,3.75,3.34,5.68,7.15,5.14,12.28-.48,4.59-4.06,7.6-8.57,6.51-10.53-2.55-21-5.35-31.55-7.83-15.99-3.76-32.05-7.2-48.44-8.82-8.02-.79-15.96,0-23.87,1.19-23.25,3.47-46,9.26-68.71,15.16-6.19,1.61-9.69-1.25-10-7.58-.22-4.55,1.77-7.72,4.87-10.6,6.36-5.91,13.97-9.67,21.95-12.75,13.85-5.33,28.29-8.37,42.94-10.37,8.56-1.17,17.18-1.95,26.06-2.94Z"/>
  <path class="cls-1" d="m76.44,155.21c10.43.21,19.79,1.9,29.03,4.19,16.9,4.19,33.7,3.89,50.58-.23,6.25-1.52,12.66-2.44,19.03-3.41,10.08-1.54,19.91.2,29.57,2.94,6.52,1.84,12.92,4.11,19.39,6.11,1.25.38,1.66.98,1.62,2.26-.09,2.73.02,5.46-.06,8.19-.02.64-.3,1.49-.77,1.85-4.19,3.27-6.72,7.67-8.72,12.44-1.88,4.47-3.67,8.98-5.6,13.43-4.71,10.84-13.41,16.03-24.83,16.88-7.43.55-14.73-.42-21.67-3.45-8.33-3.64-14.04-9.83-17.11-18.24-1.86-5.1-2.72-10.55-4.47-15.69-.99-2.89-2.44-5.87-4.47-8.09-5.08-5.57-13.43-4.27-17.68,2.35-2.43,3.79-3.24,8.12-4.15,12.41-1.83,8.65-5.17,16.46-12.05,22.42-4.19,3.63-9.08,5.77-14.38,7.01-7.61,1.78-15.29,2.22-22.87-.13-7.57-2.35-13.18-7.13-16.54-14.32-2.05-4.39-3.85-8.9-5.67-13.4-2.12-5.24-4.73-10.11-9.3-13.69-.42-.33-.66-1.12-.67-1.7-.07-2.86.01-5.73-.05-8.59-.03-1.05.36-1.51,1.33-1.85,11.55-4.08,23.2-7.8,35.41-9.37,1.98-.25,3.98-.25,5.12-.31Zm2.45,57.95c1.45-.14,4.32-.25,7.13-.74,11.18-1.96,19.53-7.63,23.22-18.77,1.56-4.72,2.72-9.61,3.6-14.5,1.12-6.24-2.45-11.64-8.69-13.02-6.68-1.49-13.44-2.72-20.22-3.63-10.49-1.4-20.71.47-30.73,3.45-6.8,2.02-10,8.72-7.46,15.42,1.96,5.16,4.07,10.26,6.27,15.32,1.78,4.09,3.69,8.12,7.28,11.06,5.31,4.36,11.62,5.29,19.6,5.42Zm105.7-51.16c-10.48.33-19.52,1.86-28.46,4.07-6.34,1.57-9.95,7.18-8.67,13.63.77,3.91,1.66,7.81,2.74,11.65,2.31,8.2,6.9,14.75,14.84,18.3,7.78,3.48,16.08,4.33,24.45,3.03,7.39-1.15,13.51-4.72,16.74-11.82,3.11-6.83,6.09-13.74,8.66-20.79,1.39-3.82.37-7.71-2.49-10.75-1.14-1.22-2.65-2.39-4.21-2.88-8.08-2.56-16.35-4.18-23.61-4.42Z"/>
  <path class="cls-1" d="m130.17,52.82c7.56.26,13.48,3.51,17.39,9.96,4.15,6.84,4,13.86.12,20.84-.57,1.02-1.19,1.33-2.38,1.17-10.15-1.4-20.3-1.39-30.45.01-1.12.15-1.7-.15-2.23-1.09-3.92-6.96-4.11-13.97.01-20.84,3.93-6.54,9.9-9.8,17.53-10.04Z"/>
  <path class="cls-1" d="m223.46,189.73c2.76,3.78,5.41,7.1,7.71,10.65,1.98,3.05,1.81,14.69.06,17.89-3.48,6.38-12.54,6.79-16.58.75-.07-.11-.14-.23-.21-.34-1.78-2.75-2.54-4.97-.28-8.43,3.19-4.88,5.03-10.63,7.44-16.02.59-1.33,1.12-2.69,1.87-4.5Z"/>
  <path class="cls-1" d="m58.33,194.07c-2.08-5.04-4.35-10.27-6.38-15.59-.94-2.45.4-5.18,2.74-5.87,8.72-2.57,17.58-4.25,26.74-3.6.65.05,1.3.2,1.69.27-8.19,8.19-16.45,16.45-24.79,24.79Z"/>
  <path class="cls-1" d="m101.09,172.36c-.62.69-1.02,1.17-1.47,1.62-9.93,9.94-19.88,19.85-29.76,29.83-1.09,1.1-2.01,1.35-3.25.53-1.53-1.01-3.04-2.05-4.75-3.2.69-.77,1.09-1.26,1.54-1.71,9.17-9.18,18.37-18.35,27.51-27.56.93-.94,1.74-1.36,3.11-.99,2.22.6,4.5.96,7.06,1.48Z"/>
  <path class="cls-1" d="m106.21,177.97c-1.44,5.69-2.08,11.87-5.08,17.29-4.38,7.91-12,10.19-20.33,10.93-1.04.09-2.1.01-2.82.01,9.35-9.35,18.81-18.81,28.23-28.23Z"/>
  <path class="cls-1" d="m206.19,173.01c1.91,1.19,3.08,3.23,2.14,5.28-3.36,7.35-5.07,15.44-9.97,22.09-2.56,3.48-6.24,4.96-10.21,5.57-4.79.74-9.62.33-14.28-.62,10.78-10.78,21.49-21.49,32.32-32.33Z"/>
  <path class="cls-1" d="m165.55,202.23c-1.3-1.15-3.11-2.76-5.03-4.46.58-.65.94-1.1,1.35-1.5,8.61-8.61,17.24-17.2,25.81-25.85.95-.96,1.88-1.32,3.16-1.06,2.28.44,4.57.82,6.46,1.16-10.43,10.41-20.97,20.94-31.76,31.72Z"/>
  <path class="cls-1" d="m157.03,190.53c-.94-3.94-2.05-8.09-2.89-12.3-.59-2.96.97-5.09,3.95-5.65,6.9-1.31,13.82-2.53,20.66-3.77-7.28,7.28-14.47,14.47-21.72,21.72Z"/>
</svg>