<?xml version="1.0" encoding="UTF-8"?>
<svg id="Layer_2" data-name="Layer 2" xmlns="http://www.w3.org/2000/svg" viewBox="0 0 260.41 252.23">
  <defs>
    <style>
      .cls-1 {
        fill: #637481;
      }
    </style>
  </defs>
  <path class="cls-1" d="m102.04,175.59c-2.67-.58-5.26-1.19-7.86-1.7-1.67-.33-2.3-1.18-2.24-2.92.15-4.49,1.86-8.1,6.87-8.91.31-.05.57-.37,1.06-.71-.69-.46-1.21-.77-1.69-1.14-3.81-2.97-7.77-5.76-11.36-8.97-3.9-3.49-4.74-7.99-2.93-12.9,3.36-9.12,8.02-17.58,13.28-25.71.97-1.51,1.47-2.95,1.42-4.77-.13-5.45.84-10.76,2.59-16.14-.76,0-1.37,0-1.97,0-3.86.04-6.81-1.58-8.52-5.05-1.74-3.56-1.33-7.14,1.45-9.9,4.59-4.57,9.45-8.87,14.31-13.16,1.11-.98,1.65-1.72,1.45-3.29-1.98-15.17,9.33-27.93,24.26-27.44,5.13.17,9.33,2.45,12.69,6.17,1.73,1.92,3.16,4.14,4.53,6.35.63,1.02,1.24,1.32,2.4,1.29,4.7-.09,9.42-.19,14.12-.03,5.78.2,9.56,5.36,8.35,11.01-.16.75,0,1.7.32,2.41,1.51,3.34.72,6.42-.71,9.54-.44.96-.71,2.17-.56,3.19,1.27,8.81,2.72,17.6,3.98,26.42.72,5.03-1.26,8.97-5.51,11.71-6.47,4.17-12.96,8.31-19.48,12.41-1.03.65-1.44,1.2-1.2,2.56,1.24,7.13-1.37,12.1-7.86,15.54-.45.24-.93.89-.95,1.37-.08,1.97-.05,3.95.05,5.92.13,2.51,1.1,4.73,2.86,6.5,10.21,10.26,15.46,22.81,17.28,36.98.6,4.67-1.84,8.35-6.49,9.54-3.65.93-3.6.94-4.03,4.63-.42,3.6-.97,7.19-1.44,10.78-.18,1.39-.8,2.37-2.32,2.17-1.52-.2-1.84-1.31-1.65-2.7.51-3.78.99-7.57,1.46-11.36.11-.88.16-1.76.24-2.73-3.2-.91-6.33-1.07-9.5-.54-1.57.26-3.11.77-4.68.89-1.39.1-1.85.56-1.81,1.97.09,3.75.1,7.52-.02,11.27-.03.82-.5,1.94-1.13,2.35-1.37.88-2.77-.24-2.79-2.12-.04-3.76-.01-7.51-.01-11.27,0-.69,0-1.38,0-1.94-6.5-2.74-12.65-.84-19.06.81.44,3.67.88,7.37,1.33,11.08.08.69.21,1.39.26,2.08.08,1.17-.39,2.03-1.6,2.21-1.28.19-2.13-.46-2.3-1.72-.54-4.03-1.08-8.07-1.48-12.12-.13-1.28-.33-1.95-1.79-2.35-3.68-.99-6.15-4.4-5.55-8.29.92-6.01,2.34-11.95,3.55-17.92.09-.43.23-.84.37-1.35Zm38.18-67.34c-.16,1.73-.2,3.26-.46,4.76-.8,4.63-2.89,8.31-7.75,9.66-6.05,1.69-12.73-2.27-14.36-8.52-.44-1.69-.53-3.46-.78-5.18-2.04-.04-2.77.84-3.1,2.87-.51,3.1-1.61,6.11-2.52,9.14-.56,1.88-1.37,3.7-1.81,5.6-1.06,4.56.45,8.32,4.57,10.48,1.76.93,3.96,1.11,6,1.38,1.32.18,2.49.34,2.59,1.89.1,1.66-1.04,2.17-2.48,2.2-1.05.02-2.1,0-3.25,0,0,1.64-.09,3.04.02,4.43.34,4.42-.93,8.33-3.07,12.18-2.25,4.04-4.17,8.29-5.95,12.57-3,7.19-5.02,14.66-5.8,22.44-.33,3.31,1.02,5.25,4.32,5.36,2.25.08,4.6-.12,6.76-.7,4.73-1.26,9.34-1.27,14.14-.34,2.72.53,5.7.41,8.46-.05,3.88-.65,7.65-.91,11.55-.3,2.22.34,4.59.27,6.8-.12,3.83-.67,4.81-2.41,4.26-6.24-1.88-12.95-6.78-24.42-16.13-33.82-2.77-2.78-4.01-6.29-4-10.22,0-2.1.1-4.21-.03-6.3-.13-1.93.65-2.84,2.48-3.42,4.7-1.5,7.22-5.3,6.58-10.08-.32-2.36-1.21-4.64-1.89-6.95-.82-2.79-1.76-5.55-2.51-8.36-.37-1.39-.44-2.86-.65-4.37h-2.01Zm9.28-6.31c2.99-1.25,5.65-2.44,8.38-3.48,1.37-.52,1.93-1.18,1.84-2.77-.34-6.55-.52-13.11-.75-19.66-.34-9.73-.35-9.78,6.73-16.45.93-.87,2.29-1.26,3.38-1.99.54-.36,1.19-.96,1.27-1.52.44-3.18-1.74-5.33-5.51-5.54-21.27-1.16-40.64,4.11-57.45,17.47-4.32,3.43-8.18,7.45-12.16,11.29-1.62,1.56-1.88,3.6-.9,5.64.95,1.99,2.66,2.82,4.84,2.72.83-.04,1.7.06,2.47-.18.68-.21,1.53-.67,1.82-1.25,3.18-6.58,8-11.77,13.67-16.21,6.44-5.04,13.57-8.75,21.58-10.59,6.37-1.47,11.35,2.48,11.4,8.98,0,1.05,0,2.11,0,3.3,1.28,0,2.29-.02,3.3,0,2.36.05,3.1.91,2.69,3.25-.65,3.71-1.91,7.03-5.93,8.18-.65,9.13-5.4,13.2-15.83,13.61,0,2.54.89,4.82,2.71,6.44.87.77,2.54.65,3.85.91.37.07.77-.01,1.14.06,1.38.28,2.26-.39,2.67-1.58.61-1.8,1.12-3.63,1.55-5.48.3-1.31.91-2.14,2.32-1.95,1.44.19,1.84,1.22,1.65,2.52-.19,1.31-.44,2.61-.73,4.28Zm-53.16,68.29c1.75.37,3.55.76,5.34,1.13,1.29.27,2.05-.14,2.62-1.48,1.64-3.85,3.41-7.66,5.29-11.4.67-1.33.51-2.1-.5-3.1-3.98-3.94-7.86-7.98-11.82-11.94-1.18-1.18-1.44-2.31-.36-3.68,1.42-1.8,2.64-3.78,4.24-5.39,2.46-2.48,4.65-4.97,4.34-8.77-.01-.18.08-.37.15-.55,1.1-3.11,2.3-6.18,3.28-9.33.59-1.88.83-3.86,1.28-6.03-1.46.23-2.48.2-3.33.56-1.72.73-3.97,1.24-4.91,2.6-5.87,8.49-10.84,17.51-14.43,27.22-1.15,3.1-.54,6.05,1.96,8.19,3.56,3.05,7.21,6.06,11.1,8.66,4.04,2.7,4.74,1.95,2.19,7.33-.65,1.38-1.47,2.04-3.06,1.97-2.44-.1-3.6,1.33-3.39,4.02Zm53.32-49.92c7.02-4.5,13.97-8.83,20.78-13.39,2.52-1.69,3.33-4.45,2.88-7.44-1.39-9.17-2.88-18.33-4.21-27.51-.16-1.07.33-2.26.64-3.36.49-1.74,1.19-3.43,1.58-5.2.11-.5-.41-1.46-.89-1.67-.44-.19-1.32.19-1.79.58-1.26,1.07-2.36,2.31-3.58,3.43-1.73,1.58-2.33,3.53-2.24,5.83.35,8.58.59,17.17,1,25.74.1,2.14-.65,3.26-2.59,4.03-4.61,1.81-9.17,3.75-13.72,5.71-.5.22-1.18.94-1.14,1.35.45,4.03.82,8.11,3.26,11.89Zm-46.86-13.54c3.53-.41,7.04-.79,10.56-1.23,3.27-.41,6.13-3.06,6.54-6.3.27-2.13.35-4.33.11-6.45-.44-3.92.42-7.26,3.23-10.14,1.41-1.44,2.66-3.1,3.75-4.8,2.09-3.27,3.14-6.88,3.12-10.83-14.09,3.49-29.21,25.79-27.3,39.75Zm9.25-46.99c10.36-6.85,21.61-10.71,33.66-12.45-4.02-8.58-11.47-11.88-19.17-9.8-10.13,2.74-16.21,11.86-14.49,22.25Zm11.97,29.05c0,.92-.05,1.86,0,2.79.23,4,.76,8.08-1.39,11.75-1.72,2.95-1.87,6.03-1.22,9.2.9,4.41,5.6,7.4,9.62,6.23,3.42-.99,6.23-7.15,4.87-10.73-.12-.33-.45-.6-.73-.85-3.31-2.99-4.78-6.8-5.06-11.17-.04-.62-.32-1.36-.74-1.81-1.68-1.8-3.45-3.5-5.38-5.42Zm6.79-9.33c-.57.84-1.12,1.68-1.71,2.49-2.31,3.19-2.32,3.69.27,6.7.78.9,1.69,1.74,2.67,2.42,4.64,3.22,10.98,1.37,13.27-3.81,1.38-3.13,1.03-4.64-1.55-6.84-4.46,3.95-8.38,3.68-12.95-.95Zm-30.12,61.67c4.06,3.86,7.91,7.52,11.74,11.17-.03.05.14-.1.15-.26.1-3.43.21-6.86.24-10.29,0-.34-.37-.76-.68-1.03-2.05-1.83-4.13-3.63-6.41-5.63-1.45,1.73-3.18,3.81-5.04,6.04Zm45.27-69.58c0-1.63.16-3.16-.04-4.64-.31-2.38-2.51-4.15-4.89-3.79-2.35.35-4.64,1.11-7.05,1.71v6.72h11.98Zm-11.94,4.2c.66,2.38,1.73,3.32,3.54,3.33,2.02,0,3.42-1.16,3.96-3.33h-7.5Zm12.73,0c.08,1.99.94,3.28,2.17,3.33,1.39.06,2.49-1.36,2.56-3.33h-4.73Z"/>
</svg>