<?xml version="1.0" encoding="UTF-8"?>
<svg id="Layer_2" data-name="Layer 2" xmlns="http://www.w3.org/2000/svg" viewBox="0 0 260.41 252.23">
  <defs>
    <style>
      .cls-1 {
        fill: #637481;
      }
    </style>
  </defs>
  <path class="cls-1" d="m41.86,129.23c1.08-2.18,1.99-4.48,3.31-6.5.74-1.14,2.06-2.02,3.3-2.7,29.29-16.1,58.61-32.15,87.92-48.22.15-.08.31-.13.59-.24.26.42.55.83.79,1.27,8.79,16.01,17.57,32.02,26.4,48.01.58,1.04.59,1.68-.35,2.47-4.08,3.43-8.11,6.92-12.04,10.29-15.86-12.23-32.42-14.68-49.4-4.35-15.31,9.32-21.01,23.8-19.09,41.71-.97.42-2.09,1-3.27,1.38-4.53,1.44-9.1,2.8-13.63,4.23-.89.28-1.32.07-1.76-.74-7.07-12.96-14.18-25.89-21.24-38.85-.67-1.24-1.04-2.64-1.55-3.96,0-1.26,0-2.53,0-3.79Zm7.5,3.07c-.02,5.25,4.08,9.42,9.32,9.48,5.29.06,9.53-4.17,9.52-9.47-.01-5.23-4.17-9.38-9.42-9.38-5.24,0-9.4,4.13-9.42,9.37Z"/>
  <path class="cls-1" d="m41.86,207.2c.93-1.69,2.35-2.21,4.27-2.21,56.05.04,112.1.03,168.15.03,3.3,0,4.16.98,4.26,4.37.06,2.05-.16,3.88-2.08,5.06H41.86v-7.24Z"/>
  <path class="cls-1" d="m146.14,198.64c-7.36,0-14.72.05-22.07,0-19.41-.14-35.53-16.77-34.88-35.93.5-14.76,10.61-27.78,24.85-32.01,14.18-4.21,29.7,1.07,38.11,13.24,6.35,9.19,14.5,16.05,24.8,20.39,1.74.73,3.44,1.6,5.07,2.56,9.19,5.42,10.96,16.94,3.81,24.94-4.22,4.72-9.78,6.42-15.88,6.78-.52.03-1.03.04-1.55.04-7.42,0-14.83,0-22.25,0Zm.21-6.27s0-.02,0-.03c7.7,0,15.4.05,23.11-.02,3.36-.03,6.64-.64,9.57-2.42,5.87-3.56,6.6-12,1.25-16.28-1.99-1.59-4.33-2.84-6.67-3.87-10.69-4.7-19.34-11.81-26.03-21.37-6.47-9.26-15.38-13.45-26.66-12.6-14.14,1.06-26.03,14.45-25.43,28.62.67,15.65,13.46,27.94,29.13,27.98,7.24.01,14.48,0,21.73,0Z"/>
  <path class="cls-1" d="m163.95,74.62c-2.52-4.58-5-9.08-7.51-13.66.22-.18.37-.34.56-.45,12.68-6.96,25.33-13.98,38.06-20.84,6.5-3.5,14.52-1.99,19.41,3.35,5.55,6.07,5.34,15.4-.47,21.39-5.75,5.93-15.26,6.34-21.57.92-3.62-3.11-5.46-3.3-9.61-1.02-5.73,3.15-11.47,6.3-17.21,9.44-.49.27-1,.52-1.66.85Zm38.83-11.57c5.17,0,9.42-4.25,9.41-9.44,0-5.16-4.26-9.43-9.44-9.45-5.18-.03-9.42,4.19-9.45,9.4-.03,5.33,4.12,9.49,9.48,9.5Z"/>
  <path class="cls-1" d="m142.54,68.45c2.79-1.54,5.44-3,8.16-4.5.23.3.46.54.62.82,5.11,8.91,10.05,17.9,13.14,27.76.27.87.66,1.71.96,2.58.75,2.15.11,3.96-1.69,4.82-1.83.88-3.74.17-4.9-1.87-1.02-1.79-2-3.61-3-5.42-4.39-7.99-8.78-15.98-13.29-24.19Z"/>
  <path class="cls-1" d="m68.56,182.89c5.57-1.88,10.99-3.7,16.48-5.55,1.27,2.58,2.61,5.29,4.11,8.35-4.75,1.44-9.5,2.93-14.28,4.29-1.42.41-2.58-.33-3.31-1.61-1.01-1.8-1.99-3.62-3.01-5.48Z"/>
  <path class="cls-1" d="m161.28,145.71c-1.96-2.66-3.69-5.01-5.45-7.4,4.08-3.33,8.15-6.65,12.35-10.08,1.07,2,2.38,3.98,3.18,6.15.32.88-.12,2.54-.81,3.21-2.89,2.78-6.01,5.31-9.26,8.13Z"/>
  <path class="cls-1" d="m146.45,186.09c-7.3,0-14.61.05-21.91-.01-11.93-.11-22.11-9.58-22.66-21.01-.48-9.86,5.52-18.76,14.81-21.98,9.23-3.19,19.58.12,25.22,8.17,3.25,4.64,6.83,8.95,11.07,12.71,5.19,4.62,10.96,8.33,17.3,11.17,1.78.8,3.51,1.7,5.2,2.66,1.46.83,2.2,2.13,1.99,3.89-.2,1.69-1.21,2.87-2.71,3.24-2.32.58-4.72,1.06-7.1,1.1-7.07.14-14.14.05-21.22.05Zm-14.69-6.36c6.14,0,11.11-4.99,11.05-11.09-.06-6.07-4.97-10.95-11.02-10.96-6.13,0-11.05,4.95-11.02,11.1.04,6.08,4.92,10.94,10.99,10.94Z"/>
  <path class="cls-1" d="m202.69,56.75c-1.67-.01-3.08-1.4-3.11-3.06-.03-1.74,1.4-3.18,3.16-3.17,1.79,0,3.13,1.4,3.07,3.21-.05,1.7-1.43,3.03-3.12,3.02Z"/>
  <path class="cls-1" d="m131.76,173.41c-2.62,0-4.69-2.09-4.69-4.7,0-2.62,2.08-4.68,4.71-4.68,2.64,0,4.68,2.05,4.68,4.69,0,2.63-2.07,4.69-4.69,4.68Z"/>
</svg>