<?xml version="1.0" encoding="UTF-8"?>
<svg id="Layer_1" data-name="Layer 1" xmlns="http://www.w3.org/2000/svg" viewBox="0 0 126.83 126.83">
  <defs>
    <style>
      .cls-1 {
        fill: #637481;
      }
    </style>
  </defs>
  <path class="cls-1" d="m31.85,35.02c0-4.98,0-9.68,0-14.38,0-3.68.95-4.61,4.66-4.61,17.97,0,35.94,0,53.91,0,3.55,0,4.55.99,4.56,4.5,0,4.71,0,9.42,0,14.5,1.97,0,3.8-.02,5.63,0,6.28.07,10.18,4,10.19,10.31.02,12.05.02,24.11,0,36.16,0,6.31-3.91,10.25-10.18,10.32-1.78.02-3.56,0-5.64,0,0,4.36,0,8.52,0,12.69,0,.82.02,1.65,0,2.47-.07,2.65-1.21,3.82-3.88,3.83-7.86.03-15.72,0-23.58,0-10.41,0-20.81,0-31.22,0-3.41,0-4.43-1.02-4.45-4.39-.02-4.64-.03-9.28-.06-13.92,0-.13-.1-.27-.27-.68-1.73,0-3.57.02-5.42,0-6.14-.09-10.06-4.03-10.07-10.2-.02-12.13-.02-24.26,0-36.39.01-6.17,3.93-10.11,10.07-10.2,1.79-.03,3.58,0,5.75,0Zm63.13,50.59c1.96,0,3.66.01,5.36,0,3.07-.03,4.17-1.13,4.17-4.23,0-11.98,0-23.96,0-35.94,0-3.1-1.1-4.21-4.17-4.22-6.59-.02-13.18,0-19.76,0-17.89,0-35.79,0-53.68,0-3.58,0-4.58.99-4.59,4.48,0,2.47,0,4.94,0,7.41,0,9.51.02,19.02-.01,28.52,0,2.08.76,3.64,2.88,3.88,2.12.24,4.29.05,6.67.05,0-2.96-.01-5.71,0-8.46.02-3.19.95-4.11,4.18-4.11,18.27,0,36.53,0,54.8,0,3.2,0,4.13.93,4.15,4.14.02,2.75,0,5.49,0,8.47Zm-6.28-6.29h-50.5v25.03h50.5v-25.03Zm-50.52-44.47h50.44v-12.35h-50.44v12.35Z"/>
  <path class="cls-1" d="m70.02,47.82h12.13v5.92h-12.13v-5.92Z"/>
  <path class="cls-1" d="m88.88,47.82h5.96v5.82h-5.96v-5.82Z"/>
</svg>