<?xml version="1.0" encoding="UTF-8"?>
<svg id="Layer_1" data-name="Layer 1" xmlns="http://www.w3.org/2000/svg" viewBox="0 0 127 127">
  <defs>
    <style>
      .cls-1 {
        fill: #707070;
      }
    </style>
  </defs>
  <path class="cls-1" d="m15.17,77.11c.7-.45,1.47-.82,2.08-1.37.53-.47,1.2-1.1,1.25-1.72.16-1.78.07-3.58.01-5.37-.07-2.14.92-3.49,3-3.76,1.26-.16,1.64-.74,1.9-1.85.59-2.51,1.46-4.95,1.95-7.47.35-1.79,2.03-3.13,1.57-5.23-.09-.41,1.05-1.25,1.76-1.62,3.22-1.67,6.48-3.28,9.76-4.84.81-.39,1.75-.71,2.63-.72,3.79-.06,7.59.08,11.38,0,2.04-.05,3.62.78,4.45,2.44,1.23,2.46,2.33,5.05,3.02,7.7.83,3.18.62,3.26,3.91,3.55,1.44.13,2.46.66,2.77,2.18.31,1.56-.64,2.86-2.25,2.95-.64.03-1.31.05-1.93-.09-1.8-.38-4.13-.32-5.22-1.44-.95-.98-.47-3.32-.65-5.06-.03-.34-.17-.66-.61-1.04-.09.39-.27.78-.27,1.18-.05,10.22-.1,20.44-.11,30.66,0,4.14.08,8.29.15,12.43.05,2.96-1.01,4.56-3.31,4.97-2.6.45-4.48-1.15-4.49-3.8-.04-9.23-.08-18.47-.19-27.7,0-.61-.53-1.22-.82-1.83-.27.63-.78,1.27-.78,1.9-.03,9.02.02,18.03.02,27.05,0,2.75-1.66,4.52-4.11,4.53-2.2.01-3.7-1.61-3.71-4.36-.04-7.51.03-15.01.04-22.52.01-8.94,0-17.88,0-27.67-2.73,1.76-5.38,2.85-7.08,4.78-1.28,1.46-1.39,3.98-1.95,6.05-.41,1.5-.71,3.03-1.05,4.54,4.41,1.35,3.2,1.71,3.83,5.61.16.98.02,2,.02,3.01,0,1.35-.22,2.68,1.86,2.89.56.06,1.37,1.49,1.4,2.31.14,4.4.07,8.82.07,13.22,0,2.35.17,4.72-.08,7.04-.11,1.01-1.08,1.94-1.69,2.89-.24.36-.58.65-.85,1-.34.44-.65.89-.97,1.34-.29-.49-.6-.97-.88-1.46-.1-.18-.15-.38-.26-.68h-10.82c-.12.56-.1,1.21-.41,1.59-.24.29-.9.24-1.37.34.03-2.06-2.23-2.31-2.97-3.76v-22.8Zm10.02-1.31c1.43,0,2.88.14,4.27-.07.57-.09,1.39-.9,1.46-1.46.2-1.76-.13-3.6.19-5.33.24-1.29.03-2.29-1.06-2.55-.81-.19-1.98.24-2.69.79-1.36,1.06-2.45,1.14-3.81.04-.66-.53-1.86-1.14-2.42-.88-.68.32-1.04,1.49-1.37,2.35-.19.5-.08,1.13-.08,1.7q-.08,5.5,5.52,5.42Zm7.51,6.25c0-.22,0-.44,0-.66h-14.76c0,.22,0,.44,0,.66h14.76Z"/>
  <path class="cls-1" d="m104.72,63.62h-27.65c.13-6.01.12-12.15,2.9-17.83,1.8-3.68,6.03-4.97,9.86-3.2.23.11.49.3.7.26,1.27-.22,2.54-.68,3.81-.71,4.42-.1,6.65,1.38,8.2,5.5,1.95,5.17,1.85,10.62,2.17,15.99Zm-9.36-12.03c.96-.43,1.8-.81,2.64-1.19-.94-.32-1.91-.93-2.82-.87-.83.06-2.41-1.05-2.46.81-.01.37,1.61.78,2.64,1.25Z"/>
  <path class="cls-1" d="m58.47,69.5c-.27-1.51-.49-2.68-.73-4h54.09v4c-4.52,0-9.02.09-13.51-.03-4.29-.12-8.57-.65-12.86-.65-4.51,0-9.01.53-13.52.65-4.5.12-9,.03-13.47.03Z"/>
  <path class="cls-1" d="m49.41,42.3c-2.01,0-4.08.29-6-.12-.92-.19-2.07-1.62-2.23-2.63-.41-2.54-.37-5.24,1.87-7.09,2.1-1.75,4.54-2.68,7.33-1.78,3.6,1.16,5.86,5.35,4.72,8.94-.52,1.64-1.45,2.96-3.55,2.69-.7-.09-1.43-.01-2.15-.01Z"/>
  <path class="cls-1" d="m68.62,45.31c.21-1.01.41-2.02.64-3.14-.61-.22-1.2-.41-1.79-.63-2.33-.87-3.75-2.73-3.79-5.18-.02-1.42.19-2.84.23-4.26.07-3.03,1.55-4.73,4.58-5.17,2.83-.41,5.63-.89,8.19.99,3.62,2.65,3.05,11.31-.92,13.28-.38.19-.83.52-1.18.45-3.14-.63-4.67,1.21-5.96,3.66Zm7.61-11.08c-.04-2.95-2.42-5.13-5.49-5.02-2.26.08-4.73,2.91-4.66,5.34.07,2.38,2.6,4.8,4.94,4.73,3.08-.09,5.25-2.19,5.21-5.05Z"/>
  <path class="cls-1" d="m90.76,29.87c.66.07,1.37.14,2.08.21,1.99.2,4.53.14,5.03,2.38.51,2.28-.46,4.57-2.63,6.11-2.45,1.74-5.45,2.29-7.53.62-1.54-1.23-2.86-2.93-3.79-4.68-.98-1.84-.23-3.04,1.76-3.82.46-.18.95-.34,1.44-.41,1.2-.17,2.4-.27,3.66-.41Zm-4.63,5.36c1.67,1.98,3.31,2.81,5.21,2.56,1.43-.19,3.11-.46,3.72-2.56h-8.93Z"/>
  <path class="cls-1" d="m97.54,30.3c-4.68-1.68-9.18-1.96-13.56.3-.1-.1-.19-.15-.19-.21-.67-6.38.68-7.68,7.46-7.15.57.04,1.13.14,1.7.19,5.14.5,5.75,1.38,4.59,6.87Z"/>
  <path class="cls-1" d="m63.95,49.11c.55-.26,1.1-.73,1.65-.74.76-.02,1.59.17,2.26.52.54.28,1.31.98,1.25,1.4-.28,2.13-.79,4.24-1.7,6.24.26-1.31.36-2.67.81-3.91.59-1.6.14-2.26-1.47-2.43-.82-.09-1.63-.35-2.44-.54-.12-.18-.24-.36-.36-.55Z"/>
</svg>