<?xml version="1.0" encoding="UTF-8"?>
<svg id="Layer_1" data-name="Layer 1" xmlns="http://www.w3.org/2000/svg" viewBox="0 0 127 127">
  <defs>
    <style>
      .cls-1 {
        fill: #637481;
      }
    </style>
  </defs>
  <path class="cls-1" d="m27.13,96.9c.06-1.04.15-1.8.15-2.55,0-10.26.05-20.52-.06-30.78-.01-1.06-.62-2.41-1.41-3.1-3.84-3.34-5.38-10.84-2.95-15.34.46-.86.9-1.75,1.48-2.52,4.43-5.94,6.6-12.48,5.55-19.95-.37-2.63.78-3.61,3.49-3.6,20.23.08,40.46.06,60.68.02,2.09,0,3.65.51,3.26,2.91-1.42,8.65,2.41,15.59,6.66,22.63,2.61,4.33,2.68,9.92-.8,13.42-3.48,3.52-3.21,7.1-3.23,11.06-.03,8.11,0,16.22,0,24.33v3.48c2.3,0,4.32.06,6.34-.02,1.9-.07,2.62.78,2.58,2.63-.18,9.72,1.41,8.36-8.03,8.38-26.09.05-52.18.02-78.27.02-4.32,0-4.44-.11-4.44-4.43,0-7.81-.42-6.48,6.57-6.59.75-.01,1.51,0,2.42,0Zm68.1-.16v-33.46c-3.22-1.62-5.93-2.99-8.76-4.41-4.94,4.84-9.06,4.86-14.63.36-3.18,1.15-5.92,2.94-8.65,2.91-2.75-.03-5.47-1.86-7.63-2.69-2.77,1-5.45,2.75-8.09,2.7-2.75-.05-5.46-1.84-7.98-2.8-2.54,1.19-5.29,2.48-8.31,3.89v33.54h21.1c0-1.17,0-2.22,0-3.26,0-6.26.05-12.52-.03-18.77-.03-2.18.61-3.21,3-3.16,5.57.12,11.15.12,16.72,0,2.38-.05,3.05.96,3,3.15-.1,4.59-.03,9.19-.03,13.79,0,2.71,0,5.41,0,8.21h20.28ZM27.06,45.03h73.33c-1.94-3.27-3.61-6.21-5.45-9.03-.31-.48-1.34-.67-2.05-.67-19.44-.03-38.89-.04-58.33,0-.76,0-1.86.32-2.22.86-1.8,2.76-3.4,5.64-5.28,8.83Zm66.42-21.97h-59.69v8.4h59.69v-8.4Zm-22.28,52.41h-15.26v21.21h15.26v-21.21Zm-49.21,28.45h83.28c-.07-1.26-.13-2.27-.18-3.19H22v3.19Zm47.7-54.6h-11.93c-.4,3.57-.32,6.64,2.94,8.53,2.25,1.3,4.5,1.21,6.58-.31,2.85-2.09,2.82-5.07,2.4-8.22Zm19.8-.17c-.4,3.63-.41,6.82,3.01,8.75,2.26,1.28,4.53,1.16,6.58-.41,2.79-2.13,2.78-5.09,2.3-8.34h-11.89Zm-4.04-.16c-3.76,0-7.15-.06-10.53.06-.53.02-1.43.76-1.48,1.24-.29,2.67-.14,5.3,2.31,7.1,1.95,1.43,4.06,1.84,6.3.76,2.57-1.24,3.59-3.42,3.54-6.18-.01-.86-.08-1.72-.15-2.98Zm-31.77,0c-3.72,0-7.11-.07-10.49.07-.54.02-1.4.93-1.51,1.53-.72,4.25,1.97,7.92,5.84,8.15,3.68.22,6.32-2.72,6.33-7.07,0-.76-.09-1.53-.17-2.68Zm-27.58.16c-.45,3.44-.62,6.62,2.71,8.67,2.22,1.37,4.47,1.25,6.55-.27,2.98-2.17,2.78-5.21,2.27-8.4h-11.53Z"/>
</svg>