<?xml version="1.0" encoding="UTF-8"?>
<svg id="Layer_1" data-name="Layer 1" xmlns="http://www.w3.org/2000/svg" viewBox="0 0 126.83 126.83">
  <defs>
    <style>
      .cls-1 {
        fill: #637481;
      }
    </style>
  </defs>
  <path class="cls-1" d="m102.92,46.08c0,.8,0,1.54,0,2.27,0,4.88.03,9.76,0,14.64-.05,7.76-2.02,14.96-6.27,21.51-2.35,3.63-5.14,6.86-8.52,9.53-8.07,6.38-17.28,9.25-27.54,8.57-7.16-.47-13.71-2.8-19.61-6.9-3.07-2.14-5.83-4.65-8.18-7.55-4.87-6.01-7.8-12.87-8.6-20.59-.19-1.87-.26-3.77-.28-5.65-.04-4.95-.01-9.91-.01-14.87v-.96h79.01Zm-39.53,47.57c10.76-.03,19.37-8.62,19.34-19.3-.03-10.76-8.62-19.28-19.44-19.28-10.61,0-19.22,8.69-19.19,19.38.03,10.63,8.67,19.23,19.28,19.2Z"/>
  <path class="cls-1" d="m15.27,24.14h96.3c0,.31,0,.58,0,.85,0,4.16,0,8.33,0,12.49,0,3.37-2.01,5.38-5.39,5.38-24.44,0-48.89,0-73.33,0-4.11,0-8.22,0-12.33,0-3.16,0-5.23-2.05-5.24-5.22-.01-4.24,0-8.48,0-12.72,0-.23,0-.45,0-.77Z"/>
  <path class="cls-1" d="m63.34,90.88c-9.04.02-16.46-7.45-16.47-16.57,0-8.95,7.43-16.45,16.34-16.46,9.26-.02,16.71,7.31,16.73,16.46.02,9.17-7.38,16.56-16.61,16.58Zm.19-26.27c-5.47-.06-9.85,4.36-9.88,9.74-.03,5.3,4.36,9.72,9.65,9.76,5.45.03,9.91-4.35,9.88-9.76-.03-5.38-4.38-9.69-9.65-9.74Z"/>
  <path class="cls-1" d="m67.56,74.36c0,2.34-1.84,4.18-4.18,4.17-2.3-.01-4.11-1.85-4.11-4.16,0-2.35,1.84-4.18,4.18-4.17,2.3.01,4.11,1.85,4.11,4.16Z"/>
</svg>