<?xml version="1.0" encoding="UTF-8"?>
<svg id="Layer_1" data-name="Layer 1" xmlns="http://www.w3.org/2000/svg" viewBox="0 0 127 127">
  <defs>
    <style>
      .cls-1 {
        fill: #637481;
      }
    </style>
  </defs>
  <path class="cls-1" d="m63.55,60.25c10.17,0,20.35-.01,30.52.02.68,0,1.39.25,2.01.55.26.13.49.69.45,1.02-.44,3.66-.93,7.32-1.41,10.98-.63,4.86-1.23,9.72-1.89,14.57-.55,4.1-1.16,8.18-1.73,12.28-.32,2.27-.58,4.54-.92,6.8-.22,1.49-.62,1.78-2.17,1.78-11.41,0-22.81,0-34.22,0-4.95,0-9.9.01-14.85.02-.47,0-.94.01-1.4-.04-.97-.11-1.34-.48-1.47-1.43-.83-6.07-1.68-12.14-2.48-18.21-.49-3.66-.87-7.33-1.36-10.99-.58-4.32-1.24-8.62-1.84-12.93-.12-.85-.17-1.71-.27-2.57-.11-.93.04-1.27.92-1.59.47-.17,1.01-.25,1.51-.25,10.2-.01,20.4-.01,30.6-.01h0Z"/>
  <path class="cls-1" d="m47.62,57.04c-2.24,0-4.48-.01-6.72.01-.48,0-.63-.2-.74-.62-1.12-4.56-2.25-9.12-3.37-13.68-.57-2.29-1.11-4.59-1.69-6.88-.08-.32-.32-.61-.49-.91-.32.34-.76.63-.93,1.04-.15.34-.05.83.05,1.23,1.2,4.85,2.41,9.69,3.62,14.54.04.17.09.33.12.5.16,1.07-.21,1.76-1,1.93-1.1.23-1.78-.2-2.07-1.33-.43-1.72-.84-3.44-1.27-5.16-.82-3.27-1.65-6.53-2.47-9.8-.33-1.31-.26-2.57.38-3.8.67-1.26,1.73-2.01,3.06-2.36,2.83-.73,5.68-1.4,8.52-2.1,1.12-.28,2.24-.57,3.37-.83,1.53-.36,2.09-.04,2.46,1.47,1.73,6.99,3.43,13.99,5.16,20.99.41,1.65.86,3.28,1.31,4.92.18.63,0,.82-.66.81-2.22-.03-4.43-.01-6.65-.01v.04Z"/>
  <path class="cls-1" d="m71.45,42.73c0,.66,0,1.29,0,1.92,0,3.89,0,7.78.03,11.66,0,.52-.15.7-.66.7-4.31-.02-8.61-.02-12.92-.03-.36,0-.73.05-.73-.54.02-4.5.01-9.01.01-13.51,0-.05.02-.09.05-.2h14.23Z"/>
  <path class="cls-1" d="m64.24,39.4c-2.34,0-4.68,0-7.02,0-.97,0-1.55-.49-1.58-1.46-.06-1.65-.07-3.3-.05-4.95.01-.9.45-1.33,1.35-1.46.51-.07,1.03-.1,1.55-.1,4.11,0,8.22,0,12.34,0,.2,0,.39,0,.59.02,1.14.11,1.69.66,1.7,1.81.02,1.45.01,2.91-.01,4.36-.02,1.21-.58,1.77-1.78,1.78-2.36.02-4.73,0-7.09,0h0Z"/>
  <path class="cls-1" d="m85.9,32.81c-.07.32-.11.56-.17.79-1.71,6.49-3.41,12.97-5.13,19.46-.31,1.19-.65,2.37-1.01,3.54-.05.17-.28.4-.43.4-1.72,0-3.44-.03-5.16-.05-.04,0-.08-.05-.19-.14.21-.83.43-1.7.66-2.57,1.71-6.36,3.43-12.71,5.12-19.08.2-.77.59-1.19,1.35-1.46,1.57-.54,3.13-.99,4.95-.88Z"/>
  <path class="cls-1" d="m64.29,28.24c-2.07,0-4.14-.03-6.21.01-.71.01-.96-.13-.93-.93.08-2.24.02-4.48.05-6.72.02-1.43.47-1.84,1.89-1.85,3.55-.01,7.1-.01,10.64,0,1.03,0,1.54.38,1.62,1.4.11,1.32.09,2.66.1,3.98.01,1.18,0,2.37,0,3.55,0,.43-.13.6-.61.59-2.19-.03-4.38-.01-6.58-.01,0,0,0-.02,0-.02Z"/>
  <path class="cls-1" d="m82.88,56.86c2.08-7.78,4.14-15.48,6.23-23.25,1.94.91,3.44,2.09,4.41,3.86.13.24.12.62.04.9-1.55,5.79-3.11,11.58-4.67,17.37-.34,1.27-.36,1.27-1.72,1.26-1.18,0-2.36,0-3.55-.03-.25,0-.51-.07-.74-.11Z"/>
  <path class="cls-1" d="m81.42,29.79c.73-.91,1.46-1.82,2.19-2.74,1.96-2.47,3.89-4.95,5.88-7.39.32-.39.79-.81,1.26-.91.97-.2,1.7.42,1.85,1.45.47,3.16.91,6.33,1.36,9.49.16,1.09.33,2.19.49,3.28.02.13,0,.27,0,.37-3.74-3.44-8.03-4.64-13-3.36-.01-.07-.02-.13-.03-.2Z"/>
  <path class="cls-1" d="m34.39,22.55c0-1.36.76-2.44,2.33-2.96,1.22-.4,2.51-.72,3.78-.83,1.7-.15,2.82.83,3.24,2.49.31,1.21.62,2.43.95,3.63.18.65.05.99-.67,1.16-2.61.6-5.2,1.27-7.8,1.88-.2.05-.63-.14-.67-.29-.42-1.64-.79-3.29-1.17-4.94-.01-.05,0-.1,0-.15Z"/>
</svg>