<?xml version="1.0" encoding="UTF-8"?>
<svg id="Layer_1" data-name="Layer 1" xmlns="http://www.w3.org/2000/svg" viewBox="0 0 126.83 126.83">
  <defs>
    <style>
      .cls-1 {
        fill: #637481;
      }
    </style>
  </defs>
  <path class="cls-1" d="m120.87,67.44c-.17.41-.31.83-.51,1.22-1.13,2.31-3,3.46-5.56,3.48-3.1.02-6.21,0-9.31,0-.4,0-.81,0-1.36,0-.09,1.96-.24,3.82-.25,5.68-.03,8.15-.11,16.31.03,24.46.08,4.39-3,6.82-6.74,6.72-5.87-.15-11.74-.04-17.61-.04-4.09,0-6.46-2.39-6.47-6.5,0-5.16.03-10.32-.01-15.48-.04-4.84-2.86-8.47-7.46-9.69-5.5-1.46-11.59,2.77-11.81,8.44-.22,5.49-.07,10.99-.14,16.49-.02,1.1-.13,2.28-.55,3.27-.96,2.28-2.85,3.44-5.31,3.46-6.36.04-12.72.05-19.07,0-3.19-.02-5.43-2.17-5.8-5.4-.06-.52-.07-1.04-.07-1.57,0-9.46,0-18.92,0-28.39v-1.44c-1.59,0-3.08,0-4.56,0-2.02,0-4.04,0-6.06,0-2.87-.01-4.99-1.39-5.89-3.8-.91-2.45-.19-4.93,2.06-6.8,6.56-5.44,13.14-10.87,19.71-16.3,10.23-8.46,20.47-16.91,30.69-25.37,3.29-2.72,5.82-2.75,9.1-.04,4.76,3.93,9.51,7.86,14.27,11.79.22.18.46.35.8.6.07-.43.13-.74.17-1.06.35-2.48,2.42-4.66,4.92-4.79,3.47-.17,6.96-.23,10.42-.07,3.6.16,5.68,2.6,5.7,6.32.02,5.35.03,10.7-.02,16.04,0,.88.29,1.43.96,1.97,4.23,3.45,8.39,6.98,12.65,10.4,1.48,1.19,2.59,2.54,3.08,4.38v2.02Z"/>
</svg>