<?xml version="1.0" encoding="UTF-8"?>
<svg id="Layer_1" data-name="Layer 1" xmlns="http://www.w3.org/2000/svg" viewBox="0 0 127 127">
  <defs>
    <style>
      .cls-1 {
        fill: #637481;
      }
    </style>
  </defs>
  <path class="cls-1" d="m52.17,65.81c0-3.05,0-6.1,0-9.16,0-3.13,1.93-5.07,5.03-5.07,3.87,0,7.74,0,11.61,0,2.73,0,4.79,1.94,4.8,4.68.04,6.33.04,12.66,0,18.98-.02,2.89-2.04,4.78-4.94,4.78-3.85,0-7.69,0-11.54,0-2.96,0-4.94-1.94-4.96-4.91-.02-3.1,0-6.2,0-9.31Z"/>
  <path class="cls-1" d="m90.89,45.14c0-2.75-.02-5.51.01-8.26,0-.55-.15-.82-.65-1.07-1.86-.92-2.71-3.03-2.05-4.95.64-1.87,2.63-3.1,4.49-2.77,2.07.36,3.59,2.16,3.48,4.25-.09,1.71-.97,2.95-2.53,3.62-.48.21-.59.44-.59.92.02,5.38.02,10.76,0,16.15,0,.66-.06,1.34-.21,1.99-.54,2.28-2.19,3.57-4.55,3.58-1.71.01-3.42,0-5.13,0-.36,0-.61.06-.85.4-.92,1.29-2.44,1.71-3.88,1.15-1.31-.51-2.12-1.82-1.97-3.17.2-1.71,1.22-2.92,2.66-3.15,1.62-.25,3.03.45,3.62,1.93.21.52.48.62.97.61,1.46-.03,2.93,0,4.39-.01,1.83,0,2.67-.73,2.72-2.58.09-2.75.06-5.5.08-8.26,0-.12,0-.25,0-.37Zm2.97-12.89c.01-1.04-.75-1.85-1.79-1.88-1.08-.03-1.88.75-1.9,1.84-.02.99.82,1.84,1.83,1.85,1.02,0,1.85-.79,1.86-1.81Z"/>
  <path class="cls-1" d="m31.26,86.97c0-2.8-.03-5.52.01-8.25.02-1.55.33-3.04,1.44-4.25.83-.91,1.89-1.39,3.08-1.42,2.23-.06,4.46-.03,6.69,0,.48,0,.74-.13.98-.56.74-1.32,2.27-1.9,3.7-1.48,1.39.41,2.35,1.72,2.34,3.17-.01,1.44-1.04,2.78-2.4,3.14-1.43.38-3.05-.23-3.71-1.5-.24-.45-.48-.57-.96-.57-2.06.02-4.11-.05-6.17,0-1.56.04-2.3.73-2.59,2.24-.11.56-.16,1.13-.17,1.7-.02,2.43,0,4.86-.02,7.29,0,.42.09.65.52.82,1.87.76,2.97,2.79,2.59,4.69-.45,2.21-2.23,3.74-4.35,3.75-2.1,0-3.85-1.44-4.33-3.57-.42-1.87.67-4.01,2.49-4.84.27-.12.55-.23.86-.35Zm3.13,4.44c0-1.26-.97-2.23-2.19-2.21-1.17.02-2.12.97-2.13,2.13,0,1.18.98,2.17,2.17,2.16,1.2,0,2.15-.93,2.15-2.08Z"/>
  <path class="cls-1" d="m94.25,82.47c0,1.29.03,2.58-.01,3.87-.01.5.14.71.62.89,1.77.66,2.86,2.39,2.81,4.31-.04,1.66-1.3,3.36-2.93,3.94-2.24.79-4.66-.31-5.55-2.53-.86-2.15.12-4.67,2.26-5.6.49-.22.65-.46.64-.97-.04-2.73-.02-5.46-.09-8.19-.05-2.05-.95-2.91-3-2.98-1.16-.04-2.33.01-3.5.03-.72,0-1.44.05-2.16.02-.56-.03-.91.11-1.25.64-.74,1.2-1.9,1.71-3.31,1.46-1.34-.24-2.21-1.05-2.59-2.36-.45-1.56.33-3.18,1.85-3.85,1.48-.65,3.2-.16,4.01,1.24.31.55.65.64,1.22.63,2.03-.04,4.07-.08,6.1,0,2.66.1,4.43,1.69,4.69,4.34.16,1.69.03,3.41.03,5.12.05,0,.1,0,.15,0Zm-1,11.02c1.19.02,2.19-.96,2.19-2.14,0-1.16-.92-2.11-2.09-2.16-1.19-.04-2.2.91-2.22,2.1-.03,1.19.93,2.18,2.13,2.19Z"/>
  <path class="cls-1" d="m34.77,37.46c-2.3,1.14-4.53.72-5.88-1.1-1.23-1.66-1.09-3.97.34-5.53,1.48-1.62,3.79-1.89,5.67-.68,1.82,1.17,2.39,3.4,1.44,5.72,1.33.95,2.67,1.91,4.02,2.86,2.67,1.88,5.36,3.73,8.02,5.62.97.69,2.04.98,3.21.98,1.21,0,2.43,0,3.55,0,.37-.58.64-1.15,1.04-1.59,1.28-1.39,3.44-1.34,4.74.06,1.24,1.34,1.14,3.45-.24,4.65-1.43,1.25-3.62,1.07-4.73-.44-.29-.4-.6-.53-1.04-.53-1.02,0-2.04-.1-3.05-.03-1.91.12-3.55-.51-5.07-1.57-3.85-2.7-7.7-5.39-11.55-8.09-.14-.1-.29-.19-.47-.32Zm-.23-3.78c.02-1.14-.94-2.16-2.07-2.19-1.2-.03-2.21.9-2.25,2.08-.04,1.17.92,2.19,2.11,2.23,1.18.04,2.19-.93,2.21-2.12Z"/>
  <path class="cls-1" d="m60.82,36.54c-1.24,0-2.48.01-3.72,0-.44,0-.68.07-.87.55-.81,1.99-3.09,3.08-5.13,2.54-2.09-.56-3.48-2.49-3.31-4.61.16-1.97,1.77-3.63,3.83-3.95,1.9-.3,3.96.86,4.65,2.7.2.54.47.63.96.63,2.73,0,5.46,0,8.18.09,1.6.05,2.7,1.21,2.76,2.84.06,1.61.03,3.22,0,4.83,0,.45.11.69.54.91,1.38.69,2.05,2.2,1.69,3.68-.3,1.28-1.63,2.4-2.93,2.48-1.52.09-2.9-.84-3.37-2.26-.46-1.38.03-2.91,1.3-3.69.53-.33.68-.69.67-1.25-.01-1.29.03-2.58.01-3.87-.02-1.22-.39-1.57-1.63-1.58-1.22-.01-2.43,0-3.65,0Zm-8.64-3.42c-1.16,0-2.18,1.03-2.16,2.2.02,1.14,1.02,2.12,2.17,2.11,1.16,0,2.13-.97,2.15-2.13.02-1.19-.96-2.19-2.16-2.19Z"/>
  <path class="cls-1" d="m42.36,90.27c.07-.98.07-1.93.22-2.85.29-1.73,1.58-2.87,3.34-2.92,2.95-.08,5.9-.07,8.86-.08.48,0,.78-.11,1.07-.56.78-1.21,2.38-1.67,3.74-1.18,1.36.49,2.23,1.82,2.11,3.23-.12,1.47-1.21,2.78-2.52,3.05-1.55.32-3-.36-3.66-1.74-.15-.32-.25-.59-.71-.59-2.89.05-5.79.05-8.68.1-1.02.02-1.41.45-1.49,1.46-.02.22-.03.45-.03.67-.01.85.09,1.47,1.07,1.95,1.88.93,2.63,3.17,1.97,5.08-.69,2-2.67,3.3-4.66,3.06-2.08-.25-3.65-1.87-3.88-3.98-.19-1.73.84-3.57,2.42-4.33.29-.14.59-.25.84-.36Zm1.1,6.5c1.18,0,2.14-.92,2.16-2.08.01-1.28-.91-2.23-2.17-2.21-1.21.01-2.12.95-2.13,2.19,0,1.15.96,2.1,2.14,2.1Z"/>
  <path class="cls-1" d="m79.66,90.25c1.38.48,2.46,1.27,3,2.68.83,2.16-.21,4.71-2.36,5.65-2.15.95-4.68,0-5.72-2.14-1.02-2.09-.18-4.65,1.86-5.77.35-.19.89-.48.92-.77.11-.92.28-1.91-.34-2.72-.19-.25-.63-.42-.97-.44-1.73-.06-3.47-.08-5.21-.06-.22,0-.51.32-.64.56-.76,1.36-2.24,2.06-3.69,1.71-1.46-.35-2.52-1.76-2.49-3.3.03-1.35,1.01-2.64,2.33-3.03,1.32-.4,2.81.06,3.55,1.19.32.49.67.62,1.21.61,1.61-.01,3.23-.03,4.84.06,2.31.12,3.66,1.58,3.71,3.89.01.62,0,1.24,0,1.88Zm1.1,4.26c-.02-1.17-.98-2.13-2.13-2.13-1.22,0-2.2,1.06-2.16,2.34.03,1.13.99,2.04,2.13,2.04,1.22,0,2.19-1.01,2.16-2.25Z"/>
  <path class="cls-1" d="m94.78,70.2c-1.74,0-3.4-1.09-4.06-2.74-.17-.43-.37-.55-.8-.54-2.28.02-4.56.02-6.84,0-.39,0-.61.09-.81.46-.74,1.35-2.21,1.98-3.65,1.61-1.33-.33-2.38-1.72-2.38-3.14,0-1.47,1.01-2.82,2.41-3.2,1.46-.39,2.91.19,3.67,1.54.21.38.42.52.85.51,2.26-.02,4.51-.02,6.77,0,.45,0,.61-.15.78-.57.8-2.05,3.05-3.12,5.24-2.56,2.01.51,3.44,2.64,3.19,4.76-.25,2.17-2.18,3.87-4.37,3.87Zm.06-2.23c1.2,0,2.17-.97,2.16-2.17,0-1.19-.99-2.16-2.18-2.15-1.19,0-2.13.95-2.11,2.12.02,1.22.97,2.2,2.14,2.2Z"/>
  <path class="cls-1" d="m28.13,57.08c0-2.01,1.43-3.81,3.37-4.27,1.93-.45,4,.45,4.86,2.27.34.73.73.94,1.51.91,1.61-.06,3.22-.03,4.83-.01.42,0,.65-.13.87-.51.74-1.31,2.2-1.93,3.53-1.56,1.57.44,2.55,1.66,2.56,3.23,0,1.46-1.04,2.75-2.56,3.15-1.36.36-2.8-.31-3.59-1.61-.13-.22-.45-.44-.69-.44-1.8-.04-3.61-.02-5.41-.03-.42,0-.63.12-.8.55-.78,2.04-2.77,3.08-4.97,2.66-1.96-.38-3.5-2.28-3.5-4.33Zm6.55.05c0-1.19-.96-2.18-2.15-2.18-1.19,0-2.17.96-2.17,2.16,0,1.18.95,2.14,2.1,2.14,1.24,0,2.21-.93,2.22-2.11Z"/>
  <path class="cls-1" d="m33.34,65.53c0-1.98,1.48-3.81,3.4-4.24,2.03-.45,4.05.53,4.95,2.5.25.55.56.81,1.11.65.28-.08.6-.29.76-.53.82-1.29,2.21-1.88,3.64-1.48,1.48.42,2.43,1.64,2.45,3.15.02,1.47-.98,2.74-2.45,3.15-1.42.4-2.86-.16-3.59-1.52-.32-.59-.76-.58-1.22-.49-.25.05-.51.37-.62.63-.8,1.85-2.91,2.94-4.96,2.52-1.99-.4-3.47-2.26-3.46-4.36Zm4.35-2.18c-1.16.02-2.13,1-2.12,2.14.01,1.22,1.03,2.21,2.24,2.18,1.16-.03,2.11-1.06,2.08-2.26-.03-1.12-1.05-2.08-2.2-2.06Z"/>
</svg>