<?xml version="1.0" encoding="UTF-8"?>
<svg id="Layer_1" data-name="Layer 1" xmlns="http://www.w3.org/2000/svg" viewBox="0 0 127 127">
  <defs>
    <style>
      .cls-1 {
        fill: #637481;
      }
    </style>
  </defs>
  <path class="cls-1" d="m60,17.46c2.32,0,4.64,0,6.96,0,1,.15,2,.31,3,.45,25.2,3.6,42.85,27.18,39.13,52.29-3.61,24.4-25.73,41.63-50.19,39.1-18.89-1.96-34.07-14.49-39.53-32.76-.89-2.97-1.32-6.07-1.97-9.11,0-2.46,0-4.91,0-7.37.12-.52.28-1.04.36-1.57,2.57-18.46,12.51-31.25,29.82-38.07,3.92-1.54,8.27-2,12.42-2.95Zm43.72,46.05c.12-21.89-17.93-39.96-40.1-40.13-21.91-.17-40.09,17.84-40.3,39.92-.2,21.96,17.84,40.3,39.78,40.45,22.34.16,40.49-17.83,40.62-40.24Z"/>
  <path class="cls-1" d="m65.2,52.55c-.02-3.27.62-6.37,2.43-9.14,2.51-3.85,7.04-4.31,10.29-1.06,4.2,4.19,4.86,14.23,1.21,18.85-.46.58-.97,1.32-1.61,1.53-2.07.68-1.95,2.2-1.88,3.88.25,5.51.43,11.03.61,16.55.08,2.42-.85,3.8-2.59,3.98-2.06.22-3.33-1.19-3.35-3.88-.04-5.66-.07-11.32,0-16.97.02-1.58-.25-2.75-1.58-3.86-2.45-2.06-3.5-5.49-3.52-9.88Z"/>
  <path class="cls-1" d="m54.99,61.91c.22,7.19.44,14.27.65,21.35.07,2.39-.81,3.66-2.67,3.9-2.3.29-3.52-1.02-3.42-3.61.26-6.88.49-13.77.73-20.65,0-.27,0-.54,0-.96-3.84-.93-4.81-3.84-4.78-7.29.03-3.95.18-7.91.29-11.86,0-.27-.05-.64.1-.8.57-.62,1.2-1.17,1.81-1.75.44.64,1.22,1.27,1.25,1.94.13,2.72-.05,5.46.06,8.18.03.71.67,1.4,1.03,2.11.43-.72,1.18-1.41,1.23-2.15.17-2.72.02-5.46.18-8.18.04-.65.75-1.69,1.29-1.79,1.24-.23,1.52.82,1.5,1.88-.05,2.66-.11,5.32-.15,7.98-.02,1.04-.02,2.32,1.39,2.18.48-.05,1.15-1.34,1.2-2.11.18-2.51.13-5.04.16-7.57.01-1.13.23-2.11,1.65-2.05,1.31.05,1.44.99,1.44,2.03,0,3.96.06,7.91,0,11.87-.05,3.43-1.08,6.32-4.93,7.35Z"/>
</svg>