<?xml version="1.0" encoding="UTF-8"?>
<svg id="Layer_1" data-name="Layer 1" xmlns="http://www.w3.org/2000/svg" viewBox="0 0 127 127">
  <defs>
    <style>
      .cls-1 {
        fill: #707070;
      }
    </style>
  </defs>
  <path class="cls-1" d="m12.03,58.33c.74-.42,1.53-.78,2.21-1.28,15.65-11.48,31.31-22.93,46.87-34.51,1.92-1.43,3.05-1.3,4.89.07,15.44,11.47,30.96,22.81,46.46,34.2.77.57,1.53,1.16,2.52,1.91-1.57,2.14-3.09,4.23-4.81,6.57-2.66-1.92-5.24-3.8-8.23-5.96v46.13h-8.26c0-1,0-2,0-3-.03-15.56-.08-31.13-.04-46.69,0-1.85-.53-3.04-2.05-4.13-9.34-6.76-18.62-13.62-28.06-20.55-2.2,1.6-4.39,3.18-6.56,4.78-7.11,5.23-14.19,10.5-21.36,15.65-1.5,1.08-2.11,2.2-2.1,4.08.07,15.65.03,31.3.02,46.96,0,.94,0,1.88,0,2.93h-8.22v-46.23c-2.99,2.15-5.58,4-8.35,5.99-1.66-2.15-3.29-4.26-4.92-6.38,0-.17,0-.35,0-.52Z"/>
  <path class="cls-1" d="m53.06,89.73c1.11-3.13,2.07-5.88,3.07-8.61.21-.56.54-1.09.88-1.59,3.07-4.57,6.12-9.14,9.23-13.68,2.47-3.59,6.01-3.27,7.86.68.37.79.8,1.57,1.05,2.4,1.39,4.72,4.16,8.07,8.96,9.64,1.48.49,2.81,1.46,1.9,3.33-.9,1.86-2.39,1.29-3.8.58-1.94-.99-3.97-1.86-5.78-3.05-1.23-.8-2.16-2.06-3.34-3.23-.43,3.64-1.48,7.13.66,10.89,2.28,3.99,3.79,8.42,5.64,12.66.24.56.55,1.1.73,1.68.46,1.49.31,2.87-1.29,3.52-1.59.64-2.65-.14-3.33-1.62-1.93-4.2-3.87-8.4-5.82-12.59-.36-.77-.78-1.51-1.43-2.31.07,6.03-3.93,10.13-6.59,14.85-.82,1.45-1.92,2.43-3.6,1.49-1.74-.98-1.79-2.58-.71-4.04,4.45-6,5.74-12.95,6.23-20.16.06-.86.25-1.71-.02-2.81-.71,1-1.32,2.09-2.15,2.97-1.02,1.08-2.27,1.93-3.34,2.96-.54.52-1.02,1.16-1.37,1.83-2.5,4.79-4.96,9.61-7.45,14.42-1.52,2.94-2.23,3.2-5.34,1.83-1.02-.45-1.99-1.03-3.52-1.84,1.7-3.87,3.2-7.72,5.07-11.38,1.38-2.7,4.27-2.34,7.62,1.21Z"/>
  <path class="cls-1" d="m76.31,57.67c.02,2.78-2.18,4.97-4.99,4.98-2.82,0-5.03-2.16-5.04-4.93,0-2.71,2.29-5.04,4.99-5.06,2.7-.02,5.02,2.29,5.03,5.01Z"/>
</svg>