<?xml version="1.0" encoding="UTF-8"?>
<svg id="Layer_1" data-name="Layer 1" xmlns="http://www.w3.org/2000/svg" viewBox="0 0 127 127">
  <defs>
    <style>
      .cls-1 {
        fill: #707070;
      }
    </style>
  </defs>
  <path class="cls-1" d="m75.82,110.51H20.26c-2.57-.98-3.76-2.79-3.76-5.59.03-25.61,0-51.23.03-76.84,0-6.88,4.68-11.56,11.53-11.57,19.49-.02,38.98-.02,58.46,0,6.75,0,11.43,4.72,11.45,11.43.02,5.08-.16,10.17.04,15.24.27,6.64-1.75,8.03-7.69,7.75-3.66-.17-7.33-.03-10.96-.03v20.19c.8-.87,1.36-1.48,1.92-2.09,5.11-5.7,10.2-11.41,15.33-17.09,3.61-3.99,9.45-3.76,12.43.51.62.89.98,1.96,1.45,2.94v2.92c-.9,1.53-1.59,3.26-2.74,4.56-8.89,10.02-17.85,19.99-26.87,29.91-1.26,1.39-1.86,2.75-1.74,4.63.15,2.28-.09,4.59.07,6.87.2,2.88-.85,4.94-3.4,6.26Zm.3-13.54c-4.51,2.28-8.63,4.39-12.78,6.45-.77.38-1.63.78-2.45.79-8.14.06-16.29.03-24.43.04-1.22,0-2.59.07-2.56-1.63.03-1.62,1.41-1.43,2.51-1.43,6.13,0,12.25.01,18.38-.02,1.93,0,4.3.51,5.67-.4,1.28-.85,1.51-3.29,2.17-5.04.86-2.3,1.68-4.62,2.62-7.21h-2.69c-11.63,0-23.25,0-34.88,0-.63,0-1.3.11-1.86-.09-.52-.18-1.11-.64-1.29-1.12-.14-.37.18-1.06.5-1.44.97-1.15,1.27-4.46.68-5.75-.58-1.26-.87-2.65-1.29-3.98-.22-.7-.35-1.45-.72-2.07-1.49-2.48-1.03-4.77,1.23-6.63.54-.44.99-1.3,1.02-1.98.12-2.71,0-5.43.07-8.14.09-3.73,2.45-6.13,6.14-6.24,2.64-.08,5.29-.08,7.93,0,3.69.11,6.05,2.53,6.12,6.25.06,2.71-.05,5.43.07,8.14.03.68.64,1.34,1,2,.7,1.29,2.07,2.63,1.97,3.86-.2,2.6-.67,5.42-1.95,7.62-1.27,2.19-.94,4.15-.98,6.35h4.77c-.23-3.74-.1-7.22,4.51-7.72v-23.46c-1.45,0-2.76.03-4.07,0-2.85-.08-4.18-1.91-3.28-4.6,1.13-3.36,2.34-6.68,3.51-10.03.63-1.82,1.87-2.6,3.81-2.56,3.2.07,6.41.09,9.61,0,2.16-.07,3.35.91,4,2.88,1.07,3.23,2.26,6.42,3.36,9.64.95,2.79-.37,4.6-3.37,4.67-1.3.03-2.61,0-4.01,0v23.49c2.47.21,3.99,1.61,4.68,4.15,1.76-1.95,3.21-3.74,4.84-5.33,1.15-1.12,1.5-2.33,1.49-3.89-.05-13.64-.01-27.29-.04-40.93,0-4.17-.33-8.39,3.32-11.96-1.01-.05-1.47-.08-1.93-.08-16.36,0-32.72-.02-49.08,0-5.66,0-8.81,3.26-8.82,9.05-.02,25.27,0,50.54,0,75.81,0,2.62.41,3.03,3.02,3.04,6.47.01,12.95,0,19.42,0,10.37,0,20.75,0,31.12,0,2.51,0,2.94-.44,2.96-2.88.01-2.36,0-4.73,0-7.61Zm3.09-49.12c4.56,0,8.87-.06,13.17.03,1.93.04,2.59-.81,2.57-2.63-.04-5.77,0-11.54-.03-17.31,0-.83-.13-1.67-.33-2.47-.86-3.5-4.4-6.11-7.9-5.86-3.86.27-7.33,3.24-7.43,6.92-.18,7.01-.05,14.02-.05,21.33Zm-9.38,38.54c2.43,2.17,4.69,4.19,7.04,6.29,7.4-8.24,14.67-16.34,22-24.51-2.42-2.16-4.68-4.18-7.04-6.28-7.36,8.19-14.59,16.25-22,24.5Zm-26.64-24.76c0-1.32.03-2.64,0-3.96-.05-2.31-1.19-3.5-3.44-3.54-2.43-.04-4.87-.04-7.3,0-2.18.04-3.35,1.18-3.39,3.35-.05,2.78-.02,5.56,0,8.35,0,.39.02.95.26,1.14,1.8,1.41,3.15,3.7,6.08,2.94,1.11-.28,2.35-.02,3.53-.06.46-.01,1.12-.01,1.34-.29,1.41-1.79,3.82-3.11,2.94-6.05-.17-.57-.02-1.24-.03-1.87Zm26.51-10.69c-1.22-3.52-2.29-6.74-3.49-9.91-.18-.47-.94-1.01-1.45-1.03-2.92-.11-5.84-.08-8.76-.05-.41,0-1.08.23-1.19.53-1.3,3.4-2.52,6.83-3.83,10.45h18.72Zm31.24,14.94c1.94-2.19,3.77-4.1,5.43-6.15,1.55-1.91,1.39-4.35-.2-6.09-1.61-1.75-4.23-2.24-6.01-.68-2.25,1.98-4.18,4.33-6.29,6.57,2.5,2.24,4.72,4.22,7.08,6.34Zm-39.1,11.64v-23.25h-2.92v23.25h2.92Zm-34.96.09c6.12,0,11.53.01,16.93-.03.32,0,.63-.5.95-.76-.3-.31-.55-.69-.9-.91-.81-.5-2.07-.71-2.43-1.41-.92-1.76-2.35-1.64-3.87-1.59-.83.02-1.67.03-2.5,0-1.73-.05-3.4-.24-4.44,1.75-.34.64-1.55.78-2.28,1.27-.43.28-.7.8-1.45,1.69Zm39.74,7.74c0-1-.03-1.77,0-2.53.07-1.39-.53-2.08-1.94-2.07-2.91.01-5.83-.1-8.74.09-.65.04-1.51.99-1.78,1.71-.31.82-.07,1.85-.07,2.8h12.53Zm7.61,9.14c-2.02-1.81-3.89-3.47-5.94-5.3-1.22,3.37-2.33,6.43-3.65,10.04,3.5-1.73,6.44-3.19,9.58-4.74Zm-40.15-9.18h4.01c-.31-1.56-.6-2.96-.9-4.45h-2.17c-.31,1.49-.61,2.9-.94,4.45Zm9,.19v-4.6h-3.08c1.36,1.51-.13,4.32,3.08,4.6Zm-13.94-4.67v4.44c2.12.15,2.28-.15,2.43-4.44h-2.43Zm.67-9.51c-1.18-.76-1.86-1.54-2.38-1.44-.58.11-1.28.97-1.39,1.6-.07.38.89,1.3,1.4,1.32.59.02,1.21-.7,2.37-1.47Zm17.23.19c-1.13-.86-1.69-1.62-2.29-1.65-.5-.02-1.5.85-1.47,1.25.05.62.72,1.52,1.29,1.66.51.13,1.24-.59,2.47-1.26Z"/>
  <path class="cls-1" d="m44.63,25.83c-5.43,0-10.86,0-16.28,0-1.04,0-2.28.12-2.29-1.41-.01-1.56,1.16-1.64,2.35-1.64,10.86,0,21.71,0,32.57,0,1.17,0,2.39.01,2.39,1.59,0,1.69-1.37,1.46-2.45,1.47-5.43.02-10.86,0-16.28,0Z"/>
  <path class="cls-1" d="m28.39,101.2c.7,0,1.47-.19,2.07.05.63.27,1.09.95,1.63,1.46-.55.51-1.05,1.36-1.66,1.45-1.43.22-2.94.22-4.36,0-.61-.1-1.09-.97-1.63-1.49.55-.49,1.04-1.18,1.68-1.41.68-.25,1.51-.05,2.28-.05Z"/>
  <path class="cls-1" d="m69.76,25.83c-.21,0-.42,0-.62,0-1.16.02-2.46-.03-2.42-1.54.04-1.43,1.29-1.58,2.48-1.52.62.03,1.34-.19,1.84.06.7.34,1.24,1.01,1.85,1.54-.63.49-1.22,1.04-1.9,1.43-.31.18-.81.03-1.23.03h0Z"/>
</svg>