<?xml version="1.0" encoding="UTF-8"?>
<svg id="Layer_1" data-name="Layer 1" xmlns="http://www.w3.org/2000/svg" viewBox="0 0 127 127">
  <defs>
    <style>
      .cls-1 {
        fill: #637481;
      }
    </style>
  </defs>
  <path class="cls-1" d="m60.46,18.08c.34.2.59.32.82.47,1.43.95,2.78,2.04,4.3,2.82,1.89.97,2.6,2.44,2.89,4.48.63,4.36,1.51,8.68,2.33,13.01.08.42.47.84.82,1.13.78.64,1.7,1.13,2.44,1.81,4.13,3.76,4.18,9.04.08,12.82-.74.68-.74,1.16-.37,1.99,2.75,6.19,4.89,12.58,5.97,19.29.86,5.34.57,10.66-.6,15.89-1.09,4.88-2.49,9.69-3.88,14.49-.9,3.09-3.74,4.85-6.61,4.36-3.14-.54-5.16-2.95-5.12-6.23.01-.97.21-1.95.45-2.89,1.15-4.58,2.48-9.11,3.47-13.72,1.22-5.62.62-11.24-.61-16.8-.87-3.94-2.17-7.75-3.94-11.39-.15-.31-.58-.57-.94-.69-.53-.19-.77.22-.97.66-3.45,7.42-5.39,15.18-5.12,23.39.16,4.84,1.43,9.52,2.74,14.16.46,1.65.99,3.27,1.48,4.91.45,1.5.46,3.01,0,4.5-.76,2.45-3.02,4.12-5.57,4.17-2.54.05-4.9-1.47-5.71-3.95-1.14-3.49-2.23-7.01-3.14-10.57-1.26-4.9-2.08-9.88-1.97-14.96.14-6.52,1.85-12.71,4.06-18.79.78-2.14,1.69-4.24,2.58-6.34.2-.47.22-.77-.22-1.14-4.87-4.13-4.54-10.46,1.08-14.17,1.43-.95,1.92-1.97,2.06-3.54.26-2.97.7-5.92,1.11-8.87.06-.41.3-.83.56-1.16,1.53-1.95,3.06-3.89,4.64-5.8.62-.74,1.05-1.48.88-2.48-.04-.24,0-.49,0-.86Zm5.54,40.63c.06.19.1.38.18.54,2.22,5.08,3.87,10.31,4.46,15.85.38,3.57.63,7.13.16,10.72-.74,5.65-2.26,11.11-3.94,16.53-.21.68-.31,1.42-.33,2.14-.04,1.63.98,2.9,2.44,3.17,1.5.27,2.9-.59,3.44-2.2,2.31-6.8,4.18-13.7,4.72-20.9.27-3.5-.02-6.95-.78-10.47h-3.69v-3.03h2.92c-.19-.73-.39-1.33-.49-1.94-.14-.78-.5-1.12-1.34-1.04-.87.08-1.74.02-2.59.02v-3.14h2.6c-.34-.94-.6-1.78-.96-2.57-.09-.2-.49-.35-.75-.36-.81-.05-1.62-.02-2.41-.02v-3.08c.6-.04,1.13-.07,1.78-.11-.29-.61-.53-1.11-.75-1.58-1.61.51-3.11.99-4.65,1.48Zm-11.7.21v3.08c-.84,0-1.6-.02-2.36.01-.26.01-.67.08-.74.24-.38.84-.67,1.73-1.05,2.76h2.63v3.08c-1.03,0-1.98-.02-2.93.01-.25,0-.67.1-.73.26-.3.84-.51,1.72-.79,2.73h2.96v3.03h-3.88c-.24,2.36-.6,4.61-.67,6.88-.17,5.08.7,10.05,1.98,14.94.85,3.25,1.86,6.45,2.87,9.65.47,1.49,1.81,2.26,3.25,2.08,1.29-.17,2.47-1.28,2.55-2.58.05-.84,0-1.72-.22-2.53-.71-2.66-1.53-5.29-2.28-7.95-1.93-6.86-2.56-13.83-1.46-20.9.75-4.78,2.12-9.39,4.06-13.83.17-.39.34-.79.51-1.19-1.62-.51-3.13-.97-4.73-1.47-.22.49-.44,1-.7,1.58.66.04,1.18.07,1.76.11Zm16.71-15.67c-.07.05-.16.1-.22.17-1.27,1.58-2.56,3.15-3.8,4.76-.3.39-.53.86-.68,1.32-.57,1.82-2.15,3.12-4.04,3.27-1.81.14-3.76-.86-4.35-2.61-.81-2.38-2.32-4.34-3.5-6.5-.19-.35-.42-.68-.76-1.23-1.01.95-1.99,1.7-2.76,2.64-1.55,1.89-1.66,4.25-.1,6.12.99,1.18,2.28,2.23,3.64,2.95,3.39,1.79,7.07,2.1,10.82,1.42,2.7-.49,5.19-1.46,7.16-3.46,2.8-2.86,2.14-6.92-1.41-8.86Zm-5.5,1.98c.78-.97,1.56-1.89,2.26-2.86.23-.31.39-.81.33-1.17-.92-5.31-1.89-10.61-2.83-15.91-.18-1-1.09-1.05-1.8-1.69,0,6.79,0,13.33.02,19.86,0,.22.18.51.37.66.49.38,1.04.71,1.66,1.12Zm-5.04-19.83l-.21-.06c-.91,1.14-1.83,2.26-2.71,3.42-.2.26-.29.63-.33.96-.32,2.45-.63,4.9-.93,7.35-.13,1.1-.59,2.34-.24,3.26.62,1.65,1.75,3.11,2.68,4.67.29-.21.45-.4.65-.47,1.05-.34,1.12-1.11,1.11-2.06-.04-5.39-.02-10.77-.02-16.16,0-.31,0-.61,0-.92Zm3.04,22.86c0-.87-.7-1.57-1.57-1.56-.83.01-1.5.69-1.51,1.52,0,.83.65,1.52,1.48,1.56.87.04,1.6-.66,1.61-1.52Z"/>
  <path class="cls-1" d="m104.62,54.32c3.01.3,5.09,1.72,5.87,4.59,1.05,3.83-1.82,7.51-5.82,7.59-2,.04-4,0-6.1,0v44.14h-9.12v-44.14c-2.13,0-4.15.03-6.17,0-2.89-.05-5.3-2.03-5.88-4.77-.72-3.39,1.39-6.57,4.8-7.24.34-.07.69-.12,1.14-.2v-1.01c0-8.89.12-17.78-.04-26.66-.12-6.73,5.88-10.93,11.82-10.29,4.07.44,7.22,2.4,8.82,6.29.47,1.14.65,2.46.66,3.71.05,8.92.03,17.84.03,26.76,0,.38,0,.76,0,1.22Zm-3,0c0-.43,0-.74,0-1.06-.02-4.95-.05-9.89-.06-14.84-.01-4.06.05-8.12-.04-12.18-.03-1.13-.25-2.38-.78-3.37-1.56-2.92-5.56-4.31-9.06-3.31-2.93.84-5.43,2.94-5.3,7.04.09,2.75.02,5.52.01,8.27-.02,6.15-.04,12.3-.06,18.46,0,.33,0,.66,0,.95h3.09v-30.35h3.04v30.38h3.08v-2.94h3.03v2.94h3.05Zm-7.64,9.19c3.46,0,6.92,0,10.38,0,1.98,0,3.37-1.29,3.36-3.1-.01-1.76-1.39-3.04-3.31-3.04-6.95,0-13.9,0-20.86,0-1.93,0-3.3,1.27-3.31,3.05-.01,1.8,1.38,3.09,3.36,3.09,3.46,0,6.92,0,10.38,0Zm-1.48,3.03v41.1h2.96v-41.1h-2.96Z"/>
  <path class="cls-1" d="m28.4,29.95h6.12v-13.42c6.26,1.28,11.33,6.78,12,12.97.68,6.3-1.68,11.2-6.85,14.8-.3.21-.58.68-.58,1.03-.03,14.35-.03,28.7,0,43.05,0,.42.34.91.67,1.24,3.4,3.44,4.72,7.51,3.37,12.2-1.35,4.7-4.58,7.62-9.36,8.64-5.27,1.12-10.69-1.61-13.14-6.43-2.47-4.86-1.45-10.63,2.58-14.39.49-.45.67-.89.67-1.55-.02-14.16-.02-28.32-.01-42.48,0-.55-.02-.97-.59-1.35-5.02-3.35-7.49-8.11-6.92-14.1.61-6.48,4.24-10.83,10.34-13.12.53-.2,1.07-.36,1.69-.58v13.49Zm9.42-9.07c-.09.06-.18.13-.27.19,0,.3,0,.61,0,.91,0,2.6.01,5.21,0,7.81-.01,1.9-1.28,3.17-3.17,3.19-1.94.02-3.87.02-5.81,0-1.89-.02-3.14-1.29-3.16-3.2-.02-2.35,0-4.7,0-7.05,0-.56,0-1.11,0-1.83-.44.27-.74.44-1.01.63-7.5,5.33-6.65,16.54,1.6,20.83.69.36.91.76.91,1.51-.02,15.24-.02,30.48,0,45.71,0,.72-.24,1.12-.8,1.55-2.81,2.12-4.12,4.97-3.72,8.46.49,4.3,3.87,7.55,8.15,8.06,3.93.47,7.89-1.92,9.44-5.68,1.6-3.9.37-8.28-3.12-10.85-.58-.42-.79-.84-.79-1.56.02-15.08.03-30.16-.01-45.24,0-1.08.27-1.65,1.26-2.18,6.85-3.66,8.53-12.69,3.48-18.58-.87-1.01-1.96-1.82-2.95-2.72Z"/>
  <path class="cls-1" d="m98.53,48.19h-3.01v-24.25h3.01v24.25Z"/>
  <path class="cls-1" d="m25.41,98.56c0-3.32,2.71-6.06,6.03-6.09,3.35-.02,6.13,2.75,6.11,6.1-.02,3.31-2.77,6.04-6.08,6.04-3.31,0-6.06-2.75-6.06-6.05Zm6.03-3.09c-1.7.02-3.06,1.42-3.03,3.13.03,1.69,1.45,3.04,3.16,3.01,1.65-.04,2.99-1.43,2.98-3.08-.01-1.7-1.41-3.07-3.11-3.05Z"/>
</svg>