<?xml version="1.0" encoding="UTF-8"?>
<svg id="Layer_2" data-name="Layer 2" xmlns="http://www.w3.org/2000/svg" viewBox="0 0 260.41 252.23">
  <defs>
    <style>
      .cls-1 {
        fill: #637481;
      }
    </style>
  </defs>
  <path class="cls-1" d="m132.02,35.26c3.85.99,7.12,2.79,9.12,6.43,3.06,5.58,1.72,12.17-3.38,16.01-.92.69-1.24,1.37-1.23,2.48.05,5.19.02,10.39.02,15.71,2.65.09,4.83-.81,6.48-2.54,1.82-1.91,3.46-4.03,4.92-6.23,2.65-3.98,4.81-8.27,8.43-11.56,5.52-5.03,11.89-7.79,19.42-7.77,13.49.03,26.97,0,40.46.01.52,0,1.04.06,1.54.09.76,10.1-6.43,16.71-20.8,18.89,5.07,2.11,9.77,4.07,14.69,6.12-2.49,5.62-6.59,9.11-12.35,10.86-5.8,1.76-11.05.04-16.65-2.59,3.66,3.64,6.96,6.92,10.22,10.16-4.41,5.74-18.46,9.12-28.35.36-2.56,3.9-6.1,6.24-10.84,6.23-4.67-.02-8.22-2.27-10.61-5.77-2.03,1.81-4.11,3.58-6.06,5.48-.41.39-.48,1.27-.48,1.92-.03,9.17-.02,18.34-.02,27.51v2.2c-4.18,1.34-8.26,2.65-12.59,4.03,0-.92,0-1.61,0-2.3,0-23.48-.01-46.97.03-70.45,0-1.36-.4-2.19-1.51-3.06-3.87-3.04-5.4-7.19-4.48-11.97.93-4.84,3.88-8.12,8.66-9.63.61-.19,1.22-.4,1.83-.6,1.18,0,2.37,0,3.55,0Z"/>
  <path class="cls-1" d="m124.11,160.23c-4.89,1.59-9.45,2.86-13.25,5.85-3.28,2.59-3.43,6.35-.3,9.1,1.18,1.03,2.59,1.8,3.79,2.63-3.52,2.51-7.04,5.03-10.64,7.61-8.14-5.24-10.38-17.44-4.59-25.52,4.08-5.7,9.82-8.9,16.27-11.06,11.25-3.78,22.53-7.47,33.74-11.34,3.88-1.34,7.41-3.42,9.97-6.79.56-.74.95-1.6,1.24-2.07-2.83-1.75-5.7-3.14-8.12-5.1-3.25-2.63-5.42-6.09-5.69-10.44-.33-5.49,3.74-9.2,9.23-8.5,8.76,1.12,16.5,9.25,17.47,18.04,1.09,9.86-2.89,17.28-10.76,22.76-3.35,2.33-7.12,4.07-10.53,5.99,2.08,1.61,4.6,3.27,6.76,5.3,6.96,6.52,8.04,17.06,2.58,24.33-3.48,4.63-8.27,7.5-13.5,9.74-.92.39-1.86.76-3.03,1.24.57.49,1.03.88,1.49,1.28,4.42,3.81,6.92,8.45,6.36,14.46-.38,4.07-2.78,6.8-5.95,8.97-.4.27-1.37.21-1.75-.1-.45-.37-.75-1.17-.75-1.79,0-.6.43-1.2.69-1.8,1.49-3.3,1.16-6.18-1.49-8.53-1.9-1.69-4.2-2.92-6.76-4.65,0,3.9,0,7.12,0,10.35,0,2.39-.8,4.41-2.87,5.77-3.93,2.58-9.23.15-9.54-4.54-.24-3.58-.05-7.2-.05-11.2-3.43,1.53-6.54,2.87-8.36,6.01-1.15,1.98-.96,4.09-.2,6.17.2.55.59,1.1.6,1.65.01.86.06,2.08-.44,2.47-.48.38-1.82.19-2.47-.23-7.67-4.99-6.49-14.93-1.92-20.25,2.72-3.17,6.13-5.38,9.87-7.06,7.05-3.17,14.2-6.14,21.22-9.37,2.39-1.1,4.7-2.53,6.75-4.18,4.28-3.44,4.12-7.28-.66-10.08-3.62-2.13-7.66-3.55-11.96-5.49,0,2.8.06,4.96-.04,7.11-.03.57-.41,1.42-.87,1.64-3.74,1.76-7.53,3.4-11.57,5.2v-13.53Zm34.38-43.57c1.7,0,3.02-1.31,3.06-3.03.04-1.8-1.3-3.2-3.06-3.2-1.68,0-3.03,1.33-3.07,3.03-.04,1.77,1.33,3.21,3.07,3.2Z"/>
  <path class="cls-1" d="m48.87,72.87c2.48-1.04,4.87-2.04,7.25-3.03,2.33-.97,4.65-1.94,6.98-3.07-5.3-.37-10.26-1.56-14.38-5.06-4.18-3.56-5.98-8.21-6.16-13.83.7-.03,1.32-.09,1.93-.09,13.25,0,26.5.01,39.75,0,10.95-.02,19.01,5.05,24.98,13.97,2.59,3.87,5.35,7.62,8.01,11.43.25.36.49.83.49,1.25-.01,4.31.14,8.65-.19,12.94-.4,5.16-3.67,9.16-8.22,10.19-4.95,1.13-9.07-.56-12.3-4.43-.37-.45-.7-.93-1.13-1.51-5.06,4.59-11.01,6.05-17.61,5.18-4.03-.53-7.56-2.16-10.62-5.1,3.4-3.38,6.72-6.69,10.03-9.99-.07-.16-.13-.32-.2-.49-6.31,3.29-12.74,4.66-19.38,1.35-4.71-2.36-7.41-5.24-9.24-9.71Z"/>
  <path class="cls-1" d="m100.02,128.12c1.94,4.74,6.11,6.8,10.01,8.9-4.46,2.35-8.9,4.7-13.6,7.17-5.38-4.37-9.01-10.03-9.23-17.53-.29-10.16,5.58-18.69,14.88-21.5,3.56-1.08,7.11-1.07,9.91,1.8,2.98,3.06,2.54,6.7,1.05,10.24-2.2,5.24-6.36,8.66-13.03,10.91Zm2.06-11.46c1.7,0,3.04-1.29,3.09-3.01.05-1.79-1.28-3.21-3.05-3.22-1.74-.01-3.14,1.43-3.1,3.18.04,1.69,1.4,3.04,3.07,3.04Z"/>
</svg>