<?xml version="1.0" encoding="UTF-8"?>
<svg id="Layer_1" data-name="Layer 1" xmlns="http://www.w3.org/2000/svg" viewBox="0 0 127 127">
  <defs>
    <style>
      .cls-1 {
        fill: #637481;
      }
    </style>
  </defs>
  <path class="cls-1" d="m17.61,60.62v-25.14h19.79c-.46-.86-.72-1.37-1.01-1.88-2.3-4.09-1.76-9.17,1.32-12.5,3.23-3.49,7.54-4.27,12.06-2.1,5.26,2.53,9.84,5.97,13.41,10.34,3.06-2.59,5.99-5.24,9.11-7.64,1.61-1.24,3.51-2.17,5.37-3.03,4.35-2.01,8.58-1.15,11.66,2.21,3.06,3.33,3.66,8.36,1.48,12.31-.34.62-.72,1.21-1.24,2.08h19.83v25.33h-5.27v48.81H23.13v-48.78h-5.52Zm34.06,44.98v-44.87h-24.61v44.87h24.61Zm23.71-.08h24.64v-44.75h-24.64v44.75Zm-4.02-66.21h-15.53v66.2h15.53V39.32Zm-49.88,17.43h30.16v-17.32h-30.16v17.32Zm53.99-17.38v17.41h30.09v-17.41h-30.09Zm-.41-4.3c2.42,0,4.84.06,7.26-.02,3.67-.12,6.33-3.79,5.82-7.93-.45-3.69-4.1-6.68-7.41-5.56-6.02,2.03-10.81,5.91-14.51,11.06-1.06,1.48-.51,2.36,1.37,2.42,2.49.08,4.98.02,7.47.02Zm-23.18,0c2.28,0,4.56.07,6.84-.04.85-.04,1.68-.48,2.52-.74-.32-.83-.46-1.79-.98-2.46-3.29-4.23-7.51-7.31-12.29-9.7-2.55-1.27-4.83-.88-6.9.95-2.06,1.84-2.76,5.02-1.78,7.65,1.02,2.71,3.2,4.31,5.96,4.33,2.21.02,4.42,0,6.62,0Z"/>
</svg>