<?xml version="1.0" encoding="UTF-8"?>
<svg id="Layer_1" data-name="Layer 1" xmlns="http://www.w3.org/2000/svg" viewBox="0 0 126.83 126.83">
  <defs>
    <style>
      .cls-1 {
        fill: #637481;
      }
    </style>
  </defs>
  <path class="cls-1" d="m55.79,12.62c.82.52,1.7.96,2.45,1.57.96.78,1.34,1.92,1.45,3.13.18,1.91.91,2.6,2.84,2.6,1.26,0,2.52-.06,3.7.58,1.54.84,2.23,2.21,2.19,3.83-.05,1.77-.91,3.2-2.68,3.85-.59.22-1.25.33-1.88.33-6.17.02-12.34.02-18.51.01-1.87,0-3.54-1.15-4.11-2.81-.62-1.79-.17-3.75,1.39-4.84.77-.54,1.82-.72,2.77-.93.57-.13,1.19-.01,1.78-.03,1.51-.03,2.49-.77,2.54-2.25.1-2.64,1.52-4.12,3.87-4.93.04-.01.05-.08.08-.13.7,0,1.41,0,2.11,0Zm-1.17,7.2c1.21.04,2.25-.91,2.29-2.1.04-1.03-1.04-2.15-2.11-2.18-1.18-.04-2.23.88-2.24,2.08,0,1.15.67,2.18,2.05,2.21Z"/>
  <path class="cls-1" d="m38.05,22.93c-.45,2.92.51,5.29,2.78,7.14,1.41,1.15,3.08,1.51,4.83,1.52,6.04.03,12.07.02,18.11,0,3.85,0,6.57-2.21,7.48-5.65.25-.94.16-1.97.23-3.06.16-.01.39-.04.62-.04,2.63,0,5.26-.08,7.88.03,1.3.05,2.65.24,3.86.7,2.42.93,3.5,2.87,3.5,5.44,0,6.66,0,13.31,0,19.97,0,7.44,0,14.88,0,22.32,0,.24-.02.48-.03.62-2.37.24-4.69.47-7.08.72v-.83c0-10.66,0-21.33,0-31.99,0-1.5-.01-1.2-1.24-1.2-8.61,0-17.22.01-25.82.01-7.63,0-15.27-.01-22.9-.02-1.01,0-1.07.06-1.07,1.04,0,18.78,0,37.56-.02,56.34,0,.72.22.91.92.9,10.72-.02,21.44-.01,32.16,0,.11,0,.21.02.23.02.54,2.38,1.07,4.71,1.61,7.08-.12,0-.36.03-.59.03-11.75,0-23.5.02-35.25,0-3.19,0-5.35-1.63-6.02-4.64-.1-.44-.08-.91-.08-1.37,0-23.11,0-46.22-.01-69.33,0-2.06.77-3.74,2.36-4.98.58-.45,1.4-.81,2.12-.83,3.73-.08,7.47-.03,11.21-.03.07,0,.15.04.22.07Z"/>
  <path class="cls-1" d="m104.69,95.4c.02,10.76-8.56,18.88-18.78,18.81-10.75-.07-18.8-8.48-18.75-18.9.05-10.55,8.48-18.83,19.07-18.69,10.33.13,18.58,8.59,18.46,18.78Zm-20.55,3.17c-1.59-1.27-3.11-2.47-4.61-3.69-.81-.66-1.65-1.21-2.77-1-1.23.23-2.08,1-2.39,2.14-.36,1.31.11,2.47,1.22,3.34,2.36,1.86,4.7,3.74,7.05,5.61,1.17.94,2.83.87,3.87-.22,1.27-1.32,2.5-2.68,3.72-4.05,2.58-2.88,5.15-5.78,7.71-8.68.39-.44.8-.91.99-1.44.48-1.33-.15-2.86-1.34-3.56-.96-.57-2.73-.54-3.69.59-1.56,1.82-3.18,3.58-4.78,5.37-1.64,1.84-3.28,3.69-4.99,5.61Z"/>
  <path class="cls-1" d="m61.2,50.3c-3.71,0-7.42,0-11.12,0-1.37,0-1.85-.47-1.86-1.84,0-.4-.05-.85.11-1.2.18-.39.51-.8.88-1,.38-.2.89-.18,1.35-.18,7.09,0,14.18,0,21.27,0,2.1,0,2.52.44,2.42,2.52-.06,1.28-.51,1.7-1.84,1.7-3.73,0-7.47,0-11.2,0Z"/>
  <path class="cls-1" d="m61.23,59.19c3.71,0,7.42,0,11.12,0,1.44,0,1.87.44,1.89,1.88.03,1.91-.4,2.36-2.29,2.36-7.17,0-14.34,0-21.52,0-1.95,0-3.01-1.8-1.99-3.51.23-.37.86-.68,1.33-.7,1.81-.08,3.62-.03,5.43-.03,2,0,4.01,0,6.01,0Z"/>
  <path class="cls-1" d="m57.62,74.98c-2.54,0-5.09,0-7.63,0-1.26,0-1.64-.35-1.75-1.6-.04-.4-.01-.81.03-1.21.11-.91.63-1.4,1.55-1.4,5.14-.01,10.29-.02,15.43,0,1.24,0,1.74.56,1.75,1.81,0,.22,0,.43,0,.65-.02,1.3-.46,1.76-1.74,1.76-2.54,0-5.09,0-7.63,0h0Z"/>
  <path class="cls-1" d="m56.19,83.9c2.08,0,4.17,0,6.25,0,1.18,0,1.64.49,1.64,1.69,0,2.24-.19,2.42-2.46,2.42-3.9,0-7.8,0-11.69,0-1.19,0-1.65-.46-1.7-1.65-.01-.35.01-.7.05-1.05.11-1.01.49-1.39,1.51-1.4,2.14-.02,4.28,0,6.41,0,0,0,0,0,0,.01Z"/>
  <path class="cls-1" d="m45.82,57.05c-.52.71-.92,1.36-1.42,1.92-1.39,1.6-2.82,3.16-4.24,4.74-.64.71-1.28.78-2.05.2-1.04-.79-2.08-1.6-3.09-2.42-.63-.51-.72-1.39-.26-1.94.43-.51,1.24-.53,1.88-.04.59.46,1.19.91,1.75,1.42.34.31.56.32.86-.03,1.15-1.32,2.3-2.62,3.47-3.92.29-.32.55-.74.92-.89.39-.16.94-.19,1.34-.05.32.12.5.58.85,1.02Z"/>
  <path class="cls-1" d="m39.05,89.22c-.29-.15-.51-.24-.7-.37-1.11-.84-2.23-1.67-3.31-2.55-.69-.56-.75-1.4-.22-1.99.47-.53,1.21-.49,1.88.07.51.43,1.1.79,1.57,1.26.53.53.81.31,1.21-.16,1.28-1.48,2.58-2.94,3.92-4.37.65-.69,1.36-.7,1.9-.14.43.45.39,1.36-.11,1.93-1.69,1.89-3.37,3.78-5.08,5.65-.27.29-.69.45-1.05.67Z"/>
  <path class="cls-1" d="m38.91,48.4c1.46-1.67,2.84-3.24,4.22-4.82.67-.77,1.39-.92,2.03-.41.57.46.59,1.25-.04,2-1.13,1.33-2.31,2.63-3.47,3.94-.48.54-.97,1.09-1.45,1.63-.63.7-1.47.79-2.21.21-.98-.76-1.95-1.52-2.92-2.29-.61-.49-.78-1.4-.38-1.94.41-.55,1.2-.65,1.88-.15.78.56,1.52,1.19,2.33,1.84Z"/>
  <path class="cls-1" d="m45.77,69.46c-.43.6-.82,1.24-1.3,1.79-1.4,1.6-2.82,3.19-4.26,4.75-.78.85-1.28.87-2.21.17-.97-.73-1.92-1.46-2.86-2.23-.74-.61-.88-1.48-.39-2.05.49-.57,1.32-.5,2.08.15.41.35.89.62,1.26,1.01.58.61.99.48,1.48-.11,1.12-1.34,2.31-2.63,3.44-3.96.76-.89,1.52-1.08,2.19-.44.22.21.32.52.56.93Z"/>
</svg>