<?xml version="1.0" encoding="UTF-8"?>
<svg id="Layer_1" data-name="Layer 1" xmlns="http://www.w3.org/2000/svg" viewBox="0 0 127 127">
  <defs>
    <style>
      .cls-1 {
        fill: #637481;
      }
    </style>
  </defs>
  <path class="cls-1" d="m63.67,23.78c9.73.06,17.55,7.89,17.59,17.61.04,9.81-8.03,17.81-17.9,17.73-9.71-.08-17.66-8.05-17.59-17.65.07-9.96,7.96-17.76,17.9-17.7Z"/>
  <path class="cls-1" d="m32.83,77.4c.88-9.53,7.21-15.52,17.02-15.54,9.57-.02,19.14,0,29.57,0-2.28,4.08-4.1,7.6-6.22,10.93-.4.64-2.05.86-3.02.7-8.78-1.51-17.01-.12-24.77,4.26-.73.41-1.67.75-2.49.69-3.36-.25-6.71-.67-10.09-1.03Z"/>
  <path class="cls-1" d="m87.96,80.63c8.94-.6,16.06,7.83,13.23,16.47-1.73,5.28-6.25,6.79-10.62,3.44-3.55-2.72-5.82-6.36-5.94-10.86-.05-1.76,1.1-3.56,1.75-5.32.43-1.15.96-2.27,1.58-3.73Z"/>
  <path class="cls-1" d="m39.53,80.41c.12,1.37-.18,2.79.35,3.25,4.03,3.48,2.81,7.35,1.13,11.31-.2.47-.47.92-.74,1.37-2.98,4.94-7.7,7.18-11.14,5.29-3.5-1.92-5.12-8.4-2.99-12.95,2.62-5.59,7.2-8.19,13.39-8.27Z"/>
  <path class="cls-1" d="m83.29,82.8c-.61,1.28-1.15,2.43-1.79,3.77-2.84-1.42-5.5-2.94-8.3-4.11-2.85-1.18-6.14-2.68-5.98,2.86h-7.12c-.4-1.17-.8-2.36-1.54-4.55-4.32,1.82-8.49,3.58-13.04,5.5-.43-.78-1.09-1.97-1.71-3.09,8.46-9.29,28-9.54,39.47-.38Z"/>
  <path class="cls-1" d="m53.44,103.22c1.5-4.41,2.8-8.57,4.36-12.62.35-.92,1.58-2,2.5-2.1,2.68-.28,5.4-.1,7.85-.1,1.92,5.1,3.72,9.86,5.59,14.82h-20.31Z"/>
  <path class="cls-1" d="m94.57,77.31c-3.88.44-7.25,1.28-10.54,1.04-2.38-.18-4.65-1.79-7.47-2.98,2.47-4.42,4.75-8.49,7.19-12.86,6.93,3.14,9.07,9.05,10.82,14.8Z"/>
</svg>