<?xml version="1.0" encoding="UTF-8"?>
<svg id="Layer_1" data-name="Layer 1" xmlns="http://www.w3.org/2000/svg" viewBox="0 0 126.83 126.83">
  <defs>
    <style>
      .cls-1 {
        fill: #637481;
      }
    </style>
  </defs>
  <path class="cls-1" d="m21.31,60.79c.22-1.57.37-3.15.66-4.7,1.73-9.62,6.29-17.68,13.57-24.17,6.37-5.68,13.82-9.14,22.28-10.22,11.76-1.5,22.43,1.38,31.73,8.76,8.85,7.02,14.11,16.22,15.61,27.42,2.98,22.16-11.95,42.72-33.99,46.93-1.69.32-3.4.48-5.11.72h-5.26c-1.03-.13-2.06-.24-3.08-.38-7.74-1.1-14.69-4.06-20.74-9.01-8.08-6.62-13.12-15.08-15-25.38-.28-1.56-.44-3.14-.66-4.7,0-1.75,0-3.51,0-5.26Zm2.72,2.56c-.08,21.69,17.63,39.45,39.38,39.47,21.65.03,39.28-17.55,39.4-39.29.12-21.68-17.51-39.39-39.34-39.51-21.61-.12-39.37,17.58-39.44,39.33Z"/>
  <path class="cls-1" d="m64.93,43.31c6.39.28,12.51,3.69,16.21,10.7,3.71,7.02,3.19,14.03-1.1,20.73-.76,1.18-1.48,1.45-2.26.95-.76-.5-.77-1.31,0-2.43,7.25-10.63.95-25.07-11.8-27.07-9.65-1.51-18.87,5.61-19.86,15.34-.45,4.41.6,8.42,3.15,12.04.39.56.59,1.12.2,1.75-.32.52-.85.78-1.41.58-.4-.15-.8-.48-1.05-.84-2.44-3.42-3.68-7.24-3.7-11.46-.07-11.23,8.92-20.29,21.62-20.28Z"/>
  <path class="cls-1" d="m71.54,86.96c-.03,3.86-2.51,7.09-6.01,8.01-3.62.95-7.38-.64-9.21-3.89-1.79-3.18-1.22-7.23,1.39-9.75.82-.8,1.61-.9,2.22-.29.61.61.5,1.39-.31,2.21-1.62,1.65-2.08,3.93-1.2,5.98.9,2.1,2.9,3.4,5.21,3.29,2.19-.1,3.8-1.19,4.71-3.18.93-2.03.59-3.95-.77-5.7-.15-.19-.34-.36-.5-.54-.56-.64-.56-1.46,0-1.98.55-.51,1.3-.49,1.91.09,1.69,1.62,2.53,3.6,2.54,5.75Z"/>
  <path class="cls-1" d="m64.76,82.22c0,1.09.01,2.19,0,3.28-.01.94-.54,1.51-1.36,1.5-.78-.01-1.31-.57-1.31-1.46-.01-2.24-.01-4.48,0-6.73,0-.93.56-1.52,1.36-1.51.77.01,1.3.59,1.31,1.48.02,1.15,0,2.3,0,3.45Z"/>
  <path class="cls-1" d="m45.5,52c.02,1.26-.98,1.98-1.87,1.51-1.62-.85-3.19-1.79-4.75-2.74-.63-.38-.75-1.12-.42-1.73.34-.62,1.11-.92,1.76-.56,1.58.86,3.14,1.76,4.67,2.71.33.2.49.66.6.81Z"/>
  <path class="cls-1" d="m49.98,38.28c.2.16.67.39.91.77.88,1.41,1.7,2.87,2.51,4.32.45.81.24,1.59-.46,1.98-.69.38-1.41.16-1.87-.63-.85-1.43-1.69-2.87-2.5-4.33-.56-1.02.08-2.14,1.41-2.11Z"/>
  <path class="cls-1" d="m78.64,39.44c-.2.49-.28.78-.42,1.04-.78,1.38-1.56,2.75-2.37,4.12-.52.88-1.26,1.14-1.98.73-.72-.42-.88-1.2-.39-2.06.81-1.42,1.62-2.85,2.46-4.25.35-.6.93-.96,1.59-.64.45.22.77.72,1.11,1.06Z"/>
  <path class="cls-1" d="m82.54,53.81c-.37-.35-.86-.63-1.09-1.05-.3-.55-.13-1.18.42-1.52,1.61-.97,3.24-1.92,4.9-2.81.61-.33,1.19-.03,1.56.52.39.57.38,1.28-.17,1.63-1.7,1.07-3.48,2.03-5.23,3.02-.07.04-.16.03-.24.05-.05.05-.1.11-.15.16Z"/>
  <path class="cls-1" d="m64.76,38.63c0,.79.01,1.59,0,2.38-.02.95-.54,1.52-1.36,1.51-.78,0-1.31-.57-1.32-1.47-.02-1.67-.02-3.34,0-5.01.01-.89.55-1.43,1.35-1.42.79,0,1.3.56,1.32,1.46.02.85,0,1.7,0,2.55Z"/>
  <path class="cls-1" d="m38.58,64.76c-.85,0-1.7.02-2.55,0-.89-.03-1.43-.58-1.41-1.37.02-.76.55-1.29,1.4-1.3,1.7-.02,3.4-.02,5.1,0,.86.01,1.39.53,1.41,1.29.02.79-.53,1.36-1.4,1.38-.85.03-1.7,0-2.55,0Z"/>
  <path class="cls-1" d="m88.25,62.07c.82,0,1.64-.01,2.46,0,.95.02,1.51.54,1.5,1.36,0,.79-.55,1.31-1.45,1.32-1.67.02-3.33.02-5,0-.9-.01-1.45-.53-1.46-1.32-.01-.82.55-1.34,1.49-1.36.82-.02,1.64,0,2.46,0Z"/>
</svg>