<?xml version="1.0" encoding="UTF-8"?>
<svg id="Layer_1" data-name="Layer 1" xmlns="http://www.w3.org/2000/svg" viewBox="0 0 126.83 126.83">
  <defs>
    <style>
      .cls-1 {
        fill: #637481;
      }
    </style>
  </defs>
  <path class="cls-1" d="m65.17,97.59c0,1.15,0,2.23,0,3.31,0,1.52-.83,2.36-2.33,2.36-2.53,0-5.06,0-7.59,0-1.48,0-2.32-.82-2.32-2.31-.01-5.78-.02-11.56,0-17.34.01-2.68,1.57-4.84,4.07-5.74.46-.17.55-.41.54-.84-.02-2.66,0-5.33,0-7.99,0-1.9.88-2.78,2.77-2.78,7.29,0,14.58,0,21.88,0,8.21,0,16.42,0,24.63,0,1.9,0,2.79.88,2.79,2.77,0,2.69,0,5.37,0,8.06,0,.42.11.62.53.78,2.56.93,4.08,3.14,4.09,5.87,0,5.71,0,11.42,0,17.14,0,1.56-.82,2.39-2.37,2.39-2.51,0-5.01,0-7.52,0-1.51,0-2.33-.82-2.34-2.35-.01-1.04-.01-2.08-.02-3.11,0-.06-.04-.12-.08-.21h-36.72Zm41.29-28.13h-21.28v16.64h16.8c0-.81,0-1.57,0-2.33.02-2.75,1.45-4.86,4-5.86.4-.16.49-.36.49-.75-.01-1.65,0-3.3,0-4.94,0-.9,0-1.8,0-2.76Zm-24.49,0h-21.28c0,2.69,0,5.32.01,7.96,0,.14.18.35.33.41,2.91,1.18,4.22,3.37,4.13,6.47-.02.6,0,1.2,0,1.79h16.8v-16.63Zm19.96,24.94v-4.97h-36.72v4.97h36.72Zm-39.97,5.71c.02-.2.05-.38.05-.55,0-5.26,0-10.51,0-15.77,0-.36-.05-.72-.16-1.06-.43-1.37-1.82-2.24-3.2-2.03-1.52.23-2.56,1.43-2.57,3,0,5.26,0,10.51,0,15.77,0,.21.02.43.04.65h5.84Zm49.06,0c.02-.19.05-.35.05-.5,0-5.3,0-10.6-.01-15.9,0-.46-.12-.95-.32-1.37-.58-1.27-1.96-1.9-3.32-1.59-1.36.31-2.28,1.48-2.29,2.97,0,5.3,0,10.6,0,15.9,0,.15.02.3.04.48h5.85Z"/>
  <path class="cls-1" d="m83.54,57.45c-8.02,0-16.03,0-24.05,0-1.51,0-2.03-.52-2.03-2.03,0-9.94,0-19.87,0-29.81,0-1.53.51-2.04,2.01-2.04,16.05,0,32.11,0,48.16,0,1.53,0,2.02.5,2.02,2.03,0,9.96,0,19.92,0,29.87,0,1.47-.52,1.98-2.01,1.98-8.04,0-16.08,0-24.11,0Zm-22.87-30.71v24.17c.27-.36.44-.58.61-.82,3.74-5.18,7.48-10.35,11.22-15.53,1.14-1.57,2.15-1.58,3.28-.02.85,1.17,1.69,2.34,2.54,3.51.59.82,1.19,1.64,1.81,2.49.2-.27.37-.49.52-.71,2.45-3.38,4.89-6.77,7.34-10.15,1-1.38,2.08-1.37,3.08,0,4.98,6.87,9.95,13.75,14.93,20.62.12.17.27.33.47.58v-24.13h-45.8Zm36.09,16.18c-.96,1.06-2.04,1.15-3.24.63-.11-.05-.43.17-.51.33-.36.7-.66,1.43-.98,2.15-.41.9-.98,1.29-1.75,1.19-.77-.1-1.21-.57-1.4-1.51-.27-1.34-.54-2.68-.84-4.14-1.9.98-2.67-.39-3.55-1.65-.71.98-1.35,1.9-2.04,2.79-.3.38-.3.64-.01,1.04,2.44,3.33,4.86,6.67,7.26,10.03.28.39.57.54,1.05.54,4.49-.02,8.98,0,13.47-.01.21,0,.42-.02.76-.04-2.76-3.81-5.44-7.51-8.22-11.35Zm-34.6,11.34h23.99c-2.52-3.48-4.98-6.87-7.47-10.32-.28.42-.48.76-.73,1.09-.49.66-1.38.97-1.96.47-1.1-.96-1.95-.54-2.84.22-.05.04-.11.08-.17.11-.9.55-1.74.37-2.34-.5-.31-.46-.61-.93-.96-1.46-2.52,3.49-4.99,6.91-7.52,10.4Zm32.86-13.73c-1.88-2.6-3.67-5.06-5.49-7.58-1.08,1.5-2.1,2.9-3.1,4.29q.83,1.34,2.22,1.01c.09-.02.18-.04.26-.06.91-.18,1.65.28,1.9,1.19.09.34.16.7.26,1.14,1.29-1.25,2.49.05,3.95.01Zm-23.36.58c.28.43.53.82.83,1.28,1.17-.86,2.3-1.8,3.84-.24.07-.58.27-1,.13-1.22-.71-1.09-1.5-2.12-2.31-3.25-.85,1.17-1.65,2.27-2.48,3.43Z"/>
  <path class="cls-1" d="m26.9,73.25c-.06-1.68-.17-3.35-.16-5.01.03-4.54.85-8.93,2.64-13.12.41-.97,1.18-1.37,2.03-1.08.59.2.94.63,1.06,1.22.66,3.27,1.42,6.53,1.91,9.83.38,2.58.41,5.21.59,7.82,0,.08.02.16.2.37.14-.2.25-.42.42-.59,3.17-3.35,6.95-5.79,11.21-7.52.74-.3,1.41-.31,1.99.29.5.52.56,1.2.15,2-2.75,5.29-6.06,10.15-10.72,13.98-.03.03-.05.07-.13.18.2.02.35.06.51.06,1.69,0,3.39,0,5.08,0,1.31,0,1.87.55,1.87,1.83,0,1.69,0,3.39,0,5.08,0,1.22-.56,1.81-1.77,1.79-.53-.01-.69.21-.82.65-.88,2.96-1.77,5.92-2.67,8.88-.67,2.2-2.21,3.34-4.52,3.34-3.25,0-6.5,0-9.75,0-2.24,0-3.81-1.17-4.46-3.33-.9-2.98-1.81-5.96-2.69-8.94-.13-.44-.32-.6-.79-.6-1.21.01-1.79-.58-1.79-1.77,0-1.72,0-3.43,0-5.15,0-1.19.6-1.78,1.8-1.78,1.87,0,3.74,0,5.77,0-.23-.22-.36-.35-.5-.47-4.58-3.85-7.83-8.69-10.54-13.95-.33-.65-.25-1.29.26-1.82.53-.55,1.17-.6,1.87-.33,4.34,1.73,8.17,4.21,11.39,7.61.15.16.31.32.47.48.01.01.04.01.09.03Zm-4.83,17.2c.01.13,0,.22.03.3.85,2.81,1.69,5.61,2.54,8.42.22.71.74.96,1.45.96,3.23,0,6.46,0,9.68,0,.88,0,1.25-.29,1.52-1.15.32-1.06.64-2.12.96-3.17.53-1.76,1.06-3.53,1.61-5.35h-17.8Zm20.36-5.57h-22.95v2.34h22.91c.01-.18.03-.31.03-.44,0-.61,0-1.22,0-1.9Zm-11.25-6.41c1.19-5.57.48-11.08-.54-16.57-1.19,5.57-.88,11.09.54,16.57Zm12.52-8.15c-3.32,1.42-9.51,7.98-9.61,10.17,4.13-2.48,6.93-6.15,9.61-10.17Zm-25.38.08c2.57,3.98,5.39,7.72,9.65,10.08-2.25-4.29-5.49-7.62-9.65-10.08Z"/>
  <path class="cls-1" d="m40.38,26.7c0,.58,0,1.07,0,1.56,0,2.44.01,4.88-.01,7.32,0,.45.14.66.55.86,2.67,1.28,3.65,4.34,3.48,6.61-.06.85-.68,1.41-1.54,1.42-2.71.02-5.42.02-8.13,0-.88,0-1.51-.63-1.51-1.5-.03-2.9.94-5.25,3.67-6.64.16-.08.33-.32.33-.49.02-2.96,0-5.92,0-8.87,0-.06-.04-.12-.08-.22h-11.1c-.01.23-.03.47-.03.7,0,4.92,0,9.84-.01,14.77,0,.45.1.7.55.92,2.66,1.28,3.64,4.32,3.46,6.62-.06.84-.68,1.4-1.55,1.41-2.69.03-5.37.03-8.06,0-.96,0-1.56-.65-1.57-1.6-.01-2.88.98-5.2,3.68-6.57.16-.08.32-.33.32-.5.02-5.17.01-10.34,0-15.51,0-.06-.04-.13-.08-.28-.22,0-.46,0-.7,0-2.51,0-5.01,0-7.52,0-.85,0-1.44-.5-1.6-1.28-.14-.7.23-1.44.91-1.71.24-.1.53-.14.79-.14,11.31,0,22.62,0,33.93,0,1.06,0,1.73.63,1.72,1.58,0,.94-.68,1.55-1.75,1.55-2.42,0-4.83,0-7.25,0-.27,0-.54,0-.92,0Zm-3.75,14.58h4.4c-.36-1.39-1.32-2.27-2.33-2.2-.96.07-1.89,1.05-2.06,2.2Zm-14.38,6.67h4.39c-.33-1.35-1.25-2.21-2.27-2.18-.96.03-1.86.94-2.12,2.18Z"/>
</svg>