<svg width="33" height="32" viewBox="0 0 33 32" fill="none" xmlns="http://www.w3.org/2000/svg">
<g clip-path="url(#clip0_9189_6845)">
<path d="M16.7559 28.4999C16.6698 28.4999 16.5837 28.4999 16.497 28.4995C14.459 28.5045 12.576 28.4527 10.7447 28.3412C9.0657 28.2391 7.53314 27.6589 6.31241 26.6635C5.13452 25.703 4.33015 24.4043 3.92172 22.8039C3.56625 21.4106 3.54741 20.0429 3.52936 18.72C3.51627 17.7708 3.50278 16.6461 3.5 15.5023C3.50278 14.3538 3.51627 13.2291 3.52936 12.2799C3.54741 10.9572 3.56625 9.58946 3.92172 8.19596C4.33015 6.59555 5.13452 5.29686 6.31241 4.33638C7.53314 3.34099 9.0657 2.76078 10.7449 2.65862C12.5762 2.54734 14.4596 2.49536 16.502 2.50032C18.5406 2.49596 20.423 2.54734 22.2543 2.65862C23.9333 2.76078 25.4659 3.34099 26.6866 4.33638C27.8647 5.29686 28.6688 6.59555 29.0773 8.19596C29.4327 9.58927 29.4516 10.9572 29.4696 12.2799C29.4827 13.2291 29.4964 14.3538 29.499 15.4975V15.5023C29.4964 16.6461 29.4827 17.7708 29.4696 18.72C29.4516 20.0427 29.4329 21.4104 29.0773 22.8039C28.6688 24.4043 27.8647 25.703 26.6866 26.6635C25.4659 27.6589 23.9333 28.2391 22.2543 28.3412C20.5006 28.448 18.6991 28.4999 16.7559 28.4999ZM16.497 26.4683C18.5019 26.473 20.3427 26.4225 22.131 26.3138C23.4005 26.2366 24.5012 25.8246 25.403 25.0892C26.2365 24.4095 26.8106 23.4716 27.1091 22.3016C27.4051 21.1418 27.4221 19.8965 27.4386 18.6922C27.4515 17.7494 27.465 16.6326 27.4678 15.4999C27.465 14.3671 27.4515 13.2505 27.4386 12.3076C27.4221 11.1034 27.4051 9.85805 27.1091 8.69802C26.8106 7.52806 26.2365 6.5902 25.403 5.9104C24.5012 5.17527 23.4005 4.76326 22.131 4.6861C20.3427 4.5772 18.5019 4.52701 16.5018 4.53137C14.4973 4.52661 12.6563 4.5772 10.868 4.6861C9.59851 4.76326 8.49779 5.17527 7.59602 5.9104C6.7625 6.5902 6.18843 7.52806 5.88989 8.69802C5.59393 9.85805 5.57687 11.1032 5.56041 12.3076C5.54752 13.2513 5.53403 14.3687 5.53125 15.5023C5.53403 16.631 5.54752 17.7486 5.56041 18.6922C5.57687 19.8965 5.59393 21.1418 5.88989 22.3016C6.18843 23.4716 6.7625 24.4095 7.59602 25.0892C8.49779 25.8244 9.59851 26.2364 10.868 26.3136C12.6563 26.4225 14.4977 26.4732 16.497 26.4683ZM16.4486 21.8476C12.9487 21.8476 10.101 19.0001 10.101 15.4999C10.101 11.9998 12.9487 9.15227 16.4486 9.15227C19.9488 9.15227 22.7963 11.9998 22.7963 15.4999C22.7963 19.0001 19.9488 21.8476 16.4486 21.8476ZM16.4486 11.1835C14.0686 11.1835 12.1322 13.12 12.1322 15.4999C12.1322 17.8799 14.0686 19.8163 16.4486 19.8163C18.8288 19.8163 20.765 17.8799 20.765 15.4999C20.765 13.12 18.8288 11.1835 16.4486 11.1835ZM23.5072 7.12102C22.666 7.12102 21.9838 7.803 21.9838 8.64446C21.9838 9.48592 22.666 10.1679 23.5072 10.1679C24.3487 10.1679 25.0307 9.48592 25.0307 8.64446C25.0307 7.803 24.3487 7.12102 23.5072 7.12102Z" fill="#8F00FF"/>
</g>
<defs>
<clipPath id="clip0_9189_6845">
<rect width="26" height="26" fill="white" transform="translate(3.5 2.5)"/>
</clipPath>
</defs>
</svg>
