<svg width="24" height="24" viewBox="0 0 24 24" fill="none" xmlns="http://www.w3.org/2000/svg">
<path d="M8.82555 7.35998V0.399984C8.82555 0.179203 8.64635 0 8.42557 0H6.02557C5.80479 0 5.62559 0.179203 5.62559 0.399984V7.35998C4.13838 8.20158 3.22516 9.75998 3.22559 11.484V23.6C3.22559 23.8212 3.40479 24 3.62557 24H10.8256C11.0464 24 11.2256 23.8212 11.2256 23.6V11.4844C11.2259 9.75998 10.3128 8.20158 8.82555 7.35998ZM10.4255 23.2H4.02555V11.484C4.02476 9.98119 4.85998 8.63002 6.20435 7.95802C6.33996 7.89 6.42555 7.75163 6.42555 7.60003V0.800016H8.02554V7.60003C8.02554 7.75163 8.11113 7.89042 8.24674 7.95802C9.59116 8.62959 10.426 9.98081 10.4255 11.484V23.2Z" fill="#103265"/>
<path d="M8.42441 2H6.02441V2.80002H8.42441V2Z" fill="#103265"/>
<path d="M20.7373 12.9473L20.0213 7.94332C19.9933 7.74654 19.8246 7.6001 19.6253 7.6001H14.8253C14.6265 7.6001 14.4577 7.74649 14.429 7.94332L13.7134 12.9253C13.6453 13.3813 13.6701 13.8386 13.7838 14.2761L13.8534 14.5693C14.2414 16.1181 15.6278 17.1997 17.2246 17.2001C17.227 17.2001 17.2286 17.2001 17.2306 17.2001C18.817 17.2001 20.201 16.1282 20.5986 14.5841L20.6642 14.305C20.7806 13.8585 20.8049 13.4009 20.7373 12.9473ZM19.8882 14.1121L19.8222 14.3921C19.5174 15.5749 18.4521 16.4001 17.2306 16.4001C17.2286 16.4001 17.227 16.4001 17.2254 16.4001C15.9958 16.4001 14.9282 15.5673 14.631 14.3801L14.5606 14.0833C14.4714 13.7421 14.453 13.3921 14.5054 13.0413L15.1718 8.40011H19.2786L19.9462 13.0629C19.9982 13.4117 19.9798 13.7617 19.8882 14.1121Z" fill="#103265"/>
<path d="M17.6242 16.8H16.8242V22H17.6242V16.8Z" fill="#103265"/>
<path d="M18.0253 21.6001H16.4253C15.3225 21.6001 14.4253 22.4973 14.4253 23.6001C14.4253 23.8213 14.6041 24.0001 14.8253 24.0001H19.6253C19.8465 24.0001 20.0253 23.8213 20.0253 23.6001C20.0253 22.4973 19.1281 21.6001 18.0253 21.6001ZM15.2937 23.2001C15.4589 22.7345 15.9041 22.4001 16.4253 22.4001H18.0253C18.5469 22.4001 18.9917 22.7345 19.1569 23.2001H15.2937Z" fill="#103265"/>
<path d="M20.4239 13.2H14.0239V14H20.4239V13.2Z" fill="#103265"/>
<path d="M8.42441 5.6001H6.02441V6.40011H8.42441V5.6001Z" fill="#103265"/>
<path d="M9.22516 12.3999H5.22518C5.0044 12.3999 4.8252 12.5787 4.8252 12.7999V19.9999C4.8252 20.2211 5.0044 20.3999 5.22518 20.3999H9.22516C9.44595 20.3999 9.62515 20.2211 9.62515 19.9999V12.7999C9.62515 12.5787 9.44595 12.3999 9.22516 12.3999ZM8.82518 19.5999H5.62516V13.1999H8.82518V19.5999Z" fill="#103265"/>
</svg>
