<svg width="10" height="10" viewBox="0 0 10 10" fill="none" xmlns="http://www.w3.org/2000/svg">
<path fill-rule="evenodd" clip-rule="evenodd" d="M5.0144 2.49798e-05C2.70988 -0.00780411 0.827548 1.82568 0.752314 4.12068L0.75 4.26313C0.788304 5.38804 1.17104 6.46035 1.84514 7.34381L2.00346 7.55042C2.6469 8.36855 3.41156 9.08667 4.27014 9.67855L4.47686 9.81771L4.50702 9.8414C4.8013 10.0528 5.19863 10.0528 5.49291 9.8414L5.51802 9.82076C6.19928 9.37894 6.8275 8.85981 7.39023 8.27365C8.5343 7.0626 9.22386 5.70562 9.24988 4.32749L9.24995 4.27632C9.25775 1.96596 7.42992 0.0778351 5.14198 0.00234521L5.0144 2.49798e-05ZM5.01183 0.758708C6.90109 0.765167 8.435 2.27468 8.49196 4.15453L8.49357 4.32028C8.47169 5.47569 7.86673 6.6662 6.84331 7.74955C6.32147 8.2931 5.73637 8.77626 5.10178 9.1872L5.05949 9.219C5.02531 9.24865 4.97462 9.24865 4.94044 9.219L4.89933 9.18797C3.95399 8.57076 3.12428 7.7915 2.44818 6.88583C1.90359 6.17207 1.58088 5.31867 1.51592 4.42842L1.50638 4.24991C1.51279 2.35608 3.01766 0.817465 4.89173 0.760332L5.01183 0.758708ZM4.99996 2.70065C4.10577 2.70065 3.38088 3.42777 3.38088 4.32473C3.38088 5.22169 4.10577 5.94881 4.99996 5.94881C5.89416 5.94881 6.61905 5.22169 6.61905 4.32473C6.61905 3.42777 5.89416 2.70065 4.99996 2.70065ZM4.99996 3.45936C5.47642 3.45936 5.86267 3.8468 5.86267 4.32473C5.86267 4.80266 5.47642 5.1901 4.99996 5.1901C4.5235 5.1901 4.13726 4.80266 4.13726 4.32473C4.13726 3.8468 4.5235 3.45936 4.99996 3.45936Z" fill="#636363"/>
</svg>
