<svg width="20" height="20" viewBox="0 0 20 20" fill="none" xmlns="http://www.w3.org/2000/svg">
<path d="M13.9863 14.0156V15.3438C13.9863 16.8084 12.7948 18 11.3301 18H4.65625C3.19155 18 2 16.8084 2 15.3438V3.65625C2 2.19155 3.19155 1 4.65625 1H11.3301C12.7948 1 13.9863 2.19155 13.9863 3.65625V4.98438C13.9863 5.35117 13.6891 5.64844 13.3223 5.64844C12.9555 5.64844 12.6582 5.35117 12.6582 4.98438V3.65625C12.6582 2.92397 12.0624 2.32812 11.3301 2.32812H4.65625C3.92397 2.32812 3.32812 2.92397 3.32812 3.65625V15.3438C3.32812 16.076 3.92397 16.6719 4.65625 16.6719H11.3301C12.0624 16.6719 12.6582 16.076 12.6582 15.3438V14.0156C12.6582 13.6488 12.9555 13.3516 13.3223 13.3516C13.6891 13.3516 13.9863 13.6488 13.9863 14.0156ZM18.5138 8.35929L17.0267 6.87228C16.7673 6.61288 16.3469 6.61288 16.0876 6.87228C15.8282 7.13155 15.8282 7.55204 16.0876 7.81131L17.1453 8.86914H9.17188C8.80508 8.86914 8.50781 9.16641 8.50781 9.5332C8.50781 9.89999 8.80508 10.1973 9.17188 10.1973H17.1453L16.0876 11.2551C15.8282 11.5144 15.8282 11.9349 16.0876 12.1941C16.2173 12.3238 16.3872 12.3887 16.5571 12.3887C16.7271 12.3887 16.897 12.3238 17.0267 12.1941L18.5138 10.7071C19.1611 10.0598 19.1611 9.00662 18.5138 8.35929Z" fill="#EB5757"/>
</svg>
