<svg width="24" height="24" viewBox="0 0 24 24" fill="none" xmlns="http://www.w3.org/2000/svg">
<g clip-path="url(#clip0_9189_13019)">
<path d="M14.625 12.7499C13.6777 12.7499 13.0207 12.115 13.014 12.1086L12.4849 12.64C12.5201 12.6753 13.3594 13.4999 14.625 13.4999C15.8906 13.4999 16.7299 12.6753 16.7651 12.64L16.2349 12.1098C16.2285 12.1161 15.5835 12.7499 14.625 12.7499Z" fill="#103265"/>
<path d="M10.2349 12.1099C10.2285 12.1162 9.58349 12.75 8.62499 12.75C7.67774 12.75 7.02074 12.1151 7.01511 12.1099L6.48486 12.6401C6.52011 12.6754 7.35936 13.5 8.62499 13.5C9.89061 13.5 10.7299 12.6754 10.7651 12.6401L10.2349 12.1099Z" fill="#103265"/>
<path d="M9.86872 16.894L9.63135 17.6054C10.3952 17.86 11.1977 17.9875 11.9998 17.9875C12.802 17.9875 13.6048 17.86 14.3683 17.6054L14.131 16.894C12.7573 17.3523 11.2431 17.3523 9.86872 16.894Z" fill="#103265"/>
<path d="M1.37547 13.4505C1.37435 13.467 1.37397 13.4839 1.3751 13.5007C1.42047 14.313 1.6721 15.1069 2.10297 15.7965L2.98422 17.2061C3.1406 17.4562 3.38547 17.6284 3.67385 17.6906C3.75072 17.7071 3.82797 17.7154 3.90447 17.7154C3.91685 17.7154 3.92885 17.7131 3.94122 17.7127L4.25847 18.1357C4.55097 18.5257 5.00285 18.7342 5.46147 18.7342C5.74085 18.7342 6.02285 18.6566 6.27222 18.4957L6.85985 18.1159C7.06197 18.3712 7.27534 18.6176 7.49922 18.8557V23.25H8.24922V19.5889C8.27284 19.6099 8.29422 19.6324 8.31822 19.6534C8.74459 20.0242 9.15297 20.2987 9.56697 20.4915C10.2967 20.8312 11.0655 20.9977 11.8248 20.9977C13.0331 20.9977 14.2185 20.5759 15.1852 19.7572C15.2505 19.7021 15.3105 19.6421 15.3742 19.5855V23.25H16.1242V18.8591C16.3687 18.6007 16.6042 18.3341 16.8232 18.0555L17.25 18.375C17.5125 18.5719 17.8245 18.6754 18.1466 18.6754C18.2178 18.6754 18.2898 18.6701 18.3622 18.66C18.7586 18.6034 19.1096 18.3956 19.35 18.075L19.6218 17.7127C19.6342 17.7131 19.6462 17.7154 19.659 17.7154C19.7355 17.7154 19.8127 17.7071 19.8896 17.6906C20.178 17.6284 20.4228 17.4562 20.5792 17.2065L21.4605 15.7965C21.8917 15.1065 22.1433 14.3126 22.1887 13.476L22.1257 7.92336L23.2368 3.84898C23.2871 3.66523 23.1911 3.47286 23.0145 3.40198L19.2645 1.90198C19.1058 1.83861 18.9266 1.88961 18.825 2.02498L17.9865 3.14286C16.6706 1.56186 14.6643 0.750732 12 0.750732C9.38585 0.750732 7.38335 1.53186 6.0221 3.05361L5.59197 2.09623C5.51172 1.91736 5.3081 1.83073 5.12322 1.89673L0.936346 3.39673C0.752221 3.46311 0.649846 3.65961 0.701221 3.84861L1.80897 7.91061L1.37547 13.4505ZM14.7015 19.1846C13.3526 20.3261 11.5065 20.5669 9.88422 19.8109C9.53472 19.6481 9.18372 19.4115 8.81135 19.0871C7.29822 17.769 6.18635 16.0575 5.59535 14.1375L5.50985 13.8615C5.41122 13.5427 5.3321 13.287 5.26947 13.0459C5.37785 11.6782 5.9321 8.93998 8.58185 7.83336C9.4646 7.46473 10.4838 7.02523 11.5173 6.57336C12.4001 6.75973 17.9186 8.13036 18.3288 13.2634C18.2583 13.5266 18.1698 13.8094 18.0596 14.1551C17.4337 16.1164 16.2727 17.8552 14.7015 19.1846ZM19.2525 2.70486L22.425 3.97386L21.3877 7.77636C21.3787 7.80973 21.3742 7.84461 21.3746 7.87911L21.4387 13.4591C21.4008 14.145 21.1882 14.8159 20.8237 15.3986L19.9425 16.8086C19.8945 16.8855 19.8195 16.938 19.731 16.9571C19.6428 16.9766 19.5525 16.959 19.4771 16.9091C19.338 16.8165 19.2896 16.6339 19.3642 16.4846L19.8862 15.4406C20.1191 14.9749 20.2747 14.4769 20.3482 13.9612L20.6208 12.0532L19.8787 11.9471L19.6061 13.8555C19.5438 14.2912 19.4126 14.7116 19.2153 15.1054L18.6933 16.1494C18.4792 16.5772 18.576 17.0884 18.9101 17.4112L18.75 17.625C18.5017 17.9557 18.0307 18.0229 17.7 17.775L17.2672 17.4502C17.9126 16.5112 18.4237 15.4811 18.774 14.3835C18.7901 14.3325 18.8051 14.2856 18.8205 14.2365C18.9457 14.205 19.0511 14.112 19.0901 13.9811C19.1688 13.7149 20.9287 7.61698 18.4571 3.76498L19.2525 2.70486ZM17.6077 3.85348C19.278 6.10648 19.1295 9.51523 18.8017 11.6914C17.7678 8.18773 14.352 6.66261 12.5996 6.09786C14.8098 5.12211 16.8862 4.18123 17.6077 3.85348ZM6.30447 3.86698C7.5131 2.29686 9.42935 1.50073 12 1.50073C14.2166 1.50073 15.927 2.09248 17.0973 3.26136C15.6588 3.91423 11.22 5.91898 8.2931 7.14148C6.1871 8.02123 5.24435 9.78711 4.8251 11.2931C4.6106 9.11961 4.67172 5.98798 6.30447 3.86698ZM1.5161 3.98586L5.0501 2.71986L5.49485 3.70948C2.85897 7.55511 4.44222 13.7044 4.51272 13.9706C4.55397 14.1266 4.68972 14.2312 4.84385 14.2444L4.8791 14.358C5.2271 15.489 5.74947 16.5484 6.41397 17.511L5.86572 17.8654C5.5361 18.0776 5.09397 17.9989 4.85847 17.6854L4.6526 17.4109C4.98672 17.088 5.08347 16.5769 4.86935 16.149L4.34735 15.105C4.15047 14.7112 4.01922 14.2909 3.9566 13.8551L3.68397 11.9471L2.94185 12.0532L3.21447 13.9612C3.28797 14.4769 3.4436 14.9749 3.67647 15.4406L4.19847 16.4846C4.2731 16.6339 4.22472 16.8165 4.0856 16.9091C4.0106 16.9594 3.92022 16.9766 3.83172 16.9571C3.74322 16.938 3.66822 16.8855 3.62022 16.8086L2.73897 15.399C2.37897 14.823 2.1671 14.1611 2.12547 13.4835L2.56197 7.90423C2.56535 7.86111 2.56122 7.81798 2.54997 7.77636L1.5161 3.98586Z" fill="#103265"/>
</g>
<defs>
<clipPath id="clip0_9189_13019">
<rect width="24" height="24" fill="white"/>
</clipPath>
</defs>
</svg>
