<svg width="147" height="147" viewBox="0 0 147 147" fill="none" xmlns="http://www.w3.org/2000/svg">
<path d="M73.1 98.6001C87.1832 98.6001 98.6 87.1834 98.6 73.1001C98.6 59.0168 87.1832 47.6001 73.1 47.6001C59.0167 47.6001 47.6 59.0168 47.6 73.1001C47.6 87.1834 59.0167 98.6001 73.1 98.6001Z" stroke="#B3A7FF" stroke-width="3" stroke-miterlimit="10" stroke-linecap="round" stroke-linejoin="round"/>
<path d="M92.8 91.2002L95.9 94.3002" stroke="#B3A7FF" stroke-width="3" stroke-miterlimit="10" stroke-linecap="round" stroke-linejoin="round"/>
<path d="M113.9 112.3C115.3 110.9 115.3 108.8 113.9 107.4L100.8 94.3C99.4 92.9 97.3 92.9 95.9 94.3C94.5 95.7 94.5 97.8 95.9 99.2L109 112.3C110.4 113.7 112.6 113.7 113.9 112.3Z" stroke="#B3A7FF" stroke-width="3" stroke-miterlimit="10" stroke-linecap="round" stroke-linejoin="round"/>
<path d="M64.2 83C66.2 80.3 69.5 78.5 73.1 78.5C76.7 78.5 80 80.3 82 83" stroke="#B3A7FF" stroke-width="3" stroke-miterlimit="10" stroke-linecap="round" stroke-linejoin="round"/>
<path d="M83.2 68C82.5 69.3 81.1 70.1 79.5 70.1C77.9 70.1 76.5 69.2 75.8 68" stroke="#B3A7FF" stroke-width="3" stroke-miterlimit="10" stroke-linecap="round" stroke-linejoin="round"/>
<path d="M70.4 68C69.7 69.3 68.3 70.1 66.7 70.1C65.1 70.1 63.7 69.2 63 68" stroke="#B3A7FF" stroke-width="3" stroke-miterlimit="10" stroke-linecap="round" stroke-linejoin="round"/>
<path d="M73.1 144.7C112.644 144.7 144.7 112.644 144.7 73.1C144.7 33.5564 112.644 1.5 73.1 1.5C33.5564 1.5 1.5 33.5564 1.5 73.1C1.5 112.644 33.5564 144.7 73.1 144.7Z" stroke="#B3A7FF" stroke-width="3" stroke-miterlimit="10" stroke-linecap="round" stroke-linejoin="round"/>
<path fill-rule="evenodd" clip-rule="evenodd" d="M37.2 32C37.2 36.1 39 41.8 44.4 41.8C39.4 41.8 37.2 47.5 37.2 51.6C37.2 47.5 35.4 41.8 30 41.8C34.9 41.8 37.2 36.1 37.2 32Z" stroke="#B3A7FF" stroke-width="3" stroke-miterlimit="10" stroke-linecap="round" stroke-linejoin="round"/>
<path d="M56.3 112.4V114.4" stroke="#B3A7FF" stroke-width="3" stroke-miterlimit="10" stroke-linecap="round" stroke-linejoin="round"/>
<path d="M56.3 121.9V123.9" stroke="#B3A7FF" stroke-width="3" stroke-miterlimit="10" stroke-linecap="round" stroke-linejoin="round"/>
<path d="M50.5 118.2H52.5" stroke="#B3A7FF" stroke-width="3" stroke-miterlimit="10" stroke-linecap="round" stroke-linejoin="round"/>
<path d="M60 118.2H62.1" stroke="#B3A7FF" stroke-width="3" stroke-miterlimit="10" stroke-linecap="round" stroke-linejoin="round"/>
<path d="M31.5 62.7998V64.7998" stroke="#B3A7FF" stroke-width="3" stroke-miterlimit="10" stroke-linecap="round" stroke-linejoin="round"/>
<path d="M94 30.7333C94.6 30.2667 95.3333 30 96.1333 30C98.6 30 100.333 32.5333 99.6 34.8667C99.1333 36.2667 98 36.8 97 37C96 37.2 95.2667 38.1333 95.2667 39.2V40.2" stroke="#B3A7FF" stroke-width="3" stroke-miterlimit="10" stroke-linecap="round" stroke-linejoin="round"/>
<path d="M95 44L95.3333 44.0002" stroke="#B3A7FF" stroke-width="3" stroke-miterlimit="10" stroke-linecap="round" stroke-linejoin="round"/>
<path d="M31.5 72.2998V74.3998" stroke="#B3A7FF" stroke-width="3" stroke-miterlimit="10" stroke-linecap="round" stroke-linejoin="round"/>
<path d="M25.7 68.5996H27.7" stroke="#B3A7FF" stroke-width="3" stroke-miterlimit="10" stroke-linecap="round" stroke-linejoin="round"/>
<path d="M35.2 68.5996H37.2" stroke="#B3A7FF" stroke-width="3" stroke-miterlimit="10" stroke-linecap="round" stroke-linejoin="round"/>
<path d="M114.3 47.7002V51.0002" stroke="#B3A7FF" stroke-width="3" stroke-miterlimit="10" stroke-linecap="round" stroke-linejoin="round"/>
<path d="M114.3 63.2002V66.5002" stroke="#B3A7FF" stroke-width="3" stroke-miterlimit="10" stroke-linecap="round" stroke-linejoin="round"/>
<path d="M104.9 57.1001H108.2" stroke="#B3A7FF" stroke-width="3" stroke-miterlimit="10" stroke-linecap="round" stroke-linejoin="round"/>
<path d="M120.4 57.1001H123.7" stroke="#B3A7FF" stroke-width="3" stroke-miterlimit="10" stroke-linecap="round" stroke-linejoin="round"/>
</svg>
