<svg width="24" height="24" viewBox="0 0 24 24" fill="none" xmlns="http://www.w3.org/2000/svg">
<g clip-path="url(#clip0_9189_12239)">
<path d="M17.625 23.25C17.832 23.25 18 23.082 18 22.875V20.0287L20.5283 18.0472C20.8448 17.7952 21.2685 17.301 21.4343 16.908L23.2192 12.7582C23.2395 12.7117 23.25 12.6607 23.25 12.6097V8.9955C23.25 8.529 22.7213 8.18475 22.2105 8.1225C21.5775 8.04075 20.7817 8.385 20.4818 9.58275C20.3273 10.2045 20.2928 10.7302 20.262 11.1937C20.2478 11.4 20.4038 11.5942 20.6108 11.6077C20.8178 11.622 20.9955 11.4802 21.0082 11.274C21.039 10.8105 21.0713 10.3207 21.21 9.7635C21.3045 9.387 21.507 8.92425 21.9398 8.8665C22.2293 8.82525 22.4715 8.9805 22.5112 9.051L22.5 12.5325L20.7443 16.6147C20.6348 16.8765 20.2942 17.2747 20.0632 17.4592L17.3932 19.5517C17.3025 19.6222 17.25 19.731 17.25 19.8465V22.875C17.25 23.082 17.418 23.25 17.625 23.25Z" fill="#103265"/>
<path d="M6.375 23.25C6.168 23.25 6 23.082 6 22.875V20.0287L3.47175 18.0472C3.15525 17.7952 2.7315 17.301 2.56575 16.908L0.78075 12.7582C0.7605 12.7117 0.75 12.6607 0.75 12.6097V8.9955C0.75 8.529 1.27875 8.18475 1.7895 8.1225C2.4225 8.04075 3.21825 8.385 3.51825 9.58275C3.67275 10.2045 3.70725 10.7302 3.738 11.1937C3.75225 11.4 3.59625 11.5942 3.38925 11.6077C3.18225 11.622 3.0045 11.4802 2.99175 11.274C2.961 10.8105 2.92875 10.3207 2.79 9.7635C2.6955 9.387 2.493 8.92425 2.06025 8.8665C1.77075 8.82525 1.5285 8.9805 1.48875 9.051L1.5 12.5325L3.25575 16.6147C3.36525 16.8765 3.70575 17.2747 3.93675 17.4592L6.60675 19.5517C6.6975 19.6222 6.75 19.731 6.75 19.8465V22.875C6.75 23.082 6.582 23.25 6.375 23.25Z" fill="#103265"/>
<path d="M10.8748 23.25C10.6678 23.25 10.4998 23.082 10.4998 22.875V18.7778C10.4998 17.1975 9.4086 15.8198 7.8456 15.4268C7.6446 15.3765 7.5231 15.1725 7.57335 14.9715C7.6236 14.7713 7.82385 14.6468 8.0286 14.6993C9.9246 15.1763 11.2498 16.8533 11.2498 18.7778V22.875C11.2498 23.082 11.0818 23.25 10.8748 23.25Z" fill="#103265"/>
<path d="M6.5715 16.8127C6.4755 16.8127 6.3795 16.776 6.306 16.7032L3.01575 13.4182C2.94525 13.3477 2.90625 13.2525 2.90625 13.1527C2.90625 13.0537 2.946 12.9577 3.01575 12.8872C4.047 11.856 5.31825 11.943 6.5025 13.1272L8.19375 14.8147C8.34 14.961 8.34 15.1987 8.19375 15.345C8.0475 15.492 7.80975 15.4912 7.6635 15.3457L5.97225 13.6582C5.2035 12.8895 4.48425 12.7267 3.834 13.1752L6.8355 16.1722C6.98175 16.3185 6.98175 16.5562 6.8355 16.7032C6.7635 16.776 6.6675 16.8127 6.5715 16.8127Z" fill="#103265"/>
<path d="M13.125 23.25C12.918 23.25 12.75 23.082 12.75 22.875V18.7778C12.75 16.8533 14.0752 15.1763 15.9713 14.6993C16.1745 14.6468 16.3755 14.7713 16.4265 14.9715C16.476 15.1725 16.3545 15.3765 16.1542 15.4268C14.5912 15.8198 13.5 17.1975 13.5 18.7778V22.875C13.5 23.082 13.332 23.25 13.125 23.25Z" fill="#103265"/>
<path d="M17.4283 16.8127C17.3323 16.8127 17.2363 16.776 17.1628 16.7032C17.0165 16.5562 17.0165 16.3192 17.1628 16.1722L20.1643 13.1752C19.5148 12.7275 18.7948 12.8902 18.026 13.6582L16.3348 15.3457C16.1885 15.4912 15.9508 15.492 15.8045 15.345C15.6583 15.1987 15.6583 14.961 15.8045 14.8147L17.4958 13.1272C18.68 11.943 19.9513 11.856 20.9825 12.8872C21.053 12.9577 21.092 13.053 21.092 13.1527C21.092 13.2525 21.0523 13.3477 20.9825 13.4182L17.6923 16.7032C17.6203 16.776 17.5243 16.8127 17.4283 16.8127Z" fill="#103265"/>
<path d="M17.4283 16.8127C17.3323 16.8127 17.2363 16.776 17.1628 16.7032C17.0165 16.5562 17.0165 16.3192 17.1628 16.1722L20.1643 13.1752C19.5148 12.7275 18.7948 12.8902 18.026 13.6582L16.3348 15.3457C16.1885 15.4912 15.9508 15.492 15.8045 15.345C15.6583 15.1987 15.6583 14.961 15.8045 14.8147L17.4958 13.1272C18.68 11.943 19.9513 11.856 20.9825 12.8872C21.053 12.9577 21.092 13.053 21.092 13.1527C21.092 13.2525 21.0523 13.3477 20.9825 13.4182L17.6923 16.7032C17.6203 16.776 17.5243 16.8127 17.4283 16.8127Z" fill="#103265"/>
<path d="M13.6491 9.3368C13.4459 9.3368 13.2426 9.3203 13.0394 9.28655C12.0689 9.1253 11.2184 8.59505 10.6446 7.79255C10.0709 6.99005 9.84437 6.01355 10.0049 5.04305C10.1181 4.36505 10.7601 3.9038 11.4396 4.0178C12.1176 4.1303 12.5781 4.77455 12.4649 5.45255C12.4199 5.72255 12.4709 6.0023 12.6059 6.23855C12.7094 6.41855 12.6471 6.6473 12.4671 6.7508C12.2894 6.85205 12.0591 6.79205 11.9549 6.61205C11.7336 6.22655 11.6519 5.7713 11.7239 5.3303C11.7689 5.05955 11.5851 4.8023 11.3151 4.7573C11.0436 4.71455 10.7879 4.8953 10.7429 5.16605C10.6146 5.93855 10.7954 6.7163 11.2529 7.35605C11.7104 7.9958 12.3884 8.4188 13.1609 8.54705C13.3731 8.58155 13.5884 8.59505 13.7984 8.58305C14.0091 8.57855 14.1824 8.73155 14.1921 8.9378C14.2034 9.1448 14.0444 9.32105 13.8374 9.3323C13.7766 9.3353 13.7129 9.3368 13.6491 9.3368Z" fill="#103265"/>
<path d="M11.4643 14.4C11.1208 14.4 10.7555 14.367 10.3655 14.295C9.35152 14.1075 8.52427 13.524 8.03527 12.6502C7.69852 12.0495 7.41652 11.1097 7.60627 9.73275C7.46752 9.798 7.33177 9.8385 7.20052 9.87C6.68077 9.99525 5.93527 9.77625 5.50177 9.37275C5.17327 9.066 5.03002 8.66775 5.09977 8.2515C5.16052 7.89225 5.33752 7.6065 5.61202 7.42425C5.92477 7.21725 6.30052 7.1835 6.56227 7.19925C7.08577 5.81625 8.19052 5.139 9.44752 5.46C10.0018 5.60175 10.4525 5.9445 10.7503 6.45075C11.2925 7.371 11.2445 8.622 11.0188 9.48525C10.967 9.6855 10.7645 9.80475 10.562 9.75375C10.361 9.70125 10.241 9.4965 10.2943 9.29625C10.472 8.61075 10.5298 7.55475 10.1045 6.83175C9.90652 6.4965 9.62302 6.279 9.26152 6.18675C8.30827 5.9415 7.53502 6.516 7.18027 7.716C7.12327 7.9065 6.93052 8.019 6.73402 7.97475C6.61177 7.947 6.24277 7.9065 6.02527 8.052C5.96227 8.09475 5.87452 8.17425 5.84002 8.3775C5.82952 8.43825 5.79802 8.62425 6.01327 8.82525C6.30577 9.0975 6.80977 9.1935 7.02502 9.14175C7.29052 9.078 7.64377 8.9925 8.02402 8.04675C8.06677 7.92375 8.11177 7.7985 8.16127 7.671C8.23402 7.4805 8.44402 7.3815 8.63827 7.452C8.83027 7.521 8.93227 7.73025 8.86777 7.92375C8.82202 8.058 8.77702 8.1825 8.73052 8.29875C8.16277 9.945 8.14852 11.3175 8.69002 12.285C9.06802 12.96 9.71152 13.4122 10.5028 13.5585C13.8328 14.172 15.0898 11.574 15.839 10.02C16.0933 9.492 16.247 9.174 16.4645 9.01875C16.5313 8.9715 16.6633 8.8995 16.8425 8.805C17.735 8.33625 19.826 7.2375 20.0623 5.17875C20.261 3.4605 19.0198 1.83 17.2978 1.54425C16.4818 1.40775 15.6538 1.599 14.9765 2.08275C14.3 2.5665 13.8523 3.285 13.7158 4.1055C13.6963 4.266 13.5733 4.44975 13.415 4.48125C12.9208 4.5795 12.548 4.96125 12.4663 5.4525C12.383 5.95275 12.6305 6.45225 13.0828 6.696C13.265 6.79425 13.3333 7.0215 13.235 7.20375C13.136 7.386 12.9103 7.45425 12.7265 7.35675C11.9923 6.9615 11.5895 6.147 11.726 5.3295C11.8423 4.629 12.3425 4.0485 13.0063 3.81675C13.2035 2.87175 13.7435 2.0415 14.5393 1.473C15.3785 0.872247 16.4015 0.635247 17.42 0.803997C19.5298 1.15425 21.0493 3.15525 20.807 5.26425C20.5243 7.7175 18.1025 8.9895 17.1905 9.46875C17.054 9.54075 16.952 9.59175 16.9003 9.62775C16.8275 9.69525 16.6535 10.056 16.5133 10.3455C15.8563 11.709 14.5573 14.4 11.4643 14.4Z" fill="#103265"/>
</g>
<defs>
<clipPath id="clip0_9189_12239">
<rect width="24" height="24" fill="white"/>
</clipPath>
</defs>
</svg>
