<svg width="24" height="24" viewBox="0 0 24 24" fill="none" xmlns="http://www.w3.org/2000/svg">
<g clip-path="url(#clip0_9189_12212)">
<path d="M5.89209 5.90601C5.63334 5.90601 5.42334 6.11601 5.42334 6.37476C5.42334 6.63351 5.63334 6.84351 5.89209 6.84351C6.15084 6.84351 6.36084 6.63351 6.36084 6.37476C6.36084 6.11601 6.15084 5.90601 5.89209 5.90601Z" fill="#103265"/>
<path d="M10.1106 14.671H8.70445V13.2649C8.70445 13.006 8.49454 12.7961 8.2357 12.7961C7.97686 12.7961 7.767 13.006 7.767 13.2649V14.671H6.36084C6.102 14.671 5.89209 14.881 5.89209 15.1398C5.89209 15.3985 6.102 15.6085 6.36084 15.6085H7.767V17.0147C7.767 17.2735 7.9769 17.4834 8.2357 17.4834C8.4945 17.4834 8.70445 17.2735 8.70445 17.0147V15.6085H10.1106C10.3694 15.6085 10.5794 15.3986 10.5794 15.1398C10.5794 14.8809 10.3695 14.671 10.1106 14.671Z" fill="#103265"/>
<path d="M22.7613 15.093C21.7252 13.2983 19.4341 12.6841 17.6391 13.7205L15.7351 14.8198V10.7493C15.7351 10.2461 15.5687 9.74677 15.2664 9.34317L12.9228 6.21844V4.88784C13.4684 4.69434 13.8603 4.17338 13.8603 3.56227V1.40616C13.8602 0.630797 13.2294 0 12.454 0H4.01695C3.24159 0 2.61075 0.630797 2.61075 1.40616V3.56231C2.61075 4.17333 3.00267 4.69439 3.5482 4.88789V6.21848L1.2044 9.34341C0.902246 9.74681 0.73584 10.2461 0.73584 10.7493V19.8271C0.73584 21.1194 1.7872 22.1707 3.07945 22.1707H10.6124C11.6633 23.9325 13.9296 24.522 15.706 23.4963L21.3889 20.2152C23.1681 19.1878 23.8027 16.8975 22.7613 15.093ZM3.5482 1.40616C3.5482 1.14769 3.75848 0.937406 4.0169 0.937406H12.454C12.7124 0.937406 12.9227 1.14769 12.9227 1.40616V3.56231C12.9227 3.82078 12.7124 4.03102 12.454 4.03102H4.01695C3.75848 4.03102 3.54825 3.82073 3.54825 3.56231L3.5482 1.40616ZM1.95459 9.90558L4.3919 6.65592C4.45275 6.57483 4.48565 6.47611 4.48565 6.37467V4.96852H11.9853V5.90597L4.32332 5.90592C4.06447 5.90592 3.85457 6.11583 3.85457 6.37467C3.85457 6.63352 4.06447 6.84342 4.32332 6.84342L12.2197 6.84347L14.5162 9.90544C14.6663 10.1058 14.7595 10.3456 14.7877 10.5933H1.68328C1.7114 10.3455 1.80464 10.1058 1.95459 9.90558ZM3.0795 21.2333C2.30414 21.2333 1.67334 20.6025 1.67334 19.8271V19.3538H10.1894C10.0407 19.9615 10.0417 20.6106 10.2119 21.2333L3.0795 21.2333ZM10.557 18.4209H1.67329V11.5306H14.7976V15.3609L11.9561 17.0017C11.3637 17.3439 10.8848 17.8311 10.557 18.4209ZM15.2373 22.6845C13.8922 23.4612 12.1732 23.0018 11.396 21.6557C10.615 20.2966 11.0883 18.5855 12.425 17.8134L14.9692 16.3445L17.7816 21.2155L15.2373 22.6845ZM20.9202 19.4034L18.5934 20.7468L15.781 15.8757L18.1078 14.5324C19.4539 13.7553 21.1722 14.2155 21.9494 15.5617C22.7302 16.9146 22.2554 18.6323 20.9202 19.4034Z" fill="#103265"/>
</g>
<defs>
<clipPath id="clip0_9189_12212">
<rect width="24" height="24" fill="white"/>
</clipPath>
</defs>
</svg>
