<svg width="16" height="16" viewBox="0 0 16 16" fill="none" xmlns="http://www.w3.org/2000/svg">
<g clip-path="url(#clip0_9189_13572)">
<path d="M15.2117 5.09452C14.86 4.31644 14.3742 3.61452 13.768 3.00844C12.4349 1.67532 10.6622 0.940918 8.77663 0.940918C5.14879 0.940918 2.15247 3.69196 1.76159 7.21724L1.25695 6.7126C1.00719 6.46252 0.601909 6.46268 0.351989 6.7126C0.101909 6.96252 0.101909 7.3678 0.351989 7.61772L1.97439 9.24028C2.09439 9.36028 2.25727 9.4278 2.42687 9.4278C2.59647 9.4278 2.75935 9.36044 2.87935 9.24044L4.50191 7.61788C4.75199 7.3678 4.75199 6.96268 4.50191 6.71276C4.25215 6.46284 3.84655 6.46284 3.59695 6.71276L3.04607 7.26364C3.40927 4.4238 5.83983 2.22108 8.77679 2.22108C10.3203 2.22108 11.7715 2.8222 12.863 3.91372C13.3597 4.41036 13.7576 4.98508 14.0454 5.62188C14.384 6.371 14.5555 7.17116 14.5555 8.00012C14.5555 11.1867 11.9632 13.7792 8.77679 13.7792C7.23343 13.7792 5.78255 13.1784 4.69119 12.0873C4.44111 11.8374 4.03599 11.8376 3.78607 12.0875C3.53615 12.3374 3.53615 12.7427 3.78623 12.9926C5.11951 14.3252 6.89183 15.0592 8.77679 15.0592C12.6689 15.0592 15.8355 11.8924 15.8355 8.00012C15.8355 6.98796 15.6256 6.01052 15.2117 5.09452Z" fill="black"/>
<path d="M10.3999 11.2801C10.2362 11.2801 10.0722 11.2175 9.94741 11.0927L8.30581 9.45111C8.18581 9.33111 8.11829 9.16823 8.11829 8.99847V4.79991C8.11829 4.44647 8.40485 4.15991 8.75829 4.15991C9.11173 4.15991 9.39829 4.44647 9.39829 4.79991V8.73335L10.8524 10.1874C11.1024 10.4375 11.1024 10.8426 10.8524 11.0926C10.7276 11.2175 10.5636 11.2801 10.3999 11.2801Z" fill="black"/>
</g>
<defs>
<clipPath id="clip0_9189_13572">
<rect width="16" height="16" fill="white"/>
</clipPath>
</defs>
</svg>
