<svg width="24" height="24" viewBox="0 0 24 24" fill="none" xmlns="http://www.w3.org/2000/svg">
<g clip-path="url(#clip0_9189_12860)">
<path d="M22.875 22.5001H22.4662L21.8738 16.6051C21.7879 15.7299 21.5783 14.8713 21.2512 14.0551L18.8775 8.12631C19.1361 7.99669 19.3349 7.77241 19.4325 7.50006H22.875C22.9492 7.50034 23.0217 7.47833 23.0833 7.43687C23.1448 7.39541 23.1924 7.33642 23.22 7.26756C23.2487 7.19927 23.2566 7.124 23.2425 7.05125C23.2285 6.97851 23.1933 6.91154 23.1413 6.85881L22.9988 6.71631C22.6058 6.32334 22.1375 6.01381 21.622 5.80632C21.1065 5.59882 20.5544 5.49762 19.9988 5.50881L22.245 3.26631C22.297 3.21358 22.3323 3.14661 22.3463 3.07386C22.3603 3.00112 22.3525 2.92585 22.3237 2.85756C22.2962 2.78869 22.2485 2.72971 22.187 2.68825C22.1255 2.64679 22.0529 2.62478 21.9788 2.62506H21.0712C20.5779 2.62614 20.0908 2.73552 19.6444 2.94546C19.1979 3.1554 18.803 3.46079 18.4875 3.84006C18.495 3.72756 18.5025 3.61506 18.5025 3.50256C18.5438 2.48953 18.1902 1.50003 17.5163 0.74256C17.4452 0.672843 17.3496 0.633789 17.25 0.633789C17.1504 0.633789 17.0548 0.672843 16.9837 0.74256C16.3293 1.4905 15.9788 2.45647 16.0012 3.45006C15.6856 3.07496 15.2918 2.77326 14.8475 2.566C14.4032 2.35874 13.919 2.25092 13.4288 2.25006H12.5212C12.4471 2.24978 12.3745 2.27179 12.313 2.31325C12.2515 2.35471 12.2038 2.41369 12.1763 2.48256C12.1475 2.55085 12.1397 2.62612 12.1537 2.69886C12.1677 2.77161 12.203 2.83858 12.255 2.89131L13.9537 4.58631C13.1902 4.41206 12.3929 4.45889 11.655 4.72131L9.36 5.53506C9.28147 5.56241 9.21426 5.61508 9.16894 5.68479C9.12362 5.75451 9.10275 5.83731 9.10962 5.92018C9.11649 6.00305 9.15071 6.08128 9.20689 6.14258C9.26308 6.20388 9.33804 6.24477 9.42 6.25881L15.3937 7.30881C15.4372 7.57113 15.5721 7.80959 15.7746 7.98189C15.9771 8.15419 16.2341 8.2492 16.5 8.25006C16.5352 8.24837 16.5702 8.24461 16.605 8.23881L18.6413 14.0551C18.9627 14.9708 19.1263 15.9345 19.125 16.9051V22.5001H16.5V14.2501H16.875C16.9745 14.2501 17.0698 14.2106 17.1402 14.1402C17.2105 14.0699 17.25 13.9745 17.25 13.8751V13.4776C17.2515 12.8507 17.0778 12.2359 16.7485 11.7025C16.4192 11.1691 15.9474 10.7383 15.3862 10.4588L9.54375 7.54131C9.49182 7.5136 9.43386 7.49911 9.375 7.49911C9.31614 7.49911 9.25818 7.5136 9.20625 7.54131L3.36375 10.4588C2.80264 10.7383 2.3308 11.1691 2.00149 11.7025C1.67217 12.2359 1.49847 12.8507 1.5 13.4776V13.8751C1.5 13.9745 1.53951 14.0699 1.60984 14.1402C1.68016 14.2106 1.77554 14.2501 1.875 14.2501H2.25V22.5001H1.125C1.02554 22.5001 0.930161 22.5396 0.859835 22.6099C0.789509 22.6802 0.75 22.7756 0.75 22.8751C0.75 22.9745 0.789509 23.0699 0.859835 23.1402C0.930161 23.2106 1.02554 23.2501 1.125 23.2501H22.875C22.9745 23.2501 23.0698 23.2106 23.1402 23.1402C23.2105 23.0699 23.25 22.9745 23.25 22.8751C23.25 22.7756 23.2105 22.6802 23.1402 22.6099C23.0698 22.5396 22.9745 22.5001 22.875 22.5001ZM9.375 8.47506L11.4262 11.0363C11.7979 11.5031 12.0001 12.0822 12 12.6788V13.5001H6.75V12.6788C6.74987 12.0822 6.95214 11.5031 7.32375 11.0363L9.375 8.47506ZM2.25 13.5001V13.4776C2.24887 12.9899 2.38419 12.5116 2.64064 12.0967C2.8971 11.6819 3.26447 11.3471 3.70125 11.1301L8.01375 8.97381L6.73875 10.5676C6.2611 11.1677 6.00071 11.9118 6 12.6788V13.5001H2.25ZM7.5 22.5001H4.5V18.0001C4.5 17.6022 4.65804 17.2207 4.93934 16.9394C5.22064 16.6581 5.60218 16.5001 6 16.5001C6.39782 16.5001 6.77936 16.6581 7.06066 16.9394C7.34196 17.2207 7.5 17.6022 7.5 18.0001V22.5001ZM15.75 22.5001H8.25V18.0001C8.25 17.4033 8.01295 16.831 7.59099 16.4091C7.16903 15.9871 6.59674 15.7501 6 15.7501C5.40326 15.7501 4.83097 15.9871 4.40901 16.4091C3.98705 16.831 3.75 17.4033 3.75 18.0001V22.5001H3V14.2501H15.75V22.5001ZM12.75 13.5001V12.6788C12.7493 11.9118 12.4889 11.1677 12.0112 10.5676L10.7362 8.97381L15.0487 11.1301C15.4855 11.3471 15.8529 11.6819 16.1094 12.0967C16.3658 12.5116 16.5011 12.9899 16.5 13.4776V13.5001H12.75ZM21.8363 6.75006H19.4325C19.382 6.61385 19.307 6.48803 19.2113 6.37881C19.6509 6.25776 20.1107 6.22825 20.5623 6.29211C21.0138 6.35597 21.4474 6.51184 21.8363 6.75006ZM18.4538 5.82756C18.4986 5.1634 18.7937 4.54097 19.2795 4.08582C19.7653 3.63067 20.4056 3.37668 21.0712 3.37506L18.6975 5.74881C18.615 5.77881 18.5325 5.80881 18.45 5.84256L18.4538 5.82756ZM18.375 6.75006C18.4492 6.75006 18.5217 6.77205 18.5833 6.81326C18.645 6.85446 18.6931 6.91303 18.7215 6.98155C18.7498 7.05008 18.7573 7.12548 18.7428 7.19822C18.7283 7.27096 18.6926 7.33778 18.6402 7.39022C18.5877 7.44267 18.5209 7.47838 18.4482 7.49285C18.3754 7.50732 18.3 7.4999 18.2315 7.47151C18.163 7.44313 18.1044 7.39507 18.0632 7.3334C18.022 7.27173 18 7.19923 18 7.12506C18 7.0256 18.0395 6.93022 18.1098 6.85989C18.1802 6.78957 18.2755 6.75006 18.375 6.75006ZM17.25 1.60506C17.5938 2.17723 17.768 2.83524 17.7525 3.50256C17.7531 3.86087 17.7065 4.2177 17.6138 4.56381C17.4966 4.52354 17.3738 4.50203 17.25 4.50006C17.1245 4.50144 17.0003 4.52427 16.8825 4.56756C16.6076 3.57038 16.7397 2.50483 17.25 1.60506ZM15.525 6.57006L10.95 5.76381L11.9062 5.42631C12.5539 5.19665 13.2563 5.17056 13.9192 5.35154C14.5822 5.53252 15.1739 5.91191 15.615 6.43881C15.5816 6.48014 15.5515 6.52403 15.525 6.57006ZM13.4288 3.00006C14.0944 3.00168 14.7347 3.25567 15.2205 3.71082C15.7063 4.16597 16.0014 4.7884 16.0463 5.45256L16.0613 5.63256L13.4288 3.00006ZM16.5 7.50006C16.4258 7.50006 16.3533 7.47807 16.2917 7.43686C16.23 7.39566 16.1819 7.33709 16.1535 7.26857C16.1252 7.20004 16.1177 7.12464 16.1322 7.0519C16.1467 6.97916 16.1824 6.91234 16.2348 6.85989C16.2873 6.80745 16.3541 6.77173 16.4268 6.75727C16.4996 6.7428 16.575 6.75022 16.6435 6.7786C16.712 6.80699 16.7706 6.85505 16.8118 6.91672C16.853 6.97839 16.875 7.05089 16.875 7.12506C16.875 7.22452 16.8355 7.3199 16.7652 7.39022C16.6948 7.46055 16.5995 7.50006 16.5 7.50006ZM16.875 5.62506C16.875 5.55089 16.897 5.47839 16.9382 5.41672C16.9794 5.35505 17.038 5.30699 17.1065 5.2786C17.175 5.25022 17.2504 5.2428 17.3232 5.25727C17.3959 5.27173 17.4627 5.30745 17.5152 5.35989C17.5676 5.41234 17.6033 5.47916 17.6178 5.5519C17.6323 5.62464 17.6248 5.70004 17.5965 5.76857C17.5681 5.83709 17.52 5.89566 17.4583 5.93686C17.3967 5.97807 17.3242 6.00006 17.25 6.00006C17.1505 6.00006 17.0552 5.96055 16.9848 5.89022C16.9145 5.8199 16.875 5.72452 16.875 5.62506ZM19.875 22.5001V16.9051C19.8757 15.8504 19.6982 14.8031 19.35 13.8076L17.4037 8.25006H18.12L20.5538 14.3326C20.8549 15.084 21.0481 15.8744 21.1275 16.6801L21.7125 22.5001H19.875Z" fill="#103265"/>
<path d="M14.625 17.25H9.375C9.27554 17.25 9.18016 17.2895 9.10983 17.3598C9.03951 17.4302 9 17.5255 9 17.625V20.625C9 20.7245 9.03951 20.8198 9.10983 20.8902C9.18016 20.9605 9.27554 21 9.375 21H14.625C14.7245 21 14.8198 20.9605 14.8902 20.8902C14.9605 20.8198 15 20.7245 15 20.625V17.625C15 17.5255 14.9605 17.4302 14.8902 17.3598C14.8198 17.2895 14.7245 17.25 14.625 17.25ZM14.25 20.25H9.75V18H14.25V20.25Z" fill="#103265"/>
</g>
<defs>
<clipPath id="clip0_9189_12860">
<rect width="24" height="24" fill="white"/>
</clipPath>
</defs>
</svg>
