<svg width="24" height="24" viewBox="0 0 24 24" fill="none" xmlns="http://www.w3.org/2000/svg">
<path d="M19.5 6.9375V0.75C19.5 0.650544 19.4605 0.555161 19.3902 0.484835C19.3198 0.414509 19.2245 0.375 19.125 0.375C19.0255 0.375 18.9302 0.414509 18.8598 0.484835C18.7895 0.555161 18.75 0.650544 18.75 0.75V6.9375C18.7491 7.28664 18.6674 7.63084 18.5112 7.94312C18.3551 8.2554 18.1288 8.5273 17.85 8.7375L17.4 9.075C17.35 9.11228 17.3102 9.16143 17.284 9.218C17.2578 9.27457 17.2461 9.33678 17.25 9.399L17.9689 20.5421C17.9891 20.8519 17.9993 21.1688 17.9993 21.4834V21.75C17.9993 22.0484 17.8807 22.3345 17.6697 22.5455C17.4588 22.7565 17.1726 22.875 16.8743 22.875C16.5759 22.875 16.2897 22.7565 16.0788 22.5455C15.8678 22.3345 15.7493 22.0484 15.7493 21.75V21.4834C15.7493 21.1688 15.7594 20.8519 15.7796 20.5417L16.5 9.399C16.5039 9.33678 16.4922 9.27457 16.466 9.218C16.4398 9.16143 16.4 9.11228 16.35 9.075L15.9 8.7375C15.6212 8.5273 15.3949 8.2554 15.2388 7.94312C15.0826 7.63084 15.0009 7.28664 15 6.9375V0.75C15 0.650544 14.9605 0.555161 14.8902 0.484835C14.8198 0.414509 14.7245 0.375 14.625 0.375C14.5255 0.375 14.4302 0.414509 14.3598 0.484835C14.2895 0.555161 14.25 0.650544 14.25 0.75V6.9375C14.2511 7.40304 14.3601 7.86198 14.5683 8.27837C14.7764 8.69476 15.0782 9.05728 15.45 9.3375L15.7376 9.5535L15.0319 20.4934C15.0105 20.8196 15 21.1526 15 21.4834V21.75C15 22.2473 15.1975 22.7242 15.5492 23.0758C15.9008 23.4275 16.3777 23.625 16.875 23.625C17.3723 23.625 17.8492 23.4275 18.2008 23.0758C18.5525 22.7242 18.75 22.2473 18.75 21.75V21.4834C18.75 21.1526 18.7395 20.8196 18.7181 20.4934L18.0124 9.5535L18.3 9.3375C18.6718 9.05728 18.9736 8.69476 19.1817 8.27837C19.3899 7.86198 19.4989 7.40304 19.5 6.9375Z" fill="#103265"/>
<path d="M16.125 6.75C16.2245 6.75 16.3198 6.71049 16.3902 6.64017C16.4605 6.56984 16.5 6.47446 16.5 6.375V0.75C16.5 0.650544 16.4605 0.555161 16.3902 0.484835C16.3198 0.414509 16.2245 0.375 16.125 0.375C16.0255 0.375 15.9302 0.414509 15.8598 0.484835C15.7895 0.555161 15.75 0.650544 15.75 0.75V6.375C15.75 6.47446 15.7895 6.56984 15.8598 6.64017C15.9302 6.71049 16.0255 6.75 16.125 6.75Z" fill="#103265"/>
<path d="M17.625 6.75C17.7245 6.75 17.8198 6.71049 17.8902 6.64017C17.9605 6.56984 18 6.47446 18 6.375V0.75C18 0.650544 17.9605 0.555161 17.8902 0.484835C17.8198 0.414509 17.7245 0.375 17.625 0.375C17.5255 0.375 17.4302 0.414509 17.3598 0.484835C17.2895 0.555161 17.25 0.650544 17.25 0.75V6.375C17.25 6.47446 17.2895 6.56984 17.3598 6.64017C17.4302 6.71049 17.5255 6.75 17.625 6.75Z" fill="#103265"/>
<path d="M11.133 2.26089C10.9121 1.70302 10.5282 1.22467 10.0314 0.888259C9.53457 0.551846 8.94788 0.372987 8.34788 0.375017H8.15213C7.55212 0.372987 6.96544 0.551846 6.46861 0.888259C5.97178 1.22467 5.58789 1.70302 5.367 2.26089L5.27775 2.48327C4.76285 3.76746 4.49884 5.13844 4.5 6.52202V6.64502C4.50204 7.29631 4.71508 7.9294 5.1072 8.44943C5.49932 8.96946 6.04939 9.34842 6.675 9.52952L7.10513 9.65252L6.40688 20.4934C6.3855 20.8196 6.375 21.1526 6.375 21.4834V21.75C6.375 22.2473 6.57255 22.7242 6.92418 23.0758C7.27581 23.4275 7.75272 23.625 8.25 23.625C8.74728 23.625 9.2242 23.4275 9.57583 23.0758C9.92746 22.7242 10.125 22.2473 10.125 21.75V21.4834C10.125 21.1526 10.1145 20.8196 10.0931 20.4934L9.39375 9.65252L9.82388 9.52952C10.4497 9.34862 11 8.96975 11.3924 8.4497C11.7847 7.92966 11.9979 7.29645 12 6.64502V6.52202C12.0012 5.13844 11.7372 3.76746 11.2223 2.48327L11.133 2.26089ZM11.25 6.64502C11.2484 7.13357 11.0885 7.60845 10.7943 7.99848C10.5 8.38851 10.0873 8.67268 9.618 8.80839L8.89725 9.01464C8.81478 9.03796 8.74279 9.08881 8.69325 9.15875C8.64371 9.22869 8.61963 9.31348 8.625 9.39902L9.34388 20.5421C9.36413 20.8519 9.37425 21.1688 9.37425 21.4834V21.75C9.37425 22.0484 9.25573 22.3345 9.04475 22.5455C8.83377 22.7565 8.54762 22.875 8.24925 22.875C7.95089 22.875 7.66474 22.7565 7.45376 22.5455C7.24278 22.3345 7.12425 22.0484 7.12425 21.75V21.4834C7.12425 21.1688 7.13438 20.8519 7.15463 20.5418L7.875 9.39902C7.88042 9.31358 7.85644 9.22886 7.80705 9.15894C7.75766 9.08902 7.68583 9.0381 7.6035 9.01464L6.88275 8.80839C6.41328 8.67281 6.00041 8.3887 5.70604 7.99866C5.41167 7.60862 5.25166 7.13367 5.25 6.64502V6.52202C5.24873 5.23383 5.49468 3.95738 5.9745 2.76189L6.06338 2.53914C6.22907 2.1208 6.51699 1.7621 6.88959 1.50984C7.26219 1.25758 7.70217 1.12348 8.15213 1.12502H8.34788C8.79789 1.12346 9.23792 1.2576 9.61054 1.50993C9.98315 1.76227 10.271 2.12107 10.4366 2.53952L10.5255 2.76189C11.0053 3.95738 11.2513 5.23383 11.25 6.52202V6.64502Z" fill="#103265"/>
</svg>
