<?xml version="1.0" encoding="UTF-8"?>
<svg id="Layer_2" data-name="Layer 2" xmlns="http://www.w3.org/2000/svg" viewBox="0 0 142.15 189.88">
  <defs>
    <style>
      .cls-1 {
        fill: #424242;
      }
    </style>
  </defs>
  <g id="Layer_2-2" data-name="Layer 2">
    <g>
      <path class="cls-1" d="m32.87,48.24c-2.75-14.24.5-26.72,10.79-36.99C51.61,3.31,61.42-.39,72.65.03c24.21.9,42.25,23.64,36.64,48.17.24.01.46.04.69.04,1.46,0,2.92,0,4.38,0,4.47.02,7.92,3.46,7.92,7.92,0,3.64-.01,7.27.02,10.91,0,.39.16.85.41,1.14,5.07,5.74,10.15,11.47,15.26,17.17.56.63.82,1.24.82,2.1-.04,4.04,0,8.09-.02,12.13-.04,5.29-2.33,9.32-6.88,12.04-.35.21-.52.44-.49.85.03.38,0,.77,0,1.15,0,21.41,0,42.83,0,64.24v1.35c1.22,0,2.34,0,3.46,0,.96,0,1.91-.01,2.87,0,2.44.04,4.35,1.95,4.41,4.39.02.6.01,1.2,0,1.79-.05,2.39-1.85,4.27-4.24,4.43-.29.02-.57.02-.86.02-43.98,0-87.95,0-131.93,0-1.48,0-2.74-.39-3.86-1.41-1.69-1.56-1.72-6.49.17-8,.94-.75,1.93-1.22,3.13-1.22,1.77,0,3.54,0,5.31,0,.26,0,.52,0,.86,0,.02-.3.04-.55.04-.8,0-21.94,0-43.88.01-65.82,0-.48-.14-.76-.57-1.02-4.43-2.68-6.71-6.63-6.78-11.8-.06-4.28-.02-8.57,0-12.85,0-.38.19-.84.44-1.13,5.18-5.86,10.37-11.71,15.58-17.55.38-.43.53-.85.52-1.41-.02-3.54-.01-7.08,0-10.62,0-4.55,3.45-7.99,8-7.99,1.62,0,3.24,0,4.88,0Zm52.72,130.96v-1.02c0-13.23,0-26.46,0-39.69,0-2.19,1.39-3.6,3.58-3.6,7.9,0,15.79-.02,23.69.03.7,0,1.48.24,2.08.61,1.13.7,1.46,1.86,1.46,3.17-.01,13.16,0,26.32,0,39.48v1.02h9.58c.02-.26.04-.49.04-.72,0-21.41,0-42.83.01-64.24,0-.65-.16-.85-.83-.85-6.52,0-12.01-4.55-13.25-10.95-.06-.33-.13-.66-.19-.99-.58,3.35-1.99,6.21-4.5,8.47-2.53,2.29-5.52,3.46-8.95,3.49-3,.03-5.71-.82-8.12-2.59-3.19-2.35-4.96-5.56-5.51-9.6-1.27,6.69-4.93,11.2-11.65,11.98-8.58.99-13.54-3.57-15.51-11.7-1,7.15-6.67,11.39-12.16,11.86-3.67.31-6.98-.64-9.84-2.96-2.87-2.32-4.45-5.38-5.01-9.03-.52,3.56-2.06,6.53-4.78,8.85-2.72,2.32-5.92,3.3-9.44,3.21v65.78h69.32Zm-14.5-135.06c1.1-1.11,2.2-2.27,3.35-3.38,1.09-1.05,1.49-2.26,1.23-3.76-.5-2.87.33-5.34,2.39-7.4,2.2-2.2,4.4-4.4,6.6-6.6.8-.8,1.58-1.6,2.39-2.38.53-.52,1.17-.65,1.86-.39.65.24,1.08.76,1.02,1.42-.06.54-.32,1.17-.69,1.56-2.01,2.09-4.08,4.11-6.12,6.16-.75.75-.81,1.66-.19,2.29.64.64,1.51.58,2.28-.18,1.26-1.25,2.51-2.5,3.76-3.75.88-.88,1.75-1.77,2.65-2.63.59-.56,1.38-.62,2.05-.23.61.36.97,1.07.76,1.78-.11.39-.37.77-.66,1.07-2.01,2.05-4.05,4.07-6.08,6.1-.46.46-.81.96-.64,1.65.3,1.2,1.66,1.51,2.61.58,1.25-1.22,2.47-2.47,3.71-3.7.9-.9,1.78-1.8,2.69-2.69.54-.53,1.2-.69,1.92-.39.64.26,1.06.8.97,1.45-.07.54-.35,1.16-.73,1.55-2.84,2.91-5.75,5.76-8.61,8.65-2.15,2.17-4.7,3.03-7.71,2.49-1.34-.24-2.45.14-3.4,1.09-1.05,1.05-2.1,2.1-3.15,3.15-.14.14-.26.31-.54.63,5.69,5.67,11.35,11.3,16.99,16.91,9.89-7.72,15.45-21.75,11.07-35.85-4.32-13.94-17.14-23.54-31.92-23.42-15.18.12-27.96,9.98-31.96,24.5-3.89,14.15,2.12,27.54,11.09,34.52,5.63-5.63,11.26-11.26,16.95-16.95-1.24-1.24-2.53-2.51-3.81-3.8-.93-.93-2.03-1.28-3.33-1.14-.71.07-1.44.1-2.14.02-6.19-.72-11.96-6.2-13.06-12.36-1.04-5.84,2.86-9.86,8.7-8.97,2.73.42,5.1,1.63,7.14,3.44,3.67,3.25,5.94,7.15,5.42,12.28-.09.91.17,1.79.81,2.45,1.38,1.42,2.82,2.78,4.31,4.24Zm-16.17,24.12c5.25,2.89,10.9,4.31,16.94,4.18,5.42-.12,10.51-1.5,15.38-4.16-5.52-5.4-10.97-10.73-16.34-15.98-5.2,5.19-10.57,10.56-15.98,15.96Z"/>
      <path class="cls-1" d="m50.31,172.56c-7.01,0-14.02,0-21.03,0-1.82,0-2.55-.74-2.55-2.58,0-10.84,0-21.68,0-32.52,0-1.85.72-2.57,2.55-2.57,14,0,28,0,41.99,0,1.77,0,2.49.71,2.49,2.47,0,10.91,0,21.82,0,32.73,0,1.75-.72,2.47-2.49,2.47-6.99,0-13.97,0-20.96,0Z"/>
    </g>
  </g>
</svg>