<svg width="21" height="20" viewBox="0 0 21 20" fill="none" xmlns="http://www.w3.org/2000/svg">
<path d="M3.83334 5.83325V4.99992C3.83334 4.55789 4.00893 4.13397 4.32149 3.82141C4.63405 3.50885 5.05798 3.33325 5.5 3.33325H7.16667" stroke="#9BA4D0" stroke-width="2" stroke-linecap="round" stroke-linejoin="round"/>
<path d="M3.83334 14.1665V14.9998C3.83334 15.4419 4.00893 15.8658 4.32149 16.1783C4.63405 16.4909 5.05798 16.6665 5.5 16.6665H7.16667" stroke="#9BA4D0" stroke-width="2" stroke-linecap="round" stroke-linejoin="round"/>
<path d="M13.8333 3.33325H15.5C15.942 3.33325 16.366 3.50885 16.6785 3.82141C16.9911 4.13397 17.1667 4.55789 17.1667 4.99992V5.83325" stroke="#9BA4D0" stroke-width="2" stroke-linecap="round" stroke-linejoin="round"/>
<path d="M13.8333 16.6665H15.5C15.942 16.6665 16.366 16.4909 16.6785 16.1783C16.9911 15.8658 17.1667 15.4419 17.1667 14.9998V14.1665" stroke="#9BA4D0" stroke-width="2" stroke-linecap="round" stroke-linejoin="round"/>
<path d="M4.66667 10H16.3333" stroke="#9BA4D0" stroke-width="2" stroke-linecap="round" stroke-linejoin="round"/>
</svg>
