<?xml version="1.0" standalone="no"?>
<!DOCTYPE svg PUBLIC "-//W3C//DTD SVG 20010904//EN"
 "http://www.w3.org/TR/2001/REC-SVG-20010904/DTD/svg10.dtd">
<svg version="1.0" xmlns="http://www.w3.org/2000/svg"
 width="500.000000pt" height="500.000000pt" viewBox="0 0 500.000000 500.000000"
 preserveAspectRatio="xMidYMid meet">

<g transform="translate(0.000000,500.000000) scale(0.100000,-0.100000)"
fill="#000000" stroke="none">
<path d="M1783 4726 c-197 -45 -345 -194 -415 -416 -33 -106 -33 -290 0 -405
56 -194 184 -382 441 -647 127 -132 151 -146 185 -112 31 31 17 54 -107 183
-121 125 -242 268 -306 364 -150 222 -175 479 -69 697 115 235 407 312 678
179 72 -35 101 -58 193 -150 59 -60 112 -109 118 -109 6 0 23 13 37 28 15 16
54 57 87 92 146 154 338 227 522 200 249 -37 403 -237 403 -521 0 -121 -20
-203 -75 -314 -114 -227 -417 -555 -907 -978 l-66 -58 -129 110 c-70 61 -135
111 -144 111 -22 0 -46 -21 -54 -48 -8 -27 8 -44 187 -194 79 -67 123 -98 141
-98 50 0 547 449 764 691 281 313 379 498 390 735 7 140 -12 234 -72 360 -105
217 -303 327 -560 311 -174 -11 -312 -76 -457 -215 l-67 -65 -79 74 c-148 138
-284 198 -467 205 -73 2 -131 -1 -172 -10z"/>
<path d="M3670 2497 c-36 -13 -171 -65 -300 -115 l-236 -92 -679 86 c-374 47
-708 86 -741 86 -54 0 -127 -21 -565 -167 -277 -92 -510 -172 -516 -178 -20
-15 -15 -62 8 -83 20 -18 28 -16 527 150 341 114 520 169 547 168 22 0 368
-42 770 -92 577 -72 734 -95 748 -108 16 -14 18 -29 15 -91 -5 -99 -14 -106
-155 -115 -59 -4 -314 -8 -566 -8 -455 -1 -459 -1 -472 -22 -19 -29 -9 -62 23
-75 15 -5 92 -12 172 -14 l145 -4 225 -121 c124 -67 235 -122 247 -122 11 0
309 176 662 390 353 215 645 390 651 390 65 0 114 -120 77 -188 -13 -22 -1338
-997 -1412 -1038 -22 -12 -72 -30 -110 -39 l-70 -17 -434 141 c-238 78 -441
141 -451 141 -20 0 -50 -31 -50 -52 0 -40 39 -57 440 -186 223 -72 427 -136
455 -142 57 -13 163 6 250 45 49 21 1367 977 1433 1039 70 65 89 147 57 254
-20 66 -63 116 -120 138 -63 24 -111 14 -198 -40 -80 -50 -87 -53 -87 -33 0
22 -61 87 -101 107 -62 32 -115 34 -189 7z m162 -125 c53 -54 54 -53 -207
-213 -132 -81 -245 -148 -250 -148 -7 -1 -10 30 -10 78 0 68 -3 84 -24 111
-12 18 -19 36 -15 40 5 5 101 45 214 90 224 88 244 91 292 42z m-753 -545
c-20 -17 -208 -127 -217 -127 -6 0 -62 28 -124 63 l-113 62 225 5 c215 5 239
4 229 -3z"/>
<path d="M1115 1526 c-62 -21 -478 -225 -487 -239 -5 -7 -7 -25 -6 -42 2 -22
10 -32 31 -39 24 -9 54 3 265 107 177 88 246 118 274 117 21 0 80 -13 131 -30
114 -37 132 -37 153 -5 31 47 9 69 -103 105 -113 37 -200 46 -258 26z"/>
</g>
</svg>
