<svg width="66" height="66" viewBox="0 0 66 66" fill="none" xmlns="http://www.w3.org/2000/svg">
<path d="M33 60.5C48.1878 60.5 60.5 48.1878 60.5 33C60.5 17.8122 48.1878 5.5 33 5.5C17.8122 5.5 5.5 17.8122 5.5 33C5.5 48.1878 17.8122 60.5 33 60.5Z" stroke="white" stroke-width="2" stroke-linecap="round" stroke-linejoin="round"/>
<path d="M22 24.8875V24.6125" stroke="white" stroke-width="2" stroke-linecap="round" stroke-linejoin="round"/>
<path d="M44 24.8875V24.6125" stroke="white" stroke-width="2" stroke-linecap="round" stroke-linejoin="round"/>
<path d="M33 49.5C35.9174 49.5 38.7153 48.3411 40.7782 46.2782C42.8411 44.2153 44 41.4174 44 38.5H22C22 41.4174 23.1589 44.2153 25.2218 46.2782C27.2847 48.3411 30.0826 49.5 33 49.5Z" stroke="white" stroke-width="2" stroke-linecap="round" stroke-linejoin="round"/>
</svg>
