<svg width="24" height="24" viewBox="0 0 24 24" fill="none" xmlns="http://www.w3.org/2000/svg">
<g clip-path="url(#clip0_9189_12499)">
<path d="M20.6944 2.40464C18.7899 1.52836 16.3169 2.81606 15.1815 5.27499C14.5385 6.66745 14.4326 8.17861 14.8911 9.42099C15.2192 10.3099 15.8019 10.9681 16.5766 11.3245C16.9766 11.5076 17.4117 11.6014 17.8516 11.5995C19.4735 11.5995 21.1958 10.3896 22.0895 8.45414C22.7325 7.06167 22.8383 5.55047 22.3799 4.30814C22.0519 3.41944 21.4691 2.76122 20.6944 2.40464ZM20.7069 3.04767C21.1009 3.29158 21.4235 3.63507 21.6423 4.04349L21.555 4.23239L20.4045 3.70308L20.7069 3.04767ZM16.7322 7.29253L17.1666 6.35185L18.3172 6.88125L17.8829 7.82194L16.7322 7.29253ZM17.6471 8.33264L17.2127 9.27328L16.0621 8.74388L16.4964 7.80324L17.6471 8.33264ZM17.4023 5.84119L17.8367 4.9005L18.9874 5.42991L18.5529 6.37078L17.4023 5.84119ZM18.8282 7.11619L19.9789 7.6456L19.5446 8.58628L18.3939 8.05688L18.8282 7.11619ZM19.0641 6.60525L19.4984 5.66461L20.6491 6.19402L20.2147 7.1347L19.0641 6.60525ZM19.7342 5.15452L20.1685 4.21402L21.3192 4.74342L20.8849 5.68406L19.7342 5.15452ZM18.8295 2.75039C19.0201 2.71076 19.2141 2.69044 19.4087 2.68974C19.6759 2.68896 19.9416 2.73054 20.1958 2.81292L19.8936 3.4681L18.7426 2.93864L18.8295 2.75039ZM18.5068 3.44935L19.6575 3.97875L19.2233 4.91944L18.0725 4.39003L18.5068 3.44935ZM17.817 3.13191L17.9959 3.21422L17.5616 4.15491L16.8712 3.83728C17.1546 3.56221 17.4725 3.3251 17.817 3.13191ZM16.4692 4.27153L17.3257 4.66561L16.8914 5.6062L15.8798 5.14078C16.0486 4.83324 16.246 4.54221 16.4692 4.27153ZM15.632 5.646L16.6555 6.11714L16.2212 7.05783L15.3056 6.63656C15.3842 6.29718 15.4934 5.96563 15.632 5.646ZM15.2073 8.35069C15.1606 7.97178 15.1601 7.58859 15.2059 7.20956L15.9854 7.5682L15.5511 8.50889L15.2073 8.35069ZM16.5629 10.6808C16.169 10.4366 15.8466 10.0929 15.6279 9.68433L15.8263 9.25477L16.977 9.78417L16.5629 10.6808ZM18.4394 10.98C17.9864 11.078 17.5157 11.0559 17.0738 10.916L17.4879 10.0192L18.6386 10.5486L18.4394 10.98ZM18.8744 10.0378L17.7237 9.5086L18.1581 8.56791L19.3088 9.09731L18.8744 10.0378ZM19.7288 10.431L19.3854 10.2729L19.8197 9.33225L20.5983 9.69042C20.339 9.97105 20.0471 10.2197 19.7288 10.4311V10.431ZM20.971 9.24286L20.0556 8.82183L20.4899 7.88114L21.5147 8.35261C21.3611 8.66537 21.1792 8.96342 20.9713 9.24305L20.971 9.24286ZM21.7389 7.83661L20.7255 7.3703L21.1598 6.42961L22.0197 6.82528C21.958 7.17044 21.864 7.50905 21.7392 7.83671L21.7389 7.83661ZM22.0898 6.23817L21.3956 5.91881L21.83 4.97817L22.0106 5.06124C22.0887 5.44842 22.1154 5.84423 22.09 6.23841L22.0898 6.23817Z" fill="#103265"/>
<path d="M21.2291 1.24728C18.7901 0.125191 15.6425 1.73202 14.2125 4.82928C13.4113 6.5646 13.2831 8.45793 13.8609 10.0237C14.158 10.8287 14.619 11.4868 15.2144 11.9678L14.097 14.388L13.9757 14.3621C13.8437 14.3338 13.7096 14.3163 13.5748 14.3097L13.3698 14.0126C13.2037 13.7723 13.1325 13.479 13.17 13.1893C13.2252 12.7619 13.1202 12.3292 12.8752 11.9747L6.6916 3.0148C6.42004 2.62283 6.00429 2.35436 5.5353 2.26814C5.06631 2.18192 4.58226 2.28496 4.18904 2.55472C3.99446 2.68839 3.82815 2.85913 3.69963 3.05715C3.57111 3.25518 3.48291 3.47661 3.44007 3.70876C3.39724 3.94092 3.40061 4.17924 3.45 4.41009C3.49939 4.64094 3.59382 4.85979 3.72789 5.0541L7.34401 10.2938C6.32821 10.1072 5.28145 10.186 4.30502 10.5226C3.3286 10.8591 2.45556 11.4419 1.77038 12.2147C1.08521 12.9875 0.6111 13.9241 0.393926 14.9338C0.176753 15.9435 0.223869 16.9921 0.530716 17.9783C0.837564 18.9644 1.39375 19.8547 2.14547 20.5629C2.89718 21.2711 3.81897 21.7733 4.82164 22.0209C5.82432 22.2685 6.87392 22.2532 7.8689 21.9763C8.86389 21.6994 9.77055 21.1704 10.5012 20.4404C10.5441 20.3976 10.5859 20.3541 10.6273 20.3103C10.4946 20.6886 10.4725 21.0968 10.5638 21.4871C10.6551 21.8775 10.8558 22.2336 11.1425 22.5138C11.4291 22.794 11.7898 22.9865 12.1821 23.0688C12.5744 23.1511 12.9821 23.1198 13.3572 22.9784C13.7323 22.8371 14.0593 22.5916 14.2997 22.2709C14.5401 21.9501 14.684 21.5674 14.7145 21.1677C14.7449 20.768 14.6607 20.368 14.4717 20.0145C14.2827 19.661 13.9967 19.3688 13.6473 19.1722L14.1017 19.266L14.6083 19.5404L15.8703 21.3692L15.8334 21.3945C15.7637 21.4424 15.7041 21.5036 15.6581 21.5746C15.6121 21.6455 15.5805 21.7248 15.5652 21.808C15.5499 21.8911 15.5511 21.9765 15.5688 22.0592C15.5865 22.1419 15.6203 22.2202 15.6683 22.2898C15.8663 22.5758 16.1696 22.7717 16.5117 22.8347C16.8538 22.8976 17.2069 22.8225 17.4937 22.6257L18.2334 22.117C18.3882 22.0104 18.5183 21.8718 18.6149 21.7106L18.929 21.8807C19.2486 22.0543 19.6227 22.0981 19.9738 22.0031L21.196 21.6742C21.2694 21.6545 21.3369 21.6174 21.3929 21.566C21.4488 21.5146 21.4915 21.4504 21.5174 21.379C21.5432 21.3076 21.5514 21.2309 21.5413 21.1557C21.5312 21.0804 21.503 21.0086 21.4592 20.9466L20.5313 19.6309L22.2673 18.8974C22.2692 18.8966 22.2712 18.8957 22.2731 18.8948C22.3442 18.8629 22.4063 18.8139 22.4538 18.7522C22.5014 18.6904 22.5329 18.6178 22.5455 18.5409C22.5582 18.464 22.5515 18.3852 22.5263 18.3115C22.501 18.2377 22.4579 18.1714 22.4007 18.1184L21.1621 16.9086L22.5217 16.042C22.5863 16.0009 22.6398 15.9447 22.6778 15.8782C22.7158 15.8118 22.7371 15.7371 22.7397 15.6606C22.7424 15.5841 22.7264 15.5081 22.6932 15.4392C22.6599 15.3702 22.6104 15.3104 22.5489 15.2649L21.5469 14.5229C21.274 14.3206 20.9376 14.2232 20.5989 14.2482L16.1598 14.5348L16.9723 12.7751C17.2123 12.8185 17.4556 12.8402 17.6994 12.84C19.7623 12.84 21.9386 11.3278 23.0595 8.90038C23.8608 7.16507 23.9889 5.27174 23.4111 3.70597C22.9875 2.55941 22.2333 1.70933 21.2291 1.24728ZM13.5993 14.8752L12.8334 18.4456C12.5769 18.4175 12.2089 18.3472 11.9719 18.0483C12.1654 17.4495 12.2636 16.8241 12.2629 16.1948C12.2628 15.9768 12.251 15.759 12.2276 15.5422C12.3737 15.1014 12.9596 14.8266 13.5993 14.8752ZM12.3323 18.92C12.0005 18.9647 11.6843 19.0882 11.4102 19.2804C11.5379 19.0688 11.6521 18.8495 11.7524 18.6237C11.9241 18.7601 12.1212 18.8608 12.3323 18.92ZM7.1461 10.8299C7.49168 10.887 7.83097 10.9772 8.15931 11.0991C8.21943 11.1217 8.28548 11.1231 8.34648 11.103C8.40748 11.0828 8.45975 11.0424 8.49461 10.9885C8.51731 10.9532 8.53184 10.913 8.53713 10.8714C8.54243 10.8298 8.53835 10.7875 8.52519 10.7477C8.51204 10.7079 8.49014 10.6715 8.46111 10.6412C8.43208 10.6109 8.39664 10.5875 8.3574 10.5727C8.29712 10.5503 8.23646 10.5292 8.17562 10.5088L4.19087 4.73441C4.0988 4.60096 4.03395 4.45066 4.00004 4.29212C3.96613 4.13358 3.96382 3.9699 3.99326 3.81047C4.02269 3.65103 4.08329 3.49897 4.17157 3.36298C4.25985 3.227 4.37409 3.10976 4.50775 3.01799C4.77814 2.83252 5.11098 2.76168 5.43347 2.82095C5.75596 2.88023 6.04185 3.0648 6.22862 3.3343L12.4119 12.2942C12.578 12.5345 12.6492 12.8278 12.6117 13.1175C12.5565 13.5449 12.6615 13.9776 12.9065 14.3321L12.9293 14.3649C12.6215 14.4311 12.3348 14.5723 12.0946 14.7759C11.835 13.7044 11.2834 12.7259 10.5012 11.949C10.3846 11.8326 10.2645 11.7221 10.1408 11.6175C10.1127 11.5924 10.0799 11.5733 10.0443 11.5611C10.0088 11.549 9.9711 11.5441 9.93359 11.5467C9.89609 11.5494 9.85949 11.5595 9.82597 11.5766C9.79245 11.5936 9.76269 11.6172 9.73844 11.6459C9.7142 11.6747 9.69597 11.708 9.68482 11.7439C9.67367 11.7798 9.66984 11.8176 9.67355 11.855C9.67726 11.8924 9.68844 11.9287 9.70642 11.9618C9.72439 11.9948 9.74881 12.0239 9.77823 12.0473C9.81892 12.0818 9.85876 12.1176 9.89865 12.1538L8.02407 14.025C7.64656 13.593 7.37152 13.0812 7.2195 12.5279C7.06747 11.9747 7.04238 11.3942 7.1461 10.8299ZM11.6268 15.2979C11.0612 15.4021 10.4794 15.3776 9.92458 15.226C9.36979 15.0745 8.85628 14.7998 8.42223 14.4225L10.2972 12.5507C10.9959 13.3192 11.4576 14.2732 11.6268 15.2979ZM6.24845 10.7559C6.36114 10.7559 6.47376 10.7594 6.58632 10.7665C6.47254 11.4149 6.50686 12.0807 6.68672 12.7139C6.86658 13.3472 7.18731 13.9316 7.62493 14.4235L6.24845 15.7974L2.59782 12.1534C3.5996 11.2515 4.90049 10.7535 6.24845 10.7559ZM0.796886 16.1948C0.793242 14.8476 1.29371 13.5477 2.1999 12.5507L5.85053 16.1948L4.48178 17.5611C3.98419 17.1272 3.3964 16.8092 2.76091 16.6303C2.12542 16.4513 1.4581 16.4158 0.807199 16.5263C0.800589 16.4164 0.796886 16.3059 0.796886 16.1948ZM0.869496 17.0855C1.43633 16.9795 2.01978 17.0031 2.57622 17.1544C3.13266 17.3058 3.64769 17.5809 4.08282 17.9593L2.19981 19.839C1.49976 19.0689 1.03771 18.1125 0.869496 17.0855ZM5.35736 21.5608C4.32949 21.3933 3.37157 20.9334 2.59801 20.2362L4.48107 18.3565C4.85976 18.7897 5.13534 19.3031 5.28711 19.8581C5.43889 20.4132 5.4629 20.9952 5.35736 21.5608ZM5.91662 21.6232C6.02659 20.9737 5.99059 20.3079 5.81123 19.674C5.63188 19.0401 5.31367 18.4542 4.8797 17.9585L6.24845 16.5922L9.89907 20.2363C9.36077 20.7206 8.73132 21.0927 8.04752 21.3309C7.36373 21.5691 6.63931 21.6683 5.91662 21.6232ZM10.2974 19.8388L6.64689 16.1948L8.02384 14.8204C8.82475 15.5309 9.85828 15.9234 10.929 15.9235C11.184 15.9232 11.4385 15.9012 11.6897 15.8575C11.6965 15.9694 11.7004 16.0818 11.7004 16.195C11.704 17.5422 11.2035 18.8418 10.2974 19.8388ZM14.1581 21.0065C14.1581 21.3118 14.0675 21.6102 13.8979 21.864C13.7283 22.1179 13.4873 22.3157 13.2052 22.4325C12.9232 22.5493 12.6128 22.5799 12.3134 22.5203C12.014 22.4608 11.739 22.3138 11.5231 22.0979C11.3072 21.882 11.1602 21.607 11.1007 21.3076C11.0411 21.0082 11.0717 20.6978 11.1885 20.4158C11.3053 20.1337 11.5031 19.8927 11.757 19.7231C12.0108 19.5535 12.3092 19.4629 12.6145 19.4629C13.0238 19.4634 13.4162 19.6261 13.7055 19.9156C13.9949 20.205 14.1577 20.5972 14.1581 21.0065ZM13.9839 18.6657L13.3888 18.5385L14.1529 14.9754L14.748 15.1026L13.9839 18.6657ZM15.6998 20.1316L16.8019 20.7286L16.3338 21.0504L15.6998 20.1316ZM17.9147 21.6536L17.175 22.1622C17.011 22.2746 16.8092 22.3176 16.6136 22.2817C16.418 22.2457 16.2446 22.1338 16.1313 21.9704C16.1252 21.9617 16.121 21.9518 16.1187 21.9414C16.1165 21.931 16.1163 21.9203 16.1183 21.9098C16.1202 21.8994 16.1242 21.8894 16.13 21.8805C16.1358 21.8716 16.1433 21.8639 16.1521 21.8579L17.3572 21.0292L18.1191 21.4417C18.0656 21.5251 17.9962 21.5972 17.9147 21.6536ZM20.9247 21.1648L19.8275 21.4601C19.6156 21.5175 19.3897 21.491 19.1968 21.3861L14.5191 18.8525L14.7301 17.8681L19.7462 19.6869C19.8649 19.7297 19.9675 19.808 20.0401 19.9112L20.9247 21.1648ZM21.9184 18.4342L20.0691 19.2155L14.8493 17.3129L14.9699 16.7504L20.4385 17.1489C20.49 17.1487 20.5414 17.1452 20.5924 17.1384L21.9184 18.4342ZM20.6378 14.8095C20.8428 14.7939 21.0466 14.8527 21.2118 14.9752L22.1079 15.6387L20.7723 16.4899C20.6599 16.5613 20.5275 16.5947 20.3946 16.5851L15.0891 16.1953L15.3126 15.1531L20.6378 14.8095ZM15.5208 14.5761L15.1029 14.6031L14.6605 14.5086L15.683 12.2941C15.7994 12.363 15.9193 12.4258 16.0422 12.4824C16.165 12.5387 16.2906 12.5887 16.4185 12.6319L15.5208 14.5761ZM22.5484 8.6646C21.2481 11.4806 18.4351 12.964 16.2774 11.9713C15.4118 11.5729 14.7586 10.8323 14.3883 9.82916C13.8618 8.40238 13.9838 6.66599 14.7229 5.06521C15.7492 2.84253 17.718 1.45007 19.5631 1.45007C20.0568 1.4478 20.545 1.55304 20.9939 1.75846C21.8595 2.15689 22.5127 2.89752 22.883 3.90064C23.4094 5.32743 23.2875 7.06382 22.5484 8.6646Z" fill="#103265"/>
<path d="M5.07315 3.99809L5.01957 3.91765C4.99937 3.88632 4.97314 3.85932 4.94241 3.83821C4.91167 3.81711 4.87705 3.80233 4.84056 3.79473C4.80406 3.78713 4.76642 3.78686 4.72981 3.79393C4.69321 3.80101 4.65838 3.81529 4.62735 3.83595C4.59632 3.85661 4.5697 3.88323 4.54905 3.91427C4.5284 3.9453 4.51412 3.98014 4.50706 4.01674C4.49999 4.05334 4.50027 4.09099 4.50788 4.12748C4.51549 4.16397 4.53027 4.19859 4.55138 4.22932L4.60491 4.30976C4.62523 4.34085 4.65149 4.36761 4.6822 4.3885C4.71291 4.40938 4.74745 4.42398 4.78383 4.43145C4.82021 4.43891 4.85771 4.4391 4.89416 4.432C4.93061 4.42489 4.9653 4.41064 4.99622 4.39006C5.02713 4.36949 5.05366 4.34299 5.07429 4.3121C5.09491 4.28121 5.10921 4.24655 5.11636 4.21011C5.12351 4.17366 5.12337 4.13616 5.11596 4.09977C5.10854 4.06338 5.09399 4.02882 5.07315 3.99809Z" fill="#103265"/>
<path d="M5.54781 4.71193C5.5061 4.65074 5.44193 4.60848 5.36924 4.59431C5.29655 4.58014 5.22121 4.59521 5.15956 4.63625C5.09792 4.6773 5.05495 4.741 5.03998 4.81353C5.02502 4.88606 5.03926 4.96156 5.07963 5.02365L7.08428 8.03509C7.10449 8.06642 7.13072 8.09342 7.16145 8.11452C7.19218 8.13562 7.2268 8.15041 7.2633 8.15801C7.29979 8.16561 7.33744 8.16588 7.37404 8.1588C7.41064 8.15173 7.44547 8.13745 7.4765 8.11679C7.50753 8.09613 7.53415 8.06951 7.5548 8.03847C7.57545 8.00743 7.58973 7.9726 7.5968 7.936C7.60387 7.8994 7.60359 7.86175 7.59598 7.82526C7.58837 7.78876 7.57358 7.75415 7.55247 7.72342L5.54781 4.71193Z" fill="#103265"/>
</g>
<defs>
<clipPath id="clip0_9189_12499">
<rect width="24" height="24" fill="white"/>
</clipPath>
</defs>
</svg>
