<svg width="121" height="120" viewBox="0 0 121 120" fill="none" xmlns="http://www.w3.org/2000/svg">
<path d="M108.765 27.0703C110.058 27.0703 111.108 28.1203 111.108 29.4141C111.108 30.7078 110.058 31.7578 108.765 31.7578C107.471 31.7578 106.421 30.7078 106.421 29.4141C106.421 28.1203 107.471 27.0703 108.765 27.0703Z" fill="#56CCF2"/>
<path d="M108.765 88.0078C110.058 88.0078 111.108 89.0578 111.108 90.3516C111.108 91.6453 110.058 92.6953 108.765 92.6953C107.471 92.6953 106.421 91.6453 106.421 90.3516C106.421 89.0578 107.471 88.0078 108.765 88.0078Z" fill="#56CCF2"/>
<path d="M97.0459 102.07C99.6357 102.07 101.733 104.168 101.733 106.758C101.733 109.348 99.6357 111.445 97.0459 111.445C94.4561 111.445 92.3584 109.348 92.3584 106.758C92.3584 104.168 94.4561 102.07 97.0459 102.07Z" fill="#283694"/>
<path d="M92.3584 5.97656C93.6521 5.97656 94.7021 7.02656 94.7021 8.32031C94.7021 9.61406 93.6521 10.6641 92.3584 10.6641C91.0646 10.6641 90.0146 9.61406 90.0146 8.32031C90.0146 7.02656 91.0646 5.97656 92.3584 5.97656Z" fill="#56CCF2"/>
<path d="M59.5459 13.0078C33.6568 13.0078 12.6709 33.9937 12.6709 59.8828C12.6709 85.7719 33.6568 106.758 59.5459 106.758C85.435 106.758 106.421 85.7719 106.421 59.8828C106.421 33.9937 85.435 13.0078 59.5459 13.0078Z" fill="#F2C94C"/>
<path d="M59.5459 95.0391C40.1303 95.0391 24.3896 79.2984 24.3896 59.8828C24.3896 40.4672 40.1303 24.7266 59.5459 24.7266C78.9615 24.7266 94.7021 40.4672 94.7021 59.8828C94.7021 79.2984 78.9615 95.0391 59.5459 95.0391Z" fill="white"/>
<path d="M76.9714 48.8012C78.8021 50.6316 78.8021 53.5988 76.9714 55.4293L60.3988 72.0043L53.7707 78.6324L47.1402 72.0043L42.1691 67.0309C41.2553 66.1168 40.7959 64.9168 40.7959 63.7168C40.7959 62.5168 41.2553 61.3168 42.1691 60.4025C43.9998 58.572 46.967 58.572 48.7972 60.4025L53.7707 65.3736L70.3436 48.8012C71.26 47.8871 72.4576 47.4277 73.6576 47.4277C74.8576 47.4277 76.0553 47.8871 76.9714 48.8012Z" fill="#1DAB87"/>
<path d="M24.3896 106.758C25.6834 106.758 26.7334 107.808 26.7334 109.102C26.7334 110.395 25.6834 111.445 24.3896 111.445C23.0957 111.445 22.0459 110.395 22.0459 109.102C22.0459 107.808 23.0957 106.758 24.3896 106.758Z" fill="#56CCF2"/>
<path d="M18.5303 10.6641C21.767 10.6641 24.3896 13.2867 24.3896 16.5234C24.3896 19.7602 21.767 22.3828 18.5303 22.3828C15.2933 22.3828 12.6709 19.7602 12.6709 16.5234C12.6709 13.2867 15.2933 10.6641 18.5303 10.6641Z" fill="#283694"/>
<path d="M10.3271 29.4141C11.6209 29.4141 12.6709 30.4641 12.6709 31.7578C12.6709 33.0516 11.6209 34.1016 10.3271 34.1016C9.03316 34.1016 7.9834 33.0516 7.9834 31.7578C7.9834 30.4641 9.03316 29.4141 10.3271 29.4141Z" fill="#56CCF2"/>
<path d="M10.3271 88.0078C11.6209 88.0078 12.6709 89.0578 12.6709 90.3516C12.6709 91.6453 11.6209 92.6953 10.3271 92.6953C9.03316 92.6953 7.9834 91.6453 7.9834 90.3516C7.9834 89.0578 9.03316 88.0078 10.3271 88.0078Z" fill="#56CCF2"/>
<path d="M87.6709 59.8828C87.6709 58.5884 86.6214 57.5391 85.3271 57.5391C84.0329 57.5391 82.9834 58.5884 82.9834 59.8828C82.9834 72.8065 72.4696 83.3203 59.5459 83.3203C58.2514 83.3203 57.2021 84.3698 57.2021 85.6641V94.9594C57.977 95.0105 58.7582 95.0391 59.5459 95.0391C60.3336 95.0391 61.1146 95.0105 61.8896 94.9594V87.911C76.3051 86.7159 87.6709 74.6016 87.6709 59.8828Z" fill="#D0DCE7"/>
<path d="M31.4209 59.8828C31.4209 61.177 32.4702 62.2266 33.7646 62.2266C35.0589 62.2266 36.1084 61.177 36.1084 59.8828C36.1084 46.9594 46.6222 36.4453 59.5459 36.4453C60.8401 36.4453 61.8896 35.396 61.8896 34.1016V24.8062C61.1146 24.7552 60.3336 24.7266 59.5459 24.7266C58.7582 24.7266 57.977 24.7552 57.2021 24.8062V31.8546C42.7867 33.0497 31.4209 45.1641 31.4209 59.8828Z" fill="#D0DCE7"/>
</svg>
