<svg width="20" height="20" viewBox="0 0 20 20" fill="none" xmlns="http://www.w3.org/2000/svg">
<path fill-rule="evenodd" clip-rule="evenodd" d="M7.99318 2.08206C5.61993 2.08206 3.71484 3.98745 3.71484 6.36039C3.71484 8.73402 5.61978 10.6396 7.99318 10.6396C10.3667 10.6396 12.2723 8.73391 12.2723 6.36039C12.2723 3.98757 10.3665 2.08206 7.99318 2.08206ZM7.99318 3.33206C9.67623 3.33206 11.0223 4.67797 11.0223 6.36039C11.0223 8.04355 9.67633 9.38956 7.99318 9.38956C6.31023 9.38956 4.96484 8.04375 4.96484 6.36039C4.96484 4.67776 6.31033 3.33206 7.99318 3.33206ZM16.7221 6.34714C16.7221 4.48504 15.212 2.97464 13.3496 2.97464C13.0044 2.97464 12.7246 3.25446 12.7246 3.59964C12.7246 3.94482 13.0044 4.22464 13.3496 4.22464C14.5216 4.22464 15.4721 5.17533 15.4721 6.34714C15.4721 7.51946 14.5219 8.46964 13.3496 8.46964C13.0044 8.46964 12.7246 8.74946 12.7246 9.09464C12.7246 9.43982 13.0044 9.71964 13.3496 9.71964C15.2123 9.71964 16.7221 8.20982 16.7221 6.34714ZM16.0827 11.6613C15.6205 11.5588 15.1395 11.4895 14.6557 11.4566C14.3113 11.4332 14.0132 11.6933 13.9897 12.0377C13.9663 12.3821 14.2265 12.6803 14.5709 12.7037C14.9922 12.7323 15.4112 12.7928 15.8257 12.8845C16.4729 13.0134 16.9015 13.2275 17.0174 13.4707C17.1048 13.6545 17.1048 13.8699 17.0172 14.0543C16.902 14.2967 16.4756 14.5103 15.8349 14.6421C15.4968 14.7117 15.2791 15.0421 15.3486 15.3802C15.4182 15.7183 15.7486 15.936 16.0867 15.8665C17.0824 15.6617 17.8108 15.2967 18.1462 14.5908C18.3951 14.067 18.3951 13.4574 18.1461 12.9335C17.8089 12.2259 17.0728 11.8583 16.0827 11.6613ZM1.66699 15.0152C1.66699 12.8281 3.96499 12.0469 7.99283 12.0469L8.25931 12.0481C12.1297 12.0817 14.3195 12.8634 14.3195 14.9986C14.3195 17.0885 12.2207 17.8947 8.51961 17.9622L7.99283 17.9669C3.95588 17.9669 1.66699 17.1995 1.66699 15.0152ZM13.0695 14.9986C13.0695 13.8755 11.344 13.2969 7.99283 13.2969C4.64503 13.2969 2.91699 13.8844 2.91699 15.0152C2.91699 16.1389 4.64089 16.7169 7.99283 16.7169C11.3409 16.7169 13.0695 16.1294 13.0695 14.9986Z" fill="#103265"/>
</svg>
