<svg width="20" height="20" viewBox="0 0 20 20" fill="none" xmlns="http://www.w3.org/2000/svg">
<path fill-rule="evenodd" clip-rule="evenodd" d="M6.78167 18.3347C6.43833 18.3347 6.1125 18.308 5.80583 18.2555L5.62417 18.2213C3.64833 17.8105 2.5 16.2972 2.5 13.9938V6.00883C2.5 5.7305 2.51667 5.46383 2.55 5.20883C2.84083 2.97133 4.37833 1.668 6.78167 1.668H13.2192C15.8825 1.668 17.475 3.268 17.5 5.94467V6.00883V13.9938C17.5 16.708 15.9033 18.3347 13.2192 18.3347H6.78167ZM6.78143 2.88284C4.73477 2.88284 3.69727 3.93534 3.69727 6.00951V13.9945C3.69727 16.0687 4.73477 17.1212 6.78143 17.1212H13.2114C15.2573 17.1212 16.2881 16.0687 16.2881 13.9945V6.00951C16.2881 3.93534 15.2573 2.88284 13.2114 2.88284H6.78143ZM13.588 13.5291C13.588 13.1958 13.3221 12.9258 12.9938 12.9258H6.98465C6.65632 12.9258 6.38965 13.1958 6.38965 13.5291C6.38965 13.8625 6.65632 14.1325 6.98465 14.1325H12.9938C13.3221 14.1325 13.588 13.8625 13.588 13.5291ZM12.9942 9.39417C13.2234 9.36917 13.4476 9.47917 13.5701 9.67667C13.6926 9.87583 13.6926 10.1275 13.5701 10.3267C13.4476 10.5242 13.2234 10.6342 12.9942 10.6092H6.98505C6.68005 10.5742 6.44922 10.3133 6.44922 10.0017C6.44922 9.69 6.68005 9.42833 6.98505 9.39417H12.9942ZM9.81439 6.47862C9.81439 6.16696 9.58355 5.90529 9.27855 5.87112H6.99272C6.68689 5.90529 6.45605 6.16696 6.45605 6.47862C6.45605 6.78946 6.68689 7.05112 6.99272 7.08529H9.27855C9.58355 7.05112 9.81439 6.78946 9.81439 6.47862Z" fill="#103265"/>
</svg>
