<svg width="24" height="24" viewBox="0 0 24 24" fill="none" xmlns="http://www.w3.org/2000/svg">
<path d="M16.5 13.5C16.6326 13.5 16.7598 13.4473 16.8536 13.3536C16.9473 13.2598 17 13.1326 17 13V12C17 11.8674 16.9473 11.7402 16.8536 11.6464C16.7598 11.5527 16.6326 11.5 16.5 11.5C16.3674 11.5 16.2402 11.5527 16.1464 11.6464C16.0527 11.7402 16 11.8674 16 12V13C16 13.1326 16.0527 13.2598 16.1464 13.3536C16.2402 13.4473 16.3674 13.5 16.5 13.5Z" fill="#103265"/>
<path d="M16.5 16.5C16.6326 16.5 16.7598 16.4473 16.8536 16.3536C16.9473 16.2598 17 16.1326 17 16V15C17 14.8674 16.9473 14.7402 16.8536 14.6464C16.7598 14.5527 16.6326 14.5 16.5 14.5C16.3674 14.5 16.2402 14.5527 16.1464 14.6464C16.0527 14.7402 16 14.8674 16 15V16C16 16.1326 16.0527 16.2598 16.1464 16.3536C16.2402 16.4473 16.3674 16.5 16.5 16.5Z" fill="#103265"/>
<path d="M16.5 19.5C16.6326 19.5 16.7598 19.4473 16.8536 19.3536C16.9473 19.2598 17 19.1326 17 19V18C17 17.8674 16.9473 17.7402 16.8536 17.6464C16.7598 17.5527 16.6326 17.5 16.5 17.5C16.3674 17.5 16.2402 17.5527 16.1464 17.6464C16.0527 17.7402 16 17.8674 16 18V19C16 19.1326 16.0527 19.2598 16.1464 19.3536C16.2402 19.4473 16.3674 19.5 16.5 19.5Z" fill="#103265"/>
<path d="M22.5 9.49998H22.17L5.275 2.53998C5.21428 2.51457 5.14914 2.5014 5.08332 2.50122C5.01749 2.50105 4.95228 2.51387 4.89143 2.53895C4.83057 2.56404 4.77527 2.60089 4.72869 2.6474C4.68211 2.69391 4.64518 2.74916 4.62 2.80998L3.29 6.04498C3.26282 6.10552 3.24877 6.17112 3.24877 6.23748C3.24877 6.30384 3.26282 6.36944 3.29 6.42998C3.34074 6.55215 3.43783 6.64924 3.56 6.69998L4.5 7.07998C4.68229 7.15506 4.84799 7.26533 4.98763 7.4045C5.12727 7.54367 5.23811 7.709 5.3138 7.89103C5.38949 8.07307 5.42856 8.26824 5.42877 8.46539C5.42897 8.66253 5.39031 8.85779 5.315 9.03998C5.23896 9.21126 5.1322 9.36716 5 9.49998H1.5C1.36739 9.49998 1.24021 9.55266 1.14645 9.64643C1.05268 9.74019 1 9.86737 1 9.99998V13.5C1 13.6326 1.05268 13.7598 1.14645 13.8535C1.24021 13.9473 1.36739 14 1.5 14H2.5C2.89782 14 3.27936 14.158 3.56066 14.4393C3.84196 14.7206 4 15.1022 4 15.5C4 15.8978 3.84196 16.2793 3.56066 16.5606C3.27936 16.8419 2.89782 17 2.5 17H1.5C1.36739 17 1.24021 17.0527 1.14645 17.1464C1.05268 17.2402 1 17.3674 1 17.5V21C1 21.1326 1.05268 21.2598 1.14645 21.3535C1.24021 21.4473 1.36739 21.5 1.5 21.5H22.5C22.6326 21.5 22.7598 21.4473 22.8536 21.3535C22.9473 21.2598 23 21.1326 23 21V17.5C23 17.3674 22.9473 17.2402 22.8536 17.1464C22.7598 17.0527 22.6326 17 22.5 17H21.5C21.1022 17 20.7206 16.8419 20.4393 16.5606C20.158 16.2793 20 15.8978 20 15.5C20 15.1022 20.158 14.7206 20.4393 14.4393C20.7206 14.158 21.1022 14 21.5 14H22.5C22.6326 14 22.7598 13.9473 22.8536 13.8535C22.9473 13.7598 23 13.6326 23 13.5V9.99998C23 9.86737 22.9473 9.74019 22.8536 9.64643C22.7598 9.55266 22.6326 9.49998 22.5 9.49998ZM4.865 6.15498L4.405 5.96498L5.355 3.65498L19.545 9.49998H6.185C6.185 9.46998 6.215 9.44498 6.225 9.41998C6.35022 9.11631 6.41437 8.79095 6.41378 8.46248C6.41319 8.13401 6.34788 7.80887 6.22158 7.50566C6.09528 7.20244 5.91046 6.92709 5.67769 6.69533C5.44492 6.46357 5.16876 6.27996 4.865 6.15498ZM22 13H21.5C20.837 13 20.2011 13.2634 19.7322 13.7322C19.2634 14.2011 19 14.8369 19 15.5C19 16.163 19.2634 16.7989 19.7322 17.2677C20.2011 17.7366 20.837 18 21.5 18H22V20.5H2V18H2.5C3.16304 18 3.79893 17.7366 4.26777 17.2677C4.73661 16.7989 5 16.163 5 15.5C5 14.8369 4.73661 14.2011 4.26777 13.7322C3.79893 13.2634 3.16304 13 2.5 13H2V10.5H22V13Z" fill="#103265"/>
<path d="M7.5 13.5H13.5C13.6326 13.5 13.7598 13.4473 13.8536 13.3536C13.9473 13.2598 14 13.1326 14 13C14 12.8674 13.9473 12.7402 13.8536 12.6464C13.7598 12.5527 13.6326 12.5 13.5 12.5H7.5C7.36739 12.5 7.24021 12.5527 7.14645 12.6464C7.05268 12.7402 7 12.8674 7 13C7 13.1326 7.05268 13.2598 7.14645 13.3536C7.24021 13.4473 7.36739 13.5 7.5 13.5Z" fill="#103265"/>
<path d="M7.5 18.5H13.5C13.6326 18.5 13.7598 18.4473 13.8536 18.3536C13.9473 18.2598 14 18.1326 14 18C14 17.8674 13.9473 17.7402 13.8536 17.6464C13.7598 17.5527 13.6326 17.5 13.5 17.5H7.5C7.36739 17.5 7.24021 17.5527 7.14645 17.6464C7.05268 17.7402 7 17.8674 7 18C7 18.1326 7.05268 18.2598 7.14645 18.3536C7.24021 18.4473 7.36739 18.5 7.5 18.5Z" fill="#103265"/>
<path d="M7.5 16H13.5C13.6326 16 13.7598 15.9473 13.8536 15.8536C13.9473 15.7598 14 15.6326 14 15.5C14 15.3674 13.9473 15.2402 13.8536 15.1464C13.7598 15.0527 13.6326 15 13.5 15H7.5C7.36739 15 7.24021 15.0527 7.14645 15.1464C7.05268 15.2402 7 15.3674 7 15.5C7 15.6326 7.05268 15.7598 7.14645 15.8536C7.24021 15.9473 7.36739 16 7.5 16Z" fill="#103265"/>
</svg>
