<svg width="15" height="17" viewBox="0 0 15 17" fill="none" xmlns="http://www.w3.org/2000/svg">
<path d="M-0.000695578 3.65499C-0.0116785 3.47311 0.0496184 3.29426 0.169854 3.15736C0.29009 3.02045 0.459533 2.93658 0.641304 2.92399H2.8623C3.08839 2.90857 3.30411 2.82331 3.47966 2.68001C3.65521 2.5367 3.78193 2.34241 3.8423 2.12399L3.8673 2.04099L3.9673 1.71499C4.01481 1.53387 4.0753 1.35642 4.1483 1.18399C4.27139 0.892487 4.46319 0.635099 4.70733 0.4338C4.95146 0.2325 5.24069 0.0932679 5.5503 0.0279899C5.71583 0.00406511 5.88314 -0.00530408 6.0503 -1.00812e-05H8.9503C9.11747 -0.00535046 9.28478 0.00401896 9.4503 0.0279899C9.7604 0.0922213 10.0503 0.230673 10.2952 0.431482C10.5401 0.632292 10.7326 0.889472 10.8563 1.18099C10.9294 1.35347 10.9902 1.53092 11.0383 1.71199L11.1333 2.03799L11.1583 2.12099C11.235 2.3445 11.3767 2.54004 11.5651 2.68256C11.7536 2.82508 11.9804 2.9081 12.2163 2.92099H14.3583C14.5403 2.93333 14.71 3.01709 14.8304 3.15403C14.9508 3.29096 15.0123 3.46995 15.0013 3.65199C15.0123 3.83387 14.951 4.01272 14.8308 4.14962C14.7105 4.28653 14.5411 4.3704 14.3593 4.38299H0.641304C0.460083 4.37039 0.291111 4.28694 0.170959 4.15069C0.0508073 4.01445 -0.0108599 3.83636 -0.000695578 3.65499Z" fill="#637381"/>
<path fill-rule="evenodd" clip-rule="evenodd" d="M7.16229 16.667H7.83529C10.1543 16.667 11.3133 16.667 12.0683 15.929C12.8233 15.191 12.8983 13.98 13.0523 11.558L13.2743 8.068C13.3573 6.754 13.3993 6.096 13.0223 5.68C12.6453 5.264 12.0053 5.263 10.7283 5.263H4.26929C2.99129 5.263 2.35229 5.263 1.97529 5.68C1.59829 6.097 1.63829 6.753 1.72229 8.068L1.94429 11.558C2.09829 13.98 2.17529 15.191 2.92929 15.929C3.68329 16.667 4.84329 16.667 7.16229 16.667ZM6.03729 8.491C6.03174 8.40726 6.00958 8.32546 5.97212 8.25036C5.93466 8.17525 5.88263 8.10835 5.81908 8.05354C5.75552 7.99873 5.6817 7.95711 5.6019 7.93109C5.52211 7.90508 5.43794 7.89519 5.35429 7.902C5.18501 7.92422 5.0313 8.01226 4.92648 8.14703C4.82165 8.2818 4.77416 8.45245 4.79429 8.622L5.21129 13.008C5.21685 13.0917 5.239 13.1735 5.27647 13.2486C5.31393 13.3237 5.36595 13.3906 5.42951 13.4455C5.49307 13.5003 5.56689 13.5419 5.64668 13.5679C5.72647 13.5939 5.81064 13.6038 5.89429 13.597C6.06347 13.5745 6.21701 13.4864 6.32179 13.3517C6.42656 13.217 6.47416 13.0465 6.45429 12.877L6.03729 8.491ZM9.64429 7.902C9.8134 7.92446 9.96685 8.0126 10.0715 8.14735C10.1761 8.28209 10.2234 8.45261 10.2033 8.622L9.78629 13.008C9.7806 13.0917 9.75836 13.1734 9.72086 13.2485C9.68335 13.3235 9.63133 13.3904 9.5678 13.4451C9.50427 13.4999 9.4305 13.5416 9.35077 13.5676C9.27103 13.5937 9.18691 13.6037 9.10329 13.597C8.93412 13.5745 8.78057 13.4864 8.6758 13.3517C8.57102 13.217 8.52343 13.0465 8.54329 12.877L8.96029 8.491C8.96597 8.40712 8.98828 8.32521 9.02591 8.25003C9.06354 8.17486 9.11575 8.10791 9.17949 8.0531C9.24324 7.99829 9.31725 7.95671 9.39721 7.93076C9.47718 7.90482 9.56051 7.89505 9.64429 7.902Z" fill="#637381"/>
</svg>
