<svg width="24" height="24" viewBox="0 0 24 24" fill="none" xmlns="http://www.w3.org/2000/svg">
<g clip-path="url(#clip0_9189_13011)">
<path fill-rule="evenodd" clip-rule="evenodd" d="M3.22704 0.366762C3.31217 0.263002 3.44906 0.16748 3.6403 0.16748H20.3509C20.5421 0.16748 20.679 0.263022 20.7641 0.366808C20.8311 0.448442 20.8738 0.545436 20.896 0.596008C20.8971 0.598497 20.8981 0.600875 20.8991 0.603132C20.8993 0.603438 20.8994 0.603741 20.8995 0.604043L21.7433 2.48529H23.1907C23.6318 2.48529 23.9912 2.84456 23.9912 3.28582V8.80483C23.9912 9.24607 23.6318 9.60532 23.1907 9.60532H22.7532V21.0338C23.4346 21.1298 23.9619 21.7186 23.9619 22.4263V23.2418C23.9619 23.5649 23.7008 23.8325 23.3726 23.8325H0.618552C0.292948 23.8325 0.027881 23.5675 0.027881 23.2418V22.4263C0.027881 21.7182 0.555621 21.1296 1.23794 21.0337V9.60532H0.800484C0.35929 9.60532 0 9.24603 0 8.80483V3.28582C0 2.8446 0.359266 2.48529 0.800484 2.48529H2.2478L3.09196 0.603191C3.09296 0.60093 3.09401 0.598549 3.0951 0.596056C3.11736 0.545455 3.16003 0.448432 3.22704 0.366762ZM20.9727 2.48529H3.01841L3.73392 0.890027L3.73471 0.888261C3.73752 0.88189 3.74012 0.87603 3.74255 0.870605H20.2486C20.251 0.87603 20.2536 0.88189 20.2564 0.888261L20.2572 0.890027L20.9727 2.48529ZM2.47162 3.18841H0.800484C0.747639 3.18841 0.703125 3.23288 0.703125 3.28582V5.69308H1.39552C1.58969 5.69308 1.74709 5.85048 1.74709 6.04465C1.74709 6.23881 1.58969 6.39621 1.39552 6.39621H0.703125V8.80483C0.703125 8.8577 0.747616 8.90219 0.800484 8.90219H1.58588C1.58709 8.90218 1.58829 8.90217 1.5895 8.90217C1.59071 8.90217 1.59192 8.90218 1.59312 8.90219H11.109C11.1401 8.90219 11.1704 8.90625 11.1992 8.91387C11.228 8.90625 11.2582 8.90219 11.2894 8.90219H22.3981C22.3993 8.90218 22.4005 8.90217 22.4017 8.90217C22.4029 8.90217 22.4041 8.90218 22.4053 8.90219H23.1907C23.2436 8.90219 23.2881 8.85766 23.2881 8.80483V6.39621H22.5943C22.4001 6.39621 22.2427 6.23881 22.2427 6.04465C22.2427 5.85048 22.4001 5.69308 22.5943 5.69308H23.2881V3.28582C23.2881 3.23293 23.2435 3.18841 23.1907 3.18841H21.5195C21.5182 3.18843 21.517 3.18843 21.5157 3.18843H2.47541C2.47415 3.18843 2.47288 3.18843 2.47162 3.18841ZM22.0501 9.60532H11.2894C11.2582 9.60532 11.228 9.60126 11.1992 9.59364C11.1704 9.60126 11.1401 9.60532 11.109 9.60532H1.94106V21.0201H3.41891V12.9384C3.41891 12.474 3.7974 12.094 4.26191 12.094H9.65591C10.1211 12.094 10.5002 12.4733 10.5002 12.9384V21.0201H22.0501V18.2192H13.3497C13.2023 18.2192 13.0556 18.1743 12.9381 18.0851C12.8203 17.9956 12.7166 17.8465 12.7166 17.6537V12.6594C12.7166 12.4667 12.821 12.3179 12.9376 12.2291C13.0545 12.1399 13.2012 12.094 13.3497 12.094H22.0501V9.60532ZM22.0501 12.7972H13.4197V17.5161H22.0501V12.7972ZM13.3462 17.5158C13.3462 17.5158 13.3465 17.5158 13.347 17.5159C13.3464 17.5159 13.3462 17.5158 13.3462 17.5158ZM13.3469 12.7974C13.3468 12.7974 13.347 12.7973 13.3477 12.7973C13.3473 12.7974 13.347 12.7974 13.3469 12.7974ZM1.43408 21.7232C1.04779 21.7232 0.731006 22.04 0.731006 22.4263V23.1293H23.2588V22.4263C23.2588 22.0397 22.9418 21.7232 22.5571 21.7232H1.43408ZM9.79709 21.0201V12.9384C9.79709 12.8616 9.73264 12.7972 9.65591 12.7972H4.26191C4.18707 12.7972 4.12203 12.8609 4.12203 12.9384V21.0201H9.79709ZM19.7033 4.39805C19.8975 4.3962 20.0564 4.55209 20.0582 4.74624L20.0821 7.25134L20.0822 7.25282L20.0822 7.25469C20.0822 7.30201 20.0753 7.36036 20.0512 7.42076C20.0282 7.47842 19.9783 7.56384 19.8774 7.61884C19.764 7.68067 19.6404 7.67432 19.5443 7.63149C19.4595 7.5937 19.4065 7.53389 19.3769 7.49249C19.3757 7.49088 19.3746 7.48926 19.3735 7.48763L18.2651 5.88181V7.34104C18.2651 7.5352 18.1077 7.6926 17.9135 7.6926C17.7194 7.6926 17.562 7.5352 17.562 7.34104V4.75358C17.562 4.59971 17.662 4.46372 17.8089 4.41794C17.9559 4.37216 18.1155 4.42724 18.2029 4.55388L19.3694 6.2439L19.3551 4.75295C19.3533 4.5588 19.5092 4.39991 19.7033 4.39805ZM11.2431 4.40068C11.4373 4.40068 11.5947 4.55808 11.5947 4.75224V6.98642C11.6308 6.98636 11.6678 6.98627 11.7048 6.98615C11.8158 6.98582 11.926 6.98532 12.0085 6.9849C12.0497 6.9847 12.084 6.98451 12.108 6.98437L12.1454 6.98416L12.1455 6.98416C12.1455 6.98416 12.1455 6.98415 12.1477 7.33571L12.1455 6.98415C12.3397 6.98297 12.4981 7.13941 12.4992 7.33357C12.5004 7.52773 12.344 7.68608 12.1498 7.68727H12.1498L12.1497 7.68727L12.1119 7.68749C12.0879 7.68762 12.0534 7.68781 12.0121 7.68802C11.9293 7.68844 11.8186 7.68894 11.7069 7.68928C11.5954 7.68961 11.4824 7.68978 11.3952 7.68953C11.3518 7.6894 11.3138 7.68917 11.2852 7.68877C11.2711 7.68858 11.2578 7.68833 11.2467 7.68797C11.2413 7.6878 11.2344 7.68755 11.2274 7.68713C11.2239 7.68692 11.2187 7.68658 11.2126 7.68601C11.2088 7.68566 11.1945 7.68436 11.177 7.68099C11.0113 7.64926 10.8916 7.50436 10.8916 7.33571V4.75224C10.8916 4.55808 11.049 4.40068 11.2431 4.40068ZM11.2617 6.98486C11.2618 6.98483 11.2642 6.98491 11.2681 6.98518C11.2636 6.98502 11.2616 6.98489 11.2617 6.98486ZM13.2558 6.04465C13.2558 5.14009 13.9934 4.40069 14.8998 4.40069C15.8046 4.40069 16.5437 5.13986 16.5437 6.04465C16.5437 6.95098 15.8043 7.6886 14.8998 7.6886C13.9937 7.6886 13.2558 6.95075 13.2558 6.04465ZM14.8998 5.10382C14.3822 5.10382 13.9589 5.52795 13.9589 6.04465C13.9589 6.56242 14.382 6.98547 14.8998 6.98547C15.4165 6.98547 15.8406 6.56219 15.8406 6.04465C15.8406 5.52819 15.4162 5.10382 14.8998 5.10382ZM8.4472 5.63718L8.1748 6.3519H8.71699L8.4472 5.63718ZM8.98241 7.05502L9.13574 7.46123C9.20431 7.64288 9.40715 7.73455 9.5888 7.66598C9.77046 7.59741 9.86213 7.39457 9.79356 7.21291L8.83187 4.66526C8.83086 4.66259 8.82982 4.65994 8.82875 4.6573C8.69018 4.31558 8.20685 4.31558 8.06828 4.6573C8.06735 4.65959 8.06644 4.6619 8.06556 4.66421L7.09459 7.21187C7.02544 7.3933 7.11646 7.59643 7.2979 7.66558C7.47933 7.73473 7.68246 7.64371 7.75161 7.46227L7.90682 7.05502H8.98241ZM6.07944 4.75015C6.07955 4.75024 6.07965 4.75033 5.85316 5.01921L6.07965 4.75033C6.22815 4.87542 6.24713 5.09721 6.12204 5.2457C5.9975 5.39355 5.7771 5.41301 5.62862 5.28972C5.62855 5.28966 5.62846 5.28959 5.62835 5.28951C5.6273 5.28867 5.62469 5.28661 5.62061 5.28353C5.61242 5.27736 5.59853 5.26728 5.57966 5.25493C5.54149 5.22996 5.48555 5.1974 5.41738 5.1689C5.27869 5.11093 5.11333 5.079 4.94373 5.13005C4.81632 5.16853 4.77017 5.24739 4.75933 5.30745C4.74882 5.36568 4.76672 5.41796 4.80886 5.45341C4.81659 5.4568 4.82565 5.46076 4.83596 5.46525C4.87429 5.48194 4.9297 5.50581 4.9973 5.53417C5.13278 5.59103 5.3156 5.66529 5.50707 5.73598C5.79778 5.84304 6.02416 6.00838 6.15945 6.22817C6.29733 6.45218 6.3215 6.70316 6.25555 6.93081C6.12712 7.37412 5.68 7.6886 5.1611 7.6886C4.67513 7.6886 4.26005 7.47713 4.0002 7.19071C3.86974 7.0469 3.88056 6.82457 4.02436 6.69411C4.16817 6.56365 4.3905 6.57447 4.52096 6.71827C4.65158 6.86225 4.87944 6.98547 5.1611 6.98547C5.4086 6.98547 5.5499 6.83973 5.5802 6.73515C5.59361 6.68885 5.58973 6.64396 5.56067 6.59674C5.52901 6.54532 5.44956 6.46409 5.26409 6.39578L5.26384 6.39569C5.05959 6.3203 4.86662 6.24186 4.72522 6.18252C4.65435 6.15278 4.59604 6.12767 4.55525 6.10991C4.53485 6.10103 4.51881 6.09398 4.50776 6.08909C4.50223 6.08665 4.49795 6.08475 4.49498 6.08343L4.49154 6.08189L4.4903 6.08134L4.4902 6.08129L4.49017 6.08128C4.49017 6.08128 4.49014 6.08127 4.6338 5.7604L4.49017 6.08128C4.47355 6.07384 4.45752 6.06511 4.44225 6.0552C3.79333 5.63356 3.99197 4.68266 4.74089 4.45682L4.74105 4.45677C5.11863 4.34311 5.45865 4.42407 5.68856 4.52018C5.80468 4.56872 5.89883 4.6235 5.96468 4.66659C5.99783 4.68829 6.02443 4.70743 6.04373 4.72197C6.05339 4.72925 6.06128 4.73542 6.06729 4.74022C6.07029 4.74262 6.07283 4.74468 6.07489 4.74638C6.07593 4.74722 6.07684 4.74798 6.07763 4.74864L6.07873 4.74956L6.07922 4.74996L6.07944 4.75015ZM5.40418 16.7776C5.59835 16.7776 5.75575 16.935 5.75575 17.1291V17.8676C5.75575 18.0618 5.59835 18.2192 5.40418 18.2192C5.21002 18.2192 5.05262 18.0618 5.05262 17.8676V17.1291C5.05262 16.935 5.21002 16.7776 5.40418 16.7776Z" fill="#103265"/>
</g>
<defs>
<clipPath id="clip0_9189_13011">
<rect width="24" height="24" fill="white"/>
</clipPath>
</defs>
</svg>
